<svg width="149" height="169" xmlns="http://www.w3.org/2000/svg" xmlns:xlink="http://www.w3.org/1999/xlink" overflow="hidden"><defs><clipPath id="clip0"><rect x="33" y="357" width="149" height="169"/></clipPath></defs><g clip-path="url(#clip0)" transform="translate(-33 -357)"><path d="M107.5 359C109.789 359 112.079 359.59 114.13 360.77L174.369 395.415C178.472 397.775 181 402.135 181 406.855L181 476.145C181 480.864 178.472 485.225 174.369 487.585L114.13 522.23C110.027 524.59 104.972 524.59 100.869 522.23L40.6305 487.585C36.5276 485.225 34 480.864 34 476.145L34 406.855C34 402.135 36.5276 397.775 40.6305 395.415L100.869 360.77C102.921 359.59 105.21 359 107.5 359Z" fill="#1C132F" fill-rule="evenodd"/><path d="M107.5 386.849C106.002 386.849 104.504 387.236 103.162 388.01L63.7548 410.75C61.0707 412.299 59.4172 415.162 59.4172 418.26L59.4172 463.74C59.4172 466.838 61.0707 469.7 63.7548 471.249L103.162 493.989C105.846 495.539 109.153 495.539 111.837 493.989L151.245 471.249C153.929 469.7 155.583 466.838 155.583 463.74L155.583 418.26C155.583 415.162 153.929 412.299 151.245 410.75L111.837 388.01C110.495 387.236 108.998 386.849 107.5 386.849ZM107.5 383C109.104 383 110.708 383.415 112.146 384.244L154.354 408.601C157.229 410.26 159 413.325 159 416.643L159 465.356C159 468.674 157.229 471.74 154.354 473.399L112.146 497.755C109.271 499.415 105.729 499.415 102.854 497.755L60.6459 473.399C57.771 471.74 56 468.674 56 465.356L56 416.643C56 413.325 57.771 410.26 60.6459 408.601L102.854 384.244C104.291 383.415 105.896 383 107.5 383Z" fill="#EF6F6C" fill-rule="evenodd"/><path d="M107.5 363.541C105.333 363.541 103.166 364.098 101.225 365.213L44.2181 397.951C40.3353 400.181 37.9433 404.302 37.9433 408.762L37.9433 474.238C37.9433 478.698 40.3353 482.819 44.2181 485.049L101.225 517.786C105.108 520.017 109.892 520.017 113.774 517.786L170.782 485.049C174.665 482.819 177.057 478.698 177.057 474.238L177.057 408.762C177.057 404.302 174.665 400.181 170.782 397.951L113.774 365.213C111.833 364.098 109.666 363.541 107.5 363.541ZM107.5 358C109.82 358 112.141 358.597 114.22 359.791L175.279 394.856C179.438 397.245 182 401.658 182 406.435L182 476.565C182 481.341 179.438 485.755 175.279 488.144L114.22 523.208C110.062 525.597 104.938 525.597 100.779 523.208L39.7207 488.144C35.562 485.755 33 481.341 33 476.565L33 406.435C33 401.658 35.562 397.245 39.7207 394.856L100.779 359.791C102.858 358.597 105.179 358 107.5 358Z" fill="#224C87" fill-rule="evenodd"/><path d="M43 441 172 441 172 476 43 476Z" fill="#1C132F" fill-rule="evenodd"/><path d="M122.702 421.14 122.702 427.973 126.402 427.973C127.69 427.973 128.646 427.676 129.268 427.081 129.89 426.487 130.201 425.651 130.201 424.574 130.201 422.285 128.934 421.14 126.402 421.14ZM102.58 421.14 102.58 427.973 106.28 427.973C107.568 427.973 108.524 427.676 109.146 427.081 109.768 426.487 110.079 425.651 110.079 424.574 110.079 422.285 108.812 421.14 106.28 421.14ZM118.036 417.303 126.602 417.303C128.401 417.303 129.934 417.617 131.201 418.245 132.467 418.874 133.417 419.738 134.05 420.837 134.683 421.937 135 423.182 135 424.574 135 425.83 134.706 427.008 134.117 428.108 133.528 429.208 132.606 430.094 131.351 430.767 130.095 431.44 128.512 431.777 126.602 431.777L122.702 431.777 122.702 440.798 118.036 440.798ZM97.9145 417.303 106.48 417.303C108.279 417.303 109.812 417.617 111.079 418.245 112.345 418.874 113.295 419.738 113.928 420.837 114.561 421.937 114.878 423.182 114.878 424.574 114.878 425.83 114.584 427.008 113.995 428.108 113.406 429.208 112.484 430.094 111.229 430.767 109.973 431.44 108.39 431.777 106.48 431.777L102.58 431.777 102.58 440.798 97.9145 440.798ZM82.7978 417C85.3974 417 87.6747 417.673 89.6298 419.02 91.5851 420.366 92.9515 422.229 93.7291 424.607L88.3634 424.607C87.8302 423.485 87.0803 422.644 86.1138 422.083 85.1473 421.522 84.0309 421.241 82.7645 421.241 81.4092 421.241 80.2038 421.561 79.1485 422.201 78.0931 422.84 77.271 423.743 76.6823 424.91 76.0935 426.077 75.7991 427.446 75.7991 429.017 75.7991 430.565 76.0935 431.928 76.6823 433.107 77.271 434.285 78.0931 435.194 79.1485 435.833 80.2038 436.473 81.4092 436.792 82.7645 436.792 84.0309 436.792 85.1473 436.506 86.1138 435.934 87.0803 435.362 87.8302 434.515 88.3634 433.393L93.7291 433.393C92.9515 435.794 91.5906 437.662 89.6465 438.997 87.7025 440.332 85.4195 441 82.7978 441 80.576 441 78.5708 440.49 76.7822 439.468 74.9937 438.447 73.5829 437.028 72.5497 435.21 71.5166 433.393 71 431.328 71 429.017 71 426.705 71.5166 424.635 72.5497 422.806 73.5829 420.978 74.9937 419.553 76.7822 418.532 78.5708 417.511 80.576 417 82.7978 417Z" fill="#EF6F6C" fill-rule="evenodd"/><path d="M77.2088 451.996C76.2214 451.996 75.3476 452.218 74.5874 452.662 73.8272 453.105 73.2356 453.743 72.8123 454.576 72.3891 455.408 72.1775 456.379 72.1775 457.488 72.1775 458.598 72.3891 459.573 72.8123 460.413 73.2356 461.253 73.8272 461.899 74.5874 462.35 75.3476 462.802 76.2214 463.028 77.2088 463.028 78.1963 463.028 79.0662 462.802 79.8185 462.35 80.5709 461.899 81.1587 461.253 81.5818 460.413 82.0051 459.573 82.2167 458.598 82.2167 457.488 82.2167 456.379 82.0051 455.408 81.5818 454.576 81.1587 453.743 80.5709 453.105 79.8185 452.662 79.0662 452.218 78.1963 451.996 77.2088 451.996ZM151.962 449.238 164 449.238 164 451.925 159.627 451.925 159.627 465.834 156.336 465.834 156.336 451.925 151.962 451.925ZM122.332 449.214 131.854 449.214 131.854 451.925 125.623 451.925 125.623 456.085 131.148 456.085 131.148 458.724 125.623 458.724 125.623 463.123 131.854 463.123 131.854 465.834 122.332 465.834ZM105.175 449.214 108.467 449.214 115.92 460.627 115.92 449.214 119.211 449.214 119.211 465.834 115.92 465.834 108.467 454.445 108.467 465.834 105.175 465.834ZM88.0188 449.214 91.3103 449.214 98.7632 460.627 98.7632 449.214 102.055 449.214 102.055 465.834 98.7632 465.834 91.3103 454.445 91.3103 465.834 88.0188 465.834ZM142.564 449.024C144.398 449.024 146.004 449.499 147.384 450.45 148.763 451.401 149.727 452.717 150.275 454.397L146.49 454.397C146.114 453.605 145.585 453.01 144.903 452.614 144.221 452.218 143.434 452.02 142.54 452.02 141.584 452.02 140.734 452.245 139.989 452.697 139.245 453.149 138.665 453.787 138.25 454.611 137.834 455.435 137.627 456.402 137.627 457.512 137.627 458.606 137.834 459.569 138.25 460.401 138.665 461.233 139.245 461.875 139.989 462.327 140.734 462.778 141.584 463.004 142.54 463.004 143.434 463.004 144.221 462.802 144.903 462.398 145.585 461.994 146.114 461.395 146.49 460.603L150.275 460.603C149.727 462.299 148.767 463.618 147.395 464.562 146.024 465.505 144.413 465.976 142.564 465.976 140.996 465.976 139.582 465.616 138.32 464.894 137.058 464.173 136.063 463.171 135.334 461.887 134.605 460.603 134.241 459.145 134.241 457.512 134.241 455.879 134.605 454.417 135.334 453.125 136.063 451.833 137.058 450.827 138.32 450.106 139.582 449.384 140.996 449.024 142.564 449.024ZM59.3229 449.024C61.1567 449.024 62.7633 449.499 64.1426 450.45 65.5218 451.401 66.4858 452.717 67.0344 454.397L63.2492 454.397C62.873 453.605 62.344 453.01 61.6622 452.614 60.9804 452.218 60.1927 452.02 59.2993 452.02 58.3432 452.02 57.4929 452.245 56.7484 452.697 56.0039 453.149 55.424 453.787 55.0086 454.611 54.5932 455.435 54.3855 456.402 54.3855 457.512 54.3855 458.606 54.5932 459.569 55.0086 460.401 55.424 461.233 56.0039 461.875 56.7484 462.327 57.4929 462.778 58.3432 463.004 59.2993 463.004 60.1927 463.004 60.9804 462.802 61.6622 462.398 62.344 461.994 62.873 461.395 63.2492 460.603L67.0344 460.603C66.4858 462.299 65.5258 463.618 64.1543 464.562 62.7829 465.505 61.1724 465.976 59.3229 465.976 57.7555 465.976 56.3409 465.616 55.0791 464.894 53.8174 464.173 52.8221 463.171 52.0933 461.887 51.3644 460.603 51 459.145 51 457.512 51 455.879 51.3644 454.417 52.0933 453.125 52.8221 451.833 53.8174 450.827 55.0791 450.106 56.3409 449.384 57.7555 449.024 59.3229 449.024ZM77.2088 449C78.7606 449 80.1752 449.365 81.4526 450.094 82.73 450.823 83.741 451.833 84.4855 453.125 85.23 454.417 85.6022 455.871 85.6022 457.488 85.6022 459.121 85.23 460.583 84.4855 461.875 83.741 463.167 82.7261 464.177 81.4408 464.906 80.1556 465.635 78.7449 466 77.2088 466 75.6728 466 74.2622 465.635 72.9769 464.906 71.6917 464.177 70.6728 463.167 69.9205 461.875 69.1682 460.583 68.792 459.121 68.792 457.488 68.792 455.871 69.1682 454.417 69.9205 453.125 70.6728 451.833 71.6917 450.823 72.9769 450.094 74.2622 449.365 75.6728 449 77.2088 449Z" fill="#224C87" fill-rule="evenodd"/></g></svg>