<svg width="969" height="580" xmlns="http://www.w3.org/2000/svg" xmlns:xlink="http://www.w3.org/1999/xlink" overflow="hidden"><defs><clipPath id="clip0"><rect x="141" y="80" width="969" height="580"/></clipPath></defs><g clip-path="url(#clip0)" transform="translate(-141 -80)"><path d="M102.154 377.931C101.806 377.351 101.228 375.263 100.765 373.291 100.302 370.623 99.3755 369.463 97.8705 369.463 96.7129 369.463 94.8607 369.115 93.8188 368.767 92.5454 368.187 91.735 368.767 91.272 370.507 90.4616 373.871 87.2203 373.175 86.2942 369.579 85.3681 365.519 83.0528 365.287 82.5897 369.115 82.3582 371.435 81.548 372.363 79.9273 372.363 78.1908 372.363 77.4963 371.435 77.2647 368.767 76.9174 364.59 73.3288 360.762 70.8977 361.69 69.8559 362.038 69.5086 363.546 69.8559 365.867 70.6662 371.783 66.4987 369.811 65.1095 363.662 64.7623 362.038 63.6046 359.718 62.5627 358.442 60.8263 356.122 60.7105 356.122 58.9741 358.79 56.4273 362.154 53.8805 362.038 53.8805 358.558 53.8805 355.426 49.2499 349.277 45.4297 347.305 43.5775 346.261 42.8829 346.377 42.0726 347.885 39.9888 351.481 37.9051 349.857 36.5159 343.593 35.7056 339.417 34.2007 336.516 32.0012 334.312 28.5282 331.064 26.0973 330.252 26.0973 332.34 26.0973 333.036 25.0555 333.5 23.8978 333.5 22.0456 333.5 21.4668 332.34 20.888 326.888 20.4249 322.827 18.4569 316.563 15.7944 310.879 10.2377 299.162 6.99635 287.445 5.14413 272.248 2.59733 251.25 6.41753 219.348 13.4791 204.035 14.6367 201.251 15.6786 198.698 15.6786 198.234 15.6786 197.77 17.6466 194.522 19.9619 190.926 26.7918 180.833 27.2549 179.441 27.9494 169.464 28.644 160.648 28.5282 159.72 25.8658 156.587 15.2156 143.362 11.6269 135.938 12.6688 129.209 14.2895 119.001 20.0776 115.636 31.1908 118.189 34.6637 119.001 38.3682 120.509 39.41 121.669 40.4519 122.713 41.7253 123.525 42.3041 123.525 44.6194 123.525 47.282 136.518 46.5874 144.059 45.6613 153.223 43.9248 157.051 39.1785 160.068 36.0529 161.924 35.4741 163.084 35.3583 166.68 35.3583 169 35.9371 171.32 36.5159 171.669 38.2524 172.712 45.8928 170.044 49.0184 167.26 51.9125 164.592 52.4913 157.515 50.2918 149.743 47.9765 141.39 51.7967 135.126 59.2056 135.126L63.3731 135.126 62.5627 116.912C61.6366 99.2792 61.4051 94.5229 61.0578 91.3907 60.9421 90.5785 60.0159 89.8825 58.9741 89.8825 56.3115 89.8825 50.8706 86.6343 42.8829 80.3698 34.8952 74.1054 32.1169 70.0451 30.9593 62.9685 30.1489 58.6762 29.6859 57.9802 26.4445 57.2841 24.3609 56.9362 21.351 55.66 19.8461 54.6159 18.2254 53.572 15.7944 52.7598 14.521 52.7598 13.2476 52.7598 11.7427 51.8318 11.3954 50.7877 10.9323 49.6276 9.19585 47.5395 7.4594 46.1474-0.180998 39.6508-3.53814 23.1777 1.0924 14.4771 3.98649 9.14067 5.25989 8.21263 15.9101 4.15231 23.6663 1.13608 26.676 0.672121 41.378-0.0239413 61.4051-0.951982 79.1169 1.36818 85.8311 5.77641 87.2203 6.70457 93.1242 7.51656 100.302 7.98065 106.9 8.32868 118.245 8.90869 125.422 9.37277 138.04 10.0687 138.619 9.95278 140.356 7.51656 141.976 5.1964 142.787 4.96442 154.479 5.42838 168.949 5.89246 175.548 8.32868 180.989 15.2892 186.661 22.5977 187.703 25.7299 187.24 34.3146 186.893 38.6069 180.294 48.1195 177.632 48.1195 176.358 48.1195 175.085 48.8156 174.737 49.6276 174.39 50.5557 170.338 53.2239 165.592 55.5441L157.141 59.9523 157.026 69.117C157.026 75.8456 156.331 79.5579 154.595 83.1541 153.321 85.8223 152.279 88.6064 152.279 89.1865 152.164 92.3187 146.723 96.959 142.324 97.6551 139.893 98.0031 137.23 98.8152 136.42 99.3952 135.725 99.9753 134.915 105.892 134.452 114.012 134.105 121.437 133.526 132.342 133.178 138.258L132.715 148.931 135.957 149.627C141.976 150.903 147.649 160.3 147.649 168.768 147.649 176.309 148.459 178.049 152.164 178.049 153.9 178.049 157.489 179.905 160.962 182.689 167.329 187.794 169.644 188.49 169.644 185.125 169.644 180.833 168.37 179.209 165.592 179.905 163.161 180.485 162.466 179.789 160.267 174.917 154.595 162.852 158.183 144.87 166.866 142.086 171.728 140.462 181.915 141.738 186.661 144.639 193.491 148.699 195.112 152.295 195.112 163.2 194.996 177.353 190.597 184.429 181.336 185.473 179.252 185.705 177.053 186.634 176.474 187.446 174.506 190.462 176.705 197.77 180.757 202.179 184.577 206.239 193.954 220.856 197.658 228.513 198.585 230.485 199.974 236.169 200.784 241.273 201.594 246.378 202.752 253.802 203.331 257.631 204.373 263.199 204.141 266.679 202.752 273.872 199.974 287.909 196.501 300.09 194.533 302.178 193.607 303.222 192.681 306.354 192.681 309.254 192.565 312.039 191.755 315.635 190.944 317.259 184.114 330.368 180.063 339.881 180.063 342.781 180.063 344.637 179.484 347.537 178.789 349.277L177.632 352.526 174.969 349.161C172.769 346.377 172.191 346.145 171.612 347.769 171.149 348.929 170.107 349.741 169.181 349.741 167.213 349.741 166.171 352.178 166.171 356.702 166.171 360.878 163.971 362.386 162.003 359.718 160.73 357.862 160.035 357.862 156.447 359.022 152.164 360.414 151.469 361.574 150.89 368.883 150.659 371.087 149.848 372.363 148.806 372.363 147.765 372.363 146.838 370.971 146.491 368.883 145.681 364.126 141.398 363.894 140.934 368.651 140.471 372.479 138.388 372.711 133.757 369.347 128.779 365.634 124.728 367.027 124.265 372.711 124.033 376.075 123.454 377.003 121.602 377.003 119.866 377.003 119.171 376.075 118.708 372.943 118.361 370.623 117.435 368.883 116.74 368.999 115.93 369.115 113.383 369.231 111.183 369.347 107.016 369.463 106.784 369.811 105.511 375.611 104.816 378.627 103.196 379.671 102.154 377.931ZM99.9543 362.85C101.112 360.53 99.8385 339.069 97.2917 316.679 95.0922 297.306 94.9764 286.633 97.1759 284.893 98.1021 284.081 99.0282 283.965 99.3755 284.429 99.607 284.893 100.186 291.389 100.649 298.698 101.112 306.006 102.154 319.115 103.08 327.7 104.006 336.284 104.932 347.537 105.164 352.758 105.395 357.978 105.974 362.734 106.437 363.43 107.479 365.054 116.045 364.474 117.898 362.618 119.055 361.458 118.708 354.962 115.235 322.479 113.73 308.558 113.846 288.489 115.351 287.561 117.666 286.169 118.708 289.765 118.708 299.278 118.824 309.138 120.213 325.496 122.181 338.72 122.76 343.245 123.686 350.321 124.149 354.73L124.843 362.502 128.548 362.502C132.715 362.502 133.757 360.994 133.063 356.586 132.831 355.078 132.137 348.117 131.442 341.041 130.863 334.08 129.59 320.739 128.548 311.459 126.58 292.897 126.927 286.749 130.053 287.329 131.558 287.561 132.021 289.069 132.252 293.477 132.368 296.726 132.947 305.542 133.641 313.199 134.336 320.855 135.494 333.848 136.073 341.969 137.23 356.122 138.388 361.342 140.587 361.342 141.166 361.342 142.787 360.414 144.292 359.138L146.954 357.05 145.333 335.124C143.018 301.598 142.787 287.561 144.639 285.937 147.88 283.269 148.343 286.633 149.385 321.899 149.732 335.588 150.427 348.581 150.774 350.669 151.469 354.962 154.016 355.542 158.067 352.294L160.73 350.089 159.341 328.744C157.489 297.538 157.257 287.445 158.878 285.821 159.572 285.125 160.614 284.777 161.309 285.241 161.888 285.589 162.698 296.726 163.161 309.951 163.971 333.268 165.013 343.129 166.75 344.869 167.097 345.333 169.065 343.941 171.033 341.737L174.506 337.909 174.159 311.923C173.811 292.665 174.043 285.705 175.2 284.545 175.895 283.849 176.937 283.617 177.4 284.081 177.863 284.545 178.442 295.101 178.673 307.514L179.136 330.02 181.567 325.728C185.388 318.419 188.166 309.138 188.976 300.786 189.555 294.405 190.366 291.969 193.028 288.605 197.543 282.805 198.006 280.6 198.006 263.315 198.006 245.914 196.385 237.329 191.292 226.772 186.777 217.492 179.021 206.819 177.284 207.399 176.358 207.747 176.127 213.78 176.242 226.889 176.59 247.422 175.2 256.007 171.728 256.703 170.338 256.935 169.528 256.123 168.949 254.15 168.602 252.526 167.56 251.134 166.75 251.134 164.434 251.134 164.203 249.046 165.708 241.738 166.402 238.141 167.444 225.96 167.907 214.824L168.718 194.522 166.055 193.014C164.55 192.202 161.425 190.114 159.225 188.374 154.826 184.777 146.838 181.529 144.523 182.341 142.208 183.153 142.787 186.053 146.26 190.694 152.627 198.93 152.858 200.322 150.774 209.719 148.228 220.508 148.228 221.552 151.469 224.104 152.974 225.264 154.71 228.745 155.521 232.225 156.91 237.677 156.91 238.605 154.71 242.782 153.437 245.45 151.816 247.77 151.122 248.234 148.922 249.626 149.964 252.294 154.71 256.703 158.878 260.531 159.457 261.691 158.762 264.359 158.183 266.679 156.563 268.187 152.511 269.928 144.407 273.64 137.809 273.176 128.548 268.419 119.75 264.011 116.856 259.835 119.055 254.962 120.329 252.178 122.181 251.366 129.127 250.902 133.063 250.554 133.178 250.322 133.757 245.334 134.105 242.434 135.262 238.837 136.42 237.213 137.462 235.705 138.388 233.037 138.388 231.413 138.388 226.656 134.22 212.851 131.673 209.371 128.316 204.847 127.853 193.13 130.979 189.07 133.641 185.473 134.683 188.49 133.989 197.77 133.526 205.427 133.526 205.891 136.304 207.167 138.851 208.211 139.314 209.487 140.008 215.288 140.356 219.116 141.166 223.176 141.861 224.452 143.829 228.165 143.25 235.937 140.587 239.301 138.851 241.621 138.388 243.246 138.966 246.61 139.661 250.322 139.314 251.134 136.536 253.338 134.683 254.847 131.789 255.775 129.011 255.775 121.486 255.775 122.181 258.559 131.326 264.359 137.925 268.651 143.829 269.348 149.269 266.795 154.363 264.359 154.479 261.807 149.732 258.675 143.944 254.962 143.597 251.018 148.343 244.058 151.7 239.301 152.279 237.561 151.7 234.777 151.237 232.805 150.08 230.949 149.154 230.601 147.186 229.789 142.671 220.16 143.597 218.536 143.944 217.956 144.986 213.896 145.797 209.487 147.301 201.483 147.301 201.483 144.06 195.798 141.976 192.318 140.703 188.606 140.703 185.821 140.703 181.645 140.471 181.413 137.577 181.761 135.031 181.993 133.873 181.297 131.442 177.585 129.706 175.149 126.927 172.365 125.306 171.552 121.949 169.696 82.7055 166.796 77.9593 167.956 75.5283 168.652 75.181 169.232 75.644 172.132 75.9913 174.685 75.4125 176.309 73.0972 178.629 70.4347 181.297 70.0874 182.457 70.0874 190.462 70.0874 199.51 69.1613 203.919 65.3411 212.619 62.6785 218.652 62.5627 220.856 65.1095 228.745 66.9618 234.545 66.9618 235.125 65.1095 238.953 62.3312 244.87 62.5627 247.886 66.3829 249.974 68.5825 251.25 70.6662 251.598 73.5603 251.018 79.6958 249.626 85.9469 251.018 89.7671 254.614 94.2818 258.907 94.5134 264.127 90.2301 266.911 87.4518 268.768 86.9887 268.768 83.2843 267.027 78.3066 264.591 73.6761 264.475 72.7499 266.795 72.4027 267.84 70.6662 269.348 68.814 270.276 65.2253 272.248 61.8682 271.436 56.1958 267.375 54.3435 266.099 52.144 265.055 51.1021 265.055 49.713 265.055 49.2499 263.895 49.2499 260.415 49.2499 257.863 49.8288 255.775 50.4076 255.775 52.144 255.775 51.7967 249.278 49.5972 240.229 47.9765 233.501 47.8608 230.601 48.9026 222.828 50.2918 212.271 49.2499 186.17 47.1662 181.297 46.0086 178.397 45.777 178.281 41.7253 179.789 39.2943 180.485 36.979 181.877 36.5159 182.689 35.9371 183.617 35.8214 195.566 36.1686 209.255 36.6317 230.717 36.5159 234.893 34.8952 238.721 33.8534 241.041 32.4642 243.014 31.8854 243.014 29.1071 243.014 28.4125 237.909 28.9913 223.06 29.8016 207.167 28.7598 194.29 26.676 194.058 26.0973 193.942 22.9717 198.814 19.9619 204.731 12.553 219.116 10.9323 228.861 10.9323 259.835 10.9323 280.136 11.1638 283.849 13.2476 289.997 14.521 293.825 15.6786 297.77 15.6786 298.814 15.6786 299.858 16.7205 301.946 17.9939 303.454L20.1934 306.238 20.4249 292.897C20.5407 278.164 21.351 273.756 23.7821 273.756 25.0555 273.756 25.4028 277.932 25.4028 297.074L25.5185 320.507 28.7598 323.755C30.612 325.612 32.3484 326.54 32.9273 325.844 33.5061 325.264 33.5061 319.347 32.9273 312.619 31.4223 293.361 31.6539 280.6 33.3903 279.092 34.3164 278.396 35.3583 278.164 35.7056 278.628 36.1686 278.976 36.5159 285.937 36.5159 293.941 36.6317 301.946 37.3263 314.591 38.1366 321.783L39.7573 335.124 44.5036 339.649C47.282 342.085 49.5972 343.941 49.8288 343.709 49.9445 343.593 49.713 338.953 49.1342 333.5 47.1662 313.547 45.5455 285.937 46.1243 284.197 46.5874 283.269 47.6292 282.457 48.4396 282.457 49.713 282.457 50.2918 285.473 50.8706 294.985 52.4913 320.507 55.1539 341.621 57.4692 347.073 60.8263 354.846 62.447 352.41 60.8263 342.085 59.2056 331.18 55.8485 282.689 56.6588 280.6 57.0061 279.788 58.048 278.976 59.0898 278.976 60.479 278.976 60.8263 280.484 60.8263 286.633 60.8263 302.062 64.5307 338.953 67.0775 349.161 68.6982 355.426 71.7081 358.442 73.5603 355.542 74.1391 354.614 74.3706 352.99 73.9076 352.061 71.9396 347.653 69.7401 297.074 71.0135 284.429 71.245 280.832 72.1711 278.512 73.213 278.164 76.1071 277.004 76.5701 279.672 75.4125 290.809 74.7179 298.234 74.8337 306.006 75.7598 315.519 76.4544 323.175 77.0332 332.456 77.0332 336.052 77.0332 341.853 77.7278 346.493 80.0431 357.63 80.5061 360.066 84.3262 361.342 85.4838 359.37 85.7153 358.79 85.2523 352.99 84.3262 346.261 83.5158 339.533 82.2424 328.628 81.6637 321.899 81.2007 315.171 80.2746 305.658 79.8115 300.67 78.8854 289.997 81.2007 279.324 84.905 278.048 86.6415 277.468 86.6415 282.108 84.905 289.069 83.9789 293.129 83.8631 297.306 84.905 306.122 85.5996 312.619 86.7572 323.639 87.4518 330.6 90.2301 358.558 91.0405 362.618 93.703 363.662 97.4075 365.171 98.9124 365.054 99.9543 362.85ZM69.6243 263.315C74.1391 258.675 75.9913 258.327 82.0109 261.575 86.5257 264.011 88.6094 263.779 88.6094 260.995 88.6094 256.935 76.1071 253.686 72.8657 256.935 71.245 258.559 64.2992 256.355 60.7105 252.99 57.8164 250.322 57.7007 249.742 58.6268 244.87 59.2056 241.854 60.1317 238.373 60.8263 237.097 61.8682 235.241 61.7524 233.617 60.3632 230.137 58.048 224.568 57.9322 215.404 60.1317 212.967 63.1416 209.371 65.4568 199.742 65.4568 190.346 65.4568 182.805 65.9199 180.369 67.7721 178.049 70.8977 174.105 70.6662 171.32 67.1933 169.696 64.7623 168.652 63.9519 168.768 61.8682 170.624 60.5948 171.784 57.8164 173.293 55.8485 173.989 51.7967 175.265 51.7967 174.917 53.4174 188.142 53.8805 192.202 54.8066 195.914 55.6169 196.61 56.6588 197.422 56.7746 199.279 56.08 202.759 52.9544 219.812 52.6071 240.461 55.5012 245.102 55.8485 245.682 56.1958 249.162 56.3115 252.99 56.543 259.139 57.0061 260.183 60.479 263.663 62.6785 265.635 64.7623 267.375 65.1095 267.375 65.3411 267.375 67.4248 265.519 69.6243 263.315ZM185.503 179.441C188.166 177.701 190.481 169.928 190.481 162.736 190.481 154.499 188.861 151.251 183.535 148.467 180.063 146.611 168.949 146.147 166.518 147.655 164.434 148.931 162.698 154.499 162.698 159.604 162.698 164.708 168.37 174.569 171.38 174.569 172.306 174.569 173.927 175.845 174.969 177.469 176.937 180.369 182.378 181.413 185.503 179.441ZM141.629 171.436C143.365 167.608 143.481 163.896 141.745 162.156 141.05 161.46 139.777 159.604 139.082 158.095 137.577 155.195 131.789 154.151 132.368 156.935 132.484 157.863 132.947 160.996 133.41 163.896 134.105 169.812 136.42 174.569 138.735 174.569 139.43 174.569 140.819 173.177 141.629 171.436ZM62.91 161.228C63.1416 159.372 64.2992 156.587 65.5726 155.079 68.4667 151.367 68.5825 143.478 65.8041 141.39 63.0258 139.302 56.543 139.302 55.3854 141.39 54.9224 142.318 54.9224 148.119 55.5012 154.267 56.6588 165.288 56.6588 165.404 59.5529 165.056 61.8682 164.824 62.6785 164.012 62.91 161.228ZM71.245 160.068C71.245 159.14 70.4347 158.328 69.5086 158.328 68.5825 158.328 67.7721 159.14 67.7721 160.068 67.7721 160.996 68.5825 161.808 69.5086 161.808 70.4347 161.808 71.245 160.996 71.245 160.068ZM120.097 150.787C120.56 145.102 121.371 132.574 121.949 122.945 122.528 113.432 123.454 104.616 123.917 103.456 125.075 100.671 122.181 96.727 117.087 93.9428 113.499 91.9707 112.457 90.5785 110.952 85.2421 109.447 80.0218 109.331 77.9336 110.489 73.8734 112.109 67.4929 116.624 60.5324 121.023 57.2841 125.654 53.8039 125.422 51.3677 120.213 47.3074 105.627 35.9387 96.4814 34.3146 77.612 39.4189 71.245 41.159 63.8361 43.0151 61.1736 43.7112 53.1859 45.5674 52.8386 47.4234 60.0159 50.3236 66.2672 52.8759 69.277 55.8921 74.4864 64.7087 76.4544 68.189 77.0332 71.0892 77.0332 77.1216 77.0332 84.1982 76.8017 85.1262 74.6022 85.8223 72.2869 86.6343 72.1711 87.2143 72.8657 94.4069 73.213 98.5831 73.7918 106.008 74.0233 110.764 74.2549 115.52 75.2967 125.265 76.3386 132.226 77.2647 139.302 78.1908 147.887 78.1908 151.367 78.1908 154.847 78.6539 158.328 79.1169 159.14 79.9273 160.532 95.5552 161.46 112.92 161.344L119.287 161.228 120.097 150.787ZM39.9888 152.295C42.6514 147.887 43.1145 137.214 40.915 131.994 39.0627 127.585 35.3583 123.525 33.1588 123.525 32.2327 123.525 29.8016 122.945 27.7179 122.133 24.5924 121.089 23.4348 121.089 21.1195 122.713 16.2574 125.845 15.5629 136.518 20.1934 138.026 21.351 138.374 22.856 140.578 23.5505 143.014 27.1391 154.963 35.4741 159.604 39.9888 152.295ZM143.944 90.4626C149.385 85.8223 152.395 78.1657 152.048 69.8131L151.7 62.7366 146.491 60.7644C137.114 57.2841 131.789 56.008 129.474 56.7041 126.464 57.6321 119.866 63.5487 119.866 65.2887 119.866 66.1008 119.403 66.6808 118.939 66.6808 117.087 66.6808 115.235 72.5972 115.235 78.6297 115.235 84.5462 115.467 84.8941 120.792 88.9544 125.654 92.7828 127.043 93.2467 133.41 93.2467 139.314 93.3628 141.05 92.8987 143.944 90.4626ZM70.6662 83.27C73.6761 80.2538 72.5184 70.7411 68.2352 63.6646 63.7204 56.3561 56.543 52.6438 47.1662 52.6438 41.4938 52.6438 40.2204 52.9918 38.0209 55.66 36.0529 57.9802 35.5898 59.4884 36.1686 62.2725 36.979 66.4489 36.979 66.3328 42.9987 73.4093 50.0603 81.53 55.8485 85.0102 62.7943 85.1262 66.9618 85.2421 69.3928 84.6621 70.6662 83.27ZM159.225 53.6879C161.425 52.4118 165.361 50.2077 168.023 48.8156 177.284 44.0592 183.535 36.7507 183.535 30.7182 183.535 27.238 179.715 20.2775 175.779 16.5652 171.033 12.1569 162.93 9.83673 152.279 9.83673 143.713 9.83673 143.134 9.95278 142.787 12.5049 142.439 14.9411 142.092 15.0571 129.242 14.8251 122.065 14.709 114.54 14.0131 112.573 13.433 110.72 12.7369 104.469 12.1569 98.7966 12.1569 93.24 12.1569 87.4518 11.5769 85.9469 10.7648 80.8534 8.21263 79.6958 7.74854 72.8657 6.24049 65.6884 4.50034 31.6539 4.15231 25.75 5.66048 20.5407 6.93655 21.9298 9.4887 28.2967 10.0687 40.1046 11.2289 60.8263 23.8738 66.3829 33.3864 68.5825 37.0987 71.1293 37.3307 78.0751 34.1985 81.7795 32.4584 85.5996 31.8784 93.1242 31.8784 102.154 31.8784 103.774 32.2264 111.068 35.9387 115.467 38.1428 119.866 40.6949 120.907 41.6231 124.496 44.7553 135.725 50.4397 138.272 50.4397 141.513 50.4397 152.164 53.92 152.974 55.1961 153.9 56.7041 154.71 56.4721 159.225 53.6879ZM34.4322 50.4397C35.2425 49.1636 36.4002 48.1195 36.979 48.1195 37.5578 48.1195 43.4618 45.9154 49.9445 43.2472 62.91 38.0267 63.8361 36.8667 59.3214 31.7623 52.8386 24.1057 38.3682 16.5652 26.0973 14.2451 22.6244 13.6651 18.3412 12.853 16.6047 12.5049 11.5111 11.5769 7.69093 13.0849 5.25989 17.1453 2.13427 22.1336 2.3658 27.9341 5.83871 34.8946 8.50127 40.231 16.2574 48.1195 18.92 48.1195 19.4988 48.1195 20.888 49.1636 22.0456 50.4397 23.4348 51.9479 25.6343 52.7598 28.5282 52.7598 31.7696 52.7598 33.3903 52.0638 34.4322 50.4397Z" fill="#EF6F6C" fill-rule="evenodd" transform="matrix(1 0 0 -1 905 622)"/><path d="M81.7657 61.2649C69.7437 61.0335 56.2188 57.098 48.0114 51.6578 45.0059 49.5745 41.538 47.491 40.4976 47.1438 39.4572 46.6807 38.1857 45.176 37.6077 43.7871 36.7985 41.7035 37.1453 40.5461 39.3416 38.4626 41.3068 36.4949 41.8847 34.9902 41.538 32.4437 41.1912 30.4761 40.7288 27.3509 40.382 25.3832 38.0701 11.0305 62.2299-0.544337 76.9105 8.021 79.1068 9.2942 83.4995 10.5674 86.6207 11.0305 97.14 12.3037 103.845 14.1556 109.162 17.165 118.294 22.3737 124.19 27.0036 124.19 28.9714 124.19 32.0965 102.342 53.5098 95.0593 57.6768 89.5106 60.6861 87.1987 61.3807 81.7657 61.2649ZM163.955 61.265C159.707 61.0914 154.476 60.0497 148.581 58.1398 140.836 55.709 138.755 54.5517 137.714 52.2367 137.021 50.5004 134.94 47.2595 133.091 44.8288 129.854 40.6617 129.854 40.3147 131.703 38.2312 133.669 36.0318 137.483 34.2958 142.685 33.1382 144.303 32.791 147.193 31.0547 149.274 29.2028 157.482 21.5635 160.371 20.5217 170.775 21.4476 185.918 22.6052 196.9 27.3509 195.397 31.9809 195.051 33.1382 192.623 36.2634 190.08 38.8099 187.652 41.3563 185.572 43.9028 185.456 44.3658 185.456 45.7547 176.439 56.8666 173.434 59.1816 171.469 60.7441 168.203 61.4386 163.955 61.265ZM165.703 65.9817C169.85 65.8659 173.261 64.911 175.977 63.1169 178.289 61.4965 181.526 58.3712 183.144 56.0562 184.762 53.7413 188.924 48.1855 192.507 43.6712 199.906 34.18 200.946 31.6335 199.443 27.4666 197.94 23.5312 187.999 18.9012 177.942 17.3966 161.412 15.0817 156.441 16.1233 148.349 23.9942 144.535 27.6982 140.72 29.2028 132.05 30.939 129.16 31.5178 128.814 31.1705 128.814 28.2768 128.814 25.4988 127.542 23.9942 121.647 19.7116 110.549 11.4934 103.267 8.59973 88.3547 6.51621 85.4647 6.05334 80.4941 4.4328 77.1418 2.92801 68.5877-1.12317 60.8426-1.00742 51.595 3.50674 47.6647 5.47461 44.4279 7.55792 44.4279 8.13665 44.4279 8.83111 43.7343 9.2942 42.8096 9.2942 39.804 9.2942 35.1801 19.0171 35.1801 25.4988 35.1801 30.4761 34.8333 31.6335 32.8682 32.0965 31.0186 32.5595 30.5562 33.7169 30.5562 38.1153 30.5562 44.25 31.2498 45.4075 38.7636 51.3106 45.2371 56.5193 52.5197 59.876 64.6574 63.2326 76.9105 66.7051 88.0079 66.8208 94.4813 63.5799 100.955 60.3389 108.237 54.4358 116.56 45.8706 120.259 41.9351 123.612 39.3885 123.843 40.1989 124.074 40.8933 125.808 43.324 127.658 45.4075 129.623 47.491 131.125 50.3846 131.125 51.7737 131.125 56.635 136.327 59.7602 151.008 63.8115 156.672 65.374 161.556 66.0974 165.703 65.9817ZM127.593 114.262C127.994 114.065 128.232 113.595 128.232 112.814 128.232 111.888 120.025 94.2943 115.979 86.5392 115.401 85.3817 114.938 83.5297 114.938 82.2566 114.938 78.4368 113.667 76.3533 111.239 76.3533 109.274 76.3533 109.043 76.9322 109.621 80.173 110.661 85.7289 118.06 103.901 121.643 109.689 123.724 112.987 126.39 114.854 127.593 114.262ZM114.098 114.376C115.326 114.81 116.107 114.26 116.107 112.582 116.107 111.54 115.066 109.572 113.91 108.299 110.442 104.479 102.119 87.8116 101.195 82.7186 100.732 79.7091 99.8075 77.9729 98.4204 77.7414 92.7562 76.584 100.154 98.2287 109.402 110.267 111.194 112.524 112.87 113.942 114.098 114.376ZM71.0235 114.84C69.0585 115.187 63.741 113.682 59.5796 111.715 58.0769 110.904 55.0713 108.011 52.9906 105.233 49.985 101.297 49.0603 98.9823 49.0603 95.2784 49.0603 91.5744 48.3667 89.954 46.0547 87.8705 43.5116 85.6713 43.1648 84.6296 43.8584 81.0414 44.8988 74.6754 48.0199 72.7076 56.4584 72.7076 65.8217 72.7076 72.9887 76.4115 76.1099 82.662 77.2658 85.2084 78.9998 88.7967 79.9245 90.6485 84.5484 100.14 82.4677 112.525 75.8787 113.798 74.1447 114.261 71.9484 114.608 71.0235 114.84ZM148.56 122.248C146.45 122.103 144.543 120.801 142.116 118.312 138.301 114.377 137.607 112.409 137.954 106.622 138.07 105.349 137.723 103.844 137.029 103.496 136.336 103.034 136.336 101.413 137.029 98.9823 137.607 97.0147 138.07 93.7738 138.07 91.9218 138.07 88.1021 143.272 79.6525 145.584 79.6525 146.393 79.6525 147.664 78.8422 148.473 77.9162 149.514 76.643 152.288 76.1801 158.415 76.1801 166.622 76.1801 167.085 76.2958 171.708 80.4627 176.332 84.6296 176.448 84.8611 175.986 91.2272 175.639 96.5517 174.714 98.751 170.784 103.96 163.963 113.219 161.652 115.65 156.218 119.238 152.982 121.38 150.67 122.392 148.56 122.248ZM55.7649 181.395C51.6034 180.585 44.5519 174.45 44.4364 171.556 44.4364 170.862 43.396 169.357 42.1244 168.2 39.119 165.537 39.2345 161.833 42.2401 156.741 46.6328 149.333 55.9961 148.638 61.198 155.583 63.5098 158.592 64.0879 160.676 64.0879 166.116 64.0879 175.26 63.1631 177.807 59.3483 179.774 57.6145 180.7 55.9961 181.511 55.7649 181.395ZM173.558 188.383C171.997 188.427 170.321 187.877 168.818 186.719 167.547 185.793 165.697 185.214 164.657 185.562 161.998 186.372 157.721 181.395 157.143 176.765 156.912 174.566 156.334 170.399 155.987 167.505 155.062 160.445 157.49 155.352 162.345 154.31 164.195 153.847 166.738 153.847 167.778 154.194 168.934 154.426 172.055 155.352 174.598 155.93 178.413 156.972 179.8 158.13 181.303 161.139 184.886 168.663 183.268 180.006 177.604 186.488 176.563 187.703 175.118 188.34 173.558 188.383ZM76.3555 194.257C75.8209 194.648 75.474 194.417 75.185 193.664 73.2199 188.34 75.4162 181.511 79.1153 181.511 80.7337 181.511 81.4273 182.321 81.4273 184.173 81.4273 185.562 80.1557 188.687 78.6529 191.118 77.6125 192.854 76.8901 193.867 76.3555 194.257ZM62.9987 197.135C62.1154 197.115 60.9667 196.934 59.464 196.673 55.6493 195.979 55.4181 195.747 55.4181 191.349 55.4181 187.182 55.7649 186.604 59.9264 184.636 65.5905 181.974 66.6309 183.015 66.1684 190.77 65.9084 195.805 65.6483 197.194 62.9987 197.135ZM152.895 290.14C152.173 289.995 151.363 289.272 150.092 287.883 148.936 286.494 146.624 284.758 145.006 284.063 142.116 282.558 138.07 282.79 138.07 284.41 138.07 285.568 132.752 287.999 130.093 287.999 128.822 287.999 127.55 287.188 127.204 286.147 126.279 283.6 126.163 283.716 129.747 282.79 135.873 281.285 138.07 279.086 138.07 274.225 138.07 271.562 137.145 268.669 135.758 266.817 132.983 263.229 132.868 260.682 135.295 253.158 137.492 246.445 137.029 240.774 133.561 233.597 129.631 225.379 130.556 218.55 137.029 209.174 138.879 206.628 138.994 205.123 137.954 198.294 136.683 189.266 137.376 186.14 140.266 186.14 143.618 186.14 145.237 189.15 145.468 195.632 145.815 203.503 145.237 204.892 142.578 204.081 140.844 203.503 140.382 203.966 140.382 206.049 140.382 209.29 141.422 210.911 144.196 211.952 146.739 212.878 146.855 220.518 144.428 231.861 143.503 236.375 142.694 242.857 142.694 246.329 142.694 251.885 143.156 253.158 146.161 255.936 150.439 259.988 150.439 261.724 146.739 266.701 145.121 268.784 143.85 272.025 143.85 273.993 143.85 276.887 144.428 277.466 147.317 278.16 149.167 278.623 152.057 280.475 153.675 282.443 156.912 286.378 157.143 286.957 155.178 288.925 154.253 289.851 153.618 290.285 152.895 290.14ZM49.9561 291.963C49.0603 291.992 47.7887 291.355 46.2859 290.082 42.9336 287.073 17.0398 236.259 15.9994 230.472 15.3058 226.536 13.9187 225.032 10.9132 224.916 9.98842 224.916 8.48574 223.411 7.44536 221.444 6.52065 219.592 5.36462 217.855 4.90231 217.624 1.66554 216.119 7.21426 207.438 12.6471 205.123 16.4619 203.503 31.3739 201.535 33.4547 202.345 34.1482 202.577 36.6913 202.808 39.2345 202.808L43.8584 202.924 43.8584 233.829C43.8584 261.145 44.0896 264.965 45.8235 266.701 46.8639 267.743 48.4823 268.322 49.407 267.974 50.6786 267.511 51.2566 263.344 51.8346 248.413 53.1061 214.73 53.9154 204.081 55.0713 202.692 55.7649 201.882 57.73 201.188 59.464 201.188L62.5851 201.188 63.3943 213.688C63.8567 222.022 63.6255 227.578 62.8163 230.009 62.1227 232.092 61.776 236.144 62.2384 239.153 62.7007 242.625 62.2384 247.834 60.9668 253.274 59.9264 258.02 59.1172 264.039 59.1172 266.585 59.3483 271.215 59.2328 271.331 54.2621 272.836 50.1006 273.993 49.1758 274.919 48.5979 277.813 48.1355 280.012 48.5979 282.674 49.6382 284.873 50.5631 286.841 51.3722 289.04 51.3722 289.851 51.3722 291.24 50.852 291.934 49.9561 291.963ZM166.275 298.069C165.582 298.3 164.31 295.522 163.501 291.471 162.692 287.651 161.073 283.369 159.918 281.98 158.646 280.706 157.721 279.086 157.721 278.507 157.721 278.044 155.872 276.655 153.675 275.614 151.479 274.572 149.629 273.299 149.629 272.72 149.629 272.257 150.67 269.826 152.057 267.28 154.6 262.187 154.253 255.936 151.363 254.779 147.895 253.506 147.202 247.255 149.051 234.176 149.976 227.231 150.785 218.897 150.785 215.541 150.785 209.059 151.595 208.133 157.721 208.133 160.149 208.133 161.305 208.827 161.883 210.679 162.229 212.068 162.461 225.726 162.229 241.121L161.767 268.9 166.391 268.9 171.015 268.9 171.362 241.121C171.477 225.842 172.171 212.878 172.749 212.299 174.367 210.679 200.954 214.846 205.116 217.392 206.503 218.203 206.272 219.244 203.96 224.221 202.457 227.462 200.492 230.125 199.683 230.125 198.064 230.125 193.441 239.616 188.239 253.274 186.62 257.325 184.54 261.608 183.499 262.766 179.916 266.701 178.528 269.71 172.055 286.147 169.512 292.513 166.969 297.837 166.275 298.069ZM155.453 317.167C154.658 316.01 154.427 312.364 154.716 306.171 155.409 293.439 159.571 291.355 160.842 303.277 161.305 307.792 160.958 310.569 159.571 313.232 157.606 316.993 156.247 318.324 155.453 317.167ZM107.16 389.522C106.758 389.285 106.367 388.757 106.049 387.889 105.587 386.732 103.391 383.028 101.194 379.555 97.2641 373.652 97.0329 372.842 96.3394 359.299 95.8769 351.66 95.4145 336.497 95.4145 325.848 95.299 307.907 95.1833 306.402 93.3338 306.75 91.4842 307.097 91.253 309.296 91.0218 331.983 90.9063 345.641 90.6751 358.142 90.6751 359.531 90.6751 361.151 90.0971 362.077 89.2878 361.846 86.0512 360.804 84.7796 352.123 84.086 327.469 83.7392 313.695 83.2768 302.236 83.0456 302.004 82.8145 301.773 81.774 301.888 80.7337 302.351 78.8841 303.046 78.8841 305.014 79.5777 323.765 80.2713 344.136 79.8089 350.039 77.8437 346.798 77.2658 345.988 76.8034 338.233 76.6878 329.668 76.5722 308.254 75.6475 301.425 72.9887 300.962 71.0235 300.499 70.908 301.657 71.1392 316.472 71.3703 333.372 70.4456 336.381 66.9777 329.668 65.4749 326.774 65.2437 323.533 65.5905 314.273 65.8217 307.792 66.2841 301.425 66.5153 300.152 66.8621 298.416 66.3996 297.837 64.6659 297.837 62.0072 297.837 60.8511 301.194 60.7356 309.759 60.6199 313 60.1576 315.778 59.464 315.778 58.886 315.778 58.308 315.199 58.308 314.505 58.308 313.695 57.4988 312.537 56.3429 311.727 54.8401 310.569 54.4933 308.37 54.4933 301.541 54.4933 292.05 55.7649 289.156 60.042 289.156 61.5448 289.156 62.9319 288.346 63.3943 287.42 64.2035 285.221 67.44 285.221 68.2492 287.42 69.4052 290.313 76.2254 291.818 79.9245 290.082 82.8145 288.693 83.1613 287.883 83.1613 282.558 83.0456 277.581 82.4677 276.077 79.231 272.373 76.5722 269.247 75.6475 267.28 76.1099 265.544 76.5722 264.27 77.3814 260.566 77.9594 257.557 78.5374 254.432 80.1557 250.496 81.4273 248.644 85.4732 242.973 87.6695 217.971 84.3172 216.698 83.3925 216.235 82.5833 214.846 82.5833 213.457 82.5833 210.216 80.8493 207.67 79.231 208.596 77.3814 209.753 77.6125 214.73 79.8089 217.855 82.4677 222.022 80.8493 239.037 77.2658 245.866 75.763 248.76 73.6823 255.358 72.5263 260.682L70.5611 270.405 74.8383 275.151C77.3814 278.044 79.1153 281.054 79.1153 282.79 79.1153 286.725 75.8787 287.883 73.451 284.873 70.0988 280.822 67.3245 279.896 63.3943 281.632 60.3887 282.906 59.5796 282.79 57.3833 281.054 53.9154 278.16 54.1465 276.424 58.0769 276.424 63.2787 276.308 65.4749 273.877 64.6659 268.784 64.3191 266.238 64.5502 260.914 65.2437 256.747 67.5557 243.088 67.7869 241.121 66.6309 238.227 65.9373 236.259 66.1684 233.713 67.5557 229.546 69.2896 224.684 69.4052 222.485 68.3648 216.003 67.3245 209.406 67.44 207.901 69.0585 205.355 71.8327 201.188 77.0346 200.377 81.4273 203.734 84.664 206.049 86.8603 206.512 99.6916 207.091 108.939 207.554 115.875 208.48 118.534 209.637 122.348 211.373 122.811 211.373 124.545 209.29 125.701 207.901 127.204 207.322 128.706 207.785 131.712 208.596 131.712 208.364 128.822 214.151 125.585 220.981 126.163 230.24 130.325 236.722 132.29 239.847 132.521 248.181 130.671 252.58 128.128 258.714 128.36 265.08 131.25 268.784 134.717 273.183 133.793 276.655 128.706 277.929 123.389 279.202 121.077 283.369 123.158 288.114 125.47 293.902 134.949 294.828 139.11 289.851 141.653 286.841 143.156 287.651 147.086 294.365L151.017 300.847 150.554 316.704C150.207 332.098 150.092 332.677 146.739 337.77 144.89 340.664 142.925 343.789 142.578 344.715 141.306 347.493 140.497 342.4 138.879 322.144 137.723 307.213 137.145 303.624 135.758 303.624 133.446 303.624 133.446 316.125 135.642 337.886L137.261 353.743 133.908 360.457C129.862 368.559 127.897 371.105 127.204 368.791 126.626 367.054 125.701 348.766 124.545 319.019 124.198 307.676 123.504 298.416 123.158 298.416 122.695 298.416 121.771 298.995 120.961 299.805 119.228 301.541 119.112 329.668 120.73 342.053 121.308 346.683 121.886 356.984 122.002 364.855 122.117 377.124 121.771 380.018 119.921 383.143 116.453 389.047 115.297 388.352 114.026 379.787 112.292 368.675 110.327 342.4 110.327 331.52 110.327 326.543 109.749 317.746 108.939 312.074 107.899 303.856 107.205 301.888 105.818 302.12 104.547 302.467 103.969 303.74 104.084 306.518 104.315 315.431 106.859 355.364 108.015 367.865 108.708 375.157 109.402 382.912 109.517 385.111 109.691 388.323 108.369 390.233 107.16 389.522ZM99.9571 411.999C101.599 412.08 102.119 407.913 101.079 400.621 100.501 396.339 100.27 392.519 100.616 391.94 101.426 390.667 104.547 390.783 104.547 392.056 104.547 392.75 105.818 394.602 107.437 396.339 109.055 398.075 110.327 400.621 110.327 402.01 110.327 404.788 112.87 407.682 114.141 406.409 114.604 406.061 114.95 403.978 114.95 401.894 114.95 398.422 120.961 388.931 123.389 388.815 123.851 388.699 124.198 391.014 124.198 393.792 124.198 398.769 126.626 402.82 128.128 400.39 128.591 399.695 128.822 394.602 128.591 388.931 128.36 380.481 128.706 378.166 130.556 375.272 131.827 373.421 133.446 370.874 134.139 369.717 136.567 365.202 137.723 366.591 138.416 374.925 139.11 383.028 140.497 386.616 142.347 384.764 142.809 384.301 143.272 376.777 143.272 368.096 143.272 352.47 143.272 352.123 146.624 347.377 148.473 344.599 150.439 342.4 150.785 342.4 151.248 342.4 151.941 347.956 152.288 354.785 152.982 366.939 154.138 370.758 156.681 368.212 157.49 367.402 157.49 361.961 156.565 349.924 155.294 334.761 155.409 332.33 157.143 327.932 159.224 322.491 161.652 319.598 162.807 321.45 163.154 322.028 163.848 325.848 164.195 329.899 165.351 343.21 165.697 344.715 168.241 344.715 170.784 344.715 170.784 344.136 168.009 321.797 166.507 310.917 166.738 309.528 172.055 298.069 174.136 293.555 177.835 285.336 180.147 279.896 182.69 274.109 185.811 268.9 187.776 267.164 192.516 263.229 200.261 248.644 209.277 226.999 214.942 213.341 215.057 213.573 203.151 211.373 197.486 210.216 188.585 208.596 183.152 207.554 177.719 206.512 172.98 205.355 172.633 204.892 172.171 204.429 171.593 202.345 171.246 200.377 170.437 196.211 171.246 195.169 177.373 192.159 183.268 189.266 187.776 179.89 187.776 170.399 187.776 157.782 183.037 152.111 171.015 150.49 165.929 149.796 161.883 149.796 160.033 150.49 155.987 151.995 151.941 156.046 151.941 158.477 151.941 159.634 151.363 160.907 150.67 161.37 149.745 161.833 149.514 165.074 149.861 170.63 150.439 179.543 152.982 184.52 159.686 190.192 161.998 192.159 162.461 193.433 162.114 197.715L161.767 202.924 155.987 202.924 150.207 202.924 149.167 194.822C146.971 178.038 148.705 134.517 151.826 128.382 152.288 127.456 154.138 125.952 156.103 124.91 163.154 121.09 172.864 110.789 178.297 101.297 181.881 95.1627 181.881 84.3982 178.297 79.6525 174.02 73.7494 167.547 71.2029 158.068 71.3186 149.514 71.4344 146.624 72.4762 141.422 77.1061 139.804 78.6107 136.914 79.8839 135.18 79.9997 132.174 80.2312 129.4 83.125 132.174 83.125 133.793 83.125 133.908 96.5517 132.29 97.5934 130.903 98.4037 125.816 87.2919 124.66 81.0414 123.851 76.7588 122.233 74.6754 120.499 75.7171 119.228 76.5273 119.343 82.662 120.73 85.44 121.424 86.7132 122.464 88.7967 123.042 90.0699 123.736 91.3431 124.198 93.0792 124.198 93.8895 124.198 95.8571 127.897 102.918 130.903 106.853 132.29 108.589 133.446 111.252 133.446 112.641 133.446 115.419 137.145 120.859 140.728 123.521 142.462 124.794 142.809 125.952 142.231 129.887 141.538 134.17 140.035 150.722 138.416 170.514 138.07 175.723 137.261 177.922 135.527 179.311 133.446 180.932 132.983 182.9 132.405 192.044L131.712 202.924 124.198 202.808C120.037 202.692 110.211 202.345 102.235 201.766 83.0456 200.609 77.8437 197.831 83.6237 192.044 85.9356 189.729 86.3979 187.877 86.1667 182.552 86.0512 179.196 82.0052 176.418 77.0346 176.302L73.9135 176.302 73.3355 148.522C72.9887 133.244 73.1043 120.28 73.5667 119.701 74.0291 119.123 75.5318 118.544 77.0346 118.428 78.5374 118.312 80.0401 118.081 80.5026 117.965 80.8493 117.965 82.5833 115.419 84.4328 112.409L87.554 106.969 89.6347 109.863C93.6805 115.071 94.2586 115.534 95.4145 114.956 97.2641 113.682 96.5705 110.904 93.1026 106.506 89.6347 102.223 87.2071 94.6998 87.3228 88.3336L87.3228 84.8611 88.8255 88.9123C93.6805 101.529 98.0732 110.557 100.154 112.409 105.009 116.46 104.662 112.409 99.2293 100.95 96.2237 94.6998 93.1026 87.4076 92.409 84.8611 90.9063 79.8839 87.2071 77.6847 87.2071 81.8517 87.2071 85.5556 85.1264 85.7872 83.2768 82.3146 81.1961 78.1478 76.1099 73.5179 71.1392 70.9714 65.4749 68.0777 51.8346 67.3832 46.4016 69.5824 35.9978 73.9808 36.6913 89.954 48.1355 106.969 51.719 112.409 53.5685 114.03 59.2328 117.271L63.3943 119.585 63.6255 129.424C63.8567 134.864 64.3191 140.883 64.6659 142.735 64.897 144.703 64.6659 147.018 64.0879 147.944 63.1631 149.448 62.5851 149.448 59.5796 147.596 48.7135 141.23 35.1886 150.953 35.1886 165.306 35.3042 173.64 40.5061 183.247 44.5519 182.436 46.6328 181.974 47.0951 186.14 45.5924 191.812L44.3208 196.558 38.3097 196.558C29.9867 196.558 13.1095 199.451 9.0638 201.535 4.78666 203.734 2.47471 206.512 0.740821 211.605-0.415207 215.077-0.299552 216.582 1.66554 221.791 4.20869 228.504 5.24907 230.472 10.4508 238.806 12.4159 242.047 15.7682 248.066 17.7334 252.348 19.6985 256.631 22.2417 260.682 23.5133 261.261 24.6693 261.955 29.4087 269.826 34.0326 278.97L42.3556 295.522 41.4308 306.518C40.1593 321.565 40.2749 325.964 41.8932 327.584 44.2052 329.899 45.0143 327.584 45.5924 317.283 46.2859 304.319 48.5979 302.93 49.407 314.852 50.2162 327.353 52.4126 342.284 53.7997 345.062 55.0713 347.377 55.1869 347.377 56.6896 345.409 57.6145 344.021 57.8457 342.4 57.2676 340.78 55.6493 336.613 55.3025 323.533 56.6896 323.07 58.886 322.376 59.6952 326.08 60.6199 342.516 61.5448 358.836 62.0072 360.92 64.6659 360.92 65.8217 360.92 66.0529 358.605 65.5905 349.345 65.1281 342.632 65.3593 337.77 65.9373 337.77 68.4804 337.77 71.0235 345.872 71.8327 356.29 72.5263 364.855 73.1043 367.286 74.4914 367.286 75.6475 367.286 76.4566 365.665 76.919 362.424 78.4218 351.197 80.7337 356.521 81.8897 373.536 83.1613 393.098 85.3576 401.432 88.3631 398.422 89.1723 397.612 88.9411 393.098 87.6695 384.879 85.9356 372.842 86.0512 369.022 88.1319 369.022 91.1375 369.022 94.0274 380.597 95.9925 401.432 96.4549 405.598 97.2641 409.65 97.9577 410.46 98.738 411.473 99.4098 411.972 99.9571 411.999Z" fill="#E8EAED" fill-rule="evenodd" transform="matrix(1 0 0 -1 566 659)"/><path d="M47.2387 51.8421C42.8469 52.8863 36.4904 49.522 25.1642 39.6615 13.1446 29.2209 11.5266 25.3927 15.8029 17.1562 19.0389 11.0079 21.9283 10.1957 34.7568 11.7039L43.656 12.748 47.701 8.22366C50.3592 5.20745 52.4395 3.93141 53.8265 4.27942 54.8666 4.62744 58.4494 5.43946 61.5699 6.25149 73.8207 9.26769 82.1419 13.5599 88.845 20.1724 96.473 27.5968 97.9754 30.1489 97.9754 35.7172 97.9754 38.6174 97.1663 40.3575 94.9705 42.0976 90.6942 45.4618 76.71 45.5778 70.2379 42.2136 63.1879 38.6174 60.5297 39.1974 54.5198 45.5778 51.515 48.7099 48.2789 51.4941 47.2387 51.8421ZM45.1584 57.1785C48.6257 57.2945 53.5953 54.1623 57.756 49.174L61.5699 44.4177 68.3887 46.8539C83.0664 51.8421 99.3623 48.7099 101.674 40.4734 103.638 33.6291 101.905 27.2488 96.1262 20.5204 87.4582 10.3118 79.2524 5.90348 59.9518 1.14722 51.0527-1.17296 45.1584 0.10329 44.5805 4.27942 44.2338 6.71561 43.7715 6.83151 31.0584 6.83151L17.9988 6.83151 14.1848 11.2399C9.56184 16.5761 8.175 23.4205 10.4865 29.8009 11.989 34.4411 21.0037 44.5338 23.4306 44.5338 24.2396 44.5338 26.8978 46.6218 29.3248 49.174 31.8674 51.7261 35.9126 54.5103 38.4552 55.4383 40.9977 56.3664 44.0027 57.1785 45.1584 57.1785ZM150.797 58.2814C147.492 58.4607 143.765 57.5472 137.177 55.198 125.273 50.7899 120.535 47.8897 120.073 44.5255 119.841 42.9014 118.917 40.6973 117.992 39.4212 115.912 36.4051 116.027 31.9968 118.108 28.2845 119.032 26.6605 119.726 23.4124 119.841 20.9762 119.841 17.38 120.419 16.2198 123.655 14.2478 127.007 12.1597 128.972 11.9276 144.112 12.2757 160.061 12.6237 161.217 12.7397 168.382 16.2198 179.246 21.3242 185.256 27.3565 184.678 32.5768 184.447 34.7809 178.322 37.565 173.814 37.565 168.382 37.565 164.799 40.8134 160.292 49.6297 157.865 54.27 155.553 57.4023 154.051 57.7503 152.953 58.0403 151.898 58.2216 150.797 58.2814ZM149.009 63.5505C150.468 63.6375 151.855 63.6086 152.78 63.4346 156.94 62.7386 162.603 56.8222 165.608 49.9779 168.613 43.1334 169.422 42.5533 177.166 41.5093 189.185 40.0012 193.462 32.4609 186.99 23.9924 184.678 21.2081 177.05 15.0599 172.196 12.3917 170.925 11.5796 166.649 10.1876 162.835 9.2595 153.589 6.82342 127.238 6.70741 122.731 9.02749 118.686 11.1157 115.218 16.3359 115.218 20.2802 115.218 21.9042 114.409 25.0364 113.369 27.1246 111.289 31.1847 111.751 41.5093 114.063 43.8295 114.641 44.4096 115.218 45.6856 115.218 46.6137 115.218 48.4698 120.419 53.806 122.268 53.806 122.962 53.806 125.042 54.85 126.776 56.1261 128.625 57.4023 131.746 58.7943 133.941 59.1423 136.022 59.6064 138.333 60.4184 139.027 60.8824 139.72 61.4624 142.263 62.3906 144.805 62.9706 146.019 63.2606 147.55 63.4635 149.009 63.5505ZM106.406 87.0148C104.975 87.7978 103.025 85.6444 100.945 80.9461 96.7841 71.5496 96.3218 69.8095 98.2866 69.8095 99.0956 69.8095 101.06 72.4776 102.563 75.7258 104.065 78.858 106.03 81.9901 106.839 82.4542 107.764 82.9183 108.11 84.0782 107.648 85.2384 107.301 86.1665 106.882 86.7538 106.406 87.0148ZM122.398 111.267C119.032 110.673 116.085 109.252 113.889 107.048 111.115 104.495 110.768 103.103 110.653 97.071 110.653 85.3543 118.165 71.7815 125.908 69.8095 130.763 68.4174 134.114 68.9975 142.667 72.8257 150.179 76.0738 152.837 79.9021 151.681 85.7023 149.832 95.563 140.355 108.556 133.421 110.528 129.549 111.63 125.764 111.862 122.398 111.267ZM77.8733 112.558C75.4896 112.558 72.2248 112.268 68.6997 111.688 58.6449 110.064 49.3991 96.259 49.3991 82.8022 49.3991 71.2016 54.3687 66.4452 65.1169 67.9534 72.0514 68.8814 81.7595 75.7258 81.7595 79.67 81.7595 80.4821 82.453 81.7582 83.3775 82.2222 86.0358 83.8463 88.6939 90.3427 88.6939 95.4469 88.6939 102.291 86.3825 109.136 83.8398 109.832 82.6841 110.296 81.7595 111.108 81.7595 111.688 81.7595 112.268 80.257 112.558 77.8733 112.558ZM33.5511 180.779C28.3936 181.502 22.5859 178.131 21.1991 172.475 20.7368 170.619 19.5811 168.183 18.5409 167.023 16.345 164.471 15.9983 150.782 18.1941 148.114 21.8926 143.59 30.3294 141.734 37.6105 143.59 40.9622 144.518 44.7761 151.942 44.7761 157.743 44.7761 165.283 41.54 175.724 38.304 178.624 36.9171 179.842 35.2701 180.538 33.5511 180.779ZM163.354 183.38C163.354 183.38 162.43 183.032 161.505 182.684 151.104 179.32 144.169 170.155 143.245 158.554 142.898 153.682 143.36 151.942 146.018 147.882 150.295 141.386 156.304 138.833 162.892 140.69 173.756 143.59 178.841 149.97 178.841 160.643 178.841 171.547 175.027 178.74 167.399 181.872 165.319 182.8 163.47 183.496 163.354 183.38ZM135.804 200.621C135.588 201.013 135.212 200.781 134.576 200.085 133.305 198.925 133.652 193.937 134.923 193.937 135.617 193.937 136.079 195.561 136.079 197.417 136.079 199.215 136.021 200.23 135.804 200.621ZM57.4892 200.897C56.9114 200.897 56.3334 199.853 56.3334 198.577 56.3334 197.301 56.9114 196.257 57.4892 196.257 58.1827 196.257 58.6449 197.301 58.6449 198.577 58.6449 199.853 58.1827 200.897 57.4892 200.897ZM134.923 209.017C134.345 209.017 133.767 208.321 133.767 207.393 133.767 206.465 134.345 205.305 134.923 204.957 135.617 204.609 136.079 205.305 136.079 206.581 136.079 207.973 135.617 209.017 134.923 209.017ZM55.1777 210.177C54.5999 210.177 54.0219 209.365 54.0219 208.437 54.0219 207.509 54.5999 206.697 55.1777 206.697 55.8712 206.697 56.3334 207.509 56.3334 208.437 56.3334 209.365 55.8712 210.177 55.1777 210.177ZM158.529 266.325C158.442 265.745 158.385 264.584 158.385 262.96 158.385 259.828 158.616 258.552 158.847 260.408 159.078 262.148 159.078 264.701 158.847 266.209 158.731 266.905 158.616 266.905 158.529 266.325ZM119.227 315.691C117.992 316.077 115.391 315.076 114.351 313.423 112.502 310.407 113.08 309.595 118.281 307.043 121.979 305.303 122.326 304.723 121.632 302.055 119.668 294.05 119.783 289.99 122.326 281.87 124.175 275.721 124.984 270.385 125.099 262.264 125.215 253.216 125.677 250.432 127.642 247.184 131.34 241.151 131.687 238.715 130.3 231.407 128.567 222.358 130.531 215.398 134.923 215.398L137.813 215.398 138.159 231.407C138.39 246.255 138.275 247.648 135.963 250.896 133.19 254.84 133.421 261.22 136.657 264.701 137.581 265.745 138.39 267.485 138.39 268.529 138.39 269.573 138.968 270.733 139.546 271.081 141.511 272.241 140.817 281.173 138.39 287.902 134.114 299.734 136.31 305.071 146.018 306.231 152.144 306.811 156.882 309.247 156.882 311.683 156.882 313.887 154.224 314.119 143.938 313.307 138.159 312.727 134.345 311.799 133.19 310.639 130.531 307.971 125.099 308.319 122.21 311.335 120.939 312.727 119.899 314.235 119.899 314.815 119.899 315.279 119.639 315.562 119.227 315.691ZM144.314 384.173C141.944 384.303 139.604 384.071 139.199 383.375 138.853 382.795 138.275 368.526 137.813 351.589 137.119 326.532 137.235 320.5 138.506 319.804 139.315 319.224 144.169 318.643 149.254 318.527 159.194 318.18 161.505 316.788 161.505 311.683 161.505 308.899 156.42 303.563 152.837 302.635 151.566 302.287 148.33 301.359 145.672 300.662 141.28 299.618 140.702 299.038 140.702 296.138 140.702 294.398 141.627 291.15 142.667 288.946 146.712 280.709 145.903 269.573 140.471 262.496 137.581 258.668 137.813 253.796 141.049 251.592 143.476 249.968 143.591 249.272 143.36 235.003 143.245 226.766 143.36 219.11 143.707 217.95 144.285 216.21 145.44 215.978 150.295 216.21L156.304 216.558 156.651 221.198C156.882 223.75 156.304 233.147 155.264 242.079 152.722 264.816 151.797 280.245 152.722 283.726 153.646 287.438 156.651 287.67 157.344 284.19 157.691 282.681 158.153 280.477 158.385 279.201 158.847 277.345 158.962 277.461 159.078 279.781 159.309 283.842 161.043 286.51 162.545 285.002 163.817 283.726 166.59 257.508 168.093 232.335 168.671 224.214 169.595 217.718 170.173 217.486 172.485 216.79 175.489 220.154 176.645 224.678 179.65 236.279 180.112 246.023 179.534 284.422 178.725 327.808 176.992 362.378 175.374 366.554 172.716 372.935 171.907 368.526 171.907 347.181 171.907 329.78 171.56 325.024 170.289 323.98 169.017 322.936 168.44 322.936 167.631 324.096 167.168 324.908 166.706 338.365 166.706 353.91L166.706 382.215 161.39 382.447 156.073 382.795 155.264 376.763C154.917 373.515 154.571 360.986 154.571 349.037 154.571 328.852 154.455 327.228 152.606 327.576 150.641 327.924 150.526 330.128 150.526 354.606 150.526 369.339 150.063 381.983 149.601 382.795 149.081 383.549 146.683 384.042 144.314 384.173ZM124.637 384.303 124.29 352.054C124.059 334.304 124.29 318.643 124.753 317.367 125.099 315.975 126.371 314.583 127.526 314.119 132.034 312.379 132.381 315.047 132.843 349.965L133.19 383.607 128.913 383.955ZM32.2942 387.668 31.4852 379.895C31.1384 375.487 30.6762 361.45 30.5605 348.457 30.445 331.056 29.9827 324.56 28.9425 323.632 25.5909 320.848 24.8974 328.272 25.7064 357.622 26.6311 388.248 26.6311 388.596 20.8524 386.391 18.7721 385.579 18.3098 384.303 17.6163 375.371 17.154 369.919 17.154 355.882 17.6163 344.281 18.3098 326.184 18.1941 322.936 16.6918 321.66 15.3048 320.616 14.727 320.616 14.0335 321.776 13.4556 322.588 12.9933 336.857 12.7623 353.445 12.5311 379.431 12.3 383.723 10.682 384.767 9.41053 385.579 8.60153 385.463 7.90815 384.419 6.40578 381.867 4.20993 333.724 4.78778 314.583 5.36562 297.414 7.79252 277.229 11.6065 257.16 12.6466 252.056 14.2647 242.195 15.3048 235.119 18.3098 214.122 18.0786 214.818 21.0836 214.818L23.8573 214.818 23.8573 246.255C23.9729 263.54 24.4352 278.505 25.0131 279.433 25.5909 280.477 27.9024 281.521 30.2139 281.753L34.3745 282.218 33.7967 265.048C33.4499 255.652 32.872 244.863 32.6409 241.035 32.2942 237.323 32.4097 229.899 32.872 224.562L33.5655 214.818 38.9975 214.818C43.6203 214.818 44.545 215.166 45.7006 217.718 47.8966 222.474 47.4343 229.667 44.6605 233.147 42.3491 236.163 42.3491 237.207 43.0425 252.52 43.6203 264.12 43.3893 269.805 42.4646 272.241 39.5753 279.549 37.8417 289.178 38.9975 291.382 40.8466 294.746 40.3843 295.906 37.0327 296.718 32.1786 297.878 29.7515 300.547 29.7515 304.607 29.7515 310.175 34.9523 314.003 40.0376 312.031 42.0023 311.335 43.3893 311.567 44.6605 312.727 47.781 315.511 51.8261 316.091 56.5646 314.467 60.1474 313.307 61.6499 313.307 63.3833 314.351 69.6243 318.295 75.9809 313.539 73.5538 306.579 72.1669 302.751 68.5841 299.85 67.4284 301.707 66.9661 302.287 67.1972 304.143 67.8907 305.883 69.5087 310.291 69.6243 310.291 63.1521 309.363 59.1072 308.783 56.3334 309.015 54.3687 310.059 52.0572 311.335 51.1326 311.335 49.0523 309.943 47.6654 309.015 43.9671 307.971 40.731 307.623 35.9925 307.159 34.9523 306.695 34.9523 304.723 34.9523 303.099 36.4548 301.939 40.6155 300.431 47.781 297.878 48.7056 296.486 45.7006 292.426 43.1581 288.946 43.1581 288.018 47.0876 272.821 48.0121 269.341 48.1278 262.844 47.6654 253.564 46.972 240.571 47.0876 239.179 49.3991 234.539 51.1326 231.059 51.8261 227.81 51.7106 223.634 51.2482 214.586 51.2482 214.586 56.1024 215.05L60.3785 215.398 60.1474 221.198C59.9162 224.446 59.8007 230.247 59.9162 234.307 59.9162 248.46 59.8007 251.476 58.7605 265.281 58.1827 272.937 57.0269 281.87 56.3334 285.002 54.5999 291.846 55.4089 298.226 58.6449 302.055 60.3785 304.143 61.072 304.375 62.2276 303.331 63.3833 302.171 63.3833 301.243 62.112 298.922 60.1474 295.21 60.1474 285.698 62.112 282.101 62.9211 280.477 63.7301 273.169 63.9612 264.237 64.3079 255.884 64.5391 247.532 64.6546 245.559 64.6546 243.703 64.5391 239.759 64.4234 236.859 64.1923 233.959 64.3079 228.042 64.5391 223.634L65.1169 215.514 94.3571 215.514C110.422 215.398 123.944 215.63 124.522 215.978 124.984 216.326 125.446 219.922 125.331 224.098 125.331 228.274 125.793 233.379 126.255 235.467 126.949 238.599 126.486 240.107 123.828 244.167 120.708 248.692 120.477 249.852 120.361 261.22 120.245 270.385 119.668 275.257 117.818 280.825 116.316 285.234 115.276 291.15 115.276 295.326 115.276 301.823 114.929 302.751 111.809 305.535 106.146 310.523 107.648 316.439 115.507 319.804L119.668 321.428 119.436 352.517 119.321 383.607 111.809 383.607 104.296 383.607 103.719 353.445C103.256 327.692 102.91 323.284 101.407 323.284 99.9046 323.284 99.6734 327.576 99.3267 353.562L99.0956 383.839 93.6636 384.535C84.3021 385.579 84.88 388.015 85.3423 349.037 85.689 323.864 85.4578 314.119 84.5333 313.771 81.8751 312.843 81.2972 318.064 80.7193 351.125L80.0259 384.767 73.3227 385.115C68.6997 385.347 66.5038 384.999 66.1571 383.955 65.9259 383.143 65.2324 368.642 64.7702 351.706 63.9612 325.604 63.6144 320.964 62.112 320.964 59.3384 320.964 58.9917 327.808 60.263 357.39 61.4187 387.9 61.881 386.507 52.6351 386.507 47.4343 386.507 47.2031 386.391 46.5098 382.795 46.163 380.707 45.7006 366.322 45.5851 350.777 45.354 323.516 45.2384 322.588 43.0425 322.936 41.0778 323.284 40.731 324.444 40.3843 334.884 40.1532 341.265 40.4998 354.722 41.3089 364.698 42.0023 374.675 42.3491 383.955 41.8868 385.231 41.3089 387.087 40.1532 387.668 36.686 387.668ZM122.754 404.88C124.168 405.641 125.013 402.748 124.753 397.18 124.29 390.336 124.406 390.104 127.295 389.292 131.572 388.248 133.536 389.408 134.345 393.12 135.617 398.804 137.235 401.704 138.506 400.892 139.315 400.428 139.546 398.34 139.199 395.788 138.39 389.872 139.546 388.596 145.325 388.596 151.104 388.711 152.259 389.988 152.259 396.716 152.259 400.312 152.722 401.588 153.993 401.588 156.189 401.588 156.998 399.616 157.46 393.236 157.576 390.452 157.807 387.9 157.922 387.435 158.038 386.275 162.892 386.275 165.435 387.203 166.706 387.668 167.284 389.408 167.284 392.192 167.284 396.948 169.711 401.24 171.56 400.08 172.254 399.616 172.831 397.528 172.716 395.44 172.6 393.004 173.525 390.684 175.143 389.059 176.992 387.203 177.454 385.695 176.876 382.563 176.53 380.127 177.107 375.835 178.61 371.195 181.268 362.958 181.846 356.114 183.58 307.623 184.966 266.441 185.313 234.771 184.273 233.843 183.811 233.379 183.464 232.103 183.464 230.943 183.464 227.346 179.65 216.558 177.57 214.586 176.53 213.542 174.218 212.498 172.369 212.266L169.017 211.918 168.671 199.621 168.324 187.208 171.676 185.12C179.65 180.016 183.464 171.663 183.464 159.83 183.464 145.562 173.525 135.933 158.847 135.933 146.943 135.933 138.39 144.75 138.39 157.162 138.39 167.255 144.285 177.115 155.495 186.048 158.269 188.252 158.5 190.572 157.229 203.565L156.535 211.454 148.33 211.105 140.124 210.757 140.008 203.217C140.008 191.964 138.853 188.484 135.154 187.788 129.954 186.628 127.642 190.572 128.567 198.693 129.376 206.001 128.682 210.177 126.486 210.177 125.446 210.177 125.099 200.549 125.446 169.343 125.677 146.838 126.255 125.841 126.602 122.592L127.411 116.792 133.074 115.632C137.928 114.588 139.777 113.312 145.325 107.28 150.41 101.711 152.375 98.347 154.571 91.9667 156.998 84.4263 157.113 83.3822 155.726 78.9741 153.299 71.7815 146.712 67.3733 134.461 65.0532 125.446 63.3131 116.894 67.0253 113.542 73.9858 112.502 76.1899 111.115 77.9299 110.306 77.9299 109.497 77.9299 107.764 75.7258 106.261 73.0577 104.874 70.2736 102.678 66.7933 101.523 65.2853 99.4422 62.6171 99.4422 62.501 97.2464 64.7052 95.0504 66.9094 95.0504 66.9094 93.0857 64.5892 91.5833 62.733 90.8898 62.6171 89.7341 63.6612 88.5783 64.8212 89.7341 67.8374 94.9349 78.5099 98.6332 85.8184 102.216 91.8507 103.141 91.8507 105.221 91.8507 106.03 94.5189 106.03 102.291 106.03 109.716 105.914 109.6 116.316 114.472L120.245 116.328 119.436 128.741C118.627 140.11 117.472 161.803 115.738 195.677 115.276 202.753 114.698 208.785 114.236 209.365 113.773 209.829 105.452 210.525 95.8594 210.873L78.1767 211.454 76.6743 207.625C75.403 204.725 74.9407 194.053 74.594 162.035 74.4784 139.065 74.7095 119.576 75.1718 118.88 75.7497 118.068 77.2522 117.372 78.639 117.372 85.1111 117.372 91.0054 110.876 92.6234 102.175 93.0857 99.7392 94.1259 97.303 95.0504 96.4911 97.7087 94.2869 97.1308 91.2708 93.2013 85.8184 91.2366 83.0342 88.0005 77.9299 86.0358 74.5658 83.1463 69.4614 81.5283 67.9534 78.4079 67.1413 76.212 66.5614 73.3227 65.4012 72.0514 64.4732 68.5841 62.153 56.449 62.2691 52.8662 64.8212 45.9318 69.6935 44.8916 72.0135 44.7761 82.3382 44.7761 91.1547 45.1228 92.5468 48.9368 99.7392 54.2531 109.6 54.7154 110.064 60.9564 114.124L66.0415 117.372 65.6948 159.019C65.4636 191.384 65.6948 201.593 66.8506 204.957 68.1219 208.553 68.1219 209.249 66.7349 210.177 63.4989 212.15 61.881 209.133 62.8054 202.405 63.6144 195.213 61.4187 190.456 57.1425 190.456 53.2129 190.456 51.7106 192.66 51.7106 198.113 51.7106 205.421 47.4343 210.177 40.731 210.177 38.0728 210.177 35.299 209.481 34.7212 208.785 33.5655 207.277 34.3745 186.396 35.5302 185.584 35.877 185.352 37.7261 184.308 39.5753 183.264 41.54 182.22 43.8515 179.9 44.7761 178.044 46.972 174.215 49.3991 162.499 49.3991 156.35 49.3991 151.826 45.7006 143.474 42.4646 140.921 36.3392 135.817 22.7016 137.325 16.4606 143.59 11.9532 147.998 10.682 153.566 11.9532 163.427 13.109 173.055 15.8828 177.928 22.8171 182.22 28.4802 185.7 29.636 187.324 27.5557 188.6 26.9777 189.064 26.1687 193.357 25.7064 198.345 24.7819 208.205 23.8573 210.177 19.8122 210.177 18.1941 210.177 16.345 211.337 15.3048 212.962 13.5713 215.514 10.4508 231.175 7.677 250.78 7.09905 254.956 5.82794 262.728 4.9033 268.181 1.66729 286.626 0.973817 294.514 0.164814 315.279-0.528661 334.884 1.08945 380.591 2.70745 386.275 3.2853 388.131 4.32546 388.828 6.8681 388.828 9.41053 388.828 11.491 389.988 14.2647 392.888 18.6565 397.528 19.9278 397.876 21.6614 394.628 23.3949 391.496 26.0532 391.728 27.6712 395.208 29.2892 398.804 30.2139 398.804 32.4097 395.324 33.9122 393.004 34.8368 392.656 38.0728 393.352 41.1933 394.048 42.0023 394.86 42.4646 397.528 43.2736 402.4 46.3941 402.052 47.0876 396.948 47.6654 393.236 48.0121 392.888 51.7106 392.54 53.9064 392.308 56.3334 391.612 57.1425 390.916 59.4539 388.944 60.9564 391.032 60.9564 396.368 60.9564 404.952 65.1169 404.024 65.8104 395.208 66.1571 390.568 66.1571 390.568 71.2424 390.22 79.7948 389.64 81.7595 390.568 81.7595 395.324 81.7595 401.008 83.7243 404.488 85.8046 402.748 86.9603 401.704 87.3071 399.964 86.7291 396.252 86.0358 390.8 86.1513 390.684 92.739 389.64 97.9398 388.711 99.3267 390.22 100.02 396.832 100.482 401.588 100.945 402.748 102.447 402.516 103.719 402.284 104.296 400.776 104.412 397.412 104.528 389.176 105.221 388.596 112.155 389.292 115.391 389.64 118.512 389.872 119.09 389.988 119.552 389.988 119.899 392.424 119.899 395.324 119.899 398.224 120.477 401.588 121.17 402.864 121.748 403.966 122.282 404.626 122.754 404.88Z" fill="#224C87" fill-rule="evenodd" transform="matrix(1 0 0 -1 269 656)"/><path d="M560.105 140.653C566.168 140.784 565.907 141.495 565.608 142.916 565.161 145.31 562.623 145.759 547.251 146.507 537.401 147.106 511.881 147.554 490.539 147.704 441.14 147.854 318.463 153.988 314.583 156.382 313.837 156.98 281.451 157.728 242.648 158.177L172.355 159.075 166.535 163.114C160.565 167.453 157.431 166.855 159.073 161.618 161.311 154.736 168.326 153.838 226.082 152.941 255.781 152.492 300.554 150.696 325.627 149.05 399.949 144.113 405.173 143.814 448.005 143.365 470.541 143.216 501.434 142.467 516.657 141.869 541.655 140.971 554.042 140.522 560.105 140.653ZM584.773 117.968C587.31 117.968 587.907 123.205 585.37 124.851 583.131 126.197 580.445 123.055 581.489 120.362 582.086 119.016 583.429 117.968 584.773 117.968ZM195.579 95.6579C192.074 95.7561 189.975 98.4213 189.975 103.022 189.975 108.857 191.319 109.306 196.841 104.967 202.363 100.778 203.258 97.9348 199.527 96.4387 198.072 95.8776 196.747 95.6252 195.579 95.6579ZM239.555 95.6082C235.798 95.019 234.707 97.0388 234.707 102.425 234.707 108.709 236.199 109.457 242.766 106.764 249.333 103.921 250.079 99.1335 244.258 97.0388 242.356 96.2908 240.807 95.8046 239.555 95.6082ZM584.026 94.0586C587.459 94.0586 588.056 97.3502 585.071 99.8937 582.683 101.839 581.042 100.642 581.042 96.7517 581.042 95.1059 582.086 94.0586 584.026 94.0586ZM158.678 91.2905C162.297 91.4962 165.394 92.4687 165.394 94.0396 165.394 95.5359 163.603 96.4336 159.872 96.7327 150.619 97.4808 147.932 106.757 156.738 107.804 163.304 108.552 162.11 112.592 154.947 113.49 148.977 114.238 148.977 114.238 149.276 120.223 149.873 128.751 152.559 130.845 160.767 128.9 168.528 127.105 172.259 128.451 169.274 131.893 166.886 134.885 153.902 136.68 149.873 134.436 138.53 128.451 137.933 100.922 148.828 93.142 150.917 91.6457 155.059 91.0846 158.678 91.2905ZM501.731 91.2077C501.433 91.3574 499.94 91.8062 498.298 92.1055 493.374 93.3023 486.21 99.5862 484.27 104.374 482.031 109.611 484.568 116.792 489.045 117.69 500.388 119.934 514.566 97.6413 505.164 92.5543 503.522 91.8062 502.03 91.2077 501.731 91.2077ZM192.513 89.5564C196.094 89.5564 201.019 90.6037 203.407 91.8007 209.526 94.9426 209.676 102.872 204.004 107.361 201.616 109.306 200.422 111.4 201.019 112.747 202.064 115.59 208.034 117.984 213.854 117.984 218.63 117.984 221.018 120.377 218.63 122.771 215.944 125.464 199.079 121.125 195.497 117.086 191.766 112.747 189.975 113.794 189.975 119.929 189.975 122.622 189.229 125.764 188.483 126.961 184.304 133.095 177.738 113.046 180.126 101.526 180.573 98.9823 182.066 95.3914 183.409 93.2968 185.349 90.3044 186.991 89.5564 192.513 89.5564ZM235.062 88.8099C236.013 88.6978 236.871 88.7353 237.393 88.9596 238.587 89.2588 241.423 89.558 243.662 89.558 246.796 89.558 249.034 90.9045 252.019 94.7946 255.601 99.4327 255.75 100.48 254.109 104.37 253.213 106.764 251.422 109.158 250.228 109.607 246.646 110.953 247.84 114.694 252.168 115.292 254.855 115.591 256.496 116.788 256.795 118.584 257.392 121.426 254.706 121.426 241.124 118.733 236.796 117.686 236.349 117.985 235.901 121.875 235.304 127.411 232.469 128.009 230.528 122.923 224.409 107.362 225.156 92.4008 232.17 89.558 233.065 89.184 234.11 88.9222 235.062 88.8099ZM279.83 87.396C283.033 87.5735 285.773 88.4122 285.773 89.7672 285.773 91.0578 284.188 91.832 280.886 92.09 272.698 92.7353 270.321 100.736 278.113 101.639 283.924 102.284 282.867 105.769 276.528 106.543 271.245 107.188 271.245 107.188 271.509 112.35 272.038 119.705 274.415 121.512 281.679 119.834 288.547 118.286 291.849 119.447 289.207 122.415 287.094 124.996 275.604 126.545 272.038 124.609 262 119.447 261.472 95.7033 271.113 88.993 272.962 87.7024 276.627 87.2185 279.83 87.396ZM437.046 87.3575C439.236 86.8035 439.768 90.6467 438.201 97.9405 436.111 108.114 437.604 112.004 443.573 111.855 450.289 111.705 456.557 107.067 456.707 102.13 457.005 94.6489 457.304 94.0505 459.393 94.0505 462.527 94.0505 462.826 95.0977 464.019 108.713 465.064 119.336 464.766 120.981 462.826 120.981 461.482 120.981 459.99 119.635 459.542 117.839 458.647 115.146 457.9 114.847 453.125 115.895 444.767 117.69 436.261 117.091 433.574 114.398 430.142 110.957 430.739 93.452 434.32 89.4122 435.402 88.2154 436.316 87.5421 437.046 87.3575ZM502.477 85.2791C505.313 85.4101 507.701 86.5697 510.088 88.8139 515.909 94.2001 515.61 103.476 509.044 112.902 504.716 119.036 502.776 120.533 496.508 122.328 486.508 125.021 481.136 122.627 478.449 114.398 475.166 104.224 480.986 93.0031 492.18 87.9162 496.358 86.0458 499.642 85.1482 502.477 85.2791ZM357.089 85.0738C360.186 85.2844 363.32 86.3948 366.23 88.386 373.244 93.1339 373.692 98.801 367.573 103.243 361.902 107.378 362.946 108.757 372.797 110.441 378.318 111.36 380.408 112.432 380.706 114.577 381.303 117.334 380.557 117.334 371.304 116.415 365.782 115.802 358.917 114.424 356.081 113.198 351.753 111.36 351.007 110.288 351.455 106.766 351.753 103.243 352.649 102.324 356.678 102.017 362.35 101.405 365.185 98.3415 363.842 94.053 362.499 89.7644 354.887 90.0708 348.918 94.6657 344.59 98.1884 344.142 99.4136 343.246 109.522 342.351 119.631 340.859 123.001 337.277 123.154 336.68 123.154 335.337 121.469 334.441 119.325 333.098 116.262 333.098 114.117 334.441 110.288 335.486 107.531 336.232 101.405 336.232 96.5036 336.232 87.6202 336.232 87.6202 340.411 88.5392 342.649 88.9987 346.082 88.386 348.171 87.1607 350.933 85.5524 353.992 84.8632 357.089 85.0738ZM321.791 83.6371C322.132 83.585 322.529 83.6586 322.992 83.8878 325.051 87.2155 326.02 102.839 324.476 108.454 320.356 124.261 301.406 125.093 296.05 109.91 295.02 106.998 294.634 101.227 294.776 96.1832 294.917 91.1392 295.778 87.3322 296.668 86.8238 297.558 86.3154 299.296 89.7182 300.117 93.1332 300.937 96.5481 300.615 103.873 302.51 107.313 304.406 110.754 303.394 113.399 311.489 113.776 322.564 110.316 317.429 98.4193 319.012 92.9807 319.725 90.5302 319.402 84.0024 321.791 83.6371ZM524.897 80.0097C525.494 79.9537 526.091 80.1405 526.613 80.5893 527.957 81.6368 527.807 85.6765 526.613 96.5983 525.121 108.568 525.121 111.71 526.763 113.355 529.151 116.048 535.866 113.505 540.941 108.119 542.732 106.174 545.269 104.528 546.313 104.528 549 104.528 551.238 98.2441 551.238 90.913 551.238 86.1254 551.686 85.0779 554.223 85.0779 556.76 85.0779 557.208 85.9757 557.059 91.3618 556.91 103.63 553.626 118.742 550.94 119.19 549.597 119.49 548.104 118.442 547.507 116.647 546.313 112.607 544.821 112.757 538.105 117.245 531.24 121.884 527.21 122.033 521.987 117.545 517.957 113.954 517.957 113.804 519.599 105.276 520.644 100.488 521.39 93.4564 521.39 89.5666 521.39 85.826 522.136 81.936 523.181 80.8887 523.703 80.365 524.3 80.0657 524.897 80.0097Z" fill="#E1E1EA" fill-rule="evenodd"/></g></svg>