<svg width="805" height="907" xmlns="http://www.w3.org/2000/svg" xmlns:xlink="http://www.w3.org/1999/xlink" xml:space="preserve" overflow="hidden"><defs><clipPath id="clip0"><rect x="2562" y="1206" width="805" height="907"/></clipPath></defs><g clip-path="url(#clip0)" transform="translate(-2562 -1206)"><path d="M2964.5 1236.09C2952.79 1236.09 2941.09 1239.12 2930.6 1245.17L2622.61 1422.98C2601.63 1435.09 2588.71 1457.47 2588.71 1481.69L2588.71 1837.31C2588.71 1861.53 2601.63 1883.91 2622.61 1896.02L2930.6 2073.82C2951.58 2085.94 2977.42 2085.94 2998.4 2073.82L3306.39 1896.02C3327.37 1883.91 3340.29 1861.53 3340.29 1837.31L3340.29 1481.69C3340.29 1457.47 3327.37 1435.09 3306.39 1422.98L2998.4 1245.17C2987.91 1239.12 2976.2 1236.09 2964.5 1236.09ZM2964.5 1206C2977.04 1206 2989.57 1209.24 3000.81 1215.73L3330.69 1406.17C3353.16 1419.14 3367 1443.11 3367 1469.06L3367 1849.94C3367 1875.88 3353.16 1899.86 3330.69 1912.83L3000.81 2103.27C2978.34 2116.24 2950.66 2116.24 2928.19 2103.27L2598.31 1912.83C2575.84 1899.86 2562 1875.88 2562 1849.94L2562 1469.06C2562 1443.11 2575.84 1419.14 2598.31 1406.17L2928.19 1215.73C2939.42 1209.24 2951.96 1206 2964.5 1206Z" fill="#224C87" fill-rule="evenodd"/></g></svg>