<svg width="235" height="265" xmlns="http://www.w3.org/2000/svg" xmlns:xlink="http://www.w3.org/1999/xlink" overflow="hidden"><defs><clipPath id="clip0"><rect x="33" y="20" width="235" height="265"/></clipPath></defs><g clip-path="url(#clip0)" transform="translate(-33 -20)"><path d="M150 22C153.613 22 157.226 22.9332 160.464 24.7996L255.536 79.6015C262.011 83.3343 266 90.2324 266 97.6978L266 207.302C266 214.767 262.011 221.665 255.536 225.398L160.464 280.2C153.989 283.934 146.011 283.934 139.535 280.2L44.4645 225.398C37.9891 221.665 34 214.767 34 207.302L34 97.6978C34 90.2324 37.9891 83.3343 44.4645 79.6015L139.535 24.7996C142.773 22.9332 146.386 22 150 22Z" fill="#1C132F" fill-rule="evenodd"/><path d="M150 66.0714C147.644 66.0714 145.288 66.6823 143.178 67.9041L81.1969 103.779C76.9753 106.222 74.3746 110.738 74.3746 115.625L74.3746 187.375C74.3746 192.262 76.9753 196.777 81.1969 199.221L143.178 235.095C147.399 237.54 152.6 237.54 156.822 235.095L218.803 199.221C223.025 196.777 225.625 192.262 225.625 187.375L225.625 115.625C225.625 110.738 223.025 106.222 218.803 103.779L156.822 67.9041C154.711 66.6823 152.355 66.0714 150 66.0714ZM150 60C152.523 60 155.046 60.6543 157.307 61.9629L223.693 100.387C228.214 103.004 231 107.841 231 113.075L231 189.924C231 195.158 228.214 199.995 223.693 202.612L157.307 241.036C152.785 243.655 147.214 243.655 142.693 241.036L76.3071 202.612C71.7855 199.995 69 195.158 69 189.924L69 113.075C69 107.841 71.7855 103.004 76.3071 100.387L142.693 61.9629C144.954 60.6543 147.477 60 150 60Z" fill="#EF6F6C" fill-rule="evenodd"/><path d="M150 28.7587C146.597 28.7587 143.194 29.64 140.145 31.4026L50.6177 83.1563C44.5199 86.6814 40.7633 93.1958 40.7633 100.246L40.7633 203.754C40.7633 210.804 44.5199 217.318 50.6177 220.843L140.145 272.597C146.243 276.123 153.756 276.123 159.854 272.597L249.382 220.843C255.48 217.318 259.237 210.804 259.237 203.754L259.237 100.246C259.237 93.1958 255.48 86.6814 249.382 83.1563L159.854 31.4026C156.805 29.64 153.402 28.7587 150 28.7587ZM150 20C153.644 20 157.289 20.9439 160.554 22.8317L256.445 78.2635C262.976 82.0392 267 89.0165 267 96.5678L267 207.432C267 214.983 262.976 221.96 256.445 225.736L160.554 281.167C154.023 284.944 145.976 284.944 139.445 281.167L43.5547 225.736C37.0235 221.96 33 214.983 33 207.432L33 96.5678C33 89.0165 37.0235 82.0392 43.5547 78.2635L139.445 22.8317C142.711 20.9439 146.355 20 150 20Z" fill="#224C87" fill-rule="evenodd"/></g></svg>