<svg width="558" height="629" xmlns="http://www.w3.org/2000/svg" xmlns:xlink="http://www.w3.org/1999/xlink" xml:space="preserve" overflow="hidden"><defs><clipPath id="clip0"><rect x="430" y="1347" width="558" height="629"/></clipPath></defs><g clip-path="url(#clip0)" transform="translate(-430 -1347)"><path d="M708.999 1367.87C700.885 1367.87 692.771 1369.97 685.5 1374.17L472.011 1497.47C457.471 1505.87 448.513 1521.39 448.513 1538.19L448.513 1784.81C448.513 1801.6 457.471 1817.13 472.011 1825.52L685.5 1948.83C700.042 1957.23 717.957 1957.23 732.498 1948.83L945.989 1825.52C960.529 1817.13 969.487 1801.6 969.487 1784.81L969.487 1538.19C969.487 1521.39 960.529 1505.87 945.989 1497.47L732.498 1374.17C725.227 1369.97 717.113 1367.87 708.999 1367.87ZM708.999 1347C717.69 1347 726.381 1349.25 734.168 1353.75L962.831 1485.82C978.405 1494.81 988 1511.44 988 1529.43L988 1793.57C988 1811.56 978.405 1828.19 962.831 1837.18L734.168 1969.25C718.594 1978.25 699.405 1978.25 683.83 1969.25L455.169 1837.18C439.595 1828.19 430 1811.56 430 1793.57L430 1529.43C430 1511.44 439.595 1494.81 455.169 1485.82L683.83 1353.75C691.618 1349.25 700.308 1347 708.999 1347Z" fill="#EF6F6C" fill-rule="evenodd"/></g></svg>