<svg width="235" height="265" xmlns="http://www.w3.org/2000/svg" xmlns:xlink="http://www.w3.org/1999/xlink" overflow="hidden"><defs><clipPath id="clip0"><rect x="80" y="325" width="235" height="265"/></clipPath><clipPath id="clip1"><rect x="107" y="357" width="181" height="223"/></clipPath><clipPath id="clip2"><rect x="107" y="357" width="181" height="223"/></clipPath><clipPath id="clip3"><rect x="88" y="357" width="225" height="223"/></clipPath></defs><g clip-path="url(#clip0)" transform="translate(-80 -325)"><path d="M197.5 327C201.097 327 204.695 327.933 207.919 329.8L302.581 384.601C309.028 388.334 313 395.232 313 402.698L313 512.302C313 519.767 309.028 526.665 302.581 530.398L207.919 585.2C201.472 588.934 193.528 588.934 187.08 585.2L92.4193 530.398C85.9719 526.665 82 519.767 82 512.302L82 402.698C82 395.232 85.9719 388.334 92.4193 384.601L187.08 329.8C190.304 327.933 193.902 327 197.5 327Z" fill="#1C132F" fill-rule="evenodd"/><g clip-path="url(#clip1)"><g clip-path="url(#clip2)"><g clip-path="url(#clip3)"><path d="M67.0905 70.3844C68.5632 70.403 70.245 70.4006 72.0453 70.3844 72.4364 90.8943 89.3803 107.204 109.89 106.813 129.956 106.43 146.088 90.1779 146.323 70.1103 146.999 67.8199 151.301 52.175 146.132 42.2817 142.805 35.3032 135.639 30.9786 127.914 31.2874 124.116 28.2815 108.192 17.545 85.8016 28.1166 67.4505 36.7741 66.9186 55.7593 66.9418 58.6095L64.8512 67.5411C64.5585 68.7902 65.3339 70.0401 66.5832 70.3326 66.7479 70.3711 66.9165 70.3918 67.0858 70.3937ZM109.177 102.208C91.446 102.183 76.9979 87.9686 76.6841 70.2404 85.3695 69.8803 95.6159 68.7537 102.062 65.7084 110.497 61.7269 121.156 52.7581 124.511 49.8451 127.731 51.3295 130.581 53.5095 132.857 56.2285 134.759 58.5533 136.405 61.0758 137.768 63.7524 138.855 65.6921 140.09 67.8849 141.665 70.317 141.312 88.0142 126.878 102.183 109.177 102.208ZM71.5319 59.3691C71.5786 59.1689 71.5988 58.9635 71.5923 58.7582 71.5691 58.0009 71.1695 40.147 87.7853 32.3025 93.1864 29.6332 99.1158 28.2046 105.14 28.1212 112.599 28.023 119.849 30.5923 125.582 35.3664 126.11 35.8658 126.841 36.0907 127.558 35.975 133.679 35.4256 139.476 38.8101 142.007 44.4095 144.906 49.959 144.07 58.2704 143.052 63.6642 142.615 62.9023 142.207 62.1729 141.814 61.4737 140.301 58.5138 138.47 55.727 136.355 53.1623 133.294 49.3448 129.197 46.4906 124.555 44.9415 123.814 44.7635 123.032 44.9608 122.464 45.4688 122.334 45.5849 109.412 57.1066 100.09 61.4969 92.5241 65.0672 78.1708 65.6781 70.0522 65.7292Z" fill="#EF6F6C" transform="matrix(1.00413 0 0 1 88.4302 357)"/><path d="M177.78 138.272C167.117 130.063 154.903 124.1 141.872 120.743 138.871 119.844 135.849 119.068 132.892 118.436L131.714 118.183 130.829 119.003C121.363 127.76 114.947 127.76 111.5 127.76 108.053 127.76 101.583 127.76 92.164 119.119L91.2837 118.311 90.1222 118.557C87.2766 119.156 84.2708 119.888 81.1627 120.736 68.2889 124.509 56.1461 130.432 45.2481 138.255 40.2513 142.17 37.283 148.127 37.1667 154.474L37.1667 190.479 41.8125 190.479 41.8125 154.474C41.9149 149.575 44.2058 144.979 48.0565 141.949 58.4859 134.483 70.0989 128.829 82.4078 125.224 84.9862 124.527 87.5182 123.895 89.9224 123.365 98.9563 131.308 105.888 132.406 111.5 132.406 117.112 132.406 124.007 131.294 133.08 123.233 135.545 123.791 138.051 124.448 140.567 125.203 153.005 128.392 164.67 134.067 174.858 141.884 178.753 144.915 181.078 149.539 181.188 154.474L181.188 190.479 185.833 190.479 185.833 154.474C185.721 148.137 182.763 142.187 177.78 138.272Z" fill="#EF6F6C" transform="matrix(1.00413 0 0 1 88.4302 357)"/></g></g></g><path d="M198 334.726C194.597 334.726 191.194 335.604 188.145 337.359L98.6177 388.917C92.5199 392.429 88.7633 398.919 88.7633 405.942L88.7633 509.058C88.7633 516.081 92.5199 522.571 98.6177 526.083L188.145 577.64C194.243 581.153 201.756 581.153 207.854 577.64L297.382 526.083C303.48 522.571 307.237 516.081 307.237 509.058L307.237 405.942C307.237 398.919 303.48 392.429 297.382 388.917L207.854 337.359C204.805 335.604 201.402 334.726 198 334.726ZM198 326C201.644 326 205.289 326.94 208.554 328.821L304.445 384.043C310.976 387.804 315 394.755 315 402.278L315 512.722C315 520.244 310.976 527.195 304.445 530.957L208.554 586.178C202.023 589.941 193.976 589.941 187.445 586.178L91.5547 530.957C85.0235 527.195 81 520.244 81 512.722L81 402.278C81 394.755 85.0235 387.804 91.5547 384.043L187.445 328.821C190.711 326.94 194.355 326 198 326Z" fill="#224C87" fill-rule="evenodd"/></g></svg>