<svg width="438" height="517" xmlns="http://www.w3.org/2000/svg" xmlns:xlink="http://www.w3.org/1999/xlink" overflow="hidden"><defs><clipPath id="clip0"><rect x="88" y="131" width="438" height="517"/></clipPath><clipPath id="clip1"><rect x="89" y="132" width="294" height="503"/></clipPath><clipPath id="clip2"><rect x="89" y="132" width="295" height="503"/></clipPath><clipPath id="clip3"><rect x="89" y="132" width="295" height="503"/></clipPath><clipPath id="clip4"><rect x="89" y="132" width="294" height="503"/></clipPath></defs><g clip-path="url(#clip0)" transform="translate(-88 -131)"><path d="M306.999 158C313.728 158 320.456 159.738 326.485 163.213L503.514 265.258C515.572 272.209 523 285.053 523 298.955L523 503.045C523 516.946 515.572 529.791 503.514 536.741L326.485 638.785C314.427 645.738 299.572 645.738 287.514 638.785L110.486 536.741C98.428 529.791 91 516.946 91 503.045L91 298.955C91 285.053 98.428 272.209 110.486 265.258L287.514 163.213C293.543 159.738 300.271 158 306.999 158Z" fill="#1C132F" fill-rule="evenodd"/><path d="M306.999 171.323C300.659 171.323 294.319 172.966 288.638 176.25L121.826 272.7C110.464 279.27 103.465 291.41 103.465 304.549L103.465 497.45C103.465 510.588 110.464 522.729 121.826 529.299L288.638 625.748C300 632.32 313.999 632.32 325.36 625.748L492.174 529.299C503.536 522.729 510.535 510.588 510.535 497.45L510.535 304.549C510.535 291.41 503.536 279.27 492.174 272.7L325.36 176.25C319.679 172.966 313.339 171.323 306.999 171.323ZM306.999 155C313.79 155 320.581 156.759 326.665 160.277L505.334 263.582C517.503 270.619 525 283.622 525 297.695L525 504.305C525 518.377 517.503 531.381 505.334 538.417L326.665 641.721C314.496 648.76 299.503 648.76 287.333 641.721L108.666 538.417C96.4968 531.381 89 518.377 89 504.305L89 297.695C89 283.622 96.4968 270.619 108.666 263.582L287.333 160.277C293.418 156.759 300.209 155 306.999 155Z" fill="#224C87" fill-rule="evenodd"/><path d="M306.5 240.313C302.094 240.313 297.688 241.452 293.739 243.728L177.813 310.577C169.917 315.13 165.053 323.545 165.053 332.651L165.053 466.348C165.053 475.455 169.917 483.869 177.813 488.423L293.739 555.271C301.635 559.825 311.364 559.825 319.259 555.271L435.187 488.423C443.083 483.869 447.947 475.455 447.947 466.348L447.947 332.651C447.947 323.545 443.083 315.13 435.187 310.577L319.259 243.728C315.312 241.452 310.906 240.313 306.5 240.313ZM306.5 229C311.219 229 315.938 230.219 320.166 232.658L444.333 304.257C452.79 309.134 458 318.146 458 327.9L458 471.099C458 480.853 452.79 489.865 444.333 494.742L320.166 566.341C311.709 571.22 301.29 571.22 292.833 566.341L168.667 494.742C160.21 489.865 155 480.853 155 471.099L155 327.9C155 318.146 160.21 309.134 168.667 304.257L292.833 232.658C297.061 230.219 301.78 229 306.5 229Z" fill="#EF6F6C" fill-rule="evenodd"/><g clip-path="url(#clip1)"><g clip-path="url(#clip2)"><g clip-path="url(#clip3)"><g clip-path="url(#clip4)"><path d="M626.088 85.4589C617.21 87.3092 615.569 87.2129 609.643 90.2002 603.718 93.1879 595.361 99.0276 590.535 103.383 585.71 107.739 583.645 110.784 580.691 116.334 577.738 121.885 574.554 125.277 572.816 136.687 571.08 148.096 575.5 165.674 579.997 172.997 584.494 180.322 585.228 181.266 590.767 184.793 596.306 188.32 603.313 191.481 613.234 194.16 618.368 201.869 612.636 214.878 615.434 217.981 621.012 216.922 644.27 195.682 646.702 194.044 651.45 194.487 656.431 196.897 665.463 194.969 682.024 193.273 690.323 188.57 700.901 182.48 714.102 173.711 723.714 161.357 722.44 138.884 723.174 132.331 721.746 126.607 719.662 119.11 716.535 112.075 711.4 103.229 704.606 97.0227 697.812 90.8169 690.71 85.9793 677.623 82.3368 662.684 78.9254 639.02 80.8334 626.088 85.4589Z" fill="#FFFFFF" fill-rule="evenodd" transform="matrix(1 0 0 1.00218 -350.626 53.062)"/><path d="M651.312 122.729 646.471 128.837 639.787 140.602 633.794 150.555 642.668 151.121 668.598 150.329 665.256 145.126 656.037 127.593 651.312 122.729Z" fill="#FCC873" fill-rule="evenodd" transform="matrix(1 0 0 1.00218 -350.626 53.062)"/><path d="M140.919 47.8529C141.351 47.8529 140.775 46.9141 139.549 45.7585 136.955 43.3028 136.091 43.5195 138.469 46.0473 139.405 47.0585 140.486 47.8529 140.919 47.8529ZM144.086 52.6143C144.229 52.3977 143.869 51.3865 143.221 50.3031 142.5 49.292 141.779 48.642 141.563 48.7865 141.419 49.0031 141.779 50.0143 142.5 51.0254 143.149 52.1088 143.869 52.7588 144.086 52.6143ZM148.882 65.4247C148.957 65.5026 149.016 65.4936 149.053 65.3852 149.412 64.3741 147.899 58.3795 147.395 58.8851 147.179 59.0295 147.467 60.7629 147.899 62.7129 148.278 64.1755 148.656 65.1912 148.882 65.4247ZM150.361 87.2097C150.457 87.1476 150.609 86.203 150.851 84.5779 151.211 81.6167 151.211 77.6444 150.851 74.4665 150.203 69.4108 150.203 69.6997 150.203 79.2333 150.203 83.8196 150.203 86.2391 150.284 86.9702 150.305 87.153 150.329 87.2303 150.361 87.2097ZM148.475 97.2728C148.835 96.8396 149.34 94.9611 149.556 92.9397 149.989 89.1836 149.195 90.7003 148.259 95.4676 147.971 96.9834 148.043 97.706 148.475 97.2728ZM145.893 102.429C146.063 102.375 146.352 102.033 146.82 101.382 147.397 100.516 147.757 99.3601 147.613 98.8545 147.397 98.3489 147.18 98.4937 147.18 99.2877 147.108 99.938 146.82 100.516 146.388 100.516 146.027 100.516 145.667 101.094 145.667 101.743 145.667 102.249 145.721 102.484 145.893 102.429ZM88.9934 140.12C92.4516 140.182 95.2981 139.984 98.468 139.551 103.584 138.756 117.922 134.206 119.795 132.689 120.372 132.256 122.822 130.667 125.2 129.223 127.578 127.778 130.82 125.395 132.405 123.878 136.008 120.556 140.691 114.778 140.691 113.695 140.691 113.261 140.979 112.827 141.34 112.684 142.132 112.394 145.734 105.244 145.734 104.016 145.734 103.511 144.005 106.039 141.988 109.578 138.313 115.933 132.477 122.65 126.568 127.128 120.516 131.75 109.132 136.445 100.053 138.034 86.868 140.418 61.0733 137.167 41.259 130.739 36.1433 129.078 23.9664 121.351 19.211 116.583 8.83553 106.544 1.91848 91.9551 1.12593 78.738 0.549472 69.4933 1.77437 62.3431 5.377 53.7484 9.33986 44.1426 11.2853 41.5426 18.7066 35.4756 21.7328 33.0923 34.7022 27.6032 41.7633 25.7254 42.9882 25.4365 43.6367 18.3585 43.2044 9.83618 42.9882 4.49153 43.1323 2.32477 43.7087 2.32477 46.0865 2.32477 61.5777 14.1696 68.5667 21.3919 71.4488 24.4254 74.1147 26.881 74.4029 26.881 74.6911 26.881 76.3484 26.3755 78.0776 25.7254 80.6715 24.7865 82.9771 24.7143 90.2543 25.0755 95.2258 25.2921 101.566 26.0143 104.305 26.6643 109.06 27.6755 122.678 33.8867 127.073 37.0646 128.154 37.7869 129.235 38.4369 129.594 38.4369 129.883 38.4369 131.18 39.2313 132.549 40.3146 133.846 41.3259 134.927 41.9037 134.927 41.687 134.927 40.3146 129.883 37.0646 117.995 30.8533 109.709 26.5199 104.449 25.1476 91.6236 23.9199 83.4815 23.1253 82.1126 23.1976 78.7261 24.281 74.4029 25.7254 75.0514 26.0865 67.1977 18.2141 65.0362 16.0475 61.9379 13.2306 60.3528 12.0751 58.7676 10.9195 57.3266 9.69165 57.1105 9.47504 56.6061 8.89718 44.9335 1.31368 42.9882 0.30251 41.5472-0.491954 41.5472-0.419742 41.8354 9.54721 42.0515 15.0362 41.9794 20.6698 41.6912 22.1142 41.259 24.3532 40.8266 24.7865 38.1607 25.4365 28.2896 28.0366 17.842 33.5978 12.4381 39.1592 10.2765 41.2536 5.23289 49.415 5.23289 50.6427 5.23289 51.1483 4.80055 52.2317 4.22417 53.0983 3.71977 53.965 2.49494 57.7207 1.63025 61.4041-0.531312 70.36-0.531312 80.6157 1.5582 88.6327 3.07133 94.3383 9.26778 107.772 10.4206 107.772 10.7088 107.772 10.9971 108.206 10.9971 108.711 10.9971 109.722 18.3464 117.667 21.949 120.556 25.1913 123.156 31.9643 127.706 35.5669 129.583 41.1148 132.545 63.0187 137.745 75.8439 139.117 81.464 139.732 85.5349 140.057 88.9934 140.12Z" fill-rule="evenodd" transform="matrix(1 0 0 -1.00218 221.804 273.354)"/><path d="M17.6618 28.9062C17.3068 28.4053 14.7505 24.111 11.9811 19.3874 3.45994 4.71534 0.83255 0.492646 0.335522 0.421089-0.0195505 0.421089-0.232593 0.206343-0.232593-0.0798866-0.232593-0.867164 35.4852-0.294632 36.2663 0.421089 36.6213 0.778949 36.2663 2.0672 35.4142 3.42709 33.2839 6.86243 28.2422 15.8804 25.8989 20.4609 24.0527 23.968 19.6501 29.7651 18.727 29.7651 18.5849 29.7651 18.0879 29.3357 17.6618 28.9062ZM20.6442 25.8288C21.4963 24.8983 22.9165 22.5365 23.9106 20.6756 24.9047 18.8148 26.0409 16.7392 26.4671 16.1666 26.964 15.5941 28.8813 11.944 30.7986 8.15075L34.349 1.13681 27.8871 1.13681C24.3367 1.13681 17.1647 0.922061 12.0521 0.635761 6.86842 0.421089 2.60784 0.421089 2.60784 0.707391 2.60784 1.63778 5.4482 6.79087 6.15827 7.22028 6.58435 7.50659 7.86254 9.65373 9.06972 12.0872 10.3478 14.5205 12.3361 18.1707 13.6143 20.1031 14.8214 22.1071 16.3836 24.5405 17.0228 25.6856 18.5139 28.0474 18.727 28.0474 20.6442 25.8288Z" fill-rule="evenodd" transform="matrix(1 0 0 -1.00218 282.252 204.513)"/><path d="M588 448.256 603.587 453.364 623.826 449.184 693.849 443.379 700.596 442.217 703.852 435.947 704.318 428.98 688.266 413.188 674.075 393.681 658.954 372.083 658.023 363.955 659.186 351.879 652.905 326.333 634.527 314.488 622.197 296.142C616.847 297.613 600.795 292.35 599.399 290.336 596.685 291.188 596.995 301.096 598.003 303.109 598.081 310.541 598.158 317.972 598.236 325.404L597.073 333.764 598.701 346.305 599.399 362.329 601.958 368.367 602.423 383.462 600.562 396.932 594.049 426.89 596.142 437.573 601.726 440.36 588 448.256Z" fill="#DD9524" fill-rule="evenodd" transform="matrix(1 0 0 1.00218 -350.626 53.062)"/><path d="M572.945 222.561 580.512 223.641 582.828 227.035 585.917 235.368 591.939 248.945 606.146 273.94 620.972 296.776 610.317 296.622 599.97 290.604 598.117 296.93 597.499 307.731 597.035 310.663 598.734 317.297 597.962 332.726 599.352 352.013 599.653 364.194 600.587 364.203 602.441 375.62C602.492 381.175 602.543 386.729 602.595 392.284L593.947 437.955 599.97 438.109 601.205 440.424 599.352 443.972 592.249 444.898 588.079 448.91 568.157 451.07 540.824 451.533 516.424 446.441 485.075 448.447 465.927 450.144 454.19 449.681 449.712 445.515 448.785 439.807 453.418 433.789 462.529 419.903 470.714 402.775 491.562 421.908 502.062 423.76 507.622 420.828 511.946 414.811 539.743 386.575 545.766 374.54 552.097 369.294 549.472 363.739 549.883 363.743 545.611 356.025 542.831 356.025 535.265 353.557C531.79 354.868 529.834 366.852 524.609 371.145 518.612 375.131 510.531 380.069 503.916 379.323L510.401 338.744 528.61 325.633 526.771 325.783 517.505 317.606 538.507 283.661 546.074 270.237 555.649 257.431 561.517 249.253 563.371 244.471 568.467 228.116 572.945 222.561Z" fill="#DE9D30" fill-rule="evenodd" transform="matrix(1 0 0 1.00218 -350.626 53.062)"/><path d="M594.123 454.309 609.002 480.318 595.983 531.098 586.683 539.458 582.498 532.491C582.86 525.628 584.307 518.764 584.669 511.901L584.204 504.469 588.234 484.343 585.444 455.858 594.123 454.309ZM527.166 448.116 540.495 455.238 550.415 462.05 545.455 493.632 546.385 522.118 524.996 531.407 526.235 511.591 526.235 493.323 525.926 465.146 527.166 448.116ZM514.766 405.852 511.976 416.689 502.986 423.501 493.686 423.501 486.092 415.605 503.606 410.342 514.766 405.852ZM477.894 349.578 477.907 350.064C477.939 350.331 477.987 350.496 478.037 350.603L478.152 350.778 477.894 349.578ZM634.964 319.657 639.809 320.139 650.154 323.954 658.523 336.494 658.523 358.157 634.866 355.803 634.809 355.537 634.111 349.034 636.902 340.675 638.761 333.476 634.577 326.044 634.964 319.657ZM501.01 318.729 512.054 340.79 488.223 347.873 478.226 351.124C478.217 351.085 478.209 351.044 478.201 351.004L477.768 351.968C477.418 352.68 476.836 353.867 475.901 355.885 472.162 363.955 468.442 395.924 463.347 403.143 458.251 410.361 449.126 400.008 445.328 399.194 441.531 398.382 440.369 400.027 440.562 398.266 440.756 396.504 444.224 392.538 446.491 388.629 448.758 384.72 452.633 379.997 454.163 374.811 455.694 369.625 453.911 363.142 455.674 357.51 457.437 351.879 462.048 345.706 464.742 341.023 467.434 336.34 469.837 331.037 471.832 329.411 472.83 328.599 473.799 328.251 474.644 328.512 475.49 328.773 476.211 329.644 476.715 331.269L477.309 334.647 487.525 326.16 501.01 318.729Z" fill="#404040" fill-rule="evenodd" transform="matrix(1 0 0 1.00218 -350.626 53.062)"/><path d="M634.715 356.345 658.286 358.682 658.286 359.308C658.364 364.074 658.441 368.839 658.518 373.605L658.981 394.127 654.811 408.193 650.179 422.027 640.218 442.78 632.342 450.159 625.392 446.239 621.918 441.627 622.612 434.249 626.087 430.79 626.319 424.564 629.794 419.03 634.426 418.107 632.342 409.115 630.721 395.511 631.647 388.593 633.964 377.986 638.133 367.148 635.353 359.308ZM498.218 347.933 505.167 353.314C506.3 354.748 505.579 357.106 506.711 358.54 506.943 362.716 501.898 377.397 504.704 379.293 507.509 381.189 522.824 374.988 525.089 371.453 528.899 370.274 527.585 357.234 531.111 356.541L544.239 355.927 550.879 365.304 550.262 371.607 544.856 374.066 541.922 383.29 515.36 406.348 497.291 412.804 482.775 417.262 473.972 398.508 478.451 353.621 480.612 350.7ZM634.89 319.187 639.64 320.933 634.813 320.454Z" stroke="#2F528F" stroke-width="1.22118" stroke-miterlimit="8" fill="#F2CBB2" fill-rule="evenodd" transform="matrix(1 0 0 1.00218 -350.626 53.062)"/><path d="M544.61 537.231 541.667 544.604 539.035 550.094 538.415 557.624 540.584 559.193 523.393 563.271 505.273 560.761 504.654 552.29 510.384 545.075 518.437 541.937 526.026 538.015ZM589.366 534.878 601.91 535.977 611.047 536.917 619.875 541.31 621.888 546.957 620.803 553.232 606.711 554.643 584.875 554.8 584.411 545.388 585.958 538.33Z" fill="#FCC873" fill-rule="evenodd" transform="matrix(1 0 0 1.00218 -350.626 53.062)"/><path d="M94.2668 4.95569C93.8327 4.95569 93.9051 4.45117 94.4116 3.8746 94.9171 3.29796 95.6398 2.79344 96.0015 2.79344 96.4347 2.79344 96.3624 3.29796 95.8568 3.8746 95.3512 4.45117 94.6277 4.95569 94.2668 4.95569ZM99.5973 10.6858C99.0908 10.7578 98.7474 10.5416 98.7474 10.001 98.7474 9.64064 99.1815 9.28032 99.7594 9.28032 100.337 9.28032 100.916 8.84779 101.132 8.41534 101.277 7.91083 101.711 7.69457 102 7.98289 102.289 8.27121 102 8.99198 101.422 9.64064 100.771 10.2533 100.103 10.6137 99.5973 10.6858ZM92.5322 16.4879C91.5924 16.4879 91.7372 16.1996 93.1824 15.0463 94.1945 14.2535 95.3512 13.6049 95.7845 13.6049 97.085 13.6049 96.7242 14.9022 95.2065 15.7671 94.4116 16.1275 93.2548 16.4879 92.5322 16.4879ZM106.409 17.9294C104.963 17.8573 104.963 17.7852 106.698 16.8482 109.083 15.4788 110.022 15.4788 108.866 16.8482 108.361 17.4249 107.276 17.9294 106.409 17.9294ZM110.094 19.3168C109.769 19.2808 110.167 18.7583 111.468 17.7852 112.624 16.9203 113.998 15.9113 114.503 15.551 115.081 15.1185 115.371 15.1185 115.371 15.695 115.371 16.1275 114.286 17.1365 113.058 17.9294 111.468 18.9025 110.419 19.3529 110.094 19.3168ZM103.437 21.0918C103.12 21.1187 102.867 21.0287 102.722 20.8125 102.506 20.452 102.939 19.8033 103.734 19.3708 104.529 19.0105 105.324 18.9385 105.541 19.2268 105.686 19.5151 105.252 20.1637 104.529 20.6683 104.132 20.9206 103.753 21.0647 103.437 21.0918ZM123.018 22.6864C122.747 22.6189 122.598 22.4522 122.598 22.1819 122.598 21.6773 122.815 21.5332 123.031 21.7494 123.321 22.0377 124.405 21.6052 125.489 20.8125 126.645 20.0196 128.091 19.3708 128.886 19.3708 129.825 19.3708 129.681 19.7312 128.018 20.7404 125.742 22.1999 123.831 22.8891 123.018 22.6864ZM184.103 22.9027C183.705 23.0288 183.272 22.7946 182.874 22.1819 182.368 21.3169 184.464 18.8664 185.187 19.5151 185.404 19.8033 185.404 20.6683 185.115 21.4611 184.862 22.29 184.5 22.7765 184.103 22.9027ZM98.0971 23.6234 93.8327 22.6144C86.5334 20.8125 73.0905 20.0196 68.7541 21.1008 67.7423 21.3891 66.9473 21.2448 66.9473 20.8844 66.9473 20.5962 68.8263 19.9475 71.1391 19.5151 76.2706 18.5781 84.2929 18.506 82.7752 19.443 81.9802 19.9475 81.9802 20.0916 83.0643 20.0916 83.7147 20.0916 84.2929 19.8033 84.2929 19.3708 84.2929 18.506 89.9303 19.1547 94.8448 20.5962 97.0127 21.2448 98.5312 22.0377 98.5312 22.6864 98.5312 23.263 98.3141 23.6954 98.0971 23.6234ZM163.686 24.2632C162.692 24.3982 161.59 24.272 161.264 23.7676 161.048 23.3351 161.264 22.9748 161.771 22.9748 162.421 22.9748 162.421 22.7584 161.626 22.254 160.831 21.7494 161.988 21.5332 165.456 21.5332 169.865 21.5332 171.455 22.1819 169.576 23.3351 169.215 23.5513 168.853 23.4072 168.853 23.0468 168.853 22.6144 168.058 22.254 167.046 22.254 165.963 22.254 165.311 22.6144 165.456 23.1909 165.565 23.7316 164.679 24.128 163.686 24.2632ZM101.494 24.3441C99.2539 23.6954 98.675 22.254 100.554 22.254 101.132 22.254 101.639 22.7584 101.639 23.3351 101.639 23.9117 101.566 24.4162 101.494 24.3441ZM180.995 25.7857C180.85 25.7136 179.405 25.3532 177.743 24.9208 176.008 24.5604 174.635 23.9117 174.635 23.5513 174.635 23.1909 174.924 23.0468 175.213 23.263 175.575 23.4792 177.02 23.6954 178.465 23.8396 180.055 23.9117 181.14 24.3441 181.14 24.9208 181.14 25.4253 181.067 25.7857 180.995 25.7857ZM224.395 28.1462C224.016 28.2724 223.782 28.2724 223.782 28.0921 223.782 27.4434 227.25 25.4974 227.684 25.9298 227.9 26.074 227.034 26.7947 225.877 27.4434 225.299 27.7678 224.775 28.02 224.395 28.1462ZM194.149 28.6687C193.209 28.7407 193.209 28.6687 194.149 28.02 194.727 27.6596 196.028 27.3713 197.04 27.3713L198.847 27.4434 197.04 28.02C196.028 28.3083 194.727 28.5967 194.149 28.6687ZM118.28 29.4796C117.846 29.3895 117.864 28.8849 118.623 28.02 119.851 26.6506 121.875 26.074 121.875 27.011 121.875 27.2993 121.297 27.948 120.646 28.4525 119.598 29.2453 118.714 29.5697 118.28 29.4796ZM102.334 31.1554C101.91 31.1193 101.386 30.5067 100.989 29.3174 100.554 28.0921 100.337 26.9389 100.554 26.7227 101.205 26.074 103.084 28.1642 103.084 29.5336 103.084 30.6507 102.759 31.1914 102.334 31.1554ZM184.03 31.2635C183.669 31.4796 183.308 31.0472 183.308 30.2543 183.308 29.3895 183.669 28.7407 184.03 28.7407 184.464 28.7407 184.754 29.1732 184.754 29.7499 184.754 30.3264 184.464 31.0472 184.03 31.2635ZM110.393 31.4887C110.402 31.3897 110.709 31.1193 111.323 30.6147 112.986 29.3174 113.925 29.1732 113.925 30.1823 113.925 30.6147 113.636 30.9031 113.274 30.9031 112.913 30.9031 111.974 31.1192 111.251 31.3355 110.673 31.5157 110.384 31.5878 110.393 31.4887ZM104.665 31.4977C104.602 31.4437 104.602 31.2635 104.674 30.9751 104.963 29.8939 110.167 26.8668 110.745 27.4434 110.889 27.6596 109.806 28.3803 108.361 29.1732 106.842 29.8939 105.324 30.9031 105.036 31.2635 104.855 31.4797 104.728 31.5518 104.665 31.4977ZM141.895 31.6239C140.45 31.6239 140.45 31.6239 141.75 30.6147 143.269 29.5336 144.642 29.7499 143.919 30.9751 143.63 31.3355 142.762 31.6239 141.895 31.6239ZM252.754 32.6329C252.239 32.8851 251.931 32.8491 251.751 32.5608 251.318 31.9121 252.691 30.6147 254.136 30.3264 254.715 30.1823 255.437 29.6778 255.726 29.2453 256.015 28.7407 256.304 28.6687 256.304 29.1011 256.304 29.5336 255.726 30.3264 255.003 30.9751 253.991 31.8401 253.269 32.3807 252.754 32.6329ZM210.049 33.0653C208.893 33.0653 209.182 32.0563 210.628 31.1914L214.747 28.7407 217.638 27.011 215.831 28.8849C214.82 29.8939 213.301 30.9031 212.435 31.1914 211.495 31.4796 210.772 32.0563 210.772 32.4167 210.772 32.7771 210.483 33.0653 210.049 33.0653ZM131.488 33.7861C129.898 33.7861 129.753 33.6419 130.548 32.705 131.054 32.1283 132.066 31.6239 132.788 31.6239 133.656 31.6239 133.945 31.9842 133.728 32.705 133.439 33.2815 132.5 33.7861 131.488 33.7861ZM116.084 34.4618C115.244 34.5248 114.648 34.1825 114.648 33.4257 114.648 32.8491 115.154 32.3446 115.732 32.3446 116.31 32.3446 117.466 31.9842 118.261 31.4796 120.358 30.1823 120.936 31.4075 118.984 33.0653 118.008 33.9303 116.925 34.3987 116.084 34.4618ZM122.815 34.5068C119.851 34.5068 119.851 34.2185 122.743 32.7771 125.995 31.1192 127.223 31.2635 126.067 33.0653 125.417 34.0023 124.333 34.5068 122.815 34.5068ZM255.152 35.5553C254.94 35.6331 254.732 35.57 254.57 35.2997 254.281 34.8672 254.425 34.5068 254.786 34.5068 255.22 34.5068 255.581 33.9303 255.654 33.2815 255.654 32.5608 255.871 32.3446 256.015 32.8491 256.449 33.8221 255.785 35.3222 255.152 35.5553ZM134.017 36.2096C133.746 36.1827 133.728 35.9844 133.873 35.588 134.378 34.2907 136.402 33.5699 137.197 34.3627 137.63 34.7951 136.98 35.3718 135.68 35.8042 134.812 36.0925 134.288 36.2367 134.017 36.2096ZM140.089 36.6691C139.004 36.597 139.004 36.525 140.232 35.588 141.75 34.4348 142.545 34.651 141.75 35.8763 141.534 36.3088 140.739 36.6691 140.089 36.6691ZM117.9 37.3178C116.671 37.3899 116.671 37.2458 117.539 36.6691 118.117 36.3088 119.418 36.0204 120.43 36.0204 122.092 36.0204 122.092 36.0925 120.791 36.6691 119.996 37.0295 118.695 37.3178 117.9 37.3178ZM249.468 37.7987C249.221 37.8178 249.077 37.8043 249.077 37.7502 249.077 37.0295 253.486 35.4439 253.847 36.0204 254.064 36.3808 253.775 36.8133 253.269 36.9575 251.86 37.3899 250.206 37.7413 249.468 37.7987ZM124.405 38.1106C122.526 38.0386 122.381 37.9665 123.538 37.3178 124.55 36.7412 125.128 36.7412 125.706 37.3178 126.284 37.8944 125.923 38.1106 124.405 38.1106ZM130.91 38.8314C129.03 38.7594 128.886 38.6873 130.042 38.0386 131.054 37.462 131.632 37.462 132.21 38.0386 132.788 38.6152 132.427 38.8314 130.91 38.8314ZM225.848 39.1918C225.466 39.2505 225.227 39.1918 225.227 38.9756 225.227 38.399 230.43 35.2276 231.297 35.2276 231.587 35.2276 231.225 35.8763 230.502 36.597 229.419 37.7863 226.993 39.0162 225.848 39.1918ZM211.856 39.408C210.628 39.3359 210.628 39.3359 212.073 39.0477 212.94 38.9034 213.663 38.399 213.663 38.0386 213.663 37.6782 214.241 37.3899 214.891 37.3899 215.976 37.3899 215.903 37.5341 214.675 38.471 213.952 39.0477 212.651 39.4801 211.856 39.408ZM101.784 39.5522C100.554 39.5522 95.495 36.597 94.9171 35.588 94.6277 35.0114 93.6889 34.5068 92.8939 34.5068 91.5924 34.5068 91.4481 34.2185 91.8819 31.3355 92.2427 29.3174 92.0989 28.02 91.5924 27.7317 91.159 27.4434 90.7975 27.7317 90.7975 28.3803 90.7975 29.8219 88.557 34.0023 87.6175 34.4348 87.2562 34.5789 87.762 35.1555 88.7016 35.6601 90.0748 36.3808 90.1471 36.597 89.2076 36.6691 88.4847 36.6691 87.9066 37.0295 87.9066 37.3899 87.9066 37.8224 86.4611 38.1106 84.6543 38.1106 76.7764 38.1106 66.9473 31.6239 66.9473 26.4344 66.9473 23.9117 67.0195 23.8396 70.6332 22.9748 75.1142 21.8936 84.3652 22.4701 92.2427 24.272L97.6639 25.4974 97.88 29.3174C98.0247 31.3355 98.3865 33.0653 98.8197 33.0653 99.1815 33.0653 99.47 33.9303 99.47 34.9393 99.47 36.1646 99.9041 36.9575 100.916 37.1737 101.711 37.3899 102.361 38.0386 102.361 38.543 102.361 39.1197 102.072 39.5522 101.784 39.5522ZM135.39 39.8224C135.065 39.8405 134.885 39.7324 134.885 39.4801 134.885 38.6152 136.692 37.8944 137.848 38.2548 138.282 38.399 137.848 38.9034 136.764 39.408 136.185 39.6603 135.715 39.8045 135.39 39.8224ZM148.933 41.7662C148.187 41.9892 146.629 39.5162 146.087 36.597 145.654 34.3627 145.797 34.0744 147.822 33.2815 149.05 32.8491 150.062 32.1283 150.062 31.6959 150.062 30.6147 148.399 30.6868 147.316 31.7679 146.665 32.4167 146.376 32.2725 146.014 31.4075 145.22 29.3895 147.46 28.0921 152.664 27.6596 155.411 27.4434 160.108 26.9389 163.071 26.5785 167.191 26.074 169.938 26.2181 174.707 27.083L180.995 28.1642 180.995 30.9751C181.067 32.5608 180.778 33.7861 180.345 33.7861 179.983 33.7861 179.694 34.5789 179.694 35.4439 179.694 38.1827 177.237 39.8405 172.828 40.0567 170.588 40.1288 168.853 39.9126 168.853 39.5522 168.853 39.1197 168.275 38.8314 167.48 38.8314 166.758 38.8314 165.384 37.8224 164.445 36.597 163.505 35.3718 162.276 33.9303 161.843 33.4257 161.336 32.8491 160.903 31.6239 160.903 30.6147 160.903 28.5967 160.253 28.2363 158.879 29.6057 157.579 30.9031 157.796 32.9212 159.458 35.6601 161.193 38.399 160.541 39.1197 157.001 38.399 155.121 38.1106 154.109 38.2548 153.242 39.1197 152.591 39.8405 151.507 40.1288 150.712 39.9126 149.773 39.6242 149.339 39.7684 149.339 40.5613 149.339 41.3181 149.181 41.6919 148.933 41.7662ZM164.96 42.1379C164.644 42.0388 164.516 41.7866 164.516 41.3541 164.516 40.7774 164.228 40.273 163.794 40.273 163.433 40.273 163.071 39.9126 163.071 39.4801 163.071 39.1197 163.794 39.2638 164.661 39.8405 165.528 40.4891 166.902 40.9937 167.697 40.9937 168.492 40.9937 168.925 41.1378 168.781 41.282 168.636 41.4262 167.625 41.7145 166.54 42.0027 165.781 42.183 165.276 42.237 164.96 42.1379ZM187.33 42.754C187.062 42.6065 186.922 42.3092 186.922 41.8586 186.922 39.8405 189.307 38.0386 191.692 38.2548 192.848 38.3269 194.221 38.1827 194.727 37.8224 196.606 36.6691 195.45 38.1106 192.92 40.1288 190.102 42.2911 188.137 43.1966 187.33 42.754ZM177.915 43.8227C177.562 43.8046 177.67 43.4804 178.465 42.8677 179.767 41.8586 179.767 41.8586 178.465 41.5703 177.526 41.3541 177.887 40.9937 179.839 40.273 181.284 39.7684 182.657 38.7594 182.802 38.0386 183.163 36.7412 186.199 36.3808 186.199 37.6061 186.199 38.2548 182.44 41.6423 180.128 42.9398 179.08 43.5525 178.267 43.8408 177.915 43.8227ZM146.087 45.6065C145.437 45.8228 145.002 45.6065 145.002 44.9579 145.002 44.3813 145.509 43.8767 146.087 43.8767 146.665 43.8767 147.171 44.165 147.171 44.5254 147.171 44.8858 146.665 45.3182 146.087 45.6065ZM148.617 60.4542C148.255 60.4542 147.894 60.0939 147.894 59.6614 147.894 59.301 147.532 59.1568 147.027 59.4452 146.521 59.7335 146.449 59.6614 146.737 59.1568 147.46 57.9316 149.339 58.0756 149.339 59.3731 149.339 59.9496 149.05 60.4542 148.617 60.4542ZM96.2177 61.5353C94.4116 61.5353 92.9654 61.3191 92.9654 61.1029 92.9654 60.8146 92.2427 60.4542 91.3757 60.166 90.0748 59.8775 89.9303 59.5892 90.653 58.8685 91.3035 58.2199 91.7372 58.1478 92.0989 58.7243 92.3874 59.1568 94.1221 59.7335 96.0739 60.0217 97.9524 60.31 99.47 60.7425 99.47 61.0308 99.47 61.3191 98.0247 61.5353 96.2177 61.5353ZM154.688 64.7788C154.109 64.7788 153.676 64.4184 153.676 63.9859 153.676 63.4814 152.447 63.2651 150.424 63.4814 148.617 63.6255 147.171 63.4814 147.171 63.1931 147.171 62.8327 148.255 62.6165 149.556 62.6165 150.784 62.6165 152.591 62.4003 153.386 62.184 154.543 61.8957 155.049 62.184 155.338 63.2651 155.554 64.2742 155.338 64.7788 154.688 64.7788ZM100.238 88.5458C99.7777 88.4557 99.0725 88.0593 98.4589 87.4106 97.8086 86.834 97.3021 86.1132 97.3021 85.9691 97.3021 85.4646 100.049 87.0503 100.554 87.8431 100.916 88.4197 100.699 88.6359 100.238 88.5458ZM153.948 89.2486C153.246 89.708 152.556 87.735 152.881 85.032 153.026 84.5276 152.736 84.3113 152.302 84.5996 151.797 84.888 151.507 84.3113 151.507 83.2302 151.507 82.2211 151.146 81.3562 150.712 81.3562 150.351 81.3562 150.134 81.6445 150.424 82.0049 150.641 82.3653 150.496 82.8698 150.134 83.086 149.05 83.7347 148.472 81.1401 149.484 80.2751 150.641 79.4101 150.712 74.7252 149.629 73.3558 149.122 72.7792 148.544 71.1935 148.255 69.8241 147.822 67.7338 147.894 67.4455 148.689 68.2384 149.194 68.6709 149.917 69.1034 150.207 69.1034 151.291 69.1034 150.496 65.1391 149.339 64.6346 148.544 64.2022 148.617 64.1301 149.701 64.2742 150.568 64.3463 151.219 65.0671 151.363 66.0761 151.507 67.0852 152.302 67.8059 153.386 68.0942 154.543 68.3826 155.049 68.9591 154.832 69.5358 154.616 70.1123 154.759 70.5448 155.121 70.5448 155.554 70.5448 155.844 71.8422 155.844 73.4999 155.844 76.0225 156.061 76.3829 157.145 75.9505 158.084 75.5901 158.156 75.6621 157.506 76.3829 156.856 76.9596 156.856 77.6804 157.361 78.6173 158.446 80.6354 158.591 85.6808 157.579 85.6808 157.073 85.6808 156.494 86.1132 156.349 86.6178 156.061 87.3385 155.916 87.3385 155.916 86.6178 155.844 86.1132 155.121 85.7528 154.254 85.7528 153.097 85.8249 152.953 85.9691 153.748 86.1853 154.543 86.4016 154.832 86.9781 154.616 87.9152 154.417 88.672 154.181 89.0955 153.948 89.2486ZM92.8939 89.2846C90.364 89.2846 90.2193 89.1404 89.7857 86.2574 89.3521 83.5906 89.2076 78.1849 89.4967 74.1486 89.5689 73.572 89.4967 72.0584 89.4967 70.761 89.3521 68.887 89.1353 68.5267 88.1234 68.887 87.1116 69.3195 87.0394 68.887 87.4007 65.8598 87.9066 62.5444 88.7739 61.1749 90.4362 61.1749 90.8698 61.1749 90.653 61.5353 90.0748 61.8957 89.1353 62.4723 89.2076 62.6165 90.2917 62.6165 91.0143 62.6165 91.4481 62.9048 91.159 63.2651 90.5807 64.2022 98.9644 63.9138 99.6147 62.9768 99.9765 62.5444 100.194 62.5444 100.194 63.121 100.194 64.2742 99.3262 64.7066 96.6518 64.9229 95.4227 64.995 94.4116 65.4275 94.4116 65.932 94.4116 66.4365 95.3512 66.6527 97.1574 66.4365 99.5424 66.1482 100.049 66.3644 100.771 67.9501 101.494 69.5358 101.422 69.8241 100.482 69.8241 99.6871 69.8241 99.3986 70.2566 99.6871 71.2656 100.121 72.9954 99.3262 73.0675 96.9412 71.5539 95.2065 70.4007 95.1342 70.4007 95.1342 72.3467 95.1342 74.0045 95.4227 74.2207 96.6518 73.9324 98.3865 73.4279 99.47 75.3739 97.9524 76.3829 97.085 76.9596 97.1574 77.2479 98.1694 77.9686 99.3262 78.9057 99.2539 79.0498 97.8086 80.2751 96.7965 81.1401 96.5795 81.7166 97.1574 81.9329 97.6639 82.077 98.0247 82.7977 98.0247 83.4464 98.0247 84.5996 97.5192 84.6717 94.4116 84.3834 90.8698 84.0951 90.7975 84.0951 90.7975 85.9691 90.7975 87.2664 91.159 87.8431 92.0989 87.8431 92.7492 87.8431 93.8327 88.2035 94.4116 88.5638 95.2065 89.0684 94.8448 89.2846 92.8939 89.2846ZM92.3151 92.3838C91.5204 92.5999 90.5085 92.3114 90.0026 91.7353 89.3521 90.9423 89.4244 90.7261 90.5085 90.7261 91.3035 90.7261 92.3151 91.0144 92.8216 91.3748 93.6166 91.8077 93.4718 92.0238 92.3151 92.3838ZM151.733 98.0055C151.652 97.826 151.579 97.3213 151.507 96.4924 151.363 94.1139 151.363 94.0415 150.712 95.7716L150.134 97.5732 150.279 95.7716C150.424 94.4024 150.784 94.0415 151.869 94.1853 153.748 94.5462 154.181 94.9785 153.169 95.6269 152.736 95.9154 152.231 96.781 152.014 97.5732 151.905 98.0421 151.815 98.1859 151.733 98.0055ZM89.5418 102.006C89.4063 101.88 89.3521 101.501 89.3521 100.816 89.3521 99.4471 89.5689 99.3033 90.2193 99.9518 90.8698 100.6 90.8698 101.033 90.2193 101.682 89.8941 102.006 89.6774 102.132 89.5418 102.006ZM104.873 104.24C104.475 104.24 103.662 104.132 102.506 103.916 101.132 103.628 100.989 103.411 101.711 102.546 102.217 101.898 102.289 101.537 101.784 101.537 101.349 101.537 100.771 101.898 100.554 102.258 100.337 102.691 99.3986 102.979 98.5312 102.979 97.2297 102.979 97.085 102.835 98.0247 102.187 98.8921 101.537 98.8197 101.466 97.5192 101.753 96.5795 101.97 95.8568 101.826 95.8568 101.466 95.8568 101.105 96.7242 100.745 97.88 100.745L99.8318 100.673 97.6639 100.168C95.7121 99.7356 95.495 99.5195 95.7121 97.2132 95.8568 95.8431 96.3624 94.4024 96.8689 93.9692 97.3745 93.6092 97.9524 92.7446 98.2418 92.1676 98.5312 91.3748 98.7474 91.4468 99.1091 92.7446 99.3986 93.6092 99.9765 94.33 100.337 94.33 100.844 94.33 100.916 95.4831 100.627 97.2132 100.194 99.808 100.337 100.168 102 100.961 103.012 101.393 103.807 102.187 103.807 102.691 103.807 103.195 104.241 103.772 104.746 103.916 105.252 104.132 105.27 104.24 104.873 104.24ZM153.405 104.763C153.08 104.767 152.809 104.709 152.664 104.565 151.724 103.7 152.302 102.979 154.037 102.979 155.049 102.979 155.844 103.267 155.844 103.628 155.844 104.169 154.38 104.749 153.405 104.763ZM151.011 114.313C150.875 114.259 150.712 113.899 150.496 113.214 150.207 112.277 150.062 111.34 150.279 111.195 150.784 110.691 152.953 111.7 152.953 112.493 152.953 112.854 152.664 112.998 152.302 112.709 151.941 112.493 151.507 112.925 151.363 113.574 151.254 114.115 151.146 114.367 151.011 114.313ZM150.893 118.8C150.55 118.781 150.134 118.619 149.846 118.331 149.556 118.115 149.339 117.394 149.339 116.889 149.339 116.025 149.556 116.025 150.424 116.962 151.002 117.539 151.507 118.187 151.507 118.403 151.507 118.692 151.237 118.818 150.893 118.8ZM94.9739 122.894C94.6231 122.89 94.3392 122.818 94.1945 122.656 93.3271 121.791 93.6889 121.142 95.2789 120.782 96.7965 120.349 96.7965 120.277 95.6398 118.98 94.9895 118.259 94.4116 116.818 94.4116 115.736 94.4116 114.295 94.1221 113.935 93.1824 114.295 92.1704 114.728 92.0989 114.367 92.5322 111.556 92.8216 109.826 93.4718 107.52 93.9774 106.439 94.8448 104.709 94.8448 104.42 93.7604 104.132 93.1101 103.916 93.9051 103.916 95.495 104.132 99.6871 104.709 105.108 107.231 103.879 107.952 103.084 108.457 103.156 108.818 104.385 109.538 106.409 110.763 105.758 114.078 103.012 117.034 101.856 118.259 100.916 119.629 100.916 120.133 100.916 120.638 100.265 120.998 99.5424 120.998 98.7474 120.998 98.0247 121.286 97.88 121.646 97.6639 122.296 96.0235 122.904 94.9739 122.894ZM88.1506 128.89C88.0873 128.656 88.0512 128.169 88.0512 127.485 88.0512 126.115 88.1957 125.539 88.4126 126.26 88.557 126.908 88.557 128.061 88.4126 128.782 88.3041 129.106 88.2138 129.125 88.1506 128.89ZM140.178 129.494C139.023 129.521 136.764 129.179 132.355 128.494 128.813 127.917 124.477 127.557 122.743 127.629 119.129 127.917 119.49 128.494 117.9 117.755 117.25 113.43 116.093 107.952 115.371 105.646 114.576 103.34 113.781 100.313 113.491 98.9424 113.203 97.5008 112.624 96.2039 112.118 96.0602 110.528 95.4108 110.094 92.8884 109.878 82.7977 109.589 72.2026 109.299 67.878 108.649 66.2202 108.432 65.6437 108.071 62.2561 107.854 58.6523 107.637 55.1206 107.276 51.4447 106.987 50.6518 106.77 49.7869 106.914 47.9129 107.348 46.3994 107.999 44.0929 107.854 43.3722 106.698 41.6423 104.891 39.1918 104.746 34.1465 106.409 33.4979 108.143 32.8491 108.216 32.9212 107.276 34.5068 106.77 35.2276 106.553 36.0925 106.77 36.3088 107.493 36.9575 112.696 37.0295 114.503 36.3808 116.021 35.8763 116.166 35.9484 115.732 37.3178 115.298 38.6873 115.588 38.8314 118.406 38.8314 120.358 38.8314 121.153 39.0477 120.574 39.4801 118.695 40.6334 121.875 41.0658 124.043 39.9126 125.2 39.3359 126.718 38.8314 127.44 38.9034 128.235 38.9034 128.38 39.1197 127.802 39.3359 127.368 39.4801 127.079 39.9846 127.296 40.273 127.513 40.6334 128.163 40.7774 128.741 40.4891 129.392 40.273 130.259 40.4891 130.765 40.8495 132.355 42.147 139.293 41.7866 141.967 40.2009 143.269 39.4801 144.497 38.8314 144.714 38.8314 145.581 38.8314 144.786 40.417 142.835 42.5793 141.462 44.0929 140.739 45.4624 141.027 46.1832 141.245 46.9039 141.606 48.1292 141.822 48.9221 142.112 49.7869 141.967 50.3636 141.462 50.3636 140.16 50.3636 140.594 53.6791 142.545 58.5803 144.425 63.2651 144.425 63.3372 143.63 73.572 142.835 83.7347 143.124 86.5456 145.22 89.8612 146.376 91.663 146.521 97.0685 145.509 99.5195 143.991 103.051 141.389 121.503 141.389 128.277 141.389 129.071 141.335 129.467 140.178 129.494ZM184.681 136.855C184.32 136.855 184.03 136.566 184.03 136.134 184.03 135.774 184.392 135.413 184.825 135.413 185.187 135.413 185.332 135.125 185.115 134.692 184.825 134.26 186.127 133.971 188.512 133.971 191.258 133.971 192.053 134.188 191.258 134.692 190.68 135.053 189.307 135.413 188.222 135.413 187.139 135.413 186.054 135.774 185.837 136.134 185.62 136.566 185.115 136.855 184.681 136.855ZM190.897 137.503C189.812 137.503 189.957 137.287 191.619 136.566 193.932 135.557 195.161 135.774 193.426 136.855 192.848 137.287 191.692 137.576 190.897 137.503ZM183.868 139.252C183.398 139.287 183.055 139.233 182.947 139.089 182.657 138.512 186.994 137.432 187.5 137.935 187.644 138.008 186.705 138.44 185.549 138.872 184.934 139.089 184.338 139.215 183.868 139.252ZM259.629 140.459C259.051 140.459 258.328 140.17 258.111 139.738 257.895 139.377 258.183 139.017 258.762 139.017 259.34 139.017 260.063 139.377 260.28 139.738 260.496 140.17 260.207 140.459 259.629 140.459ZM185.187 141.828C184.175 141.828 184.03 141.684 184.754 141.396 185.332 141.18 186.488 140.675 187.283 140.243 188.584 139.593 188.656 139.593 187.717 140.675 187.21 141.396 186.054 141.9 185.187 141.828ZM188.285 149.694C187.752 149.486 186.957 148.819 185.837 147.666 184.247 146.008 184.03 145.503 184.97 145.503 185.62 145.503 186.199 146.008 186.199 146.585 186.199 147.161 186.705 147.666 187.283 147.666 187.861 147.666 188.367 147.161 188.367 146.585 188.367 146.008 189.017 145.503 189.812 145.503 190.607 145.503 191.258 145.864 191.258 146.224 191.258 146.657 190.752 146.945 190.174 146.945 189.596 146.945 189.162 147.161 189.162 147.522 189.234 147.811 189.234 148.459 189.162 148.964 189.09 149.648 188.819 149.901 188.285 149.694ZM259.268 153.432C257.895 153.432 258.4 151.414 260.135 150.044 261.58 148.964 261.797 148.171 261.725 145.143 261.58 142.765 261.725 142.044 262.158 142.981 263.604 146.585 262.303 151.991 259.99 151.991 259.485 151.991 259.34 152.351 259.556 152.711 259.773 153.144 259.629 153.432 259.268 153.432ZM68.2482 165.279C67.7784 165.199 67.128 164.388 66.5136 162.874 65.7186 160.928 64.779 159.775 63.3336 159.27 59.7199 158.045 54.2271 160.352 53.0707 163.595 52.8539 164.171 52.4202 164.388 52.1311 164.1 51.1916 163.163 53.5043 159.27 55.817 158.045 57.6963 157.036 58.5635 156.964 61.599 157.685 65.7909 158.694 68.7541 161 68.8987 163.306 69.007 164.712 68.7181 165.361 68.2482 165.279ZM55.2028 165.64C54.8413 165.631 54.6606 165.397 54.6606 164.964 54.6606 164.027 56.6843 163.163 57.4071 163.811 57.624 164.1 57.4071 164.604 56.8289 164.964 56.1062 165.433 55.5642 165.649 55.2028 165.64ZM71.4102 171.406C71.0488 171.343 70.561 171.019 70.0551 170.442 69.549 169.865 68.8263 169.289 68.3204 169.144 67.8145 169.001 67.5977 168.424 67.7423 167.92 67.9591 167.27 68.6095 167.487 70.0551 168.568 71.1391 169.433 72.0064 170.442 72.0064 170.802 72.0064 171.271 71.7715 171.469 71.4102 171.406ZM213.464 173.226C213.247 173.307 212.832 172.496 212.362 170.731 212.001 169.144 211.928 167.847 212.29 167.847 212.578 167.847 213.085 169.001 213.373 170.37 213.699 172.172 213.681 173.145 213.464 173.226ZM215.551 176.92C215.416 177.019 215.072 176.641 214.53 175.775 214.096 175.055 213.952 174.262 214.313 174.046 214.675 173.83 215.108 174.334 215.325 175.199 215.615 176.244 215.687 176.821 215.551 176.92ZM20.918 179.983C20.7825 179.992 20.6198 179.812 20.403 179.452 20.0416 178.875 20.1862 178.226 20.7644 177.866 21.993 177.073 23.583 177.001 22.4266 177.794 21.993 178.082 21.4871 178.803 21.2703 179.379 21.1619 179.776 21.0534 179.974 20.918 179.983ZM212.362 181.587C212.145 181.326 211.82 180.424 211.278 178.731 210.555 176.641 210.121 174.695 210.338 174.478 210.555 174.262 210.772 174.622 210.772 175.271 210.772 175.848 211.278 176.929 211.928 177.505 212.506 178.154 212.94 179.523 212.796 180.605 212.687 181.469 212.578 181.848 212.362 181.587ZM3.05729 183.704C1.9009 183.704 1.17819 182.983 1.17819 181.758 1.17819 180.244 3.12956 180.677 3.56323 182.263 3.78 183.127 3.56323 183.704 3.05729 183.704ZM216.482 189.47C216.193 189.47 215.903 187.741 215.976 185.722 216.048 183.632 215.831 181.182 215.542 180.316 215.253 179.307 215.325 178.659 215.758 178.659 216.843 178.659 217.277 180.677 217.205 185.362 217.132 187.596 216.843 189.47 216.482 189.47ZM10.8629 191.606C10.7544 191.615 10.6099 191.308 10.357 190.695 9.56196 188.605 9.70649 187.596 10.646 188.533 11.0797 188.966 11.2965 189.903 11.1519 190.624 11.0436 191.272 10.9713 191.596 10.8629 191.606ZM8.90696 192.397C8.50043 192.813 7.64669 191.434 7.32143 189.326 7.1046 187.596 6.74328 185.29 6.52644 184.064 6.23733 182.335 6.30961 182.119 6.96004 183.127 7.39372 183.848 7.75511 185.506 7.82739 186.947 7.8996 188.389 8.18871 189.687 8.5501 189.903 8.83922 190.119 9.12826 190.768 9.12826 191.345 9.12826 191.921 9.04244 192.259 8.90696 192.397ZM216.77 197.867C216.712 197.849 216.662 197.65 216.626 197.255 216.626 196.534 216.337 195.957 215.976 195.957 215.686 195.957 215.47 194.659 215.47 193.146 215.47 191.561 215.686 190.624 215.903 191.056 216.193 191.488 216.698 191.632 217.06 191.416 217.421 191.2 217.565 192.209 217.421 193.651 217.205 196.354 216.947 197.922 216.77 197.867ZM222.842 200.282C221.758 200.282 221.324 197.831 221.18 191.416 221.107 187.092 220.673 183.343 220.023 181.686 218.505 178.082 217.493 174.478 216.843 171.307 216.626 169.794 216.12 168.568 215.831 168.568 215.542 168.568 215.108 167.199 214.82 165.541 214.53 163.883 213.952 162.226 213.446 161.937 212.506 161.36 212.29 155.522 213.157 152.495 213.591 150.91 213.518 150.477 212.796 150.693 211.639 151.126 210.049 147.666 210.772 146.224 212.001 143.702 212.29 141.035 211.35 141.323 210.844 141.539 210.194 142.621 209.977 143.774 209.543 145.721 209.471 145.721 209.399 143.197 209.399 141.684 209.038 140.459 208.604 140.459 208.243 140.459 207.881 139.954 207.881 139.306 207.881 138.656 207.231 137.215 206.436 136.134L204.99 134.116 209.471 134.476C212.001 134.62 216.337 135.125 219.083 135.485 221.902 135.845 230.358 136.35 237.874 136.639 245.608 136.927 250.667 137.359 249.438 137.648 248.282 137.935 247.848 138.152 248.499 138.224 249.149 138.224 249.799 138.656 249.944 139.161 250.089 139.593 251.245 139.954 252.546 139.954 254.498 139.954 254.859 140.243 254.859 141.612 254.859 142.765 254.353 143.342 253.269 143.486 251.101 143.774 250.956 146.008 253.124 146.513 255.51 147.161 256.015 146.729 256.593 143.918 257.099 141.684 257.171 141.612 258.111 142.909 258.69 143.702 259.195 143.918 259.195 143.413 259.195 142.909 259.556 142.765 259.99 142.981 260.496 143.342 260.207 143.99 259.268 144.855 258.473 145.648 257.967 146.729 258.183 147.306 258.545 148.098 258.111 148.387 256.738 148.387 254.859 148.387 254.859 148.459 256.015 150.189 257.099 151.847 257.099 151.991 256.015 151.991 255.365 151.991 254.859 152.351 254.859 152.784 254.859 153.216 255.51 153.432 256.304 153.216 258.039 152.784 258.111 153 256.593 154.513 255.581 155.45 255.22 155.522 254.786 154.729 254.281 154.008 253.991 154.008 253.269 154.729 252.546 155.45 252.691 155.738 253.991 156.027 254.859 156.315 255.365 156.748 255.22 157.108 255.003 157.396 253.991 157.396 253.052 157.036 251.896 156.603 251.245 156.603 251.245 157.036 251.245 157.469 251.679 157.757 252.185 157.757 252.763 157.757 252.691 158.045 251.968 158.478 251.101 159.054 251.101 159.198 251.896 159.198 252.691 159.198 252.691 159.415 251.968 160.279 251.462 160.856 250.016 161.36 248.716 161.36 244.813 161.36 244.018 161.937 244.813 164.027 245.753 166.478 245.102 168.207 242.5 170.01 241.344 170.874 240.404 172.028 240.404 172.605 240.404 174.118 237.079 177.289 235.924 176.857 235.417 176.641 234.477 176.785 233.899 177.217 233.032 177.722 233.032 178.082 233.755 178.803 235.272 180.316 234.767 182.623 232.454 183.92 231.297 184.641 230.286 185.722 230.286 186.299 230.286 186.875 229.997 187.308 229.563 187.308 229.202 187.308 228.84 187.884 228.84 188.605 228.84 189.326 228.045 190.407 227.034 190.911 226.022 191.416 225.227 192.281 225.227 192.858 225.227 193.362 224.793 193.795 224.215 193.795 223.13 193.795 222.119 197.471 222.77 199.2 223.058 199.777 223.058 200.282 222.842 200.282ZM109.227 211.093C108.649 211.093 108.143 210.588 108.143 210.012 108.143 209.435 107.854 208.93 107.421 208.93 107.059 208.93 106.698 208.571 106.698 208.21 106.698 207.777 107.493 207.994 108.504 208.642 109.516 209.291 110.311 210.084 110.311 210.444 110.311 210.804 109.806 211.093 109.227 211.093ZM216.553 214.697C216.193 214.697 215.831 213.544 215.831 212.174 215.831 210.733 215.47 209.651 214.963 209.651 214.53 209.651 214.386 209.435 214.675 209.147 215.47 208.354 217.277 211.093 217.277 213.039 217.277 213.976 216.988 214.697 216.553 214.697ZM18.6594 221.995C18.4517 221.85 18.1987 221.544 17.9456 221.112 16.7893 219.309 17.223 218.517 18.5238 220.03 18.9575 220.68 19.2467 221.472 19.102 221.904 19.0298 222.12 18.8672 222.139 18.6594 221.995ZM216.626 222.625C215.686 222.625 215.686 222.481 216.482 221.976 217.132 221.544 217.205 221.256 216.626 220.823 216.12 220.535 215.398 220.68 214.891 221.039 214.386 221.399 210.121 221.904 205.279 222.049L196.534 222.409 197.112 220.535C199.497 212.678 199.497 212.823 197.835 207.705 196.968 205.039 195.594 201.363 194.727 199.705 193.499 197.11 193.354 195.741 193.715 192.281 194.077 188.821 193.932 187.884 193.065 187.596 192.487 187.308 191.981 186.299 191.981 185.217 192.053 183.272 193.932 174.983 195.956 167.847 197.329 163.018 197.184 158.694 195.594 159.054 192.342 159.847 191.258 159.847 191.258 159.27 191.258 158.838 191.836 158.189 192.559 157.757 193.354 157.252 193.426 157.036 192.704 157.252 191.547 157.54 189.812 156.171 189.812 154.945 189.812 154.513 189.307 154.153 188.729 154.153 187.21 154.153 187.355 153.505 189.307 151.991 190.174 151.27 191.547 149.468 192.342 148.027 193.571 145.721 193.571 145.216 192.704 144.495 192.126 144.063 191.547 142.765 191.475 141.539 191.402 139.882 191.547 139.666 192.053 140.675 192.487 141.323 192.559 142.26 192.342 142.621 192.126 143.053 192.342 143.342 192.92 143.342 193.499 143.342 194.511 143.99 195.233 144.783 195.956 145.576 196.896 146.153 197.329 146.008 198.196 145.721 199.931 148.675 199.931 150.405 199.931 151.198 200.364 150.981 201.593 149.684L203.256 147.882 204.123 151.486C204.556 153.505 205.424 155.666 206.074 156.243 206.653 156.964 206.941 158.117 206.653 159.054 206.436 159.991 206.58 160.639 207.086 160.639 207.591 160.639 207.736 161.433 207.519 162.658 207.231 164.243 207.448 164.027 208.604 161.721L210.121 158.838 209.616 162.081C209.399 163.883 208.893 165.613 208.531 165.974 207.664 166.91 207.736 168.568 208.604 168.568 209.038 168.568 209.326 167.991 209.326 167.343 209.326 165.397 210.555 167.199 211.061 169.865 211.35 171.595 211.206 172.316 210.411 172.605 209.688 172.893 209.326 174.118 209.326 176.28 209.326 178.01 209.616 179.307 209.977 179.091 210.555 178.731 210.916 181.109 211.928 193.651 212.145 196.101 212.651 198.119 213.013 198.119 213.373 198.119 213.663 198.624 213.663 199.272 213.663 199.849 213.373 200.137 212.94 199.921 211.928 199.272 212.073 200.066 213.301 201.94 214.241 203.381 214.241 203.813 213.301 205.543 212.723 206.624 212.435 207.994 212.723 208.571 212.94 209.147 212.723 209.651 212.29 209.651 211.423 209.651 209.905 207.129 210.483 206.552 210.7 206.336 210.555 205.543 210.121 204.823 209.688 204.102 209.326 203.957 209.326 204.462 209.326 205.471 206.436 205.687 206.436 204.606 206.436 204.102 205.858 204.173 204.846 204.678 203.906 205.183 203.111 205.471 202.966 205.399 202.822 205.255 202.605 205.326 202.461 205.471 202.388 205.615 202.894 206.336 203.617 207.057 204.412 207.85 204.99 208.066 204.99 207.634 204.99 207.129 205.351 206.768 205.713 206.768 206.146 206.768 206.436 207.273 206.436 207.85 206.436 208.426 206.869 208.93 207.375 208.93 207.953 208.93 209.11 209.724 209.977 210.661 211.35 212.102 211.495 212.823 211.061 216.066 210.7 218.949 210.772 219.742 211.567 219.814 212.145 219.886 211.783 220.175 210.772 220.462L208.965 221.039 210.916 221.112 212.868 221.183 212.578 216.355C212.29 211.886 212.362 211.67 213.085 213.976 213.808 216.066 213.952 216.21 214.168 214.913 214.458 213.471 214.53 213.399 215.758 214.552 216.482 215.202 216.915 216.21 216.698 216.715 216.553 217.147 216.698 217.58 217.06 217.58 217.421 217.58 217.783 218.733 217.783 220.102 217.783 221.904 217.421 222.625 216.626 222.625ZM20.2584 226.201C20.15 226.193 20.0055 225.869 19.7525 225.22 19.1743 223.85 19.608 222.77 20.403 223.562 20.6197 223.778 20.692 224.571 20.5476 225.292 20.4391 225.905 20.3669 226.211 20.2584 226.201ZM36.0051 229.075C35.6167 229.004 35.1106 228.607 34.8577 227.959 34.5686 227.238 34.7854 226.95 35.2914 227.093 35.725 227.238 36.3032 227.814 36.4478 228.247 36.6646 228.896 36.3935 229.148 36.0051 229.075ZM49.0708 230.229C47.998 230.265 47.0539 230.211 46.3492 230.049 45.5542 229.904 43.8196 229.401 42.5187 228.967 40.0614 228.247 40.0614 228.175 40.5673 225.003 40.8564 223.057 40.7841 221.544 40.3505 221.256 38.905 220.391 37.3874 209.724 36.9537 197.471 36.4478 185.001 36.52 184.785 38.4714 178.731 39.6278 175.343 40.7841 172.46 41.0733 172.316 41.4347 172.172 41.6515 171.235 41.6515 170.298 41.6515 169.36 42.0128 168.568 42.4465 168.568 42.8079 168.568 43.0247 168.28 42.8079 167.92 42.2297 166.983 46.1324 166.262 49.0234 166.694 56.6843 167.991 62.0326 169.289 62.9 169.938 63.7672 170.658 70.1996 172.46 70.9946 172.172 71.2837 172.1 71.7173 172.316 71.9341 172.677 72.151 173.037 73.4519 174.046 74.7527 174.983 75.9814 175.848 77.0655 176.929 77.0655 177.289 77.0655 179.091 84.1484 187.308 86.678 188.461 88.1234 189.182 89.3521 190.119 89.3521 190.551 89.3521 190.984 90.1471 192.137 91.159 193.074L93.0377 194.804 91.3757 196.173C90.2193 197.11 90.0748 197.399 91.0143 197.11 91.8819 196.822 92.2427 197.11 92.2427 197.976 92.3151 199.561 94.4116 202.516 94.4116 200.93 94.4116 200.353 94.0498 199.489 93.5442 198.984 92.3874 197.831 93.3995 196.966 94.6277 197.976 95.2065 198.479 95.8568 198.624 96.0739 198.408 96.29 198.119 97.085 198.192 97.8086 198.408 98.8921 198.84 98.8921 198.984 98.0247 199.561 97.3021 199.993 97.9524 200.066 99.7594 199.777 102 199.416 102.506 199.561 102.217 200.353 102 200.93 101.494 201.29 101.061 201.219 100.049 201.003 99.3262 203.02 100.194 203.525 101.422 204.246 101.061 206.984 99.8318 206.48 99.2539 206.263 98.7474 206.408 98.7474 206.697 98.7474 207.057 99.2539 207.561 99.9041 207.777 100.482 207.994 100.844 208.498 100.554 208.93 100.265 209.363 100.916 209.435 102.289 209.219 103.879 208.858 104.819 209.147 106.047 210.3 107.854 211.958 107.059 212.246 103.517 211.093 102.289 210.733 100.337 210.228 99.1091 209.94 97.2297 209.579 97.1574 209.435 98.3865 208.93 99.6147 208.498 99.6147 208.426 97.8086 207.921 96.6518 207.634 95.8568 206.913 95.7845 206.192 95.7845 205.326 95.6398 205.255 95.3512 205.903 95.1342 206.48 95.4227 207.705 95.9292 208.714 96.7242 210.156 96.7242 210.588 95.8568 211.093 93.9774 212.246 96.0015 213.399 98.3141 212.535 101.566 211.309 102.939 211.741 100.194 213.183 94.8448 215.922 94.0498 216.498 94.1221 217.58 94.1945 218.156 94.2668 219.238 94.3392 219.959 94.3392 220.607 94.7724 221.183 95.2065 221.183 95.5674 221.183 95.7845 220.896 95.5674 220.535 95.1342 219.886 99.47 221.039 103.084 222.481 104.674 223.202 104.746 223.273 103.374 223.273 102.579 223.346 101.639 223.13 101.349 222.841 100.771 222.265 98.4589 221.904 95.1342 221.904 92.5322 221.904 91.3757 220.967 91.3035 218.733 91.2312 217.724 90.9421 216.859 90.7253 216.859 89.7857 216.859 86.4611 209.724 86.8948 208.642 87.1839 207.921 86.967 207.489 86.2444 207.489 85.5938 207.489 84.7989 207.057 84.5097 206.624 83.9316 205.615 79.0169 203.165 77.716 203.165 77.2823 203.165 74.5361 202.227 71.6451 201.074 68.7541 199.849 65.7186 198.84 64.9959 198.695 64.2731 198.552 63.5503 198.263 63.3336 198.047 63.1167 197.758 61.3099 196.534 59.214 195.309 57.1903 194.083 55.3112 192.498 55.0943 191.921 54.8775 191.272 54.2271 190.911 53.6489 191.127 53.0707 191.345 51.9144 190.84 51.047 190.047 49.963 189.037 49.2401 188.821 48.7343 189.326 48.1561 189.903 48.5174 190.624 49.963 191.777 51.047 192.714 53.143 194.443 54.5884 195.597 57.624 198.192 61.093 199.921 63.4781 200.209 64.0564 200.282 64.1285 200.498 63.5503 201.074 63.0444 201.579 63.0444 202.876 63.4781 205.183 63.8395 207.057 63.984 211.741 63.7672 215.634 63.4781 219.742 63.6227 223.273 64.0564 223.994 64.5622 225.003 64.49 225.58 63.695 226.229 63.1167 226.734 62.6108 226.95 62.6108 226.734 62.6108 226.445 61.093 227.022 59.214 227.959 56.6663 229.202 52.2892 230.121 49.0708 230.229ZM211.666 231.536C211.44 231.562 211.097 231.383 210.555 230.986 209.399 230.049 209.399 229.977 210.483 229.544 211.133 229.256 211.856 229.256 212.001 229.401 212.218 229.544 212.218 230.193 212.073 230.842 212.001 231.275 211.892 231.508 211.666 231.536ZM74.825 231.634C73.8132 232.644 70.5609 224.86 70.5609 221.472 70.5609 220.535 70.2719 219.598 69.8382 219.382 69.4768 219.166 69.0432 217.435 69.0432 215.562 68.9709 213.688 68.8263 212.751 68.6095 213.471 67.9591 216.066 67.0918 214.481 66.6581 209.651 66.369 206.913 65.8631 204.606 65.4295 204.606 65.0682 204.606 64.779 203.741 64.779 202.732 64.779 201.219 65.0682 200.93 66.08 201.363 66.7304 201.651 67.8145 201.94 68.3927 202.083 70.4886 202.588 78.8724 205.615 81.2574 206.697 84.7266 208.354 87.1116 211.814 84.7266 211.814 84.1484 211.814 83.4979 212.967 83.2088 214.552 82.7029 217.508 80.607 222.986 78.4387 227.022 77.716 228.464 77.0655 230.193 77.0655 230.842 77.0655 231.562 76.7042 231.851 76.3428 231.634 75.9091 231.346 75.7646 230.842 76.0537 230.481 76.2706 230.121 76.0537 229.328 75.6201 228.751 75.1142 228.175 74.9696 227.166 75.1864 226.517 75.4756 225.797 75.2587 225.508 74.7527 225.652 73.5964 226.085 73.3796 230.049 74.4637 230.697 74.8974 230.986 75.0419 231.418 74.825 231.634ZM197.916 234.149C197.528 234.175 196.931 233.869 196.389 233.22 195.377 231.995 196.101 231.275 198.269 231.275 199.353 231.275 199.859 230.986 199.569 230.481 199.281 230.049 198.63 229.904 198.052 230.121 197.546 230.338 196.896 230.193 196.679 229.761 196.389 229.401 196.751 228.896 197.329 228.68 197.979 228.464 198.486 227.67 198.486 227.022 198.486 225.076 199.425 224.283 202.388 223.778 204.99 223.273 205.134 223.346 204.339 224.355 203.761 225.003 202.894 225.508 202.388 225.508 201.015 225.508 201.087 226.661 202.461 227.238 203.689 227.67 205.713 225.869 205.713 224.355 205.713 223.202 206.869 222.986 207.519 224.066 208.315 225.292 205.641 228.391 203.834 228.391 202.533 228.391 202.099 228.824 202.099 229.904 202.099 231.202 202.388 231.346 203.761 230.914 207.375 229.833 208.604 229.688 208.604 230.481 208.604 230.914 209.11 231.275 209.688 231.275 210.266 231.275 210.772 231.562 210.772 231.851 210.772 233.148 209.833 233.292 208.17 232.211 206.508 231.202 206.436 231.202 206.436 232.644 206.436 234.374 204.629 234.734 203.978 233.076 203.472 231.634 202.099 231.707 202.099 233.148 202.099 234.229 201.954 234.229 200.292 233.148 198.124 231.707 197.691 231.707 198.196 233.076 198.486 233.761 198.304 234.121 197.916 234.149ZM200.726 237.04C199.859 237.04 198.919 235.598 199.425 235.095 199.931 234.59 201.376 235.527 201.376 236.392 201.376 236.752 201.087 237.04 200.726 237.04ZM47.1624 238.96C46.9636 239.184 46.6022 238.951 46.277 238.049 45.9879 237.329 45.6265 236.464 45.482 236.175 45.3374 235.815 45.482 235.598 45.9157 235.598 46.277 235.598 46.8552 236.248 47.0721 237.112 47.3973 238.049 47.3611 238.734 47.1624 238.96ZM27.8472 240.284C27.4135 240.716 24.3057 235.095 24.3057 233.941 24.3057 233.365 23.7998 232.716 23.2217 232.428 22.6435 232.211 22.1376 231.562 22.1376 230.914 22.1376 230.338 21.6316 229.833 21.0534 229.833 20.1139 229.833 20.1139 229.617 20.7644 228.896 21.5594 228.103 21.9207 228.175 22.9326 229.184 23.9443 230.193 25.1007 232.499 25.3899 234.157 25.3899 234.374 26.0403 235.743 26.7631 237.256 27.4858 238.77 27.9917 240.139 27.8472 240.284ZM33.5568 241.292C30.3044 241.221 30.0154 241.149 31.8945 240.644 35.0746 239.851 37.315 239.851 37.315 240.644 37.315 241.076 35.6527 241.292 33.5568 241.292ZM33.7736 250.014C32.7618 250.014 32.1113 248.717 32.834 248.284 33.5568 247.852 34.424 248.501 34.424 249.437 34.424 249.726 34.135 250.014 33.7736 250.014ZM205.289 250.227C204.683 250.717 204.412 249.473 204.629 246.77L204.846 243.887 203.834 246.266C202.966 248.212 202.605 248.428 201.81 247.707 201.232 247.203 201.087 246.698 201.449 246.554 201.81 246.41 202.099 245.329 202.099 244.176 202.099 242.806 201.81 242.158 201.376 242.446 200.509 242.95 198.486 241.581 198.486 240.5 198.486 240.139 198.991 240.139 199.786 240.5 201.738 241.509 205.568 242.302 204.268 241.365 203.544 240.933 203.472 240.644 204.051 240.644 204.99 240.644 204.99 238.193 204.051 237.329 203.761 237.04 203.544 236.319 203.544 235.815 203.544 234.95 203.761 235.022 204.701 235.887 205.93 237.185 207.158 236.824 207.158 235.166 207.158 234.59 207.881 234.157 208.821 234.157 210.266 234.157 210.483 234.518 210.338 236.319 210.266 237.545 210.483 238.554 210.844 238.554 211.206 238.626 211.856 238.698 212.362 238.77 213.735 238.914 213.808 240.428 212.506 241.725 211.567 242.663 211.423 243.239 212.001 244.176 212.94 245.69 211.711 246.915 208.893 247.275 207.591 247.419 206.508 248.14 206.001 249.149 205.731 249.708 205.491 250.064 205.289 250.227ZM197.311 254.05C197.221 254.104 197.184 253.834 197.184 253.258 197.184 252.464 197.401 251.168 197.762 250.374 198.124 249.51 198.341 249.365 198.341 250.014 198.341 250.591 198.052 251.887 197.762 252.897 197.546 253.618 197.401 253.996 197.311 254.05ZM59.7142 256.368C59.4625 256.379 59.1056 256.374 58.6358 256.357 56.2507 256.357 51.7697 255.203 51.7697 254.699 51.7697 254.482 52.637 254.482 53.7934 254.699 55.0943 254.915 54.8775 254.699 53.143 254.122 51.6975 253.69 49.963 252.825 49.3124 252.248 48.3729 251.455 48.1561 251.455 48.1561 252.248 48.1561 253.474 44.0364 248.717 43.4583 246.77 43.1692 245.977 42.5187 244.248 41.9405 243.023 40.7841 240.428 39.4833 231.707 40.1337 230.625 40.8564 229.544 44.4701 230.554 44.0364 231.707 43.8196 232.283 44.1087 232.716 44.8315 232.716 45.482 232.716 45.9879 233.076 45.9879 233.436 45.9879 234.374 44.8315 234.374 43.0247 233.436 42.2297 233.004 41.6515 232.932 41.6515 233.365 41.6515 233.725 42.1573 234.157 42.7356 234.445 43.3137 234.661 43.8196 235.527 43.8196 236.392 43.8196 237.185 44.6146 238.842 45.6265 240.067 46.6384 241.221 47.4334 242.734 47.4334 243.383 47.4334 244.464 47.5779 244.464 48.1561 243.527 48.5897 242.95 48.8066 241.509 48.7343 240.284 48.662 239.13 49.0234 237.329 49.5293 236.392 50.3965 234.806 50.3965 234.661 48.9511 235.095 47.9393 235.311 47.4334 235.095 47.4334 234.445 47.4334 232.788 51.5529 233.148 52.4925 234.878 52.9261 235.671 53.938 236.319 54.6606 236.319 55.4557 236.319 56.1062 236.68 56.1062 237.04 56.1062 237.472 56.9012 237.761 57.9131 237.761 60.009 237.761 59.9367 237.761 58.9971 240.356 58.419 241.725 58.419 242.446 58.9971 242.806 59.503 243.095 59.0694 244.464 57.9131 246.698 55.7448 250.807 55.7448 250.879 57.6963 252.105 59.0694 252.969 59.3585 252.897 60.1535 251.887 60.7317 251.095 61.1654 250.951 61.5267 251.384 62.3217 252.681 61.1654 253.618 58.7803 253.69 56.8289 253.69 56.6843 253.834 57.9131 254.338 58.708 254.699 59.0694 254.987 58.6358 255.059 58.2744 255.132 58.5635 255.42 59.3585 255.78 60.2801 256.158 60.4698 256.334 59.7142 256.368ZM158.256 268.718C158.193 268.483 158.156 267.997 158.156 267.312 158.156 265.943 158.301 265.366 158.518 266.086 158.663 266.736 158.663 267.889 158.518 268.61 158.409 268.934 158.319 268.952 158.256 268.718ZM161.319 285.962C160.632 285.998 160.036 285.62 159.386 284.826 158.446 283.746 158.518 283.673 160.036 284.034 160.976 284.322 161.626 284.178 161.626 283.601 161.626 283.169 160.903 282.448 160.036 282.088 159.024 281.656 158.301 280.646 158.229 279.565 158.156 277.979 158.156 277.979 158.518 279.421 159.024 281.727 159.674 281.367 160.686 278.34 161.336 276.249 161.336 275.528 160.686 275.096 160.036 274.664 160.036 274.159 160.831 272.934 161.336 272.069 161.553 271.276 161.12 271.132 160.758 270.988 160.614 268.754 160.758 266.159 160.976 263.204 160.758 261.113 160.253 260.609 159.386 259.744 159.168 257.005 159.963 256.285 160.181 255.996 160.325 253.834 160.253 251.455 160.181 248.717 160.398 247.131 160.831 247.131 161.264 247.131 161.626 246.843 161.626 246.41 161.626 246.05 161.12 245.69 160.541 245.69 159.891 245.69 159.458 245.04 159.458 244.103 159.458 242.734 159.602 242.663 160.181 243.527 160.758 244.392 160.903 244.319 160.903 243.023 160.903 242.158 161.193 241.292 161.553 241.076 161.915 240.86 162.059 239.346 161.843 237.761 161.553 235.887 161.698 234.878 162.276 234.878 162.71 234.878 163.071 233.941 163.071 232.716 163.071 230.481 161.771 229.617 161.626 231.851 161.626 232.499 161.409 234.734 161.12 236.68 160.614 240.212 160.614 240.212 160.253 237.761 159.746 234.95 160.831 228.391 161.771 228.391 162.059 228.391 162.348 227.887 162.348 227.31 162.348 226.734 162.638 226.229 162.999 226.229 164.011 226.229 163.578 216.643 162.566 215.778 161.843 215.202 161.843 214.625 162.638 213.111 163.794 210.877 163.866 210.733 163.794 203.165 163.721 200.209 164.011 196.389 164.373 194.731 164.878 192.641 164.806 191.632 164.3 191.416 163.794 191.272 163.361 188.245 163.071 184.137 162.854 180.316 162.348 176.929 161.915 176.641 160.614 175.775 159.963 170.01 161.048 168.712 161.626 168.064 161.626 167.775 161.193 168.064 160.325 168.568 159.746 165.901 159.024 158.91 158.879 157.324 158.446 155.883 158.012 155.738 157.073 155.379 157.073 153.432 158.012 153.432 158.446 153.432 158.446 152.784 158.012 151.702 157.651 150.765 157.289 148.387 157.145 146.44 156.928 143.053 156.928 142.981 159.241 142.765 161.048 142.621 161.698 142.044 162.276 140.386 162.926 138.585 162.783 138.008 161.553 136.782 159.819 135.053 157.145 133.971 154.688 133.971 153.748 133.971 152.953 133.683 152.953 133.395 152.953 133.035 154.399 132.962 156.206 133.251 158.591 133.612 159.313 133.539 158.735 132.962 158.301 132.53 157.579 132.17 157.073 132.098 152.953 131.738 153.169 131.881 154.688 130.728 156.206 129.575 157.579 129.287 157.001 130.224 156.856 130.512 159.53 130.801 162.926 130.872 168.42 130.944 172.683 131.449 181.718 133.035 182.947 133.251 184.03 133.683 184.03 133.971 184.03 134.837 181.212 135.341 180.706 134.62 180.128 133.612 178.972 133.828 179.333 134.908 179.839 136.134 178.972 137.143 176.442 138.585 174.273 139.81 174.273 139.81 176.225 139.449 177.237 139.233 178.61 138.872 179.116 138.656 179.767 138.369 180.2 138.656 180.2 139.306 180.2 139.882 179.911 140.243 179.622 140.098 179.333 139.882 179.116 140.891 179.116 142.26 179.116 144.711 181.212 148.387 182.657 148.387 183.308 148.387 186.199 150.981 186.199 151.558 186.199 151.775 185.404 152.784 184.464 153.792 181.862 156.603 181.645 158.406 183.742 159.27 184.754 159.631 185.837 159.919 186.271 159.919 186.632 159.919 188.15 160.496 189.74 161.144 192.197 162.226 192.559 162.658 192.487 164.676 192.414 165.974 192.27 166.91 192.053 166.766 191.475 166.478 191.402 168.424 190.969 184.28 190.752 192.569 190.824 197.255 191.258 197.038 191.692 196.75 191.981 197.11 191.981 197.758 191.981 198.336 192.27 199.416 192.704 200.137 194.077 202.516 197.04 210.372 197.04 211.453 197.04 212.102 196.534 213.544 195.956 214.697 194.944 216.571 194.511 218.949 194.221 222.841 194.149 223.634 193.571 224.066 192.414 224.066 190.824 224.066 190.752 224.211 191.33 226.806 192.848 233.797 193.499 239.275 193.065 241.221 192.559 243.671 193.282 247.131 194.294 247.131 194.727 247.131 194.872 245.977 194.727 244.608 194.438 241.797 195.233 242.086 195.956 245.113 196.317 246.627 196.101 247.203 194.944 247.852 194.004 248.356 193.426 249.365 193.426 250.518 193.426 251.6 192.92 253.041 192.27 253.69 191.258 254.843 191.186 255.348 191.981 257.149 192.848 259.312 192.414 262.267 191.186 262.267 189.74 262.267 190.68 263.709 192.197 263.78 193.209 263.78 193.426 263.925 192.704 264.213 190.68 265.006 189.09 266.807 189.09 268.537 189.09 269.402 188.801 270.195 188.439 270.195 188.078 270.195 187.427 271.276 186.849 272.574 186.344 273.799 185.765 275.025 185.476 275.241 185.259 275.457 184.464 276.826 183.669 278.34 182.874 279.781 181.79 281.006 181.14 281.006 180.417 281.006 180.345 281.222 180.923 281.583 181.357 281.872 178.899 282.088 175.502 282.088 168.275 282.088 166.179 282.52 163.794 284.61 162.783 285.475 162.005 285.926 161.319 285.962ZM135.245 356.542C132.644 356.542 132.138 356.398 133.439 356.038 134.668 355.677 134.957 355.389 134.307 354.957 133.873 354.668 133.15 354.596 132.788 354.812 131.777 355.461 130.765 353.731 129.03 348.037 128.163 345.082 126.356 340.253 124.983 337.37 123.682 334.559 122.598 331.604 122.598 330.883 122.598 330.234 121.948 329.225 121.08 328.721 120.285 328.217 118.984 326.343 118.261 324.613 117.466 322.811 116.455 321.369 115.949 321.369 115.371 321.369 114.987 320.749 113.708 318.991 113.069 318.112 111.965 316.356 110.893 314.676L110.838 314.592 110.449 313.815C110.092 313.176 109.632 312.48 109.264 312.178 109.263 312.178 109.262 312.178 109.261 312.177L108.278 310.817 108.133 310.647 108.14 310.658 108.866 311.639 109.151 312.132 108.984 312.062 108.882 311.852 108.14 310.658 108.123 310.636 107.928 310.406C107.914 310.386 107.986 310.468 108.099 310.601L108.123 310.636 108.133 310.647 106.981 308.791C105.528 306.512 103.875 303.992 103.084 302.629 101.501 299.904 100.194 297.584 100.194 297.152 100.194 296.719 99.47 295.71 98.6036 294.845 97.6639 293.98 95.6398 290.809 94.0498 287.71 92.4598 284.61 91.0143 281.943 90.7975 281.727 90.4362 281.367 84.2929 269.474 84.2929 269.114 84.2929 268.97 85.3047 268.537 86.4611 268.105 87.6898 267.744 88.8462 266.807 89.063 266.086 89.2798 265.366 90.653 262.411 92.0266 259.6 94.2668 254.915 96.0739 248.068 98.8921 234.013 99.3986 231.707 99.9765 229.833 100.265 229.833 100.627 229.833 101.061 228.68 101.349 227.31 101.784 224.787 102.579 224.139 103.446 225.508 104.674 227.454 108.216 225.292 111.54 220.68 112.841 218.877 113.058 217.652 112.913 213.615 112.769 209.075 112.696 208.714 110.673 207.705 107.926 206.263 105.975 204.246 105.975 202.804 105.975 202.156 105.469 200.858 104.819 199.921 104.169 198.913 103.879 198.119 104.096 198.119 104.602 198.119 102.434 193.651 101.639 193.074 101.349 192.858 100.265 191.2 99.1815 189.254 98.0247 187.38 96.7965 185.65 96.29 185.29 95.7845 185.001 93.9051 182.479 92.0266 179.668 88.268 174.046 82.6307 169.073 76.1983 165.685 73.8855 164.46 72.0064 162.947 72.0064 162.37 72.0064 161.793 71.7173 161.36 71.2837 161.36 70.9223 161.36 70.5609 160.928 70.5609 160.423 70.5609 159.991 68.6095 158.622 66.1523 157.469 62.3217 155.666 61.2376 155.45 57.4794 155.883 55.1667 156.099 53.2153 156.027 53.2153 155.666 53.2153 155.306 51.9144 153.648 50.3243 151.918 48.7343 150.189 47.4334 148.387 47.4334 147.954 47.4334 147.522 46.7829 146.44 45.9879 145.503 45.1928 144.566 44.3256 142.981 44.1087 141.972 43.6029 139.161 41.1455 135.053 40.206 135.269 39.7 135.341 38.905 135.125 38.3269 134.62 36.8091 133.395 36.0863 134.332 35.6527 138.369 35.2914 141.18 35.5081 142.837 36.5923 145.071 37.315 146.729 38.1824 149.035 38.4714 150.117 38.7605 151.27 39.7 153.576 40.6397 155.162 42.7356 158.838 42.88 160.639 40.9286 160.639 40.1337 160.639 39.4833 160.856 39.4833 161.216 39.4833 161.505 38.1824 163.163 36.5923 164.82 35.0023 166.55 33.7014 168.568 33.7014 169.289 33.7014 170.658 31.5331 171.884 30.8826 170.874 30.6658 170.586 29.3649 168.784 28.1363 166.983 26.8353 165.108 25.7513 163.45 25.7513 163.163 25.7513 162.658 19.9693 154.008 19.2467 153.432 17.9456 152.351 9.92328 139.738 10.5737 139.738 10.9352 139.738 11.2965 139.449 11.2965 139.017 11.2965 138.656 10.7184 138.585 10.0678 138.801 9.12826 139.161 8.9837 138.945 9.34508 138.008 9.63422 137.287 9.85102 136.422 9.85102 135.99 9.85102 135.557 10.357 135.413 10.9352 135.702 11.7301 135.99 12.0193 135.629 12.0193 134.332 12.0193 133.395 12.3083 132.386 12.742 132.17 13.1033 131.954 13.4647 132.025 13.4647 132.458 13.4647 132.891 14.0429 132.962 14.6933 132.746 15.4883 132.458 15.5607 132.17 15.0547 131.954 14.5488 131.809 14.1875 131.377 14.1875 131.017 14.1875 130.585 18.5961 130.367 25.0285 130.44 31.0273 130.44 35.725 130.728 35.5804 130.944 35.436 131.233 38.616 131.521 42.7356 131.665 46.7829 131.809 53.143 132.241 56.9012 132.675 60.6594 133.107 68.6095 133.539 74.5361 133.683 80.5348 133.828 86.172 134.116 87.1116 134.404 88.3403 134.765 88.7016 134.692 88.3403 134.044 87.9789 133.467 89.3521 133.251 93.8327 133.395 99.9765 133.539 107.999 132.891 108.721 132.17 109.299 131.593 102.434 131.809 99.0368 132.458 95.7121 133.107 92.4598 132.458 94.7001 131.593 96.7242 130.801 109.444 131.017 109.951 131.809 110.673 132.962 115.66 132.675 118.334 131.304 120.719 130.151 122.598 130.008 133.656 130.656 135.173 130.728 136.619 131.088 136.908 131.521 137.848 132.891 139.944 133.323 139.944 132.098 139.944 131.304 140.377 131.088 141.1 131.377 141.75 131.593 143.63 131.809 145.364 131.809 147.171 131.809 148.978 132.241 149.556 132.891 150.424 133.683 150.784 133.755 151.002 133.035 151.219 132.602 151.436 133.395 151.436 134.908 151.507 137.432 152.374 138.369 153.314 136.855 153.893 135.918 156.061 135.918 158.373 136.999 160.253 137.864 160.976 140.026 159.096 139.306 158.301 139.017 158.156 139.161 158.446 139.954 158.735 140.819 158.446 140.963 157.145 140.675 156.206 140.53 154.759 139.954 153.893 139.522 152.953 139.161 152.086 138.945 151.797 139.161 151.579 139.377 151.941 141.467 152.591 143.774 153.242 146.153 154.399 151.126 155.121 154.874 155.844 158.622 156.784 162.874 157.217 164.243 158.012 166.694 159.819 177.794 160.469 184.209 160.686 185.938 160.976 187.596 161.264 188.029 161.553 188.461 161.915 190.479 162.059 192.641 162.348 195.668 162.131 196.75 160.903 198.336 160.108 199.345 159.746 200.353 160.108 200.57 160.469 200.858 160.903 200.57 161.12 200.137 161.264 199.632 161.698 199.489 162.059 199.777 162.421 200.137 162.131 200.714 161.409 201.146 160.181 201.795 160.108 202.444 160.541 206.768 160.976 210.877 160.758 212.174 159.53 214.985 158.301 217.652 158.084 219.093 158.446 221.976 158.807 224.499 158.663 225.797 158.084 226.157 157.434 226.589 157.434 227.526 157.94 229.688 158.301 231.418 158.301 232.86 157.94 233.076 157.579 233.292 157.361 235.166 157.434 237.256 157.506 239.346 157.289 242.95 157.001 245.329 156.711 247.707 156.711 249.293 157.073 248.789 157.796 247.78 157.868 255.059 157.073 256.285 156.784 256.717 156.494 262.267 156.494 268.537 156.422 283.169 158.229 293.259 160.976 293.259 161.336 293.259 161.626 292.467 161.626 291.457 161.626 290.377 162.204 289.367 163.216 288.863 164.156 288.358 165.311 287.494 165.89 286.989 166.54 286.34 167.553 286.124 168.708 286.412 170.082 286.773 170.371 286.629 170.082 285.763 169.576 284.467 171.021 283.889 174.852 283.889 177.092 283.889 177.598 284.106 176.803 284.61 176.225 284.971 175.719 285.547 175.647 285.836 175.575 286.773 174.563 289.224 173.84 290.377 173.478 290.953 172.9 292.106 172.54 292.899 172.105 293.692 171.166 295.35 170.371 296.503 169.503 297.729 168.853 299.098 168.853 299.674 168.853 300.179 167.913 301.836 166.685 303.35 165.528 304.863 164.516 306.45 164.516 306.882 164.516 307.314 162.926 310.341 160.903 313.513 158.951 316.684 157.289 319.496 157.289 319.712 157.289 319.999 156.422 321.297 155.338 322.666 152.374 326.559 147.966 336.433 143.485 349.407 141.679 354.524 141.027 355.244 137.848 355.317 135.463 355.389 135.39 355.461 137.053 355.965 138.498 356.398 138.065 356.542 135.245 356.542ZM134.36 358.104C138.055 358.25 141.986 356.398 143.557 353.371 144.135 352.217 145.075 350.776 145.726 350.2 146.376 349.623 147.316 347.172 147.677 344.722 148.111 342.343 149.122 338.955 149.917 337.154 150.712 335.424 151.724 332.901 152.231 331.604 152.736 330.307 154.109 327.928 155.194 326.414 156.349 324.829 157.289 323.387 157.289 323.171 157.289 322.955 157.651 322.378 158.012 321.874 159.386 320.288 166.685 308.972 166.685 308.395 166.685 308.107 167.335 307.314 168.13 306.593 168.925 305.873 169.576 304.72 169.576 303.926 169.576 303.206 169.865 302.629 170.154 302.629 170.66 302.629 171.888 300.395 177.165 290.304 177.526 289.584 178.321 288.935 178.827 288.935 179.333 288.935 179.983 288.358 180.2 287.71 180.489 286.989 180.85 286.268 181.067 286.052 182.007 285.259 185.332 280.358 188.729 274.88 190.68 271.709 192.559 268.826 192.848 268.394 193.209 268.033 193.932 267.023 194.511 266.231 195.45 264.933 195.522 264.933 195.594 266.086 195.594 267.528 198.486 267.744 202.894 266.591 204.484 266.231 207.086 265.51 208.821 265.078 210.483 264.645 212.723 263.348 213.808 262.195 216.12 259.673 219.011 251.528 220.095 244.464 220.89 239.346 222.119 234.085 223.782 229.112 225.588 223.707 225.805 222.625 225.155 222.193 224.72 221.976 223.998 222.193 223.42 222.625 222.625 223.273 222.335 223.273 222.335 222.697 222.335 222.265 221.83 221.904 221.18 221.904 220.601 221.904 220.312 221.544 220.529 221.183 220.89 220.607 221.324 220.68 221.975 221.183 222.553 221.688 223.347 221.76 223.853 221.472 224.793 220.896 221.975 218.372 220.385 218.301 219.083 218.301 219.155 211.165 220.529 207.994 221.107 206.552 222.119 205.11 222.77 204.75 223.347 204.39 223.925 203.669 224.07 203.093 224.215 201.795 225.155 200.282 227.54 197.326 228.695 195.957 230.864 193.29 232.454 191.272 234.117 189.326 236.212 186.227 237.296 184.425 238.309 182.623 239.609 180.677 240.187 180.1 240.693 179.523 242.5 177.217 244.162 175.055 247.27 170.947 259.918 156.315 262.52 153.792 265.267 151.126 266.423 148.819 266.423 146.08 266.423 144.566 266.133 143.342 265.7 143.342 265.338 143.342 264.977 142.837 264.977 142.188 264.977 141.539 264.327 140.243 263.532 139.233 262.737 138.224 262.086 136.999 262.086 136.566 262.086 134.981 258.039 133.251 255.654 133.683 253.052 134.26 252.691 133.539 255.076 132.53 256.304 131.954 256.088 131.881 253.775 132.17 248.716 132.891 230.647 133.755 230.286 133.323 230.069 133.035 228.985 132.818 227.757 132.746 220.385 132.386 201.449 131.017 200.076 130.656 199.136 130.512 198.63 130.008 198.847 129.719 199.064 129.359 195.377 129.071 190.68 129.143 186.054 129.214 180.417 129.071 178.249 128.927L174.202 128.566 174.202 116.673C174.202 110.114 173.84 101.537 173.335 97.5732 172.9 93.6092 172.105 85.6808 171.672 79.9147 171.238 74.1486 170.588 68.0942 170.298 66.3644 170.01 64.7066 170.01 63.121 170.371 62.9768 170.66 62.7606 170.732 61.4632 170.515 60.0939 170.226 58.3639 170.443 57.4991 171.093 57.2108 171.888 56.9224 172.033 55.3368 171.888 50.0032L171.6 43.156 173.84 43.156C175.502 43.156 175.936 43.4443 175.647 44.2371 174.997 45.8949 178.827 45.6065 181.501 43.8767 184.103 42.147 184.754 42.0749 184.754 43.5163 184.754 44.5254 186.127 44.9579 187.934 44.6696 188.295 44.5975 189.885 44.4534 191.402 44.3813 192.92 44.3092 194.149 44.0209 194.149 43.7326 194.149 43.4443 194.511 43.156 194.872 43.156 195.306 43.156 195.594 43.6606 195.594 44.2371 195.594 45.6786 196.172 45.6065 199.642 43.5884 203.761 41.282 206.436 40.6334 206.436 42.0749 206.436 42.6514 206.001 43.228 205.568 43.3002 203.761 43.4443 203.183 43.6606 200.364 44.8858 196.896 46.3994 197.401 47.0481 201.521 46.3273 203.256 46.039 204.846 45.8228 205.206 45.8949 205.496 45.9669 205.713 45.6786 205.713 45.3182 205.713 44.8858 206.146 44.5975 206.725 44.5975 207.303 44.5975 208.243 44.165 208.748 43.6606 209.254 43.156 209.905 42.6514 210.266 42.5793L213.446 41.7866C214.891 41.3541 216.265 41.1378 216.41 41.282 216.698 41.5703 213.157 43.3002 210.628 44.165 209.905 44.3813 209.326 44.8858 209.326 45.3182 209.326 46.4715 212.218 46.1832 215.398 44.6696 221.324 41.9306 227.973 40.4891 223.492 42.8677 222.047 43.6606 221.685 44.2371 222.263 44.8137 222.842 45.3903 223.492 45.3182 224.648 44.7416 228.479 42.7956 230.286 42.4352 230.286 43.5163 230.286 44.8137 230.286 44.8137 234.405 43.8046 237.079 43.0839 237.802 43.156 238.309 43.9488 238.886 44.8137 239.104 44.8137 239.681 43.8767 240.259 43.0118 240.404 43.0839 240.404 44.4534 240.404 46.2552 241.127 46.3994 245.102 44.9579 248.354 43.7326 250.956 43.5884 251.534 44.5254 251.751 44.8137 252.763 44.9579 253.775 44.7416 254.786 44.5975 256.088 44.8137 256.666 45.3182 257.388 45.9669 257.75 45.9669 257.75 45.3903 257.75 44.4534 261.291 44.3092 263.821 45.2462 264.977 45.7507 267.29 45.6786 270.398 45.1741 274.228 44.5254 275.312 44.5254 275.819 45.3182 276.107 45.8228 277.047 46.039 277.914 45.8228 278.999 45.6065 279.432 45.8228 279.432 46.5436 279.432 47.4085 280.01 47.5526 282.034 47.1201 286.949 46.2552 294.826 41.7145 291.501 41.7145 289.694 41.7145 289.984 39.7684 291.863 39.2638 293.453 38.9034 293.453 38.8314 292.079 37.8224 290.779 36.8854 290.489 36.9575 289.044 38.543 287.021 40.7774 286.514 40.7054 287.093 38.399 287.382 37.1737 287.237 36.3088 286.659 35.9484 285.431 35.1555 283.769 35.8042 283.769 37.0295 283.769 37.6061 283.407 38.2548 282.974 38.543 282.467 38.8314 282.323 38.399 282.467 37.3178 282.612 35.9484 282.395 35.588 281.094 35.6601 280.227 35.6601 279.577 35.3718 279.649 34.9393 279.721 34.5068 279.071 34.0744 278.131 33.9303 276.83 33.714 276.614 33.3536 276.975 31.9121 277.336 30.5427 277.119 30.1823 275.962 30.1823 275.168 30.1823 274.156 30.6868 273.578 31.3355 272.71 32.3446 272.566 32.3446 272.06 30.9751 271.41 29.1011 270.47 29.0291 268.808 30.831 268.085 31.5518 266.712 32.4167 265.7 32.6329 263.965 33.1375 263.965 33.0653 265.267 32.0563 266.062 31.4075 266.784 30.2543 266.928 29.4615 267.218 27.3713 264.905 27.5875 262.953 29.8219 262.086 30.831 260.858 31.6239 260.28 31.6239 259.701 31.6239 259.195 31.9121 259.195 32.2725 259.195 32.6329 258.69 33.0653 258.111 33.3536 255.943 34.1465 257.099 32.3446 259.846 30.7589 262.303 29.3174 262.52 28.8849 261.725 27.8038 260.496 26.074 258.762 26.2902 258.111 28.1642 257.75 29.3895 257.533 29.5336 257.244 28.7407 256.304 26.5064 255.003 25.7857 253.919 26.9389 253.341 27.4434 251.896 28.1642 250.811 28.3803 248.788 28.8129 248.788 28.8129 250.161 27.6596 251.39 26.6506 251.462 26.4344 250.523 25.8577 249.004 24.8487 248.788 24.9208 246.909 26.9389 245.969 27.948 244.813 28.7407 244.307 28.7407 243.873 28.7407 243.078 29.2453 242.572 29.8219 241.271 31.4075 240.259 31.1192 241.271 29.4615 241.777 28.6687 242.572 28.02 243.078 28.02 243.584 28.02 244.018 27.5155 244.018 26.9389 244.018 26.3623 244.379 25.8577 244.813 25.8577 245.246 25.8577 245.102 25.3532 244.451 24.7766 242.934 23.263 241.922 23.4072 241.127 25.3532 240.693 26.4344 240.476 26.5785 240.476 25.7857 240.404 25.137 239.898 24.128 239.247 23.6234 238.236 22.8305 237.947 22.8305 237.152 23.9117 236.646 24.5604 235.634 25.137 234.911 25.0649 234.117 25.0649 233.972 24.8487 234.477 24.6324 235.417 24.272 235.706 20.8125 234.767 20.8125 234.405 20.8125 233.394 21.6052 232.454 22.6144 231.514 23.6234 230.286 24.4162 229.635 24.4162 228.768 24.4162 228.768 24.2 229.419 23.5513 232.165 20.8125 228.552 20.9565 225.227 23.6954 222.408 26.146 221.613 26.3623 221.613 24.7766 221.613 23.0468 219.373 22.5423 218.288 24.0558 217.71 24.7766 217.277 25.137 217.277 24.8487 217.277 24.5604 216.193 25.137 214.963 26.146 213.663 27.083 211.639 28.0921 210.411 28.3803 207.953 28.8849 207.881 29.0291 213.88 24.7045 216.482 22.7584 217.205 21.3169 215.976 20.5241 215.615 20.3079 214.096 21.3169 212.578 22.6864 209.326 25.5694 208.098 25.8577 209.688 23.4072 210.7 21.8936 210.7 21.6773 209.688 21.2448 208.604 20.8844 205.568 22.5423 202.966 24.9208 202.461 25.4253 201.449 25.8577 200.798 25.7857 200.003 25.7857 199.931 25.6415 200.509 25.3532 200.943 25.209 201.159 24.6324 200.943 24.272 200.654 23.8396 200.798 23.6954 201.232 23.9837 201.666 24.2 202.533 23.6954 203.111 22.8305 203.761 21.9656 204.268 21.5332 204.339 21.8936 204.339 22.326 204.629 21.8215 205.063 20.9565 206.001 18.506 205.206 17.7852 203.111 19.1547 201.738 20.0196 201.087 20.0916 200.726 19.443 200.364 18.8664 199.425 19.1547 197.474 20.452 196.028 21.4611 194.511 22.254 194.149 22.254 193.787 22.254 191.909 23.7676 190.029 25.5694 187.572 27.8759 186.488 28.5246 186.344 27.8038 186.054 26.4344 190.752 21.5332 192.27 21.5332 192.92 21.5332 193.426 21.2448 193.426 20.8844 193.426 20.5241 194.077 19.9475 194.872 19.7312 195.884 19.443 196.317 18.6502 196.317 17.1365 196.317 15.0463 195.377 14.3256 194.511 15.7671 194.294 16.1996 193.282 16.4879 192.27 16.4879 191.258 16.4879 190.68 16.7762 190.897 17.2086 191.114 17.569 190.897 17.9294 190.319 17.9294 189.74 17.9294 189.017 17.0645 188.729 15.9833L188.222 13.9653 186.922 15.695 185.62 17.4249 185.187 15.9113C184.609 14.1814 183.669 13.8931 182.947 15.0463 182.585 15.6229 182.079 15.551 181.357 14.9022 180.489 14.1814 180.055 14.3256 179.044 15.695 177.96 17.1365 177.526 17.2807 176.225 16.5599 175.358 16.0554 174.635 15.9833 174.635 16.2716 174.635 16.5599 174.202 16.1996 173.695 15.4788 172.756 14.1814 172.611 14.2535 170.371 16.4158 169.143 17.6411 167.913 18.6502 167.697 18.6502 166.902 18.6502 168.348 15.4067 169.648 14.1093 171.31 12.5237 171.383 11.7309 169.938 11.1542 169.359 10.938 168.853 11.0822 168.853 11.5146 168.853 11.947 168.42 12.1634 167.986 11.947 167.48 11.803 166.685 12.0913 166.323 12.6678 165.673 13.4606 165.311 13.3886 164.011 12.1634 162.276 10.5777 160.541 10.2894 159.819 11.4426 159.602 11.803 158.879 12.1634 158.301 12.1634 157.723 12.1634 157.434 11.875 157.651 11.4426 158.301 10.4335 152.736 10.5056 151.652 11.5867 151.074 12.1634 150.568 12.1634 149.629 11.3705 148.617 10.5777 148.327 10.5777 147.46 11.7309 146.304 13.3886 141.389 13.8931 141.389 12.3795 141.389 11.2263 141.027 11.2263 139.149 12.1634 138.065 12.812 137.63 12.6678 137.342 11.803 136.835 10.5056 134.885 10.2894 134.885 11.5867 134.885 12.0192 134.668 12.2353 134.451 12.0192 134.234 11.803 133.222 12.3795 132.21 13.3166 131.198 14.2535 129.97 15.0463 129.536 15.0463 129.103 15.0463 129.97 13.8931 131.488 12.5237 133.15 11.0822 134.162 9.49647 134.017 8.77573 133.8 7.7667 133.512 7.83876 131.632 9.56855 129.536 11.5146 129.536 11.5146 128.958 9.92896 128.452 8.6316 128.163 8.55954 127.296 9.28032 126.356 10.0731 126.284 10.001 126.573 9.06405 127.151 7.69457 125.633 6.68554 124.621 7.69457 124.116 8.19915 123.465 8.19915 122.598 7.69457 121.658 7.118 120.936 7.19006 119.635 8.05495 117.539 9.56855 116.816 9.56855 116.816 8.19915 116.816 6.97387 115.66 6.75761 115.009 7.83876 114.286 8.99198 112.986 8.6316 113.491 7.40632 114.142 5.74859 113.274 4.73949 112.046 5.74859 111.251 6.39722 111.034 6.32516 111.034 5.3882 111.034 4.01872 109.372 3.8746 107.421 5.09988 105.831 6.1089 104.602 5.31607 105.831 4.09079 106.987 2.93756 106.914 2.07267 105.614 2.07267 105.036 2.07267 104.241 2.72138 103.807 3.51422 103.374 4.30704 102.579 4.95569 102 4.95569 100.554 4.95569 100.627 4.23498 102.217 3.08176 103.301 2.2168 103.301 2.00061 102.361 1.42397 101.639 0.919451 101.132 0.991513 100.699 1.78435 99.9765 3.08176 97.4468 2.43306 96.0739 0.703265 95.2065-0.305828 94.9895-0.305828 93.8327 1.20777 92.8939 2.43306 91.8095 2.8655 89.4967 2.93756 87.8344 2.93756 86.0998 3.44215 85.6661 3.94666 85.2325 4.52323 84.2207 4.95569 83.4257 4.95569 82.7029 4.95569 80.1733 6.82967 77.7884 9.06405 71.0668 15.551 69.9827 16.4879 68.9709 16.4879 68.465 16.5599 67.0918 17.2807 65.9354 18.2176 63.9118 19.8755 63.8395 20.0916 64.3453 24.4162 65.2127 31.7679 69.3323 36.597 76.126 38.1827 81.8357 39.5522 82.992 40.345 82.6307 42.4352 82.4138 43.4443 82.9197 45.7507 83.7147 47.6247 84.9434 50.5798 85.088 51.4447 84.3652 54.6881 83.9316 56.7063 83.5702 62.4003 83.5702 67.3734 83.5702 73.2116 83.281 76.2389 82.8475 75.9505 82.4861 75.7343 82.1247 76.0225 82.1247 76.5992 82.1247 77.1758 82.4861 77.8965 82.8475 78.1128 83.281 78.329 83.5702 79.6265 83.5702 80.9237 83.5702 82.2932 84.0761 84.7438 84.7266 86.4736 85.6661 89.0684 85.7384 91.3748 85.3047 99.3747 84.6543 111.988 84.6543 110.547 85.3047 121.646 85.7384 128.422 85.6661 131.088 85.088 130.801 84.6543 130.512 83.6424 130.656 82.7752 131.088 80.5348 132.314 66.7304 132.458 58.2021 131.304 54.0825 130.728 48.4452 130.224 45.6265 130.08 37.4596 129.647 20.6197 128.277 17.0784 127.773 14.1152 127.413 13.6093 127.557 11.7301 129.359 9.20055 131.881 6.96004 136.206 6.96004 138.512 6.96004 139.449 7.61055 140.819 8.40554 141.539 9.12826 142.188 11.0074 144.639 12.5251 146.874 14.0429 149.107 16.1389 151.991 17.223 153.288 18.3793 154.585 19.2467 155.955 19.2467 156.315 19.2467 156.748 19.897 157.685 20.7644 158.549 21.5594 159.342 22.0653 160.279 21.7761 160.496 21.4871 160.784 20.692 160.279 19.9693 159.415 17.8734 156.82 15.127 157.396 11.2242 161.433 8.83922 163.883 8.40554 164.027 8.9115 162.081 9.20055 161.073 8.9115 160.639 8.11643 160.639 7.32143 160.639 6.96004 161.289 6.96004 163.018 6.96004 164.243 6.30961 167.054 5.51462 169.217 4.57506 171.668 4.1414 173.901 4.43051 175.343 4.79182 177.578 4.79182 177.578 3.63552 175.992 1.97318 173.685 1.39503 173.901 0.961353 177.073 0.744514 178.515 0.383194 180.389 0.0940791 181.182-0.195036 182.263 0.166358 183.2 1.39503 184.425 3.20184 186.227 4.86411 189.11 7.68283 195.525 9.12826 198.695 9.12826 199.2 8.18871 201.219 6.96004 203.669 7.24916 204.967 9.34508 207.345L10.8629 208.93 9.27281 211.741 7.68283 214.481 9.48961 216.931C10.4292 218.301 11.8024 220.391 12.4529 221.544 13.1033 222.77 14.4765 224.643 15.416 225.797 16.3556 226.95 17.7288 229.04 18.5238 230.481 19.2467 231.923 20.8366 234.085 21.993 235.382 23.2217 236.68 24.6672 238.626 25.2453 239.707 28.4977 245.977 32.1113 251.455 32.9063 251.455 35.9418 251.455 44.976 253.185 45.4096 253.834 45.6988 254.338 46.2047 254.699 46.4938 254.699 49.5293 254.915 55.7448 258.231 55.0221 259.384 54.4439 260.321 56.9734 263.059 57.9853 262.7 58.5635 262.483 59.7199 263.132 60.6594 264.141 62.2494 266.015 67.1641 268.754 68.8987 268.754 69.4768 268.754 70.7054 269.258 71.6451 269.907 72.6568 270.555 74.5361 270.916 76.126 270.844 77.6438 270.7 79.306 270.916 79.812 271.204 80.3179 271.493 81.1851 271.421 81.6911 270.916 82.4861 270.268 83.6424 271.925 87.4007 279.349 91.8095 288.07 101.205 303.999 102.361 304.792 102.651 305.008 103.59 306.305 104.457 307.675 104.746 308.161 105.218 308.836 105.763 309.558L107.405 311.597 112.046 319.423C113.564 322.09 115.154 324.252 115.588 324.252 116.455 324.324 119.707 328.865 119.707 330.091 119.707 330.451 120.141 330.739 120.646 330.739 121.225 330.739 121.948 332.685 122.526 336.001 123.031 338.812 123.755 341.55 124.043 341.911 124.333 342.343 124.838 344.073 125.128 345.875 125.923 350.776 126.862 352.938 127.657 351.641 128.163 350.848 128.452 351.424 128.813 353.587 129.103 355.605 129.753 356.758 130.837 357.263 131.921 357.785 133.127 358.055 134.36 358.104Z" fill-rule="evenodd" transform="matrix(1 0 0 -1.00218 89 634.082)"/></g></g></g></g></g></svg>