<svg width="369" height="417" xmlns="http://www.w3.org/2000/svg" xmlns:xlink="http://www.w3.org/1999/xlink" overflow="hidden"><defs><clipPath id="clip0"><rect x="559" y="142" width="369" height="417"/></clipPath><clipPath id="clip1"><rect x="585" y="160" width="308" height="380"/></clipPath><clipPath id="clip2"><rect x="585" y="160" width="308" height="380"/></clipPath><clipPath id="clip3"><rect x="553" y="160" width="382" height="380"/></clipPath></defs><g clip-path="url(#clip0)" transform="translate(-559 -142)"><path d="M743.456 143.962C749.171 143.962 754.888 145.446 760.009 148.414L910.402 235.552C920.646 241.486 926.956 252.455 926.956 264.325L926.956 438.6C926.956 450.47 920.646 461.438 910.402 467.373L760.009 554.509C749.766 560.447 737.145 560.447 726.902 554.509L576.51 467.373C566.265 461.438 559.956 450.47 559.956 438.6L559.956 264.325C559.956 252.455 566.265 241.486 576.51 235.552L726.902 148.414C732.024 145.446 737.739 143.962 743.456 143.962Z" fill="#F7F5FB" fill-rule="evenodd"/><g clip-path="url(#clip1)"><g clip-path="url(#clip2)"><g clip-path="url(#clip3)"><path d="M114.325 119.937C116.834 119.969 119.7 119.965 122.768 119.937 123.434 154.887 152.307 182.679 187.257 182.013 221.449 181.361 248.94 153.666 249.339 119.47 250.491 115.567 257.822 88.9081 249.015 72.0496 243.344 60.158 231.133 52.7887 217.97 53.3148 211.498 48.1927 184.363 29.8973 146.209 47.9117 114.938 62.6644 114.032 95.0158 114.071 99.8727L110.509 115.092C110.01 117.221 111.331 119.351 113.46 119.849 113.741 119.915 114.028 119.95 114.317 119.953ZM186.042 174.167C155.827 174.124 131.207 149.902 130.673 119.692 145.473 119.079 162.933 117.159 173.917 111.969 188.29 105.185 206.455 89.9017 212.171 84.9379 217.658 87.4673 222.515 91.1822 226.393 95.8154 229.634 99.7769 232.439 104.075 234.761 108.636 236.613 111.942 238.719 115.678 241.403 119.823 240.8 149.979 216.204 174.123 186.042 174.167ZM121.893 101.167C121.972 100.826 122.007 100.476 121.996 100.126 121.956 98.8356 121.275 68.4119 149.589 55.0446 158.793 50.4961 168.897 48.0617 179.162 47.9196 191.873 47.7521 204.227 52.1305 213.995 60.2656 214.896 61.1167 216.141 61.4998 217.364 61.3027 227.793 60.3666 237.672 66.1339 241.985 75.6754 246.925 85.1319 245.5 99.2948 243.766 108.486 243.022 107.188 242.325 105.945 241.656 104.753 239.077 99.7096 235.958 94.9608 232.354 90.5904 227.137 84.0853 220.156 79.2217 212.246 76.5819 210.983 76.2787 209.652 76.6147 208.683 77.4804 208.462 77.6783 186.441 97.3117 170.557 104.793 157.664 110.877 133.206 111.918 119.371 112.005Z" fill="#EF6F6C" transform="matrix(1.00273 0 0 1 553.401 160)"/><path d="M302.943 235.62C284.774 221.632 263.959 211.472 241.755 205.75 236.641 204.218 231.491 202.896 226.452 201.82L224.445 201.388 222.937 202.785C206.807 217.708 195.874 217.708 190 217.708 184.126 217.708 173.102 217.708 157.051 202.983L155.551 201.606 153.571 202.025C148.722 203.047 143.6 204.294 138.304 205.738 116.367 212.167 95.6749 222.261 77.1044 235.592 68.5896 242.263 63.5316 252.414 63.3333 263.229L63.3333 324.583 71.25 324.583 71.25 263.229C71.4246 254.881 75.3283 247.05 81.89 241.886 99.6621 229.164 119.451 219.529 140.426 213.386 144.82 212.198 149.134 211.122 153.231 210.219 168.625 223.753 180.437 225.625 190 225.625 199.563 225.625 211.312 223.729 226.773 209.994 230.973 210.944 235.244 212.064 239.531 213.35 260.727 218.785 280.603 228.454 297.964 241.775 304.602 246.941 308.563 254.82 308.75 263.229L308.75 324.583 316.667 324.583 316.667 263.229C316.475 252.431 311.435 242.292 302.943 235.62Z" fill="#EF6F6C" transform="matrix(1.00273 0 0 1 553.401 160)"/></g></g></g><path d="M743.456 156.698C738.119 156.698 732.781 158.08 728 160.844L587.587 242.003C578.023 247.53 572.131 257.747 572.131 268.803L572.131 431.122C572.131 442.178 578.023 452.393 587.587 457.921L728 539.081C737.563 544.61 749.347 544.61 758.911 539.081L899.324 457.921C908.888 452.393 914.781 442.178 914.781 431.122L914.781 268.803C914.781 257.747 908.888 247.53 899.324 242.003L758.911 160.844C754.129 158.08 748.792 156.698 743.456 156.698ZM743.456 142.962C749.171 142.962 754.888 144.443 760.009 147.403L910.402 234.331C920.645 240.251 926.956 251.194 926.956 263.035L926.956 436.89C926.956 448.731 920.645 459.673 910.402 465.594L760.009 552.52C749.766 558.443 737.145 558.443 726.902 552.52L576.51 465.594C566.265 459.673 559.956 448.731 559.956 436.89L559.956 263.035C559.956 251.194 566.265 240.251 576.51 234.331L726.902 147.403C732.024 144.443 737.739 142.962 743.456 142.962Z" fill="#1D3557" fill-rule="evenodd"/></g></svg>