<svg width="915" height="914" xmlns="http://www.w3.org/2000/svg" xmlns:xlink="http://www.w3.org/1999/xlink" overflow="hidden"><defs><clipPath id="clip0"><rect x="1742" y="780" width="915" height="914"/></clipPath></defs><g clip-path="url(#clip0)" transform="translate(-1742 -780)"><path d="M1742.8 780.819 2656.8 780.819 2656.8 1693.82 1742.8 1693.82Z" fill="#011921" fill-rule="evenodd"/><path d="M1787.37 1267.83C1852.13 1271.05 1899.73 1352.65 1984.71 1378.47 2089.31 1410.24 2281.84 1455.98 2366.73 1470.43 2451.62 1484.89 2460.45 1469.81 2494.07 1465.2 2527.7 1460.59 2570.28 1473.67 2591.64 1468.19 2613 1462.71 2596.1 1433.82 2622.23 1432.3 2627.14 1432.02 2633.02 1432.33 2639.65 1433.1L2656.8 1435.93 2656.8 1599.47 2632.12 1627.34 2602.34 1655.8 2587.05 1657.25C2425.54 1671.27 2111.92 1679.83 1841.96 1684.73L1836.16 1684.82 1815.51 1668.59C1796.75 1652.31 1778.93 1634.87 1762.15 1616.37L1742.8 1592.31 1742.8 1300.66 1746 1297.71C1763.11 1281.96 1779.9 1267.45 1787.37 1267.83Z" fill="#262A1C" fill-rule="evenodd"/><path d="M2193.3 918.819C2200.25 918.819 2206.55 922.16 2211.1 927.562L2214.65 933.793 2222.38 931.943C2227.94 931.943 2232.98 934.616 2236.62 938.936L2242.37 955.397 2243.55 955.571C2251.64 957.836 2258.68 960.617 2265.31 962.843 2278.59 967.293 2284.08 974.446 2295.08 978.102 2306.07 981.758 2363.05 983.665 2331.28 984.778 2299.5 985.891 2137.14 988.753 2104.43 984.778 2071.72 980.804 2116.5 966.18 2135 960.935L2138.46 960.327 2143.81 945.008C2147.45 940.686 2152.49 938.012 2158.05 938.012 2160.83 938.012 2163.48 938.682 2165.89 939.89L2169.17 942.511 2170.1 937.05C2173.92 926.336 2182.87 918.819 2193.3 918.819Z" fill="#595959" fill-rule="evenodd"/><path d="M2120.74 1476.82C2298.64 1476.34 2461.53 1527.1 2616.23 1531.57L2656.8 1530.82 2656.8 1693.82 1742.8 1693.82 1742.8 1518.05 1783.58 1511.89C1876.77 1498.76 1965.15 1488.85 2032.37 1481.58 2062.25 1478.34 2091.69 1476.9 2120.74 1476.82Z" fill="#8EB137" fill-rule="evenodd"/><path d="M2073.04 1521.27 2089.05 1538.17 2145.89 1567.93 2156.3 1594.47 2130.68 1609.75 2087.45 1621.82 2034.61 1612.97 2013.8 1583.21 2030.61 1554.25 2053.03 1536.56ZM2225.94 1510.82 2258.77 1518.86 2299.59 1533.34 2310.8 1541.38 2306.8 1559.88 2283.58 1581.6 2251.56 1582.41 2209.93 1575.17C2209.67 1564.98 2209.4 1554.79 2209.13 1544.6Z" fill="#9AE2FC" fill-rule="evenodd"/><path d="M2094.61 1390.67 2132.17 1393.85 2131.37 1410.53 2151.36 1451.82 2111.39 1444.67 2085.02 1400.2 2094.61 1390.67ZM2301.62 1239.79 2322.41 1256.47 2320.01 1289.03 2328.8 1320C2326.4 1320 2324.01 1329.13 2321.61 1329.13L2311.22 1323.18 2275.25 1276.32 2301.62 1239.79ZM2171.35 1210.84C2183.24 1211.01 2196.48 1212.6 2204.91 1213.59 2216.15 1214.91 2217.43 1214.78 2227.56 1219.15 2237.68 1223.52 2250.87 1227.09 2256.86 1235.03 2262.86 1242.97 2265.79 1254.75 2264.06 1265.21 2262.33 1275.66 2255.93 1292.2 2246.47 1297.76 2237.02 1303.32 2217.7 1291.41 2207.31 1298.56 2196.92 1305.71 2187.46 1328.6 2184.13 1340.65 2180.8 1352.69 2194.78 1363.14 2187.33 1370.82 2179.87 1378.5 2156.95 1384.06 2139.37 1386.7 2121.79 1389.35 2096.61 1388.42 2081.82 1386.7 2067.03 1384.98 2063.97 1384.98 2050.65 1376.38 2037.33 1367.78 2012.19 1349.6 2001.89 1335.09 1991.59 1320.57 1988.44 1300.54 1988.83 1289.29 1989.23 1278.04 1993.19 1275.18 2004.29 1267.59 2015.39 1260 2035.73 1251.44 2055.44 1243.77 2075.16 1236.09 2105.13 1226.96 2122.58 1221.53 2140.03 1216.1 2146.43 1212.53 2160.15 1211.21 2163.58 1210.88 2167.39 1210.78 2171.35 1210.84Z" fill="#D49E7A" fill-rule="evenodd"/><path d="M1901.7 1111.82C1908.68 1111.82 1915 1114.62 1919.58 1119.15L1923.14 1124.37 1930.9 1122.82C1936.49 1122.82 1941.54 1125.06 1945.2 1128.68L1950.98 1142.48 1952.15 1142.63C1960.28 1144.53 1967.35 1146.86 1974.01 1148.72 1987.34 1152.45 1992.85 1158.45 2003.89 1161.51 2014.93 1164.58 2072.14 1166.18 2040.24 1167.11 2008.33 1168.04 1845.32 1170.44 1812.48 1167.11 1779.63 1163.78 1824.59 1151.52 1843.17 1147.12L1846.64 1146.61 1852.01 1133.77C1855.67 1130.15 1860.73 1127.91 1866.31 1127.91 1869.11 1127.91 1871.77 1128.47 1874.19 1129.48L1877.48 1131.68 1878.41 1127.1C1882.25 1118.12 1891.23 1111.82 1901.7 1111.82Z" fill="#595959" fill-rule="evenodd"/><path d="M2484.11 1233.82C2491.12 1233.82 2497.47 1237.26 2502.06 1242.82L2505.63 1249.23 2513.43 1247.33C2519.03 1247.33 2524.11 1250.08 2527.78 1254.53L2533.58 1271.47 2534.76 1271.65C2542.92 1273.98 2550.02 1276.85 2556.71 1279.14 2570.09 1283.72 2575.63 1291.08 2586.71 1294.85 2597.79 1298.61 2655.23 1300.57 2623.2 1301.72 2591.18 1302.86 2427.5 1305.81 2394.53 1301.72 2361.55 1297.63 2406.69 1282.57 2425.34 1277.17L2428.83 1276.55 2434.22 1260.78C2437.9 1256.33 2442.97 1253.58 2448.58 1253.58 2451.38 1253.58 2454.05 1254.27 2456.48 1255.51L2459.79 1258.21 2460.73 1252.59C2464.58 1241.56 2473.6 1233.82 2484.11 1233.82Z" fill="#595959" fill-rule="evenodd"/><path d="M2423.46 1174.72 2441.8 1185.12 2433.03 1200.32 2418.67 1216.33 2377.99 1238.73 2330.14 1257.13 2323.76 1242.73 2353.27 1182.72 2336.52 1185.92 2377.99 1176.32ZM2080.76 916.819 2111.6 928.02 2155.73 955.225 2186.58 981.895 2203.59 1008.56 2214.76 1032.57 2229.11 1078.44 2256.76 1126.45C2256.94 1133.91 2257.12 1141.38 2257.29 1148.85L2248.25 1164.85 2231.36 1169.26 2244.8 1171.52C2274.71 1173.52 2284.41 1169.52 2297.44 1169.12 2310.47 1168.72 2317.91 1166.85 2322.96 1169.12 2328.01 1171.39 2333.73 1169.66 2327.75 1182.72 2321.77 1195.79 2297.31 1232.06 2287.07 1247.53 2276.84 1263 2269.66 1273.27 2266.33 1275.53 2263.01 1277.8 2269.92 1269.13 2267.13 1261.13 2264.34 1253.13 2267 1235.53 2249.58 1227.53 2232.17 1219.53 2198.81 1208.19 2162.65 1213.13 2126.49 1218.06 2061.62 1246.06 2032.64 1257.13 2003.66 1268.2 1996.09 1271.4 1988.78 1279.54 1981.46 1287.67 1987.45 1296.61 1988.78 1305.94 1990.1 1315.27 1998.88 1328.61 1996.75 1335.54 1994.63 1342.48 2004.59 1349.28 1976.01 1347.55 1947.43 1345.81 1851.06 1332.21 1825.27 1325.14 1799.48 1318.07 1811.58 1314.47 1821.29 1305.14 1830.99 1295.8 1860.1 1281.67 1883.49 1269.13 1906.89 1256.6 1922.58 1248.6 1961.66 1229.93 1966.54 1227.6 1971.93 1224.85 1977.71 1221.81L1991.07 1214.65 1976.01 1212.33 1967.51 1195.79 1965.38 1116.31 1982.93 1043.77 2016.42 993.097Z" fill="#EFB222" fill-rule="evenodd"/><path d="M2261.42 1285.62 2300.5 1303.22 2322.04 1336.82 2318.05 1367.22 2300.5 1380.02 2278.97 1389.62 2290.93 1420.82 2287.74 1451.22 2267.8 1464.82 2235.1 1476.82 2213.56 1472.82 2152.94 1450.42 2133.8 1410.42 2144.17 1386.42 2186.44 1362.42C2186.71 1352.82 2186.97 1343.22 2187.24 1333.62L2195.22 1308.82 2211.17 1296.82 2229.52 1293.62ZM2354.74 1100.82 2395.42 1108.82 2401.8 1125.62 2382.66 1173.62 2352.35 1183.22 2333.21 1210.42 2321.24 1240.82 2302.9 1243.22 2326.03 1170.42 2296.52 1160.82 2312.47 1122.42Z" fill="#F7A64A" fill-rule="evenodd"/><path d="M263.611 81.5291C257.306 81.4677 251.448 80.7934 246.538 79.4455 239.666 76.9936 230.339 67.6788 224.936 57.3831 215.12 39.2424 215.12 39.2424 225.429 25.5149 234.266 13.2579 238.684 12.2771 271.574 10.8065 305.447 9.82604 308.885 10.3163 324.594 24.0442 344.231 40.7135 342.758 51.0091 318.703 67.1885 305.449 76.3811 282.53 81.7128 263.611 81.5291ZM436.523 101.546C423.546 100.283 416.643 93.2958 410.014 77.4842 401.67 57.8733 416.397 46.5964 450.271 46.5964 471.38 46.5964 479.235 49.0479 489.053 58.3635 505.745 74.0523 505.253 81.4063 487.09 90.7216 479.235 94.6441 463.035 99.547 451.744 101.018 445.853 101.753 440.85 101.968 436.523 101.546ZM320.176 205.938C311.83 205.938 314.776 187.798 323.122 184.365 334.413 179.952 336.867 183.876 329.994 195.642 327.049 201.525 322.631 205.938 320.176 205.938ZM316.064 230.39C311.216 230.574 306.185 229.469 303.976 227.019 300.049 223.096 299.557 205.938 302.994 205.938 310.358 205.938 329.503 222.116 327.049 226.038 325.576 228.735 320.913 230.206 316.064 230.39ZM438.489 245.159C434.071 245.159 421.796 220.155 425.234 217.215 426.214 216.233 430.634 222.116 434.561 229.96 438.978 238.295 440.451 245.159 438.489 245.159ZM426.214 250.063C424.741 250.063 421.307 245.65 418.36 240.256 415.414 234.864 414.432 230.451 415.414 230.451 416.887 230.451 420.325 234.864 423.269 240.256 426.214 245.65 427.196 250.063 426.214 250.063ZM459.767 287.461C457.695 286.68 454.934 283.28 452.725 278.498 446.833 267.712 446.833 267.712 455.669 275.556 460.58 280.461 463.035 285.362 461.562 287.323 461.069 287.69 460.456 287.723 459.767 287.461ZM491.508 308.896C489.053 308.896 481.69 298.599 475.306 285.853 468.924 272.615 457.142 250.063 448.798 235.354 439.962 220.646 433.089 203.977 433.089 198.094 433.089 192.699 428.669 183.876 423.269 178.973 409.032 166.225 410.505 152.007 425.723 152.007 441.925 152.007 475.306 168.676 479.235 178.973 484.144 192.209 482.18 207.898 474.817 217.704 464.017 231.921 465.489 234.375 485.617 242.709 495.926 247.12 505.745 253.003 507.708 256.436 514.09 266.243 512.126 283.89 503.781 296.64 499.362 303.504 493.963 308.896 491.508 308.896ZM473.253 317.444C470.214 316.434 467.451 310.735 467.451 304.482 467.944 298.11 468.924 298.11 472.851 305.463 475.799 310.366 477.271 315.27 476.289 316.74 475.306 317.598 474.265 317.783 473.253 317.444ZM508.69 318.701C501.817 318.701 501.326 317.231 507.217 310.366 510.652 305.463 514.581 300.561 515.072 299.58 516.054 298.599 516.545 302.032 516.545 307.915 516.545 314.779 513.599 318.701 508.69 318.701ZM428.669 323.605C394.305 323.605 377.613 297.128 390.377 261.338 393.814 252.022 391.85 250.063 374.67 245.159 353.558 239.767 334.904 223.587 334.904 211.821 334.904 201.525 358.468 171.618 366.322 171.618 375.159 171.618 379.577 184.365 376.141 198.584 374.177 206.917 375.651 210.841 383.013 213.293 395.288 216.724 418.36 254.966 418.36 271.145 418.36 277.519 425.234 291.245 433.089 301.541 441.433 311.837 447.816 320.662 447.816 321.642 447.816 322.623 438.978 323.605 428.669 323.605ZM565.955 347.083C574.299 344.14 577.737 319.136 570.862 312.272 566.935 308.352 565.463 310.311 565.463 319.627 565.463 326.98 563.99 336.296 562.028 341.198 560.062 347.083 561.044 348.553 565.955 347.083ZM549.888 347.507C552.219 348.917 555.166 346.832 557.62 340.706 560.566 331.88 556.639 318.642 550.255 318.642 547.8 318.642 545.839 325.507 545.839 333.352 545.839 341.196 547.555 346.098 549.888 347.507ZM502.983 372.019C500.099 372.264 496.662 370.672 491.017 367.239 480.217 360.865 479.726 341.744 490.035 332.921 506.235 319.682 525.381 349.099 511.635 365.767 508.199 369.691 505.868 371.773 502.983 372.019ZM518.018 400.393C516.914 400.209 515.808 399.598 515.072 398.617 513.108 397.146 511.635 393.224 511.635 390.282 511.635 387.34 514.09 387.83 517.526 391.263 520.472 394.204 521.945 398.126 520.963 399.598 520.226 400.333 519.123 400.578 518.018 400.393ZM363.377 406.033C340.673 404.376 316.249 399.107 290.721 390.282 234.266 370.672 193.027 350.568 189.099 340.274 183.701 326.056 197.445 295.658 217.082 277.519 227.884 267.712 238.684 259.868 241.139 259.868 244.082 259.868 246.538 267.223 247.52 275.556 249.975 299.58 264.212 299.58 268.63 276.046 274.521 244.668 278.448 240.256 304.467 240.256 318.213 240.256 335.885 244.18 347.178 250.063 357.977 255.455 369.269 259.868 372.704 259.868 377.124 259.868 378.104 263.79 376.141 271.636 374.67 278.498 376.141 291.736 379.086 302.032 383.995 316.249 389.886 321.642 408.05 329.978 423.269 336.841 427.689 340.765 422.287 342.235 411.978 344.196 411.487 345.666 418.852 358.414 422.78 366.748 425.234 367.239 431.123 362.335 435.051 358.904 437.505 352.04 437.016 346.157 434.561 328.997 449.287 334.389 453.707 352.04 460.089 375.574 449.78 393.224 425.723 400.087 407.07 405.726 386.083 407.686 363.377 406.033ZM571.54 420.863C572.337 421.046 573.565 420.311 575.284 418.596 582.156 411.731 575.774 395.553 567.919 398.984 564.482 399.965 559.082 398.493 555.648 395.553 551.228 391.14 550.248 392.61 551.721 401.926 552.7 410.261 555.648 413.692 562.029 412.711 566.446 411.731 570.373 414.183 570.373 417.616 570.373 419.575 570.741 420.678 571.54 420.863ZM479.617 428.393C487.962 424.96 489.435 408.78 482.073 404.369 479.617 402.899 477.162 403.879 477.162 406.33 477.162 409.271 475.689 411.234 473.726 411.234 464.398 409.761 462.436 412.213 467.344 421.529 470.289 426.921 475.198 429.864 479.617 428.393ZM604.725 445.867C599.142 445.804 594.111 443.478 590.184 438.82 586.746 434.898 582.329 431.466 580.364 431.466 577.909 431.466 575.455 434.407 574.475 437.839 573.491 440.779 568.582 443.232 562.693 442.251 549.927 440.29 517.526 379.496 525.381 371.652 532.254 364.787 600 398.617 618.164 417.736 631.419 431.956 631.912 432.444 622.585 439.309 616.446 443.722 610.31 445.928 604.725 445.867ZM482.566 450.176C463.606 450.185 436.595 449.8 413.952 447.377 383.762 444.146 338.351 441.003 317.241 430.707 301.039 422.863 289.75 420.902 275.021 422.863 261.277 424.824 246.057 421.882 223.965 413.547 218.567 411.525 213.687 409.763 209.268 408.268L170.481 393.862C159.545 389.093 155.642 390.225 133.135 378.516 110.629 366.806 55.5698 340.274 35.4419 323.605 22.1871 312.327 19.7324 308.406 24.1507 303.504 30.0417 297.619 181.247 282.911 188.118 287.323 190.083 288.305 188.118 298.599 184.19 309.878 169.954 350.568 185.663 363.808 289.738 399.598 346.685 419.208 384.979 421.66 427.689 408.912 450.76 402.05 454.687 399.107 461.562 381.947L468.924 362.826 490.526 402.05C501.817 423.621 511.635 443.722 511.635 446.664 511.635 450.095 514.662 449.977 498.381 450.095 494.312 450.126 488.885 450.172 482.566 450.176ZM310.367 465.622C324.112 465.622 334.912 463.659 334.912 460.719 334.912 458.267 327.058 455.815 317.73 455.815 306.93 455.815 299.076 452.875 297.603 448.462 293.185 436.696 285.821 440.125 285.821 453.365 285.821 464.641 287.294 465.622 310.367 465.622ZM239.186 468.949C228.384 469.931 208.747 466.498 195.003 461.596 173.401 454.241 170.455 451.299 168.982 438.553 166.528 411.096 172.91 408.155 210.712 420.412 252.929 434.139 254.895 435.611 256.857 453.261 258.822 467.479 257.841 467.97 239.186 468.949ZM506.724 475.59C504.271 475.59 501.817 472.159 501.817 467.746 501.817 463.822 504.271 461.863 506.724 463.333 509.672 464.804 511.635 468.237 511.635 471.177 511.635 473.629 509.672 475.59 506.724 475.59ZM369.524 501.982C363.266 502.777 356.76 501.307 352.587 497.385 345.224 490.031 345.224 480.225 352.097 457.182 354.06 451.299 372.715 451.299 383.024 457.672 389.406 461.596 390.879 484.148 384.988 492.972 381.797 498.121 375.784 501.185 369.524 501.982ZM525.381 502.555C523.417 504.516 511.635 491.77 511.635 487.847 511.635 481.964 520.472 485.886 523.417 493.239 525.381 497.653 525.872 502.064 525.381 502.555ZM563.429 518.873C551.369 521.033 545.387 513.954 534.709 492.259 526.854 477.062 521.454 464.313 522.435 463.333 530.29 457.45 557.783 446.664 560.727 448.625 566.62 452.058 590.184 495.202 590.184 502.555 590.184 505.497 584.782 510.89 577.909 513.832 572.142 516.405 567.448 518.151 563.429 518.873ZM292.696 523.368 284.841 508.171C274.041 486.108 264.222 447.866 267.659 438.553 275.021 419.921 335.896 442.473 338.842 465.027 339.824 471.399 338.351 478.755 335.405 481.697 332.46 484.638 330.005 490.522 330.005 494.933 330.005 498.857 321.66 507.19 311.35 513.075ZM421.807 529.253C412.479 529.253 388.915 514.056 388.915 507.68 388.915 502.288 400.206 475.323 402.663 475.323 404.135 475.323 412.479 480.715 421.807 488.071 430.643 494.933 438.008 498.366 438.008 496.405 438.008 494.442 439.479 487.089 441.443 480.715 443.898 470.909 442.918 469.931 434.57 472.381 422.788 476.305 398.735 467.97 398.735 460.615 398.735 450.808 432.116 455.221 442.918 466.498 455.189 479.734 455.189 482.188 442.918 508.66 435.554 524.35 430.643 529.253 421.807 529.253ZM201.937 606.778C200.279 607.697 195.492 600.343 188.619 584.165 174.382 551.317 168.001 521.9 168.492 490.031L168.982 463.065 178.31 507.19C183.221 531.705 191.565 564.062 196.474 579.752 202.121 596.667 203.592 605.859 201.937 606.778ZM235.258 635.643C232.311 638.095 213.656 600.834 205.312 575.828 193.53 539.549 183.221 485.128 186.165 477.284 189.11 468.949 203.347 468.459 211.202 476.305 214.638 479.734 217.094 496.896 217.094 519.448 217.094 541.019 221.511 573.378 226.911 595.442 232.311 616.522 236.238 634.663 235.258 635.643ZM270.4 642.303C270.129 642.592 269.868 642.508 269.621 642.018 258.33 615.542 250.475 485.128 260.295 485.128 262.257 485.128 268.15 496.896 272.566 511.114 279.93 532.684 280.422 544.943 276.986 592.99 274.838 620.016 272.314 640.285 270.4 642.303ZM258.33 651.331C257.349 652.313 252.929 645.448 249.002 635.643 228.384 586.126 218.074 470.909 234.765 477.284 239.186 478.755 243.602 480.225 244.586 480.225 245.567 480.225 246.548 501.797 246.548 528.274 247.04 554.257 249.986 592.5 253.422 612.6 257.349 632.703 259.312 650.353 258.33 651.331ZM359.738 656.761C352.211 659.782 355.47 642.814 369.279 605.736 375.17 589.559 381.061 566.025 382.533 552.785 384.006 539.549 387.442 527.783 390.388 525.822 396.77 521.9 391.37 577.791 383.515 594.951 377.133 608.678 381.551 619.464 388.915 607.697 391.37 603.777 395.788 587.107 399.224 569.945 402.663 552.297 407.57 539.549 410.517 540.529 422.299 544.943 406.097 601.814 384.988 629.76 372.654 645.939 364.255 654.949 359.738 656.761ZM311.841 669.535C310.614 669.349 309.632 666.777 307.914 661.629 305.95 655.255 307.421 621.916 310.86 587.107 316.748 529.253 318.223 522.391 329.024 515.526 347.678 503.268 351.115 512.584 345.224 562.101 342.278 586.126 336.387 617.013 331.478 630.251 327.058 643.487 320.676 658.196 317.241 663.099 314.541 667.512 313.068 669.718 311.841 669.535ZM315.769 685.836C313.927 684.425 316.996 678.298 325.096 667.512 335.896 652.803 353.078 586.126 357.496 542.982 359.46 521.409 361.915 514.545 367.806 514.545 379.588 514.545 373.697 562.101 356.024 614.071 346.696 640.056 342.769 657.707 345.715 660.647 348.66 663.59 344.733 669.473 335.896 675.846 324.36 683.935 317.609 687.245 315.769 685.836ZM293.185 699.38C290.73 699.871 278.459 692.025 266.186 681.239 249.986 667.512 246.548 662.119 252.929 661.629 257.841 661.629 268.15 668.491 275.513 676.337 290.241 693.006 297.605 691.534 290.241 672.906 285.33 659.668 284.35 580.734 288.768 552.785 290.73 541.019 294.659 534.157 299.078 534.157 305.459 534.157 305.95 539.549 302.514 567.495 300.059 585.635 298.096 622.405 298.096 648.881 298.096 676.828 296.132 698.399 293.185 699.38ZM279.993 744.915C282.262 745.71 285.577 742.033 287.786 733.21 290.73 721.932 291.714 721.442 303.987 727.815 320.676 736.641 326.569 731.739 311.841 721.932 305.459 717.522 300.55 712.617 300.55 710.655 300.55 708.205 312.332 699.871 326.569 692.025 376.151 663.59 408.552 624.368 418.372 580.734 422.299 564.553 431.408 553.598 438.498 534.157 445.588 514.715 469.101 479.761 460.906 464.086L450.321 460.67 480.794 462.203 484.39 464.375C487.581 467.5 489.789 471.913 491.999 478.53 494.942 487.356 500.344 496.672 503.781 498.635 507.217 501.085 513.108 507.458 516.054 513.832 519.49 520.206 524.89 524.128 528.326 523.146 531.272 521.678 538.147 523.637 543.054 527.07 545.387 528.786 547.687 529.95 550.28 530.502 552.224 530.915 554.333 530.985 556.74 530.682 563.966 529.778 573.89 525.537 590.184 517.263 600 512.362 603.439 507.458 601.473 502.064 599.019 495.692 600.493 494.711 608.837 497.653 621.603 501.574 624.057 490.298 612.275 480.493 604.421 473.629 602.455 460.883 609.328 460.883 611.783 460.883 616.202 464.313 619.637 468.237 626.512 476.081 639.276 478.042 639.276 471.177 639.276 468.727 636.328 465.785 633.385 464.313 628.474 462.843 628.966 459.902 634.856 453.038 650.567 434.407 649.094 429.015 623.075 408.424 608.837 397.635 581.837 380.966 562.693 371.161 525.872 352.531 517.036 340.274 527.836 323.114 532.254 316.249 531.763 310.366 527.345 297.619 523.909 288.795 521.454 275.556 521.454 269.184 521.454 253.985 504.763 235.354 491.017 235.354 482.671 235.354 481.69 233.393 484.633 224.568 498.872 178.973 488.562 160.341 441.925 145.143 436.032 143.672 433.089 137.299 433.089 127.983 433.089 115.236 435.051 113.765 454.198 110.823 477.271 107.392 505.745 92.1926 509.672 80.9161 514.09 69.64 498.381 49.5385 478.253 40.7135 468.435 36.791 456.16 31.3979 451.744 28.9468 446.833 26.4953 439.471 24.5344 435.543 24.5344 424.252 24.5344 356.013 59.8342 362.886 62.2856 366.322 63.2661 373.197 62.2856 378.597 59.344 393.814 51.0091 398.723 52.9704 398.723 67.6788 398.723 75.0328 402.159 87.2897 406.088 95.1343 418.36 118.177 414.432 147.104 399.215 147.104 394.795 147.104 382.032 152.007 371.724 157.4 360.922 163.283 343.249 169.657 332.449 171.618 321.649 173.58 309.376 176.52 304.958 178.482 298.576 181.424 295.137 174.559 286.303 139.26 280.412 116.216 275.994 96.6053 276.975 96.1147 277.955 95.1343 288.757 91.2122 301.03 86.7995 313.303 81.8969 329.994 72.0915 337.849 64.2469 345.704 56.8929 369.269 43.1649 389.886 33.8497 410.998 24.5344 428.178 15.7094 428.178 13.7482 428.178 7.37459 419.834 9.33582 397.25 19.1413 363.868 33.8497 356.995 35.8105 363.868 27.4761 366.815 23.5536 375.159 19.1413 381.541 17.6703 388.414 15.7094 393.814 12.2771 393.814 9.33582 393.814 6.39415 389.395 5.41335 383.995 7.37459 378.597 9.33582 374.177 8.35502 374.177 5.41335 374.177-2.43088 360.922-0.960223 347.178 7.8648 336.867 14.7286 334.413 14.7286 320.667 7.8648 311.34 2.96225 293.176 0.0202152 271.085 0.0202152 238.684 0.0202152 234.757 1.00101 221.502 14.2384 201.865 34.3399 202.845 59.8342 224.446 76.5038 233.284 82.8774 242.611 88.2701 245.555 88.2701 251.448 88.2701 262.248 121.119 272.066 166.715 277.466 193.19 276.975 195.151 264.702 213.293 257.337 224.077 251.448 234.864 251.448 237.804 251.448 240.747 245.066 245.65 237.7 249.083 229.846 252.022 219.047 259.377 213.154 264.771 204.809 272.615 195.972 274.576 169.462 274.576 82.5706 275.067 12.5838 288.803 1.0773 305.954-10.4292 323.105 74.5271 356.994 100.425 377.481 126.323 397.97 154.973 397.469 156.465 428.884 157.957 460.296 157.201 566.025 173.401 585.144 175.855 588.087 185.183 601.814 194.019 615.052 202.365 628.779 224.456 654.274 242.62 672.415 272.566 702.322 274.532 706.243 266.186 710.655 261.277 713.107 253.422 715.559 249.002 715.559 244.586 715.559 242.62 718.01 244.093 720.951 246.057 723.893 249.986 724.875 253.422 723.893 280.914 713.598 281.895 713.598 278.459 729.776 276.494 738.847 277.723 744.118 279.993 744.915Z" fill="#1C132F" fill-rule="evenodd" transform="matrix(1 0 0 -1 1804 1626)"/><path d="M2343.23 905.513 2362.02 902.919 2374.91 903.289 2390.39 903.289 2410.65 905.885 2436.07 912.188 2452.28 918.489 2465.91 926.275 2478.81 937.397 2484.33 952.598 2486.92 968.911 2479.91 991.155 2468.49 1010.06 2443.81 1027.12 2420.6 1037.87 2396.28 1044.17 2365.7 1050.1 2322.23 1039.72 2314.49 1039.35 2310.44 1051.22 2307.5 1067.16 2301.6 1078.65 2289.44 1087.92 2287.23 1077.54 2295.34 1055.67 2296.44 1040.46 2300.86 1030.45 2281.71 1013.77 2271.75 995.976 2269.92 977.067 2274.33 955.563 2287.6 937.769 2305.28 924.421 2324.07 911.446 2343.23 905.513Z" fill="#FFFFFF" fill-rule="evenodd"/><path d="M2404.38 929.674C2403.24 929.674 2391.64 936.241 2378.45 944.168L2354.34 958.662 2352.97 972.93C2351.16 991.728 2349.79 994.672 2342.74 995.576 2334.33 996.483 2332.96 1006.67 2340.47 1011.88 2347.06 1016.41 2349.79 1016.41 2355.7 1011.43 2359.57 1008.26 2360.71 1003.96 2361.84 987.197L2363.44 966.816 2375.27 959.341C2388.46 951.415 2395.96 949.831 2393.69 955.719 2393 957.758 2392.32 964.777 2392.32 971.571 2392.32 982.216 2391.42 984.481 2385.27 990.594 2379.81 995.804 2378.45 998.52 2379.59 1002.82 2382.32 1013.92 2396.65 1011.88 2401.19 999.655 2402.33 996.483 2403.92 979.498 2404.61 961.606 2405.52 943.942 2405.29 929.447 2404.38 929.674ZM2406.43 924.919C2410.29 924.919 2410.52 927.41 2409.15 961.606 2407.79 993.312 2406.88 999.427 2403.01 1004.86 2397.56 1012.79 2390.73 1015.51 2383.23 1012.79 2371.85 1008.49 2370.94 997.615 2380.95 988.329 2386.86 982.895 2387.77 980.403 2387.77 970.212 2387.77 963.871 2387.09 958.89 2386.18 959.341 2367.53 968.174 2367.31 968.402 2367.08 979.045 2366.85 996.709 2363.67 1011.43 2359.12 1014.83 2349.11 1022.07 2330.91 1015.73 2330.91 1004.64 2330.91 996.709 2333.19 993.539 2340.47 990.821 2345.7 988.782 2346.61 986.971 2348.2 972.25L2350.25 955.944 2376.41 940.319C2390.73 931.939 2404.15 924.919 2406.43 924.919Z" fill="#FF9797" fill-rule="evenodd"/><path d="M105.124 194.996C135.211 195.464 170.798 190.184 193.339 175.646 217.89 159.815 230.07 130.636 216.413 107.843 201.469 71.3858 152.332 45.3449 98.6652 45.3449 81.2297 45.3449 61.9819 49.1944 54.0567 54.1762 47.4894 58.4786 53.3772 58.4786 66.2843 54.1762 115.196 38.0989 193.091 66.1776 210.98 106.032 220.037 126.411 220.368 148.595 199.658 165.812 169.489 190.894 94.8269 195.208 62.6828 184.304 21.5289 169.465-2.9159 134.668 6.79281 100.39 10.1894 88.1624 26.2669 70.2734 33.7392 70.2734 39.4003 70.2734 39.4003 68.9146 33.7392 58.272 31.2485 53.5167 29.6635 48.7613 30.3426 47.629 31.0218 46.4967 29.6635 38.7981 26.9461 30.4194 20.8321 10.2661 21.2853 8.68126 30.3426 19.3239 36.0037 25.8905 38.2683 30.6459 38.2683 36.307 38.2683 44.6854 47.3259 62.1215 48.9109 57.1397 49.5901 55.5545 48.9109 52.8373 47.5522 51.252 45.2877 48.5349 44.1556 42.8737 43.0236 29.061 42.7969 28.3816 38.0416 21.5881 32.3809 13.8895 21.7379-0.150013 14.0389-4.45242 16.3034 5.28434 17.2092 8.00188 18.3413 14.795 19.2471 20.4562 20.1529 26.117 22.1911 33.5899 24.0024 36.9864 25.814 40.383 26.7198 45.1383 26.0403 47.1765 25.3611 49.2143 26.2669 54.196 28.3048 57.8191 31.4751 64.1593 31.4751 64.8387 27.8519 66.8768-4.07612 85.6709-9.05805 124.619 16.0768 158.585 22.6437 167.416 47.3259 184.174 60.9123 188.703 70.9992 192.364 87.072 194.715 105.124 194.996Z" fill="#1C132F" fill-rule="evenodd" transform="matrix(1 0 0 -1 2268 1096)"/></g></svg>