<svg width="1144" height="643" xmlns="http://www.w3.org/2000/svg" xmlns:xlink="http://www.w3.org/1999/xlink" overflow="hidden"><defs><clipPath id="clip0"><rect x="1701" y="1344" width="1144" height="643"/></clipPath></defs><g clip-path="url(#clip0)" transform="translate(-1701 -1344)"><rect x="1701" y="1344" width="1144" height="643" fill="#1C132F"/><rect x="1701" y="1344" width="1144" height="166" fill="#2A2A3C"/><path d="M1751 1424.64C1751 1418.76 1755.76 1414 1761.64 1414L1996.36 1414C2002.24 1414 2007 1418.76 2007 1424.64L2007 1429.36C2007 1435.24 2002.24 1440 1996.36 1440L1761.64 1440C1755.76 1440 1751 1435.24 1751 1429.36Z" fill="#E8EAED" fill-rule="evenodd"/><path d="M1814 1601.46C1814 1590.16 1823.16 1581 1834.46 1581L2048.54 1581C2059.84 1581 2069 1590.16 2069 1601.46L2069 1610.54C2069 1621.84 2059.84 1631 2048.54 1631L1834.46 1631C1823.16 1631 1814 1621.84 1814 1610.54Z" fill="#EF6F6C" fill-rule="evenodd"/><path d="M1814 1678.55C1814 1674.93 1816.93 1672 1820.55 1672L2327.45 1672C2331.07 1672 2334 1674.93 2334 1678.55L2334 1681.45C2334 1685.07 2331.07 1688 2327.45 1688L1820.55 1688C1816.93 1688 1814 1685.07 1814 1681.45Z" fill="#E8EAED" fill-rule="evenodd"/><path d="M1814 1718.55C1814 1714.93 1816.93 1712 1820.55 1712L2353.45 1712C2357.07 1712 2360 1714.93 2360 1718.55L2360 1721.45C2360 1725.07 2357.07 1728 2353.45 1728L1820.55 1728C1816.93 1728 1814 1725.07 1814 1721.45Z" fill="#E8EAED" fill-rule="evenodd"/><path d="M1814 1758.96C1814 1755.11 1817.11 1752 1820.96 1752L2301.04 1752C2304.89 1752 2308 1755.11 2308 1758.96L2308 1762.04C2308 1765.89 2304.89 1769 2301.04 1769L1820.96 1769C1817.11 1769 1814 1765.89 1814 1762.04Z" fill="#E8EAED" fill-rule="evenodd"/><path d="M1814 1798.96C1814 1795.11 1817.11 1792 1820.96 1792L2262.04 1792C2265.89 1792 2269 1795.11 2269 1798.96L2269 1802.04C2269 1805.89 2265.89 1809 2262.04 1809L1820.96 1809C1817.11 1809 1814 1805.89 1814 1802.04Z" fill="#E8EAED" fill-rule="evenodd"/><path d="M1814 1866.64C1814 1860.76 1818.76 1856 1824.64 1856L2024.36 1856C2030.24 1856 2035 1860.76 2035 1866.64L2035 1871.36C2035 1877.24 2030.24 1882 2024.36 1882L1824.64 1882C1818.76 1882 1814 1877.24 1814 1871.36Z" fill="#224C87" fill-rule="evenodd"/><path d="M2576.5 1532.83C2576.5 1511.11 2594.11 1493.5 2615.83 1493.5L2773.17 1493.5C2794.89 1493.5 2812.5 1511.11 2812.5 1532.83L2812.5 1730.17C2812.5 1751.89 2794.89 1769.5 2773.17 1769.5L2615.83 1769.5C2594.11 1769.5 2576.5 1751.89 2576.5 1730.17Z" stroke="#2A2A3C" stroke-width="4.58333" stroke-miterlimit="8" fill-rule="evenodd"/><path d="M2647 1424.64C2647 1418.76 2651.76 1414 2657.64 1414L2801.36 1414C2807.24 1414 2812 1418.76 2812 1424.64L2812 1429.36C2812 1435.24 2807.24 1440 2801.36 1440L2657.64 1440C2651.76 1440 2647 1435.24 2647 1429.36Z" fill="#E8EAED" fill-rule="evenodd"/></g></svg>