<svg width="1143" height="643" xmlns="http://www.w3.org/2000/svg" xmlns:xlink="http://www.w3.org/1999/xlink" overflow="hidden"><defs><clipPath id="clip0"><rect x="342" y="1344" width="1143" height="643"/></clipPath></defs><g clip-path="url(#clip0)" transform="translate(-342 -1344)"><rect x="342" y="1344" width="1143" height="643" fill="#F7F5FB"/><rect x="342" y="1344" width="1143" height="166" fill="#E1E1EA"/><path d="M391 1424.64C391 1418.76 395.763 1414 401.639 1414L636.361 1414C642.237 1414 647 1418.76 647 1424.64L647 1429.36C647 1435.24 642.237 1440 636.361 1440L401.639 1440C395.763 1440 391 1435.24 391 1429.36Z" fill="#1A1D22" fill-rule="evenodd"/><path d="M454 1601.46C454 1590.16 463.16 1581 474.46 1581L688.541 1581C699.84 1581 709 1590.16 709 1601.46L709 1610.54C709 1621.84 699.84 1631 688.541 1631L474.46 1631C463.16 1631 454 1621.84 454 1610.54Z" fill="#EF6F6C" fill-rule="evenodd"/><path d="M454 1678.55C454 1674.93 456.931 1672 460.547 1672L967.453 1672C971.068 1672 974 1674.93 974 1678.55L974 1681.45C974 1685.07 971.068 1688 967.453 1688L460.547 1688C456.931 1688 454 1685.07 454 1681.45Z" fill="#1A1D22" fill-rule="evenodd"/><path d="M454 1718.55C454 1714.93 456.931 1712 460.547 1712L993.453 1712C997.069 1712 1000 1714.93 1000 1718.55L1000 1721.45C1000 1725.07 997.069 1728 993.453 1728L460.547 1728C456.931 1728 454 1725.07 454 1721.45Z" fill="#1A1D22" fill-rule="evenodd"/><path d="M454 1758.96C454 1755.11 457.114 1752 460.956 1752L941.044 1752C944.886 1752 948 1755.11 948 1758.96L948 1762.04C948 1765.89 944.886 1769 941.044 1769L460.956 1769C457.114 1769 454 1765.89 454 1762.04Z" fill="#1A1D22" fill-rule="evenodd"/><path d="M454 1798.96C454 1795.11 457.115 1792 460.956 1792L902.043 1792C905.885 1792 909 1795.11 909 1798.96L909 1802.04C909 1805.89 905.885 1809 902.043 1809L460.956 1809C457.115 1809 454 1805.89 454 1802.04Z" fill="#1A1D22" fill-rule="evenodd"/><path d="M454 1866.64C454 1860.76 458.763 1856 464.639 1856L664.361 1856C670.237 1856 675 1860.76 675 1866.64L675 1871.36C675 1877.24 670.237 1882 664.361 1882L464.639 1882C458.763 1882 454 1877.24 454 1871.36Z" fill="#1D3557" fill-rule="evenodd"/><path d="M1216.5 1533C1216.5 1511.19 1234.19 1493.5 1256 1493.5L1414 1493.5C1435.81 1493.5 1453.5 1511.19 1453.5 1533L1453.5 1730C1453.5 1751.82 1435.81 1769.5 1414 1769.5L1256 1769.5C1234.19 1769.5 1216.5 1751.82 1216.5 1730Z" stroke="#E1E1EA" stroke-width="4.58333" stroke-miterlimit="8" fill="#FFFFFF" fill-rule="evenodd"/><path d="M1287 1424.64C1287 1418.76 1291.76 1414 1297.64 1414L1442.36 1414C1448.24 1414 1453 1418.76 1453 1424.64L1453 1429.36C1453 1435.24 1448.24 1440 1442.36 1440L1297.64 1440C1291.76 1440 1287 1435.24 1287 1429.36Z" fill="#1A1D22" fill-rule="evenodd"/></g></svg>