<svg width="1144" height="643" xmlns="http://www.w3.org/2000/svg" xmlns:xlink="http://www.w3.org/1999/xlink" overflow="hidden"><defs><clipPath id="clip0"><rect x="3061" y="1344" width="1144" height="643"/></clipPath></defs><g clip-path="url(#clip0)" transform="translate(-3061 -1344)"><rect x="3061" y="1344" width="1144" height="643" fill="#FFE4E0"/><rect x="3061" y="1344" width="1144" height="166" fill="#93524E"/><path d="M3111 1424.64C3111 1418.76 3115.76 1414 3121.64 1414L3355.36 1414C3361.24 1414 3366 1418.76 3366 1424.64L3366 1429.36C3366 1435.24 3361.24 1440 3355.36 1440L3121.64 1440C3115.76 1440 3111 1435.24 3111 1429.36Z" fill="#FFFFFF" fill-rule="evenodd"/><path d="M3174 1601.46C3174 1590.16 3183.16 1581 3194.46 1581L3408.54 1581C3419.84 1581 3429 1590.16 3429 1601.46L3429 1610.54C3429 1621.84 3419.84 1631 3408.54 1631L3194.46 1631C3183.16 1631 3174 1621.84 3174 1610.54Z" fill="#EF6F6C" fill-rule="evenodd"/><path d="M3174 1678.55C3174 1674.93 3176.93 1672 3180.55 1672L3686.45 1672C3690.07 1672 3693 1674.93 3693 1678.55L3693 1681.45C3693 1685.07 3690.07 1688 3686.45 1688L3180.55 1688C3176.93 1688 3174 1685.07 3174 1681.45Z" fill="#FFFFFF" fill-rule="evenodd"/><path d="M3174 1718.55C3174 1714.93 3176.93 1712 3180.55 1712L3712.45 1712C3716.07 1712 3719 1714.93 3719 1718.55L3719 1721.45C3719 1725.07 3716.07 1728 3712.45 1728L3180.55 1728C3176.93 1728 3174 1725.07 3174 1721.45Z" fill="#FFFFFF" fill-rule="evenodd"/><path d="M3174 1758.96C3174 1755.11 3177.11 1752 3180.96 1752L3660.04 1752C3663.89 1752 3667 1755.11 3667 1758.96L3667 1762.04C3667 1765.89 3663.89 1769 3660.04 1769L3180.96 1769C3177.11 1769 3174 1765.89 3174 1762.04Z" fill="#FFFFFF" fill-rule="evenodd"/><path d="M3174 1798.96C3174 1795.11 3177.11 1792 3180.96 1792L3621.04 1792C3624.89 1792 3628 1795.11 3628 1798.96L3628 1802.04C3628 1805.89 3624.89 1809 3621.04 1809L3180.96 1809C3177.11 1809 3174 1805.89 3174 1802.04Z" fill="#FFFFFF" fill-rule="evenodd"/><path d="M3174 1866.64C3174 1860.76 3178.76 1856 3184.64 1856L3384.36 1856C3390.24 1856 3395 1860.76 3395 1866.64L3395 1871.36C3395 1877.24 3390.24 1882 3384.36 1882L3184.64 1882C3178.76 1882 3174 1877.24 3174 1871.36Z" fill="#0057AE" fill-rule="evenodd"/><path d="M3936.5 1532.83C3936.5 1511.11 3954.11 1493.5 3975.83 1493.5L4133.17 1493.5C4154.89 1493.5 4172.5 1511.11 4172.5 1532.83L4172.5 1730.17C4172.5 1751.89 4154.89 1769.5 4133.17 1769.5L3975.83 1769.5C3954.11 1769.5 3936.5 1751.89 3936.5 1730.17Z" stroke="#FFFFFF" stroke-width="4.58333" stroke-miterlimit="8" fill="#FFFFFF" fill-rule="evenodd"/><path d="M4006 1424.64C4006 1418.76 4010.76 1414 4016.64 1414L4161.36 1414C4167.24 1414 4172 1418.76 4172 1424.64L4172 1429.36C4172 1435.24 4167.24 1440 4161.36 1440L4016.64 1440C4010.76 1440 4006 1435.24 4006 1429.36Z" fill="#FFFFFF" fill-rule="evenodd"/></g></svg>