<svg width="1143" height="643" xmlns="http://www.w3.org/2000/svg" xmlns:xlink="http://www.w3.org/1999/xlink" xml:space="preserve" overflow="hidden"><defs><clipPath id="clip0"><rect x="342" y="2052" width="1143" height="643"/></clipPath></defs><g clip-path="url(#clip0)" transform="translate(-342 -2052)"><rect x="342" y="2052" width="1143" height="643" fill="#FFFFFC"/><rect x="342" y="2052" width="1143" height="167" fill="#2A2E47"/><path d="M391 2133.23C391 2127.58 395.58 2123 401.229 2123L636.77 2123C642.42 2123 647 2127.58 647 2133.23L647 2137.77C647 2143.42 642.42 2148 636.77 2148L401.229 2148C395.58 2148 391 2143.42 391 2137.77Z" fill="#FFFFFF" fill-rule="evenodd"/><path d="M454 2309.87C454 2298.34 463.343 2289 474.869 2289L688.132 2289C699.657 2289 709 2298.34 709 2309.87L709 2319.13C709 2330.66 699.657 2340 688.132 2340L474.869 2340C463.343 2340 454 2330.66 454 2319.13Z" fill="#00B0E0" fill-rule="evenodd"/><path d="M454 2386.96C454 2383.11 457.114 2380 460.956 2380L967.044 2380C970.885 2380 974 2383.11 974 2386.96L974 2390.04C974 2393.89 970.885 2397 967.044 2397L460.956 2397C457.114 2397 454 2393.89 454 2390.04Z" fill="#8F8073" fill-rule="evenodd"/><path d="M454 2426.96C454 2423.11 457.115 2420 460.956 2420L993.044 2420C996.885 2420 1000 2423.11 1000 2426.96L1000 2430.04C1000 2433.89 996.885 2437 993.044 2437L460.956 2437C457.115 2437 454 2433.89 454 2430.04Z" fill="#8F8073" fill-rule="evenodd"/><path d="M454 2467.55C454 2463.93 456.931 2461 460.547 2461L941.453 2461C945.069 2461 948 2463.93 948 2467.55L948 2470.45C948 2474.07 945.069 2477 941.453 2477L460.547 2477C456.931 2477 454 2474.07 454 2470.45Z" fill="#8F8073" fill-rule="evenodd"/><path d="M454 2507.96C454 2504.11 457.115 2501 460.956 2501L902.043 2501C905.885 2501 909 2504.11 909 2507.96L909 2511.04C909 2514.89 905.885 2518 902.043 2518L460.956 2518C457.115 2518 454 2514.89 454 2511.04Z" fill="#8F8073" fill-rule="evenodd"/><path d="M454 2575.64C454 2569.76 458.763 2565 464.639 2565L664.361 2565C670.237 2565 675 2569.76 675 2575.64L675 2580.36C675 2586.24 670.237 2591 664.361 2591L464.639 2591C458.763 2591 454 2586.24 454 2580.36Z" fill="#2A2E47" fill-rule="evenodd"/><path d="M1216.5 2242C1216.5 2220.19 1234.19 2202.5 1256 2202.5L1414 2202.5C1435.81 2202.5 1453.5 2220.19 1453.5 2242L1453.5 2439C1453.5 2460.81 1435.81 2478.5 1414 2478.5L1256 2478.5C1234.19 2478.5 1216.5 2460.81 1216.5 2439Z" stroke="#8F8073" stroke-width="4.58333" stroke-miterlimit="8" fill="#FFFFFF" fill-rule="evenodd"/><path d="M1287 2133.23C1287 2127.58 1291.58 2123 1297.23 2123L1442.77 2123C1448.42 2123 1453 2127.58 1453 2133.23L1453 2137.77C1453 2143.42 1448.42 2148 1442.77 2148L1297.23 2148C1291.58 2148 1287 2143.42 1287 2137.77Z" fill="#FFFFFF" fill-rule="evenodd"/></g></svg>