<svg width="265" height="266" xmlns="http://www.w3.org/2000/svg" xmlns:xlink="http://www.w3.org/1999/xlink" overflow="hidden"><defs><clipPath id="clip0"><rect x="81" y="227" width="265" height="266"/></clipPath><clipPath id="clip1"><rect x="233" y="261" width="65" height="58"/></clipPath><clipPath id="clip2"><rect x="233" y="261" width="65" height="58"/></clipPath><clipPath id="clip3"><rect x="233" y="261" width="65" height="58"/></clipPath><clipPath id="clip4"><rect x="233" y="261" width="65" height="58"/></clipPath></defs><g clip-path="url(#clip0)" transform="translate(-81 -227)"><path d="M285.784 260.843 550.784 260.843 550.784 525.843 285.784 525.843Z" fill="#DEF6FE" transform="matrix(1 0 0 1.00377 -204.784 -34.8274)"/><path d="M298.707 402.179C317.482 403.114 331.282 426.804 355.923 434.301 386.25 443.526 442.07 456.805 466.683 461.002 491.296 465.199 493.854 460.822 503.603 459.482 513.353 458.144 525.698 461.943 531.891 460.351 538.085 458.759 533.185 450.372 540.761 449.931 542.185 449.848 543.889 449.938 545.812 450.164L550.784 450.984 550.784 498.466 543.629 506.557 534.993 514.819 530.561 515.241C483.735 519.312 392.804 521.795 314.535 523.219L312.853 523.245 306.866 518.532C301.425 513.806 296.258 508.742 291.394 503.372L285.784 496.388 285.784 411.712 286.711 410.855C291.671 406.281 296.541 402.07 298.707 402.179Z" fill="#DFE3D5" fill-rule="evenodd" transform="matrix(1 0 0 1.00377 -204.784 -34.8274)"/><path d="M416.376 300.853C418.401 300.853 420.234 301.823 421.561 303.392L422.593 305.201 424.845 304.664C426.465 304.664 427.932 305.44 428.993 306.694L430.668 311.474 431.009 311.525C433.366 312.182 435.416 312.99 437.349 313.636 441.215 314.929 442.815 317.005 446.017 318.067 449.219 319.129 465.813 319.682 456.559 320.006 447.305 320.329 400.022 321.16 390.495 320.006 380.968 318.852 394.009 314.605 399.397 313.082L400.404 312.906 401.962 308.457C403.024 307.203 404.491 306.426 406.11 306.426 406.921 306.426 407.692 306.621 408.394 306.971L409.349 307.733 409.62 306.147C410.733 303.036 413.339 300.853 416.376 300.853Z" fill="#FFFFFF" fill-rule="evenodd" transform="matrix(1 0 0 1.00377 -204.784 -34.8274)"/><path d="M395.36 462.972C446.94 462.833 494.168 477.54 539.02 478.833L550.784 478.618 550.784 525.843 285.784 525.843 285.784 474.917 297.607 473.133C324.626 469.328 350.252 466.458 369.74 464.35 378.402 463.412 386.939 462.994 395.36 462.972Z" fill="#A5C84C" fill-rule="evenodd" transform="matrix(1 0 0 1.00377 -204.784 -34.8274)"/><path d="M381.431 475.869 386.081 480.772 402.588 489.409 405.611 497.113 398.171 501.549 385.616 505.051 370.272 502.483 364.227 493.845 369.109 485.441 375.619 480.305ZM425.837 472.835 435.37 475.169 447.226 479.371 450.482 481.706 449.319 487.075 442.577 493.378 433.277 493.611 421.187 491.511C421.11 488.553 421.033 485.596 420.955 482.639Z" fill="#9AE2FC" fill-rule="evenodd" transform="matrix(1 0 0 1.00377 -204.784 -34.8274)"/><path d="M387.675 437.89 398.583 438.815 398.351 443.669 404.154 455.688 392.549 453.607 384.89 440.664 387.675 437.89ZM447.787 393.974 453.821 398.829 453.125 408.305 455.678 417.319C454.982 417.319 454.285 419.977 453.589 419.977L450.572 418.244 440.128 404.607 447.787 393.974ZM409.959 385.545C413.41 385.596 417.257 386.058 419.703 386.347 422.966 386.732 423.34 386.694 426.28 387.965 429.219 389.236 433.048 390.276 434.79 392.588 436.53 394.899 437.381 398.327 436.878 401.371 436.376 404.414 434.519 409.229 431.772 410.847 429.026 412.465 423.417 408.998 420.4 411.078 417.383 413.159 414.636 419.823 413.669 423.329 412.703 426.834 416.763 429.877 414.598 432.112 412.431 434.346 405.778 435.964 400.672 436.735 395.567 437.505 388.255 437.235 383.962 436.735 379.668 436.234 378.779 436.234 374.91 433.73 371.042 431.226 363.744 425.936 360.752 421.711 357.761 417.486 356.846 411.656 356.962 408.382 357.078 405.108 358.225 404.273 361.449 402.064 364.672 399.855 370.578 397.364 376.303 395.13 382.028 392.896 390.731 390.238 395.798 388.658 400.865 387.079 402.722 386.039 406.706 385.654 407.703 385.557 408.809 385.528 409.959 385.545Z" fill="#D49E7A" fill-rule="evenodd" transform="matrix(1 0 0 1.00377 -204.784 -34.8274)"/><path d="M331.68 356.971C333.705 356.971 335.538 357.787 336.865 359.108L337.897 360.632 340.149 360.18C341.769 360.18 343.236 360.833 344.297 361.89L345.972 365.915 346.313 365.957C348.67 366.511 350.72 367.191 352.653 367.735 356.519 368.824 358.119 370.573 361.321 371.467 364.523 372.361 381.117 372.827 371.863 373.099 362.609 373.371 315.326 374.071 305.799 373.099 296.272 372.128 309.313 368.552 314.701 367.269L315.708 367.121 317.266 363.374C318.328 362.317 319.795 361.664 321.414 361.664 322.224 361.664 322.996 361.827 323.698 362.123L324.653 362.764 324.924 361.429C326.037 358.809 328.643 356.971 331.68 356.971Z" fill="#FFFFFF" fill-rule="evenodd" transform="matrix(1 0 0 1.00377 -204.784 -34.8274)"/><path d="M500.763 392.304C502.803 392.304 504.649 393.299 505.985 394.909L507.025 396.766 509.293 396.215C510.925 396.215 512.402 397.012 513.471 398.299L515.157 403.204 515.501 403.256C517.875 403.931 519.94 404.76 521.889 405.424 525.781 406.75 527.392 408.881 530.618 409.971 533.84 411.061 550.556 411.629 541.234 411.961 531.917 412.292 484.291 413.145 474.696 411.961 465.1 410.777 478.235 406.419 483.662 404.855L484.676 404.674 486.246 400.108C487.315 398.82 488.792 398.024 490.424 398.024 491.239 398.024 492.017 398.223 492.723 398.583L493.686 399.364 493.958 397.737C495.079 394.544 497.704 392.304 500.763 392.304Z" fill="#FFFFFF" fill-rule="evenodd" transform="matrix(1 0 0 1.00377 -204.784 -34.8274)"/><path d="M483.089 375.258 488.413 378.28 485.867 382.696 481.7 387.346 469.895 393.855 456.006 399.202 454.154 395.018 462.719 377.582 457.858 378.512 469.895 375.723ZM383.631 300.325 392.582 303.579 405.39 311.484 414.34 319.233 419.278 326.981 422.519 333.956 426.686 347.284 434.71 361.232C434.762 363.401 434.813 365.572 434.864 367.741L432.241 372.39 427.338 373.671 431.238 374.328C439.918 374.909 442.735 373.747 446.516 373.63 450.296 373.514 452.457 372.971 453.923 373.63 455.389 374.289 457.048 373.786 455.312 377.582 453.576 381.379 446.477 391.918 443.507 396.412 440.536 400.907 438.452 403.89 437.488 404.548 436.524 405.207 438.53 402.689 437.72 400.365 436.91 398.04 437.681 392.925 432.627 390.601 427.573 388.276 417.89 384.983 407.396 386.416 396.902 387.85 378.076 395.986 369.665 399.202 361.255 402.418 359.056 403.348 356.934 405.711 354.812 408.075 356.548 410.671 356.934 413.383 357.32 416.095 359.866 419.969 359.249 421.984 358.632 423.998 361.525 425.974 353.23 425.471 344.936 424.967 316.966 421.015 309.481 418.962 301.997 416.908 305.508 415.862 308.324 413.15 311.14 410.438 319.589 406.331 326.379 402.689 333.169 399.047 337.722 396.722 349.064 391.298 350.482 390.62 352.046 389.822 353.723 388.939L357.6 386.858 353.23 386.183 350.761 381.379 350.144 358.287 355.237 337.21 364.959 322.487Z" fill="#EFB222" fill-rule="evenodd" transform="matrix(1 0 0 1.00377 -204.784 -34.8274)"/><path d="M436.155 407.475 447.522 412.582 453.785 422.333 452.625 431.156 447.522 434.87 441.259 437.656 444.738 446.71 443.81 455.533 438.011 459.48 428.5 462.962 422.237 461.801 404.608 455.301 399.041 443.693 402.056 436.728 414.35 429.762C414.428 426.977 414.505 424.191 414.582 421.405L416.902 414.207 421.541 410.725 426.877 409.797ZM463.295 353.845 475.126 356.166 476.982 361.042 471.414 374.971 462.6 377.758 457.033 385.651 453.553 394.474 448.217 395.17 454.945 374.043 446.362 371.257 451.001 360.113Z" fill="#F7A64A" fill-rule="evenodd" transform="matrix(1 0 0 1.00377 -204.784 -34.8274)"/><path d="M76.4473 23.6492C74.6188 23.6315 72.9197 23.4358 71.496 23.0447 69.5027 22.3334 66.7977 19.6307 65.231 16.6434 62.3841 11.3801 62.3841 11.3801 65.3739 7.39709 67.9366 3.84085 69.218 3.5563 78.7564 3.12956 88.5801 2.84509 89.5773 2.98728 94.1332 6.97038 99.8281 11.8068 99.401 14.7941 92.4247 19.4884 88.5807 22.1556 81.9338 23.7025 76.4473 23.6492ZM126.594 29.4571C122.831 29.0905 120.829 27.0633 118.906 22.4757 116.486 16.7857 120.757 13.5138 130.581 13.5138 136.703 13.5138 138.981 14.2251 141.829 16.9279 146.669 21.4799 146.527 23.6137 141.259 26.3164 138.981 27.4545 134.283 28.877 131.008 29.3037 129.3 29.5172 127.849 29.5794 126.594 29.4571ZM92.8518 59.7455C90.4315 59.7455 91.2858 54.4824 93.7061 53.4864 96.9806 52.206 97.6925 53.3445 95.6993 56.7583 94.8451 58.4652 93.5637 59.7455 92.8518 59.7455ZM91.6593 66.8403C90.2533 66.8938 88.7942 66.5732 88.1535 65.8624 87.0146 64.7239 86.8722 59.7455 87.8688 59.7455 90.0044 59.7455 95.5569 64.4397 94.8451 65.5776 94.4179 66.3602 93.0654 66.7868 91.6593 66.8403ZM127.164 71.1255C125.883 71.1255 122.323 63.8707 123.32 63.0175 123.604 62.7328 124.886 64.4397 126.025 66.7156 127.306 69.1338 127.733 71.1255 127.164 71.1255ZM123.604 72.5482C123.177 72.5482 122.181 71.2679 121.326 69.7028 120.472 68.1383 120.187 66.8579 120.472 66.8579 120.899 66.8579 121.896 68.1383 122.75 69.7028 123.604 71.2679 123.889 72.5482 123.604 72.5482ZM133.335 83.3991C132.734 83.1726 131.934 82.1859 131.293 80.7985 129.584 77.6689 129.584 77.6689 132.147 79.9448 133.571 81.368 134.283 82.7902 133.856 83.3591 133.713 83.4657 133.535 83.475 133.335 83.3991ZM142.54 89.6183C141.829 89.6183 139.693 86.6306 137.842 82.9325 135.991 79.0916 132.574 72.5482 130.154 68.2806 127.591 64.0131 125.598 59.1766 125.598 57.4697 125.598 55.9046 124.316 53.3445 122.75 51.9219 118.621 48.2232 119.048 44.0979 123.462 44.0979 128.161 44.0979 137.842 48.9344 138.981 51.9219 140.405 55.7622 139.835 60.3145 137.7 63.1594 134.568 67.2845 134.995 67.9964 140.832 70.4147 143.822 71.6945 146.669 73.4014 147.239 74.3974 149.09 77.2428 148.52 82.363 146.1 86.0621 144.818 88.0538 143.252 89.6183 142.54 89.6183ZM137.246 92.0984C136.365 91.8054 135.564 90.152 135.564 88.3375 135.706 86.4887 135.991 86.4887 137.13 88.6222 137.984 90.0449 138.412 91.4676 138.127 91.8942 137.842 92.1431 137.54 92.1966 137.246 92.0984ZM147.523 92.4632C145.53 92.4632 145.388 92.0366 147.096 90.0449 148.092 88.6222 149.232 87.2001 149.374 86.9153 149.659 86.6306 149.801 87.6267 149.801 89.3336 149.801 91.3252 148.947 92.4632 147.523 92.4632ZM124.316 93.8859C114.35 93.8859 109.509 86.204 113.211 75.8196 114.208 73.1166 113.638 72.5482 108.656 71.1255 102.533 69.5609 97.123 64.8663 97.123 61.4525 97.123 58.4652 103.957 49.7879 106.235 49.7879 108.798 49.7879 110.079 53.4864 109.082 57.612 108.513 60.0298 108.94 61.1682 111.076 61.8796 114.635 62.8751 121.326 73.9708 121.326 78.665 121.326 80.5143 123.32 84.4971 125.598 87.4843 128.018 90.4715 129.869 93.0322 129.869 93.3164 129.869 93.6011 127.306 93.8859 124.316 93.8859ZM164.131 100.698C166.551 99.8442 167.548 92.5894 165.554 90.5978 164.415 89.4604 163.988 90.0288 163.988 92.7318 163.988 94.8653 163.561 97.5683 162.992 98.9905 162.422 100.698 162.707 101.125 164.131 100.698ZM159.471 100.821C160.147 101.23 161.002 100.625 161.714 98.8476 162.568 96.287 161.429 92.446 159.578 92.446 158.866 92.446 158.297 94.4377 158.297 96.7141 158.297 98.99 158.795 100.412 159.471 100.821ZM145.868 107.933C145.032 108.004 144.035 107.542 142.398 106.546 139.266 104.697 139.123 99.149 142.113 96.5889 146.812 92.7479 152.364 101.283 148.378 106.119 147.381 107.257 146.705 107.862 145.868 107.933ZM150.229 116.166C149.908 116.112 149.588 115.935 149.374 115.65 148.805 115.224 148.378 114.086 148.378 113.232 148.378 112.378 149.09 112.521 150.086 113.517 150.94 114.37 151.367 115.508 151.083 115.935 150.869 116.148 150.549 116.219 150.229 116.166ZM105.381 117.802C98.7962 117.321 91.7129 115.793 84.3095 113.232 67.9366 107.542 55.9768 101.709 54.8379 98.7224 53.2723 94.5972 57.2582 85.7774 62.9531 80.5143 66.0858 77.6689 69.218 75.393 69.9299 75.393 70.7836 75.393 71.496 77.5271 71.7807 79.9448 72.4926 86.9153 76.6214 86.9153 77.9027 80.0872 79.6112 70.9831 80.7502 69.7028 88.2959 69.7028 92.2824 69.7028 97.4078 70.8413 100.683 72.5482 103.815 74.1127 107.09 75.393 108.086 75.393 109.368 75.393 109.652 76.531 109.082 78.8074 108.656 80.7985 109.082 84.6394 109.937 87.6267 111.36 91.7518 113.069 93.3164 118.337 95.7351 122.75 97.7263 124.032 98.8647 122.465 99.2913 119.476 99.8603 119.333 100.287 121.469 103.985 122.608 106.404 123.32 106.546 125.028 105.123 126.167 104.128 126.879 102.136 126.737 100.429 126.025 95.4504 130.296 97.0149 131.578 102.136 133.429 108.964 130.439 114.086 123.462 116.077 118.052 117.713 111.966 118.281 105.381 117.802ZM165.751 122.105C165.982 122.158 166.338 121.945 166.837 121.447 168.829 119.455 166.979 114.761 164.701 115.757 163.704 116.041 162.138 115.614 161.142 114.761 159.86 113.481 159.576 113.907 160.003 116.61 160.287 119.029 161.142 120.024 162.993 119.739 164.273 119.455 165.412 120.167 165.412 121.163 165.412 121.731 165.519 122.051 165.751 122.105ZM139.092 124.29C141.512 123.294 141.939 118.599 139.804 117.319 139.092 116.893 138.38 117.177 138.38 117.888 138.38 118.741 137.953 119.311 137.383 119.311 134.678 118.884 134.109 119.595 135.532 122.298 136.387 123.863 137.81 124.716 139.092 124.29ZM175.375 129.359C173.756 129.341 172.297 128.666 171.158 127.315 170.161 126.177 168.88 125.181 168.31 125.181 167.598 125.181 166.886 126.035 166.602 127.03 166.317 127.883 164.893 128.595 163.185 128.31 159.483 127.741 150.086 110.102 152.364 107.826 154.357 105.835 174.005 115.65 179.273 121.197 183.117 125.323 183.259 125.465 180.554 127.457 178.774 128.737 176.995 129.377 175.375 129.359ZM139.947 130.61C134.449 130.612 126.615 130.501 120.048 129.798 111.293 128.86 98.1227 127.948 92.0007 124.961 87.3019 122.685 84.0279 122.116 79.7562 122.685 75.7703 123.254 71.3562 122.4 64.9494 119.982 63.3838 119.395 61.9684 118.884 60.6871 118.45L49.4381 114.271C46.2665 112.887 45.1347 113.215 38.6074 109.818 32.0802 106.42 16.1124 98.7224 10.275 93.8859 6.43093 90.6139 5.71906 89.476 7.00047 88.0538 8.70894 86.3464 52.5604 82.0788 54.5531 83.3591 55.1231 83.6439 54.5531 86.6306 53.4141 89.9031 49.2854 101.709 53.8412 105.551 84.0242 115.935 100.54 121.625 111.646 122.336 124.032 118.637 130.723 116.646 131.862 115.793 133.856 110.814L135.991 105.266 142.256 116.646C145.53 122.905 148.378 128.737 148.378 129.591 148.378 130.586 149.255 130.552 144.534 130.586 143.354 130.595 141.78 130.609 139.947 130.61ZM90.007 135.091C93.9934 135.091 97.1256 134.522 97.1256 133.669 97.1256 132.957 94.8477 132.246 92.1426 132.246 89.0104 132.246 86.7324 131.393 86.3053 130.112 85.0239 126.699 82.8884 127.694 82.8884 131.535 82.8884 134.807 83.3155 135.091 90.007 135.091ZM69.3635 136.057C66.2308 136.341 60.5359 135.345 56.55 133.923 50.285 131.789 49.4308 130.935 49.0035 127.237 48.2917 119.271 50.1426 118.418 61.1059 121.974 73.3494 125.957 73.9194 126.384 74.4884 131.505 75.0584 135.63 74.7737 135.772 69.3635 136.057ZM146.953 137.983C146.242 137.983 145.53 136.988 145.53 135.708 145.53 134.569 146.242 134.001 146.953 134.427 147.808 134.854 148.378 135.85 148.378 136.703 148.378 137.414 147.808 137.983 146.953 137.983ZM107.163 145.641C105.348 145.872 103.462 145.445 102.252 144.307 100.116 142.174 100.116 139.328 102.109 132.642 102.679 130.935 108.089 130.935 111.079 132.785 112.929 133.923 113.357 140.467 111.648 143.027 110.723 144.521 108.979 145.41 107.163 145.641ZM152.364 145.807C151.795 146.376 148.378 142.678 148.378 141.54 148.378 139.833 150.94 140.971 151.795 143.104 152.364 144.385 152.506 145.665 152.364 145.807ZM163.398 150.542C159.901 151.168 158.166 149.114 155.069 142.82 152.791 138.411 151.225 134.711 151.51 134.427 153.788 132.72 161.761 129.591 162.615 130.16 164.324 131.156 171.158 143.674 171.158 145.807 171.158 146.661 169.591 148.225 167.598 149.079 165.925 149.826 164.564 150.332 163.398 150.542ZM84.8821 151.846 82.6041 147.437C79.4719 141.035 76.6245 129.939 77.6211 127.237 79.7562 121.831 97.4109 128.375 98.2651 134.919 98.5499 136.768 98.1227 138.902 97.2685 139.755 96.4143 140.608 95.7024 142.316 95.7024 143.596 95.7024 144.734 93.2821 147.152 90.2923 148.859ZM122.326 153.553C119.621 153.553 112.787 149.144 112.787 147.294 112.787 145.73 116.062 137.906 116.774 137.906 117.201 137.906 119.621 139.471 122.326 141.605 124.889 143.596 127.025 144.592 127.025 144.023 127.025 143.453 127.451 141.32 128.021 139.471 128.733 136.625 128.449 136.341 126.028 137.052 122.611 138.191 115.635 135.772 115.635 133.638 115.635 130.793 125.316 132.073 128.449 135.345 132.007 139.186 132.007 139.898 128.449 147.579 126.313 152.131 124.889 153.553 122.326 153.553ZM58.5608 176.047C58.0802 176.313 56.6918 174.18 54.6986 169.486 50.5697 159.955 48.719 151.42 48.8614 142.174L49.0035 134.349 51.7087 147.152C53.133 154.265 55.5528 163.653 56.9766 168.205 58.6144 173.113 59.041 175.78 58.5608 176.047ZM68.2245 184.422C67.3698 185.133 61.9596 174.322 59.5398 167.067 56.1228 156.541 53.133 140.751 53.9867 138.475 54.841 136.057 58.9698 135.914 61.2477 138.191 62.2443 139.186 62.9567 144.165 62.9567 150.709 62.9567 156.967 64.2376 166.356 65.8037 172.758 67.3698 178.874 68.5087 184.138 68.2245 184.422ZM78.4161 186.354C78.3376 186.438 78.2618 186.413 78.1901 186.272 74.9155 178.59 72.6375 140.751 75.4855 140.751 76.0545 140.751 77.7635 144.165 79.0443 148.29 81.1799 154.549 81.3228 158.106 80.3262 172.046 79.7032 179.888 78.971 185.769 78.4161 186.354ZM74.9155 188.974C74.6313 189.258 73.3494 187.267 72.2104 184.422 66.2308 170.055 63.241 136.625 68.0816 138.475 69.3635 138.902 70.6443 139.328 70.9296 139.328 71.2143 139.328 71.4986 145.587 71.4986 153.269 71.6415 160.808 72.4957 171.904 73.4923 177.736 74.6313 183.569 75.2002 188.69 74.9155 188.974ZM104.325 190.549C102.142 191.426 103.088 186.502 107.092 175.744 108.801 171.051 110.509 164.223 110.936 160.381 111.363 156.541 112.36 153.127 113.214 152.558 115.065 151.42 113.499 167.636 111.221 172.615 109.37 176.598 110.652 179.728 112.787 176.313 113.499 175.176 114.78 170.339 115.777 165.36 116.774 160.239 118.197 156.541 119.052 156.825 122.469 158.106 117.77 174.606 111.648 182.715 108.071 187.409 105.635 190.023 104.325 190.549ZM90.4346 194.255C90.0787 194.201 89.794 193.455 89.2956 191.961 88.7262 190.112 89.1528 180.439 90.1499 170.339 91.8578 153.553 92.2855 151.562 95.4177 149.571 100.828 146.014 101.824 148.717 100.116 163.084 99.2617 170.055 97.5533 179.016 96.1295 182.857 94.8477 186.698 92.9968 190.965 92.0007 192.388 91.2177 193.668 90.7906 194.308 90.4346 194.255ZM91.5736 198.985C91.0394 198.575 91.9295 196.798 94.2787 193.668 97.4109 189.401 102.394 170.055 103.675 157.537 104.245 151.278 104.957 149.286 106.665 149.286 110.082 149.286 108.374 163.084 103.248 178.163 100.543 185.702 99.4041 190.823 100.258 191.677 101.113 192.53 99.9736 194.237 97.4109 196.086 94.0651 198.434 92.1072 199.394 91.5736 198.985ZM85.0239 202.915C84.3121 203.057 80.7533 200.781 77.194 197.651 72.4957 193.668 71.4986 192.104 73.3494 191.961 74.7737 191.961 77.7635 193.952 79.8991 196.229 84.1702 201.065 86.3058 200.638 84.1702 195.233 82.746 191.392 82.4618 168.49 83.7431 160.381 84.3121 156.967 85.4516 154.976 86.7329 154.976 88.5838 154.976 88.7262 156.541 87.7295 164.649 87.0177 169.912 86.4482 180.581 86.4482 188.263 86.4482 196.371 85.8787 202.63 85.0239 202.915ZM81.1981 216.126C81.8564 216.357 82.8177 215.29 83.4584 212.73 84.3121 209.458 84.5974 209.316 88.1567 211.165 92.9968 213.726 94.7058 212.303 90.4346 209.458 88.5838 208.178 87.1601 206.755 87.1601 206.186 87.1601 205.475 90.577 203.057 94.7058 200.781 109.085 192.53 118.482 181.15 121.33 168.49 122.469 163.795 125.111 160.617 127.167 154.976 129.223 149.335 136.042 139.194 133.665 134.645L130.596 133.655 139.433 134.099 140.476 134.73C141.401 135.636 142.042 136.917 142.683 138.837 143.536 141.397 145.103 144.1 146.1 144.67 147.096 145.381 148.805 147.23 149.659 149.079 150.656 150.928 152.222 152.066 153.218 151.782 154.073 151.356 156.066 151.924 157.489 152.92 158.166 153.418 158.833 153.756 159.585 153.916 160.149 154.036 160.76 154.056 161.459 153.968 163.554 153.706 166.432 152.475 171.158 150.075 174.005 148.653 175.002 147.23 174.432 145.665 173.72 143.816 174.148 143.531 176.567 144.385 180.27 145.522 180.981 142.251 177.565 139.406 175.287 137.414 174.717 133.716 176.71 133.716 177.422 133.716 178.704 134.711 179.7 135.85 181.693 138.126 185.395 138.695 185.395 136.703 185.395 135.992 184.54 135.139 183.687 134.711 182.262 134.285 182.405 133.432 184.113 131.44 188.67 126.035 188.242 124.47 180.697 118.496 176.567 115.365 168.737 110.529 163.185 107.684 152.506 102.279 149.944 98.7224 153.076 93.7435 154.357 91.7518 154.215 90.0449 152.934 86.3464 151.937 83.7862 151.225 79.9448 151.225 78.096 151.225 73.6861 146.384 68.2806 142.398 68.2806 139.978 68.2806 139.693 67.7117 140.547 65.151 144.676 51.9219 141.686 46.5162 128.161 42.1063 126.452 41.6797 125.598 39.8304 125.598 37.1276 125.598 33.429 126.167 33.0024 131.72 32.1488 138.412 31.153 146.669 26.7432 147.808 23.4714 149.09 20.1997 144.534 14.3674 138.696 11.8068 135.849 10.6688 132.289 9.10405 131.008 8.39281 129.584 7.68152 127.449 7.1126 126.31 7.1126 123.035 7.1126 103.245 17.3546 105.238 18.0659 106.235 18.3504 108.229 18.0659 109.795 17.2124 114.208 14.7941 115.631 15.3631 115.631 19.6307 115.631 21.7644 116.628 25.3207 117.768 27.5967 121.326 34.2826 120.187 42.6754 115.774 42.6754 114.492 42.6754 110.791 44.0979 107.801 45.6627 104.669 47.3697 99.5434 49.219 96.4112 49.7879 93.279 50.3572 89.7197 51.2102 88.4383 51.7795 86.5874 52.6332 85.5903 50.6413 83.0281 40.3995 81.3197 33.7136 80.0383 28.0235 80.3231 27.8812 80.6073 27.5967 83.74 26.4587 87.2993 25.1785 90.8586 23.756 95.6993 20.911 97.9773 18.6349 100.255 16.5012 107.09 12.5181 113.069 9.81534 119.191 7.1126 124.174 4.55206 124.174 3.98304 124.174 2.1338 121.754 2.70281 115.204 5.5478 105.523 9.81534 103.53 10.3844 105.523 7.96611 106.378 6.82811 108.798 5.5478 110.648 5.12108 112.642 4.55206 114.208 3.5563 114.208 2.70281 114.208 1.84933 112.926 1.56478 111.36 2.1338 109.795 2.70281 108.513 2.41827 108.513 1.56478 108.513-0.711213 104.669-0.284468 100.683 2.27607 97.6925 4.26759 96.9806 4.26759 92.9942 2.27607 90.2891 0.853565 85.0214 0 78.6146 0 69.218 0 68.079 0.28455 64.235 4.12532 58.5401 9.95761 58.8243 17.3546 65.0887 22.1912 67.6519 24.0404 70.357 25.6051 71.2107 25.6051 72.9197 25.6051 76.0519 35.1361 78.8993 48.3655 80.4654 56.047 80.3231 56.616 76.7637 61.8796 74.6276 65.0087 72.9197 68.1383 72.9197 68.9915 72.9197 69.8452 71.0688 71.2679 68.9327 72.2639 66.6548 73.1166 63.5231 75.2506 61.8141 76.8157 59.3938 79.0916 56.8311 79.6606 49.1428 79.6606 23.943 79.8029 3.64592 83.7883 0.308832 88.7646-3.02818 93.7409 21.6103 103.573 29.1211 109.518 36.6318 115.463 44.9408 115.317 45.3735 124.432 45.806 133.546 45.5868 164.223 50.285 169.77 50.9969 170.624 53.702 174.606 56.2647 178.447 58.685 182.43 65.0918 189.827 70.3596 195.091 79.0443 203.768 79.6143 204.906 77.194 206.186 75.7703 206.897 73.4923 207.609 72.2104 207.609 70.9296 207.609 70.3596 208.32 70.7867 209.173 71.3562 210.027 72.4957 210.312 73.4923 210.027 81.4652 207.04 81.7499 207.04 80.7533 211.734 80.1833 214.366 80.5397 215.895 81.1981 216.126Z" fill="#1C132F" fill-rule="evenodd" transform="matrix(1 0 0 -1.00377 98.6667 473.18)"/><g clip-path="url(#clip1)"><g clip-path="url(#clip2)"><g clip-path="url(#clip3)"><g clip-path="url(#clip4)"><path d="M297.256 152.517 302.723 151.767 306.475 151.874 310.979 151.874 316.874 152.625 324.272 154.448 328.99 156.271 332.956 158.523 336.708 161.74 338.316 166.137 339.068 170.856 337.03 177.291 333.707 182.76 326.524 187.693 319.77 190.804 312.693 192.627 303.795 194.343 291.144 191.34 288.892 191.232 287.713 194.664 286.857 199.276 285.14 202.6 281.604 205.281 280.959 202.279 283.318 195.951 283.639 191.554 284.926 188.659 279.352 183.833 276.456 178.685 275.921 173.215 277.207 166.995 281.066 161.848 286.212 157.987 291.679 154.234 297.256 152.517Z" fill="#FFFFFF" fill-rule="evenodd" transform="matrix(1 0 0 1.00601 -42.2473 109.912)"/><path d="M315.001 159.568C314.676 159.568 311.343 161.472 307.554 163.771L300.629 167.975 300.237 172.112C299.715 177.564 299.323 178.418 297.298 178.68 294.882 178.943 294.49 181.899 296.646 183.409 298.54 184.723 299.323 184.723 301.021 183.278 302.132 182.358 302.459 181.11 302.785 176.25L303.243 170.339 306.64 168.172C310.429 165.873 312.584 165.414 311.931 167.121 311.735 167.712 311.54 169.748 311.54 171.718 311.54 174.805 311.278 175.462 309.515 177.235 307.946 178.746 307.554 179.534 307.881 180.782 308.665 184 312.781 183.409 314.087 179.863 314.414 178.943 314.87 174.017 315.067 168.828 315.328 163.706 315.262 159.502 315.001 159.568ZM315.59 158.189C316.7 158.189 316.765 158.911 316.373 168.828 315.981 178.023 315.72 179.797 314.609 181.373 313.042 183.672 311.081 184.46 308.926 183.672 305.659 182.424 305.398 179.271 308.273 176.578 309.97 175.002 310.232 174.28 310.232 171.324 310.232 169.485 310.037 168.041 309.776 168.172 304.418 170.733 304.354 170.799 304.288 173.886 304.223 179.009 303.309 183.278 302.001 184.263 299.126 186.365 293.901 184.526 293.901 181.307 293.901 179.009 294.554 178.089 296.646 177.301 298.148 176.71 298.409 176.184 298.865 171.915L299.454 167.186 306.967 162.655C311.081 160.225 314.937 158.189 315.59 158.189Z" fill="#FF9797" fill-rule="evenodd" transform="matrix(1 0 0 1.00601 -42.2473 109.912)"/><path d="M30.4795 56.5032C39.2115 56.6388 49.54 55.1086 56.0823 50.8956 63.2077 46.3078 66.7426 37.8516 62.779 31.246 58.4419 20.6808 44.1806 13.134 28.605 13.134 23.5446 13.134 17.9584 14.2497 15.6582 15.6934 13.7523 16.9402 15.461 16.9402 19.207 15.6934 33.4026 11.0341 56.0101 19.1714 61.202 30.7211 63.8307 36.6272 63.9268 43.056 57.916 48.0457 49.16 55.3143 27.491 56.5645 18.1617 53.4048 6.21773 49.1044-0.876885 39.02 1.94085 29.0861 2.92666 25.5427 7.59277 20.3583 9.76151 20.3583 11.4045 20.3583 11.4045 19.9646 9.76151 16.8803 9.03863 15.5022 8.57857 14.1241 8.77571 13.796 8.97285 13.4679 8.57857 11.2367 7.78991 8.8086 6.01545 2.96819 6.14696 2.50882 8.77571 5.59311 10.4187 7.49617 11.0759 8.87428 11.0759 10.5148 11.0759 12.9429 13.7047 17.9959 14.1647 16.5522 14.3619 16.0928 14.1647 15.3054 13.7704 14.846 13.1132 14.0585 12.7846 12.4179 12.456 8.41489 12.3903 8.21801 11.0102 6.24932 9.36723 4.01816 6.27837-0.0505086 4.04387-1.29736 4.70109 1.52446 4.96395 2.31195 5.29257 4.28064 5.55544 5.92119 5.81831 7.5618 6.40983 9.72737 6.93552 10.7117 7.46131 11.6961 7.72418 13.0742 7.52704 13.6648 7.3299 14.2554 7.59277 15.6991 8.18424 16.7491 9.10431 18.5865 9.10431 18.7834 8.05278 19.374-1.21369 24.8206-2.65954 36.1079 4.63535 45.9514 6.54124 48.5106 13.7047 53.3668 17.6479 54.6794 20.5754 55.7404 25.2402 56.4216 30.4795 56.5032Z" fill="#1C132F" fill-rule="evenodd" transform="matrix(1 0 0 -1.00601 233.245 318.796)"/></g></g></g></g></g></svg>