<svg width="177" height="177" xmlns="http://www.w3.org/2000/svg" xmlns:xlink="http://www.w3.org/1999/xlink" xml:space="preserve" overflow="hidden"><defs><clipPath id="clip0"><rect x="2839" y="508" width="177" height="177"/></clipPath></defs><g clip-path="url(#clip0)" transform="translate(-2839 -508)"><path d="M2927.5 508C2928.3 508 2928.98 508.24 2929.54 508.719 2930.1 509.198 2930.54 509.837 2930.86 510.636L2950.56 575.816 3012.28 575.816C3014.04 575.816 3015.2 576.655 3015.76 578.332 3016.33 580.01 3015.88 581.328 3014.44 582.286L2964.49 617.992 2983.46 680.057C2983.94 681.814 2983.5 683.212 2982.14 684.25 2980.78 685.289 2979.38 685.248 2977.94 684.13L2927.5 645.789 2877.06 684.13C2875.62 685.248 2874.22 685.289 2872.86 684.25 2871.5 683.212 2871.06 681.814 2871.54 680.057L2890.51 617.992 2840.56 582.286C2839.12 581.328 2838.67 580.01 2839.24 578.332 2839.8 576.655 2840.96 575.816 2842.72 575.816L2904.44 575.816 2924.14 510.636C2924.46 509.837 2924.9 509.198 2925.46 508.719 2926.02 508.24 2926.7 508 2927.5 508Z" fill="#0057AE" fill-rule="evenodd"/></g></svg>