<svg width="177" height="177" xmlns="http://www.w3.org/2000/svg" xmlns:xlink="http://www.w3.org/1999/xlink" xml:space="preserve" overflow="hidden"><defs><clipPath id="clip0"><rect x="1042" y="510" width="177" height="177"/></clipPath></defs><g clip-path="url(#clip0)" transform="translate(-1042 -510)"><path d="M1130.5 510C1131.3 510 1131.98 510.239 1132.54 510.719 1133.1 511.198 1133.54 511.837 1133.86 512.636L1153.56 577.817 1215.28 577.817C1217.04 577.817 1218.2 578.655 1218.76 580.332 1219.32 582.01 1218.88 583.328 1217.44 584.287L1167.49 619.992 1186.46 682.057C1186.94 683.814 1186.5 685.212 1185.14 686.25 1183.78 687.289 1182.38 687.249 1180.94 686.131L1130.5 647.789 1080.06 686.131C1078.62 687.249 1077.22 687.289 1075.86 686.25 1074.5 685.212 1074.06 683.814 1074.54 682.057L1093.51 619.992 1043.56 584.287C1042.12 583.328 1041.68 582.01 1042.24 580.332 1042.8 578.655 1043.96 577.817 1045.72 577.817L1107.44 577.817 1127.14 512.636C1127.46 511.837 1127.9 511.198 1128.46 510.719 1129.02 510.239 1129.7 510 1130.5 510ZM1130.5 551.217 1116.81 592.674 1080.54 592.674 1110.81 612.324 1097.6 653.78 1130.5 628.858 1163.4 653.78 1150.19 612.324 1180.46 592.674 1144.19 592.674 1130.5 551.217Z" fill="#0057AE" fill-rule="evenodd"/></g></svg>