<svg width="176" height="177" xmlns="http://www.w3.org/2000/svg" xmlns:xlink="http://www.w3.org/1999/xlink" xml:space="preserve" overflow="hidden"><defs><clipPath id="clip0"><rect x="1492" y="510" width="176" height="177"/></clipPath></defs><g clip-path="url(#clip0)" transform="translate(-1492 -510)"><path d="M1579.88 551.217 1566.25 592.673 1544.64 592.673 1544.64 602.125 1560.28 612.324 1547.12 653.78 1579.88 628.858 1612.65 653.78 1599.49 612.324 1629.62 592.673 1593.51 592.673 1579.88 551.217ZM1579.88 510C1580.68 510 1581.36 510.239 1581.92 510.719 1582.47 511.198 1582.91 511.837 1583.23 512.636L1602.84 577.816 1664.3 577.816C1666.05 577.816 1667.21 578.655 1667.77 580.332 1668.32 582.01 1667.88 583.328 1666.45 584.287L1616.71 619.992 1635.6 682.057C1636.08 683.814 1635.64 685.212 1634.29 686.25 1632.93 687.289 1631.54 687.249 1630.1 686.131L1579.88 647.789 1544.64 674.7 1544.64 674.753 1529.73 686.134C1528.3 687.247 1526.91 687.288 1525.57 686.254 1524.22 685.22 1523.78 683.828 1524.26 682.079L1543.06 620.285 1493.54 584.736C1492.11 583.782 1491.68 582.47 1492.23 580.799 1492.79 579.129 1493.94 578.294 1495.69 578.294L1544.64 578.294 1556.93 577.816 1576.54 512.636C1576.86 511.837 1577.29 511.198 1577.85 510.719 1578.41 510.239 1579.09 510 1579.88 510Z" fill="#0057AE" fill-rule="evenodd"/></g></svg>