<svg width="176" height="177" xmlns="http://www.w3.org/2000/svg" xmlns:xlink="http://www.w3.org/1999/xlink" xml:space="preserve" overflow="hidden"><defs><clipPath id="clip0"><rect x="1717" y="510" width="176" height="177"/></clipPath></defs><g clip-path="url(#clip0)" transform="translate(-1717 -510)"><path d="M1805.36 551.093 1791.8 592.426 1788.36 592.426 1788.36 641.463 1805.36 628.502 1837.94 653.35 1824.86 612.017 1854.83 592.426 1818.91 592.426 1805.36 551.093ZM1805.36 510C1806.15 510 1806.82 510.239 1807.38 510.717 1807.93 511.194 1808.37 511.831 1808.69 512.628L1828.19 577.613 1889.32 577.613C1891.06 577.613 1892.21 578.449 1892.77 580.122 1893.32 581.794 1892.89 583.108 1891.46 584.064L1841.99 619.662 1860.78 681.542C1861.25 683.294 1860.82 684.687 1859.47 685.723 1858.12 686.758 1856.73 686.718 1855.31 685.603L1805.36 647.377 1788.36 660.385 1755.24 686.118C1753.79 687.253 1752.38 687.293 1751 686.239 1749.63 685.186 1749.19 683.768 1749.67 681.984L1768.8 619.005 1718.44 582.774C1717.72 582.288 1717.24 581.71 1717.02 581.041 1717.02 580.984 1717.01 580.927 1717 580.871L1717 579.347 1717.11 578.762C1717.68 577.059 1718.85 576.208 1720.62 576.208L1782.84 576.208 1788.36 557.806 1788.36 558.166 1802.03 512.628C1802.34 511.831 1802.78 511.194 1803.34 510.717 1803.89 510.239 1804.56 510 1805.36 510Z" fill="#0057AE" fill-rule="evenodd"/></g></svg>