<svg width="176" height="178" xmlns="http://www.w3.org/2000/svg" xmlns:xlink="http://www.w3.org/1999/xlink" xml:space="preserve" overflow="hidden"><defs><clipPath id="clip0"><rect x="1942" y="509" width="176" height="178"/></clipPath></defs><g clip-path="url(#clip0)" transform="translate(-1942 -509)"><path d="M2030.44 550.981 2030.44 628.214 2062.96 653.003 2049.89 611.704 2079.84 592.129 2043.94 592.129 2030.44 550.981ZM2030.44 509C2031.03 509.203 2031.1 508.894 2032.19 509.609 2034.13 513.158 2033.4 511.6 2033.72 512.397L2053.22 577.328 2114.32 577.328C2116.06 577.328 2117.21 578.164 2117.77 579.835 2118.32 581.506 2117.89 582.819 2116.46 583.774L2067.01 619.343 2085.79 681.172C2086.26 682.922 2085.83 684.315 2084.48 685.349 2083.13 686.384 2081.75 686.344 2080.32 685.229L2030.44 647.072 1980.04 686.125C1978.6 687.25 1977.2 687.29 1975.84 686.246 1974.48 685.202 1974.04 683.796 1974.52 682.029L1993.48 619.613 1943.55 583.706C1942.11 582.742 1941.67 581.417 1942.24 579.73 1942.79 578.043 1943.96 577.2 1945.72 577.2L2007.4 577.2 2027.08 511.651C2027.4 510.848 2027.84 510.205 2028.4 509.723 2028.96 509.241 2029.64 509 2030.44 509Z" fill="#0057AE" fill-rule="evenodd"/></g></svg>