<svg width="176" height="177" xmlns="http://www.w3.org/2000/svg" xmlns:xlink="http://www.w3.org/1999/xlink" xml:space="preserve" overflow="hidden"><defs><clipPath id="clip0"><rect x="2166" y="510" width="176" height="177"/></clipPath></defs><g clip-path="url(#clip0)" transform="translate(-2166 -510)"><path d="M2271.83 592.923 2271.83 642.536 2286.74 653.868 2273.61 612.521 2303.69 592.923 2271.83 592.923ZM2254.19 510C2254.99 510 2255.67 510.24 2256.23 510.719 2256.79 511.198 2257.23 511.837 2257.55 512.636L2276.96 578.105 2338.31 578.105C2340.06 578.105 2341.21 578.942 2341.77 580.615 2342.32 582.288 2341.89 583.602 2340.45 584.558L2290.8 620.17 2309.66 682.07C2310.14 683.822 2309.7 685.217 2308.35 686.252 2306.99 687.288 2305.6 687.248 2304.17 686.133L2254.19 647.789 2203.93 686.13C2202.5 687.249 2201.1 687.289 2199.74 686.25 2198.39 685.212 2197.95 683.814 2198.43 682.057L2217.33 619.992 2167.55 584.286C2166.11 583.328 2165.68 582.01 2166.23 580.332 2166.79 578.655 2167.95 577.816 2169.71 577.816L2231.22 577.816 2250.84 512.636C2251.16 511.837 2251.6 511.198 2252.16 510.719 2252.72 510.24 2253.4 510 2254.19 510Z" fill="#0057AE" fill-rule="evenodd"/></g></svg>