<svg width="176" height="177" xmlns="http://www.w3.org/2000/svg" xmlns:xlink="http://www.w3.org/1999/xlink" xml:space="preserve" overflow="hidden"><defs><clipPath id="clip0"><rect x="2615" y="508" width="176" height="177"/></clipPath></defs><g clip-path="url(#clip0)" transform="translate(-2615 -508)"><path d="M2703 508C2703.8 508 2704.47 508.24 2705.03 508.719 2705.59 509.198 2706.02 509.837 2706.34 510.636L2725.93 575.816 2787.3 575.816C2789.05 575.816 2790.21 576.655 2790.77 578.332 2791.32 580.01 2790.89 581.328 2789.45 582.286L2739.78 617.992 2758.64 680.057C2759.12 681.814 2758.68 683.212 2757.33 684.25 2755.98 685.289 2754.58 685.248 2753.15 684.13L2703 645.789 2652.85 684.13C2651.42 685.248 2650.02 685.289 2648.67 684.25 2647.32 683.212 2646.88 681.814 2647.36 680.057L2666.22 617.992 2616.55 582.286C2615.11 581.328 2614.68 580.01 2615.23 578.332 2615.79 576.655 2616.95 575.816 2618.7 575.816L2680.07 575.816 2699.66 510.636C2699.98 509.837 2700.41 509.198 2700.97 508.719 2701.53 508.24 2702.2 508 2703 508Z" fill="#0057AE" fill-rule="evenodd"/></g></svg>