<svg width="177" height="177" xmlns="http://www.w3.org/2000/svg" xmlns:xlink="http://www.w3.org/1999/xlink" xml:space="preserve" overflow="hidden"><defs><clipPath id="clip0"><rect x="816" y="510" width="177" height="177"/></clipPath></defs><g clip-path="url(#clip0)" transform="translate(-816 -510)"><path d="M904.5 510C905.301 510 905.981 510.239 906.542 510.719 907.102 511.198 907.542 511.837 907.863 512.636L927.557 577.817 989.282 577.817C991.043 577.817 992.204 578.655 992.765 580.332 993.325 582.01 992.885 583.328 991.444 584.287L941.487 619.992 960.461 682.057C960.941 683.814 960.501 685.212 959.14 686.25 957.779 687.289 956.378 687.249 954.937 686.131L904.5 647.789 854.064 686.131C852.623 687.249 851.221 687.289 849.861 686.25 848.5 685.212 848.059 683.814 848.539 682.057L867.513 619.992 817.557 584.287C816.116 583.328 815.675 582.01 816.236 580.332 816.796 578.655 817.957 577.817 819.718 577.817L881.444 577.817 901.138 512.636C901.458 511.837 901.898 511.198 902.459 510.719 903.019 510.239 903.7 510 904.5 510ZM904.5 551.217 890.81 592.674 854.544 592.674 884.806 612.324 871.596 653.78 904.5 628.858 937.404 653.78 924.194 612.324 954.457 592.674 918.19 592.674 904.5 551.217Z" fill="#0057AE" fill-rule="evenodd"/></g></svg>