<svg width="177" height="177" xmlns="http://www.w3.org/2000/svg" xmlns:xlink="http://www.w3.org/1999/xlink" xml:space="preserve" overflow="hidden"><defs><clipPath id="clip0"><rect x="1042" y="883" width="177" height="177"/></clipPath></defs><g clip-path="url(#clip0)" transform="translate(-1042 -883)"><path d="M1130.5 883C1131.3 883 1131.98 883.239 1132.54 883.719 1133.1 884.198 1133.54 884.837 1133.86 885.636L1153.56 950.817 1215.28 950.817C1217.04 950.817 1218.2 951.655 1218.76 953.332 1219.32 955.01 1218.88 956.328 1217.44 957.287L1167.49 992.992 1186.46 1055.06C1186.94 1056.81 1186.5 1058.21 1185.14 1059.25 1183.78 1060.29 1182.38 1060.25 1180.94 1059.13L1130.5 1020.79 1080.06 1059.13C1078.62 1060.25 1077.22 1060.29 1075.86 1059.25 1074.5 1058.21 1074.06 1056.81 1074.54 1055.06L1093.51 992.992 1043.56 957.287C1042.12 956.328 1041.68 955.01 1042.24 953.332 1042.8 951.655 1043.96 950.817 1045.72 950.817L1107.44 950.817 1127.14 885.636C1127.46 884.837 1127.9 884.198 1128.46 883.719 1129.02 883.239 1129.7 883 1130.5 883ZM1130.5 924.217 1116.81 965.674 1080.54 965.674 1110.81 985.324 1097.6 1026.78 1130.5 1001.86 1163.4 1026.78 1150.19 985.324 1180.46 965.674 1144.19 965.674 1130.5 924.217Z" fill="#1D3557" fill-rule="evenodd"/></g></svg>