<svg width="177" height="177" xmlns="http://www.w3.org/2000/svg" xmlns:xlink="http://www.w3.org/1999/xlink" xml:space="preserve" overflow="hidden"><defs><clipPath id="clip0"><rect x="1267" y="883" width="177" height="177"/></clipPath></defs><g clip-path="url(#clip0)" transform="translate(-1267 -883)"><path d="M1355.5 883C1356.3 883 1356.98 883.239 1357.54 883.719 1358.1 884.198 1358.54 884.837 1358.86 885.636L1378.56 950.817 1440.28 950.817C1442.04 950.817 1443.2 951.655 1443.77 953.332 1444.33 955.01 1443.89 956.328 1442.44 957.287L1392.49 992.992 1411.46 1055.06C1411.94 1056.81 1411.5 1058.21 1410.14 1059.25 1408.78 1060.29 1407.38 1060.25 1405.94 1059.13L1355.5 1020.79 1305.06 1059.13C1303.62 1060.25 1302.22 1060.29 1300.86 1059.25 1299.5 1058.21 1299.06 1056.81 1299.54 1055.06L1318.51 992.992 1268.56 957.287C1267.12 956.328 1266.68 955.01 1267.24 953.332 1267.8 951.655 1268.96 950.817 1270.72 950.817L1332.44 950.817 1352.14 885.636C1352.46 884.837 1352.9 884.198 1353.46 883.719 1354.02 883.239 1354.7 883 1355.5 883ZM1355.5 924.217 1341.81 965.674 1305.54 965.674 1335.81 985.324 1322.6 1026.78 1355.5 1001.86 1388.4 1026.78 1375.19 985.324 1405.46 965.674 1369.19 965.674 1355.5 924.217Z" fill="#1D3557" fill-rule="evenodd"/></g></svg>