<svg width="176" height="176" xmlns="http://www.w3.org/2000/svg" xmlns:xlink="http://www.w3.org/1999/xlink" xml:space="preserve" overflow="hidden"><defs><clipPath id="clip0"><rect x="1492" y="884" width="176" height="176"/></clipPath></defs><g clip-path="url(#clip0)" transform="translate(-1492 -884)"><path d="M1579.88 924.984 1566.25 966.206 1544.64 966.206 1544.64 975.605 1560.28 985.746 1547.12 1026.97 1579.88 1002.19 1612.65 1026.97 1599.49 985.746 1629.62 966.206 1593.51 966.206 1579.88 924.984ZM1579.88 884C1580.68 884 1581.36 884.238 1581.92 884.715 1582.47 885.191 1582.91 885.827 1583.23 886.621L1602.84 951.433 1664.3 951.433C1666.05 951.433 1667.21 952.267 1667.77 953.935 1668.32 955.603 1667.88 956.914 1666.45 957.867L1616.71 993.37 1635.6 1055.09C1636.08 1056.83 1635.64 1058.22 1634.29 1059.25 1632.93 1060.29 1631.54 1060.25 1630.1 1059.14L1579.88 1021.01 1544.64 1047.77 1544.64 1047.82 1529.73 1059.14C1528.3 1060.25 1526.91 1060.29 1525.57 1059.26 1524.22 1058.23 1523.78 1056.85 1524.26 1055.11L1543.06 993.662 1493.54 958.314C1492.11 957.365 1491.68 956.06 1492.23 954.399 1492.79 952.739 1493.94 951.908 1495.69 951.908L1544.64 951.908 1556.93 951.433 1576.54 886.621C1576.86 885.827 1577.29 885.191 1577.85 884.715 1578.41 884.238 1579.09 884 1579.88 884Z" fill="#1D3557" fill-rule="evenodd"/></g></svg>