<svg width="176" height="176" xmlns="http://www.w3.org/2000/svg" xmlns:xlink="http://www.w3.org/1999/xlink" xml:space="preserve" overflow="hidden"><defs><clipPath id="clip0"><rect x="1717" y="884" width="176" height="176"/></clipPath></defs><g clip-path="url(#clip0)" transform="translate(-1717 -884)"><path d="M1805.36 924.861 1791.8 965.96 1788.36 965.96 1788.36 1014.72 1805.36 1001.83 1837.94 1026.54 1824.86 985.44 1854.83 965.96 1818.91 965.96 1805.36 924.861ZM1805.36 884C1806.15 884 1806.82 884.238 1807.38 884.713 1807.93 885.188 1808.37 885.821 1808.69 886.613L1828.19 951.231 1889.32 951.231C1891.06 951.231 1892.21 952.063 1892.77 953.726 1893.32 955.388 1892.89 956.695 1891.46 957.646L1841.99 993.043 1860.78 1054.57C1861.25 1056.31 1860.82 1057.7 1859.47 1058.73 1858.12 1059.76 1856.73 1059.72 1855.31 1058.61L1805.36 1020.6 1788.36 1033.54 1755.24 1059.12C1753.79 1060.25 1752.38 1060.29 1751 1059.24 1749.63 1058.2 1749.19 1056.79 1749.67 1055.01L1768.8 992.389 1718.44 956.363C1717.72 955.879 1717.24 955.305 1717.02 954.64 1717.02 954.583 1717.01 954.526 1717 954.47L1717 952.955 1717.11 952.373C1717.68 950.68 1718.85 949.834 1720.62 949.834L1782.84 949.834 1788.36 931.536 1788.36 931.894 1802.03 886.613C1802.34 885.821 1802.78 885.188 1803.34 884.713 1803.89 884.238 1804.56 884 1805.36 884Z" fill="#1D3557" fill-rule="evenodd"/></g></svg>