<svg width="176" height="177" xmlns="http://www.w3.org/2000/svg" xmlns:xlink="http://www.w3.org/1999/xlink" xml:space="preserve" overflow="hidden"><defs><clipPath id="clip0"><rect x="1942" y="883" width="176" height="177"/></clipPath></defs><g clip-path="url(#clip0)" transform="translate(-1942 -883)"><path d="M2030.44 924.745 2030.44 1001.54 2062.96 1026.19 2049.89 985.127 2079.84 965.662 2043.94 965.662 2030.44 924.745ZM2030.44 883C2031.03 883.202 2031.1 882.895 2032.19 883.606 2034.13 887.135 2033.4 885.586 2033.72 886.378L2053.22 950.944 2114.32 950.944C2116.06 950.944 2117.21 951.775 2117.77 953.437 2118.32 955.098 2117.89 956.404 2116.46 957.354L2067.01 992.723 2085.79 1054.2C2086.26 1055.94 2085.83 1057.33 2084.48 1058.36 2083.13 1059.39 2081.75 1059.35 2080.32 1058.24L2030.44 1020.3 1980.04 1059.13C1978.6 1060.25 1977.2 1060.29 1975.84 1059.25 1974.48 1058.21 1974.04 1056.81 1974.52 1055.06L1993.48 992.992 1943.55 957.286C1942.11 956.328 1941.67 955.01 1942.24 953.332 1942.79 951.655 1943.96 950.817 1945.72 950.817L2007.4 950.817 2027.08 885.636C2027.4 884.837 2027.84 884.198 2028.4 883.719 2028.96 883.24 2029.64 883 2030.44 883Z" fill="#1D3557" fill-rule="evenodd"/></g></svg>