<svg width="176" height="177" xmlns="http://www.w3.org/2000/svg" xmlns:xlink="http://www.w3.org/1999/xlink" xml:space="preserve" overflow="hidden"><defs><clipPath id="clip0"><rect x="2166" y="883" width="176" height="177"/></clipPath></defs><g clip-path="url(#clip0)" transform="translate(-2166 -883)"><path d="M2271.83 965.923 2271.83 1015.54 2286.74 1026.87 2273.61 985.521 2303.69 965.923 2271.83 965.923ZM2254.19 883C2254.99 883 2255.67 883.24 2256.23 883.719 2256.79 884.198 2257.23 884.837 2257.55 885.636L2276.96 951.105 2338.31 951.105C2340.06 951.105 2341.21 951.942 2341.77 953.615 2342.32 955.288 2341.89 956.602 2340.45 957.558L2290.8 993.17 2309.66 1055.07C2310.14 1056.82 2309.7 1058.22 2308.35 1059.25 2306.99 1060.29 2305.6 1060.25 2304.17 1059.13L2254.19 1020.79 2203.93 1059.13C2202.5 1060.25 2201.1 1060.29 2199.74 1059.25 2198.39 1058.21 2197.95 1056.81 2198.43 1055.06L2217.33 992.992 2167.55 957.286C2166.11 956.328 2165.68 955.01 2166.23 953.332 2166.79 951.655 2167.95 950.816 2169.71 950.816L2231.22 950.816 2250.84 885.636C2251.16 884.837 2251.6 884.198 2252.16 883.719 2252.72 883.24 2253.4 883 2254.19 883Z" fill="#1D3557" fill-rule="evenodd"/></g></svg>