<svg width="176" height="176" xmlns="http://www.w3.org/2000/svg" xmlns:xlink="http://www.w3.org/1999/xlink" xml:space="preserve" overflow="hidden"><defs><clipPath id="clip0"><rect x="2391" y="882" width="176" height="176"/></clipPath></defs><g clip-path="url(#clip0)" transform="translate(-2391 -882)"><path d="M2514.14 964.053 2514.14 973.467 2528.63 964.053 2514.14 964.053ZM2478.96 882C2479.75 882 2480.43 882.238 2480.99 882.715 2481.54 883.191 2481.98 883.827 2482.3 884.621L2501.87 949.433 2563.3 949.256C2565.05 949.256 2566.21 950.091 2566.77 951.762 2567.32 953.432 2566.89 954.745 2565.45 955.7L2515.72 991.262 2534.61 1053.08C2535.09 1054.83 2534.65 1056.22 2533.29 1057.25 2531.94 1058.29 2530.54 1058.25 2529.11 1057.13L2514.14 1045.75 2514.14 1045.77 2478.96 1019.01 2428.83 1057.14C2427.4 1058.25 2426 1058.29 2424.65 1057.25 2423.3 1056.22 2422.86 1054.83 2423.34 1053.08L2442.2 991.37 2392.55 955.867C2391.11 954.914 2390.68 953.603 2391.23 951.935 2391.79 950.267 2392.94 949.433 2394.7 949.433L2456.04 949.433 2475.62 884.621C2475.93 883.827 2476.37 883.191 2476.93 882.715 2477.49 882.238 2478.16 882 2478.96 882Z" fill="#1D3557" fill-rule="evenodd"/></g></svg>