<svg width="176" height="176" xmlns="http://www.w3.org/2000/svg" xmlns:xlink="http://www.w3.org/1999/xlink" xml:space="preserve" overflow="hidden"><defs><clipPath id="clip0"><rect x="2615" y="882" width="176" height="176"/></clipPath></defs><g clip-path="url(#clip0)" transform="translate(-2615 -882)"><path d="M2703 882C2703.8 882 2704.47 882.238 2705.03 882.715 2705.59 883.191 2706.02 883.827 2706.34 884.621L2725.93 949.433 2787.3 949.433C2789.05 949.433 2790.21 950.267 2790.77 951.935 2791.32 953.603 2790.89 954.914 2789.45 955.867L2739.78 991.37 2758.64 1053.08C2759.12 1054.83 2758.68 1056.22 2757.33 1057.25 2755.98 1058.29 2754.58 1058.25 2753.15 1057.14L2703 1019.01 2652.85 1057.14C2651.42 1058.25 2650.02 1058.29 2648.67 1057.25 2647.32 1056.22 2646.88 1054.83 2647.36 1053.08L2666.22 991.37 2616.55 955.867C2615.11 954.914 2614.68 953.603 2615.23 951.935 2615.79 950.267 2616.95 949.433 2618.7 949.433L2680.07 949.433 2699.66 884.621C2699.98 883.827 2700.41 883.191 2700.97 882.715 2701.53 882.238 2702.2 882 2703 882Z" fill="#1D3557" fill-rule="evenodd"/></g></svg>