<svg width="177" height="176" xmlns="http://www.w3.org/2000/svg" xmlns:xlink="http://www.w3.org/1999/xlink" xml:space="preserve" overflow="hidden"><defs><clipPath id="clip0"><rect x="2839" y="882" width="177" height="176"/></clipPath></defs><g clip-path="url(#clip0)" transform="translate(-2839 -882)"><path d="M2927.5 882C2928.3 882 2928.98 882.238 2929.54 882.715 2930.1 883.191 2930.54 883.827 2930.86 884.621L2950.56 949.433 3012.28 949.433C3014.04 949.433 3015.2 950.267 3015.76 951.935 3016.33 953.603 3015.88 954.914 3014.44 955.867L2964.49 991.37 2983.46 1053.08C2983.94 1054.83 2983.5 1056.22 2982.14 1057.25 2980.78 1058.29 2979.38 1058.25 2977.94 1057.14L2927.5 1019.01 2877.06 1057.14C2875.62 1058.25 2874.22 1058.29 2872.86 1057.25 2871.5 1056.22 2871.06 1054.83 2871.54 1053.08L2890.51 991.37 2840.56 955.867C2839.12 954.914 2838.67 953.603 2839.24 951.935 2839.8 950.267 2840.96 949.433 2842.72 949.433L2904.44 949.433 2924.14 884.621C2924.46 883.827 2924.9 883.191 2925.46 882.715 2926.02 882.238 2926.7 882 2927.5 882Z" fill="#1D3557" fill-rule="evenodd"/></g></svg>