<svg width="177" height="177" xmlns="http://www.w3.org/2000/svg" xmlns:xlink="http://www.w3.org/1999/xlink" xml:space="preserve" overflow="hidden"><defs><clipPath id="clip0"><rect x="816" y="883" width="177" height="177"/></clipPath></defs><g clip-path="url(#clip0)" transform="translate(-816 -883)"><path d="M904.5 883C905.301 883 905.981 883.239 906.542 883.719 907.102 884.198 907.542 884.837 907.863 885.636L927.557 950.817 989.282 950.817C991.043 950.817 992.204 951.655 992.765 953.332 993.325 955.01 992.885 956.328 991.444 957.287L941.487 992.992 960.461 1055.06C960.941 1056.81 960.501 1058.21 959.14 1059.25 957.779 1060.29 956.378 1060.25 954.937 1059.13L904.5 1020.79 854.064 1059.13C852.623 1060.25 851.221 1060.29 849.861 1059.25 848.5 1058.21 848.059 1056.81 848.539 1055.06L867.513 992.992 817.557 957.287C816.116 956.328 815.675 955.01 816.236 953.332 816.796 951.655 817.957 950.817 819.718 950.817L881.444 950.817 901.138 885.636C901.458 884.837 901.898 884.198 902.459 883.719 903.019 883.239 903.7 883 904.5 883ZM904.5 924.217 890.81 965.674 854.544 965.674 884.806 985.324 871.596 1026.78 904.5 1001.86 937.404 1026.78 924.194 985.324 954.457 965.674 918.19 965.674 904.5 924.217Z" fill="#1D3557" fill-rule="evenodd"/></g></svg>