<svg width="173" height="173" xmlns="http://www.w3.org/2000/svg" xmlns:xlink="http://www.w3.org/1999/xlink" xml:space="preserve" overflow="hidden"><defs><clipPath id="clip0"><rect x="3064" y="885" width="173" height="173"/></clipPath></defs><g clip-path="url(#clip0)" transform="translate(-3064 -885)"><path d="M3150.5 885C3151.28 885 3151.95 885.234 3152.5 885.703 3153.04 886.171 3153.47 886.796 3153.79 887.577L3173.04 951.284 3233.37 951.284C3235.09 951.284 3236.22 952.104 3236.77 953.743 3237.32 955.383 3236.89 956.671 3235.48 957.608L3186.65 992.506 3205.2 1053.17C3205.67 1054.89 3205.24 1056.25 3203.91 1057.27 3202.58 1058.28 3201.21 1058.24 3199.8 1057.15L3150.5 1019.68 3101.2 1057.15C3099.79 1058.24 3098.42 1058.28 3097.09 1057.27 3095.76 1056.25 3095.33 1054.89 3095.8 1053.17L3114.35 992.506 3065.52 957.608C3064.11 956.671 3063.68 955.383 3064.23 953.743 3064.78 952.104 3065.91 951.284 3067.63 951.284L3127.96 951.284 3147.21 887.577C3147.53 886.796 3147.96 886.171 3148.5 885.703 3149.05 885.234 3149.72 885 3150.5 885Z" fill="#1D3557" fill-rule="evenodd"/></g></svg>