<svg width="357" height="144" xmlns="http://www.w3.org/2000/svg" xmlns:xlink="http://www.w3.org/1999/xlink" overflow="hidden"><defs><clipPath id="clip0"><rect x="863" y="-20" width="357" height="144"/></clipPath><clipPath id="clip1"><rect x="863" y="-19" width="356" height="142"/></clipPath><clipPath id="clip2"><rect x="863" y="-19" width="356" height="142"/></clipPath><clipPath id="clip3"><rect x="863" y="-19" width="356" height="142"/></clipPath><clipPath id="clip4"><rect x="863" y="-19" width="356" height="142"/></clipPath></defs><g clip-path="url(#clip0)" transform="translate(-863 20)"><g clip-path="url(#clip1)"><g clip-path="url(#clip2)"><g clip-path="url(#clip3)"><g clip-path="url(#clip4)"><path d="M97.5888 354.109C97.0478 353.962 96.0137 353.422 95.2752 352.93 94.5859 352.389 93.4042 351.996 92.6657 351.996 90.7455 351.996 88.6777 349.686 88.2346 347.082 87.9391 345.312 87.3483 344.378 85.2312 342.315 79.963 337.154 79.1752 333.37 81.0954 323.442 81.637 320.641 82.0309 318.331 81.9324 318.282 81.8831 318.233 76.5166 317.938 70.0174 317.594 63.5183 317.299 56.3299 316.856 54.0159 316.66 51.7018 316.415 49.7817 316.463 49.6832 316.66 49.2401 317.741 48.1077 317.004 48.1077 315.677 48.1077 314.89 47.6646 312.187 47.0738 309.632 46.5321 307.126 45.9905 304.57 45.8428 303.931 45.7444 303.292 45.3997 302.948 45.1043 303.096 44.5135 303.489 36.7835 300.982 36.7835 300.393 36.7835 299.409 37.9652 299.409 41.1162 300.393 42.9379 300.982 44.7104 301.523 45.0551 301.622 45.4982 301.818 45.6459 299.557 45.6459 291.645L45.6459 281.471 43.578 284.666C38.753 292.283 33.534 299.95 32.5985 300.933 31.9092 301.671 20.1912 306.241 16.9908 307.027 15.9569 307.273 15.8585 307.568 16.0062 309.239 16.1539 310.713 15.8092 311.942 14.6275 314.252 11.8704 319.461 8.32545 323.59 7.83308 322.115 7.73464 321.771 7.34074 321.526 6.94685 321.526 5.81444 321.526 4.7805 319.363 3.99272 315.137 3.008 310.026 3.4019 305.553 4.97743 303.243 5.91292 301.818 6.30682 301.622 8.03004 301.671 12.4612 301.818 14.0367 302.408 14.6768 304.03 15.0215 304.864 15.3169 305.602 15.3661 305.7 15.7108 306.142 31.86 300 31.86 299.409 31.86 299.213 33.1894 297.198 34.8633 294.937 37.2759 291.596 42.8395 283.093 45.1043 279.26 45.3505 278.867 45.9413 275.77 46.3844 272.379 48.3539 257.438 48.1077 258.029 52.8835 257.242 57.5116 256.456 62.4352 255.915 63.5676 256.063 64.06 256.112 64.7492 255.964 65.0447 255.719 65.3401 255.472 68.0972 255.129 71.1498 254.932 74.1532 254.735 76.6643 254.441 76.6643 254.342 76.6643 254.244 75.9749 253.556 75.1379 252.819 74.2517 252.131 73.267 250.804 72.873 249.87 72.233 248.346 72.2822 248.003 73.2177 246.135 73.7593 245.005 74.2024 243.235 74.2024 242.204 74.2024 238.812 75.3349 233.308 76.418 231.588 77.2551 230.261 77.5504 228.737 77.8458 225.149L78.1412 220.431 76.0241 220.137C68.2449 219.056 61.2536 212.814 58.3979 204.459L57.5609 202.002 56.773 203.182C47.7137 215.713 44.8089 218.319 37.6697 220.285 34.0756 221.267 22.9484 222.348 21.6682 221.857 21.2743 221.759 21.0282 222.053 21.0282 222.545 21.0282 223.086 20.4374 225.101 19.6988 227.116 18.6649 229.966 17.7294 231.49 15.4646 233.898 13.8398 235.618 12.1166 236.994 11.6242 236.994 11.1318 236.994 10.3441 236.404 9.90097 235.716 9.11319 234.586 9.11319 233.8 9.60558 227.705 10.3933 217.876 11.1811 216.353 15.3169 216.353 18.3695 216.353 21.0282 217.778 21.0282 219.35 21.0282 220.431 21.1266 220.431 27.0841 220.137 38.2113 219.547 44.1689 216.942 49.3385 210.455 51.5049 207.752 54.4098 203.722 55.6407 201.756 56.9207 199.741 56.9207 199.545 56.5762 194.875 56.1331 189.715 56.1331 188.29 56.6746 182.196 57.0193 178.608 57.6101 175.119 58.2501 173.055 58.4471 172.367 57.2655 172.17 49.9786 171.383 37.8175 170.155 27.675 167.403 21.0282 163.57 19.7973 162.882 18.6649 162.292 18.5172 162.292 18.3695 162.292 17.9756 163.127 17.6802 164.159 17.2371 165.486 16.4493 166.469 14.6768 167.698 13.249 168.681 12.3135 169.713 12.412 170.057 12.6582 170.745 11.575 172.317 7.19304 177.772 3.1065 182.786 1.48175 184.408 0.644743 184.408-0.438454 184.408-0.339967 183.278 0.792447 182.589 1.82637 181.95 10.1964 171.679 10.1964 171.089 10.1964 170.843 9.40865 171.039 8.47316 171.433 7.53767 171.777 6.35604 172.12 5.81444 172.12 5.1744 172.12 4.28813 173.005 3.2542 174.578 2.36797 175.954 1.38326 177.035 0.989373 177.035 0.0538752 177.035 0.201631 176.151 1.43248 174.431 2.171 173.398 2.31871 172.858 1.92486 172.711 0.989373 172.416 1.18629 171.679 2.95879 168.975 4.23891 167.108 4.7805 165.486 5.27284 162.538 5.96214 158.163 7.34074 154.035 8.67008 152.413 9.50708 151.382 9.70411 151.332 11.7227 151.922 12.9536 152.266 15.0215 153.2 16.3016 154.035L18.7142 155.509 18.4187 158.016 18.1725 160.571 22.7021 162.635C31.8108 166.863 38.9498 168.631 51.3572 169.909 55.4438 170.302 58.8902 170.646 59.0872 170.646 59.2349 170.646 60.0719 169.271 60.9088 167.55 64.7985 159.638 70.0667 155.853 81.3908 152.954 85.7727 151.823 88.0868 151.578 88.333 152.216 88.4807 152.708 83.5571 154.428 81.9816 154.428 80.8492 154.428 72.3807 157.918 69.6727 159.49 66.6202 161.26 64.5031 163.963 61.549 169.909 58.0532 176.839 57.3639 179.935 57.6593 187.7 58.004 198.02 59.1856 203.23 62.4352 208.735 64.3061 211.93 65.1431 212.863 67.9495 215.026 71.396 217.679 75.7287 218.859 83.0648 219.153 93.1581 219.596 101.528 217.581 106.649 213.502 114.379 207.359 118.514 200.233 121.517 187.848 122.355 184.505 122.503 182.786 122.256 179.345 121.911 174.087 120.828 169.615 119.253 166.912 115.068 159.785 104.876 153.937 95.029 153.101L91.484 152.806 91.9271 154.478C92.715 157.131 92.5673 162.783 91.7303 162.783 91.1886 162.783 90.9424 161.604 90.6963 158.016 90.1055 149.907 87.9391 142.731 84.7388 138.308 84.6896 138.21 83.1633 138.75 81.3416 139.438 77.1565 141.109 74.3501 140.963 72.1838 138.898 69.7713 136.589 68.9835 131.723 70.7067 130.15 71.396 129.511 71.5929 128.872 71.396 127.693 71.0021 125.334 72.4792 118.994 74.2024 115.652 75.1379 113.735 75.6795 111.966 75.6795 110.59 75.6795 107.494 77.0581 101.498 78.4366 98.4504 79.0768 97.0256 79.6183 95.7477 79.6183 95.6494 79.6183 95.6002 78.1412 96.19 76.3196 97.0256 70.5098 99.6299 64.7 101.449 64.2568 100.76 63.2229 99.0899 61.9428 94.7647 61.4013 90.9313 61.0565 88.5232 60.6134 86.6065 60.4166 86.6065 60.2196 86.6065 58.4964 88.4248 56.5762 90.6855 51.6034 96.4848 49.1416 98.6475 46.6306 99.5323 43.0856 100.76 34.6172 104.348 34.1248 104.839 33.8294 105.086 33.2385 105.282 32.7954 105.282 32.1062 105.282 32.0077 105.528 32.4016 107.149 32.6477 108.133 32.8447 109.902 32.8447 110.983 32.8447 114.62 29.4967 123.957 28.1673 123.957 27.8227 123.957 26.7395 122.778 25.7547 121.402 23.5884 118.208 22.0129 112.408 22.0129 107.445 22.0129 103.906 22.0129 103.906 23.5392 103.365 25.7056 102.628 30.1859 102.678 30.9738 103.464 31.466 104.004 32.0569 103.906 34.3218 102.775 35.7988 102.087 39.6392 100.465 42.8887 99.1875 49.2893 96.6817 49.7817 96.2883 56.4285 88.4248L59.9735 84.2474 60.1212 70.0442C60.2196 62.2791 60.4657 54.858 60.6627 53.5802L61.0565 51.2211 59.5303 51.2211C58.6441 51.2211 57.1178 50.8771 56.1331 50.484 55.0991 50.0908 52.2926 49.2554 49.8309 48.5673 43.3811 46.7488 33.8294 42.3257 29.9398 39.3277 28.2658 38.05 27.7735 38.2466 26.6903 40.5565 25.7056 42.6206 25.1147 43.0137 20.3881 45.0779 18.6649 45.8151 18.1725 46.2574 18.3695 46.8963 18.8126 48.3707 15.2676 54.17 13.8398 54.17 12.9043 54.17 12.9536 52.9904 13.9383 52.155 14.8245 51.4177 17.2863 46.7981 16.9417 46.454 16.794 46.3557 16.2032 46.9454 15.6123 47.7318 15.0215 48.5673 14.2337 49.2554 13.8398 49.2554 13.052 49.2554 12.9043 48.469 13.6428 48.0266 13.9383 47.8792 14.1353 46.8472 14.1353 45.8151 14.1353 39.9667 16.4 34.5115 20.2897 31.1695 22.456 29.2037 23.7854 29.2037 26.3456 31.0712 28.0689 32.2999 28.3643 32.7914 28.512 34.6097L28.6597 36.723 33.7802 39.7701C36.5866 41.4411 40.9193 43.6526 43.3811 44.6356 48.2062 46.5523 57.8563 49.2554 60.0719 49.2554 61.3519 49.2554 61.4013 49.157 61.4013 46.9454 61.4013 44.4389 63.4691 35.0029 64.4538 33.1354 64.9954 32.1033 65.2416 32.0541 67.9988 32.349 74.9409 33.0862 81.44 35.0029 90.5978 39.0821 92.1241 39.7701 93.4042 40.2125 93.4042 40.0158 93.3549 38.738 90.5978 30.5306 88.8746 26.5989 86.5606 21.242 86.3144 20.9963 80.0614 18.7847 77.8458 17.9984 73.6608 16.1799 70.756 14.8038L65.3893 12.2482 63.863 13.526C62.4352 14.7547 59.9241 15.541 58.3979 15.2953 58.004 15.2462 56.8716 15.5901 55.8377 16.0325 54.7544 16.524 53.4743 16.7205 52.8835 16.524 51.5049 16.1308 50.0771 14.8529 50.0771 14.1158 50.0771 13.7718 49.634 12.9363 49.0924 12.2482 47.7137 10.5281 47.8123 7.43187 49.3385 4.28655 50.8156 1.09202 51.308 0.698872 54.5575 0.0107988 60.712-1.21783 66.2756 3.05786 66.3248 9.05371L66.3248 10.9212 71.396 13.3295C74.1532 14.6564 78.0428 16.2782 80.0122 17.0154 86.9544 19.4727 87.8899 20.2099 89.8101 24.5348 92.1241 29.6951 92.6165 31.0712 94.192 36.379 95.5214 40.9004 95.5706 40.9988 97.8351 42.1292 104.384 45.4711 128.361 62.574 128.361 63.95 128.361 65.277 114.921 75.6469 106.698 80.6598 102.956 82.9696 90.4993 89.7027 87.3483 91.177 83.3602 92.9955 81.8339 94.5681 80.1107 98.6968 78.0428 103.611 76.2703 113.145 77.4519 113.145 77.5996 113.145 78.5352 112.605 79.5199 111.916 82.0309 110.197 84.3942 110.295 86.7575 112.163 89.367 114.227 89.9085 115.111 89.9578 117.175 89.9578 119.19 91.681 122.483 92.715 122.483 93.9458 122.483 96.4568 125.137 96.4568 126.415 96.4568 129.216 95.6691 132.165 94.5859 133.295 93.9951 133.983 93.3058 135.113 93.1581 135.9 92.7642 137.375 90.7947 139.193 89.5639 139.193 89.1207 139.193 88.3822 138.849 87.8899 138.357 86.4621 137.079 86.4128 137.866 87.7915 140.372 88.5299 141.65 89.7116 144.648 90.4501 146.958L91.8287 151.234 95.7183 151.627C106.353 152.659 117.628 159.49 121.223 166.96 123.043 170.893 123.635 174.185 123.635 180.967 123.684 186.717 123.536 187.504 121.862 193.106 118.957 202.444 114.231 209.668 107.288 215.222 103.251 218.515 94.2412 220.824 85.2804 220.972L79.8645 221.022 79.4706 223.97C78.9291 228.344 79.0768 228.786 81.0954 228.885 82.0309 228.934 83.5079 229.229 84.2957 229.572 85.1327 229.868 86.7083 230.359 87.8407 230.605 89.17 230.949 90.1547 231.538 90.4993 232.227 91.1886 233.505 91.1886 236.109 90.4501 237.486 90.0562 238.223 90.2039 238.665 91.0902 239.549 92.715 241.171 93.2565 245.545 92.0748 247.315 91.5826 248.003 91.2872 248.986 91.3363 249.575 91.5333 251.049 89.9578 252.72 88.2346 252.917 87.4468 253.016 86.7575 253.163 86.8067 253.261 86.8067 253.36 87.3483 254.982 87.9884 256.849 88.8253 259.356 89.0223 260.83 88.8253 262.697 88.4807 265.548 88.4315 265.646 87.2991 265.204 86.6098 264.958 86.5112 264.565 86.8067 263.582 87.3483 261.764 87.2498 260.093 86.4621 257.39 85.6743 254.638 85.1327 254.342 83.1141 255.424 81.8831 256.013 81.1939 256.112 79.766 255.719 78.732 255.424 77.7967 255.375 77.6489 255.62 77.5012 255.817 76.0734 256.161 74.4486 256.308 65.2416 257.291 54.1636 258.667 52.2434 259.159 49.7325 259.798 49.9786 259.159 48.5508 268.693 47.2215 277.539 46.7291 296.166 47.6153 303.194 48.2554 308.6 49.3385 313.613 49.9294 314.153 50.5694 314.743 61.6967 315.628 74.3994 316.119 93.2565 316.856 113.886 315.579 115.117 313.564 115.314 313.268 115.609 312.089 115.757 311.008 117.825 297.001 117.628 275.672 115.215 263.434L113.837 256.21 110.39 255.915C108.52 255.719 102.907 255.67 97.9336 255.768 91.2872 255.866 88.973 255.768 88.973 255.326 88.973 254.244 91.1886 253.998 101.528 253.998 109.8 254.048 112.212 254.195 113.64 254.785L115.412 255.571 116.692 262.353C118.563 272.231 119.154 279.997 118.859 291.792 118.613 303.243 117.825 311.45 116.84 313.859 116.25 315.283 115.856 315.48 112.557 316.218 109.209 317.004 98.5741 318.183 96.8508 318.036 96.4568 317.987 93.3549 317.987 89.9578 317.987L83.7541 318.085 82.9171 322.656C82.4247 325.113 82.0801 328.946 82.0801 331.06 82.0801 335.876 83.1633 338.382 86.4128 341.135L88.6777 343.101 89.367 341.528C90.4993 338.874 93.7489 334.942 95.1767 334.598 96.703 334.205 98.377 335.483 99.3121 337.793 99.8047 338.923 100.248 339.218 101.38 339.218 105.073 339.218 107.485 341.774 106.255 344.427 105.959 345.116 105.713 346.393 105.713 347.327 105.713 348.457 105.369 349.244 104.581 349.883 103.94 350.374 103.251 351.357 103.104 352.094 102.66 353.864 100.199 354.748 97.5888 354.109ZM101.282 351.505C101.282 350.276 99.854 349.538 97.3927 349.538 94.8813 349.538 94.6352 350.767 96.9986 351.75 99.4106 352.782 101.282 352.685 101.282 351.505ZM93.5519 349.441C93.6996 348.851 93.6504 348.015 93.3549 347.524 92.6165 346.148 92.8134 344.33 93.8474 343.101 94.6352 342.118 94.832 342.068 95.1275 342.708 95.2752 343.101 95.1767 344.083 94.8813 344.82 94.1428 346.786 94.2412 347.179 95.4229 346.983 97.1956 346.737 98.5741 344.378 98.5248 341.724 98.5248 339.12 97.0971 336.27 95.8168 336.27 93.8474 336.27 89.9578 342.904 89.9578 346.296 89.9578 349.342 92.9119 351.947 93.5519 349.441ZM104.137 347.77C104.285 346.885 103.892 346.541 102.119 345.951 99.9525 345.214 99.9033 345.214 98.8697 346.393 98.1307 347.229 98.0322 347.671 98.4263 347.77 98.7711 347.868 99.7555 348.163 100.544 348.457 102.709 349.194 103.989 348.949 104.137 347.77ZM104.975 343.592C105.418 342.216 104.728 341.626 102.316 341.183 100.347 340.84 100.297 340.84 100.297 342.216 100.297 343.248 100.593 343.69 101.676 344.034 103.793 344.82 104.63 344.722 104.975 343.592ZM12.9536 314.006C14.086 311.844 14.6275 310.222 14.4798 309.583 14.3321 308.993 13.9383 307.47 13.6428 306.241 13.1013 304.03 13.052 303.931 10.8364 303.637 6.70066 303.096 6.40525 303.194 5.71594 305.16 4.6328 308.501 5.71594 318.331 7.43923 320.493 8.12853 321.378 10.541 318.527 12.9536 314.006ZM83.9511 253.212C85.3789 252.327 85.4773 252.082 84.985 251.197 84.3942 250.067 84.7388 247.265 85.6743 245.594 86.1667 244.759 87.4468 241.467 87.4959 241.073 87.4959 240.975 86.659 240.926 85.6743 240.926 84.2465 240.926 84.0002 241.073 84.4434 241.515 85.2804 242.351 85.1819 243.874 84.3449 243.874 83.9511 243.874 83.5079 243.432 83.311 242.891 83.1633 242.351 82.0801 241.122 80.9477 240.189 79.0275 238.517 78.8797 238.468 78.732 239.452 78.6336 239.992 79.2245 241.515 80.0122 242.793 81.8831 245.742 82.277 247.02 81.5877 248.297 80.8 249.772 78.732 249.575 76.8611 247.757 75.0886 246.037 74.2024 246.185 74.2024 248.2 74.2517 249.772 75.2364 251.098 77.8951 252.868 80.2091 254.441 81.7847 254.539 83.9511 253.212ZM89.367 250.116C89.6131 248.887 88.4807 246.331 87.7422 246.331 87.3975 246.331 86.9544 246.675 86.8067 247.118 86.4128 248.15 86.4128 250.509 86.856 250.952 87.4959 251.59 89.2192 251.001 89.367 250.116ZM80.1107 246.823C80.1107 246.331 79.4706 244.808 78.6336 243.53 76.7627 240.582 76.7134 238.468 78.4859 236.159 79.2245 235.224 80.2584 234.242 80.8 233.996 81.3908 233.75 82.1786 233.308 82.671 232.964 83.311 232.522 83.9018 232.522 85.4773 233.063 87.8407 233.849 88.0868 234.831 86.2651 236.502 84.9357 237.78 84.6403 239.452 85.7236 239.452 87.1021 239.452 89.0223 237.289 89.3177 235.323 89.7116 232.915 88.7269 232.079 85.4773 232.079 83.8525 232.079 82.9663 231.834 82.671 231.293 82.0309 230.113 79.1752 230.605 78.0921 232.079 76.9597 233.603 76.1719 237.583 76.1719 241.712 76.1719 244.464 76.3196 244.907 77.6981 246.282 79.4214 248.052 80.1107 248.2 80.1107 246.823ZM90.9424 245.496C90.9424 244.612 89.5639 242.891 88.8746 242.891 88.1853 242.891 88.4315 244.464 89.3177 245.447 90.3024 246.528 90.9424 246.578 90.9424 245.496ZM83.2617 239.255C83.1141 238.861 83.2125 238.075 83.5079 237.534 83.9511 236.699 83.9018 236.453 83.0648 236.011 81.9816 235.422 80.1107 235.765 80.1107 236.502 80.1107 237.043 82.671 239.845 83.1633 239.893 83.3602 239.942 83.4094 239.648 83.2617 239.255ZM14.7752 232.128C16.2523 230.507 17.5817 228.689 17.7294 228.049 17.8771 227.46 18.3202 226.034 18.7634 224.953 19.7973 222.201 19.7973 219.449 18.7142 218.908 17.434 218.22 13.9875 217.827 13.3474 218.22 12.3627 218.859 11.6735 221.906 11.2304 227.804 10.738 233.406 10.8364 235.028 11.6735 235.028 11.8704 235.028 13.249 233.701 14.7752 232.128ZM12.7566 167.108C15.8585 164.945 16.4 163.864 16.7447 159.196L16.9417 156.345 14.4307 154.871C11.2304 153.052 9.95024 153.052 9.01476 154.822 8.07926 156.689 6.79914 162.635 6.40525 166.96L6.10984 170.646 8.03004 169.86C9.06398 169.418 11.2304 168.189 12.7566 167.108ZM80.7508 137.964C81.637 137.571 83.2125 136.932 84.2957 136.589 85.4282 136.195 86.5112 135.409 86.856 134.72 87.2006 134.082 87.7422 133.345 88.1361 133.049 88.4807 132.804 88.8253 131.575 88.8253 130.346 88.8746 129.118 88.973 127.693 89.0223 127.152 89.1207 126.612 88.973 125.678 88.7761 125.137 88.5792 124.449 88.7269 123.81 89.2192 123.319 89.6131 122.876 89.9578 122.335 89.9578 122.041 89.9578 121.058 89.17 121.5 88.4315 122.778 87.3483 124.842 85.1327 126.415 83.311 126.415 81.9816 126.415 81.4893 126.12 80.6523 124.793 79.6183 123.122 77.4519 121.746 76.615 122.238 75.2856 123.072 76.7134 127.3 79.126 129.609 80.8985 131.28 80.9477 131.821 79.5199 132.804 76.7627 134.623 74.1532 134.278 73.1193 132.067 72.233 130.101 71.7407 130.642 71.7407 133.541 71.7407 137.326 73.07 138.701 76.7134 138.701 78.0921 138.701 79.9137 138.357 80.7508 137.964ZM91.5826 135.212C91.9271 133.983 90.8932 133.492 89.5147 134.278 88.2346 134.917 88.1361 136.589 89.367 136.834 90.4501 137.079 91.2379 136.49 91.5826 135.212ZM93.8474 131.919C94.5366 130.642 93.9951 129.118 92.6165 128.381 90.2039 127.054 89.0715 130.396 91.3363 132.165 92.518 133.049 93.3058 132.952 93.8474 131.919ZM77.8951 131.821C78.0428 131.575 77.4027 130.297 76.418 128.971 74.9902 126.956 74.6948 126.12 74.6948 124.154 74.7441 121.304 75.778 118.06 76.8611 117.471 77.3042 117.224 77.6489 116.782 77.6489 116.487 77.6489 116.193 78.0428 115.504 78.4859 115.013 79.2737 114.128 79.2245 114.128 77.5996 114.816 76.2703 115.406 75.7287 116.045 74.7932 118.404 74.1532 119.976 73.5131 122.778 73.3654 124.694 73.1193 127.594 73.267 128.528 74.1532 130.249 74.9409 131.821 75.4826 132.312 76.418 132.312 77.0581 132.312 77.6981 132.116 77.8951 131.821ZM93.6996 125.088C92.0257 123.663 90.4501 123.613 90.4501 124.941 90.4501 125.53 90.7947 125.923 91.3363 125.923 91.7794 125.923 92.715 126.366 93.4042 126.906 94.5366 127.742 94.6352 127.742 94.832 127.054 94.9306 126.563 94.3889 125.727 93.6996 125.088ZM84.6403 124.449C86.2651 123.712 88.0868 120.665 88.3822 118.305 88.5299 116.684 88.333 115.996 87.2991 114.767 86.6098 113.931 85.3296 112.998 84.4926 112.654 83.2125 112.113 82.7694 112.113 81.1939 112.9L79.3722 113.785 81.0954 114.128C85.1819 114.865 86.1667 116.831 83.8034 119.633 82.9663 120.616 82.5724 121.697 82.5724 123.024 82.5724 125.039 82.8186 125.235 84.6403 124.449ZM81.2923 120.911C81.637 119.485 81.2431 119.092 79.126 118.945 76.8611 118.748 76.615 120.026 78.7813 121.058 80.9477 122.139 80.9477 122.139 81.2923 120.911ZM29.6444 117.618C31.0722 113.834 31.3676 109.705 30.4321 106.412 29.7921 104.102 29.349 103.955 25.2625 104.643L23.3423 104.938 23.6377 108.427C24.0315 112.9 25.2132 117.372 26.5918 119.387 27.1826 120.272 27.8227 121.009 28.0196 121.009 28.1673 121.009 28.9058 119.485 29.6444 117.618ZM83.4094 117.224C83.6556 116.487 81.2431 115.456 80.2584 115.8 79.3229 116.193 79.4706 116.782 80.7508 117.421 82.0801 118.06 83.1633 118.011 83.4094 117.224ZM67.1125 98.9914C67.3587 98.7943 68.4419 98.3036 69.525 97.9597 72.233 97.0749 75.5318 95.6494 77.8951 94.4207 78.9783 93.831 82.0801 92.2091 84.788 90.7839 96.703 84.4932 107.732 78.3007 111.129 75.8926 117.973 71.1254 125.9 64.7364 125.9 63.9992 125.9 63.3603 118.859 57.8559 111.917 53.187 100.692 45.5202 99.4599 44.783 89.7116 40.3599 82.3263 37.0179 72.0361 34.0691 67.7034 34.02 65.6355 34.02 65.3401 34.1674 65.1431 35.1503 65.0447 35.7401 64.6015 38.05 64.1584 40.2615 61.6474 52.7939 61.0074 77.6127 62.8783 89.801 64.0107 97.2217 65.4385 100.367 67.1125 98.9914ZM21.3728 42.8172C24.9178 41.1462 25.7547 40.1141 26.4441 36.4773 26.9857 33.5777 26.7395 32.988 24.3762 31.7593 22.7514 30.9238 22.1113 31.2187 19.6003 34.1183 17.7787 36.2315 16.6463 38.9837 16.2523 42.5223 15.9569 44.8814 15.9569 44.9304 17.1386 44.5865 17.7787 44.3899 19.6988 43.6035 21.3728 42.8172ZM55.9854 14.1158C56.6746 13.7226 58.0532 13.4277 59.0872 13.3786 61.2536 13.3786 63.6168 12.2974 64.06 11.167 64.2077 10.7247 64.3554 9.34858 64.3554 8.11995 64.3554 6.20325 64.1091 5.6135 62.4843 4.04081 59.678 1.23949 54.5083 0.256535 54.5083 2.56644 54.5083 3.10705 54.0159 3.54933 53.0312 3.74593 52.2434 3.89334 51.5541 4.23741 51.5541 4.53228 51.5541 4.77802 52.2434 5.02375 53.0312 5.02375 53.9667 5.02375 54.5083 5.26944 54.5083 5.71177 54.5083 6.25239 53.819 6.49812 52.1942 6.59639 49.8802 6.74386 49.8309 6.74386 49.6832 8.56223 49.5848 9.98753 49.7817 10.5281 50.5202 11.0196 51.111 11.3636 51.5541 12.1008 51.5541 12.6414 51.5541 14.7547 53.622 15.4427 55.9854 14.1158Z" fill="#1D3557" fill-rule="evenodd" transform="matrix(-1.83964e-16 -1 -1.00145 1.83697e-16 1218.03 109.476)"/><path d="M2.07048 14.6012C2.07048 13.3979 1.86176 13.1974 1.07916 13.3979-0.799037 13.8492-0.381695 12.7461 2.64439 9.13627 4.36608 7.08061 6.453 4.07237 7.33995 2.41788 8.80081-0.389795 10.366-1.34243 10.0008 0.813482 9.73994 2.1672 6.08776 7.88282 3.84437 10.4398 2.27915 12.1946 2.12263 12.5456 2.90521 12.5456 4.05305 12.5456 7.44432 8.28394 9.89643 3.87186 11.4616 1.1143 12.5051 0.56279 12.5051 2.46802 12.5051 4.02224 3.84437 16.005 2.74869 16.0552 2.3313 16.0552 2.07048 15.4536 2.07048 14.6012Z" fill="#1D3557" fill-rule="evenodd" transform="matrix(-1.83964e-16 -1 -1.00145 1.83697e-16 911.37 120.102)"/><path d="M2.83715 21.0877C2.83715 20.6414 4.00446 18.7075 5.41498 16.7736 6.87417 14.8397 8.2847 12.757 8.62515 12.162 9.79249 9.93053 8.67381 11.1205 5.99864 14.9884 4.19905 17.6166 2.93444 18.9555 2.30211 18.9555 1.28071 18.9555 0.98888 17.4677 2.01029 17.4677 2.30211 17.4182 3.4208 16.129 4.4422 14.5917 5.46366 13.0545 7.2633 10.3768 8.47923 8.64119 12.2731 3.0874 10.7652 3.78165 6.63097 9.48424 3.17759 14.1951 2.3994 14.9884 1.28071 14.9884-0.275723 14.9884-0.518931 14.1454 0.842969 13.5999 1.96166 13.1537 7.94419 5.26925 9.64659 1.89731 10.9598-0.681217 11.884-1.12753 11.7381 1.00475 11.6894 1.69895 11.884 2.44278 12.1758 2.64114 12.6136 2.93867 12.6136 3.48413 12.2245 4.77342 11.9326 5.76514 11.7867 7.00486 11.9326 7.50069 12.2731 8.78998 10.4248 12.3603 6.77688 17.6166 3.80993 21.881 2.83715 22.7241 2.83715 21.0877Z" fill="#1D3557" fill-rule="evenodd" transform="matrix(-1.83964e-16 -1 -1.00145 1.83697e-16 923.946 122.034)"/><path d="M-0.00493744 11.6934C-0.159789 11.4157 0.0983142 11.0457 0.66612 10.8606 2.26628 10.3517 8.20233 3.04161 8.82174 0.91333 9.23468-0.659717 10.5768-0.752232 10.5768 0.774558 10.5768 1.83868 8.87333 4.33707 4.3826 9.98154 2.67918 12.1098 0.769371 12.85-0.00493744 11.6934Z" fill="#1D3557" fill-rule="evenodd" transform="matrix(-1.83964e-16 -1 -1.00145 1.83697e-16 925.88 122.034)"/><path d="M0.0763468 29.314C-0.290494 28.8713 0.213906 27.4939 1.08515 26.756 1.63539 26.3133 1.68122 26.0182 1.26854 25.7721 0.443188 25.231 0.122184 14.507 0.855865 11.5554 1.63539 8.35787 2.82758 5.99658 3.65294 5.99658 4.01978 5.99658 4.34073 5.65225 4.34073 5.25868 4.34073 4.86515 4.61585 4.52082 4.93686 4.52082 5.25781 4.52082 6.12905 3.43856 6.86269 2.06116 8.28416-0.496905 8.78856-0.841243 9.20124 0.290189 9.52224 1.22489 6.77101 5.55382 5.67049 5.84898 4.98269 6.04577 5.21197 6.39011 6.86269 7.57077 8.00904 8.35787 9.3388 9.68604 9.84321 10.4731 10.7603 11.8505 10.8061 11.949 10.0724 15.6876 9.56808 18.1964 8.97196 19.9674 8.28416 20.7545 7.68809 21.4432 6.03733 23.706 4.57001 25.8213 2.18562 29.2157 0.947587 30.1995 0.0763468 29.314ZM4.66173 22.8697C5.62465 21.5908 6.77101 20.1642 7.18368 19.7707 7.68809 19.3279 8.19249 17.6553 8.51344 15.4416 9.06368 11.9981 9.01784 11.8505 8.00904 10.6699 7.41297 9.98125 6.22077 8.99736 5.39537 8.45623L3.83638 7.47235 3.05686 9.3417C2.18562 11.5062 1.63539 25.1818 2.4149 25.1818 2.69002 25.1818 3.69877 24.1488 4.66173 22.8697Z" fill="#1D3557" fill-rule="evenodd" transform="matrix(-1.83964e-16 -1 -1.00145 1.83697e-16 949.098 121.068)"/><path d="M26.497 13.8769C25.2895 13.196 21.2807 11.2988 17.5616 9.64491 13.8426 7.99101 8.67457 5.51012 6.0181 4.14808 3.40993 2.73741 0.994976 1.61861 0.608573 1.61861 0.222167 1.61861-0.0676248 1.18079-0.0676248 0.645755-0.0676248 0.110669 0.173885-0.327148 0.415344-0.327148 0.705187-0.327148 4.1344 1.32674 8.09498 3.32114 12.0555 5.31558 17.2235 7.74778 19.5419 8.672 25.0963 10.9097 29.878 13.6336 29.878 14.5093 29.878 15.4822 29.0569 15.3363 26.497 13.8769Z" fill="#1D3557" fill-rule="evenodd" transform="matrix(-1.83964e-16 -1 -1.00145 1.83697e-16 935.554 108.51)"/><path d="M0.0249212 2.78332C-0.181275 2.29969 0.0249212 1.81607 0.540303 1.52591 1.05574 1.2841 1.4165 0.752127 1.4165 0.413611 1.4165-0.505231 2.3958-0.553583 2.75656 0.316907 3.1689 1.3325 2.03498 3.55711 1.15878 3.55711 0.694923 3.55711 0.231063 3.21854 0.0249212 2.78332Z" fill="#1D3557" fill-rule="evenodd" transform="matrix(-1.83964e-16 -1 -1.00145 1.83697e-16 946.196 113.34)"/><path d="M0.189885 7.28601C0.14426 7.19594 0.0529645 6.38515 0.0072922 5.48424-0.129629 4.35815 0.0072922 3.77254 0.37243 3.77254 0.691944 3.77254 1.55909 2.87168 2.28937 1.74556 3.06527 0.664504 3.93241-0.281439 4.25193-0.281439 5.11908-0.281439 4.8909 2.01582 3.84117 3.77254 2.33499 6.20496 0.509351 8.00672 0.189885 7.28601Z" fill="#1D3557" fill-rule="evenodd" transform="matrix(-1.83964e-16 -1 -1.00145 1.83697e-16 952 118.17)"/><path d="M1.58609 26.8924C1.68582 26.3925 1.98496 25.5926 2.18437 25.0926 2.43367 24.4426 2.33394 24.2926 1.78555 24.5426 1.38668 24.6926 0.888085 24.5426 0.638839 24.1926 0.439379 23.8428 0.539108 23.4428 0.838246 23.3428 1.18723 23.2428 1.68582 22.6929 1.98496 22.093 2.43367 21.193 2.43367 21.093 1.88523 21.6429 1.08755 22.3929-0.0591672 22.4429-0.0591672 21.7429-0.0591672 21.443 1.13738 19.7932 2.58323 18.0933 7.56896 12.1939 14.8979 1.54503 14.8979 0.145173 14.8979-0.0548211 15.2469-0.254762 15.6458-0.254762 16.5931-0.254762 16.5931 1.19508 15.6956 2.54495 15.2968 3.09489 14.7484 4.39473 14.4492 5.49462 14.1501 6.5945 13.2028 8.7443 12.3054 10.2441 11.4079 11.744 10.7598 13.3938 10.8595 13.8437 10.9094 14.3437 9.2641 17.3434 7.17008 20.5431 5.07612 23.7427 3.2314 26.6924 3.08183 27.0424 2.68297 28.0923 1.28695 27.9423 1.58609 26.8924Z" fill="#1D3557" fill-rule="evenodd" transform="matrix(-1.83964e-16 -1 -1.00145 1.83697e-16 1011.01 113.34)"/><path d="M-0.0543673 23.4508C-0.154277 23.2495 1.19497 21.2865 2.99398 19.0719 8.84085 11.824 12.5888 6.53908 14.3879 3.11643 16.1869-0.255795 16.8366-0.910153 17.2863 0.348187 17.786 1.80781 13.7882 8.14969 6.69201 17.0585 1.14502 24.0548 0.645263 24.5581-0.0543673 23.4508Z" fill="#1D3557" fill-rule="evenodd" transform="matrix(-1.83964e-16 -1 -1.00145 1.83697e-16 1017.78 113.34)"/><path d="M-0.0590402 24.964C-0.0590402 24.4106 0.138071 23.8572 0.384382 23.656 2.01031 22.6498 12.1107 8.01 14.7713 2.82818 15.6581 1.16804 16.5449-0.2406 16.7421-0.2406 19.0085-0.2406 14.6234 7.65785 5.06502 20.5872 1.27128 25.7689-0.0590402 26.8758-0.0590402 24.964Z" fill="#1D3557" fill-rule="evenodd" transform="matrix(-1.83964e-16 -1 -1.00145 1.83697e-16 1023.59 113.34)"/><path d="M-0.0346246 24.3541C-0.17952 23.867 0.35178 22.9416 1.36605 21.8213 2.33204 20.8473 4.84359 17.6328 6.96879 14.7105 10.2048 10.2785 11.9436 7.55107 16.1456 0.342811 16.8701-0.972159 17.6912 0.196726 17.1599 1.75527 16.049 4.96971 2.52526 24.2079 0.883081 24.841 0.544957 24.9872 0.158603 24.7923-0.0346246 24.3541Z" fill="#1D3557" fill-rule="evenodd" transform="matrix(-1.83964e-16 -1 -1.00145 1.83697e-16 1028.42 112.374)"/><path d="M-0.0180752 34.2715C-0.258253 33.6694 0.55831 32.3149 2.8639 29.5555 7.18684 24.388 10.8854 19.07 13.7193 14.0532 16.3131 9.43752 16.9375 7.73176 14.5839 11.5948 9.63653 19.7223 3.29619 28.3514 2.28751 28.3514 1.23077 28.3514 1.56698 27.047 3.10408 25.3413 6.51437 21.5785 16.0248 7.02942 15.4965 6.47756 15.3524 6.37718 14.0075 8.23347 12.4704 10.5915 8.91604 16.0599 2.91192 22.7826 2.19144 22.0802 1.85518 21.7291 2.47963 20.6755 4.30486 18.6185 7.52309 15.0565 11.2697 9.83886 14.4399 4.57111 15.7367 2.36364 16.9375 0.356869 17.1296 0.0558564 17.3698-0.345529 17.658-0.29537 18.0423 0.106016 18.5226 0.607722 18.3305 1.15959 17.3698 2.71481 15.8808 5.07281 15.8328 5.27345 16.7934 5.27345 17.658 5.27345 17.706 5.97584 17.0335 7.33044 16.6494 8.08294 16.6974 8.28363 17.2738 8.28363 18.3785 8.28363 18.1863 9.13651 16.0248 13.2504 13.3831 18.3175 11.798 20.6755 7.61913 26.0938 1.42289 34.0707 0.318132 35.2246-0.0180752 34.2715Z" fill="#1D3557" fill-rule="evenodd" transform="matrix(-1.83964e-16 -1 -1.00145 1.83697e-16 1043.9 112.374)"/><path d="M-0.0500228 16.5548C-0.144555 16.2154 0.611601 14.955 1.69854 13.7431 2.78548 12.5797 5.66823 8.94386 8.12566 5.69589 12.3789-0.0244124 13.4658-1.09092 13.4658 0.411851 13.4658 1.67228 1.50953 17.185 0.517068 17.185 0.328055 17.185 0.09175 16.8941-0.0500228 16.5548Z" fill="#1D3557" fill-rule="evenodd" transform="matrix(-1.83964e-16 -1 -1.00145 1.83697e-16 1044.87 109.476)"/><path d="M-0.0407213 7.24877C-0.185995 7.00046 0.685646 5.51063 1.89629 3.92156 3.10688 2.33243 4.07539 0.743297 4.07539 0.445341 4.07539-0.299521 5.33445-0.448526 5.72186 0.246739 5.86713 0.494992 5.09235 2.03447 4.02698 3.7229 1.99311 6.85146 0.491964 8.14264-0.0407213 7.24877Z" fill="#1D3557" fill-rule="evenodd" transform="matrix(-1.83964e-16 -1 -1.00145 1.83697e-16 1044.87 108.51)"/><path d="M0.564209 32.1892C0.367581 31.89 0.515026 31.3914 0.908232 31.0921 1.59633 30.5436 7.54339 22.9141 9.60768 19.9719 11.8193 16.7804 10.1974 18.3762 5.97062 23.5622 3.36573 26.7038 1.30143 28.7983 0.760787 28.7983-0.418778 28.7983-0.369647 28.4493 1.05568 26.9033 6.5604 20.8196 13.5397 11.7938 17.5698 5.56042 21.6984-0.822461 21.3052-0.323836 21.9441 0.124984 22.5831 0.523894 21.7475 2.21935 18.7002 6.90682 17.3733 8.90148 16.6852 10.4972 16.8326 10.9959 17.2259 11.8935 14.0802 16.7804 8.47725 24.0111 4.44698 29.2471 3.66061 31.2916 7.49426 26.4545 9.75511 23.662 10.9347 22.8642 10.9347 24.1607 10.9347 24.5097 9.70594 26.2551 8.23149 28.0004 5.67573 31.0921 4.29953 32.0395 4.29953 30.6933 4.29953 30.3441 3.75888 30.6933 3.07078 31.4412 1.69464 32.8873 1.10486 33.0868 0.564209 32.1892Z" fill="#1D3557" fill-rule="evenodd" transform="matrix(-1.83964e-16 -1 -1.00145 1.83697e-16 1133.87 100.782)"/><path d="M-0.0194448 30.9816C0.0813821 30.5835 2.65207 27.2492 5.6764 23.5167 13.2372 14.3102 20.8988 4.00882 21.9069 1.7694 22.8142-0.221207 24.0743-0.768626 24.0743 0.823875 24.0743 2.16755 17.9753 10.9759 12.0779 18.1919 9.4568 21.3769 5.92839 25.7562 4.2146 27.8961 1.39192 31.4295-0.422699 32.7731-0.0194448 30.9816Z" fill="#1D3557" fill-rule="evenodd" transform="matrix(-1.83964e-16 -1 -1.00145 1.83697e-16 1140.64 100.782)"/><path d="M-0.0752022 32.4481C-0.0752022 32.2985 1.93728 29.7547 4.35226 26.8119 9.33312 20.8765 17.2824 9.75385 20.8546 3.76854 23.2192-0.221653 24.0745-0.969831 24.0745 0.825787 24.0745 3.91819 3.04416 32.7473 0.830398 32.7473 0.327304 32.7473-0.0752022 32.5978-0.0752022 32.4481Z" fill="#1D3557" fill-rule="evenodd" transform="matrix(-1.83964e-16 -1 -1.00145 1.83697e-16 1148.38 100.782)"/><path d="M0.572586 31.7721C-0.18362 31.5316-0.334861 30.185 0.421345 30.185 1.42964 30.185 10.1514 19.9895 14.7391 13.449 17.2598 9.79404 20.8392 3.15735 21.3434 1.23367 21.7971-0.449532 23.1078-0.545698 23.1078 1.08942 23.1078 2.436 19.2259 9.84214 16.3019 14.0742 12.8737 19.0277 4.30328 29.4155 2.13545 31.195 1.58088 31.6277 0.875069 31.8683 0.572586 31.7721Z" fill="#1D3557" fill-rule="evenodd" transform="matrix(-1.83964e-16 -1 -1.00145 1.83697e-16 1155.15 99.8163)"/><path d="M-0.0242033 30.1705C-0.223592 29.721 0.175133 29.0219 0.922709 28.4228 4.31179 25.7264 13.8311 11.3958 17.2202 3.856 18.8648 0.210926 20.2105-1.13726 20.2105 0.810108 20.2105 3.60633 10.143 20.3337 4.26197 27.3243 1.1221 31.0193 0.474163 31.4686-0.0242033 30.1705Z" fill="#1D3557" fill-rule="evenodd" transform="matrix(-1.83964e-16 -1 -1.00145 1.83697e-16 1160.96 97.8844)"/><path d="M-0.0651821 25.3819C-0.16644 25.0438 0.491659 23.933 1.45342 22.9669 5.65498 18.7166 14.5137 4.85467 15.5261 1.03902 15.7286 0.411103 16.2348-0.0718515 16.6904-0.0718515 17.8547-0.0718515 17.4497 1.47369 14.9187 6.44856 11.8813 12.5343 2.01027 26.0098 0.64352 26.0098 0.3904 26.0098 0.0866788 25.72-0.0651821 25.3819Z" fill="#1D3557" fill-rule="evenodd" transform="matrix(-1.83964e-16 -1 -1.00145 1.83697e-16 1163.86 97.8844)"/><path d="M0.169831 21.456C-0.287575 20.9095-0.135107 20.6114 0.881371 19.9655 2.45692 18.972 8.86072 10.6257 11.1986 6.6512 12.0627 5.11114 13.0791 2.92521 13.4348 1.78256 13.8922 0.441188 14.3496-0.154967 14.8579-0.0556252 17.145 0.391518 11.6053 10.3773 4.43907 18.8229 2.86352 20.6611 1.38964 22.1514 1.13551 22.1514 0.93223 22.1514 0.47477 21.8534 0.169831 21.456Z" fill="#1D3557" fill-rule="evenodd" transform="matrix(-1.83964e-16 -1 -1.00145 1.83697e-16 1168.7 96.9184)"/><path d="M-0.0116843 18.5154C-0.201678 18.0197 0.0833377 17.5736 0.795877 17.3258 2.7435 16.5327 9.20395 6.42101 10.3441 2.40604 10.7241 0.968594 11.2941 0.125953 11.8167-0.0227726 12.5292-0.171446 12.6242 0.0763953 12.3391 1.41467 11.4841 6.02444 3.12354 19.2589 1.08089 19.2589 0.653369 19.2589 0.130824 18.912-0.0116843 18.5154Z" fill="#1D3557" fill-rule="evenodd" transform="matrix(-1.83964e-16 -1 -1.00145 1.83697e-16 1171.6 96.9184)"/><path d="M-0.0716123 9.8377C-0.0716123 9.4471 0.227629 9.10527 0.576778 9.10527 1.27502 9.10527 5.91331 2.17193 5.91331 1.09775 5.91331 0.121248 6.86094-0.415846 7.50928 0.218882 8.65639 1.34189 2.77123 10.5701 0.925875 10.5701 0.377249 10.5701-0.0716123 10.2283-0.0716123 9.8377Z" fill="#1D3557" fill-rule="evenodd" transform="matrix(-1.83964e-16 -1 -1.00145 1.83697e-16 1170.63 95.9524)"/></g></g></g></g></g></svg>