<svg width="981" height="592" xmlns="http://www.w3.org/2000/svg" xmlns:xlink="http://www.w3.org/1999/xlink" overflow="hidden"><defs><clipPath id="clip0"><rect x="129" y="68" width="981" height="592"/></clipPath></defs><g clip-path="url(#clip0)" transform="translate(-129 -68)"><path d="M418.438 25.3467C424.491 25.2158 424.23 24.5052 423.932 23.0837 423.485 20.6899 420.952 20.241 405.604 19.493 395.77 18.8944 370.29 18.4456 348.983 18.2961 299.662 18.1464 177.181 12.0121 173.306 9.61827 172.561 9.01974 140.228 8.27169 101.486 7.82284L31.3052 6.92512 25.4942 2.88556C19.534-1.45334 16.4049-0.854975 18.044 4.38165 20.279 11.264 27.2823 12.1617 84.947 13.0595 114.599 13.5083 159.3 15.3037 184.333 16.9495 258.537 21.8868 263.752 22.1861 306.517 22.635 329.016 22.7845 359.86 23.5325 375.059 24.1311 400.017 25.0288 412.384 25.4776 418.438 25.3467ZM424.776 48.0317C427.309 48.0317 427.905 42.7951 425.372 41.1493 423.137 39.8027 420.455 42.9446 421.498 45.6377 422.094 46.9843 423.435 48.0317 424.776 48.0317ZM140.7 67.3149C138.744 67.0531 136.584 66.2675 133.902 64.9209 125.706 60.8813 123.62 51.0066 130.922 51.0066 135.69 51.0066 144.63 54.4478 146.716 56.9913 149.249 60.1333 149.1 65.5194 146.269 66.5668 144.407 67.3149 142.656 67.5767 140.7 67.3149ZM54.4922 70.3421C50.993 70.244 48.8975 67.5788 48.8975 62.9781 48.8975 57.1431 50.2386 56.6942 55.7517 61.0331 61.2649 65.2224 62.1589 68.0652 58.4338 69.5613 56.981 70.1224 55.6587 70.3748 54.4922 70.3421ZM98.3982 70.392C94.6475 70.9811 93.5579 68.9613 93.5579 63.5751 93.5579 57.2911 95.0479 56.5431 101.604 59.2362 108.16 62.0789 108.905 66.8667 103.094 68.9613 101.194 69.7093 99.6484 70.1956 98.3982 70.392ZM424.031 71.9416C427.458 71.9416 428.054 68.6499 425.074 66.1064 422.69 64.1615 421.051 65.3584 421.051 69.2484 421.051 70.8942 422.094 71.9416 424.031 71.9416ZM144.407 72.701C148.132 72.4766 151.335 71.3546 152.825 69.4095 156.55 64.3225 155.06 57.5897 148.653 50.857 143.587 45.4708 142.395 44.8723 140.458 46.5181 138.67 48.0143 137.627 48.0143 136.435 46.8174 133.902 44.2738 125.408 44.5731 122.726 47.4158 119.299 50.7073 119.746 58.7867 123.62 63.724 125.259 65.9683 129.581 69.1103 132.859 70.6064 136.435 72.2521 140.682 72.9254 144.407 72.701ZM17.6495 74.7096C21.263 74.5039 24.3548 73.5314 24.3548 71.9604 24.3548 70.4642 22.5667 69.5665 18.8416 69.2673 9.60345 68.5192 6.92136 59.2429 15.7126 58.1957 22.2687 57.4476 21.0767 53.4079 13.9246 52.5102 7.96439 51.7622 7.96439 51.7622 8.2624 45.7775 8.85842 37.2494 11.5405 35.1547 19.7356 37.0997 27.4839 38.8951 31.209 37.5485 28.2289 34.1073 25.8448 31.115 12.8816 29.3196 8.85842 31.5639-2.46594 37.5485-3.06196 65.0781 7.81539 72.8581 9.90146 74.3544 14.0362 74.9154 17.6495 74.7096ZM341.867 74.7924C341.569 74.6427 340.079 74.1938 338.44 73.8947 333.523 72.6977 326.37 66.4139 324.433 61.6261 322.198 56.3895 324.731 49.208 329.202 48.3102 340.526 46.0659 354.681 68.3588 345.294 73.4458 343.655 74.1938 342.165 74.7924 341.867 74.7924ZM51.4306 76.4436C55.0067 76.4436 59.9239 75.3964 62.3079 74.1994 68.4171 71.0575 68.5661 63.1277 62.904 58.6393 60.5199 56.6942 59.3278 54.5996 59.9239 53.253 60.9669 50.4104 66.9271 48.0164 72.7383 48.0164 77.5064 48.0164 79.8905 45.6226 77.5064 43.2288 74.8243 40.5357 57.9868 44.8746 54.4107 48.9141 50.6856 53.253 48.8975 52.2058 48.8975 46.0715 48.8975 43.3783 48.1525 40.2363 47.4075 39.0394 43.2355 32.9052 36.6793 52.9539 39.0634 64.4743 39.5104 67.0178 41.0004 70.6087 42.3415 72.7033 44.2785 75.6956 45.9174 76.4436 51.4306 76.4436ZM96.2399 77.0406C97.432 76.7414 100.263 76.4422 102.498 76.4422 105.627 76.4422 107.862 75.0956 110.842 71.2056 114.419 66.5675 114.568 65.5201 112.928 61.63 112.034 59.2362 110.246 56.8423 109.054 56.3934 105.478 55.0468 106.67 51.3065 110.991 50.7081 113.674 50.4088 115.313 49.2119 115.611 47.4164 116.207 44.5738 113.524 44.5738 99.9651 47.2669 95.6439 48.3141 95.1969 48.015 94.7499 44.1249 94.1539 38.5891 91.3229 37.9906 89.3859 43.0775 83.2767 58.6377 84.0217 73.5994 91.0249 76.4422 92.8128 77.1902 95.1969 77.4894 96.2399 77.0406ZM277.285 78.6426C279.471 79.1966 280.002 75.3534 278.438 68.0595 276.352 57.8856 277.842 53.9956 283.802 54.1452 290.507 54.2949 296.765 58.933 296.914 63.8703 297.212 71.3512 297.51 71.9495 299.596 71.9495 302.725 71.9495 303.023 70.9023 304.216 57.2872 305.259 46.6643 304.961 45.0186 303.023 45.0186 301.682 45.0186 300.192 46.3651 299.745 48.1606 298.851 50.8537 298.106 51.1529 293.338 50.1055 284.994 48.3102 276.501 48.9086 273.819 51.6018 270.392 55.0429 270.988 72.5481 274.564 76.5878 275.644 77.7847 276.557 78.458 277.285 78.6426ZM181.354 80.7205C184.446 80.5147 187.575 79.4301 190.481 77.485 197.484 72.8469 197.931 67.3111 191.822 62.9722 186.159 58.9325 187.202 57.5859 197.037 55.9402 202.55 55.0425 204.636 53.9952 204.934 51.9006 205.53 49.2075 204.785 49.2075 195.547 50.1052 190.034 50.7036 183.179 52.0501 180.348 53.247 176.027 55.0425 175.282 56.0898 175.729 59.531 176.027 62.9722 176.921 63.8699 180.944 64.1691 186.606 64.7677 189.438 67.76 188.096 71.9492 186.755 76.1385 179.156 75.8393 173.196 71.3507 168.875 67.9095 168.428 66.7126 167.534 56.8379 166.64 46.9632 165.15 43.6717 161.574 43.522 160.978 43.522 159.637 45.1677 158.743 47.2624 157.402 50.2547 157.402 52.3495 158.743 56.0898 159.786 58.783 160.531 64.7677 160.531 69.5553 160.531 78.2331 160.531 78.2331 164.703 77.3354 166.938 76.8865 170.365 77.485 172.451 78.6819 175.208 80.2529 178.262 80.9262 181.354 80.7205ZM342.612 80.721C345.443 80.59 347.827 79.4305 350.211 77.1862 356.022 71.8 355.724 62.5239 349.168 53.098 344.847 46.9637 342.91 45.4674 336.652 43.6721 326.668 40.979 321.304 43.3728 318.622 51.6018 315.344 61.7756 321.155 72.9969 332.331 78.0839 336.503 79.9542 339.781 80.8519 342.612 80.721ZM364.996 85.9904C365.592 86.0465 366.188 85.8596 366.71 85.4107 368.051 84.3633 367.902 80.3236 366.71 69.4017 365.22 57.4324 365.22 54.2903 366.859 52.6446 369.243 49.9514 375.948 52.4949 381.014 57.8812 382.802 59.8262 385.335 61.4719 386.378 61.4719 389.06 61.4719 391.295 67.7559 391.295 75.0872 391.295 79.8748 391.742 80.9221 394.276 80.9221 396.809 80.9221 397.256 80.0244 397.107 74.6383 396.958 62.3696 393.68 47.2583 390.997 46.8096 389.656 46.5103 388.166 47.5576 387.57 49.3531 386.378 53.3926 384.888 53.2431 378.183 48.7545 371.329 44.1165 367.306 43.9668 362.091 48.4554 358.067 52.0461 358.067 52.1957 359.706 60.7239 360.749 65.5116 361.495 72.5437 361.495 76.4336 361.495 80.1741 362.24 84.0642 363.283 85.1114 363.804 85.6352 364.4 85.9343 364.996 85.9904Z" fill-rule="evenodd" transform="matrix(1 0 0 -1 130 154)"/><path d="M102.154 377.931C101.806 377.351 101.228 375.263 100.765 373.291 100.302 370.623 99.3755 369.463 97.8705 369.463 96.7129 369.463 94.8607 369.115 93.8188 368.767 92.5454 368.187 91.735 368.767 91.272 370.507 90.4616 373.871 87.2203 373.175 86.2942 369.579 85.3681 365.519 83.0528 365.287 82.5897 369.115 82.3582 371.435 81.548 372.363 79.9273 372.363 78.1908 372.363 77.4963 371.435 77.2647 368.767 76.9174 364.59 73.3288 360.762 70.8977 361.69 69.8559 362.038 69.5086 363.546 69.8559 365.867 70.6662 371.783 66.4987 369.811 65.1095 363.662 64.7623 362.038 63.6046 359.718 62.5627 358.442 60.8263 356.122 60.7105 356.122 58.9741 358.79 56.4273 362.154 53.8805 362.038 53.8805 358.558 53.8805 355.426 49.2499 349.277 45.4297 347.305 43.5775 346.261 42.8829 346.377 42.0726 347.885 39.9888 351.481 37.9051 349.857 36.5159 343.593 35.7056 339.417 34.2007 336.516 32.0012 334.312 28.5282 331.064 26.0973 330.252 26.0973 332.34 26.0973 333.036 25.0555 333.5 23.8978 333.5 22.0456 333.5 21.4668 332.34 20.888 326.888 20.4249 322.827 18.4569 316.563 15.7944 310.879 10.2377 299.162 6.99635 287.445 5.14413 272.248 2.59733 251.25 6.41753 219.348 13.4791 204.035 14.6367 201.251 15.6786 198.698 15.6786 198.234 15.6786 197.77 17.6466 194.522 19.9619 190.926 26.7918 180.833 27.2549 179.441 27.9494 169.464 28.644 160.648 28.5282 159.72 25.8658 156.587 15.2156 143.362 11.6269 135.938 12.6688 129.209 14.2895 119.001 20.0776 115.636 31.1908 118.189 34.6637 119.001 38.3682 120.509 39.41 121.669 40.4519 122.713 41.7253 123.525 42.3041 123.525 44.6194 123.525 47.282 136.518 46.5874 144.059 45.6613 153.223 43.9248 157.051 39.1785 160.068 36.0529 161.924 35.4741 163.084 35.3583 166.68 35.3583 169 35.9371 171.32 36.5159 171.669 38.2524 172.712 45.8928 170.044 49.0184 167.26 51.9125 164.592 52.4913 157.515 50.2918 149.743 47.9765 141.39 51.7967 135.126 59.2056 135.126L63.3731 135.126 62.5627 116.912C61.6366 99.2792 61.4051 94.5229 61.0578 91.3907 60.9421 90.5785 60.0159 89.8825 58.9741 89.8825 56.3115 89.8825 50.8706 86.6343 42.8829 80.3698 34.8952 74.1054 32.1169 70.0451 30.9593 62.9685 30.1489 58.6762 29.6859 57.9802 26.4445 57.2841 24.3609 56.9362 21.351 55.66 19.8461 54.6159 18.2254 53.572 15.7944 52.7598 14.521 52.7598 13.2476 52.7598 11.7427 51.8318 11.3954 50.7877 10.9323 49.6276 9.19585 47.5395 7.4594 46.1474-0.180998 39.6508-3.53814 23.1777 1.0924 14.4771 3.98649 9.14067 5.25989 8.21263 15.9101 4.15231 23.6663 1.13608 26.676 0.672121 41.378-0.0239413 61.4051-0.951982 79.1169 1.36818 85.8311 5.77641 87.2203 6.70457 93.1242 7.51656 100.302 7.98065 106.9 8.32868 118.245 8.90869 125.422 9.37277 138.04 10.0687 138.619 9.95278 140.356 7.51656 141.976 5.1964 142.787 4.96442 154.479 5.42838 168.949 5.89246 175.548 8.32868 180.989 15.2892 186.661 22.5977 187.703 25.7299 187.24 34.3146 186.893 38.6069 180.294 48.1195 177.632 48.1195 176.358 48.1195 175.085 48.8156 174.737 49.6276 174.39 50.5557 170.338 53.2239 165.592 55.5441L157.141 59.9523 157.026 69.117C157.026 75.8456 156.331 79.5579 154.595 83.1541 153.321 85.8223 152.279 88.6064 152.279 89.1865 152.164 92.3187 146.723 96.959 142.324 97.6551 139.893 98.0031 137.23 98.8152 136.42 99.3952 135.725 99.9753 134.915 105.892 134.452 114.012 134.105 121.437 133.526 132.342 133.178 138.258L132.715 148.931 135.957 149.627C141.976 150.903 147.649 160.3 147.649 168.768 147.649 176.309 148.459 178.049 152.164 178.049 153.9 178.049 157.489 179.905 160.962 182.689 167.329 187.794 169.644 188.49 169.644 185.125 169.644 180.833 168.37 179.209 165.592 179.905 163.161 180.485 162.466 179.789 160.267 174.917 154.595 162.852 158.183 144.87 166.866 142.086 171.728 140.462 181.915 141.738 186.661 144.639 193.491 148.699 195.112 152.295 195.112 163.2 194.996 177.353 190.597 184.429 181.336 185.473 179.252 185.705 177.053 186.634 176.474 187.446 174.506 190.462 176.705 197.77 180.757 202.179 184.577 206.239 193.954 220.856 197.658 228.513 198.585 230.485 199.974 236.169 200.784 241.273 201.594 246.378 202.752 253.802 203.331 257.631 204.373 263.199 204.141 266.679 202.752 273.872 199.974 287.909 196.501 300.09 194.533 302.178 193.607 303.222 192.681 306.354 192.681 309.254 192.565 312.039 191.755 315.635 190.944 317.259 184.114 330.368 180.063 339.881 180.063 342.781 180.063 344.637 179.484 347.537 178.789 349.277L177.632 352.526 174.969 349.161C172.769 346.377 172.191 346.145 171.612 347.769 171.149 348.929 170.107 349.741 169.181 349.741 167.213 349.741 166.171 352.178 166.171 356.702 166.171 360.878 163.971 362.386 162.003 359.718 160.73 357.862 160.035 357.862 156.447 359.022 152.164 360.414 151.469 361.574 150.89 368.883 150.659 371.087 149.848 372.363 148.806 372.363 147.765 372.363 146.838 370.971 146.491 368.883 145.681 364.126 141.398 363.894 140.934 368.651 140.471 372.479 138.388 372.711 133.757 369.347 128.779 365.634 124.728 367.027 124.265 372.711 124.033 376.075 123.454 377.003 121.602 377.003 119.866 377.003 119.171 376.075 118.708 372.943 118.361 370.623 117.435 368.883 116.74 368.999 115.93 369.115 113.383 369.231 111.183 369.347 107.016 369.463 106.784 369.811 105.511 375.611 104.816 378.627 103.196 379.671 102.154 377.931ZM99.9543 362.85C101.112 360.53 99.8385 339.069 97.2917 316.679 95.0922 297.306 94.9764 286.633 97.1759 284.893 98.1021 284.081 99.0282 283.965 99.3755 284.429 99.607 284.893 100.186 291.389 100.649 298.698 101.112 306.006 102.154 319.115 103.08 327.7 104.006 336.284 104.932 347.537 105.164 352.758 105.395 357.978 105.974 362.734 106.437 363.43 107.479 365.054 116.045 364.474 117.898 362.618 119.055 361.458 118.708 354.962 115.235 322.479 113.73 308.558 113.846 288.489 115.351 287.561 117.666 286.169 118.708 289.765 118.708 299.278 118.824 309.138 120.213 325.496 122.181 338.72 122.76 343.245 123.686 350.321 124.149 354.73L124.843 362.502 128.548 362.502C132.715 362.502 133.757 360.994 133.063 356.586 132.831 355.078 132.137 348.117 131.442 341.041 130.863 334.08 129.59 320.739 128.548 311.459 126.58 292.897 126.927 286.749 130.053 287.329 131.558 287.561 132.021 289.069 132.252 293.477 132.368 296.726 132.947 305.542 133.641 313.199 134.336 320.855 135.494 333.848 136.073 341.969 137.23 356.122 138.388 361.342 140.587 361.342 141.166 361.342 142.787 360.414 144.292 359.138L146.954 357.05 145.333 335.124C143.018 301.598 142.787 287.561 144.639 285.937 147.88 283.269 148.343 286.633 149.385 321.899 149.732 335.588 150.427 348.581 150.774 350.669 151.469 354.962 154.016 355.542 158.067 352.294L160.73 350.089 159.341 328.744C157.489 297.538 157.257 287.445 158.878 285.821 159.572 285.125 160.614 284.777 161.309 285.241 161.888 285.589 162.698 296.726 163.161 309.951 163.971 333.268 165.013 343.129 166.75 344.869 167.097 345.333 169.065 343.941 171.033 341.737L174.506 337.909 174.159 311.923C173.811 292.665 174.043 285.705 175.2 284.545 175.895 283.849 176.937 283.617 177.4 284.081 177.863 284.545 178.442 295.101 178.673 307.514L179.136 330.02 181.567 325.728C185.388 318.419 188.166 309.138 188.976 300.786 189.555 294.405 190.366 291.969 193.028 288.605 197.543 282.805 198.006 280.6 198.006 263.315 198.006 245.914 196.385 237.329 191.292 226.772 186.777 217.492 179.021 206.819 177.284 207.399 176.358 207.747 176.127 213.78 176.242 226.889 176.59 247.422 175.2 256.007 171.728 256.703 170.338 256.935 169.528 256.123 168.949 254.15 168.602 252.526 167.56 251.134 166.75 251.134 164.434 251.134 164.203 249.046 165.708 241.738 166.402 238.141 167.444 225.96 167.907 214.824L168.718 194.522 166.055 193.014C164.55 192.202 161.425 190.114 159.225 188.374 154.826 184.777 146.838 181.529 144.523 182.341 142.208 183.153 142.787 186.053 146.26 190.694 152.627 198.93 152.858 200.322 150.774 209.719 148.228 220.508 148.228 221.552 151.469 224.104 152.974 225.264 154.71 228.745 155.521 232.225 156.91 237.677 156.91 238.605 154.71 242.782 153.437 245.45 151.816 247.77 151.122 248.234 148.922 249.626 149.964 252.294 154.71 256.703 158.878 260.531 159.457 261.691 158.762 264.359 158.183 266.679 156.563 268.187 152.511 269.928 144.407 273.64 137.809 273.176 128.548 268.419 119.75 264.011 116.856 259.835 119.055 254.962 120.329 252.178 122.181 251.366 129.127 250.902 133.063 250.554 133.178 250.322 133.757 245.334 134.105 242.434 135.262 238.837 136.42 237.213 137.462 235.705 138.388 233.037 138.388 231.413 138.388 226.656 134.22 212.851 131.673 209.371 128.316 204.847 127.853 193.13 130.979 189.07 133.641 185.473 134.683 188.49 133.989 197.77 133.526 205.427 133.526 205.891 136.304 207.167 138.851 208.211 139.314 209.487 140.008 215.288 140.356 219.116 141.166 223.176 141.861 224.452 143.829 228.165 143.25 235.937 140.587 239.301 138.851 241.621 138.388 243.246 138.966 246.61 139.661 250.322 139.314 251.134 136.536 253.338 134.683 254.847 131.789 255.775 129.011 255.775 121.486 255.775 122.181 258.559 131.326 264.359 137.925 268.651 143.829 269.348 149.269 266.795 154.363 264.359 154.479 261.807 149.732 258.675 143.944 254.962 143.597 251.018 148.343 244.058 151.7 239.301 152.279 237.561 151.7 234.777 151.237 232.805 150.08 230.949 149.154 230.601 147.186 229.789 142.671 220.16 143.597 218.536 143.944 217.956 144.986 213.896 145.797 209.487 147.301 201.483 147.301 201.483 144.06 195.798 141.976 192.318 140.703 188.606 140.703 185.821 140.703 181.645 140.471 181.413 137.577 181.761 135.031 181.993 133.873 181.297 131.442 177.585 129.706 175.149 126.927 172.365 125.306 171.552 121.949 169.696 82.7055 166.796 77.9593 167.956 75.5283 168.652 75.181 169.232 75.644 172.132 75.9913 174.685 75.4125 176.309 73.0972 178.629 70.4347 181.297 70.0874 182.457 70.0874 190.462 70.0874 199.51 69.1613 203.919 65.3411 212.619 62.6785 218.652 62.5627 220.856 65.1095 228.745 66.9618 234.545 66.9618 235.125 65.1095 238.953 62.3312 244.87 62.5627 247.886 66.3829 249.974 68.5825 251.25 70.6662 251.598 73.5603 251.018 79.6958 249.626 85.9469 251.018 89.7671 254.614 94.2818 258.907 94.5134 264.127 90.2301 266.911 87.4518 268.768 86.9887 268.768 83.2843 267.027 78.3066 264.591 73.6761 264.475 72.7499 266.795 72.4027 267.84 70.6662 269.348 68.814 270.276 65.2253 272.248 61.8682 271.436 56.1958 267.375 54.3435 266.099 52.144 265.055 51.1021 265.055 49.713 265.055 49.2499 263.895 49.2499 260.415 49.2499 257.863 49.8288 255.775 50.4076 255.775 52.144 255.775 51.7967 249.278 49.5972 240.229 47.9765 233.501 47.8608 230.601 48.9026 222.828 50.2918 212.271 49.2499 186.17 47.1662 181.297 46.0086 178.397 45.777 178.281 41.7253 179.789 39.2943 180.485 36.979 181.877 36.5159 182.689 35.9371 183.617 35.8214 195.566 36.1686 209.255 36.6317 230.717 36.5159 234.893 34.8952 238.721 33.8534 241.041 32.4642 243.014 31.8854 243.014 29.1071 243.014 28.4125 237.909 28.9913 223.06 29.8016 207.167 28.7598 194.29 26.676 194.058 26.0973 193.942 22.9717 198.814 19.9619 204.731 12.553 219.116 10.9323 228.861 10.9323 259.835 10.9323 280.136 11.1638 283.849 13.2476 289.997 14.521 293.825 15.6786 297.77 15.6786 298.814 15.6786 299.858 16.7205 301.946 17.9939 303.454L20.1934 306.238 20.4249 292.897C20.5407 278.164 21.351 273.756 23.7821 273.756 25.0555 273.756 25.4028 277.932 25.4028 297.074L25.5185 320.507 28.7598 323.755C30.612 325.612 32.3484 326.54 32.9273 325.844 33.5061 325.264 33.5061 319.347 32.9273 312.619 31.4223 293.361 31.6539 280.6 33.3903 279.092 34.3164 278.396 35.3583 278.164 35.7056 278.628 36.1686 278.976 36.5159 285.937 36.5159 293.941 36.6317 301.946 37.3263 314.591 38.1366 321.783L39.7573 335.124 44.5036 339.649C47.282 342.085 49.5972 343.941 49.8288 343.709 49.9445 343.593 49.713 338.953 49.1342 333.5 47.1662 313.547 45.5455 285.937 46.1243 284.197 46.5874 283.269 47.6292 282.457 48.4396 282.457 49.713 282.457 50.2918 285.473 50.8706 294.985 52.4913 320.507 55.1539 341.621 57.4692 347.073 60.8263 354.846 62.447 352.41 60.8263 342.085 59.2056 331.18 55.8485 282.689 56.6588 280.6 57.0061 279.788 58.048 278.976 59.0898 278.976 60.479 278.976 60.8263 280.484 60.8263 286.633 60.8263 302.062 64.5307 338.953 67.0775 349.161 68.6982 355.426 71.7081 358.442 73.5603 355.542 74.1391 354.614 74.3706 352.99 73.9076 352.061 71.9396 347.653 69.7401 297.074 71.0135 284.429 71.245 280.832 72.1711 278.512 73.213 278.164 76.1071 277.004 76.5701 279.672 75.4125 290.809 74.7179 298.234 74.8337 306.006 75.7598 315.519 76.4544 323.175 77.0332 332.456 77.0332 336.052 77.0332 341.853 77.7278 346.493 80.0431 357.63 80.5061 360.066 84.3262 361.342 85.4838 359.37 85.7153 358.79 85.2523 352.99 84.3262 346.261 83.5158 339.533 82.2424 328.628 81.6637 321.899 81.2007 315.171 80.2746 305.658 79.8115 300.67 78.8854 289.997 81.2007 279.324 84.905 278.048 86.6415 277.468 86.6415 282.108 84.905 289.069 83.9789 293.129 83.8631 297.306 84.905 306.122 85.5996 312.619 86.7572 323.639 87.4518 330.6 90.2301 358.558 91.0405 362.618 93.703 363.662 97.4075 365.171 98.9124 365.054 99.9543 362.85ZM69.6243 263.315C74.1391 258.675 75.9913 258.327 82.0109 261.575 86.5257 264.011 88.6094 263.779 88.6094 260.995 88.6094 256.935 76.1071 253.686 72.8657 256.935 71.245 258.559 64.2992 256.355 60.7105 252.99 57.8164 250.322 57.7007 249.742 58.6268 244.87 59.2056 241.854 60.1317 238.373 60.8263 237.097 61.8682 235.241 61.7524 233.617 60.3632 230.137 58.048 224.568 57.9322 215.404 60.1317 212.967 63.1416 209.371 65.4568 199.742 65.4568 190.346 65.4568 182.805 65.9199 180.369 67.7721 178.049 70.8977 174.105 70.6662 171.32 67.1933 169.696 64.7623 168.652 63.9519 168.768 61.8682 170.624 60.5948 171.784 57.8164 173.293 55.8485 173.989 51.7967 175.265 51.7967 174.917 53.4174 188.142 53.8805 192.202 54.8066 195.914 55.6169 196.61 56.6588 197.422 56.7746 199.279 56.08 202.759 52.9544 219.812 52.6071 240.461 55.5012 245.102 55.8485 245.682 56.1958 249.162 56.3115 252.99 56.543 259.139 57.0061 260.183 60.479 263.663 62.6785 265.635 64.7623 267.375 65.1095 267.375 65.3411 267.375 67.4248 265.519 69.6243 263.315ZM185.503 179.441C188.166 177.701 190.481 169.928 190.481 162.736 190.481 154.499 188.861 151.251 183.535 148.467 180.063 146.611 168.949 146.147 166.518 147.655 164.434 148.931 162.698 154.499 162.698 159.604 162.698 164.708 168.37 174.569 171.38 174.569 172.306 174.569 173.927 175.845 174.969 177.469 176.937 180.369 182.378 181.413 185.503 179.441ZM141.629 171.436C143.365 167.608 143.481 163.896 141.745 162.156 141.05 161.46 139.777 159.604 139.082 158.095 137.577 155.195 131.789 154.151 132.368 156.935 132.484 157.863 132.947 160.996 133.41 163.896 134.105 169.812 136.42 174.569 138.735 174.569 139.43 174.569 140.819 173.177 141.629 171.436ZM62.91 161.228C63.1416 159.372 64.2992 156.587 65.5726 155.079 68.4667 151.367 68.5825 143.478 65.8041 141.39 63.0258 139.302 56.543 139.302 55.3854 141.39 54.9224 142.318 54.9224 148.119 55.5012 154.267 56.6588 165.288 56.6588 165.404 59.5529 165.056 61.8682 164.824 62.6785 164.012 62.91 161.228ZM71.245 160.068C71.245 159.14 70.4347 158.328 69.5086 158.328 68.5825 158.328 67.7721 159.14 67.7721 160.068 67.7721 160.996 68.5825 161.808 69.5086 161.808 70.4347 161.808 71.245 160.996 71.245 160.068ZM120.097 150.787C120.56 145.102 121.371 132.574 121.949 122.945 122.528 113.432 123.454 104.616 123.917 103.456 125.075 100.671 122.181 96.727 117.087 93.9428 113.499 91.9707 112.457 90.5785 110.952 85.2421 109.447 80.0218 109.331 77.9336 110.489 73.8734 112.109 67.4929 116.624 60.5324 121.023 57.2841 125.654 53.8039 125.422 51.3677 120.213 47.3074 105.627 35.9387 96.4814 34.3146 77.612 39.4189 71.245 41.159 63.8361 43.0151 61.1736 43.7112 53.1859 45.5674 52.8386 47.4234 60.0159 50.3236 66.2672 52.8759 69.277 55.8921 74.4864 64.7087 76.4544 68.189 77.0332 71.0892 77.0332 77.1216 77.0332 84.1982 76.8017 85.1262 74.6022 85.8223 72.2869 86.6343 72.1711 87.2143 72.8657 94.4069 73.213 98.5831 73.7918 106.008 74.0233 110.764 74.2549 115.52 75.2967 125.265 76.3386 132.226 77.2647 139.302 78.1908 147.887 78.1908 151.367 78.1908 154.847 78.6539 158.328 79.1169 159.14 79.9273 160.532 95.5552 161.46 112.92 161.344L119.287 161.228 120.097 150.787ZM39.9888 152.295C42.6514 147.887 43.1145 137.214 40.915 131.994 39.0627 127.585 35.3583 123.525 33.1588 123.525 32.2327 123.525 29.8016 122.945 27.7179 122.133 24.5924 121.089 23.4348 121.089 21.1195 122.713 16.2574 125.845 15.5629 136.518 20.1934 138.026 21.351 138.374 22.856 140.578 23.5505 143.014 27.1391 154.963 35.4741 159.604 39.9888 152.295ZM143.944 90.4626C149.385 85.8223 152.395 78.1657 152.048 69.8131L151.7 62.7366 146.491 60.7644C137.114 57.2841 131.789 56.008 129.474 56.7041 126.464 57.6321 119.866 63.5487 119.866 65.2887 119.866 66.1008 119.403 66.6808 118.939 66.6808 117.087 66.6808 115.235 72.5972 115.235 78.6297 115.235 84.5462 115.467 84.8941 120.792 88.9544 125.654 92.7828 127.043 93.2467 133.41 93.2467 139.314 93.3628 141.05 92.8987 143.944 90.4626ZM70.6662 83.27C73.6761 80.2538 72.5184 70.7411 68.2352 63.6646 63.7204 56.3561 56.543 52.6438 47.1662 52.6438 41.4938 52.6438 40.2204 52.9918 38.0209 55.66 36.0529 57.9802 35.5898 59.4884 36.1686 62.2725 36.979 66.4489 36.979 66.3328 42.9987 73.4093 50.0603 81.53 55.8485 85.0102 62.7943 85.1262 66.9618 85.2421 69.3928 84.6621 70.6662 83.27ZM159.225 53.6879C161.425 52.4118 165.361 50.2077 168.023 48.8156 177.284 44.0592 183.535 36.7507 183.535 30.7182 183.535 27.238 179.715 20.2775 175.779 16.5652 171.033 12.1569 162.93 9.83673 152.279 9.83673 143.713 9.83673 143.134 9.95278 142.787 12.5049 142.439 14.9411 142.092 15.0571 129.242 14.8251 122.065 14.709 114.54 14.0131 112.573 13.433 110.72 12.7369 104.469 12.1569 98.7966 12.1569 93.24 12.1569 87.4518 11.5769 85.9469 10.7648 80.8534 8.21263 79.6958 7.74854 72.8657 6.24049 65.6884 4.50034 31.6539 4.15231 25.75 5.66048 20.5407 6.93655 21.9298 9.4887 28.2967 10.0687 40.1046 11.2289 60.8263 23.8738 66.3829 33.3864 68.5825 37.0987 71.1293 37.3307 78.0751 34.1985 81.7795 32.4584 85.5996 31.8784 93.1242 31.8784 102.154 31.8784 103.774 32.2264 111.068 35.9387 115.467 38.1428 119.866 40.6949 120.907 41.6231 124.496 44.7553 135.725 50.4397 138.272 50.4397 141.513 50.4397 152.164 53.92 152.974 55.1961 153.9 56.7041 154.71 56.4721 159.225 53.6879ZM34.4322 50.4397C35.2425 49.1636 36.4002 48.1195 36.979 48.1195 37.5578 48.1195 43.4618 45.9154 49.9445 43.2472 62.91 38.0267 63.8361 36.8667 59.3214 31.7623 52.8386 24.1057 38.3682 16.5652 26.0973 14.2451 22.6244 13.6651 18.3412 12.853 16.6047 12.5049 11.5111 11.5769 7.69093 13.0849 5.25989 17.1453 2.13427 22.1336 2.3658 27.9341 5.83871 34.8946 8.50127 40.231 16.2574 48.1195 18.92 48.1195 19.4988 48.1195 20.888 49.1636 22.0456 50.4397 23.4348 51.9479 25.6343 52.7598 28.5282 52.7598 31.7696 52.7598 33.3903 52.0638 34.4322 50.4397Z" fill="#EF6F6C" fill-rule="evenodd" transform="matrix(1 0 0 -1 905 622)"/><path d="M97.72 342.216C97.0231 341.405 96.2102 337.35 95.7456 333.18 93.7712 312.328 90.8677 300.743 87.8481 300.743 85.7576 300.743 85.6415 304.566 87.3836 316.614 88.6611 324.839 88.8934 329.357 88.0804 330.168 85.0608 333.18 82.8541 324.839 81.5766 305.261 80.4152 288.232 78.0924 282.903 76.5826 294.14 76.118 297.384 75.305 299.006 74.1436 299.006 72.75 299.006 72.1693 296.573 71.4724 288.001 70.6594 277.574 68.1044 269.465 65.5493 269.465 64.9686 269.465 64.7363 274.331 65.2009 281.05 65.6654 290.318 65.4332 292.634 64.2719 292.634 61.6007 292.634 61.1361 290.549 60.207 274.215 59.2779 257.765 58.4649 254.058 56.2583 254.753 54.8646 255.216 55.213 268.307 56.8389 272.477 57.4197 274.099 57.1874 275.721 56.2583 277.111 54.7484 279.08 54.6323 279.08 53.3548 276.764 51.9611 273.983 49.7544 259.039 48.9415 246.528 48.1285 234.596 45.8057 235.986 45.1088 248.961 44.5281 259.271 43.7152 261.588 41.3924 259.271 39.7664 257.649 39.6503 253.247 40.9278 238.187L41.8569 227.182 33.4949 210.616C28.8493 201.464 24.0876 193.587 22.9262 192.892 21.6486 192.313 19.0936 188.258 17.1192 183.972 15.1448 179.686 11.7768 173.662 9.80239 170.418 4.57623 162.077 3.53097 160.108 0.975901 153.389-0.998473 148.176-1.11461 146.67 0.0467837 143.194 1.78888 138.097 4.11167 135.317 8.40884 133.116 12.4736 131.031 29.43 128.135 37.792 128.135L43.8313 128.135 45.1088 123.385C46.6187 117.709 46.1541 113.538 44.0636 114.002 39.9987 114.813 34.7724 105.197 34.6563 96.8566 34.6563 82.4918 48.2446 72.761 59.1617 79.1323 62.1814 80.9859 62.7621 80.9859 63.6912 79.4799 64.2719 78.5531 64.504 76.2363 64.2719 74.2669 63.9235 72.4134 63.4589 66.3895 63.2266 60.9447L62.9944 51.098 58.8133 48.7811C53.1225 45.5373 51.2642 43.9155 47.6639 38.4709 36.1661 21.4417 35.4693 5.45507 45.9218 1.05294 51.3804-1.14807 65.0847-0.452985 70.7756 2.4431 75.7696 4.99177 80.8797 9.62556 82.9702 13.7959 84.8285 17.2713 86.919 17.0395 86.919 13.3325 86.919 9.16213 90.6355 11.3631 92.1453 16.3445 92.8421 18.8931 95.9779 26.1913 98.9975 32.4469 104.456 43.9155 104.805 47.9701 99.9266 43.9155 97.8361 42.0621 93.4228 33.0261 88.545 20.399L87.0351 16.3445 87.0351 19.8199C86.919 26.1913 89.3579 33.7212 92.8421 38.0075 96.3263 42.4096 97.0231 45.1899 95.1649 46.4642 94.0035 47.0434 93.4228 46.5799 89.3579 41.367L87.2674 38.4709 84.1316 43.9155C82.2734 46.9275 80.5313 49.4762 80.1829 49.4762 79.7183 49.5919 78.2085 49.8237 76.6987 49.9395 75.1889 50.0554 73.6791 50.6345 73.2145 51.2137 72.75 51.7931 72.6338 64.7677 72.9822 80.0592L73.5629 107.862 76.6987 107.862C81.6927 107.978 85.7576 110.758 85.8737 114.118 86.106 119.446 85.6415 121.3 83.3187 123.617 77.5117 129.409 82.738 132.189 102.017 133.348 110.031 133.927 119.903 134.274 124.084 134.39L131.633 134.506 132.329 123.617C132.91 114.465 133.375 112.496 135.465 110.874 137.207 109.484 138.02 107.283 138.369 102.07 139.995 82.2602 141.505 65.6944 142.201 61.4082 142.782 57.4695 142.434 56.311 140.692 55.0367 137.091 52.3722 133.375 46.9275 133.375 44.1473 133.375 42.7571 132.213 40.0927 130.82 38.355 127.8 34.4163 124.084 27.3497 124.084 25.3804 124.084 24.5695 123.619 22.8318 122.922 21.5576 122.341 20.2833 121.296 18.198 120.599 16.9238 119.206 14.1435 119.09 8.00362 120.367 7.19277 122.109 6.15015 123.735 8.23539 124.548 12.5216 125.71 18.7772 130.82 29.8984 132.213 29.0874 133.839 28.0448 133.723 14.6069 132.097 14.6069 129.31 14.6069 132.097 11.7107 135.117 11.479 136.859 11.3631 139.762 10.0889 141.388 8.58293 146.615 3.94915 149.518 2.90653 158.112 2.79064 167.636 2.67488 174.14 5.22342 178.437 11.1315 182.037 15.8812 182.037 26.6546 178.437 32.7945 172.978 42.2937 163.223 52.6039 156.138 56.4268 154.164 57.4695 152.305 58.9754 151.841 59.9021 148.705 66.0419 146.963 109.6 149.17 126.397L150.215 134.506 156.022 134.506 161.829 134.506 162.177 129.293C162.526 125.007 162.061 123.733 159.738 121.763 153.002 116.087 150.447 111.106 149.867 102.186 149.518 96.625 149.75 93.3812 150.68 92.9179 151.376 92.4545 151.957 91.1802 151.957 90.0218 151.957 87.5891 156.022 83.5345 160.087 82.0285 161.945 81.3335 166.01 81.3335 171.12 82.0285 183.199 83.6504 187.96 89.3268 187.96 101.954 187.96 111.453 183.431 120.837 177.508 123.733 171.352 126.745 170.539 127.787 171.352 131.958 171.701 133.927 172.282 136.012 172.746 136.476 173.094 136.939 177.856 138.097 183.315 139.14 188.773 140.183 197.716 141.804 203.407 142.963 215.369 145.164 215.253 144.932 209.562 158.602 200.503 180.265 192.722 194.861 187.96 198.8 185.986 200.538 182.85 205.751 180.295 211.543 177.972 216.988 174.256 225.213 172.165 229.731 166.823 241.199 166.591 242.589 168.1 253.479 170.888 275.837 170.888 276.416 168.333 276.416 165.778 276.416 165.429 274.91 164.268 261.588 163.919 257.533 163.223 253.711 162.874 253.131 161.713 251.278 159.274 254.174 157.183 259.619 155.441 264.021 155.325 266.453 156.603 281.629 157.532 293.677 157.532 299.122 156.719 299.933 154.164 302.481 153.002 298.658 152.305 286.495 151.957 279.66 151.26 274.099 150.796 274.099 150.447 274.099 148.473 276.3 146.615 279.08 143.247 283.83 143.247 284.178 143.247 299.817 143.247 308.505 142.782 316.035 142.317 316.498 140.459 318.352 139.066 314.761 138.369 306.651 137.672 298.311 136.511 296.921 134.072 301.439 133.375 302.597 131.749 305.146 130.471 306.999 128.613 309.895 128.265 312.212 128.497 320.669 128.729 326.345 128.497 331.442 128.032 332.137 126.522 334.57 124.084 330.516 124.084 325.534 124.084 322.754 123.735 320.437 123.271 320.553 120.832 320.669 114.793 330.168 114.793 333.643 114.793 335.729 114.444 337.814 113.98 338.161 112.702 339.436 110.147 336.539 110.147 333.759 110.147 332.369 108.869 329.821 107.243 328.083 105.617 326.345 104.34 324.492 104.34 323.797 104.34 322.522 101.204 322.406 100.391 323.681 100.043 324.26 100.275 328.083 100.856 332.369 102.249 342.1 100.856 346.27 97.72 342.216ZM109.334 316.846C109.218 314.645 108.521 306.883 107.824 299.585 106.663 287.074 104.108 247.107 103.875 238.187 103.759 235.407 104.34 234.133 105.617 233.785 107.011 233.553 107.708 235.523 108.753 243.748 109.566 249.424 110.147 258.228 110.147 263.21 110.147 274.099 112.121 300.396 113.863 311.517 115.141 320.09 116.302 320.785 119.787 314.877 121.645 311.749 121.993 308.853 121.877 296.573 121.761 288.696 121.18 278.385 120.599 273.752 118.974 261.356 119.09 233.206 120.832 231.468 121.645 230.657 122.574 230.078 123.038 230.078 123.387 230.078 124.084 239.346 124.432 250.699 125.593 280.471 126.522 298.774 127.103 300.512 127.8 302.829 129.774 300.28 133.839 292.171L137.207 285.452 135.581 269.581C133.375 247.802 133.375 235.291 135.698 235.291 137.091 235.291 137.672 238.882 138.833 253.826 140.459 274.099 141.272 279.196 142.55 276.416 142.898 275.489 144.873 272.362 146.731 269.465 150.099 264.368 150.215 263.789 150.563 248.382L151.028 232.511 147.079 226.024C143.13 219.305 141.621 218.494 139.066 221.506 134.885 226.487 125.361 225.56 123.038 219.768 120.948 215.018 123.271 210.848 128.613 209.574 133.723 208.299 134.652 204.824 131.168 200.422 128.265 196.715 128.032 190.343 130.587 184.204 132.446 179.801 132.213 171.461 130.239 168.333 126.058 161.846 125.477 152.578 128.729 145.743 131.633 139.951 131.633 140.183 128.613 139.372 127.103 138.908 125.593 139.488 124.432 140.878 122.69 142.963 122.225 142.963 118.393 141.225 115.722 140.067 108.753 139.14 99.4621 138.677 86.5706 138.097 84.3639 137.634 81.112 135.317 76.6987 131.958 71.4724 132.769 68.6851 136.939 67.0591 139.488 66.943 140.993 67.9882 147.597 69.0335 154.084 68.9173 156.285 67.1753 161.15 65.7816 165.321 65.5493 167.869 66.2461 169.839 67.4075 172.735 67.1753 174.704 64.8525 188.374 64.1557 192.544 63.9235 197.873 64.2719 200.422 65.0847 205.519 62.8782 207.952 57.6519 208.068 53.7032 208.068 53.4709 209.805 56.9551 212.701 59.1617 214.439 59.9747 214.555 62.9944 213.281 66.943 211.543 69.7303 212.47 73.0984 216.524 75.5373 219.536 78.7892 218.378 78.7892 214.439 78.7892 212.701 77.0471 209.689 74.4921 206.793L70.1949 202.044 72.1693 192.313C73.3307 186.984 75.4212 180.381 76.931 177.485 80.5313 170.65 82.1573 153.621 79.4861 149.45 77.2794 146.322 77.0471 141.341 78.9054 140.183 80.5313 139.256 82.2734 141.804 82.2734 145.048 82.2734 146.438 83.0864 147.828 84.0155 148.292 87.3836 149.566 85.1769 174.588 81.112 180.265 79.8345 182.118 78.2085 186.057 77.6278 189.185 77.0471 192.197 76.2341 195.904 75.7696 197.178 75.305 198.916 76.2341 200.885 78.9054 204.013 82.1573 207.72 82.738 209.226 82.8541 214.207 82.8541 219.536 82.5057 220.347 79.6022 221.737 75.8857 223.475 69.0335 221.969 67.8721 219.073 67.0591 216.872 63.8073 216.872 62.9944 219.073 62.5298 220 61.1361 220.811 59.6263 220.811 55.3291 220.811 54.0516 223.707 54.0516 233.206 54.0516 240.041 54.4 242.242 55.9098 243.4 57.0712 244.211 57.8842 245.37 57.8842 246.181 57.8842 246.876 58.4649 247.455 59.0456 247.455 59.7424 247.455 60.207 244.675 60.3231 241.431 60.4393 232.858 61.6007 229.499 64.2719 229.499 66.0139 229.499 66.4784 230.078 66.13 231.816 65.8977 233.09 65.4332 239.462 65.2009 245.949 64.8525 255.216 65.0847 258.46 66.5946 261.356 70.0787 268.075 71.0079 265.063 70.7756 248.15 70.5433 233.322 70.6594 232.163 72.6338 232.627 75.305 233.09 76.2341 239.925 76.3503 261.356 76.4664 269.929 76.931 277.69 77.5117 278.501 79.4861 281.745 79.9506 275.837 79.2538 255.448 78.5569 236.681 78.5569 234.712 80.4152 234.017 81.4604 233.553 82.5057 233.438 82.738 233.669 82.9702 233.901 83.4348 245.37 83.7832 259.155 84.4801 283.83 85.7576 292.518 89.0095 293.561 89.8225 293.793 90.4032 292.866 90.4032 291.244 90.4032 289.854 90.6355 277.343 90.7516 263.673 90.9839 240.968 91.2162 238.767 93.0744 238.419 94.9326 238.071 95.0488 239.577 95.1649 257.533 95.1649 268.191 95.6295 283.367 96.094 291.012 96.7909 304.566 97.0231 305.377 100.972 311.285 103.179 314.761 105.385 318.468 105.85 319.626 107.127 323.102 109.566 321.132 109.334 316.846ZM159.622 244.906C161.016 242.242 161.364 239.462 160.9 234.944 159.622 223.012 155.441 225.097 154.744 237.84 154.164 250.235 155.674 252.436 159.622 244.906ZM172.165 217.799C178.669 201.349 180.063 198.337 183.663 194.398 184.708 193.24 186.799 188.953 188.425 184.899 193.651 171.229 198.297 161.73 199.923 161.73 200.736 161.73 202.71 159.065 204.22 155.822 206.543 150.84 206.775 149.798 205.381 148.987 201.2 146.438 174.488 142.268 172.862 143.89 172.282 144.469 171.585 157.444 171.469 172.735L171.12 200.538 166.475 200.538 161.829 200.538 162.294 172.735C162.526 157.328 162.294 143.658 161.945 142.268 161.364 140.414 160.203 139.719 157.764 139.719 151.609 139.719 150.796 140.646 150.796 147.133 150.796 150.493 149.983 158.834 149.054 165.784 147.195 178.875 147.892 185.13 151.376 186.405 154.28 187.563 154.628 193.819 152.073 198.916 150.68 201.464 149.634 203.897 149.634 204.361 149.634 204.94 151.493 206.214 153.699 207.257 155.906 208.299 157.764 209.689 157.764 210.153 157.764 210.732 158.693 212.354 159.971 213.628 161.132 215.018 162.758 219.305 163.571 223.127 164.384 227.182 165.662 229.962 166.358 229.731 167.055 229.499 169.61 224.17 172.165 217.799ZM50.9158 221.506C50.9158 220.695 50.1028 218.494 49.1737 216.524 48.1285 214.323 47.6639 211.659 48.1285 209.458 48.7092 206.562 49.6383 205.635 53.8193 204.476 58.8133 202.971 58.9295 202.855 58.6972 198.221 58.6972 195.672 59.5102 189.648 60.5554 184.899 61.833 179.454 62.2975 174.241 61.833 170.766 61.3684 167.754 61.7168 163.699 62.4137 161.614 63.2266 159.181 63.4589 153.621 62.9944 145.28L62.1814 132.769 59.0456 132.769C57.3035 132.769 55.3291 133.464 54.6323 134.274 53.4709 135.665 52.6579 146.322 51.3804 180.033 50.7997 194.977 50.219 199.148 48.9415 199.611 48.0123 199.959 46.3864 199.379 45.3411 198.337 43.599 196.599 43.3667 192.776 43.3667 165.437L43.3667 134.506 38.7212 134.39C36.1661 134.39 33.611 134.159 32.9142 133.927 30.8237 133.116 15.8417 135.085 12.009 136.707 6.5506 139.024 0.975901 147.713 4.22781 149.218 4.69237 149.45 5.85377 151.188 6.78288 153.041 7.82814 155.011 9.33783 156.517 10.2669 156.517 13.2866 156.633 14.6803 158.138 15.3771 162.077 16.4223 167.869 42.4376 218.725 45.8057 221.737 48.8253 224.286 50.9158 224.286 50.9158 221.506ZM155.209 220.579C157.183 218.609 156.951 218.03 153.699 214.092 152.073 212.122 149.17 210.269 147.311 209.805 144.408 209.11 143.827 208.531 143.827 205.635 143.827 203.665 145.105 200.422 146.731 198.337 150.447 193.355 150.447 191.618 146.15 187.563 143.13 184.783 142.666 183.509 142.666 177.948 142.666 174.473 143.479 167.985 144.408 163.467 146.847 152.115 146.731 144.469 144.176 143.542 141.388 142.5 140.343 140.878 140.343 137.634 140.343 135.549 140.808 135.085 142.55 135.665 145.221 136.476 145.802 135.085 145.453 127.208 145.221 120.721 143.595 117.709 140.227 117.709 137.323 117.709 136.627 120.837 137.904 129.872 138.949 136.707 138.833 138.213 136.975 140.762 130.471 150.145 129.542 156.98 133.491 165.205 136.975 172.387 137.44 178.064 135.233 184.783 132.794 192.313 132.91 194.861 135.698 198.452 137.091 200.306 138.02 203.202 138.02 205.867 138.02 210.732 135.814 212.933 129.658 214.439 126.058 215.366 126.174 215.25 127.103 217.799 127.452 218.841 128.729 219.652 130.007 219.652 132.678 219.652 138.02 217.219 138.02 216.061 138.02 214.439 142.085 214.207 144.989 215.713 146.615 216.408 148.937 218.146 150.099 219.536 152.654 222.316 153.351 222.432 155.209 220.579ZM65.7816 122.342C66.2461 114.581 65.2009 113.538 59.5102 116.203 55.3291 118.172 54.9807 118.751 54.9807 122.922 54.9807 127.324 55.213 127.556 59.0456 128.251 65.0847 129.293 65.4332 129.061 65.7816 122.342ZM81.112 115.739C81.112 113.886 80.4152 113.075 78.7892 113.075 75.0728 113.075 72.8661 119.91 74.8405 125.239 75.4212 126.745 76.2341 126.165 78.3247 122.69 79.8345 120.257 81.112 117.129 81.112 115.739ZM177.74 118.056C183.431 111.569 185.057 100.216 181.456 92.6863 179.947 89.6743 178.553 88.5158 174.72 87.4732 172.165 86.894 169.03 85.9672 167.868 85.7355 166.823 85.3881 164.268 85.3881 162.41 85.8514 157.532 86.894 155.093 91.9912 156.022 99.0576 156.37 101.954 156.951 106.124 157.183 108.325 157.764 112.959 162.061 117.94 164.732 117.129 165.778 116.782 167.636 117.361 168.913 118.288 171.933 120.605 175.65 120.489 177.74 118.056ZM58.9295 111.337C62.7621 109.368 63.6912 106.819 63.6912 97.6676 63.6912 92.2228 63.1105 90.1376 60.7877 87.1256 55.5614 80.175 46.1541 80.87 41.7408 88.2841 38.7212 93.3812 38.605 97.0883 41.6247 99.7527 42.9022 100.911 43.9474 102.417 43.9474 103.112 44.0636 106.008 51.1481 112.148 55.3291 112.959 55.5614 113.075 57.1874 112.264 58.9295 111.337ZM156.254 50.7504C161.713 47.1593 164.036 44.7265 170.888 35.4589 174.837 30.2459 175.766 28.0448 176.114 22.7159 176.579 16.3445 176.462 16.1128 171.817 11.9424 167.171 7.77197 166.707 7.6562 158.461 7.6562 152.305 7.6562 149.518 8.1195 148.473 9.39378 147.66 10.3205 146.382 11.1315 145.569 11.1315 143.247 11.1315 138.02 19.5882 138.02 23.411 138.02 25.2646 137.556 28.5082 136.975 30.4776 136.278 32.9102 136.278 34.5322 136.975 34.9955 137.672 35.343 138.02 36.8491 137.904 38.1233 137.556 43.9155 138.253 45.8849 142.085 49.8237 146.963 54.805 149.75 55.0367 156.254 50.7504ZM75.5373 45.3057C82.1573 44.0314 84.2478 31.636 79.6022 22.1367 78.6731 20.2833 76.931 16.692 75.7696 14.1435 72.6338 7.88785 65.4332 4.1808 56.026 4.1808 47.5478 4.1808 44.412 6.15015 43.3667 12.5216 42.6699 16.1128 43.0183 17.1554 45.5734 19.3564 47.8962 21.4417 48.593 23.0635 48.593 26.7705 48.593 30.4776 49.5222 32.7945 52.5418 36.7332 54.6323 39.5135 57.6519 42.4096 59.1617 43.2204 63.3428 45.1899 68.6851 46.6958 70.6594 46.3483 71.5886 46.1166 73.7952 45.7691 75.5373 45.3057Z" fill="#E1E1EA" fill-rule="evenodd" transform="matrix(1 0 0 -1 566 590)"/><path d="M121.512 339.627C120.814 338.352 120.233 334.989 120.233 332.091 120.233 329.192 119.884 326.757 119.419 326.757 118.838 326.641 115.699 326.409 112.443 326.062 105.466 325.366 104.769 325.946 104.652 334.178 104.536 337.54 103.955 339.047 102.676 339.279 101.164 339.511 100.699 338.352 100.234 333.598 99.5363 326.989 98.141 325.482 92.9086 326.409 86.2809 327.453 86.1646 327.569 86.8623 333.018 87.4437 336.729 87.0948 338.468 85.9321 339.511 83.8391 341.25 81.8625 337.772 81.8625 332.091 81.8625 327.337 79.8858 326.409 71.2814 326.989 66.1653 327.337 66.1653 327.337 65.8165 331.975 65.1189 340.786 60.9331 341.714 60.9331 333.134 60.9331 327.801 59.4215 325.714 57.096 327.685 56.2821 328.381 53.8403 329.076 51.6311 329.308 47.9103 329.656 47.5614 330.004 46.9801 333.714 46.2824 338.815 43.143 339.163 42.3291 334.294 41.864 331.627 41.05 330.815 37.9106 330.12 34.6549 329.424 33.7247 329.772 32.2131 332.091 30.0039 335.569 29.0737 335.569 27.4458 331.975 25.818 328.496 23.1437 328.265 21.3995 331.395 19.6554 334.641 18.3764 334.294 13.9579 329.656 11.1673 326.757 9.07438 325.598 6.51645 325.598 3.9584 325.598 2.91193 324.902 2.33055 323.047 0.7027 317.366-0.925151 271.684-0.2275 252.089 0.586425 231.335 1.28408 223.451 4.53978 205.016 5.46998 199.566 6.74888 191.798 7.33025 187.624 10.1209 168.03 13.2603 152.377 15.0044 149.827 16.0509 148.203 17.9113 147.044 19.5391 147.044 23.6088 147.044 24.539 145.073 25.4692 135.218 25.9343 130.232 26.7482 125.942 27.3296 125.478 29.4225 124.203 28.2598 122.58 22.5623 119.101 15.5858 114.811 12.7952 109.942 11.6324 100.318 10.3534 90.463 11.6324 84.8977 16.1672 80.4918 22.446 74.2309 36.1665 72.7236 42.3291 77.8251 45.5848 80.376 49.3056 88.724 49.3056 93.2457 49.3056 99.3907 46.8638 111.101 44.6546 114.927 43.7244 116.782 41.3989 119.101 39.4222 120.145 37.5618 121.188 35.7014 122.232 35.3526 122.464 34.1898 123.275 33.3759 144.145 34.5386 145.652 35.12 146.348 37.9106 147.044 40.5849 147.044 47.3289 147.044 51.6311 142.29 51.6311 134.986 51.6311 129.536 53.1426 127.333 57.096 127.333 61.3982 127.333 63.6073 132.087 62.7933 139.275 61.8633 146 63.491 149.015 66.7467 147.044 68.142 146.116 68.142 145.421 66.863 141.826 65.7002 138.464 65.4677 128.261 65.7002 95.9124L66.049 54.2885 60.9331 51.0421C54.6542 46.984 54.1891 46.5202 48.8405 36.665 45.0034 29.4765 44.6546 28.0851 44.6546 19.2733 44.7708 8.95426 45.8173 6.63537 52.7938 1.76576 56.3983-0.784966 68.6071-0.900954 72.0954 1.41793 73.3744 2.34545 76.2813 3.50496 78.4905 4.08464 81.6299 4.89631 83.2578 6.40352 86.1646 11.5051 88.1413 14.8675 91.397 19.969 93.3737 22.7517 97.327 28.2011 97.9084 31.2157 95.2341 33.4185 94.3039 34.2301 93.2574 36.665 92.7923 39.0998 91.1645 47.7957 85.2344 54.2885 78.723 54.2885 77.3277 54.2885 75.8162 54.9841 75.2348 55.7958 74.7697 56.4914 74.5371 75.97 74.6534 98.927 75.0022 130.928 75.4673 141.594 76.7464 144.493L78.2579 148.319 96.048 147.739C105.699 147.392 114.071 146.696 114.536 146.232 115.001 145.652 115.582 139.623 116.047 132.551 117.791 98.6952 118.954 77.0136 119.768 65.651L120.582 53.245 116.629 51.3899C106.164 46.5202 106.28 46.6362 106.28 39.2157 106.28 31.4475 105.466 28.7808 103.373 28.7808 102.443 28.7808 98.8386 22.7517 95.1178 15.4472 89.8854 4.78032 88.7227 1.76576 89.8854 0.606387 91.0482-0.437128 91.7458-0.321266 93.2574 1.53391 95.2341 3.85279 95.2341 3.85279 97.4433 1.64978 99.6525-0.553116 99.6525-0.437128 101.745 2.22959 102.908 3.73681 105.117 7.21519 106.513 9.99777 108.024 12.6645 109.768 14.8675 110.582 14.8675 111.396 14.8675 112.792 13.1283 113.838 10.9254 117.21 3.96866 125.814 0.258549 134.884 1.99761 147.209 4.31649 153.837 8.7224 156.278 15.911 157.674 20.3168 157.557 21.3603 155.116 28.8966 152.906 35.2736 150.93 38.636 145.814 44.2013 140.232 50.2304 138.372 51.5058 133.488 52.5493L127.791 53.7088 126.977 59.5059C126.628 62.7524 126.047 83.7384 125.814 106.231 125.465 137.42 125.814 147.044 126.861 147.044 129.07 147.044 129.768 142.87 128.954 135.565 128.024 127.449 130.349 123.507 135.581 124.667 139.302 125.362 140.465 128.841 140.465 140.087L140.581 147.623 148.837 147.971 157.092 148.319 157.79 140.435C159.069 127.449 158.836 125.13 156.046 122.927 144.767 114 138.837 104.144 138.837 94.0573 138.837 81.6513 147.441 72.8395 159.418 72.8395 174.185 72.8395 184.184 82.4629 184.184 96.724 184.184 108.55 180.347 116.898 172.324 122L168.952 124.087 169.301 136.493 169.65 148.783 173.022 149.131C174.882 149.363 177.208 150.406 178.254 151.45 180.347 153.421 184.184 164.203 184.184 167.798 184.184 168.957 184.533 170.233 184.998 170.696 186.045 171.624 185.696 203.277 184.301 244.437 182.556 292.902 181.975 299.742 179.301 307.974 177.789 312.612 177.208 316.902 177.557 319.337 178.138 322.467 177.673 323.975 175.812 325.83 174.185 327.453 173.255 329.772 173.371 332.207 173.487 334.294 172.906 336.381 172.208 336.844 170.348 338.004 167.906 333.714 167.906 328.96 167.906 326.177 167.325 324.438 166.045 323.975 163.487 323.047 158.604 323.047 158.488 324.206 158.371 324.67 158.139 327.221 158.023 330.004 157.557 336.381 156.743 338.352 154.534 338.352 153.255 338.352 152.79 337.076 152.79 333.482 152.79 326.757 151.627 325.482 145.814 325.366 140 325.366 138.837 326.641 139.651 332.554 140 335.105 139.767 337.192 138.953 337.656 137.674 338.468 136.047 335.569 134.768 329.888 133.954 326.177 131.977 325.018 127.675 326.062 124.768 326.873 124.652 327.105 125.117 333.946 125.465 341.366 123.838 344.033 121.512 339.627ZM25.4692 294.409C24.6552 265.075 25.3529 257.654 28.7249 260.437 29.7713 261.365 30.2364 267.858 30.3527 285.249 30.469 298.235 30.9341 312.264 31.2829 316.67L32.0968 324.438 36.5153 324.438C40.0036 324.438 41.1663 323.859 41.7477 322.004 42.2128 320.728 41.864 311.453 41.1663 301.481 40.3524 291.51 40.0036 278.061 40.2361 271.684 40.5849 261.249 40.9338 260.089 42.9104 259.742 45.1197 259.394 45.2359 260.321 45.4685 287.568 45.5848 303.105 46.0499 317.482 46.3987 319.569 47.0963 323.163 47.3289 323.279 52.5613 323.279 61.8633 323.279 61.3982 324.67 60.2354 294.177 58.9564 264.611 59.3052 257.77 62.0957 257.77 63.6073 257.77 63.9561 262.408 64.77 288.496 65.2351 305.424 65.9328 319.917 66.1653 320.728 66.5141 321.772 68.7234 322.119 73.3744 321.888L80.1183 321.54 80.816 287.916C81.3974 254.872 81.9787 249.654 84.6531 250.582 85.5833 250.93 85.8158 260.669 85.467 285.829 85.0019 324.786 84.4205 322.351 93.8388 321.308L99.3037 320.612 99.5363 290.351C99.8851 264.379 100.118 260.089 101.629 260.089 103.141 260.089 103.49 264.495 103.955 290.235L104.536 320.38 112.094 320.38 119.652 320.38 119.768 289.307 120.001 258.234 115.815 256.611C107.908 253.249 106.397 247.335 112.094 242.35 115.233 239.567 115.582 238.64 115.582 232.147 115.582 227.973 116.629 222.06 118.14 217.654 120.001 212.088 120.582 207.219 120.698 198.059 120.814 186.697 121.047 185.537 124.186 181.015 126.861 176.957 127.326 175.45 126.628 172.32 126.163 170.233 125.698 165.131 125.698 160.957 125.814 156.783 125.349 153.189 124.884 152.841 124.303 152.493 110.699 152.261 94.5364 152.377L65.1189 152.377 64.5375 160.493C64.3049 164.899 64.1886 170.812 64.4212 173.711 64.5375 176.61 64.6537 180.552 64.6537 182.407 64.5375 184.378 64.3049 192.726 63.9561 201.074 63.7235 210.002 62.9096 217.306 62.0957 218.929 60.1191 222.523 60.1191 232.031 62.0957 235.741 63.3747 238.06 63.3747 238.988 62.212 240.147 61.0493 241.19 60.3517 240.959 58.6076 238.872 55.3519 235.045 54.5379 228.669 56.2821 221.828 56.9797 218.697 58.1425 209.77 58.7238 202.117 59.7703 188.32 59.8866 185.305 59.8866 171.16 59.7703 167.102 59.8866 161.305 60.1191 158.059L60.3517 152.261 56.0495 151.913C51.166 151.45 51.166 151.45 51.6311 160.493 51.7473 164.667 51.0497 167.914 49.3056 171.392 46.9801 176.03 46.8638 177.421 47.5614 190.407 48.0265 199.682 47.9103 206.175 46.9801 209.654 43.0267 224.842 43.0267 225.77 45.5848 229.248 48.6079 233.306 47.6777 234.698 40.4687 237.248 36.2828 238.756 34.7712 239.915 34.7712 241.538 34.7712 243.509 35.8176 243.973 40.5849 244.437 43.8406 244.785 47.5614 245.828 48.9567 246.756 51.0497 248.147 51.9799 248.147 54.3054 246.872 56.2821 245.828 59.0727 245.596 63.1422 246.176 69.6536 247.104 69.5373 247.104 67.9094 242.698 67.2118 240.959 66.9792 239.103 67.4444 238.524 68.6071 236.669 72.2116 239.567 73.6069 243.393 76.0487 250.35 69.6536 255.104 63.3747 251.162 61.6307 250.118 60.1191 250.118 56.5146 251.278 51.7473 252.901 47.6777 252.321 44.5383 249.538 43.2593 248.379 41.864 248.147 39.8873 248.843 34.7712 250.814 29.5388 246.988 29.5388 241.422 29.5388 237.364 31.9806 234.698 36.8641 233.538 40.2361 232.727 40.7012 231.567 38.8408 228.205 37.6781 226.002 39.4222 216.378 42.3291 209.074 43.2593 206.639 43.4918 200.958 42.9104 189.363 42.2128 174.059 42.2128 173.015 44.5383 170.001 47.3289 166.522 47.794 159.334 45.5848 154.58 44.422 152.029 43.4918 151.682 38.8408 151.682L33.3759 151.682 32.6782 161.421C32.2131 166.754 32.0968 174.175 32.4457 177.885 32.6782 181.711 33.2596 192.494 33.6084 201.885L34.1898 219.045 30.0039 218.581C27.6784 218.35 25.3529 217.306 24.7715 216.262 24.1901 215.335 23.725 200.378 23.6088 183.102L23.6088 151.682 20.8182 151.682C17.795 151.682 18.0276 150.986 15.0044 171.972 13.9579 179.044 12.3301 188.9 11.2836 194.001 7.44653 214.06 5.00488 234.234 4.4235 251.394 3.84213 270.524 6.05135 318.641 7.5628 321.192 8.26046 322.235 9.07438 322.351 10.3534 321.54 11.9813 320.496 12.2138 316.206 12.4464 290.235 12.6789 273.655 13.144 259.394 13.7254 258.582 14.423 257.423 15.0044 257.423 16.3997 258.466 17.9113 259.742 18.0276 262.988 17.3299 281.075 16.8648 292.67 16.8648 306.699 17.3299 312.148 18.0276 321.076 18.4927 322.351 20.5856 323.163 26.3994 325.366 26.3994 325.018 25.4692 294.409ZM133.256 286.757C132.791 251.857 132.442 249.191 127.907 250.93 126.745 251.394 125.465 252.785 125.117 254.176 124.652 255.452 124.419 271.104 124.652 288.844L125 321.076 129.303 320.728 133.605 320.38 133.256 286.757ZM150.116 319.569C150.581 318.757 151.046 306.119 151.046 291.394 151.046 266.93 151.162 264.727 153.139 264.379 154.999 264.031 155.116 265.655 155.116 285.829 155.116 297.771 155.464 310.293 155.813 313.54L156.627 319.569 161.976 319.221 167.325 318.989 167.325 290.699C167.325 275.162 167.79 261.713 168.255 260.901 169.069 259.742 169.65 259.742 170.929 260.785 172.208 261.829 172.557 266.582 172.557 283.974 172.557 305.308 173.371 309.713 176.045 303.337 177.673 299.163 179.417 264.611 180.231 221.248 180.812 182.87 180.347 173.131 177.324 161.537 176.161 157.015 173.138 153.653 170.813 154.348 170.231 154.58 169.301 161.073 168.72 169.189 167.208 194.349 164.418 220.552 163.139 221.828 161.627 223.335 159.883 220.668 159.65 216.61 159.534 214.291 159.418 214.175 158.953 216.031 158.72 217.306 158.255 219.509 157.906 221.016 157.209 224.494 154.185 224.263 153.255 220.552 152.325 217.074 153.255 201.654 155.813 178.928 156.86 170.001 157.441 160.609 157.209 158.059L156.86 153.421 150.813 153.073C145.93 152.841 144.767 153.073 144.186 154.812 143.837 155.971 143.721 163.624 143.837 171.856 144.07 186.117 143.953 186.813 141.511 188.436 138.256 190.639 138.023 195.508 140.93 199.335 146.395 206.407 147.209 217.538 143.139 225.77 142.093 227.973 141.163 231.219 141.163 232.958 141.163 235.857 141.744 236.437 146.162 237.48 148.837 238.176 152.092 239.103 153.372 239.451 156.976 240.379 162.092 245.712 162.092 248.495 162.092 253.597 159.767 254.988 149.767 255.336 144.651 255.452 139.767 256.031 138.953 256.611 137.674 257.307 137.558 263.336 138.256 288.38 138.721 305.308 139.302 319.569 139.651 320.148 140.465 321.54 149.069 321.076 150.116 319.569ZM120.233 251.626C120.233 251.046 121.28 249.538 122.559 248.147 125.465 245.133 130.93 244.785 133.605 247.451 134.768 248.611 138.605 249.538 144.418 250.118 154.767 250.93 157.441 250.698 157.441 248.495 157.441 246.06 152.674 243.625 146.511 243.046 136.744 241.886 134.535 236.553 138.837 224.726 141.279 218.002 141.977 209.074 140 207.914 139.419 207.567 138.837 206.407 138.837 205.364 138.837 204.32 138.023 202.581 137.093 201.538 133.837 198.059 133.605 191.682 136.395 187.74 138.721 184.494 138.837 183.102 138.605 168.262L138.256 152.261 135.349 152.261C130.93 152.261 128.954 159.218 130.698 168.262 132.093 175.566 131.744 178.001 128.024 184.03 126.047 187.276 125.582 190.059 125.465 199.103 125.349 207.219 124.535 212.552 122.675 218.697 120.117 226.813 120.001 230.871 121.977 238.872 122.675 241.538 122.326 242.118 118.605 243.857 113.373 246.408 112.792 247.22 114.652 250.234 116.047 252.437 120.233 253.481 120.233 251.626ZM159.418 197.248C159.185 195.393 158.953 196.668 158.953 199.798 158.953 203.045 159.185 204.436 159.418 203.045 159.65 201.538 159.65 198.987 159.418 197.248ZM56.2821 145.305C56.2821 144.377 55.817 143.566 55.1193 143.566 54.5379 143.566 53.9566 144.377 53.9566 145.305 53.9566 146.232 54.5379 147.044 55.1193 147.044 55.817 147.044 56.2821 146.232 56.2821 145.305ZM136.512 143.45C136.512 142.174 136.047 141.479 135.349 141.826 134.768 142.174 134.186 143.334 134.186 144.261 134.186 145.189 134.768 145.884 135.349 145.884 136.047 145.884 136.512 144.841 136.512 143.45ZM58.6076 135.449C58.6076 134.174 58.1425 133.131 57.4448 133.131 56.8634 133.131 56.2821 134.174 56.2821 135.449 56.2821 136.725 56.8634 137.768 57.4448 137.768 58.1425 137.768 58.6076 136.725 58.6076 135.449ZM136.512 134.29C136.512 132.435 136.047 130.812 135.349 130.812 134.07 130.812 133.721 135.797 135 136.957 136.279 138.348 136.512 137.884 136.512 134.29ZM168.022 118.753C175.696 115.623 179.533 108.434 179.533 97.5357 179.533 86.8688 174.417 80.4918 163.487 77.5933 156.86 75.7382 150.813 78.2889 146.511 84.7817 143.837 88.8398 143.372 90.579 143.721 95.4486 144.651 107.043 151.627 116.203 162.092 119.565 163.022 119.913 163.953 120.261 163.953 120.261 164.069 120.377 165.929 119.681 168.022 118.753ZM38.1432 115.507C41.3989 112.608 44.6546 102.173 44.6546 94.6371 44.6546 88.8398 40.8175 81.4195 37.4455 80.4918 30.1202 78.6368 21.6321 80.4918 17.9113 85.0137 15.7021 87.6804 16.0509 101.362 18.2601 103.913 19.3066 105.072 20.4693 107.507 20.9344 109.362 22.7948 116.898 32.5619 120.377 38.1432 115.507ZM81.8625 48.6072C81.8625 48.0275 82.7927 47.2158 83.9554 46.7521 86.5135 46.0565 88.839 39.2157 88.839 32.375 88.839 27.2734 86.1646 20.7806 83.4903 19.1574 82.5601 18.6936 81.8625 17.4182 81.8625 16.6066 81.8625 12.6645 72.0954 5.82384 65.1189 4.89631 54.3054 3.38897 49.3056 8.14272 49.3056 19.7371 49.3056 33.1867 58.6076 46.984 68.7234 48.6072 75.8162 49.7667 81.8625 49.7667 81.8625 48.6072ZM133.837 47.4478C140.814 45.4768 150.348 32.491 152.209 22.6357 153.372 16.8385 150.697 13.0123 143.139 9.76592 134.535 5.93982 131.163 5.36001 126.279 6.75136 118.489 8.7224 110.931 22.2878 110.931 33.9982 111.048 40.0273 111.396 41.4187 114.187 43.9694 118.605 48.3753 126.047 49.6507 133.837 47.4478ZM107.908 22.172C108.373 21.0125 108.024 19.8531 107.094 19.3893 106.28 18.9255 104.304 15.795 102.792 12.6645 101.28 9.41808 99.3037 6.75136 98.4898 6.75136 96.5131 6.75136 96.9782 8.49055 101.164 17.8821 103.955 24.143 106.513 25.8822 107.908 22.172Z" fill="#1A1D22" fill-rule="evenodd" transform="matrix(1 0 0 -1 269 593)"/><path d="M12.4743 32.6577C3.06772 20.5614-4.45738-1.18869 1.304-0.0256461 2.71498 0.206938 3.65563 1.95163 4.12596 4.97572 5.06661 10.0934 13.5325 26.8422 17.0599 30.6804 18.2358 31.9598 19.294 33.9371 19.294 34.9839 19.294 38.357 16.1193 37.1938 12.4743 32.6577Z" fill="#E1E1EA" fill-rule="evenodd" transform="matrix(1 0 0 -1 663 581)"/><path d="M11.6614 34.1256C8.05655 28.1887 0.614374 9.54677-0.432183 3.84737-1.0136 0.522724-0.781035-0.0710636 1.19579-0.0710636 3.63776-0.0710636 4.91688 2.06626 4.91688 5.98469 4.91688 7.29079 5.38202 9.19055 5.96344 10.378 10.0334 18.3334 18.2895 36.3816 18.2895 37.3315 18.2895 40.5375 14.4522 38.6377 11.6614 34.1256Z" fill="#E1E1EA" fill-rule="evenodd" transform="matrix(1 0 0 -1 676 583)"/><path d="M32.3331 56.3629C29.7891 55.775 27.2452 54.8344 26.5514 54.2465 25.8576 53.7763 23.5449 52.9532 21.4635 52.4829 19.2664 52.1302 16.1443 50.7194 14.2942 49.426 12.5597 48.1327 10.4783 47.0745 9.78445 47.0745 7.9343 47.0745 2.73077 41.6663 2.73077 39.785 2.73077 38.8445 2.1526 37.5512 1.57443 36.9632-0.73825 34.6118-1.20079 24.1478 0.880627 20.0328 1.92133 17.9165 2.73077 14.7419 2.73077 13.0959 2.73077 9.09845 6.19979 3.8077 10.247 1.69134 14.7567-0.660115 41.1212-0.542497 50.3719 1.92645 54.1878 2.86714 58.4663 4.27791 59.7382 5.10098 64.5949 7.80516 72.2267 14.0365 74.5394 16.8583 81.0149 25.4412 76.7364 33.0834 64.7105 34.6118 56.963 35.67 56.1536 36.2579 53.1471 43.1947 50.1406 50.1314 44.4745 56.1278 40.3117 56.8332 38.4616 57.1858 34.7613 56.9507 32.3331 56.3629ZM41.5837 51.0721C43.0869 50.7194 45.3996 47.5449 47.8279 42.8419 52.3377 33.9065 55.9223 30.6143 61.3571 30.6143 65.8668 30.6143 71.9954 27.7926 72.2267 25.5587 72.8049 20.2679 66.7919 14.1541 55.9223 8.98083 48.753 5.45371 47.5967 5.33609 31.6393 4.98336 16.4912 4.63064 14.5254 4.86587 11.1721 6.9821 7.9343 8.98083 7.35613 10.1566 7.35613 13.8014 7.2405 16.2704 6.54669 19.5625 5.62162 21.2085 3.54021 24.9708 3.42458 29.4386 5.50599 32.4956 6.43106 33.7888 7.35613 36.0227 7.5874 37.6687 8.04994 41.0783 12.7909 44.0177 24.7012 48.4854 33.4894 51.66 37.1896 52.2478 41.5837 51.0721Z" fill="#1A1D22" fill-rule="evenodd" transform="matrix(1 0 0 -1 382 649)"/><path d="M33.5011 63.2441C21.326 59.8872 14.0209 56.5302 7.52753 51.3209-0.00944246 45.4172-0.705163 44.2597-0.705163 38.1244-0.705163 33.7255-0.241349 32.568 1.61391 32.1049 3.58512 31.6419 3.93298 30.4843 3.93298 25.5066 3.93298 19.0242 8.57111 9.30034 11.5859 9.30034 12.5135 9.30034 13.2093 8.83725 13.2093 8.14268 13.2093 7.56392 16.4559 5.48034 20.3984 3.51232 29.6746-1.00224 37.4435-1.11805 46.024 2.93355 49.3866 4.43849 54.3726 6.05911 57.2714 6.52207 72.2294 8.60577 79.5345 11.4997 90.666 19.7187 96.5795 24.0018 97.855 25.5066 97.855 28.2849 97.855 31.1788 98.2029 31.5261 101.102 30.9474 109.798 29.2109 113.625 27.7061 117.451 24.0018 125.568 16.1301 130.554 15.0884 147.135 17.4035 157.223 18.9084 167.195 23.5387 168.702 27.4745 170.21 31.6419 169.166 34.1886 161.745 43.6808 158.151 48.1955 153.976 53.7519 152.353 56.0671 150.73 58.3823 147.483 61.5078 145.164 63.1284 139.714 66.7169 131.482 66.9484 120.118 63.823 105.392 59.7714 100.174 56.6458 100.174 51.784 100.174 50.3949 98.6667 47.5009 96.6955 45.4172 94.8404 43.3335 93.1011 40.9027 92.8692 40.2081 92.6373 39.3977 89.2746 41.9445 85.5641 45.8803 77.2154 54.4465 69.9104 60.3502 63.417 63.5914 56.9236 66.8327 45.7921 66.7169 33.5011 63.2441ZM63.9967 57.6877C71.3018 53.5204 93.217 32.1049 93.217 28.9795 93.217 27.0116 87.3034 22.3812 78.1431 17.1719 72.8092 14.1622 66.0839 12.3101 55.5321 11.0368 52.4014 10.5737 47.9952 9.30034 45.7921 8.02701 31.0661-0.539157 6.83181 11.0368 9.15088 25.3909 9.49874 27.3588 9.96256 30.4843 10.3104 32.4522 10.6583 34.999 10.0785 36.5038 8.1073 38.4717 5.90418 40.5554 5.55632 41.7129 6.368 43.7966 6.94777 45.1857 8.22325 46.6905 9.26683 47.1536 10.3104 47.5009 13.789 49.5846 16.8038 51.6682 25.0365 57.1089 38.6031 61.0447 50.6621 61.2762 56.1119 61.392 58.431 60.6974 63.9967 57.6877ZM142.613 59.1926C145.628 56.8775 154.672 45.7645 154.672 44.3754 154.788 43.9124 156.875 41.3656 159.31 38.819 161.861 36.2723 164.296 33.1467 164.644 31.9892 166.152 27.3588 155.136 22.6127 139.946 21.455 129.51 20.529 126.611 21.5708 118.379 29.2109 116.292 31.063 113.393 32.7994 111.769 33.1467 106.552 34.3044 102.725 36.0407 100.754 38.2402 98.8986 40.3239 98.8986 40.671 102.145 44.8385 104.001 47.2694 106.088 50.5107 106.783 52.2471 107.827 54.5623 109.914 55.7198 117.683 58.1508 129.51 61.9708 138.671 62.3181 142.613 59.1926Z" fill="#E1E1EA" fill-rule="evenodd" transform="matrix(1 0 0 -1 597 659)"/><path d="M29.0009 55.2694C26.4326 54.3443 22.3468 51.569 19.7785 49.0249 17.327 46.4809 14.642 44.3994 13.8249 44.3994 11.3735 44.3994 2.26785 34.3388 0.750246 29.7133-1.58453 23.3531-0.183664 16.5305 4.48588 11.2111L8.33826 6.81684 21.5296 6.81684C34.3709 6.81684 34.8378 6.70129 35.188 4.27284 35.7717 0.109905 41.7254-1.16222 50.7143 1.15054 70.2095 5.89176 78.498 10.2861 87.2534 20.4622 93.0903 27.1693 94.8414 33.5294 92.8568 40.352 90.522 48.5623 74.0619 51.6846 59.2362 46.7122L52.3486 44.2837 48.4962 49.0249C44.2937 53.9974 39.2739 57.1197 35.7717 57.004 34.6043 57.004 31.5691 56.1945 29.0009 55.2694ZM45.2276 45.4402C51.298 39.08 53.983 38.5019 61.104 42.0866 67.6414 45.4402 81.7666 45.3245 86.086 41.971 88.304 40.2365 89.1212 38.5019 89.1212 35.6108 89.1212 30.0602 87.6036 27.5162 79.8988 20.1153 73.128 13.5239 64.7229 9.24529 52.3486 6.23868 49.1967 5.42916 45.5778 4.61976 44.5271 4.27284 43.1263 3.92591 41.025 5.19792 38.34 8.20453L34.2541 12.7145 25.2652 11.6737C12.3074 10.1704 9.38891 10.9799 6.12023 17.1087 1.80089 25.3191 3.43524 29.1351 15.5759 39.5426 27.0163 49.3719 33.437 52.7254 37.873 51.6846 38.9237 51.3377 42.1924 48.5623 45.2276 45.4402Z" fill="#1A1D22" fill-rule="evenodd" transform="matrix(1 0 0 -1 278 656)"/></g></svg>