<svg width="210" height="72" xmlns="http://www.w3.org/2000/svg" xmlns:xlink="http://www.w3.org/1999/xlink" overflow="hidden"><defs><clipPath id="clip0"><rect x="324" y="443" width="210" height="72"/></clipPath><clipPath id="clip1"><rect x="325" y="444" width="208" height="70"/></clipPath><clipPath id="clip2"><rect x="325" y="444" width="208" height="70"/></clipPath><clipPath id="clip3"><rect x="325" y="444" width="208" height="70"/></clipPath></defs><g clip-path="url(#clip0)" transform="translate(-324 -443)"><g clip-path="url(#clip1)"><g clip-path="url(#clip2)"><g clip-path="url(#clip3)"><path d="M25.9988 71.6663C21.5527 69.707 21.0251 67.9737 21.628 56.9713L22.0802 47.5515 19.2919 47.0993C15.5239 46.3457 8.66628 47.024 7.23446 48.1544 4.67225 50.3398 6.33015 57.2728 9.41986 57.2728 10.0227 57.2728 11.0778 58.1017 11.756 59.1568 14.3182 63.0754 9.64594 67.1448 5.42584 64.7333 2.03469 62.8493 1.6579 61.3422 3.91866 59.006 5.5012 57.2728 5.72728 56.5945 5.12441 55.012 3.8433 51.6209 4.67225 48.8326 7.53589 46.8732 9.87202 45.2907 10.7763 45.14 15.8254 45.5168 24.9438 46.195 24.4163 45.8936 25.0192 50.1137 25.5467 53.3541 25.3206 56.2178 23.8888 67.4462 23.8134 68.4259 24.4916 69.2548 25.9988 70.0084 28.7871 71.3649 35.4187 72.0431 35.4187 70.9881 35.4187 70.6113 36.2476 70.0084 37.3027 69.7824 39.8649 69.1041 39.6388 67.597 36.8505 65.3362 35.5694 64.3565 34.8158 63.3015 35.268 63.0001 35.6448 62.774 37.1519 63.829 38.5838 65.4869 41.0706 68.1998 41.2967 68.2752 42.1256 66.8434 42.9546 65.5623 42.7285 65.1101 40.5431 63.2261 38.0563 61.1161 38.0563 60.3625 40.5431 61.719 41.7488 62.3218 41.8242 61.4929 41.8242 51.4701L41.8242 40.6185 36.9259 41.0706C30.8972 41.6735 25.0192 42.6531 22.9845 43.4067 21.7034 43.9342 21.628 43.8589 22.457 42.8039 23.4366 41.5981 30.8218 39.9402 35.268 39.9402 37.5287 39.9402 37.6041 39.8649 37.1519 37.3027 36.5491 33.6854 38.1316 26.0742 40.3924 21.3266 42.201 17.634 42.201 17.3326 41.0706 15.5239 36.5491 8.66628 47.4008 5.57656 54.2584 11.756 55.841 13.1878 57.4989 15.3732 58.0264 16.579 58.9307 18.689 58.78 19.0658 57.2728 20.7237 55.7656 22.3062 54.7859 22.6077 51.3194 22.6077 48.4558 22.6077 46.3457 22.1555 44.6878 21.1759L42.3517 19.6687 41.2213 22.5323C39.6388 26.3756 38.2823 33.8362 38.5838 36.5491 38.8098 38.5084 39.1866 38.8098 41.2213 39.0359L43.7082 39.262 43.1807 48.1544C42.6531 58.3278 43.1053 61.2668 44.9893 60.5132 45.8936 60.1364 46.1197 60.3625 45.8182 61.1161 44.4618 64.7333 44.3864 65.5623 45.5168 66.0144 46.195 66.2405 46.7225 66.9187 46.7225 67.5216 46.7225 68.1245 46.2704 68.3505 45.5921 68.1245 44.7632 67.7477 44.4618 68.1998 44.4618 69.6316 44.4618 72.3446 42.5024 73.0982 35.268 73.0982 30.8218 73.0982 28.1089 72.646 25.9988 71.6663ZM40.6938 70.3852C40.6938 69.4809 40.4677 69.3302 39.7895 69.9331 39.262 70.3099 38.1316 70.8374 37.3027 71.0635 36.323 71.2895 36.6244 71.4403 38.2823 71.5156 40.0156 71.591 40.6938 71.2895 40.6938 70.3852ZM10.5502 62.9247C12.5096 60.5132 9.26915 57.6496 7.08374 59.9103 6.40551 60.5886 5.35048 60.9654 4.82297 60.7393 3.39115 60.2118 3.46651 61.4175 4.97369 62.8493 6.48087 64.3565 9.34451 64.4319 10.5502 62.9247ZM24.0395 54.2584C24.1149 52.2991 23.8888 51.9223 23.3613 52.7512 22.9845 53.3541 22.683 56.2931 22.683 59.1568L22.8338 64.4319 23.3613 60.6639C23.7381 58.6292 24.0395 55.6902 24.0395 54.2584ZM56.5945 19.8948C57.4235 18.9151 57.3481 18.3122 56.1424 16.1268 53.957 11.9821 50.8673 10.1735 45.9689 10.1735 42.201 10.1735 41.8242 10.3242 41.5981 11.9821 41.4474 12.9617 42.0503 14.695 42.8792 15.9007 43.7835 17.0311 44.4618 18.3876 44.4618 18.7644 44.4618 21.1759 54.7106 22.1555 56.5945 19.8948Z" fill="#1D3557" transform="matrix(1.00124 0 0 -1 322.487 517.108)"/><path d="M54.7859 71.591C52.9773 70.1592 51.2441 65.3362 52.2237 64.3565 52.3745 64.1304 54.1831 63.829 56.1424 63.6783 60.7393 63.3015 61.6436 62.4725 59.9857 59.9103 57.4235 55.9917 47.4008 49.963 44.9139 50.9426 44.2357 51.1687 43.7082 51.0933 43.7082 50.6412 43.7082 46.4965 58.6292 54.1077 61.4929 59.6843 62.5479 61.719 62.5479 62.0204 61.3422 63.3769 60.2871 64.5826 60.2118 65.1101 60.89 66.768 62.0957 69.3302 62.0204 69.8577 60.2871 71.591 58.4032 73.4749 57.1974 73.4749 54.7859 71.591ZM59.3828 70.6867C60.89 69.1795 60.4379 67.8984 57.8756 66.3158 52.902 63.3015 51.0933 65.1101 54.9367 69.2548 57.3481 71.817 58.0264 72.0431 59.3828 70.6867Z" fill="#1D3557" transform="matrix(1.00124 0 0 -1 322.487 517.108)"/><path d="M89.5264 69.5563C88.4714 67.9737 86.2106 64.0551 84.4773 60.89L81.2369 55.012 78.0718 55.012C73.7764 55.012 67.0694 52.9773 64.9594 51.018 63.4522 49.6615 63.3015 48.8326 63.4522 44.5371L63.6783 39.5634 66.4666 39.3374C69.7824 39.0359 72.3446 41.146 72.3446 44.085 72.3446 46.4211 69.9331 47.5515 66.9187 46.6472 65.0347 46.1197 64.8087 46.2704 64.8087 47.9283 64.8087 49.4355 65.4869 50.1137 68.2752 51.3948 70.2345 52.2237 73.7764 53.128 76.2632 53.2788L80.7094 53.7309 79.8805 51.5455C79.4283 50.3398 77.9965 47.6268 76.7907 45.5168 73.5503 39.7141 73.5503 39.6388 81.0108 40.2417 85.457 40.6185 87.4163 40.5431 87.4163 39.9402 87.4163 39.4881 86.0599 36.6998 84.4773 33.6854 82.1412 29.39 79.1269 21.5527 79.1269 19.8194 79.1269 19.6687 80.7848 19.744 82.8948 20.0455 85.9845 20.4223 86.7381 20.3469 87.1149 19.2919 88.396 15.9007 83.2716 11.5299 79.0515 12.4342 76.0371 13.1125 76.1125 15.3732 79.3529 16.579 80.7094 17.1065 81.3123 17.634 80.7848 17.8601 80.2572 18.0861 78.8254 17.8601 77.5443 17.3326 74.53 16.0515 74.53 13.2632 77.695 11.6806 80.634 10.0981 83.6484 10.7763 86.6628 13.5646 90.8829 17.5586 88.9989 22.457 83.4977 21.7034 81.3876 21.4019 81.3123 21.4773 81.7644 23.6627 82.2166 25.9988 83.7238 29.2393 87.7931 36.7752L89.9032 40.6938 93.7465 40.6185C97.4391 40.6185 97.6652 40.4677 100.68 36.6998 104.749 31.5 106.934 27.1292 107.537 22.9845 107.763 21.1005 108.291 19.5933 108.592 19.5933 108.969 19.5933 109.27 19.8948 109.27 20.3469 109.27 21.628 114.922 22.683 117.183 21.8541 121.403 20.2715 117.409 14.9964 111.833 14.7703 109.195 14.695 108.894 14.9211 108.441 16.9558 108.065 18.9151 107.914 18.9904 107.386 17.7847 106.708 16.2775 107.537 14.4689 109.421 13.2632 110.928 12.3589 115.827 13.7153 118.615 15.9007 121.102 17.8601 121.328 21.4019 118.992 22.683 118.163 23.1352 115.601 23.3613 113.34 23.2105L109.195 22.9845 108.441 25.9988C107.311 30.2189 106.03 32.4797 102.488 36.5491 99.1723 40.3924 99.1723 41.4474 102.488 41.4474 110.476 41.4474 111.23 47.3254 104.372 56.2178 101.282 60.2118 101.132 60.5886 102.337 61.4929 103.468 62.3972 103.392 62.4725 101.584 62.5479 98.1927 62.5479 97.9666 65.3362 101.207 66.9187L102.865 67.7477 101.282 67.7477C100.378 67.823 99.2477 67.2955 98.7202 66.6926 97.5144 65.2608 96.4594 65.9391 96.4594 68.1998 96.4594 69.4809 96.158 69.9331 95.4044 69.6316 94.7262 69.4056 94.1233 69.8577 93.8219 70.762 93.0683 73.0982 91.6364 72.646 89.5264 69.5563ZM93.8219 67.823C94.4247 66.6173 94.9522 64.9594 94.9522 64.1304 94.9522 62.2465 93.4451 61.2668 92.6161 62.6233 91.8625 63.9044 90.8829 63.0001 91.4104 61.4175 92.0886 59.7596 94.7262 59.9857 95.7058 61.8697 96.5348 63.3769 96.6101 63.3769 98.4187 61.2668 102.79 56.4438 107.085 49.6615 107.537 47.1747 107.839 45.0646 107.688 44.4618 106.181 43.7082 104.447 42.7285 79.7297 41.0706 77.9211 41.7488 77.1675 42.0503 77.8458 44.085 80.634 49.8876 85.6831 60.2118 91.2597 70.0838 92.0132 70.0838 92.39 70.0838 93.1436 69.1041 93.8219 67.823ZM70.762 44.085C71.0635 42.4271 68.9534 40.6938 66.5419 40.6938 64.3565 40.6938 64.2812 42.0503 66.5419 42.9546 67.4462 43.3314 67.8984 43.6328 67.5216 43.6328 67.1448 43.7082 67.2955 44.2357 67.823 44.8386 69.0288 46.2704 70.3852 45.8936 70.762 44.085Z" fill="#1D3557" transform="matrix(1.00124 0 0 -1 322.487 517.108)"/><path d="M93.1436 58.4032C92.3147 57.8003 91.9379 57.0467 92.164 56.7453 92.4654 56.4438 93.1436 56.6699 93.5958 57.1221 94.9522 58.4785 97.0623 58.1771 97.5898 56.5192 98.1173 54.9367 99.4738 54.4091 99.4738 55.841 99.4738 59.0814 95.9319 60.5132 93.1436 58.4032Z" fill="#1D3557" transform="matrix(1.00124 0 0 -1 322.487 517.108)"/><path d="M172.949 70.1592C164.207 67.9737 155.993 59.3828 155.692 51.9977 155.616 49.134 155.541 49.134 151.17 47.9283 145.82 46.4211 142.428 43.3314 142.428 39.9402 142.428 38.6591 141.901 36.7752 141.223 35.7955 140.092 34.0622 140.168 33.8362 141.976 32.0275 144.312 29.6914 147.854 29.5407 151.321 31.6507 156.219 34.6651 152.677 39.9402 146.422 38.9606 144.162 38.5838 143.936 38.7345 143.936 40.317 143.936 42.8039 147.703 45.6675 152.3 46.6472 154.486 47.0993 156.294 47.4008 156.37 47.3254 156.445 47.1747 156.897 45.14 157.425 42.7285 158.48 38.0563 160.665 34.8912 164.659 32.4043 167.146 30.8972 167.146 30.7464 166.166 28.4103 165.639 27.0539 164.961 23.7381 164.659 21.0251L164.132 16.0515 161.343 16.1268C158.178 16.2022 154.486 14.1675 154.486 12.3589 154.486 10.2488 158.555 7.00838 161.871 6.40551 165.714 5.80264 170.085 7.68661 171.743 10.701 173.25 13.3385 171.894 15.0718 168.201 15.0718L165.564 15.0718 166.091 19.744C166.317 22.3816 166.92 25.6974 167.297 27.1292L168.05 29.7668 173.853 29.7668C177.093 29.8421 180.56 30.1436 181.615 30.445 182.67 30.8218 183.273 30.8972 183.047 30.5957 182.745 30.2943 182.971 28.1089 183.574 25.7728 184.102 23.4366 184.554 20.3469 184.629 18.9904 184.629 16.805 184.78 16.579 186.061 17.3326 188.096 18.3876 191.035 18.3122 194.049 17.0311 196.084 16.1268 196.687 15.4486 196.687 14.0168 196.687 11.756 193.898 8.4402 191.788 8.21412 188.548 7.98805 187.794 8.36484 186.965 10.701 186.212 12.811 186.287 13.4139 187.644 15.2225 189.452 17.7093 188.322 18.0108 186.061 15.75 184.253 13.9414 184.479 10.4749 186.664 8.13876 189.452 5.04905 196.385 7.30982 198.043 11.8314 199.55 16.2775 195.782 19.5933 189.302 19.5933 186.513 19.5933 186.287 19.744 185.76 22.3816 184.177 30.8218 184.102 32.4797 185.383 33.1579 187.342 34.2129 191.186 40.6185 192.241 44.6125 192.768 46.5718 193.597 48.3051 194.049 48.5311 195.33 48.9833 200.681 46.8732 201.736 45.4414 203.243 43.4821 202.942 41.9749 200.455 38.3577 197.44 33.9115 197.516 31.274 200.681 29.39 204.524 26.9785 210.251 27.7321 210.251 30.6711 210.251 31.8015 210.101 31.8015 208.895 30.6711 206.182 28.1842 199.701 29.9175 199.701 33.0826 199.701 34.8158 203.544 38.433 205.428 38.433 207.237 38.433 208.292 37.7548 209.347 35.7955 210.176 34.3637 210.176 34.439 210.251 36.323 210.251 38.5838 208.518 39.9402 205.504 39.9402 203.997 39.9402 203.695 40.2417 203.997 41.4474 205.052 45.5921 200.907 49.7369 195.782 49.7369L193.145 49.7369 192.693 54.5599C191.487 67.4462 184.479 72.9474 172.949 70.1592ZM185.082 67.8984C190.281 64.7333 192.994 52.4498 190.432 43.6328 188.247 36.323 181.087 30.1436 174.757 30.1436 171.969 30.1436 166.995 32.1783 163.378 34.7405 158.781 38.0563 156.897 47.024 159.459 53.4295 160.891 56.8206 160.741 57.2728 159.007 55.0874 158.178 54.1077 157.5 53.7309 157.5 54.1831 157.5 55.841 160.364 60.6639 162.549 62.6233 164.659 64.658 169.482 67.823 170.387 67.823 171.291 67.823 172.723 61.0407 172.27 59.0814 171.818 57.2728 171.517 57.1221 169.181 57.4989 167.749 57.7249 166.543 57.6496 166.543 57.2728 166.543 56.1424 170.387 55.4642 171.668 56.2931 174.079 57.8003 174.456 59.3075 173.476 63.7536 173.024 66.0898 172.798 68.3505 173.024 68.652 173.778 69.9331 182.595 69.4056 185.082 67.8984ZM151.17 36.6244C152.3 35.7201 152.451 35.268 151.773 34.1376 150.115 31.4247 143.182 30.8972 142.202 33.384 141.599 34.8912 142.73 36.2476 144.538 36.3984 145.443 36.4737 146.196 36.7752 146.196 37.0766 146.196 38.0563 149.587 37.7548 151.17 36.6244ZM162.549 13.9414C163.077 13.0371 163.755 12.9617 165.714 13.5646 168.276 14.2428 171.065 13.4892 171.065 12.1328 171.065 11.756 170.01 10.5502 168.653 9.41986 166.619 7.68661 165.714 7.46053 162.926 7.76197 159.309 8.13876 155.39 11.1531 156.37 12.811 157.651 14.8457 161.645 15.5993 162.549 13.9414Z" fill="#1D3557" transform="matrix(1.00124 0 0 -1 322.487 517.108)"/><path d="M176.641 63.7536C176.415 62.3218 176.415 60.1364 176.717 58.8553 177.244 56.3685 180.259 53.5048 182.293 53.5048 183.951 53.5048 186.664 55.4642 185.986 56.2178 185.684 56.5192 184.931 56.2931 184.253 55.7656 182.519 54.3338 179.43 55.4642 178.525 57.8756 178.073 59.006 177.922 61.3422 178.148 63.1508 178.676 66.9187 177.395 67.4462 176.641 63.7536Z" fill="#1D3557" transform="matrix(1.00124 0 0 -1 322.487 517.108)"/><path d="M169.859 51.1687C169.558 50.5658 170.085 50.4905 171.592 50.7919 173.175 51.1687 174.305 50.8673 175.737 49.7369 178.45 47.6268 179.204 47.8529 177.093 50.1137 175.209 52.073 170.839 52.7512 169.859 51.1687Z" fill="#1D3557" transform="matrix(1.00124 0 0 -1 322.487 517.108)"/><path d="M105.955 55.9163C105.653 55.4642 106.934 55.1627 109.346 55.1627 114.47 55.0874 117.108 53.3541 116.43 50.6412 116.128 49.5108 115.45 48.079 114.847 47.4008 113.566 45.9689 113.491 43.5575 114.696 42.3517 116.128 40.9199 118.841 41.2967 121.102 43.256 122.835 44.7632 123.061 45.3661 122.383 46.4965 121.931 47.25 120.65 47.9283 119.595 48.079 117.861 48.3051 117.711 48.6065 118.087 50.7166 118.615 54.2584 116.43 55.9917 110.853 56.3685 108.291 56.5192 106.256 56.3685 105.955 55.9163ZM120.8 46.195C121.705 45.3661 118.916 42.9546 117.032 42.9546 114.696 42.9546 114.847 44.1603 117.409 45.5168 119.745 46.7979 120.122 46.8732 120.8 46.195Z" fill="#1D3557" transform="matrix(1.00124 0 0 -1 322.487 517.108)"/><path d="M27.506 33.8362C27.2046 30.5204 26.2249 24.9438 25.3206 21.628L23.7381 15.4486 21.2512 15.6747C18.4629 15.9761 15.6747 14.4689 13.866 11.6806 12.0574 8.89235 13.0371 6.33015 16.7297 4.44618 22.3062 1.58254 29.6914 3.54187 32.4043 8.59092 33.3086 10.3995 33.2333 10.701 31.6507 12.4342 30.7464 13.4139 29.0132 14.4689 27.8074 14.695 25.2452 15.2979 25.1699 15.75 27.0539 22.6077 28.8625 28.9378 29.9175 39.9402 28.7871 39.9402 28.4103 39.9402 27.8074 37.2273 27.506 33.8362ZM29.9928 12.2081C30.8972 11.6053 31.6507 10.701 31.6507 10.2488 31.6507 9.19379 29.0132 6.55623 26.6017 5.35048 22.457 3.24043 14.3182 5.65192 14.3182 9.04307 14.3182 9.94738 15.2225 11.4546 16.3529 12.5096 18.2369 14.2428 18.7644 14.3936 23.3613 13.866 26.0742 13.5646 29.0132 12.8864 29.9928 12.2081Z" fill="#1D3557" transform="matrix(1.00124 0 0 -1 322.487 517.108)"/></g></g></g></g></svg>