<svg width="1140" height="750" xmlns="http://www.w3.org/2000/svg" xmlns:xlink="http://www.w3.org/1999/xlink" overflow="hidden"><defs><clipPath id="clip0"><rect x="343" y="556" width="1140" height="750"/></clipPath></defs><g clip-path="url(#clip0)" transform="translate(-343 -556)"><text fill="#1D3557" font-family="Poppins,Poppins_MSFontService,sans-serif" font-weight="700" font-size="220" transform="matrix(1 0 0 1 475.741 1111)">Renaud<tspan font-weight="400" font-size="110" x="182.931" y="-183">Madame</tspan></text><path d="M2.48221 41.6252C-2.01422 35.9028-1.60545 33.7021 4.93481 28.4201 9.02247 24.8985 15.9715 21.8172 20.0592 21.8172 30.2783 21.8172 26.5994 11.2531 15.5627 9.49229 5.34358 7.73149 3.29974-0.191564 13.1101-0.191564 31.0959-0.191564 43.7676 23.1377 29.052 28.86 25.7819 30.6208 23.7381 33.2618 24.9644 35.4625 26.1907 37.2233 23.7381 41.1849 19.2416 43.386 9.02247 49.5482 8.61371 49.5482 2.48221 41.6252Z" fill="#1D3557" fill-rule="evenodd" transform="matrix(1 0 0 -1 1320 1162)"/><path d="M18.9709 60.726C7.08678 47.0308 6.2945 47.0308 6.2945 56.3081 6.2945 61.6094 4.70996 66.0272 2.72928 66.0272 0.748603 66.0272-0.439804 51.0068-0.439804 32.8938-0.439804-0.239545 4.31383-10.8425 8.67132 12.1302 9.85973 18.7569 12.2365 28.0341 13.8211 32.8938 16.1979 39.9623 17.3863 38.637 19.7631 24.0581 22.5361 7.71239 23.3283 6.82895 28.4781 15.2228 32.8356 21.8494 35.2124 22.2913 38.7776 18.315 46.7004 9.4796 81.5603 12.5718 81.5603 21.8494 81.5603 23.6166 73.6376 24.0581 64.1303 23.1747 42.3429 20.0822 38.3815 26.7088 51.454 44.3802 72.8453 72.6542 43.5313 87.6746 18.9709 60.726ZM51.454 62.4932C52.6424 60.2841 48.2849 52.774 41.9467 46.1471L30.0627 33.3357 30.0627 46.589C30.0627 54.0993 31.2511 61.6094 32.8356 62.9347 36.4008 67.3526 49.0772 66.911 51.454 62.4932Z" fill="#1D3557" fill-rule="evenodd" transform="matrix(1 0 0 -1 1233 1233)"/><path d="M81.3363 71.3025C83.7226 68.6206 89.2907 65.4916 93.2679 65.0448 102.416 63.2568 101.62 43.5893 91.677 26.6037L84.9158 15.429 83.7226 25.7095C80.9386 46.2712 46.3368 52.0821 43.9504 31.9675L42.7573 21.6867 31.2233 32.8613C24.8598 38.6722 17.3031 44.4831 14.9168 45.377 12.1327 46.2712 11.3373 49.8469 12.9281 52.9759 15.3145 56.9988 17.3031 56.9988 21.2803 53.423 25.2575 49.8469 26.8484 51.635 28.0416 60.1278 30.4279 73.5376 23.6666 74.8786 9.34865 64.1506-3.77616 54.764-3.37844 46.2712 10.5418 38.2255 16.9054 34.6494 24.0644 28.3914 26.8484 24.8157 31.6211 18.5577 30.4279 16.77 19.6894 11.8529 12.9281 8.72391 8.55321 4.70106 10.1441 2.91301 14.9168-2.89753 24.8598-0.215635 34.0074 9.61811 41.9618 17.6638 43.155 18.1109 43.155 11.8529 43.155 0.231113 61.8479 2.01916 67.416 14.0881L72.1887 23.9218 75.7682 13.641C78.95 3.80721 79.3477 3.36011 88.893 10.512 94.4611 14.5348 98.836 15.8758 98.836 13.1939 98.836 6.04201 117.131 7.83006 122.699 15.429 129.063 23.9218 124.688 30.6265 117.927 23.0276 110.768 14.9819 106.79 16.77 106.79 27.0504 106.79 32.4146 109.972 39.5664 113.949 42.6951 117.927 46.2712 118.722 48.506 115.938 48.9531 113.154 48.9531 110.768 52.9759 110.768 57.893 110.768 67.2796 109.177 68.6206 88.893 73.5376 80.1431 75.7724 78.1545 75.3253 81.3363 71.3025ZM61.0525 17.6638C59.8593 15.429 57.0753 13.1939 54.6889 13.1939 52.7003 13.1939 51.1094 15.429 51.1094 17.6638 51.1094 20.3457 53.8935 22.1338 57.473 22.1338 60.6548 22.1338 62.2456 20.3457 61.0525 17.6638Z" fill="#1D3557" fill-rule="evenodd" transform="matrix(1 0 0 -1 918 1254)"/><path d="M8.04176 37.3481C-1.17433 29.4751-1.97573 26.8505 1.63056 15.4785 6.83966-0.705305 17.6586-4.20429 33.2858 4.54369 44.5054 11.1045 50.1152 24.2261 41.2998 24.2261 39.2963 24.2261 37.2928 22.4768 37.2928 20.7272 37.2928 14.1663 16.4565 5.85586 12.0488 10.667 9.64456 13.2913 12.8502 17.2278 20.8642 21.6018 28.4774 25.9758 33.2858 32.0995 33.2858 37.3481 33.2858 48.7204 21.2649 48.7204 8.04176 37.3481Z" fill="#1D3557" fill-rule="evenodd" transform="matrix(1 0 0 -1 1138 1240)"/><path d="M472.501 53.1766C450.553 51.3767 395.883 47.3273 350.79 44.6276 264.994 38.7783 207.531 33.8292 141.288 25.7299 119.341 23.0303 83.4259 19.431 61.4781 17.181 15.5872 12.6816-0.374857 9.08218-0.374857 2.78283-0.374857 0.0832123 3.61566-0.816543 8.80332 0.533267 21.1739 4.13264 44.7179 7.28231 79.4354 10.432 95.7965 11.7818 125.725 14.9315 145.279 17.181 195.559 23.0303 274.971 29.3297 398.676 37.4285 456.938 41.478 508.416 45.5274 513.603 46.8772 522.781 49.1271 526.373 58.1261 517.594 56.7759 514.8 56.7759 494.449 54.9764 472.501 53.1766Z" fill="#1D3557" fill-rule="evenodd" transform="matrix(1 0 0 -1 916 1291)"/><path d="M517.306 612.956 521.585 611.016 563.983 604.03 615.716 598.597 693.121 594.716 778.306 592.776 875.159 592 905.888 594.716 909 601.314 903.554 727.827 896.942 794.964 843.264 799.621 762.358 801.95 677.173 806.995 596.656 810.099C570.336 809.841 543.043 812.735 517.695 809.323 517.565 793.929 515.977 783.387 515.847 767.993L514 694.064 517.306 612.956Z" fill="#173A22" fill-rule="evenodd"/><path d="M6.1021 18.6213C1.02288 16.5368-1.07887 12.0206-0.0279957 4.55119 0.847733-2.91806 4.00036-1.52845 4.87608 6.98313 5.57667 12.7154 6.1021 13.9313 7.15298 11.6732 7.85356 9.93604 8.379 6.46203 8.379 4.20379 8.379 1.94569 9.25473 0.0348494 10.1305 0.0348494 11.1813 0.0348494 11.8819 1.25089 11.8819 2.64049 11.8819 4.89859 13.2831 5.24599 18.5375 4.37749 24.6676 3.33529 24.8427 3.50899 21.6901 5.9408 18.7126 8.37274 18.5375 9.24124 20.4641 12.8891 21.8652 15.1472 22.2155 17.9265 21.6901 18.9687 20.1138 21.4005 12.5825 21.2268 6.1021 18.6213ZM13.8085 11.6732C12.4074 10.2834 11.8819 10.4571 11.8819 12.368 11.8819 13.9313 12.4074 15.6683 13.1079 16.3631 13.8085 17.0579 14.6842 16.7105 15.0345 15.6683 15.56 14.4524 14.8594 12.7154 13.8085 11.6732Z" fill="#FFFFFF" fill-rule="evenodd" transform="matrix(1 0 0 -1 659 640)"/><path d="M16.4849 18.3001C13.4767 16.1089 13.4767 15.7437 16.131 14.648 19.3161 13.3698 20.2008 2.41323 17.1927 2.41323 16.3079 2.41323 15.4232 3.14364 15.4232 4.23927 15.4232 7.16109 8.16825 10.0828 3.56756 8.80453 0.382462 8.07411-0.502286 6.79574-0.148387 3.69146 0.382462 0.0392219 1.26721-0.325987 12.7689-0.325987 24.2707-0.325987 25.1554 0.0392219 25.6863 3.87406 26.3941 8.43932 22.8551 20.6741 20.9086 20.6741 20.2008 20.6741 18.2544 19.5785 16.4849 18.3001Z" fill="#FFFFFF" fill-rule="evenodd" transform="matrix(1 0 0 -1 554 641)"/><path d="M1.43649 21.9523C-0.695788 16.1361-0.873477 5.41254 1.2588 4.14013 3.39107 2.68611 4.99028 7.41183 4.99028 14.8638 4.99028 21.9523 6.94486 23.77 13.164 22.3158 17.2509 21.2253 17.6062 20.3166 17.0732 12.501 16.5401 5.23065 16.007 3.95838 12.6309 3.41312 6.23411 2.50436 7.83331-0.94909 14.4078-0.221936 20.0939 0.323323 20.0939 0.323323 20.627 11.2288 21.3377 23.5883 19.0278 26.6781 9.07714 26.6781 4.27952 26.6781 2.858 25.7693 1.43649 21.9523Z" fill="#FFFFFF" fill-rule="evenodd" transform="matrix(1 0 0 -1 602 647)"/><path d="M9.85869 16.0206C5.05883 14.5679-0.0965852 9.66508-0.274358 6.5782-0.274358 5.30699 9.1476-0.32216 11.2809-0.32216 11.8142-0.32216 12.1697 0.94905 12.1697 2.4017 12.1697 3.85434 11.4586 5.12541 10.392 5.12541 6.65878 5.12541 8.79205 10.7546 13.2364 12.3889 15.7252 13.4784 17.1474 14.9311 16.6141 16.0206 16.0807 16.9285 15.3696 17.8365 15.1919 17.6549 15.0141 17.6549 12.5253 16.7469 9.85869 16.0206Z" fill="#FFFFFF" fill-rule="evenodd" transform="matrix(1 0 0 -1 632 642)"/><path d="M1.17829 16.5166C-0.65312 15.4061-0.65312 13.7403 1.17829 7.44724 2.34373 3.19014 3.84216-0.326484 4.50813-0.326484 7.33849-0.326484 7.67147 16.5166 4.84111 17.6272 4.00865 17.8123 2.34373 17.442 1.17829 16.5166Z" fill="#FFFFFF" fill-rule="evenodd" transform="matrix(1 0 0 -1 544 644)"/><path d="M-0.0676524 1.23521C-0.616213 0.485185-0.250602-0.26484 0.66357-0.26484 1.7604-0.26484 2.67443 0.485185 2.67443 1.23521 2.67443 2.13524 2.30882 2.73538 1.94321 2.73538 1.39479 2.73538 0.480764 2.13524-0.0676524 1.23521Z" fill="#FFFFFF" fill-rule="evenodd" transform="matrix(1 0 0 -1 698 636)"/><path d="M0.785733 35.5468C-1.21257 33.76-0.66758 31.4371 1.87572 31.4371 4.78234 31.4371 6.05399 7.13584 3.14737 3.74091 1.69405 1.9541 1.69405 1.06056 3.32903-0.0115278 4.60068-0.726251 6.41732-0.0115278 7.68897 1.5966 10.7773 5.88508 9.86894 33.2239 6.41732 35.1894 3.5107 37.1551 2.23905 37.1551 0.785733 35.5468Z" fill="#FFFFFF" fill-rule="evenodd" transform="matrix(1 0 0 -1 838 684)"/><path d="M20.0629 25.337C16.1518 21.6286 15.7962 20.5691 17.7518 16.5075 19.174 13.5056 19.174 11.3866 17.9296 10.1503 16.6851 8.91425 14.0184 11.21 9.21836 17.214 2.28496 26.3965-0.381736 28.1624-0.381736 23.7478-0.381736 20.5691 13.4851 5.02925 16.5073 5.02925 17.7518 5.02925 19.7074 3.79316 20.9518 2.38049 23.4407-0.621588 31.6186-1.32793 31.6186 1.49756 31.6186 2.55707 30.3741 3.26341 28.9519 3.26341 25.3963 3.26341 22.7296 8.91425 22.7296 17.0374 22.7296 22.5117 23.4407 24.2775 26.2852 24.9838 28.2408 25.5136 29.8408 26.7497 29.8408 27.8092 29.8408 31.1644 24.5074 29.9284 20.0629 25.337Z" fill="#FFFFFF" fill-rule="evenodd" transform="matrix(1 0 0 -1 776 679)"/><path d="M7.98386 23.8801C-5.48044 16.3605-1.9372-0.290174 12.9444-0.290174 20.0309-0.290174 29.5976 7.5875 29.5976 13.675 29.5976 22.9849 17.0191 28.8932 7.98386 23.8801ZM22.5111 18.5089C25.8772 14.3911 23.2198 7.40846 17.7278 5.43908 7.45237 2.03742 0.897387 10.2732 7.80669 17.9718 11.3499 21.9107 19.4994 22.2688 22.5111 18.5089Z" fill="#FFFFFF" fill-rule="evenodd" transform="matrix(1 0 0 -1 808 677)"/><path d="M5.6113 19.831C0.539293 17.2401-0.366423 16.0311-0.366423 10.3314-0.366423 2.90461 3.25644 2.21362 5.24901 9.29516 6.33587 12.7494 6.51701 12.5767 6.69816 7.22246 6.8793-0.031662 8.50959-2.10423 11.2267 1.35005 12.857 3.59547 14.125 3.59547 19.0159 1.86819 22.2765 0.659194 25.3559 0.313766 26.0805 0.831908 27.8919 2.7319 24.9936 5.66803 21.1896 5.66803 17.0233 5.66803 16.661 9.46788 20.465 12.5767 24.4502 15.6857 23.7256 20.6946 19.197 21.9035 13.4005 23.2853 12.3136 23.1125 5.6113 19.831ZM17.7479 16.2039C17.7479 14.1313 12.6759 12.404 11.589 14.1313 11.0456 14.9949 11.0456 16.0311 11.7702 16.722 13.4005 18.2764 17.7479 17.931 17.7479 16.2039Z" fill="#FFFFFF" fill-rule="evenodd" transform="matrix(1 0 0 -1 747 676)"/><path d="M14.2681 18.9388C14.2681 15.9206 6.72623 13.0801 4.51887 15.2105-1.18349 20.7142-2.10322 13.7902 3.23124 5.26832 7.64597-1.65563 9.48544-2.0107 13.3483 3.67052 17.2112 9.17421 19.2346 20.7142 16.2915 20.7142 15.1878 20.7142 14.2681 20.004 14.2681 18.9388Z" fill="#FFFFFF" fill-rule="evenodd" transform="matrix(1 0 0 -1 660 677)"/><path d="M4.10289 13.1992C1.63229 9.00236-0.308895 4.63078-0.308895 3.58146-0.308895-0.615255 3.39701 1.65797 6.22055 7.60346 9.57351 14.5981 12.9265 15.4724 14.5147 9.87668 16.103 3.75633 15.9265 3.23174 12.2206 3.23174 10.2794 3.23174 8.16174 2.53228 7.63232 1.4831 6.39702-0.440391 13.6324-0.964981 18.0441 0.783652 21.5736 2.18256 21.5736 5.5051 18.0441 12.4998 15.2206 17.9207 12.5735 20.7185 9.92645 20.7185 9.22056 20.7185 6.57349 17.2212 4.10289 13.1992Z" fill="#FFFFFF" fill-rule="evenodd" transform="matrix(1 0 0 -1 682 677)"/><path d="M2.97798 13.5208C-1.39137 10.3751-1.20931 2.51115 2.97798 0.413987 5.52676-0.809275 8.07554-0.459772 12.6269 1.81214 16.6322 3.90916 21.1836 4.60817 25.735 4.08391 32.6531 3.3849 35.566 6.53044 29.3761 8.27809 27.5555 8.80235 22.8221 10.7246 18.8168 12.647 10.2602 16.4916 7.34732 16.6663 2.97798 13.5208ZM12.4449 9.15185C12.4449 5.30717 7.16526 2.86065 4.61648 5.30717 3.34209 6.53044 3.52414 7.92859 5.16265 9.85085 8.2576 13.5208 12.4449 13.1713 12.4449 9.15185Z" fill="#FFFFFF" fill-rule="evenodd" transform="matrix(1 0 0 -1 555 676)"/><path d="M2.82573 13.2125C1.07609 10.8727-0.323613 8.1728-0.323613 7.09289-0.323613 4.57311 6.84988-0.286616 10.5241-0.286616 15.2481-0.286616 14.3733 5.11306 9.82426 5.29305L5.8001 5.29305 9.82426 7.27288C12.0988 8.53291 13.6735 10.8727 13.6735 13.5725 13.6735 19.1521 6.84988 19.1521 2.82573 13.2125Z" fill="#FFFFFF" fill-rule="evenodd" transform="matrix(1 0 0 -1 710 679)"/><path d="M3.57669 10.0946C-0.785463 8.27436-1.13444 7.00023 1.13389 2.99566 2.00632 1.5395 3.92567 0.993445 5.67053 1.72152 7.41539 2.26758 9.8582 1.90354 11.0796 0.811425 13.6969-1.37295 18.757-0.0986714 18.757 2.81364 18.757 3.72373 17.7101 4.63383 16.3142 4.63383 14.9183 4.63383 13.1734 6.27215 12.65 8.27436 11.4286 12.2789 9.50922 12.643 3.57669 10.0946Z" fill="#FFFFFF" fill-rule="evenodd" transform="matrix(1 0 0 -1 593 677)"/><path d="M0.556736 7.88346C-2.04273 0.410013 1.07663-3.78233 3.84939 3.50884 4.71588 6.24298 5.58237 9.70636 5.58237 11.1646 5.58237 15.7216 2.46301 13.8988 0.556736 7.88346Z" fill="#FFFFFF" fill-rule="evenodd" transform="matrix(1 0 0 -1 855 684)"/><path d="M-0.299852 1.68503C-0.299852 0.684995 1.10035-0.315038 2.7004-0.315038 4.30046-0.315038 5.7005 0.684995 5.7005 1.68503 5.7005 2.88507 4.30046 3.68525 2.7004 3.68525 1.10035 3.68525-0.299852 2.88507-0.299852 1.68503Z" fill="#FFFFFF" fill-rule="evenodd" transform="matrix(1 0 0 -1 626 676)"/><path d="M10.4099 50.8485C10.9322 50.6059 11.2484 50.0655 11.2484 49.1831 11.2484 48.3009 10.3449 45.4775 9.08009 43.0069 7.45388 39.3013 7.45388 37.8895 9.80289 35.772 12.3326 33.3015 12.6939 33.6544 13.5973 38.419 15.0429 45.1246 17.9339 45.4775 18.8374 39.1249L19.5601 34.1838 21.5478 38.7719C24.0774 44.5952 26.9684 45.6539 40.3395 45.6539L51.0002 45.6539 51.0002 39.4777C51.0002 32.7722 47.5671 31.0074 46.1216 36.8307 45.3988 39.8306 43.5919 40.36 36.545 40.36 26.2457 40.36 24.0774 37.1836 27.8719 26.9489 30.0402 20.9491 29.8595 20.4197 25.1615 17.0669 22.2705 14.9493 20.2829 11.9495 20.2829 9.30251 20.2829 3.83209 17.0305 3.83209 14.8622 9.47897 13.9588 11.9495 11.9711 13.8905 10.3449 13.8905 7.09252 13.8905 6.91184 13.1847 9.80289 8.77312 12.1518 4.89102 10.5256-0.932255 7.09252 0.126522 6.00836 0.655834 4.74359 3.12631 4.38215 5.59687 3.84011 9.83197 2.38331 11.1885 0.545309 9.51761L0 8.76477 0.941983 12.9726C1.57736 15.7614 2.20115 18.5841 2.6455 21.0961L2.87339 22.6531 5.43808 20.5438C6.74244 19.8682 8.40256 19.3168 10.3449 19.008 18.6567 17.5963 21.1863 19.008 19.3794 24.3019 18.2953 28.0076 13.4167 28.89 5.28563 26.7723 4.54028 26.5959 3.93889 26.3615 3.47237 26.084L3.20885 25.8357 3.27256 27.3558C3.19027 28.9021 2.78379 29.9137 2.20372 30.6448L0.114413 32.2345 2.39459 32.5074C3.74973 33.3455 3.84011 35.3307 2.03322 38.0659 0.407018 40.8894 0.587699 42.3011 3.11739 46.1833 5.42113 49.6244 8.84294 51.5765 10.4099 50.8485Z" fill="#FFFFFF" fill-rule="evenodd" transform="matrix(1 0 0 -1 558 743)"/><path d="M56.6163 75.6555C24.8718 71.1688 2.61952 60.0293-0.181464 47.1881-1.42635 41.309 1.21903 33.1091 5.73173 28.9318 10.8669 24.1356 23.1601 19.1848 32.3411 18.2565 40.4329 17.483 40.5885 17.3283 42.4558 10.6756 46.5017-3.09396 51.17-3.86751 56.4607 8.35484 59.4173 15.4718 59.8842 15.7812 67.0422 16.7094 80.5803 18.4112 88.6721 24.4451 94.5853 37.5958 99.7204 48.8899 94.5853 59.2557 79.1798 68.5386 71.5549 73.18 61.4403 76.2743 56.6163 75.6555ZM68.9096 69.6215C76.0676 67.1462 77.935 65.9085 86.4935 57.5539 94.1184 50.1276 94.4297 43.3202 87.894 33.1091 82.6033 24.5998 74.6671 20.4226 65.4861 21.1962 58.9505 21.6603 58.9505 21.6603 55.0602 13.6151 52.8817 9.12839 50.3919 5.57005 49.4583 5.41534 47.2797 5.41534 45.7236 10.3662 45.7236 17.483L45.7236 22.4338 37.0094 22.4338C13.0454 22.4338-3.7605 38.9882 6.66539 52.1389 11.3337 57.8633 27.984 66.0632 41.0553 69.0027 56.1495 72.2517 60.9734 72.4064 68.9096 69.6215Z" fill-rule="evenodd" transform="matrix(1 0 0 -1 1099 632)"/><path d="M-0.256933 2.35395C-1.17567 0.671922 1.12118-1.16302 2.65241 0.213186 4.03052 1.58939 3.72427 3.73028 2.19304 3.73028 1.2743 3.73028 0.355559 3.11863-0.256933 2.35395Z" fill="#EF6F6C" fill-rule="evenodd" transform="matrix(1 0 0 -1 1126 589)"/><path d="M-0.576197 1.23521C-0.576197 0.485185 0.33783-0.26484 1.43466-0.26484 2.34869-0.26484 2.7143 0.485185 2.16589 1.23521 1.61747 2.13524 0.703441 2.73538 0.155025 2.73538-0.210586 2.73538-0.576197 2.13524-0.576197 1.23521Z" fill="#EF6F6C" fill-rule="evenodd" transform="matrix(1 0 0 -1 1148 588)"/><path d="M61.3471 224.098C61.9621 222.402 60.7321 219.166 58.4258 216.084 54.1208 210.228 53.6596 204.526 56.7346 196.821 57.9646 193.893 58.4258 191.119 57.6571 190.657 57.0421 190.194 56.1196 190.811 55.8121 191.735 55.3508 193.122 51.6608 193.739 45.2033 193.893 36.2857 194.047 35.2094 194.355 33.0569 198.054 31.8269 200.365 30.2894 202.214 29.6744 202.214 27.5219 202.214 28.4444 196.821 30.9044 193.122 33.2107 189.886 34.2869 189.578 41.8207 190.348 49.3545 191.119 50.5845 190.811 54.8896 186.958L59.5021 182.797 55.8121 178.482C53.0446 175.092 50.4308 174.013 44.5883 173.397 35.2094 172.472 19.9881 166.924 21.9869 164.921 22.6019 164.304 27.2144 165.075 32.2882 166.77 37.362 168.465 42.282 169.544 43.512 169.082 45.972 168.157 23.2169 137.798 18.1431 135.487 14.7606 133.945 11.5318 127.319 11.5318 121.463 11.5318 119.614 8.76429 112.833 5.38177 106.052 1.8455 99.4257-0.614519 93.8779-0.460769 93.7238 2.92175 91.7203 25.8306 85.0938 29.3669 85.0938 31.9807 85.0938 37.362 84.6315 41.3595 84.1692L48.432 83.0903 48.432 60.4368 48.432 37.7831 36.2857 36.7044C21.9869 35.4716 16.7593 32.3894 15.2218 24.0678 13.8381 16.3624 18.7581 11.1228 27.8294 11.1228 33.8257 11.1228 34.4407 10.8146 35.3632 6.34548 36.2857 2.3387 36.9007 1.72229 39.6682 2.6469 41.5132 3.26331 45.972 4.18805 49.5083 4.80446 55.6583 5.88317 60.4246 8.81124 64.8835 14.205 66.5748 16.2083 66.7285 16.2083 66.8823 13.7425 66.8823 12.2015 64.2685 8.50292 61.1934 5.72907 53.8133-1.05156 57.8108-1.66809 66.1135 4.95856 72.4173 10.0441 81.3348 11.7392 77.4911 7.11599 76.4148 5.72907 73.8011 4.03394 71.6485 3.26331 69.1885 2.18459 68.4198 1.25998 69.496 0.181261 71.1873-1.51399 83.7949 4.18805 83.7949 6.65369 83.7949 7.4242 84.5636 8.04061 85.3324 8.04061 86.2549 8.04061 86.5624 6.34548 85.9474 4.18805 84.5636-1.66809 86.8699-0.281046 95.7874 9.73586 102.552 17.4411 103.782 19.7528 103.782 24.8383 103.782 31.1566 101.322 34.8552 96.0949 36.5503 93.1737 37.4749 93.0199 38.862 93.0199 61.8237L93.0199 86.0184 103.475 89.2547C109.164 91.1039 116.851 93.5697 120.541 94.6484 130.535 97.5763 131.304 99.888 126.999 113.141 125 119.305 122.233 126.857 121.003 129.785 117.466 137.798 115.468 148.123 115.775 156.445 116.083 163.38 115.775 163.996 111.316 165.845L106.55 167.849 110.701 168.928C120.08 171.239 134.533 183.722 134.533 189.578 134.533 191.273 131.304 188.961 125.769 183.414 119.158 176.941 115.006 174.167 109.625 172.78 102.706 170.931 102.091 170.931 98.4012 174.475 93.6349 178.945 93.4812 181.718 98.0937 183.876 99.9387 184.801 103.014 187.42 104.551 190.04 106.243 192.506 109.933 195.28 113.008 196.204 124.385 199.595 126.845 201.136 126.845 203.91 126.845 206.684 126.538 206.684 123.309 204.68 121.464 203.293 116.851 201.29 113.161 199.903 107.011 197.745 106.55 197.745 107.78 200.365 108.395 201.752 109.164 205.759 109.625 209.149 110.24 214.697 110.086 215.005 107.78 213.156 106.396 212.077 105.32 209.458 105.32 207.454 105.32 205.451 103.782 202.523 102.091 200.828 98.0937 197.129 86.5624 191.427 85.0249 192.506 82.1036 194.201 84.2561 199.287 90.2524 204.834 93.6349 208.07 97.7862 211.923 99.4775 213.464 102.091 215.93 103.321 220.707 101.322 220.707 100.861 220.707 98.7087 218.704 96.5562 216.084 92.4049 210.999 89.1761 210.228 87.9461 213.773 87.0236 215.93 76.1073 222.248 73.0323 222.248 69.496 222.248 71.956 219.166 77.6448 216.7 81.4886 215.005 83.7949 213.002 83.7949 211.153 83.7949 209.612 83.1799 208.379 82.5648 208.379 80.1048 208.379 71.0335 198.362 68.881 193.43 67.8048 190.657 66.2673 188.345 65.6523 188.345 63.6535 188.345 59.1946 201.29 59.1946 206.992 59.1946 210.382 60.2709 213.464 61.9621 215.005 64.8835 217.779 64.8835 226.871 61.9621 226.871 61.1934 226.871 60.8859 225.639 61.3471 224.098ZM79.1823 198.516C79.1823 198.054 78.5673 197.283 77.6448 196.821 76.8761 196.358 76.1073 196.667 76.1073 197.437 76.1073 198.362 76.8761 199.132 77.6448 199.132 78.5673 199.132 79.1823 198.824 79.1823 198.516ZM102.245 192.968C102.245 190.965 92.8662 185.109 91.1749 186.187 88.8686 187.728 89.9449 189.27 95.0187 191.889 100.861 194.817 102.245 194.972 102.245 192.968ZM74.2623 184.184C73.8011 181.872 75.0311 181.41 81.3348 181.41 87.3311 181.41 89.1761 180.794 91.0212 178.02 93.3274 174.63 93.3274 174.63 85.0249 175.554 80.5661 176.016 75.6461 177.557 74.2623 178.79 71.1873 181.256 70.5723 186.804 73.0323 186.804 73.9548 186.804 74.5698 185.571 74.2623 184.184ZM60.1171 170.469C59.6558 169.082 59.1946 167.386 59.1946 166.616 59.1946 165.229 48.1245 159.065 45.357 159.065 42.7432 159.065 48.7395 166.924 53.8133 170.006 59.5021 173.551 61.3471 173.705 60.1171 170.469ZM73.0323 166.77C69.1885 161.376 67.651 161.068 65.3447 165.229 64.1147 167.541 64.1147 168.465 65.6523 168.928 66.7285 169.39 68.7273 170.006 69.9573 170.315 75.4923 172.164 76.2611 171.393 73.0323 166.77ZM86.8699 168.157C86.8699 165.691 87.4849 165.229 89.6374 166 95.3262 168.465 98.4012 167.695 97.9399 164.15 97.6324 161.685 98.2475 160.606 99.785 160.606 102.86 160.606 102.86 159.989 99.9387 154.288 98.555 151.822 95.0187 148.123 91.7899 145.966 88.7149 143.962 84.2561 140.726 81.9499 139.031 77.6448 135.641 75.0311 137.028 76.7223 141.651 77.3373 142.884 76.8761 145.041 75.7998 146.274 74.2623 148.123 74.8773 149.202 78.8748 152.438 84.4099 156.753 84.8711 158.448 81.3348 162.301 79.3361 164.459 79.3361 165.383 81.0273 168.157 83.6411 172.318 86.8699 172.318 86.8699 168.157ZM111.47 159.065C111.47 157.37 110.855 155.983 110.086 155.983 108.395 155.983 106.704 159.989 107.934 161.222 109.779 163.071 111.47 161.993 111.47 159.065ZM77.3373 158.602C78.1061 155.983 77.4911 154.904 73.8011 153.209 69.9573 151.359 68.5735 146.274 71.4948 144.425 74.4161 142.729 71.1873 139.031 66.5748 139.031 58.8871 139.031 62.5771 135.332 71.4948 133.945 79.0286 132.867 80.2586 133.175 85.6399 137.028 88.8686 139.493 93.3274 142.267 95.4799 143.346 97.6324 144.579 100.554 147.507 102.091 149.973L104.859 154.596 107.473 150.743C108.856 148.586 109.933 145.812 109.933 144.733 109.933 143.5 111.009 141.651 112.239 140.572 113.469 139.493 114.545 137.336 114.545 135.795 114.545 134.254 115.775 130.555 117.159 127.627 119.465 122.542 119.465 121.925 117.005 119.151 115.621 117.61 111.316 114.682 107.78 112.679 101.322 109.288 100.861 109.288 97.0174 111.754 91.7899 115.299 85.9474 114.99 82.7186 111.292 80.4123 108.672 79.7973 108.518 77.4911 110.675 76.1073 111.908 72.571 113.295 69.496 113.912 64.576 114.682 63.8072 114.22 61.6546 109.905 59.3483 105.59 58.4258 105.128 51.8145 105.128 37.2082 105.282 20.6031 112.062 18.4506 118.997 17.3743 122.542 28.2907 140.88 40.1295 155.212 42.4357 157.986 42.5895 157.986 41.667 155.52 40.437 151.514 43.0507 147.199 47.6633 146.12 51.6608 145.041 53.0446 140.11 49.8158 138.106 48.5858 137.49 48.5858 136.719 49.8158 135.487 51.9683 133.329 55.9658 138.415 56.1196 143.192 56.1196 145.812 54.5821 147.353 50.7383 148.894 47.817 150.127 45.357 151.822 45.357 152.438 45.357 155.829 57.1958 159.989 66.8823 159.835 72.4173 159.835 77.0298 159.373 77.3373 158.602ZM27.9832 106.052C30.5969 104.665 37.6695 102.97 43.6657 102.045 51.8145 100.967 55.3508 99.5798 58.2721 96.6517 62.7309 92.1826 68.1123 91.7203 74.8773 95.2648 78.8748 97.2681 80.2586 97.4222 83.1799 95.7271 85.7936 94.3402 88.5611 94.1861 92.7124 95.2648 97.3249 96.3435 98.555 97.4222 98.8625 100.659 99.17 103.895 100.707 105.282 105.935 107.285 109.625 108.672 113.93 111.292 115.314 112.833 119.158 117.148 121.618 116.686 123.77 111.446 126.538 104.511 125.308 100.196 119.926 98.6552 117.466 97.8845 109.164 95.2648 101.476 92.799 78.8748 85.402 67.651 84.3233 43.6657 87.2512 24.6006 89.5629 9.53304 93.1072 6.45802 95.8812 5.68927 96.4976 7.38053 101.429 9.9943 106.669L14.7606 116.223 18.9118 112.371C21.2181 110.367 25.2156 107.439 27.9832 106.052ZM94.0962 104.203C94.2499 99.888 93.7887 98.8093 90.7137 98.0386 85.9474 96.8058 83.7949 98.3469 83.7949 102.816 83.7949 111.908 93.6349 113.295 94.0962 104.203ZM74.7236 106.823C78.2598 103.895 78.4136 103.895 75.4923 100.659 73.4936 98.501 70.726 97.4222 66.5748 97.4222 60.1171 97.4222 59.6558 98.501 63.0384 105.128 65.806 110.521 69.6498 110.984 74.7236 106.823ZM88.4074 62.9024C88.4074 51.4986 88.8686 41.1735 89.3299 39.9407 89.9449 38.2454 87.0236 35.9339 79.3361 31.9271 73.3398 28.6908 68.4198 25.1465 68.4198 24.0678 68.4198 21.7561 61.3471 17.7493 59.9633 19.1364 59.5021 19.5987 59.8096 21.7561 60.5784 24.0678 62.5771 29.1533 60.4246 35.1634 56.2733 36.5503 53.8133 37.3208 53.0446 38.862 53.0446 43.3309 53.0446 46.5672 52.5833 56.5841 52.1221 65.5223L51.0458 81.8575 64.7298 82.4739C72.2635 82.628 80.7198 83.0903 83.4874 83.2444L88.4074 83.5526 88.4074 62.9024ZM55.8121 26.9957C56.2733 22.9889 55.5046 21.7561 51.9683 19.7528 41.5132 14.3591 22.2944 14.0508 19.0656 19.1364 17.0668 22.3725 17.3743 23.4512 22.2944 28.2285 26.7531 32.6976 27.0606 32.8517 41.052 32.3894L55.3508 31.9271 55.8121 26.9957ZM98.8625 30.8484C99.9387 29.7697 100.707 26.8416 100.707 24.0678 100.707 17.7493 93.3274 12.6638 84.1024 12.6638 76.8761 12.6638 69.9573 15.2837 69.9573 18.0575 69.9573 21.1397 75.0311 25.7629 82.2574 29.3074 89.9449 33.0058 96.0949 33.6222 98.8625 30.8484Z" fill="#1D3557" fill-rule="evenodd" transform="matrix(1 0 0 -1 1058 866)"/><path d="M2.08992 20.5506C-0.54705 19.6264-0.898646 7.7964 1.56253 6.13285 4.72689 4.09947 7.01226 7.05705 5.07849 10.754 4.0237 12.6024 4.0237 14.6356 4.90269 15.1901 6.48487 16.2991 12.462 10.0145 15.4506 3.91463 17.7359-0.706344 20.9003-1.81552 20.9003 2.25108 20.9003 5.57833 10.704 18.7022 7.18806 20.1809 5.43008 20.7354 3.14471 20.9203 2.08992 20.5506Z" fill="#1D3557" fill-rule="evenodd" transform="matrix(1 0 0 -1 385 722)"/><path d="M3.42297 7.53691C-3.06777 1.33704-0.00269738-1.76276 6.48805 4.26476 12.2576 9.60344 16.0439 8.74239 10.8152 3.2315 7.20924-0.557281 9.55312-1.41834 15.503 1.50925 19.6498 3.74813 20.0104 9.43123 16.0439 10.8089 10.9955 12.7032 7.93043 11.8422 3.42297 7.53691Z" fill="#1D3557" fill-rule="evenodd" transform="matrix(1 0 0 -1 487 716)"/><path d="M4.37502 13.5406C-0.808739 10.8369-1.70249 3.80725 2.94502 0.742957 6.69877-1.60021 9.38002 0.742957 6.52002 3.627 2.58752 7.59237 4.19627 10.4764 10.4525 10.4764 17.245 10.4764 20.2838 12.9998 15.815 14.8024 11.7038 16.4246 9.38002 16.0641 4.37502 13.5406Z" fill="#1D3557" fill-rule="evenodd" transform="matrix(1 0 0 -1 354 761)"/><path d="M4.6861 18.4957C3.95818 17.951 3.41223 14.6829 3.41223 11.4147 3.41223 8.14673 2.6843 4.87858 1.59241 4.33392-0.955333 2.69991-0.591369-0.205125 2.13836-0.205125 5.41403-0.205125 8.87169 7.60207 8.87169 14.3198 8.87169 19.585 7.23385 21.219 4.6861 18.4957Z" fill="#1D3557" fill-rule="evenodd" transform="matrix(1 0 0 -1 426 775)"/><path d="M7.7217 22.6958C7.05973 22.1811 6.56325 17.8921 6.56325 13.2599 6.56325 5.53943 6.23227 4.8532 3.25341 5.88255-0.883883 7.25516-1.38036 2.10825 2.59145 0.392521 8.21817-1.83775 10.7006 2.27981 10.866 13.4314 10.866 23.3821 10.2041 25.4408 7.7217 22.6958Z" fill="#1D3557" fill-rule="evenodd" transform="matrix(1 0 0 -1 451 780)"/><path d="M2.32941 16.4428C-0.435576 11.987-0.988574 5.21427 1.40775 2.00606 3.61974-0.667332 4.35707-0.845558 6.93772 1.11493 10.6244 4.14492 10.993 10.9177 7.30639 9.67007 5.46306 8.95716 4.35707 10.0265 3.9884 13.4128 3.61974 16.0863 2.88241 17.5122 2.32941 16.4428Z" fill="#1D3557" fill-rule="evenodd" transform="matrix(1 0 0 -1 393 775)"/><path d="M0.00287468 9.25211C-0.518674 6.66449 0.176724 3.15258 1.39367 1.48911 3.47986-1.46831 3.65371-0.913824 3.82756 6.10986 3.82756 14.6123 1.21982 16.6454 0.00287468 9.25211Z" fill="#1D3557" fill-rule="evenodd" transform="matrix(1 0 0 -1 500 780)"/><path d="M7.20022 19.519C6.5186 18.6625 5.49617 15.4076 4.98495 12.3238 4.30333 9.41157 2.59928 5.98522 1.23604 4.95736-1.14963 2.9015-0.46801-0.182093 2.25847-0.182093 5.15536-0.182093 9.24508 10.0968 8.73386 15.7502 8.39305 18.8338 7.71143 20.547 7.20022 19.519Z" fill="#FFFFFF" fill-rule="evenodd" transform="matrix(1 0 0 -1 576 789)"/><path d="M7.36231 13.5633C6.65379 10.5878 4.52824 6.56199 2.40268 4.81157-1.84842 0.785908-0.785646-1.31457 4.52824 0.43585 9.31073 1.83608 14.4475 18.8143 10.1964 18.8143 9.31073 18.8143 8.07083 16.3639 7.36231 13.5633Z" fill="#FFFFFF" fill-rule="evenodd" transform="matrix(1 0 0 -1 559 789)"/><path d="M0.393345 14.8182C-0.109556 13.4109-0.27719 9.54061 0.0580778 6.19805 0.393345 1.4483 1.39915 0.216747 4.91946-0.135086 9.78084-0.662836 14.3069 6.02214 12.463 10.9479 11.1219 14.6423 8.1045 12.7072 8.1045 8.13328 8.1045 6.19805 6.93106 4.79072 5.42236 4.79072 3.41075 4.79072 2.90785 6.02214 3.41075 10.0684 4.24892 15.8737 2.06968 19.2163 0.393345 14.8182Z" fill="#1D3557" fill-rule="evenodd" transform="matrix(1 0 0 -1 421 814)"/><path d="M1.16121 21.3476C1.16121 20.6288 4.39095 17.754 8.51783 15.0586 16.0539 10.0274 16.951 6.25417 10.4916 5.35577 8.15897 4.99641 6.00582 6.25417 4.74981 8.59001 3.13494 11.6447 2.05836 12.0041 0.622918 10.3868-0.991951 8.76969-0.274231 7.33225 3.4938 3.91818 9.59441-1.29268 12.6447-1.47236 17.3099 3.19946 21.9751 7.87129 20.1808 12.3634 11.3887 18.293 4.39095 23.1445 1.16121 24.0429 1.16121 21.3476Z" fill="#1D3557" fill-rule="evenodd" transform="matrix(1 0 0 -1 506 832)"/><path d="M145.705 29.5132C142.858 29.6466 138.588 29.1572 130.76 28.1785 123.109 27.2889 119.551 25.8655 117.06 22.6626 112.434 17.1466 112.434 14.6556 117.416 11.4528 127.201 5.22506 142.146 6.11465 150.864 13.4101 157.092 18.7481 157.447 23.3743 152.11 27.1109 149.975 28.6234 148.551 29.3797 145.705 29.5132ZM63.8625 29.958C57.8133 29.958 55.5004 28.8903 50.1629 23.3743L43.5799 16.6128 48.3837 12.6984C54.0771 7.71621 67.5989 7.00448 73.826 11.4528 78.6297 14.8335 78.9856 22.8405 74.5376 26.933 72.5805 28.7123 68.3105 29.958 63.8625 29.958ZM16.5364 90.4555C13.3339 90.4555 4.79381 79.7795 4.79381 75.5091 4.79381 66.9682 15.4689 62.5199 24.5427 67.3241 29.8803 70.3491 28.9906 79.7795 22.9414 85.6513 20.2726 88.3204 17.248 90.4555 16.5364 90.4555ZM195.279 224C198.897 223.992 202.483 222.95 206.019 220.881 207.62 219.947 209.066 219.402 210.278 219.197L210.89 219.272 212.948 217.669C213.519 216.932 213.919 215.911 214 214.352L213.937 212.819 213.208 212.115C212.802 211.412 212.891 210.594 213.403 209.783L213.607 209.61 213.383 208.04C212.945 205.507 212.331 202.661 211.705 199.849L210.778 195.606 209.399 193.657C207.264 189.743 200.681 185.65 199.08 187.252 198.546 187.964 200.148 190.632 202.816 193.302 213.314 204.156 210.111 218.568 197.301 218.568L190.718 218.39 195.7 215.721C200.326 213.23 201.571 209.316 199.436 203.622 198.546 201.486 195.7 200.775 187.871 200.775 182.178 200.775 177.374 200.063 177.374 199.351 177.374 196.86 185.203 190.455 188.939 189.743 191.786 189.387 192.675 187.608 193.031 181.38 193.743 171.772 190.54 150.241 187.515 145.615 184.313 140.455 174.705 137.786 158.693 137.608L144.459 137.608 142.68 119.637C141.791 109.672 139.834 100.42 138.588 98.8186 137.165 97.0391 133.428 96.1495 128.269 96.1495 123.999 96.3274 119.907 95.7936 119.195 95.2598 118.661 94.5481 119.017 90.9893 120.085 87.4307 121.152 83.6941 122.931 69.9932 124.177 56.826L126.312 33.1607 135.741 34.2283C146.416 35.474 152.288 33.6945 157.625 28.0006 162.429 22.8405 162.429 18.7481 157.447 13.588 146.594 2.37819 133.251-0.113036 117.06 5.75886 109.943 8.42795 108.876 8.42795 107.63 5.93672 106.741 4.51332 105.317 3.26779 104.428 3.26779 101.403 3.26779 102.471 7.89415 106.207 11.2748 108.164 13.0542 109.765 15.9011 109.765 17.6804 109.765 19.4599 110.655 21.4171 111.545 21.9509 112.612 22.4847 113.324 24.442 113.324 26.2213 113.324 28.0006 115.103 30.1359 117.416 31.2035 121.33 32.9828 121.508 33.3386 119.907 53.2674 119.017 64.4772 117.416 78.0002 116.348 83.3382 113.857 94.5481 118.128 93.3025 83.2556 92.5907L65.8197 92.2349 65.8197 63.7653C65.8197 39.3884 66.1755 35.2959 68.4884 35.2959 69.9118 35.2959 74.3597 32.0932 78.096 28.0006 84.501 21.2391 85.2127 20.8833 88.949 23.3743 94.2865 26.7552 104.428 26.933 104.428 23.5523 104.428 22.1288 105.317 21.0612 106.385 21.0612 107.452 21.0612 106.029 17.8584 103.182 13.9439 97.8449 6.47052 93.7528 4.69126 93.7528 10.0293 93.5749 12.5204 92.8632 12.1644 89.3048 8.25001 85.2127 3.62365 81.2985 1.66646 81.2985 4.51332 81.2985 5.22506 83.4335 7.89415 86.1023 10.741 88.5932 13.4101 90.3723 16.257 89.6606 16.9687 88.949 17.5025 84.3231 13.9439 79.5194 8.96167 69.9118-1.00271 68.1326-1.8923 66.3534 2.55613 65.6417 4.33539 64.2184 5.04713 62.4392 4.33539 54.255 1.13266 40.3774 10.0293 40.3774 18.0363 40.3774 21.7729 52.1199 33.5166 55.8563 33.5166 60.3042 33.5166 61.7276 40.6339 61.7276 61.8082 61.7276 87.9645 60.4821 92.2349 52.4758 92.2349 41.8008 92.2349 40.9112 94.0143 37.8865 124.263 36.1074 141.345 35.5737 142.946 32.3711 142.412 24.7206 140.989 16.7143 123.907 15.8247 107.003 15.1131 95.4378 15.4689 94.0143 18.3156 94.0143 22.5856 94.0143 31.1257 84.05 32.549 77.4664 34.1503 69.6372 28.6348 63.0537 19.2052 61.8082 10.3093 60.5626 4.79381 63.0537 1.5913 69.8151-1.4333 75.865-0.187865 81.3809 5.68343 88.3204 9.41967 92.7687 10.1314 95.4378 10.1314 104.334 10.1314 121.416 23.1193 147.395 31.6594 147.395 34.5061 147.395 35.0399 149.53 35.3957 167.145 35.9295 186.006 36.1074 187.252 40.3774 190.277 50.6967 197.75 136.453 200.597 136.453 193.479 136.453 192.234 130.226 192.234 119.195 192.946 98.3786 194.725 100.514 194.725 70.8014 191.7 36.9969 188.497 38.4203 190.277 40.5553 152.733 41.9787 124.975 44.8254 100.598 46.7824 97.3949 48.0279 95.0819 109.232 97.5729 120.085 100.242 125.066 101.488 130.938 102.199 132.717 101.665 137.521 100.42 138.054 104.334 139.122 151.665 139.656 174.085 140.545 193.124 141.079 194.013 141.613 194.725 142.858 194.903 143.926 194.369 145.171 193.657 145.349 188.319 144.637 179.423 143.392 166.255 143.57 165.544 147.306 164.654 150.153 163.942 150.864 162.875 149.619 161.273 146.772 157.359 143.214 145.793 144.459 143.836 144.993 142.946 151.932 142.056 159.76 142.056 183.423 142.056 187.515 146.327 188.405 172.305 188.939 184.939 188.761 185.65 184.847 186.184 179.153 187.074 172.037 197.216 172.037 204.689 172.037 209.138 173.46 211.985 177.018 215.365 183.134 221.148 189.25 224.012 195.279 224Z" fill="#EF6F6C" fill-rule="evenodd" transform="matrix(1 0 0 -1 348 930)"/><path d="M831.244 594.804C749.265 594.974 621.207 599.779 581.393 605.759L546.753 610.197C523.66 612.682 521.173 613.392 520.107 617.829 518.864 623.865 515.311 696.464 516.022 703.742 516.11 704.718 516.133 705.628 516.094 706.452L515.84 708.344 516.121 711.06C516.803 719.44 517.233 734.467 517.455 757.585 517.522 764.334 517.862 794.465 519.784 806.017 529.568 810.87 529.054 809.541 562.563 809.003 596.073 808.465 638.771 807.228 720.841 802.79L811.437 798.353 873.789 795.512 893.507 794.448 894.751 779.182C895.461 770.662 897.238 754.509 898.659 743.326 900.257 732.143 902.211 702.5 903.1 677.649 903.988 652.798 905.231 624.93 905.764 616.054 905.688 610.552 905.612 605.049 905.535 599.546L901.856 597.771C896.249 595.608 868.507 594.727 831.244 594.804ZM857.924 590C862.52 590.005 865.529 590.05 866.506 590.139 870.414 590.316 880.539 591.026 889.066 591.559 912.692 592.979 910.561 588.186 909.317 636.645 907.896 684.216 905.409 726.818 902.922 742.438 902.034 748.296 900.79 763.029 900.435 775.099 899.902 787.17 899.014 797.465 898.659 797.82 898.303 798.175 882.849 799.24 864.552 800.128L798.114 803.5 722.617 807.228 644.455 810.956C611.702 811.923 529.143 814.188 517.682 812.222 511.342 811.135 514.847 772.292 512.659 755.613 512.56 722.178 509.6 618.841 517.087 611.617 522.696 606.205 567.537 603.037 587.788 600.434 608.039 597.83 628.29 595.996 638.593 595.996 648.896 595.996 669.503 595.109 684.602 594.044 699.702 593.156 745.177 591.559 785.68 590.849L857.924 590Z" fill-rule="evenodd"/><path d="M2.12053 39.0268C-1.02711 28.6867-1.28942 9.6224 1.85822 7.36031 5.00587 4.77535 7.3666 13.1767 7.3666 26.4249 7.3666 39.0268 10.2519 42.2582 19.4326 39.673 25.4655 37.7343 25.9901 36.1187 25.2032 22.2243 24.4163 9.29902 23.6294 7.03719 18.6456 6.06783 9.20272 4.45223 11.5635-1.68729 21.2687-0.394556 29.6624 0.574802 29.6624 0.574802 30.4493 19.9625 31.4985 41.9351 28.0886 47.4281 13.3996 47.4281 6.31738 47.4281 4.21896 45.8125 2.12053 39.0268Z" fill="#1D3557" fill-rule="evenodd" transform="matrix(1 0 0 -1 1067 1236)"/></g></svg>