<svg width="321" height="548" xmlns="http://www.w3.org/2000/svg" xmlns:xlink="http://www.w3.org/1999/xlink" overflow="hidden"><defs><clipPath id="clip0"><rect x="480" y="86" width="321" height="548"/></clipPath></defs><g clip-path="url(#clip0)" transform="translate(-480 -86)"><path d="M683.586 93.3072C673.892 95.3274 672.101 95.2222 665.631 98.4839 659.162 101.746 650.037 108.122 644.768 112.877 639.5 117.633 637.245 120.958 634.02 127.018 630.796 133.079 627.319 136.782 625.422 149.24 623.526 161.697 628.352 180.889 633.262 188.885 638.172 196.882 638.973 197.913 645.021 201.764 651.069 205.615 658.719 209.066 669.551 211.991 675.157 220.408 668.898 234.612 671.953 238 678.044 236.843 703.438 213.653 706.093 211.864 711.277 212.348 716.715 214.979 726.577 212.874 744.659 211.023 753.72 205.888 765.269 199.238 779.683 189.664 790.178 176.175 788.787 151.639 789.588 144.484 788.029 138.234 785.753 130.049 782.339 122.368 776.733 112.709 769.315 105.933 761.897 99.1572 754.142 93.8754 739.854 89.8983 723.543 86.1736 697.706 88.2569 683.586 93.3072Z" fill="#FFFFFF" fill-rule="evenodd"/><path d="M711.126 134 705.841 140.669 698.543 153.514 692 164.382 701.689 165 730 164.135 726.351 158.454 716.285 139.311 711.126 134Z" fill="#FCC873" fill-rule="evenodd"/><path d="M153.86 52.2476C154.332 52.2476 153.703 51.2225 152.365 49.9608 149.533 47.2796 148.589 47.5162 151.185 50.2761 152.208 51.3802 153.388 52.2476 153.86 52.2476ZM157.318 57.4462C157.475 57.2097 157.082 56.1057 156.374 54.9228 155.587 53.8188 154.8 53.1091 154.564 53.2669 154.407 53.5034 154.8 54.6074 155.587 55.7114 156.295 56.8943 157.082 57.604 157.318 57.4462ZM162.555 71.4331C162.637 71.5181 162.701 71.5083 162.741 71.39 163.134 70.286 161.482 63.7409 160.931 64.2929 160.695 64.4506 161.01 66.3432 161.482 68.4723 161.895 70.0692 162.308 71.1781 162.555 71.4331ZM164.17 95.2188C164.274 95.1509 164.44 94.1196 164.705 92.3453 165.098 89.1121 165.098 84.775 164.705 81.3053 163.997 75.7853 163.997 76.1007 163.997 86.5098 163.997 91.5173 163.997 94.159 164.086 94.9573 164.108 95.1569 164.135 95.2413 164.17 95.2188ZM162.111 106.206C162.504 105.733 163.055 103.682 163.291 101.475 163.763 97.3739 162.897 99.0299 161.875 104.235 161.56 105.89 161.639 106.679 162.111 106.206ZM159.291 111.836C159.477 111.777 159.792 111.403 160.303 110.693 160.933 109.747 161.326 108.485 161.169 107.933 160.933 107.381 160.697 107.539 160.697 108.406 160.618 109.116 160.303 109.747 159.832 109.747 159.438 109.747 159.045 110.378 159.045 111.087 159.045 111.639 159.104 111.896 159.291 111.836ZM97.1663 152.988C100.942 153.056 104.05 152.84 107.511 152.367 113.097 151.499 128.752 146.531 130.797 144.875 131.427 144.402 134.102 142.667 136.698 141.09 139.294 139.513 142.834 136.911 144.565 135.255 148.498 131.627 153.612 125.319 153.612 124.136 153.612 123.663 153.926 123.189 154.32 123.032 155.185 122.716 159.118 114.909 159.118 113.569 159.118 113.017 157.23 115.777 155.028 119.641 151.015 126.58 144.643 133.914 138.192 138.803 131.584 143.85 119.154 148.976 109.242 150.711 94.8457 153.313 66.6821 149.764 45.0481 142.746 39.4626 140.932 26.1674 132.495 20.9753 127.29 9.64696 116.329 2.09467 100.4 1.22933 85.969 0.599934 75.8753 1.93732 68.0685 5.87081 58.6845 10.1976 48.1965 12.3217 45.3577 20.4246 38.7336 23.7287 36.1314 37.8891 30.1382 45.5987 28.0879 46.9361 27.7725 47.6442 20.0445 47.1721 10.7395 46.9361 4.90402 47.0934 2.53827 47.7228 2.53827 50.3189 2.53827 67.2328 15.4709 74.8637 23.3565 78.0104 26.6685 80.9212 29.3497 81.2358 29.3497 81.5505 29.3497 83.36 28.7977 85.248 28.0879 88.0801 27.0628 90.5975 26.984 98.543 27.3783 103.971 27.6148 110.894 28.4034 113.884 29.1131 119.076 30.2171 133.944 36.9988 138.743 40.4685 139.923 41.2571 141.103 41.9668 141.496 41.9668 141.811 41.9668 143.227 42.8342 144.722 44.017 146.138 45.1211 147.318 45.752 147.318 45.5154 147.318 44.017 141.811 40.4685 128.831 33.6868 119.784 28.9554 114.041 27.4571 100.038 26.1166 91.1482 25.2491 89.6535 25.328 85.956 26.5109 81.2358 28.0879 81.9439 28.4822 73.3689 19.8868 71.0089 17.5212 67.6261 14.4457 65.8954 13.184 64.1646 11.9223 62.5913 10.5817 62.3553 10.3452 61.8046 9.71427 49.0601 1.43432 46.9361 0.330292 45.3628-0.537133 45.3628-0.45829 45.6774 10.424 45.9134 16.4171 45.8347 22.568 45.52 24.1451 45.0481 26.5897 44.576 27.0628 41.6653 27.7725 30.8876 30.6114 19.4806 36.6833 13.5804 42.7554 11.2203 45.0422 5.71346 53.9531 5.71346 55.2936 5.71346 55.8456 5.24142 57.0285 4.6121 57.9747 4.06138 58.921 2.72407 63.0216 1.77997 67.0433-0.580106 76.8216-0.580106 88.0192 1.7013 96.7724 3.35339 103.002 10.1189 117.669 11.3776 117.669 11.6923 117.669 12.007 118.143 12.007 118.695 12.007 119.799 20.0313 128.473 23.9647 131.627 27.5048 134.466 34.8998 139.434 38.8332 141.484 44.8907 144.717 68.8061 150.395 82.8092 151.893 88.9454 152.564 93.3902 152.919 97.1663 152.988Z" fill-rule="evenodd" transform="matrix(1 0 0 -1 625 240)"/><path d="M19.2838 31.5609C18.8962 31.014 16.1051 26.3253 13.0814 21.1679 3.77769 5.14838 0.909009 0.537889 0.366335 0.45976-0.021346 0.45976-0.253954 0.225293-0.253954-0.0872231-0.253954-0.946802 38.744-0.32169 39.5969 0.45976 39.9845 0.850485 39.5969 2.25705 38.6665 3.74182 36.3406 7.49265 30.8359 17.3388 28.2774 22.34 26.2616 26.1691 21.4547 32.4986 20.4468 32.4986 20.2917 32.4986 19.749 32.0298 19.2838 31.5609ZM22.5401 28.2008C23.4705 27.1849 25.0211 24.6062 26.1065 22.5744 27.1919 20.5427 28.4324 18.2765 28.8977 17.6513 29.4403 17.0262 31.5337 13.0409 33.627 8.89929L37.5035 1.24121 30.4482 1.24121C26.5717 1.24121 18.7411 1.00674 13.1589 0.694147 7.49919 0.45976 2.84733 0.45976 2.84733 0.772356 2.84733 1.78819 5.94854 7.41452 6.72382 7.88337 7.18904 8.19597 8.58461 10.5403 9.90265 13.1972 11.2981 15.854 13.469 19.8394 14.8646 21.9493 16.1826 24.1373 17.8882 26.7942 18.5861 28.0445 20.2142 30.6232 20.4468 30.6232 22.5401 28.2008Z" fill-rule="evenodd" transform="matrix(1 0 0 -1 691 165)"/><path d="M642 489.422 659.018 495 681.116 490.436 757.57 484.097 764.936 482.829 768.492 475.983 769 468.376 751.474 451.134 735.98 429.835 719.47 406.254 718.454 397.379 719.724 384.194 712.866 356.302 692.8 343.37 679.338 323.339C673.496 324.945 655.97 319.198 654.446 317 651.483 317.93 651.821 328.748 652.922 330.946 653.007 339.06 653.091 347.174 653.176 355.288L651.906 364.416 653.684 378.108 654.446 395.604 657.24 402.197 657.748 418.678 655.716 433.385 648.604 466.094 650.89 477.758 656.986 480.801 642 489.422Z" fill="#DD9524" fill-rule="evenodd"/><path d="M625.562 243 633.824 244.179 636.353 247.885 639.726 256.983 646.301 271.807 661.813 299.098 678 324.031 666.366 323.863 655.069 317.292 653.046 324.199 652.371 335.992 651.865 339.193 653.72 346.437 652.877 363.283 654.395 384.341 654.723 397.64 655.743 397.65 657.767 410.116C657.823 416.181 657.879 422.245 657.935 428.31L648.493 478.175 655.069 478.344 656.418 480.871 654.395 484.745 646.639 485.756 642.086 490.136 620.335 492.495 590.491 493 563.851 487.441 529.623 489.631 508.716 491.484 495.901 490.978 491.012 486.43 490 480.197 495.058 473.627 505.006 458.465 513.943 439.765 536.705 460.655 548.17 462.677 554.24 459.476 558.961 452.906 589.311 422.077 595.887 408.937 602.8 403.209 599.934 397.144 600.382 397.148 595.718 388.721 592.683 388.721 584.422 386.026C580.628 387.458 578.492 400.542 572.787 405.23 566.24 409.582 557.416 414.973 550.194 414.159L557.275 369.853 577.156 355.538 575.148 355.702 565.031 346.774 587.962 309.712 596.224 295.055 606.678 281.073 613.085 272.144 615.109 266.922 620.673 249.065 625.562 243Z" fill="#DE9D30" fill-rule="evenodd"/><path d="M648.685 496.031 664.931 524.429 650.716 579.872 640.562 589 635.993 581.393C636.388 573.9 637.968 566.406 638.363 558.912L637.855 550.798 642.255 528.824 639.209 497.722 648.685 496.031ZM575.579 489.27 590.132 497.046 600.963 504.483 595.548 538.966 596.563 570.068 573.21 580.21 574.563 558.574 574.563 538.628 574.225 507.864 575.579 489.27ZM562.04 443.124 558.994 454.956 549.179 462.394 539.025 462.394 530.733 453.773 549.856 448.026 562.04 443.124ZM521.782 381.682 521.796 382.213C521.831 382.504 521.884 382.684 521.938 382.801L522.064 382.992 521.782 381.682ZM693.277 349.013 698.567 349.539 709.862 353.705 719 367.397 719 391.049 693.17 388.479 693.108 388.188 692.346 381.088 695.393 371.961 697.423 364.101 692.854 355.987 693.277 349.013ZM547.021 348 559.079 372.087 533.06 379.821 522.145 383.37C522.135 383.327 522.126 383.283 522.117 383.239L521.645 384.292C521.263 385.069 520.627 386.365 519.606 388.568 515.524 397.379 511.462 432.284 505.899 440.166 500.335 448.047 490.372 436.743 486.226 435.855 482.08 434.968 480.811 436.764 481.022 434.841 481.234 432.918 485.02 428.587 487.495 424.319 489.97 420.051 494.201 414.895 495.872 409.232 497.543 403.57 495.597 396.492 497.522 390.343 499.447 384.194 504.481 377.454 507.422 372.341 510.362 367.228 512.985 361.438 515.164 359.663 516.253 358.776 517.311 358.396 518.234 358.681 519.157 358.966 519.945 359.917 520.495 361.692L521.144 365.38 532.298 356.114 547.021 348Z" fill="#404040" fill-rule="evenodd"/><path d="M693.005 389.071 718.741 391.622 718.741 392.306C718.826 397.509 718.91 402.712 718.994 407.916L719.5 430.322 714.947 445.68 709.889 460.785 699.013 483.444 690.414 491.5 682.826 487.22 679.033 482.185 679.791 474.129 683.585 470.352 683.838 463.555 687.632 457.512 692.69 456.505 690.414 446.687 688.644 431.833 689.655 424.28 692.185 412.699 696.737 400.866 693.702 392.306ZM543.973 379.886 551.56 385.761C552.797 387.327 552.01 389.901 553.246 391.467 553.499 396.027 547.991 412.056 551.054 414.126 554.117 416.196 570.838 409.426 573.311 405.566 577.471 404.279 576.037 390.041 579.887 389.285L594.22 388.614 601.47 398.852 600.796 405.734 594.894 408.419 591.69 418.49 562.689 443.666 542.961 450.715 527.111 455.582 517.5 435.106 522.39 386.096 524.75 382.907ZM693.196 348.5 698.382 350.406 693.112 349.884Z" stroke="#2F528F" stroke-width="1.33333" stroke-miterlimit="8" fill="#F2CBB2" fill-rule="evenodd"/><path d="M594.625 586.569 591.412 594.619 588.538 600.613 587.861 608.834 590.229 610.547 571.46 615 551.676 612.26 551 603.011 557.256 595.133 566.049 591.707 574.334 587.425ZM643.491 584 657.188 585.199 667.164 586.226 676.802 591.022 679 597.188 677.816 604.039 662.429 605.58 638.588 605.751 638.081 595.475 639.771 587.768Z" fill="#FCC873" fill-rule="evenodd"/><path d="M102.924 5.4108C102.45 5.4108 102.529 4.85995 103.082 4.23043 103.634 3.60083 104.423 3.04998 104.818 3.04998 105.291 3.04998 105.212 3.60083 104.66 4.23043 104.108 4.85995 103.318 5.4108 102.924 5.4108ZM108.744 11.6671C108.191 11.7458 107.816 11.5097 107.816 10.9195 107.816 10.526 108.29 10.1326 108.921 10.1326 109.552 10.1326 110.184 9.66034 110.42 9.18818 110.578 8.63733 111.052 8.40121 111.367 8.71601 111.683 9.03081 111.367 9.81778 110.736 10.526 110.026 11.1949 109.296 11.5884 108.744 11.6671ZM101.03 18.0021C100.004 18.0021 100.162 17.6873 101.74 16.4281 102.845 15.5625 104.108 14.8543 104.581 14.8543 106.001 14.8543 105.607 16.2708 103.95 17.2151 103.082 17.6086 101.819 18.0021 101.03 18.0021ZM116.181 19.576C114.603 19.4973 114.603 19.4185 116.497 18.3955 119.101 16.9003 120.126 16.9003 118.864 18.3955 118.312 19.0251 117.128 19.576 116.181 19.576ZM120.205 21.0908C119.85 21.0515 120.284 20.481 121.705 19.4185 122.967 18.4742 124.467 17.3725 125.019 16.9791 125.65 16.5069 125.966 16.5069 125.966 17.1364 125.966 17.6086 124.782 18.7103 123.441 19.576 121.705 20.6384 120.56 21.1302 120.205 21.0908ZM112.936 23.0288C112.59 23.0582 112.314 22.9599 112.156 22.7238 111.92 22.3303 112.393 21.622 113.261 21.1498 114.129 20.7564 114.997 20.6777 115.234 20.9925 115.392 21.3073 114.918 22.0155 114.129 22.5664 113.695 22.8419 113.281 22.9992 112.936 23.0288ZM134.316 24.7699C134.02 24.6961 133.857 24.5141 133.857 24.219 133.857 23.6681 134.094 23.5107 134.33 23.7468 134.646 24.0616 135.83 23.5894 137.013 22.7238 138.276 21.8581 139.854 21.1498 140.722 21.1498 141.748 21.1498 141.59 21.5433 139.775 22.6451 137.29 24.2387 135.203 24.9912 134.316 24.7699ZM201.01 25.006C200.576 25.1437 200.103 24.888 199.669 24.219 199.116 23.2746 201.405 20.599 202.194 21.3073 202.431 21.622 202.431 22.5664 202.115 23.432 201.839 24.337 201.444 24.8682 201.01 25.006ZM107.106 25.7929 102.45 24.6912C94.4803 22.7238 79.8029 21.8581 75.0682 23.0386 73.9635 23.3534 73.0955 23.1959 73.0955 22.8024 73.0955 22.4877 75.1471 21.7794 77.6723 21.3073 83.275 20.2842 92.0341 20.2055 90.377 21.2286 89.509 21.7794 89.509 21.9368 90.6927 21.9368 91.4028 21.9368 92.0341 21.622 92.0341 21.1498 92.0341 20.2055 98.1892 20.9138 103.555 22.4877 105.922 23.1959 107.58 24.0616 107.58 24.7699 107.58 25.3994 107.343 25.8715 107.106 25.7929ZM178.718 26.4914C177.633 26.6388 176.43 26.5011 176.074 25.9503 175.838 25.4781 176.074 25.0847 176.627 25.0847 177.337 25.0847 177.337 24.8485 176.469 24.2977 175.601 23.7468 176.864 23.5107 180.651 23.5107 185.465 23.5107 187.201 24.219 185.149 25.4781 184.755 25.7142 184.36 25.5568 184.36 25.1633 184.36 24.6912 183.492 24.2977 182.387 24.2977 181.204 24.2977 180.493 24.6912 180.651 25.3207 180.77 25.911 179.803 26.3438 178.718 26.4914ZM110.815 26.5798C108.369 25.8715 107.737 24.2977 109.789 24.2977 110.42 24.2977 110.973 24.8485 110.973 25.4781 110.973 26.1077 110.894 26.6585 110.815 26.5798ZM197.617 28.1538C197.459 28.0751 195.881 27.6816 194.066 27.2094 192.172 26.8159 190.673 26.1077 190.673 25.7142 190.673 25.3207 190.989 25.1633 191.304 25.3994 191.699 25.6355 193.277 25.8715 194.855 26.029 196.591 26.1077 197.775 26.5798 197.775 27.2094 197.775 27.7603 197.696 28.1538 197.617 28.1538ZM245.003 30.731C244.589 30.8688 244.333 30.8688 244.333 30.672 244.333 29.9637 248.12 27.839 248.594 28.3111 248.83 28.4686 247.884 29.2554 246.621 29.9637 245.99 30.3179 245.418 30.5933 245.003 30.731ZM211.979 31.3015C210.953 31.3802 210.953 31.3015 211.979 30.5933 212.61 30.1998 214.031 29.885 215.135 29.885L217.108 29.9637 215.135 30.5933C214.031 30.908 212.61 31.2229 211.979 31.3015ZM129.142 32.1869C128.669 32.0885 128.688 31.5376 129.517 30.5933 130.858 29.0981 133.068 28.4686 133.068 29.4916 133.068 29.8064 132.437 30.5146 131.726 31.0655 130.582 31.9311 129.616 32.2853 129.142 32.1869ZM111.732 34.0166C111.269 33.9772 110.697 33.3083 110.263 32.0098 109.789 30.672 109.552 29.4129 109.789 29.1768 110.499 28.4686 112.551 30.7507 112.551 32.2459 112.551 33.4656 112.196 34.0559 111.732 34.0166ZM200.931 34.1346C200.537 34.3706 200.142 33.8985 200.142 33.0328 200.142 32.0885 200.537 31.3802 200.931 31.3802 201.405 31.3802 201.721 31.8524 201.721 32.482 201.721 33.1115 201.405 33.8985 200.931 34.1346ZM120.531 34.3805C120.541 34.2724 120.876 33.9772 121.547 33.4263 123.362 32.0098 124.388 31.8524 124.388 32.9541 124.388 33.4263 124.072 33.7411 123.677 33.7411 123.283 33.7411 122.257 33.9771 121.468 34.2133 120.837 34.41 120.521 34.4887 120.531 34.3805ZM114.277 34.3904C114.208 34.3314 114.208 34.1346 114.287 33.8198 114.603 32.6393 120.284 29.3342 120.916 29.9637 121.073 30.1998 119.89 30.9867 118.312 31.8524 116.654 32.6393 114.997 33.7411 114.682 34.1346 114.484 34.3707 114.346 34.4494 114.277 34.3904ZM154.926 34.5281C153.348 34.5281 153.348 34.5281 154.768 33.4263 156.426 32.2459 157.925 32.482 157.136 33.8198 156.82 34.2133 155.873 34.5281 154.926 34.5281ZM275.966 35.6298C275.404 35.9052 275.068 35.8659 274.871 35.5511 274.398 34.8428 275.897 33.4263 277.475 33.1115 278.107 32.9541 278.896 32.4033 279.211 31.9311 279.527 31.3802 279.842 31.3015 279.842 31.7737 279.842 32.2459 279.211 33.1115 278.422 33.8198 277.317 34.7642 276.528 35.3544 275.966 35.6298ZM229.339 36.1019C228.077 36.1019 228.393 35.0002 229.971 34.0559L234.469 31.3802 237.625 29.4916 235.652 31.5376C234.548 32.6393 232.89 33.7411 231.944 34.0559 230.918 34.3706 230.129 35.0002 230.129 35.3937 230.129 35.7872 229.813 36.1019 229.339 36.1019ZM143.563 36.8889C141.827 36.8889 141.669 36.7315 142.537 35.7085 143.09 35.0789 144.194 34.5281 144.983 34.5281 145.93 34.5281 146.246 34.9215 146.009 35.7085 145.694 36.338 144.668 36.8889 143.563 36.8889ZM126.745 37.6267C125.828 37.6955 125.177 37.3217 125.177 36.4954 125.177 35.8659 125.729 35.315 126.36 35.315 126.992 35.315 128.254 34.9215 129.122 34.3706 131.411 32.9541 132.042 34.2919 129.911 36.1019 128.846 37.0463 127.663 37.5578 126.745 37.6267ZM134.094 37.6758C130.858 37.6758 130.858 37.361 134.015 35.7872 137.566 33.9771 138.907 34.1346 137.645 36.1019 136.935 37.125 135.751 37.6758 134.094 37.6758ZM278.584 38.8206C278.353 38.9055 278.126 38.8366 277.949 38.5415 277.633 38.0693 277.791 37.6758 278.185 37.6758 278.659 37.6758 279.053 37.0463 279.132 36.338 279.132 35.5511 279.369 35.315 279.527 35.8659 280 36.9282 279.275 38.5661 278.584 38.8206ZM146.325 39.535C146.029 39.5056 146.009 39.2891 146.167 38.8563 146.719 37.4398 148.929 36.6528 149.797 37.5185 150.27 37.9906 149.56 38.6202 148.14 39.0923 147.193 39.4071 146.621 39.5646 146.325 39.535ZM152.954 40.0367C151.77 39.958 151.77 39.8793 153.111 38.8563 154.768 37.5972 155.636 37.8332 154.768 39.1711 154.532 39.6433 153.664 40.0367 152.954 40.0367ZM128.728 40.7449C127.386 40.8237 127.386 40.6663 128.333 40.0367 128.965 39.6433 130.385 39.3284 131.49 39.3284 133.305 39.3284 133.305 39.4071 131.884 40.0367 131.016 40.4302 129.596 40.7449 128.728 40.7449ZM272.378 41.27C272.109 41.2909 271.951 41.2761 271.951 41.2171 271.951 40.4302 276.765 38.6989 277.159 39.3284 277.396 39.7219 277.081 40.1941 276.528 40.3515 274.99 40.8237 273.184 41.2073 272.378 41.27ZM135.83 41.6106C133.778 41.5319 133.62 41.4532 134.883 40.7449 135.988 40.1154 136.619 40.1154 137.25 40.7449 137.881 41.3745 137.487 41.6106 135.83 41.6106ZM142.932 42.3975C140.88 42.3189 140.722 42.2402 141.985 41.5319 143.09 40.9024 143.721 40.9024 144.352 41.5319 144.983 42.1615 144.589 42.3975 142.932 42.3975ZM246.589 42.7911C246.172 42.8551 245.911 42.7911 245.911 42.555 245.911 41.9254 251.592 38.4628 252.539 38.4628 252.855 38.4628 252.46 39.1711 251.671 39.958 250.488 41.2565 247.839 42.5993 246.589 42.7911ZM231.312 43.0271C229.971 42.9484 229.971 42.9484 231.549 42.6337 232.496 42.4762 233.285 41.9254 233.285 41.5319 233.285 41.1384 233.916 40.8237 234.626 40.8237 235.81 40.8237 235.731 40.9811 234.39 42.0041 233.601 42.6337 232.18 43.1058 231.312 43.0271ZM111.131 43.1845C109.789 43.1845 104.265 39.958 103.634 38.8563 103.318 38.2267 102.293 37.6758 101.425 37.6758 100.004 37.6758 99.8464 37.361 100.32 34.2133 100.714 32.0098 100.557 30.5933 100.004 30.2785 99.5307 29.9637 99.1361 30.2785 99.1361 30.9867 99.1361 32.5607 96.6898 37.125 95.664 37.5972 95.2695 37.7545 95.8218 38.3841 96.8477 38.935 98.347 39.7219 98.4259 39.958 97.4001 40.0367 96.6109 40.0367 95.9797 40.4302 95.9797 40.8237 95.9797 41.2959 94.4014 41.6106 92.4287 41.6106 83.8273 41.6106 73.0955 34.5281 73.0955 28.862 73.0955 26.1077 73.1744 26.029 77.1199 25.0847 82.0124 23.9042 92.113 24.5337 100.714 26.5011L106.633 27.839 106.869 32.0098C107.027 34.2133 107.422 36.1019 107.895 36.1019 108.29 36.1019 108.605 37.0463 108.605 38.148 108.605 39.4858 109.079 40.3515 110.184 40.5876 111.052 40.8237 111.762 41.5319 111.762 42.0827 111.762 42.7123 111.446 43.1845 111.131 43.1845ZM147.824 43.4796C147.469 43.4993 147.272 43.3813 147.272 43.1058 147.272 42.1615 149.245 41.3745 150.507 41.768 150.981 41.9254 150.507 42.4762 149.324 43.0271 148.692 43.3026 148.179 43.46 147.824 43.4796ZM162.61 45.6019C161.796 45.8454 160.095 43.1452 159.503 39.958 159.03 37.5185 159.187 37.2037 161.397 36.338 162.738 35.8659 163.843 35.0789 163.843 34.6067 163.843 33.4263 162.028 33.505 160.845 34.6854 160.134 35.3937 159.819 35.2363 159.424 34.2919 158.556 32.0885 161.002 30.672 166.684 30.1998 169.683 29.9637 174.812 29.4129 178.047 29.0194 182.545 28.4686 185.544 28.6259 190.752 29.5702L197.617 30.7507 197.617 33.8198C197.696 35.5511 197.38 36.8889 196.907 36.8889 196.512 36.8889 196.197 37.7545 196.197 38.6989 196.197 41.6893 193.514 43.4993 188.7 43.7354 186.254 43.8141 184.36 43.578 184.36 43.1845 184.36 42.7123 183.729 42.3975 182.861 42.3975 182.072 42.3975 180.572 41.2959 179.547 39.958 178.521 38.6202 177.179 37.0463 176.706 36.4954 176.153 35.8659 175.68 34.5281 175.68 33.4263 175.68 31.2229 174.97 30.8294 173.47 32.3246 172.05 33.7411 172.287 35.9446 174.102 38.935 175.996 41.9254 175.285 42.7123 171.419 41.9254 169.367 41.6106 168.262 41.768 167.315 42.7123 166.605 43.4993 165.421 43.8141 164.553 43.578 163.528 43.2632 163.054 43.4206 163.054 44.2863 163.054 45.1126 162.881 45.5208 162.61 45.6019ZM180.109 46.0077C179.764 45.8995 179.625 45.6241 179.625 45.1519 179.625 44.5223 179.31 43.9715 178.836 43.9715 178.442 43.9715 178.047 43.578 178.047 43.1058 178.047 42.7123 178.836 42.8697 179.783 43.4993 180.73 44.2075 182.23 44.7584 183.098 44.7584 183.966 44.7584 184.439 44.9158 184.281 45.0732 184.123 45.2306 183.019 45.5454 181.835 45.8601 181.006 46.0569 180.454 46.1159 180.109 46.0077ZM204.534 46.6804C204.241 46.5193 204.088 46.1947 204.088 45.7028 204.088 43.4993 206.692 41.5319 209.296 41.768 210.559 41.8467 212.058 41.6893 212.61 41.2959 214.662 40.0367 213.399 41.6106 210.637 43.8141 207.56 46.175 205.415 47.1636 204.534 46.6804ZM194.254 47.8472C193.869 47.8275 193.987 47.4735 194.855 46.8045 196.276 45.7028 196.276 45.7028 194.855 45.388 193.829 45.1519 194.224 44.7584 196.355 43.9715 197.933 43.4206 199.432 42.3189 199.59 41.5319 199.984 40.1154 203.299 39.7219 203.299 41.0597 203.299 41.768 199.195 45.4666 196.67 46.8832 195.526 47.5522 194.638 47.867 194.254 47.8472ZM159.503 49.7949C158.793 50.031 158.319 49.7949 158.319 49.0867 158.319 48.4571 158.872 47.9062 159.503 47.9062 160.134 47.9062 160.687 48.221 160.687 48.6145 160.687 49.008 160.134 49.4801 159.503 49.7949ZM162.265 66.0061C161.87 66.0061 161.476 65.6127 161.476 65.1405 161.476 64.747 161.081 64.5896 160.529 64.9044 159.977 65.2192 159.898 65.1405 160.213 64.5896 161.002 63.2518 163.054 63.4091 163.054 64.8257 163.054 65.4552 162.738 66.0061 162.265 66.0061ZM105.054 67.1865C103.082 67.1865 101.503 66.9505 101.503 66.7144 101.503 66.3996 100.714 66.0061 99.7674 65.6914 98.347 65.3765 98.1892 65.0617 98.9783 64.2748 99.6885 63.5666 100.162 63.4879 100.557 64.1174 100.872 64.5896 102.766 65.2192 104.897 65.5339 106.948 65.8487 108.605 66.3209 108.605 66.6357 108.605 66.9505 107.027 67.1865 105.054 67.1865ZM168.894 70.7279C168.262 70.7279 167.789 70.3344 167.789 69.8622 167.789 69.3113 166.447 69.0752 164.238 69.3113 162.265 69.4687 160.687 69.3113 160.687 68.9966 160.687 68.6031 161.87 68.367 163.291 68.367 164.632 68.367 166.605 68.1309 167.473 67.8948 168.736 67.58 169.288 67.8948 169.604 69.0752 169.84 70.1769 169.604 70.7279 168.894 70.7279ZM109.444 96.6776C108.941 96.5792 108.171 96.1464 107.501 95.4381 106.791 94.8085 106.238 94.0216 106.238 93.8642 106.238 93.3134 109.237 95.0447 109.789 95.9103 110.184 96.5399 109.947 96.7759 109.444 96.6776ZM168.086 97.4449C167.32 97.9465 166.566 95.7923 166.921 92.8411 167.079 92.2903 166.763 92.0542 166.289 92.369 165.737 92.6838 165.421 92.0542 165.421 90.8738 165.421 89.772 165.027 88.8277 164.553 88.8277 164.159 88.8277 163.922 89.1425 164.238 89.536 164.475 89.9295 164.317 90.4803 163.922 90.7164 162.738 91.4246 162.107 88.5917 163.212 87.6473 164.475 86.7029 164.553 81.5877 163.37 80.0926 162.817 79.463 162.186 77.7317 161.87 76.2365 161.397 73.9543 161.476 73.6395 162.344 74.5052 162.896 74.9774 163.685 75.4496 164.001 75.4496 165.185 75.4496 164.317 71.1213 163.054 70.5704 162.186 70.0983 162.265 70.0196 163.449 70.1769 164.396 70.2556 165.106 71.0426 165.264 72.1443 165.421 73.2461 166.289 74.033 167.473 74.3478 168.736 74.6626 169.288 75.2921 169.051 75.9217 168.815 76.5512 168.972 77.0234 169.367 77.0234 169.84 77.0234 170.156 78.44 170.156 80.2499 170.156 83.0042 170.393 83.3977 171.577 82.9256 172.602 82.5321 172.681 82.6107 171.971 83.3977 171.261 84.0273 171.261 84.8143 171.813 85.8373 172.997 88.0407 173.155 93.5494 172.05 93.5494 171.498 93.5494 170.866 94.0216 170.708 94.5725 170.393 95.3594 170.235 95.3594 170.235 94.5725 170.156 94.0216 169.367 93.6281 168.42 93.6281 167.157 93.7068 167 93.8642 167.868 94.1003 168.736 94.3364 169.051 94.9659 168.815 95.989 168.598 96.8153 168.341 97.2777 168.086 97.4449ZM101.425 97.4842C98.6627 97.4842 98.5048 97.3268 98.0313 94.179 97.5579 91.2673 97.4001 85.3651 97.7158 80.9582 97.7946 80.3286 97.7158 78.676 97.7158 77.2595 97.5579 75.2134 97.3212 74.82 96.2164 75.2134 95.1117 75.6856 95.0328 75.2134 95.4273 71.9082 95.9797 68.2883 96.9266 66.793 98.7416 66.793 99.215 66.793 98.9783 67.1865 98.347 67.58 97.3212 68.2096 97.4001 68.367 98.5838 68.367 99.3728 68.367 99.8464 68.6818 99.5307 69.0752 98.8993 70.0983 108.053 69.7834 108.763 68.7604 109.158 68.2883 109.395 68.2883 109.395 68.9178 109.395 70.1769 108.448 70.6491 105.528 70.8852 104.186 70.9639 103.082 71.4361 103.082 71.987 103.082 72.5378 104.108 72.7739 106.08 72.5378 108.684 72.223 109.237 72.4591 110.026 74.1904 110.815 75.9217 110.736 76.2365 109.71 76.2365 108.842 76.2365 108.527 76.7087 108.842 77.8104 109.316 79.6991 108.448 79.7778 105.844 78.1252 103.95 76.8661 103.871 76.8661 103.871 78.9908 103.871 80.8008 104.186 81.0369 105.528 80.7221 107.422 80.1713 108.605 82.296 106.948 83.3977 106.001 84.0273 106.08 84.3421 107.185 85.129 108.448 86.1521 108.369 86.3095 106.791 87.6473 105.686 88.5917 105.449 89.2212 106.08 89.4573 106.633 89.6147 107.027 90.4016 107.027 91.1098 107.027 92.369 106.475 92.4477 103.082 92.1329 99.215 91.8181 99.1361 91.8181 99.1361 93.8642 99.1361 95.2807 99.5307 95.9103 100.557 95.9103 101.267 95.9103 102.45 96.3038 103.082 96.6972 103.95 97.2481 103.555 97.4842 101.425 97.4842ZM100.793 100.868C99.9253 101.104 98.8205 100.789 98.2681 100.16 97.5579 99.2942 97.6368 99.0581 98.8205 99.0581 99.6885 99.0581 100.793 99.3729 101.346 99.7664 102.214 100.239 102.056 100.475 100.793 100.868ZM165.668 107.006C165.579 106.81 165.5 106.259 165.421 105.354 165.264 102.757 165.264 102.678 164.553 104.567L163.922 106.534 164.08 104.567C164.238 103.072 164.632 102.678 165.816 102.835 167.868 103.229 168.341 103.701 167.236 104.409 166.763 104.724 166.211 105.669 165.974 106.534 165.855 107.046 165.757 107.203 165.668 107.006ZM97.765 111.374C97.6171 111.236 97.5579 110.823 97.5579 110.075 97.5579 108.58 97.7946 108.423 98.5048 109.131 99.215 109.839 99.215 110.311 98.5048 111.02 98.1497 111.374 97.9131 111.512 97.765 111.374ZM114.504 113.813C114.07 113.813 113.182 113.695 111.92 113.459 110.42 113.145 110.263 112.908 111.052 111.964 111.604 111.256 111.683 110.862 111.131 110.862 110.657 110.862 110.026 111.256 109.789 111.649 109.552 112.122 108.527 112.436 107.58 112.436 106.159 112.436 106.001 112.279 107.027 111.571 107.974 110.862 107.895 110.784 106.475 111.098 105.449 111.335 104.66 111.177 104.66 110.784 104.66 110.39 105.607 109.997 106.869 109.997L109 109.918 106.633 109.367C104.502 108.895 104.265 108.659 104.502 106.141 104.66 104.645 105.212 103.072 105.765 102.599 106.317 102.206 106.948 101.262 107.264 100.632 107.58 99.7664 107.816 99.845 108.211 101.262 108.527 102.206 109.158 102.993 109.552 102.993 110.105 102.993 110.184 104.252 109.868 106.141 109.395 108.974 109.552 109.367 111.367 110.233 112.472 110.705 113.34 111.571 113.34 112.122 113.34 112.672 113.814 113.302 114.366 113.459 114.918 113.695 114.938 113.813 114.504 113.813ZM167.493 114.384C167.138 114.389 166.842 114.325 166.684 114.168 165.658 113.223 166.289 112.436 168.183 112.436 169.288 112.436 170.156 112.751 170.156 113.145 170.156 113.735 168.558 114.369 167.493 114.384ZM164.879 124.811C164.731 124.752 164.553 124.359 164.317 123.611 164.001 122.588 163.843 121.565 164.08 121.407 164.632 120.857 167 121.958 167 122.824 167 123.218 166.684 123.375 166.289 123.06 165.895 122.824 165.421 123.296 165.264 124.004 165.145 124.595 165.027 124.87 164.879 124.811ZM164.751 129.71C164.376 129.69 163.922 129.513 163.607 129.198 163.291 128.962 163.054 128.175 163.054 127.624 163.054 126.68 163.291 126.68 164.238 127.703 164.869 128.333 165.421 129.041 165.421 129.277 165.421 129.592 165.126 129.73 164.751 129.71ZM103.696 134.18C103.313 134.176 103.003 134.097 102.845 133.92 101.898 132.976 102.293 132.267 104.029 131.874 105.686 131.402 105.686 131.323 104.423 129.907 103.713 129.12 103.082 127.546 103.082 126.365 103.082 124.791 102.766 124.398 101.74 124.791 100.635 125.264 100.557 124.87 101.03 121.801 101.346 119.912 102.056 117.394 102.608 116.214 103.555 114.325 103.555 114.01 102.371 113.695 101.661 113.459 102.529 113.459 104.265 113.695 108.842 114.325 114.761 117.079 113.419 117.866 112.551 118.417 112.63 118.811 113.971 119.598 116.181 120.935 115.471 124.555 112.472 127.782 111.21 129.12 110.184 130.615 110.184 131.166 110.184 131.717 109.473 132.11 108.684 132.11 107.816 132.11 107.027 132.425 106.869 132.818 106.633 133.527 104.842 134.191 103.696 134.18ZM96.2461 140.727C96.177 140.471 96.1375 139.94 96.1375 139.193 96.1375 137.697 96.2953 137.068 96.5321 137.855 96.6898 138.563 96.6898 139.822 96.5321 140.609 96.4137 140.963 96.3151 140.983 96.2461 140.727ZM153.052 141.386C151.79 141.416 149.324 141.042 144.51 140.294 140.643 139.665 135.909 139.271 134.015 139.35 130.069 139.665 130.464 140.294 128.728 128.569 128.018 123.847 126.755 117.866 125.966 115.348 125.098 112.83 124.23 109.525 123.914 108.029 123.599 106.455 122.967 105.039 122.415 104.882 120.679 104.173 120.205 101.419 119.969 90.4016 119.653 78.8335 119.337 74.1117 118.627 72.3017 118.39 71.6722 117.996 67.9735 117.759 64.0387 117.522 60.1827 117.128 56.1692 116.812 55.3035 116.575 54.3592 116.733 52.3131 117.207 50.6606 117.917 48.1423 117.759 47.3554 116.497 45.4666 114.524 42.791 114.366 37.2824 116.181 36.5742 118.075 35.8659 118.154 35.9446 117.128 37.6758 116.575 38.4628 116.339 39.4071 116.575 39.6433 117.365 40.3515 123.046 40.4302 125.019 39.7219 126.676 39.1711 126.834 39.2498 126.36 40.7449 125.887 42.2402 126.203 42.3975 129.28 42.3975 131.411 42.3975 132.279 42.6337 131.647 43.1058 129.596 44.365 133.068 44.8371 135.435 43.578 136.698 42.9484 138.355 42.3975 139.144 42.4762 140.012 42.4762 140.17 42.7123 139.539 42.9484 139.065 43.1058 138.749 43.6567 138.986 43.9715 139.223 44.365 139.933 44.5223 140.564 44.2075 141.275 43.9715 142.222 44.2075 142.774 44.601 144.51 46.0176 152.085 45.6241 155.005 43.8928 156.426 43.1058 157.767 42.3975 158.004 42.3975 158.951 42.3975 158.083 44.1288 155.952 46.4897 154.453 48.1423 153.664 49.6375 153.979 50.4245 154.216 51.2114 154.611 52.5492 154.847 53.4149 155.163 54.3592 155.005 54.9888 154.453 54.9888 153.032 54.9888 153.506 58.6088 155.636 63.9601 157.688 69.0752 157.688 69.1539 156.82 80.3286 155.952 91.4246 156.268 94.4937 158.556 98.1138 159.819 100.081 159.977 105.983 158.872 108.659 157.215 112.515 154.374 132.661 154.374 140.058 154.374 140.924 154.315 141.357 153.052 141.386ZM201.642 149.423C201.247 149.423 200.931 149.108 200.931 148.636 200.931 148.243 201.326 147.849 201.799 147.849 202.194 147.849 202.352 147.534 202.115 147.062 201.799 146.59 203.22 146.275 205.824 146.275 208.823 146.275 209.691 146.511 208.823 147.062 208.191 147.456 206.692 147.849 205.508 147.849 204.325 147.849 203.141 148.243 202.904 148.636 202.667 149.108 202.115 149.423 201.642 149.423ZM208.428 150.131C207.244 150.131 207.402 149.895 209.217 149.108 211.742 148.006 213.084 148.243 211.19 149.423 210.559 149.895 209.296 150.21 208.428 150.131ZM200.754 152.04C200.241 152.079 199.866 152.02 199.748 151.863 199.432 151.233 204.167 150.053 204.719 150.603 204.877 150.682 203.851 151.154 202.589 151.626 201.918 151.863 201.267 152 200.754 152.04ZM283.472 153.358C282.841 153.358 282.052 153.043 281.815 152.571 281.579 152.177 281.894 151.784 282.526 151.784 283.157 151.784 283.946 152.177 284.183 152.571 284.419 153.043 284.104 153.358 283.472 153.358ZM202.194 154.853C201.089 154.853 200.931 154.696 201.721 154.381 202.352 154.145 203.614 153.594 204.482 153.122 205.903 152.413 205.982 152.413 204.956 153.594 204.403 154.381 203.141 154.932 202.194 154.853ZM205.577 163.441C204.995 163.214 204.127 162.486 202.904 161.227 201.168 159.417 200.931 158.866 201.957 158.866 202.667 158.866 203.299 159.417 203.299 160.047 203.299 160.676 203.851 161.227 204.482 161.227 205.114 161.227 205.666 160.676 205.666 160.047 205.666 159.417 206.376 158.866 207.244 158.866 208.112 158.866 208.823 159.26 208.823 159.653 208.823 160.126 208.27 160.44 207.639 160.44 207.008 160.44 206.534 160.676 206.534 161.07 206.613 161.385 206.613 162.093 206.534 162.644 206.455 163.391 206.159 163.667 205.577 163.441ZM283.078 167.523C281.579 167.523 282.131 165.319 284.025 163.824 285.603 162.644 285.84 161.778 285.761 158.473 285.603 155.876 285.761 155.089 286.234 156.112 287.812 160.047 286.392 165.949 283.867 165.949 283.315 165.949 283.157 166.342 283.393 166.736 283.63 167.208 283.472 167.523 283.078 167.523ZM74.5159 180.458C74.0029 180.37 73.2928 179.485 72.622 177.832 71.754 175.707 70.7281 174.448 69.1499 173.897 65.2044 172.559 59.2071 175.078 57.9445 178.619 57.7078 179.248 57.2343 179.485 56.9187 179.17 55.8929 178.147 58.418 173.897 60.9431 172.559 62.9949 171.458 63.9418 171.379 67.2561 172.166 71.8329 173.268 75.0682 175.786 75.2261 178.304 75.3444 179.839 75.0289 180.547 74.5159 180.458ZM60.2724 180.852C59.8778 180.842 59.6805 180.586 59.6805 180.114 59.6805 179.091 61.89 178.147 62.6792 178.855 62.916 179.17 62.6792 179.721 62.0479 180.114 61.2588 180.626 60.667 180.862 60.2724 180.852ZM77.9683 187.147C77.5737 187.079 77.0411 186.725 76.4887 186.095 75.9362 185.465 75.1471 184.836 74.5947 184.678 74.0424 184.521 73.8056 183.891 73.9635 183.341 74.2002 182.632 74.9104 182.868 76.4887 184.049 77.6723 184.993 78.6192 186.095 78.6192 186.488 78.6192 187 78.3628 187.216 77.9683 187.147ZM233.068 189.135C232.831 189.223 232.378 188.338 231.865 186.41 231.47 184.678 231.391 183.262 231.786 183.262 232.101 183.262 232.654 184.521 232.969 186.016 233.324 187.984 233.305 189.046 233.068 189.135ZM235.347 193.168C235.199 193.276 234.824 192.863 234.232 191.918 233.758 191.131 233.601 190.266 233.995 190.03 234.39 189.794 234.863 190.344 235.1 191.289 235.416 192.43 235.495 193.06 235.347 193.168ZM22.839 196.512C22.6911 196.522 22.5135 196.325 22.2767 195.932 21.8822 195.302 22.04 194.594 22.6713 194.201 24.0128 193.335 25.7488 193.256 24.4862 194.122 24.0128 194.437 23.4604 195.224 23.2237 195.853 23.1053 196.286 22.9869 196.502 22.839 196.512ZM231.865 198.263C231.628 197.978 231.273 196.994 230.681 195.145 229.892 192.863 229.418 190.738 229.655 190.502 229.892 190.266 230.129 190.659 230.129 191.367 230.129 191.997 230.681 193.178 231.391 193.807 232.022 194.515 232.496 196.01 232.338 197.191 232.22 198.135 232.101 198.548 231.865 198.263ZM3.33806 200.575C2.07547 200.575 1.28639 199.788 1.28639 198.45 1.28639 196.797 3.41697 197.27 3.89047 199.001 4.12714 199.945 3.89047 200.575 3.33806 200.575ZM236.363 206.87C236.047 206.87 235.731 204.982 235.81 202.778 235.889 200.496 235.652 197.821 235.337 196.876 235.021 195.774 235.1 195.066 235.573 195.066 236.757 195.066 237.231 197.27 237.152 202.385 237.073 204.824 236.757 206.87 236.363 206.87ZM11.8605 209.202C11.7421 209.212 11.5843 208.877 11.3081 208.208 10.4401 205.926 10.5979 204.824 11.6237 205.847 12.0972 206.32 12.3339 207.343 12.1761 208.13 12.0578 208.838 11.9789 209.192 11.8605 209.202ZM9.72495 210.066C9.28108 210.52 8.34894 209.015 7.99381 206.713 7.75706 204.824 7.36256 202.306 7.12581 200.968 6.81015 199.08 6.88906 198.844 7.59923 199.945 8.07273 200.732 8.46731 202.542 8.54623 204.116 8.62507 205.69 8.94073 207.107 9.33531 207.343 9.65098 207.579 9.96657 208.287 9.96657 208.917 9.96657 209.546 9.87287 209.915 9.72495 210.066ZM236.678 216.039C236.614 216.019 236.56 215.802 236.52 215.37 236.52 214.583 236.205 213.953 235.81 213.953 235.494 213.953 235.258 212.536 235.258 210.884 235.258 209.153 235.494 208.13 235.731 208.602 236.047 209.074 236.599 209.231 236.994 208.995 237.388 208.759 237.546 209.861 237.388 211.435 237.152 214.386 236.871 216.098 236.678 216.039ZM243.307 218.675C242.123 218.675 241.65 215.999 241.492 208.995 241.413 204.274 240.939 200.181 240.229 198.371 238.572 194.437 237.467 190.502 236.757 187.039 236.52 185.387 235.968 184.049 235.652 184.049 235.337 184.049 234.863 182.554 234.548 180.744 234.232 178.934 233.601 177.124 233.048 176.809 232.022 176.179 231.786 169.805 232.733 166.5 233.206 164.769 233.127 164.296 232.338 164.532 231.075 165.005 229.339 161.227 230.129 159.653 231.47 156.899 231.786 153.987 230.76 154.302 230.207 154.538 229.497 155.719 229.261 156.978 228.787 159.103 228.708 159.103 228.629 156.348 228.629 154.696 228.235 153.358 227.761 153.358 227.367 153.358 226.972 152.807 226.972 152.099 226.972 151.39 226.262 149.816 225.394 148.636L223.816 146.433 228.708 146.826C231.47 146.983 236.205 147.534 239.203 147.928 242.281 148.321 251.513 148.872 259.72 149.187 268.164 149.502 273.687 149.974 272.346 150.289 271.083 150.603 270.61 150.839 271.32 150.918 272.03 150.918 272.74 151.39 272.898 151.941 273.056 152.413 274.319 152.807 275.739 152.807 277.87 152.807 278.264 153.122 278.264 154.617 278.264 155.876 277.712 156.506 276.528 156.663 274.161 156.978 274.003 159.417 276.37 159.968 278.975 160.676 279.527 160.204 280.158 157.135 280.71 154.696 280.789 154.617 281.815 156.033 282.447 156.899 282.999 157.135 282.999 156.584 282.999 156.033 283.393 155.876 283.867 156.112 284.419 156.506 284.104 157.214 283.078 158.158 282.21 159.024 281.658 160.204 281.894 160.834 282.289 161.699 281.815 162.014 280.316 162.014 278.264 162.014 278.264 162.093 279.527 163.982 280.71 165.792 280.71 165.949 279.527 165.949 278.817 165.949 278.264 166.342 278.264 166.815 278.264 167.287 278.975 167.523 279.842 167.287 281.736 166.815 281.815 167.051 280.158 168.703 279.053 169.726 278.659 169.805 278.185 168.939 277.633 168.152 277.317 168.152 276.528 168.939 275.739 169.726 275.897 170.041 277.317 170.356 278.264 170.671 278.817 171.143 278.659 171.536 278.422 171.851 277.317 171.851 276.291 171.458 275.029 170.985 274.319 170.985 274.319 171.458 274.319 171.93 274.792 172.245 275.345 172.245 275.976 172.245 275.897 172.559 275.108 173.032 274.161 173.661 274.161 173.818 275.029 173.818 275.897 173.818 275.897 174.055 275.108 174.999 274.555 175.629 272.977 176.179 271.557 176.179 267.296 176.179 266.428 176.809 267.296 179.091 268.322 181.767 267.611 183.655 264.77 185.623 263.508 186.567 262.482 187.826 262.482 188.456 262.482 190.108 258.852 193.571 257.59 193.099 257.037 192.863 256.011 193.02 255.38 193.492 254.433 194.043 254.433 194.437 255.222 195.224 256.879 196.876 256.327 199.394 253.802 200.811 252.539 201.598 251.435 202.778 251.435 203.408 251.435 204.037 251.119 204.51 250.645 204.51 250.251 204.51 249.856 205.139 249.856 205.926 249.856 206.713 248.988 207.893 247.884 208.444 246.779 208.995 245.911 209.94 245.911 210.569 245.911 211.12 245.437 211.592 244.806 211.592 243.622 211.592 242.518 215.606 243.228 217.494 243.543 218.124 243.543 218.675 243.307 218.675ZM119.258 230.479C118.627 230.479 118.075 229.928 118.075 229.299 118.075 228.669 117.759 228.118 117.286 228.118 116.891 228.118 116.497 227.725 116.497 227.331 116.497 226.859 117.365 227.095 118.469 227.803 119.574 228.512 120.442 229.377 120.442 229.771 120.442 230.164 119.89 230.479 119.258 230.479ZM236.441 234.414C236.047 234.414 235.652 233.155 235.652 231.659 235.652 230.086 235.258 228.905 234.705 228.905 234.232 228.905 234.074 228.669 234.39 228.354 235.258 227.489 237.231 230.479 237.231 232.604 237.231 233.627 236.915 234.414 236.441 234.414ZM20.373 242.382C20.1462 242.224 19.87 241.89 19.5937 241.418 18.3312 239.45 18.8047 238.585 20.225 240.237 20.6985 240.946 21.0142 241.811 20.8563 242.283 20.7774 242.519 20.5999 242.539 20.373 242.382ZM236.52 243.07C235.494 243.07 235.494 242.913 236.363 242.362 237.073 241.89 237.152 241.575 236.52 241.103 235.968 240.788 235.179 240.946 234.626 241.339 234.074 241.732 229.418 242.283 224.131 242.441L214.583 242.834 215.214 240.788C217.818 232.21 217.818 232.368 216.003 226.78 215.057 223.869 213.557 219.855 212.61 218.045 211.269 215.212 211.111 213.717 211.505 209.94 211.9 206.162 211.742 205.139 210.795 204.824 210.164 204.51 209.612 203.408 209.612 202.227 209.691 200.103 211.742 191.053 213.952 183.262 215.451 177.989 215.293 173.268 213.557 173.661 210.006 174.527 208.823 174.527 208.823 173.897 208.823 173.425 209.454 172.717 210.243 172.245 211.111 171.694 211.19 171.458 210.401 171.694 209.138 172.008 207.244 170.513 207.244 169.175 207.244 168.703 206.692 168.31 206.061 168.31 204.403 168.31 204.561 167.602 206.692 165.949 207.639 165.162 209.138 163.195 210.006 161.621 211.348 159.103 211.348 158.552 210.401 157.765 209.77 157.293 209.138 155.876 209.059 154.538 208.98 152.728 209.138 152.492 209.691 153.594 210.164 154.302 210.243 155.325 210.006 155.719 209.77 156.191 210.006 156.506 210.637 156.506 211.269 156.506 212.374 157.214 213.163 158.079 213.952 158.945 214.978 159.575 215.451 159.417 216.398 159.103 218.292 162.329 218.292 164.218 218.292 165.083 218.765 164.847 220.107 163.431L221.922 161.463 222.869 165.398C223.342 167.602 224.289 169.962 224.999 170.592 225.631 171.379 225.946 172.638 225.631 173.661 225.394 174.684 225.552 175.392 226.104 175.392 226.656 175.392 226.814 176.258 226.577 177.596 226.262 179.327 226.499 179.091 227.761 176.573L229.418 173.425 228.866 176.966C228.629 178.934 228.077 180.822 227.682 181.216 226.735 182.239 226.814 184.049 227.761 184.049 228.235 184.049 228.55 183.419 228.55 182.711 228.55 180.586 229.892 182.554 230.444 185.465 230.76 187.354 230.602 188.141 229.734 188.456 228.945 188.771 228.55 190.108 228.55 192.469 228.55 194.358 228.866 195.774 229.261 195.538 229.892 195.145 230.286 197.742 231.391 211.435 231.628 214.11 232.18 216.314 232.575 216.314 232.969 216.314 233.285 216.865 233.285 217.573 233.285 218.203 232.969 218.517 232.496 218.281 231.391 217.573 231.549 218.439 232.89 220.485 233.916 222.059 233.916 222.531 232.89 224.419 232.259 225.6 231.944 227.095 232.259 227.725 232.496 228.354 232.259 228.905 231.786 228.905 230.839 228.905 229.182 226.151 229.813 225.521 230.05 225.285 229.892 224.419 229.418 223.633 228.945 222.846 228.55 222.688 228.55 223.239 228.55 224.341 225.394 224.577 225.394 223.396 225.394 222.846 224.763 222.924 223.658 223.475 222.632 224.026 221.764 224.341 221.606 224.262 221.448 224.105 221.212 224.183 221.054 224.341 220.975 224.498 221.527 225.285 222.316 226.072 223.184 226.938 223.816 227.174 223.816 226.702 223.816 226.151 224.21 225.757 224.605 225.757 225.078 225.757 225.394 226.308 225.394 226.938 225.394 227.567 225.867 228.118 226.42 228.118 227.051 228.118 228.314 228.984 229.261 230.007 230.76 231.581 230.918 232.368 230.444 235.909 230.05 239.057 230.129 239.922 230.997 240.001 231.628 240.08 231.233 240.395 230.129 240.709L228.156 241.339 230.286 241.418 232.417 241.496 232.101 236.224C231.786 231.345 231.865 231.109 232.654 233.627 233.443 235.909 233.601 236.066 233.837 234.65 234.153 233.076 234.232 232.997 235.573 234.256 236.363 234.965 236.836 236.066 236.599 236.617 236.441 237.089 236.599 237.562 236.994 237.562 237.388 237.562 237.783 238.821 237.783 240.316 237.783 242.283 237.388 243.07 236.52 243.07ZM22.1189 246.975C22.0005 246.966 21.8427 246.612 21.5665 245.903 20.9352 244.408 21.4087 243.228 22.2767 244.093 22.5134 244.329 22.5923 245.195 22.4346 245.982 22.3162 246.651 22.2373 246.985 22.1189 246.975ZM39.3117 250.113C38.8876 250.035 38.3351 249.602 38.0589 248.894 37.7433 248.107 37.98 247.792 38.5324 247.949 39.0059 248.107 39.6372 248.736 39.795 249.208 40.0318 249.917 39.7358 250.192 39.3117 250.113ZM53.5773 251.373C52.406 251.412 51.3752 251.353 50.6058 251.176 49.7378 251.018 47.8439 250.468 46.4235 249.995 43.7405 249.208 43.7405 249.13 44.2929 245.667 44.6085 243.542 44.5296 241.89 44.0562 241.575 42.4779 240.631 40.8209 228.984 40.3474 215.606 39.795 201.991 39.8739 201.755 42.0045 195.145 43.2671 191.446 44.5296 188.298 44.8453 188.141 45.2399 187.984 45.4766 186.961 45.4766 185.938 45.4766 184.914 45.8711 184.049 46.3446 184.049 46.7392 184.049 46.9759 183.734 46.7392 183.341 46.1079 182.318 50.369 181.531 53.5255 182.003 61.89 183.419 67.7295 184.836 68.6765 185.544 69.6234 186.331 76.6465 188.298 77.5145 187.984 77.8302 187.905 78.3036 188.141 78.5403 188.535 78.7771 188.928 80.1975 190.03 81.6178 191.053 82.9593 191.997 84.143 193.178 84.143 193.571 84.143 195.538 91.8763 204.51 94.6382 205.769 96.2164 206.556 97.5579 207.579 97.5579 208.051 97.5579 208.523 98.4259 209.782 99.5307 210.805L101.582 212.694 99.7674 214.189C98.5048 215.212 98.347 215.527 99.3728 215.212 100.32 214.897 100.714 215.212 100.714 216.157 100.793 217.888 103.082 221.114 103.082 219.383 103.082 218.753 102.687 217.809 102.135 217.258 100.872 215.999 101.977 215.055 103.318 216.157 103.95 216.707 104.66 216.865 104.897 216.629 105.133 216.314 106.001 216.393 106.791 216.629 107.974 217.101 107.974 217.258 107.027 217.888 106.238 218.36 106.948 218.439 108.921 218.124 111.367 217.73 111.92 217.888 111.604 218.753 111.367 219.383 110.815 219.776 110.342 219.698 109.237 219.462 108.448 221.665 109.395 222.216 110.736 223.003 110.342 225.993 109 225.442 108.369 225.206 107.816 225.364 107.816 225.679 107.816 226.072 108.369 226.623 109.079 226.859 109.71 227.095 110.105 227.646 109.789 228.118 109.473 228.59 110.184 228.669 111.683 228.433 113.419 228.039 114.445 228.354 115.786 229.613 117.759 231.423 116.891 231.738 113.024 230.479 111.683 230.086 109.552 229.535 108.211 229.22 106.159 228.826 106.08 228.669 107.422 228.118 108.763 227.646 108.763 227.567 106.791 227.016 105.528 226.702 104.66 225.915 104.581 225.128 104.581 224.183 104.423 224.105 104.108 224.813 103.871 225.442 104.186 226.78 104.739 227.882 105.607 229.456 105.607 229.928 104.66 230.479 102.608 231.738 104.818 232.997 107.343 232.053 110.894 230.715 112.393 231.187 109.395 232.761 103.555 235.752 102.687 236.381 102.766 237.562 102.845 238.191 102.924 239.372 103.003 240.159 103.003 240.867 103.476 241.496 103.95 241.496 104.344 241.496 104.581 241.182 104.344 240.788 103.871 240.08 108.605 241.339 112.551 242.913 114.287 243.7 114.366 243.778 112.867 243.778 111.999 243.857 110.973 243.621 110.657 243.306 110.026 242.677 107.501 242.283 103.871 242.283 101.03 242.283 99.7674 241.26 99.6885 238.821 99.6096 237.719 99.2939 236.775 99.0572 236.775 98.0313 236.775 94.4014 228.984 94.8749 227.803 95.1906 227.016 94.9538 226.544 94.1648 226.544 93.4545 226.544 92.5865 226.072 92.2708 225.6 91.6396 224.498 86.2736 221.823 84.8532 221.823 84.3797 221.823 81.3812 220.799 78.2247 219.54 75.0682 218.203 71.754 217.101 70.9649 216.943 70.1757 216.786 69.3866 216.471 69.1499 216.235 68.9131 215.92 66.9404 214.583 64.652 213.245 62.4425 211.907 60.3908 210.176 60.154 209.546 59.9173 208.838 59.2071 208.444 58.5758 208.68 57.9445 208.917 56.682 208.366 55.735 207.5 54.5514 206.398 53.7622 206.162 53.2099 206.713 52.5786 207.343 52.9731 208.13 54.5514 209.389 55.735 210.412 58.0235 212.3 59.6016 213.56 62.916 216.393 66.7036 218.281 69.3077 218.596 69.9391 218.675 70.0179 218.911 69.3866 219.54 68.8342 220.091 68.8342 221.508 69.3077 224.026 69.7023 226.072 69.8601 231.187 69.6234 235.437 69.3077 239.922 69.4656 243.778 69.9391 244.565 70.4914 245.667 70.4125 246.297 69.5445 247.005 68.9131 247.556 68.3608 247.792 68.3608 247.556 68.3608 247.241 66.7036 247.871 64.652 248.894 61.8704 250.251 57.0913 251.255 53.5773 251.373ZM231.105 252.799C230.858 252.828 230.484 252.632 229.892 252.199 228.629 251.176 228.629 251.097 229.813 250.625 230.523 250.31 231.312 250.31 231.47 250.468 231.707 250.625 231.707 251.333 231.549 252.042 231.47 252.514 231.352 252.769 231.105 252.799ZM81.6967 252.907C80.592 254.009 77.041 245.51 77.041 241.811 77.041 240.788 76.7254 239.765 76.2519 239.529 75.8573 239.293 75.3839 237.404 75.3839 235.358 75.305 233.312 75.1471 232.289 74.9104 233.076 74.2002 235.909 73.2533 234.178 72.7798 228.905 72.4641 225.915 71.9118 223.396 71.4383 223.396 71.0438 223.396 70.7281 222.452 70.7281 221.35 70.7281 219.698 71.0438 219.383 72.1486 219.855 72.8587 220.17 74.0424 220.485 74.6737 220.642 76.9621 221.193 86.1158 224.498 88.7198 225.679 92.5076 227.489 95.1117 231.266 92.5076 231.266 91.8763 231.266 91.1661 232.525 90.8504 234.256 90.2981 237.483 88.0097 243.464 85.6423 247.871 84.8532 249.445 84.143 251.333 84.143 252.042 84.143 252.828 83.7485 253.143 83.3539 252.907 82.8804 252.592 82.7226 252.042 83.0382 251.648 83.275 251.255 83.0382 250.389 82.5648 249.759 82.0124 249.13 81.8546 248.028 82.0913 247.32 82.407 246.533 82.1702 246.218 81.6178 246.375 80.3552 246.848 80.1186 251.176 81.3022 251.884 81.7757 252.199 81.9335 252.671 81.6967 252.907ZM216.092 255.652C215.668 255.681 215.017 255.347 214.425 254.638 213.32 253.301 214.11 252.514 216.477 252.514 217.661 252.514 218.213 252.199 217.897 251.648 217.582 251.176 216.872 251.018 216.24 251.255 215.688 251.491 214.978 251.333 214.741 250.861 214.425 250.468 214.82 249.917 215.451 249.681 216.161 249.445 216.714 248.579 216.714 247.871 216.714 245.746 217.74 244.88 220.975 244.329 223.816 243.778 223.973 243.857 223.105 244.959 222.474 245.667 221.527 246.218 220.975 246.218 219.476 246.218 219.554 247.477 221.054 248.107 222.395 248.579 224.605 246.612 224.605 244.959 224.605 243.7 225.867 243.464 226.577 244.644 227.446 245.982 224.526 249.366 222.553 249.366 221.133 249.366 220.659 249.838 220.659 251.018 220.659 252.435 220.975 252.592 222.474 252.12 226.42 250.94 227.761 250.782 227.761 251.648 227.761 252.12 228.314 252.514 228.945 252.514 229.576 252.514 230.129 252.828 230.129 253.143 230.129 254.56 229.103 254.717 227.288 253.537 225.473 252.435 225.394 252.435 225.394 254.009 225.394 255.898 223.421 256.291 222.711 254.481 222.158 252.907 220.659 252.986 220.659 254.56 220.659 255.74 220.501 255.74 218.686 254.56 216.319 252.986 215.846 252.986 216.398 254.481 216.714 255.229 216.516 255.622 216.092 255.652ZM219.16 258.809C218.213 258.809 217.187 257.235 217.74 256.685 218.292 256.134 219.87 257.157 219.87 258.101 219.87 258.495 219.554 258.809 219.16 258.809ZM51.4936 260.905C51.2766 261.15 50.882 260.895 50.5269 259.911 50.2113 259.124 49.8167 258.18 49.6589 257.865 49.501 257.471 49.6589 257.235 50.1324 257.235 50.5269 257.235 51.1582 257.944 51.395 258.888 51.7501 259.911 51.7106 260.659 51.4936 260.905ZM30.4046 262.351C29.9311 262.823 26.5379 256.685 26.5379 255.425 26.5379 254.796 25.9855 254.088 25.3543 253.773 24.723 253.537 24.1706 252.828 24.1706 252.12 24.1706 251.491 23.6182 250.94 22.9869 250.94 21.9611 250.94 21.9611 250.704 22.6713 249.917 23.5393 249.051 23.9338 249.13 25.0386 250.231 26.1433 251.333 27.4059 253.851 27.7216 255.661 27.7216 255.898 28.4318 257.393 29.2209 259.045 30.01 260.698 30.5624 262.193 30.4046 262.351ZM36.6385 263.452C33.0875 263.374 32.7719 263.295 34.8236 262.744 38.2957 261.878 40.7419 261.878 40.7419 262.744 40.7419 263.216 38.9269 263.452 36.6385 263.452ZM36.8753 272.974C35.7705 272.974 35.0603 271.558 35.8494 271.086 36.6385 270.614 37.5854 271.322 37.5854 272.345 37.5854 272.66 37.2699 272.974 36.8753 272.974ZM224.142 273.207C223.48 273.742 223.184 272.384 223.421 269.433L223.658 266.285 222.553 268.882C221.606 271.007 221.212 271.243 220.344 270.456 219.712 269.905 219.554 269.354 219.949 269.197 220.344 269.04 220.659 267.859 220.659 266.6 220.659 265.105 220.344 264.397 219.87 264.711 218.923 265.262 216.714 263.767 216.714 262.587 216.714 262.193 217.266 262.193 218.134 262.587 220.265 263.688 224.447 264.554 223.027 263.531 222.237 263.059 222.158 262.744 222.79 262.744 223.816 262.744 223.816 260.068 222.79 259.124 222.474 258.809 222.237 258.022 222.237 257.471 222.237 256.527 222.474 256.606 223.5 257.55 224.842 258.967 226.183 258.573 226.183 256.763 226.183 256.134 226.972 255.661 227.998 255.661 229.576 255.661 229.813 256.055 229.655 258.022 229.576 259.36 229.813 260.462 230.207 260.462 230.602 260.541 231.312 260.619 231.865 260.698 233.364 260.855 233.443 262.508 232.022 263.924 230.997 264.948 230.839 265.577 231.47 266.6 232.496 268.253 231.154 269.591 228.077 269.984 226.656 270.141 225.473 270.928 224.92 272.03 224.625 272.64 224.363 273.029 224.142 273.207ZM215.431 277.381C215.333 277.44 215.293 277.145 215.293 276.516 215.293 275.65 215.53 274.234 215.924 273.368 216.319 272.424 216.556 272.266 216.556 272.974 216.556 273.604 216.24 275.02 215.924 276.122 215.688 276.909 215.53 277.322 215.431 277.381ZM65.1982 279.912C64.9233 279.924 64.5337 279.919 64.0207 279.9 61.4166 279.9 56.5241 278.64 56.5241 278.09 56.5241 277.853 57.471 277.853 58.7336 278.09 60.154 278.326 59.9173 278.09 58.0235 277.46 56.4452 276.988 54.5514 276.044 53.8411 275.414 52.8153 274.548 52.5786 274.548 52.5786 275.414 52.5786 276.752 48.0806 271.558 47.4494 269.433 47.1337 268.567 46.4235 266.679 45.7922 265.341 44.5296 262.508 43.1093 252.986 43.8194 251.805 44.6085 250.625 48.5541 251.727 48.0806 252.986 47.8439 253.615 48.1595 254.088 48.9487 254.088 49.6589 254.088 50.2113 254.481 50.2113 254.874 50.2113 255.898 48.9487 255.898 46.9759 254.874 46.1079 254.402 45.4766 254.324 45.4766 254.796 45.4766 255.189 46.0289 255.661 46.6603 255.976 47.2915 256.212 47.8439 257.157 47.8439 258.101 47.8439 258.967 48.7119 260.777 49.8167 262.114 50.9215 263.374 51.7895 265.026 51.7895 265.734 51.7895 266.915 51.9473 266.915 52.5786 265.892 53.052 265.262 53.2888 263.688 53.2099 262.351 53.131 261.091 53.5255 259.124 54.0779 258.101 55.0248 256.37 55.0248 256.212 53.4466 256.685 52.3419 256.921 51.7895 256.685 51.7895 255.976 51.7895 254.166 56.2874 254.56 57.3132 256.448 57.7867 257.314 58.8915 258.022 59.6805 258.022 60.5486 258.022 61.2588 258.416 61.2588 258.809 61.2588 259.281 62.1268 259.596 63.2316 259.596 65.52 259.596 65.4411 259.596 64.4152 262.429 63.784 263.924 63.784 264.711 64.4152 265.105 64.9676 265.42 64.4941 266.915 63.2316 269.354 60.8642 273.84 60.8642 273.919 62.9949 275.257 64.4941 276.201 64.8098 276.122 65.6778 275.02 66.3091 274.155 66.7826 273.997 67.1771 274.47 68.0451 275.886 66.7826 276.909 64.1785 276.988 62.0479 276.988 61.89 277.145 63.2316 277.696 64.0996 278.09 64.4941 278.404 64.0207 278.483 63.6261 278.562 63.9418 278.877 64.8098 279.27 65.816 279.683 66.0231 279.875 65.1982 279.912ZM172.79 293.396C172.721 293.14 172.681 292.609 172.681 291.861 172.681 290.366 172.839 289.736 173.076 290.523 173.234 291.232 173.234 292.491 173.076 293.278 172.957 293.632 172.859 293.652 172.79 293.396ZM176.134 312.224C175.384 312.263 174.733 311.85 174.023 310.984 172.997 309.804 173.076 309.725 174.733 310.119 175.759 310.433 176.469 310.276 176.469 309.646 176.469 309.174 175.68 308.387 174.733 307.994 173.628 307.522 172.839 306.42 172.76 305.239 172.681 303.508 172.681 303.508 173.076 305.082 173.628 307.6 174.338 307.207 175.443 303.902 176.153 301.619 176.153 300.832 175.443 300.36 174.733 299.888 174.733 299.337 175.601 297.999 176.153 297.055 176.39 296.189 175.917 296.032 175.522 295.875 175.364 293.435 175.522 290.602 175.759 287.376 175.522 285.093 174.97 284.543 174.023 283.598 173.786 280.608 174.654 279.821 174.891 279.506 175.049 277.145 174.97 274.548 174.891 271.558 175.128 269.827 175.601 269.827 176.074 269.827 176.469 269.512 176.469 269.04 176.469 268.646 175.917 268.253 175.285 268.253 174.575 268.253 174.102 267.544 174.102 266.521 174.102 265.026 174.259 264.948 174.891 265.892 175.522 266.836 175.68 266.757 175.68 265.341 175.68 264.397 175.996 263.452 176.39 263.216 176.785 262.98 176.942 261.327 176.706 259.596 176.39 257.55 176.548 256.448 177.179 256.448 177.653 256.448 178.047 255.425 178.047 254.088 178.047 251.648 176.627 250.704 176.469 253.143 176.469 253.851 176.232 256.291 175.917 258.416 175.364 262.272 175.364 262.272 174.97 259.596 174.417 256.527 175.601 249.366 176.627 249.366 176.942 249.366 177.258 248.815 177.258 248.185 177.258 247.556 177.574 247.005 177.968 247.005 179.073 247.005 178.6 236.539 177.495 235.594 176.706 234.965 176.706 234.335 177.574 232.682 178.836 230.243 178.915 230.086 178.836 221.823 178.757 218.596 179.073 214.425 179.468 212.615 180.02 210.333 179.941 209.231 179.389 208.995 178.836 208.838 178.363 205.533 178.047 201.047 177.81 196.876 177.258 193.178 176.785 192.863 175.364 191.918 174.654 185.623 175.838 184.206 176.469 183.498 176.469 183.183 175.996 183.498 175.049 184.049 174.417 181.137 173.628 173.504 173.47 171.772 172.997 170.199 172.523 170.041 171.498 169.648 171.498 167.523 172.523 167.523 172.997 167.523 172.997 166.815 172.523 165.634 172.129 164.611 171.734 162.014 171.577 159.889 171.34 156.191 171.34 156.112 173.865 155.876 175.838 155.719 176.548 155.089 177.179 153.279 177.889 151.312 177.732 150.682 176.39 149.344 174.496 147.456 171.577 146.275 168.894 146.275 167.868 146.275 167 145.96 167 145.646 167 145.252 168.578 145.173 170.551 145.488 173.155 145.882 173.944 145.803 173.313 145.173 172.839 144.701 172.05 144.308 171.498 144.229 167 143.836 167.236 143.993 168.894 142.734 170.551 141.475 172.05 141.16 171.419 142.183 171.261 142.498 174.181 142.813 177.889 142.891 183.887 142.97 188.542 143.521 198.406 145.252 199.748 145.488 200.931 145.96 200.931 146.275 200.931 147.22 197.854 147.77 197.301 146.983 196.67 145.882 195.408 146.118 195.802 147.298 196.355 148.636 195.408 149.738 192.646 151.312 190.278 152.65 190.278 152.65 192.409 152.256 193.514 152.02 195.013 151.626 195.565 151.39 196.276 151.076 196.749 151.39 196.749 152.099 196.749 152.728 196.433 153.122 196.118 152.964 195.802 152.728 195.565 153.83 195.565 155.325 195.565 158.001 197.854 162.014 199.432 162.014 200.142 162.014 203.299 164.847 203.299 165.477 203.299 165.713 202.431 166.815 201.405 167.916 198.564 170.985 198.327 172.953 200.616 173.897 201.721 174.291 202.904 174.605 203.378 174.605 203.772 174.605 205.429 175.235 207.165 175.943 209.848 177.124 210.243 177.596 210.164 179.799 210.085 181.216 209.927 182.239 209.691 182.081 209.059 181.767 208.98 183.891 208.507 201.204 208.27 210.254 208.349 215.37 208.823 215.133 209.296 214.819 209.612 215.212 209.612 215.92 209.612 216.55 209.927 217.73 210.401 218.517 211.9 221.114 215.135 229.692 215.135 230.872 215.135 231.581 214.583 233.155 213.952 234.414 212.847 236.46 212.374 239.057 212.058 243.306 211.979 244.172 211.348 244.644 210.085 244.644 208.349 244.644 208.27 244.802 208.901 247.635 210.559 255.268 211.269 261.249 210.795 263.374 210.243 266.049 211.032 269.827 212.137 269.827 212.61 269.827 212.768 268.567 212.61 267.072 212.295 264.003 213.163 264.318 213.952 267.623 214.346 269.276 214.11 269.905 212.847 270.614 211.821 271.164 211.19 272.266 211.19 273.525 211.19 274.706 210.637 276.28 209.927 276.988 208.823 278.247 208.744 278.798 209.612 280.765 210.559 283.126 210.085 286.353 208.744 286.353 207.165 286.353 208.191 287.927 209.848 288.005 210.953 288.005 211.19 288.163 210.401 288.477 208.191 289.343 206.455 291.31 206.455 293.199 206.455 294.143 206.14 295.009 205.745 295.009 205.35 295.009 204.64 296.189 204.009 297.606 203.457 298.944 202.825 300.282 202.51 300.518 202.273 300.754 201.405 302.249 200.537 303.902 199.669 305.475 198.485 306.813 197.775 306.813 196.986 306.813 196.907 307.049 197.538 307.443 198.012 307.758 195.329 307.994 191.62 307.994 183.729 307.994 181.44 308.466 178.836 310.748 177.732 311.692 176.883 312.184 176.134 312.224ZM147.666 389.286C144.826 389.286 144.273 389.128 145.694 388.735 147.035 388.341 147.351 388.027 146.641 387.555 146.167 387.24 145.378 387.161 144.983 387.397 143.879 388.105 142.774 386.217 140.88 380 139.933 376.773 137.96 371.501 136.461 368.353 135.041 365.284 133.857 362.057 133.857 361.27 133.857 360.562 133.147 359.46 132.2 358.91 131.332 358.359 129.911 356.313 129.122 354.424 128.254 352.457 127.15 350.883 126.597 350.883 125.966 350.883 125.547 350.206 124.151 348.286 123.453 347.326 122.247 345.409 121.077 343.575L121.017 343.483 120.592 342.635C120.203 341.937 119.7 341.177 119.298 340.847 119.297 340.847 119.296 340.847 119.295 340.846L118.222 339.361 118.064 339.176 118.071 339.188 118.864 340.259 119.175 340.797 118.993 340.721 118.881 340.492 118.071 339.188 118.053 339.164 117.84 338.913C117.824 338.891 117.903 338.98 118.026 339.126L118.053 339.164 118.064 339.176 116.806 337.149C115.219 334.661 113.415 331.91 112.551 330.422 110.823 327.446 109.395 324.913 109.395 324.441 109.395 323.969 108.605 322.867 107.659 321.923 106.633 320.978 104.423 317.516 102.687 314.132 100.951 310.748 99.3728 307.836 99.1361 307.6 98.7416 307.207 92.0341 294.222 92.0341 293.829 92.0341 293.671 93.1388 293.199 94.4014 292.727 95.7429 292.333 97.0055 291.31 97.2423 290.523 97.479 289.736 98.9783 286.51 100.478 283.441 102.924 278.326 104.897 270.85 107.974 255.504 108.527 252.986 109.158 250.94 109.473 250.94 109.868 250.94 110.342 249.681 110.657 248.185 111.131 245.431 111.999 244.723 112.946 246.218 114.287 248.343 118.154 245.982 121.784 240.946 123.204 238.978 123.441 237.64 123.283 233.233 123.125 228.276 123.046 227.882 120.837 226.78 117.838 225.206 115.707 223.003 115.707 221.429 115.707 220.721 115.155 219.304 114.445 218.281 113.735 217.18 113.419 216.314 113.656 216.314 114.208 216.314 111.841 211.435 110.973 210.805 110.657 210.569 109.473 208.759 108.29 206.634 107.027 204.588 105.686 202.7 105.133 202.306 104.581 201.991 102.529 199.237 100.478 196.168 96.3743 190.03 90.2192 184.6 83.1961 180.901 80.6709 179.563 78.6192 177.911 78.6192 177.281 78.6192 176.652 78.3036 176.179 77.8302 176.179 77.4356 176.179 77.041 175.707 77.041 175.156 77.041 174.684 74.9104 173.189 72.2275 171.93 68.0451 169.962 66.8615 169.726 62.7581 170.199 60.233 170.435 58.1024 170.356 58.1024 169.962 58.1024 169.569 56.682 167.759 54.9459 165.87 53.2099 163.982 51.7895 162.014 51.7895 161.542 51.7895 161.07 51.0793 159.889 50.2113 158.866 49.3432 157.843 48.3963 156.112 48.1595 155.01 47.6072 151.941 44.9242 147.456 43.8984 147.692 43.3459 147.77 42.4779 147.534 41.8467 146.983 40.1895 145.646 39.4004 146.669 38.9269 151.076 38.5324 154.145 38.7691 155.955 39.9528 158.394 40.7419 160.204 41.6889 162.722 42.0045 163.903 42.3201 165.162 43.3459 167.68 44.3719 169.412 46.6603 173.425 46.818 175.392 44.6874 175.392 43.8194 175.392 43.1093 175.629 43.1093 176.022 43.1093 176.337 41.6889 178.147 39.9528 179.957 38.2168 181.845 36.7964 184.049 36.7964 184.836 36.7964 186.331 34.429 187.669 33.7188 186.567 33.4821 186.252 32.0617 184.285 30.7202 182.318 29.2998 180.271 28.1162 178.461 28.1162 178.147 28.1162 177.596 21.8032 168.152 21.0142 167.523 19.5937 166.342 10.8346 152.571 11.5448 152.571 11.9394 152.571 12.3339 152.256 12.3339 151.784 12.3339 151.39 11.7027 151.312 10.9924 151.548 9.96657 151.941 9.80873 151.705 10.2033 150.682 10.519 149.895 10.7557 148.951 10.7557 148.479 10.7557 148.006 11.3081 147.849 11.9394 148.164 12.8074 148.479 13.1231 148.085 13.1231 146.669 13.1231 145.646 13.4387 144.544 13.9122 144.308 14.3067 144.072 14.7012 144.15 14.7012 144.623 14.7012 145.095 15.3326 145.173 16.0427 144.937 16.9107 144.623 16.9897 144.308 16.4373 144.072 15.8849 143.914 15.4904 143.442 15.4904 143.049 15.4904 142.577 20.3039 142.34 27.327 142.419 33.8767 142.419 39.0059 142.734 38.848 142.97 38.6903 143.285 42.1624 143.6 46.6603 143.757 51.0793 143.914 58.0235 144.386 62.1268 144.859 66.2302 145.331 74.9104 145.803 81.3812 145.96 87.9308 146.118 94.0858 146.433 95.1117 146.747 96.4532 147.141 96.8477 147.062 96.4532 146.354 96.0586 145.724 97.5579 145.488 102.45 145.646 109.158 145.803 117.917 145.095 118.706 144.308 119.337 143.678 111.841 143.914 108.132 144.623 104.502 145.331 100.951 144.623 103.397 143.678 105.607 142.813 119.495 143.049 120.048 143.914 120.837 145.173 126.282 144.859 129.201 143.363 131.805 142.104 133.857 141.947 145.93 142.655 147.587 142.734 149.166 143.127 149.481 143.6 150.507 145.095 152.796 145.567 152.796 144.229 152.796 143.363 153.269 143.127 154.058 143.442 154.768 143.678 156.82 143.914 158.714 143.914 160.687 143.914 162.66 144.386 163.291 145.095 164.238 145.96 164.632 146.039 164.869 145.252 165.106 144.78 165.343 145.646 165.343 147.298 165.421 150.053 166.368 151.076 167.394 149.423 168.026 148.4 170.393 148.4 172.918 149.58 174.97 150.525 175.759 152.886 173.707 152.099 172.839 151.784 172.681 151.941 172.997 152.807 173.313 153.751 172.997 153.909 171.577 153.594 170.551 153.436 168.972 152.807 168.026 152.335 167 151.941 166.053 151.705 165.737 151.941 165.5 152.177 165.895 154.459 166.605 156.978 167.315 159.575 168.578 165.005 169.367 169.097 170.156 173.189 171.182 177.832 171.655 179.327 172.523 182.003 174.496 194.122 175.206 201.126 175.443 203.014 175.759 204.824 176.074 205.297 176.39 205.769 176.785 207.972 176.942 210.333 177.258 213.638 177.021 214.819 175.68 216.55 174.812 217.652 174.417 218.753 174.812 218.99 175.206 219.304 175.68 218.99 175.917 218.517 176.074 217.966 176.548 217.809 176.942 218.124 177.337 218.517 177.021 219.147 176.232 219.619 174.891 220.327 174.812 221.036 175.285 225.757 175.759 230.243 175.522 231.659 174.181 234.729 172.839 237.64 172.602 239.214 172.997 242.362 173.391 245.116 173.234 246.533 172.602 246.926 171.892 247.398 171.892 248.421 172.445 250.782 172.839 252.671 172.839 254.245 172.445 254.481 172.05 254.717 171.813 256.763 171.892 259.045 171.971 261.327 171.734 265.262 171.419 267.859 171.103 270.456 171.103 272.187 171.498 271.637 172.287 270.535 172.366 278.483 171.498 279.821 171.182 280.293 170.866 286.353 170.866 293.199 170.787 309.174 172.76 320.191 175.759 320.191 176.153 320.191 176.469 319.326 176.469 318.224 176.469 317.044 177.1 315.942 178.205 315.391 179.231 314.84 180.493 313.896 181.125 313.345 181.835 312.637 182.94 312.401 184.202 312.715 185.702 313.109 186.017 312.952 185.702 312.007 185.149 310.591 186.727 309.961 190.91 309.961 193.356 309.961 193.908 310.197 193.04 310.748 192.409 311.142 191.857 311.771 191.778 312.086 191.699 313.109 190.594 315.785 189.805 317.044 189.41 317.673 188.779 318.932 188.385 319.798 187.911 320.664 186.885 322.474 186.017 323.733 185.07 325.071 184.36 326.566 184.36 327.195 184.36 327.746 183.334 329.556 181.993 331.209 180.73 332.861 179.625 334.593 179.625 335.065 179.625 335.537 177.889 338.842 175.68 342.305 173.549 345.767 171.734 348.837 171.734 349.073 171.734 349.387 170.787 350.804 169.604 352.299 166.368 356.549 161.555 367.33 156.662 381.495 154.69 387.082 153.979 387.869 150.507 387.948 147.903 388.027 147.824 388.105 149.639 388.656 151.217 389.128 150.744 389.286 147.666 389.286ZM146.699 390.991C150.734 391.15 155.025 389.128 156.741 385.823 157.372 384.564 158.398 382.99 159.109 382.361 159.819 381.731 160.845 379.055 161.239 376.38 161.713 373.783 162.817 370.084 163.685 368.117 164.553 366.228 165.658 363.474 166.211 362.057 166.763 360.641 168.262 358.044 169.446 356.391 170.708 354.66 171.734 353.086 171.734 352.85 171.734 352.614 172.129 351.984 172.523 351.434 174.023 349.702 181.993 337.347 181.993 336.717 181.993 336.403 182.703 335.537 183.571 334.75 184.439 333.963 185.149 332.704 185.149 331.838 185.149 331.051 185.465 330.422 185.78 330.422 186.333 330.422 187.674 327.982 193.435 316.965 193.829 316.178 194.697 315.47 195.25 315.47 195.802 315.47 196.512 314.84 196.749 314.132 197.065 313.345 197.459 312.558 197.696 312.322 198.722 311.456 202.352 306.105 206.061 300.124 208.191 296.662 210.243 293.514 210.559 293.042 210.953 292.648 211.742 291.546 212.374 290.681 213.399 289.264 213.478 289.264 213.557 290.523 213.557 292.097 216.714 292.333 221.527 291.074 223.263 290.681 226.104 289.894 227.998 289.422 229.813 288.949 232.259 287.533 233.443 286.274 235.968 283.52 239.124 274.627 240.308 266.915 241.176 261.327 242.518 255.583 244.333 250.153 246.305 244.251 246.542 243.07 245.832 242.598 245.358 242.362 244.569 242.598 243.938 243.07 243.07 243.778 242.754 243.778 242.754 243.149 242.754 242.677 242.202 242.283 241.492 242.283 240.86 242.283 240.545 241.89 240.782 241.496 241.176 240.867 241.65 240.946 242.36 241.496 242.991 242.047 243.859 242.126 244.411 241.811 245.437 241.182 242.36 238.427 240.624 238.349 239.203 238.349 239.282 230.558 240.782 227.095 241.413 225.521 242.518 223.947 243.228 223.554 243.859 223.16 244.49 222.373 244.648 221.744 244.806 220.327 245.832 218.675 248.436 215.448 249.698 213.953 252.066 211.041 253.802 208.838 255.617 206.713 257.905 203.329 259.089 201.362 260.194 199.394 261.614 197.27 262.245 196.64 262.798 196.01 264.77 193.492 266.585 191.131 269.979 186.646 283.788 170.671 286.629 167.916 289.628 165.005 290.89 162.486 290.89 159.496 290.89 157.843 290.574 156.506 290.101 156.506 289.706 156.506 289.312 155.955 289.312 155.246 289.312 154.538 288.602 153.122 287.734 152.02 286.866 150.918 286.155 149.58 286.155 149.108 286.155 147.377 281.736 145.488 279.132 145.96 276.291 146.59 275.897 145.803 278.501 144.701 279.842 144.072 279.606 143.993 277.081 144.308 271.557 145.095 251.829 146.039 251.435 145.567 251.198 145.252 250.014 145.016 248.673 144.937 240.624 144.544 219.949 143.049 218.45 142.655 217.424 142.498 216.872 141.947 217.108 141.632 217.345 141.239 213.32 140.924 208.191 141.003 203.141 141.081 196.986 140.924 194.619 140.767L190.2 140.373 190.2 127.388C190.2 120.227 189.805 110.862 189.253 106.534 188.779 102.206 187.911 93.5494 187.438 87.2538 186.964 80.9582 186.254 74.3478 185.938 72.4591 185.623 70.6491 185.623 68.9178 186.017 68.7604 186.333 68.5243 186.412 67.1078 186.175 65.6127 185.859 63.7239 186.096 62.7796 186.806 62.4648 187.674 62.15 187.832 60.4187 187.674 54.5953L187.359 47.1193 189.805 47.1193C191.62 47.1193 192.093 47.4341 191.778 48.2997 191.068 50.1097 195.25 49.7949 198.17 47.9062 201.01 46.0176 201.721 45.9389 201.721 47.5127 201.721 48.6145 203.22 49.0867 205.193 48.7719 205.587 48.6932 207.323 48.5358 208.98 48.4571 210.637 48.3784 211.979 48.0636 211.979 47.7489 211.979 47.4341 212.374 47.1193 212.768 47.1193 213.242 47.1193 213.557 47.6702 213.557 48.2997 213.557 49.8736 214.188 49.7949 217.976 47.5914 222.474 45.0732 225.394 44.365 225.394 45.9389 225.394 46.5684 224.92 47.1979 224.447 47.2767 222.474 47.4341 221.843 47.6702 218.765 49.008 214.978 50.6606 215.53 51.3688 220.028 50.5818 221.922 50.2671 223.658 50.031 224.052 50.1097 224.368 50.1883 224.605 49.8736 224.605 49.4801 224.605 49.008 225.078 48.6932 225.71 48.6932 226.341 48.6932 227.367 48.221 227.919 47.6702 228.471 47.1193 229.182 46.5684 229.576 46.4897L233.048 45.6241C234.626 45.1519 236.126 44.9158 236.284 45.0732 236.599 45.388 232.733 47.2767 229.971 48.221 229.182 48.4571 228.55 49.008 228.55 49.4801 228.55 50.7393 231.707 50.4245 235.179 48.7719 241.65 45.7814 248.909 44.2075 244.017 46.8045 242.439 47.6702 242.044 48.2997 242.675 48.9293 243.307 49.5588 244.017 49.4801 245.279 48.8505 249.462 46.7258 251.435 46.3323 251.435 47.5127 251.435 48.9293 251.435 48.9293 255.932 47.8275 258.852 47.0406 259.641 47.1193 260.194 47.9849 260.825 48.9293 261.062 48.9293 261.693 47.9062 262.324 46.9619 262.482 47.0406 262.482 48.5358 262.482 50.5031 263.271 50.6606 267.611 49.0867 271.162 47.7489 274.003 47.5914 274.634 48.6145 274.871 48.9293 275.976 49.0867 277.081 48.8505 278.185 48.6932 279.606 48.9293 280.237 49.4801 281.026 50.1883 281.421 50.1883 281.421 49.5588 281.421 48.5358 285.287 48.3784 288.049 49.4015 289.312 49.9523 291.837 49.8736 295.23 49.3227 299.412 48.6145 300.596 48.6145 301.149 49.4801 301.464 50.031 302.49 50.2671 303.437 50.031 304.621 49.7949 305.094 50.031 305.094 50.818 305.094 51.7623 305.725 51.9197 307.935 51.4475 313.301 50.5031 321.902 45.5454 318.272 45.5454 316.299 45.5454 316.615 43.4206 318.667 42.8697 320.403 42.4762 320.403 42.3975 318.903 41.2959 317.483 40.2728 317.167 40.3515 315.589 42.0827 313.38 44.5223 312.827 44.4436 313.459 41.9254 313.774 40.5876 313.616 39.6433 312.985 39.2498 311.644 38.3841 309.829 39.0923 309.829 40.4302 309.829 41.0597 309.434 41.768 308.961 42.0827 308.408 42.3975 308.251 41.9254 308.408 40.7449 308.566 39.2498 308.329 38.8563 306.909 38.935 305.962 38.935 305.252 38.6202 305.331 38.148 305.41 37.6758 304.7 37.2037 303.674 37.0463 302.253 36.8102 302.017 36.4167 302.411 34.8428 302.806 33.3476 302.569 32.9541 301.306 32.9541 300.438 32.9541 299.334 33.505 298.702 34.2133 297.755 35.315 297.598 35.315 297.045 33.8198 296.335 31.7737 295.309 31.695 293.494 33.6624 292.705 34.4494 291.206 35.3937 290.101 35.6298 288.207 36.1807 288.207 36.1019 289.628 35.0002 290.496 34.2919 291.285 33.0328 291.442 32.1672 291.758 29.885 289.233 30.1211 287.102 32.5607 286.155 33.6624 284.814 34.5281 284.183 34.5281 283.551 34.5281 282.999 34.8428 282.999 35.2363 282.999 35.6298 282.447 36.1019 281.815 36.4167 279.448 37.2824 280.71 35.315 283.709 33.5837 286.392 32.0098 286.629 31.5376 285.761 30.3572 284.419 28.4686 282.526 28.7046 281.815 30.7507 281.421 32.0885 281.184 32.2459 280.868 31.3802 279.842 28.9407 278.422 28.1538 277.238 29.4129 276.607 29.9637 275.029 30.7507 273.845 30.9867 271.636 31.459 271.636 31.459 273.135 30.1998 274.477 29.0981 274.555 28.862 273.53 28.2324 271.872 27.1307 271.636 27.2094 269.584 29.4129 268.558 30.5146 267.296 31.3802 266.743 31.3802 266.27 31.3802 265.402 31.9311 264.849 32.5607 263.429 34.2919 262.324 33.9771 263.429 32.1672 263.981 31.3015 264.849 30.5933 265.402 30.5933 265.954 30.5933 266.428 30.0424 266.428 29.4129 266.428 28.7833 266.822 28.2324 267.296 28.2324 267.769 28.2324 267.611 27.6816 266.901 27.052 265.244 25.3994 264.139 25.5568 263.271 27.6816 262.798 28.862 262.561 29.0194 262.561 28.1538 262.482 27.4455 261.93 26.3438 261.219 25.7929 260.115 24.9272 259.799 24.9272 258.931 26.1077 258.379 26.8159 257.274 27.4455 256.485 27.3668 255.617 27.3668 255.459 27.1307 256.011 26.8946 257.037 26.5011 257.353 22.7238 256.327 22.7238 255.932 22.7238 254.828 23.5894 253.802 24.6912 252.776 25.7929 251.435 26.6585 250.724 26.6585 249.777 26.6585 249.777 26.4225 250.488 25.7142 253.486 22.7238 249.541 22.8811 245.911 25.8715 242.833 28.5472 241.965 28.7833 241.965 27.052 241.965 25.1633 239.519 24.6125 238.335 26.265 237.704 27.052 237.231 27.4455 237.231 27.1307 237.231 26.8159 236.047 27.4455 234.705 28.5472 233.285 29.5702 231.075 30.672 229.734 30.9867 227.051 31.5376 226.972 31.695 233.522 26.9733 236.363 24.8485 237.152 23.2746 235.81 22.409 235.416 22.1729 233.758 23.2746 232.101 24.7699 228.55 27.9176 227.209 28.2324 228.945 25.5568 230.05 23.9042 230.05 23.6681 228.945 23.1959 227.761 22.8024 224.447 24.6125 221.606 27.2094 221.054 27.7603 219.949 28.2324 219.239 28.1538 218.371 28.1538 218.292 27.9963 218.923 27.6816 219.397 27.5241 219.633 26.8946 219.397 26.5011 219.081 26.029 219.239 25.8715 219.712 26.1863 220.186 26.4225 221.133 25.8715 221.764 24.9272 222.474 23.9829 223.027 23.5107 223.105 23.9042 223.105 24.3764 223.421 23.8255 223.895 22.8811 224.92 20.2055 224.052 19.4185 221.764 20.9138 220.265 21.8581 219.554 21.9368 219.16 21.2286 218.765 20.599 217.74 20.9138 215.609 22.3303 214.031 23.432 212.374 24.2977 211.979 24.2977 211.584 24.2977 209.533 25.9503 207.481 27.9176 204.798 30.4359 203.614 31.1442 203.457 30.3572 203.141 28.862 208.27 23.5107 209.927 23.5107 210.637 23.5107 211.19 23.1959 211.19 22.8024 211.19 22.409 211.9 21.7794 212.768 21.5433 213.873 21.2286 214.346 20.363 214.346 18.7103 214.346 16.4281 213.32 15.6412 212.374 17.2151 212.137 17.6873 211.032 18.0021 209.927 18.0021 208.823 18.0021 208.191 18.3169 208.428 18.789 208.665 19.1825 208.428 19.576 207.797 19.576 207.165 19.576 206.376 18.6316 206.061 17.4512L205.508 15.2478 204.088 17.1364 202.667 19.0251 202.194 17.3725C201.563 15.4838 200.537 15.169 199.748 16.4281 199.353 17.0577 198.801 16.9791 198.012 16.2708 197.065 15.4838 196.591 15.6412 195.487 17.1364 194.303 18.7103 193.829 18.8677 192.409 18.0807 191.462 17.5299 190.673 17.4512 190.673 17.7659 190.673 18.0807 190.2 17.6873 189.647 16.9003 188.621 15.4838 188.463 15.5625 186.017 17.9234 184.676 19.2612 183.334 20.363 183.098 20.363 182.23 20.363 183.808 16.8216 185.228 15.4051 187.043 13.6738 187.122 12.8082 185.544 12.1786 184.912 11.9425 184.36 12.0999 184.36 12.5721 184.36 13.0442 183.887 13.2804 183.413 13.0442 182.861 12.8869 181.993 13.2017 181.598 13.8312 180.888 14.6968 180.493 14.6182 179.073 13.2804 177.179 11.5491 175.285 11.2343 174.496 12.4934 174.259 12.8869 173.47 13.2804 172.839 13.2804 172.208 13.2804 171.892 12.9656 172.129 12.4934 172.839 11.3917 166.763 11.4704 165.579 12.6508 164.948 13.2804 164.396 13.2804 163.37 12.4147 162.265 11.5491 161.949 11.5491 161.002 12.8082 159.74 14.6182 154.374 15.169 154.374 13.5164 154.374 12.2573 153.979 12.2573 151.928 13.2804 150.744 13.9886 150.27 13.8312 149.955 12.8869 149.402 11.4704 147.272 11.2343 147.272 12.6508 147.272 13.123 147.035 13.359 146.798 13.123 146.562 12.8869 145.457 13.5164 144.352 14.5395 143.247 15.5625 141.906 16.4281 141.432 16.4281 140.959 16.4281 141.906 15.169 143.563 13.6738 145.378 12.0999 146.483 10.3686 146.325 9.58166 146.088 8.47997 145.773 8.55865 143.721 10.4473 141.432 12.5721 141.432 12.5721 140.801 10.8408 140.249 9.4243 139.933 9.34562 138.986 10.1326 137.96 10.9982 137.881 10.9195 138.197 9.89646 138.828 8.40121 137.171 7.29952 136.066 8.40121 135.514 8.95213 134.804 8.95213 133.857 8.40121 132.831 7.77169 132.042 7.85037 130.622 8.79469 128.333 10.4473 127.544 10.4473 127.544 8.95213 127.544 7.61433 126.282 7.37821 125.571 8.55865 124.782 9.81778 123.362 9.4243 123.914 8.08649 124.624 6.27652 123.677 5.17475 122.336 6.27652 121.468 6.98472 121.231 6.90604 121.231 5.88304 121.231 4.38779 119.416 4.23043 117.286 5.56824 115.55 6.66992 114.208 5.80428 115.55 4.46647 116.812 3.20734 116.733 2.26302 115.313 2.26302 114.682 2.26302 113.814 2.9713 113.34 3.83695 112.867 4.70259 111.999 5.4108 111.367 5.4108 109.789 5.4108 109.868 4.62391 111.604 3.36478 112.788 2.42038 112.788 2.18434 111.762 1.55474 110.973 1.00389 110.42 1.08257 109.947 1.94822 109.158 3.36478 106.396 2.6565 104.897 0.767851 103.95-0.333914 103.713-0.333914 102.45 1.31869 101.425 2.6565 100.241 3.12866 97.7158 3.20734 95.9008 3.20734 94.0069 3.75827 93.5334 4.30911 93.06 4.93863 91.9553 5.4108 91.0872 5.4108 90.2981 5.4108 87.5362 7.45689 84.9322 9.89646 77.5934 16.9791 76.4097 18.0021 75.305 18.0021 74.7526 18.0807 73.2533 18.8677 71.9907 19.8907 69.7812 21.7008 69.7023 21.9368 70.2546 26.6585 71.2016 34.6854 75.6996 39.958 83.1172 41.6893 89.3512 43.1845 90.6137 44.0502 90.2192 46.3323 89.9824 47.4341 90.5348 49.9523 91.4028 51.9984 92.7443 55.2249 92.9022 56.1692 92.113 59.7105 91.6396 61.914 91.245 68.1309 91.245 73.5608 91.245 79.9351 90.9293 83.2404 90.4559 82.9256 90.0613 82.6895 89.6668 83.0042 89.6668 83.6338 89.6668 84.2634 90.0613 85.0503 90.4559 85.2864 90.9293 85.5225 91.245 86.9391 91.245 88.3555 91.245 89.8507 91.7974 92.5264 92.5076 94.4151 93.5334 97.2481 93.6123 99.7664 93.1388 108.501 92.4287 122.273 92.4287 120.699 93.1388 132.818 93.6123 140.216 93.5334 143.127 92.9022 142.813 92.4287 142.498 91.3239 142.655 90.377 143.127 87.9308 144.465 72.8587 144.623 63.5472 143.363 59.0493 142.734 52.8942 142.183 49.8167 142.026 40.8998 141.553 22.5134 140.058 18.6468 139.507 15.4115 139.114 14.8591 139.271 12.8074 141.239 10.0455 143.993 7.59923 148.715 7.59923 151.233 7.59923 152.256 8.30948 153.751 9.17748 154.538 9.96657 155.246 12.0183 157.922 13.6754 160.362 15.3326 162.801 17.621 165.949 18.8047 167.365 20.0672 168.782 21.0142 170.277 21.0142 170.671 21.0142 171.143 21.7243 172.166 22.6713 173.11 23.5393 173.976 24.0917 174.999 23.776 175.235 23.4604 175.55 22.5923 174.999 21.8032 174.055 19.5148 171.222 16.5162 171.851 12.255 176.258 9.65098 178.934 9.17748 179.091 9.7299 176.966 10.0455 175.865 9.7299 175.392 8.86182 175.392 7.99381 175.392 7.59923 176.101 7.59923 177.989 7.59923 179.327 6.88906 182.396 6.02106 184.757 4.99522 187.433 4.52173 189.872 4.83739 191.446 5.23189 193.886 5.23189 193.886 3.96939 192.154 2.15439 189.636 1.52314 189.872 1.04964 193.335 0.812888 194.909 0.418385 196.955 0.102719 197.821-0.212947 199.001 0.181636 200.024 1.52314 201.362 3.49589 203.329 5.31081 206.477 8.3884 213.481 9.96657 216.943 9.96657 217.494 8.94073 219.698 7.59923 222.373 7.9149 223.79 10.2033 226.387L11.8605 228.118 10.1244 231.187 8.3884 234.178 10.3611 236.853C11.387 238.349 12.8863 240.631 13.5965 241.89 14.3067 243.228 15.806 245.274 16.8318 246.533 17.8577 247.792 19.357 250.074 20.225 251.648 21.0142 253.222 22.7502 255.583 24.0128 256.999 25.3543 258.416 26.9325 260.541 27.5638 261.721 31.1148 268.567 35.0603 274.548 35.9283 274.548 39.2426 274.548 49.1065 276.437 49.5799 277.145 49.8956 277.696 50.448 278.09 50.7636 278.09 54.0779 278.326 60.8642 281.946 60.0751 283.205 59.4439 284.228 62.2057 287.218 63.3105 286.825 63.9418 286.589 65.2044 287.297 66.2302 288.399 67.9662 290.445 73.3322 293.435 75.2261 293.435 75.8573 293.435 77.1988 293.986 78.2247 294.694 79.3294 295.402 81.3812 295.796 83.1172 295.717 84.7743 295.56 86.5892 295.796 87.1417 296.111 87.694 296.426 88.6409 296.347 89.1933 295.796 90.0613 295.088 91.3239 296.898 95.4273 305.003 100.241 314.525 110.499 331.917 111.762 332.783 112.078 333.019 113.103 334.435 114.05 335.931 114.366 336.462 114.881 337.199 115.476 337.987L117.269 340.213 122.336 348.758C123.993 351.67 125.729 354.03 126.203 354.03 127.15 354.109 130.701 359.067 130.701 360.405 130.701 360.798 131.174 361.113 131.726 361.113 132.358 361.113 133.147 363.238 133.778 366.858 134.33 369.927 135.12 372.917 135.435 373.311 135.751 373.783 136.303 375.672 136.619 377.639 137.487 382.99 138.513 385.351 139.381 383.935 139.933 383.069 140.249 383.698 140.643 386.059 140.959 388.263 141.669 389.522 142.853 390.073 144.036 390.643 145.353 390.938 146.699 390.991Z" fill-rule="evenodd" transform="matrix(1 0 0 -1 480 633)"/></g></svg>