<svg width="805" height="907" xmlns="http://www.w3.org/2000/svg" xmlns:xlink="http://www.w3.org/1999/xlink" xml:space="preserve" overflow="hidden"><defs><clipPath id="clip0"><rect x="306" y="1210" width="805" height="907"/></clipPath></defs><g clip-path="url(#clip0)" transform="translate(-306 -1210)"><path d="M708.499 1240.09C696.793 1240.09 685.087 1243.12 674.598 1249.17L366.608 1426.98C345.63 1439.09 332.707 1461.47 332.707 1485.69L332.707 1841.31C332.707 1865.53 345.63 1887.91 366.608 1900.02L674.598 2077.82C695.576 2089.94 721.422 2089.94 742.399 2077.82L1050.39 1900.02C1071.37 1887.91 1084.29 1865.53 1084.29 1841.31L1084.29 1485.69C1084.29 1461.47 1071.37 1439.09 1050.39 1426.98L742.399 1249.17C731.91 1243.12 720.205 1240.09 708.499 1240.09ZM708.499 1210C721.036 1210 733.574 1213.24 744.808 1219.73L1074.69 1410.17C1097.16 1423.14 1111 1447.11 1111 1473.06L1111 1853.94C1111 1879.88 1097.16 1903.86 1074.69 1916.83L744.808 2107.27C722.34 2120.24 694.658 2120.24 672.189 2107.27L342.31 1916.83C319.842 1903.86 306 1879.88 306 1853.94L306 1473.06C306 1447.11 319.842 1423.14 342.31 1410.17L672.189 1219.73C683.423 1213.24 695.961 1210 708.499 1210Z" fill="#1D3557" fill-rule="evenodd"/></g></svg>