<svg width="804" height="906" xmlns="http://www.w3.org/2000/svg" xmlns:xlink="http://www.w3.org/1999/xlink" xml:space="preserve" overflow="hidden"><defs><clipPath id="clip0"><rect x="5082" y="1617" width="804" height="906"/></clipPath></defs><g clip-path="url(#clip0)" transform="translate(-5082 -1617)"><path d="M5484 1621C5496.4 1621 5508.79 1624.21 5519.9 1630.62L5846.1 1818.96C5868.31 1831.79 5882 1855.5 5882 1881.16L5882 2257.84C5882 2283.5 5868.31 2307.21 5846.1 2320.03L5519.9 2508.38C5497.69 2521.21 5470.31 2521.21 5448.09 2508.38L5121.9 2320.03C5099.69 2307.21 5086 2283.5 5086 2257.84L5086 1881.16C5086 1855.5 5099.69 1831.79 5121.9 1818.96L5448.09 1630.62C5459.2 1624.21 5471.6 1621 5484 1621Z" fill="#FFFFFC" fill-rule="evenodd"/><path d="M5484 1773.9C5475.89 1773.9 5467.77 1776 5460.5 1780.21L5247.01 1903.71C5232.47 1912.13 5223.51 1927.67 5223.51 1944.5L5223.51 2191.5C5223.51 2208.33 5232.47 2223.87 5247.01 2232.29L5460.5 2355.79C5475.04 2364.2 5492.96 2364.2 5507.5 2355.79L5720.99 2232.29C5735.53 2223.87 5744.49 2208.33 5744.49 2191.5L5744.49 1944.5C5744.49 1927.67 5735.53 1912.13 5720.99 1903.71L5507.5 1780.21C5500.23 1776 5492.11 1773.9 5484 1773.9ZM5484 1753C5492.69 1753 5501.38 1755.25 5509.17 1759.76L5737.83 1892.04C5753.41 1901.05 5763 1917.7 5763 1935.72L5763 2200.28C5763 2218.3 5753.41 2234.95 5737.83 2243.96L5509.17 2376.24C5493.59 2385.25 5474.4 2385.25 5458.83 2376.24L5230.17 2243.96C5214.59 2234.95 5205 2218.3 5205 2200.28L5205 1935.72C5205 1917.7 5214.59 1901.05 5230.17 1892.04L5458.83 1759.76C5466.62 1755.25 5475.31 1753 5484 1753Z" fill="#00B0E0" fill-rule="evenodd"/><path d="M5484 1647.06C5472.31 1647.06 5460.62 1650.08 5450.14 1656.13L5142.53 1833.74C5121.58 1845.84 5108.67 1868.19 5108.67 1892.39L5108.67 2247.61C5108.67 2271.8 5121.58 2294.16 5142.53 2306.26L5450.14 2483.87C5471.09 2495.97 5496.91 2495.97 5517.86 2483.87L5825.47 2306.26C5846.42 2294.16 5859.33 2271.8 5859.33 2247.61L5859.33 1892.39C5859.33 1868.19 5846.42 1845.84 5825.47 1833.74L5517.86 1656.13C5507.38 1650.08 5495.69 1647.06 5484 1647.06ZM5484 1617C5496.52 1617 5509.04 1620.24 5520.26 1626.72L5849.74 1816.95C5872.18 1829.91 5886 1853.85 5886 1879.77L5886 2260.23C5886 2286.15 5872.18 2310.09 5849.74 2323.05L5520.26 2513.28C5497.82 2526.24 5470.17 2526.24 5447.73 2513.28L5118.26 2323.05C5095.82 2310.09 5082 2286.15 5082 2260.23L5082 1879.77C5082 1853.85 5095.82 1829.91 5118.26 1816.95L5447.73 1626.72C5458.95 1620.24 5471.48 1617 5484 1617Z" fill="#2A2E47" fill-rule="evenodd"/><path d="M5133 2068 5835 2068 5835 2257 5133 2257Z" fill="#FFFFFC" fill-rule="evenodd"/><path d="M5566.75 1963.25 5566.75 1999.98 5586.98 1999.98C5594.02 1999.98 5599.25 1998.38 5602.65 1995.19 5606.05 1991.99 5607.75 1987.5 5607.75 1981.71 5607.75 1969.41 5600.83 1963.25 5586.98 1963.25ZM5456.7 1963.25 5456.7 1999.98 5476.94 1999.98C5483.98 1999.98 5489.21 1998.38 5492.61 1995.19 5496.01 1991.99 5497.71 1987.5 5497.71 1981.71 5497.71 1969.41 5490.79 1963.25 5476.94 1963.25ZM5541.23 1942.63 5588.07 1942.63C5597.91 1942.63 5606.3 1944.32 5613.22 1947.69 5620.15 1951.07 5625.34 1955.72 5628.81 1961.63 5632.27 1967.54 5634 1974.23 5634 1981.71 5634 1988.46 5632.39 1994.8 5629.17 2000.71 5625.95 2006.62 5620.91 2011.38 5614.04 2015 5607.18 2018.62 5598.52 2020.43 5588.07 2020.43L5566.75 2020.43 5566.75 2068.91 5541.23 2068.91ZM5431.19 1942.63 5478.03 1942.63C5487.87 1942.63 5496.25 1944.32 5503.18 1947.69 5510.11 1951.07 5515.3 1955.72 5518.76 1961.63 5522.23 1967.54 5523.96 1974.23 5523.96 1981.71 5523.96 1988.46 5522.35 1994.8 5519.13 2000.71 5515.91 2006.62 5510.87 2011.38 5504 2015 5497.14 2018.62 5488.48 2020.43 5478.03 2020.43L5456.7 2020.43 5456.7 2068.91 5431.19 2068.91ZM5348.52 1941C5362.74 1941 5375.19 1944.62 5385.88 1951.86 5396.57 1959.09 5404.05 1969.1 5408.3 1981.89L5378.96 1981.89C5376.04 1975.86 5371.94 1971.34 5366.65 1968.32 5361.37 1965.3 5355.26 1963.8 5348.34 1963.8 5340.93 1963.8 5334.33 1965.52 5328.56 1968.95 5322.79 1972.39 5318.29 1977.25 5315.08 1983.52 5311.85 1989.79 5310.25 1997.15 5310.25 2005.59 5310.25 2013.91 5311.85 2021.24 5315.08 2027.57 5318.29 2033.91 5322.79 2038.79 5328.56 2042.23 5334.33 2045.67 5340.93 2047.38 5348.34 2047.38 5355.26 2047.38 5361.37 2045.85 5366.65 2042.77 5371.94 2039.7 5376.04 2035.14 5378.96 2029.11L5408.3 2029.11C5404.05 2042.02 5396.6 2052.06 5385.97 2059.23 5375.34 2066.41 5362.86 2070 5348.52 2070 5336.37 2070 5325.4 2067.26 5315.62 2061.77 5305.84 2056.28 5298.12 2048.65 5292.47 2038.88 5286.83 2029.11 5284 2018.01 5284 2005.59 5284 1993.17 5286.83 1982.04 5292.47 1972.21 5298.12 1962.38 5305.84 1954.72 5315.62 1949.23 5325.4 1943.74 5336.37 1941 5348.52 1941Z" fill="#00B0E0" fill-rule="evenodd"/><path d="M5319.71 2128.04C5314.37 2128.04 5309.65 2129.22 5305.54 2131.6 5301.43 2133.98 5298.23 2137.39 5295.94 2141.85 5293.65 2146.3 5292.51 2151.5 5292.51 2157.44 5292.51 2163.38 5293.65 2168.59 5295.94 2173.09 5298.23 2177.59 5301.43 2181.05 5305.54 2183.46 5309.65 2185.88 5314.37 2187.09 5319.71 2187.09 5325.05 2187.09 5329.76 2185.88 5333.82 2183.46 5337.89 2181.05 5341.07 2177.59 5343.36 2173.09 5345.65 2168.59 5346.79 2163.38 5346.79 2157.44 5346.79 2151.5 5345.65 2146.3 5343.36 2141.85 5341.07 2137.39 5337.89 2133.98 5333.82 2131.6 5329.76 2129.22 5325.05 2128.04 5319.71 2128.04ZM5723.91 2113.27 5789 2113.27 5789 2127.65 5765.35 2127.65 5765.35 2202.11 5747.56 2202.11 5747.56 2127.65 5723.91 2127.65ZM5563.7 2113.15 5615.18 2113.15 5615.18 2127.65 5581.49 2127.65 5581.49 2149.93 5611.37 2149.93 5611.37 2164.05 5581.49 2164.05 5581.49 2187.6 5615.18 2187.6 5615.18 2202.11 5563.7 2202.11ZM5470.93 2113.15 5488.73 2113.15 5529.03 2174.24 5529.03 2113.15 5546.82 2113.15 5546.82 2202.11 5529.03 2202.11 5488.73 2141.15 5488.73 2202.11 5470.93 2202.11ZM5378.16 2113.15 5395.96 2113.15 5436.26 2174.24 5436.26 2113.15 5454.06 2113.15 5454.06 2202.11 5436.26 2202.11 5395.96 2141.15 5395.96 2202.11 5378.16 2202.11ZM5673.09 2112.13C5683.01 2112.13 5691.7 2114.67 5699.15 2119.76 5706.61 2124.85 5711.82 2131.9 5714.79 2140.89L5694.32 2140.89C5692.29 2136.65 5689.43 2133.47 5685.74 2131.35 5682.06 2129.22 5677.8 2128.16 5672.97 2128.16 5667.8 2128.16 5663.2 2129.37 5659.17 2131.79 5655.15 2134.21 5652.01 2137.62 5649.77 2142.04 5647.52 2146.45 5646.4 2151.62 5646.4 2157.56 5646.4 2163.42 5647.52 2168.57 5649.77 2173.03 5652.01 2177.48 5655.15 2180.92 5659.17 2183.34 5663.2 2185.75 5667.8 2186.96 5672.97 2186.96 5677.8 2186.96 5682.06 2185.88 5685.74 2183.72 5689.43 2181.55 5692.29 2178.35 5694.32 2174.11L5714.79 2174.11C5711.82 2183.19 5706.63 2190.25 5699.22 2195.3 5691.8 2200.35 5683.09 2202.87 5673.09 2202.87 5664.62 2202.87 5656.97 2200.94 5650.15 2197.08 5643.32 2193.22 5637.94 2187.85 5634 2180.98 5630.06 2174.11 5628.09 2166.3 5628.09 2157.56 5628.09 2148.82 5630.06 2141 5634 2134.08 5637.94 2127.17 5643.32 2121.78 5650.15 2117.92 5656.97 2114.06 5664.62 2112.13 5673.09 2112.13ZM5223 2112.13C5232.92 2112.13 5241.6 2114.67 5249.06 2119.76 5256.52 2124.85 5261.73 2131.9 5264.7 2140.89L5244.23 2140.89C5242.2 2136.65 5239.34 2133.47 5235.65 2131.35 5231.96 2129.22 5227.71 2128.16 5222.88 2128.16 5217.71 2128.16 5213.11 2129.37 5209.08 2131.79 5205.06 2134.21 5201.92 2137.62 5199.67 2142.04 5197.43 2146.45 5196.31 2151.62 5196.31 2157.56 5196.31 2163.42 5197.43 2168.57 5199.67 2173.03 5201.92 2177.48 5205.06 2180.92 5209.08 2183.34 5213.11 2185.75 5217.71 2186.96 5222.88 2186.96 5227.71 2186.96 5231.96 2185.88 5235.65 2183.72 5239.34 2181.55 5242.2 2178.35 5244.23 2174.11L5264.7 2174.11C5261.73 2183.19 5256.54 2190.25 5249.13 2195.3 5241.71 2200.35 5233 2202.87 5223 2202.87 5214.53 2202.87 5206.88 2200.94 5200.06 2197.08 5193.23 2193.22 5187.85 2187.85 5183.91 2180.98 5179.97 2174.11 5178 2166.3 5178 2157.56 5178 2148.82 5179.97 2141 5183.91 2134.08 5187.85 2127.17 5193.23 2121.78 5200.06 2117.92 5206.88 2114.06 5214.53 2112.13 5223 2112.13ZM5319.71 2112C5328.1 2112 5335.75 2113.95 5342.66 2117.85 5349.57 2121.76 5355.03 2127.17 5359.06 2134.08 5363.08 2141 5365.1 2148.78 5365.1 2157.44 5365.1 2166.18 5363.08 2174 5359.06 2180.92 5355.03 2187.83 5349.55 2193.24 5342.6 2197.15 5335.65 2201.05 5328.02 2203 5319.71 2203 5311.41 2203 5303.78 2201.05 5296.83 2197.15 5289.88 2193.24 5284.37 2187.83 5280.3 2180.92 5276.24 2174 5274.2 2166.18 5274.2 2157.44 5274.2 2148.78 5276.24 2141 5280.3 2134.08 5284.37 2127.17 5289.88 2121.76 5296.83 2117.85 5303.78 2113.95 5311.41 2112 5319.71 2112Z" fill="#2A2E47" fill-rule="evenodd"/></g></svg>