<svg width="3328" height="1990" xmlns="http://www.w3.org/2000/svg" xmlns:xlink="http://www.w3.org/1999/xlink" xml:space="preserve" overflow="hidden"><defs><clipPath id="clip0"><rect x="485" y="276" width="3328" height="1990"/></clipPath></defs><g clip-path="url(#clip0)" transform="translate(-485 -276)"><path d="M351.808 1298.33C350.612 1296.34 348.618 1289.16 347.024 1282.39 345.429 1273.22 342.239 1269.24 337.057 1269.24 333.07 1269.24 326.691 1268.04 323.103 1266.85 318.717 1264.85 315.927 1266.85 314.332 1272.82 311.541 1284.38 300.378 1281.99 297.189 1269.64 293.999 1255.69 286.026 1254.89 284.431 1268.04 283.634 1276.01 280.843 1279.2 275.262 1279.2 269.282 1279.2 266.89 1276.01 266.092 1266.85 264.896 1252.5 252.537 1239.35 244.165 1242.53 240.577 1243.73 239.381 1248.91 240.577 1256.88 243.368 1277.21 229.015 1270.43 224.231 1249.31 223.035 1243.73 219.048 1235.76 215.46 1231.38 209.48 1223.41 209.081 1223.41 203.101 1232.57 194.33 1244.13 185.559 1243.73 185.559 1231.77 185.559 1221.01 169.612 1199.89 156.456 1193.12 150.077 1189.53 147.685 1189.93 144.894 1195.11 137.718 1207.46 130.541 1201.88 125.757 1180.36 122.967 1166.02 117.784 1156.05 110.209 1148.48 98.2485 1137.32 89.8767 1134.53 89.8767 1141.71 89.8767 1144.1 86.2886 1145.69 82.3018 1145.69 75.923 1145.69 73.9296 1141.71 71.9362 1122.98 70.3415 1109.03 63.5639 1087.51 54.3943 1067.98 35.2577 1027.73 24.0947 987.476 17.7159 935.268 8.94495 863.134 22.1013 753.538 46.4207 700.932 50.4075 691.368 53.9956 682.6 53.9956 681.006 53.9956 679.412 60.7732 668.253 68.7467 655.898 92.2683 621.226 93.8631 616.444 96.2551 582.17 98.6472 551.882 98.2485 548.694 89.0793 537.933 52.4009 492.501 40.0419 466.995 43.63 443.88 49.2115 408.81 69.1454 397.252 107.418 406.02 119.378 408.81 132.136 413.99 135.724 417.976 139.312 421.563 143.698 424.352 145.691 424.352 153.665 424.352 162.834 468.988 160.442 494.892 157.253 526.376 151.273 539.528 134.927 549.889 124.163 556.266 122.169 560.251 121.771 572.606 121.771 580.576 123.764 588.547 125.757 589.743 131.738 593.329 158.05 584.163 168.815 574.598 178.782 565.432 180.775 541.122 173.2 514.42 165.227 485.726 178.383 464.205 203.898 464.205L218.251 464.205 215.46 401.636C212.271 341.059 211.473 324.72 210.277 313.959 209.879 311.17 206.689 308.778 203.101 308.778 193.931 308.778 175.193 297.62 147.685 276.099 120.176 254.578 110.608 240.63 106.621 216.319 103.83 201.574 102.235 199.183 91.0723 196.791 83.8965 195.596 73.5309 191.212 68.3481 187.625 62.7666 184.039 54.3943 181.249 50.0088 181.249 45.6234 181.249 40.4406 178.061 39.2445 174.474 37.6498 170.488 31.6696 163.315 25.6894 158.533-0.623341 136.215-12.185 79.6237 3.76212 49.7339 13.7291 31.4014 18.1146 28.2133 54.793 14.2646 81.5044 3.90283 91.8697 2.30897 142.502-0.0822469 211.473-3.2704 272.471 4.7002 295.594 19.844 300.378 23.0326 320.711 25.8221 345.429 27.4164 368.154 28.612 407.224 30.6045 431.942 32.1988 475.398 34.5896 477.391 34.1913 483.371 25.8221 488.953 17.8515 491.743 17.0546 532.01 18.6484 581.845 20.2427 604.569 28.612 623.307 52.5238 642.843 77.6311 646.431 88.3912 644.836 117.883 643.64 132.628 620.915 165.308 611.746 165.308 607.36 165.308 602.975 167.699 601.779 170.488 600.583 173.677 586.629 182.843 570.283 190.814L541.18 205.958 540.781 237.442C540.781 260.557 538.389 273.31 532.409 285.664 528.023 294.83 524.435 304.395 524.435 306.388 524.036 317.148 505.299 333.089 490.149 335.48 481.776 336.676 472.607 339.466 469.817 341.458 467.424 343.451 464.634 363.776 463.039 391.673 461.843 417.179 459.85 454.641 458.654 474.966L457.059 511.63 468.222 514.022C488.953 518.405 508.488 550.687 508.488 579.779 508.488 605.684 511.279 611.661 524.036 611.661 530.017 611.661 542.376 618.038 554.336 627.603 576.263 645.138 584.237 647.529 584.237 635.972 584.237 621.226 579.851 615.647 570.283 618.038 561.911 620.031 559.519 617.639 551.944 600.901 532.409 559.454 544.768 497.682 574.669 488.117 591.413 482.538 626.497 486.922 642.843 496.885 666.364 510.834 671.946 523.188 671.946 560.65 671.547 609.271 656.398 633.581 624.503 637.167 617.327 637.964 609.752 641.153 607.759 643.942 600.981 654.304 608.556 679.412 622.51 694.556 635.666 708.505 667.959 758.719 680.717 785.022 683.906 791.797 688.69 811.325 691.481 828.86 694.272 846.396 698.259 871.902 700.252 885.053 703.84 904.182 703.043 916.139 698.259 940.847 688.69 989.07 676.73 1030.92 669.952 1038.09 666.763 1041.68 663.573 1052.44 663.573 1062.4 663.175 1071.96 660.384 1084.32 657.594 1089.9 634.072 1134.93 620.118 1167.61 620.118 1177.57 620.118 1183.95 618.125 1193.91 615.732 1199.89L611.746 1211.05 602.576 1199.49C595.001 1189.93 593.008 1189.13 591.014 1194.71 589.42 1198.7 585.832 1201.49 582.642 1201.49 575.865 1201.49 572.276 1209.86 572.276 1225.4 572.276 1239.75 564.702 1244.93 557.924 1235.76 553.539 1229.38 551.147 1229.38 538.788 1233.37 524.036 1238.15 521.644 1242.14 519.651 1267.24 518.854 1274.82 516.063 1279.2 512.475 1279.2 508.887 1279.2 505.697 1274.42 504.501 1267.24 501.71 1250.9 486.959 1250.11 485.365 1266.45 483.77 1279.6 476.594 1280.4 460.647 1268.84 443.504 1256.08 429.55 1260.87 427.955 1280.4 427.158 1291.95 425.165 1295.14 418.786 1295.14 412.805 1295.14 410.413 1291.95 408.819 1281.19 407.623 1273.22 404.433 1267.24 402.041 1267.64 399.25 1268.04 390.48 1268.44 382.905 1268.84 368.552 1269.24 367.755 1270.43 363.369 1290.36 360.977 1300.72 355.396 1304.31 351.808 1298.33ZM344.233 1246.52C348.22 1238.55 343.834 1164.82 335.063 1087.91 327.488 1021.35 327.09 984.686 334.664 978.708 337.854 975.918 341.043 975.52 342.239 977.114 343.037 978.708 345.03 1001.03 346.625 1026.13 348.22 1051.24 351.808 1096.27 354.997 1125.77 358.187 1155.26 361.376 1193.91 362.173 1211.85 362.971 1229.78 364.964 1246.12 366.559 1248.51 370.147 1254.09 399.649 1252.1 406.028 1245.72 410.015 1241.74 408.819 1219.42 396.858 1107.83 391.676 1060.01 392.074 991.062 397.257 987.874 405.231 983.092 408.819 995.446 408.819 1028.13 409.217 1062 414.002 1118.19 420.779 1163.63 422.772 1179.17 425.962 1203.48 427.557 1218.62L429.949 1245.32 442.706 1245.32C457.059 1245.32 460.647 1240.14 458.255 1225 457.457 1219.82 455.065 1195.91 452.673 1171.6 450.68 1147.68 446.294 1101.85 442.706 1069.97 435.929 1006.21 437.125 985.085 447.889 987.077 453.072 987.874 454.667 993.055 455.464 1008.2 455.863 1019.36 457.856 1049.65 460.248 1075.95 462.64 1102.25 466.627 1146.89 468.621 1174.78 472.607 1223.41 476.594 1241.34 484.169 1241.34 486.162 1241.34 491.743 1238.15 496.926 1233.77L506.096 1226.59 500.514 1151.27C492.541 1036.1 491.743 987.874 498.122 982.295 509.285 973.128 510.88 984.686 514.468 1105.84 515.664 1152.87 518.056 1197.5 519.252 1204.67 521.644 1219.42 530.415 1221.41 544.369 1210.25L553.539 1202.68 548.754 1129.35C542.376 1022.15 541.578 987.476 547.16 981.896 549.552 979.505 553.14 978.31 555.532 979.903 557.525 981.099 560.316 1019.36 561.911 1064.79 564.702 1144.9 568.29 1178.77 574.27 1184.75 575.466 1186.34 582.243 1181.56 589.021 1173.99L600.981 1160.84 599.785 1071.57C598.589 1005.41 599.387 981.498 603.373 977.512 605.766 975.121 609.354 974.324 610.948 975.918 612.543 977.512 614.536 1013.78 615.334 1056.42L616.929 1133.74 625.301 1118.99C638.457 1093.88 648.025 1062 650.816 1033.31 652.81 1011.39 655.6 1003.02 664.77 991.461 680.318 971.535 681.913 963.962 681.913 904.581 681.913 844.802 676.331 815.31 658.79 779.044 643.241 747.162 616.53 710.497 610.55 712.49 607.36 713.685 606.563 734.409 606.962 779.443 608.158 849.983 603.373 879.474 591.413 881.865 586.629 882.662 583.838 879.872 581.845 873.097 580.649 867.518 577.061 862.736 574.27 862.736 566.296 862.736 565.499 855.562 570.682 830.455 573.074 818.1 576.662 776.254 578.257 737.996L581.047 668.253 571.878 663.072C566.695 660.282 555.931 653.109 548.356 647.131 533.206 634.776 505.697 623.617 497.724 626.407 489.75 629.197 491.743 639.16 503.704 655.101 525.631 683.397 526.428 688.179 519.252 720.46 510.481 757.524 510.481 761.11 521.644 769.878 526.827 773.863 532.807 785.819 535.598 797.775 540.382 816.506 540.382 819.694 532.807 834.042 528.422 843.208 522.84 851.178 520.448 852.772 512.873 857.555 516.461 866.721 532.807 881.865 547.16 895.016 549.153 899.002 546.761 908.168 544.768 916.139 539.186 921.319 525.232 927.297 497.325 940.05 474.601 938.456 442.706 922.117 412.407 906.972 402.44 892.626 410.015 875.887 414.4 866.323 420.779 863.533 444.7 861.938 458.255 860.743 458.654 859.946 460.647 842.809 461.843 832.846 465.83 820.492 469.817 814.912 473.405 809.731 476.594 800.565 476.594 794.985 476.594 778.646 462.242 731.221 453.471 719.265 441.909 703.722 440.314 663.47 451.079 649.522 460.248 637.167 463.836 647.529 461.444 679.412 459.85 705.715 459.85 707.309 469.418 711.693 478.188 715.279 479.783 719.663 482.175 739.59 483.371 752.741 486.162 766.69 488.554 771.074 495.332 783.827 493.338 810.528 484.169 822.085 478.188 830.056 476.594 835.635 478.587 847.193 480.979 859.946 479.783 862.736 470.215 870.308 463.836 875.489 453.869 878.677 444.301 878.677 418.387 878.677 420.779 888.241 452.275 908.168 474.999 922.914 495.332 925.305 514.069 916.537 531.611 908.168 532.01 899.401 515.664 888.64 495.73 875.887 494.534 862.337 510.88 838.425 522.442 822.085 524.435 816.107 522.442 806.543 520.847 799.768 516.86 793.391 513.671 792.195 506.893 789.406 491.345 756.328 494.534 750.749 495.73 748.756 499.318 734.808 502.109 719.663 507.292 692.165 507.292 692.165 496.129 672.637 488.953 660.681 484.567 647.928 484.567 638.363 484.567 624.016 483.77 623.219 473.803 624.414 465.032 625.212 461.046 622.821 452.673 610.068 446.693 601.698 437.125 592.134 431.543 589.344 419.982 582.968 284.83 573.004 268.484 576.99 260.112 579.381 258.916 581.373 260.511 591.336 261.707 600.104 259.713 605.684 251.74 613.654 242.57 622.821 241.374 626.806 241.374 654.304 241.374 685.39 238.185 700.534 225.028 730.423 215.859 751.147 215.46 758.719 224.231 785.819 230.61 805.746 230.61 807.739 224.231 820.89 214.663 841.215 215.46 851.577 228.616 858.75 236.191 863.134 243.368 864.33 253.335 862.337 274.464 857.555 295.993 862.337 309.149 874.691 324.698 889.437 325.495 907.371 310.744 916.936 301.176 923.312 299.581 923.312 286.823 917.334 269.68 908.965 253.733 908.567 250.544 916.537 249.348 920.124 243.368 925.305 236.989 928.493 224.63 935.268 213.068 932.479 193.533 918.53 187.154 914.146 179.579 910.559 175.991 910.559 171.207 910.559 169.612 906.574 169.612 894.618 169.612 885.85 171.605 878.677 173.599 878.677 179.579 878.677 178.383 856.359 170.808 825.274 165.227 802.159 164.828 792.195 168.416 765.494 173.2 729.228 169.612 639.559 162.436 622.821 158.449 612.857 157.652 612.459 143.698 617.639 135.326 620.031 127.352 624.813 125.757 627.603 123.764 630.791 123.365 671.84 124.561 718.866 126.156 792.594 125.757 806.942 120.176 820.093 116.588 828.063 111.804 834.838 109.81 834.838 100.242 834.838 97.8498 817.303 99.8432 766.291 102.634 711.693 99.0459 667.456 91.8697 666.659 89.8767 666.26 79.1124 682.998 68.7467 703.323 43.2313 752.741 37.6498 786.218 37.6498 892.626 37.6498 962.368 38.4472 975.121 45.6234 996.243 50.0088 1009.39 53.9956 1022.94 53.9956 1026.53 53.9956 1030.12 57.5837 1037.29 61.9692 1042.47L69.5441 1052.04 70.3415 1006.21C70.7401 955.593 73.5309 940.449 81.9031 940.449 86.2886 940.449 87.4846 954.796 87.4846 1020.55L87.8833 1101.06 99.0459 1112.22C105.425 1118.59 111.405 1121.78 113.398 1119.39 115.392 1117.4 115.392 1097.07 113.398 1073.96 108.215 1007.8 109.013 963.962 114.993 958.782 118.182 956.39 121.771 955.593 122.967 957.187 124.561 958.383 125.757 982.295 125.757 1009.79 126.156 1037.29 128.548 1080.73 131.339 1105.44L136.92 1151.27 153.266 1166.81C162.834 1175.18 170.808 1181.56 171.605 1180.76 172.004 1180.36 171.207 1164.42 169.213 1145.69 162.436 1077.14 156.854 982.295 158.848 976.317 160.442 973.128 164.03 970.339 166.821 970.339 171.207 970.339 173.2 980.7 175.193 1013.38 180.775 1101.06 189.945 1173.59 197.918 1192.32 209.48 1219.02 215.061 1210.65 209.48 1175.18 203.898 1137.72 192.337 971.136 195.127 963.962 196.323 961.173 199.912 958.383 203.5 958.383 208.284 958.383 209.48 963.564 209.48 984.686 209.48 1037.69 222.238 1164.42 231.008 1199.49 236.59 1221.01 246.956 1231.38 253.335 1221.41 255.328 1218.22 256.125 1212.64 254.531 1209.46 247.753 1194.31 240.178 1020.55 244.564 977.114 245.361 964.759 248.55 956.789 252.138 955.593 262.105 951.608 263.7 960.774 259.713 999.033 257.321 1024.54 257.72 1051.24 260.909 1083.92 263.301 1110.22 265.295 1142.11 265.295 1154.46 265.295 1174.39 267.687 1190.33 275.66 1228.59 277.255 1236.96 290.411 1241.34 294.398 1234.56 295.195 1232.57 293.601 1212.64 290.411 1189.53 287.62 1166.42 283.235 1128.95 281.242 1105.84 279.647 1082.72 276.458 1050.04 274.863 1032.91 271.674 996.243 279.647 959.578 292.405 955.195 298.385 953.202 298.385 969.143 292.405 993.055 289.215 1007 288.816 1021.35 292.405 1051.64 294.797 1073.96 298.783 1111.82 301.176 1135.73 310.744 1231.77 313.535 1245.72 322.704 1249.31 335.462 1254.49 340.645 1254.09 344.233 1246.52ZM239.779 904.581C255.328 888.64 261.707 887.444 282.438 898.603 297.986 906.972 305.162 906.176 305.162 896.611 305.162 882.662 262.105 871.503 250.942 882.662 245.361 888.241 221.44 880.669 209.081 869.112 199.114 859.946 198.716 857.953 201.905 841.215 203.898 830.853 207.088 818.897 209.48 814.513 213.068 808.137 212.669 802.557 207.885 790.602 199.912 771.472 199.513 739.988 207.088 731.619 217.453 719.265 225.427 686.187 225.427 653.906 225.427 628.001 227.022 619.632 233.401 611.661 244.165 598.111 243.368 588.547 231.407 582.968 223.035 579.381 220.244 579.779 213.068 586.156 208.682 590.141 199.114 595.322 192.337 597.713 178.383 602.097 178.383 600.901 183.964 646.334 185.559 660.282 188.749 673.035 191.539 675.427 195.127 678.216 195.526 684.593 193.134 696.548 182.37 755.133 181.174 826.071 191.141 842.012 192.337 844.005 193.533 855.961 193.931 869.112 194.729 890.234 196.323 893.821 208.284 905.777 215.859 912.552 223.035 918.53 224.231 918.53 225.028 918.53 232.205 912.153 239.779 904.581ZM638.856 616.444C648.025 610.466 655.999 583.765 655.999 559.055 655.999 530.76 650.417 519.601 632.078 510.036 620.118 503.66 581.845 502.066 573.473 507.247 566.296 511.63 560.316 530.76 560.316 548.295 560.316 565.831 579.851 599.706 590.217 599.706 593.406 599.706 598.988 604.089 602.576 609.669 609.354 619.632 628.091 623.219 638.856 616.444ZM487.757 588.945C493.737 575.794 494.135 563.041 488.155 557.063 485.763 554.672 481.378 548.295 478.986 543.114 473.803 533.151 453.869 529.564 455.863 539.129 456.261 542.317 457.856 553.078 459.451 563.041 461.843 583.366 469.817 599.706 477.79 599.706 480.182 599.706 484.966 594.923 487.757 588.945ZM216.656 553.875C217.453 547.498 221.44 537.933 225.826 532.752 235.793 520 236.191 492.899 226.623 485.726 217.055 478.552 194.729 478.552 190.742 485.726 189.147 488.914 189.147 508.841 191.141 529.963 195.127 567.823 195.127 568.222 205.094 567.026 213.068 566.229 215.859 563.44 216.656 553.875ZM245.361 549.889C245.361 546.701 242.57 543.911 239.381 543.911 236.191 543.911 233.401 546.701 233.401 549.889 233.401 553.078 236.191 555.867 239.381 555.867 242.57 555.867 245.361 553.078 245.361 549.889ZM413.603 518.007C415.198 498.479 417.988 455.438 419.982 422.36 421.975 389.68 425.165 359.392 426.759 355.407 430.746 345.842 420.779 332.292 403.237 322.727 390.878 315.952 387.29 311.17 382.107 292.837 376.924 274.903 376.526 267.73 380.513 253.782 386.094 231.862 401.643 207.951 416.792 196.791 432.739 184.836 431.942 176.466 414.002 162.518 363.768 123.462 332.272 117.883 267.288 135.418 245.361 141.396 219.845 147.772 210.676 150.163 183.167 156.54 181.971 162.916 206.689 172.88 228.218 181.648 238.583 192.009 256.524 222.297 263.301 234.254 265.295 244.217 265.295 264.94 265.295 289.251 264.497 292.439 256.923 294.83 248.949 297.62 248.55 299.612 250.942 324.321 252.138 338.668 254.132 364.174 254.929 380.514 255.727 396.854 259.315 430.33 262.903 454.242 266.092 478.552 269.282 508.044 269.282 520 269.282 531.955 270.876 543.911 272.471 546.701 275.262 551.483 329.083 554.672 388.885 554.273L410.812 553.875 413.603 518.007ZM137.718 523.188C146.887 508.044 148.482 471.379 140.907 453.445 134.528 438.301 121.771 424.352 114.196 424.352 111.006 424.352 102.634 422.36 95.4578 419.57 84.6939 415.983 80.7071 415.983 72.7335 421.563 55.989 432.323 53.5969 468.988 69.5441 474.169 73.5309 475.364 78.7137 482.936 81.1058 491.306 93.4644 532.354 122.169 548.295 137.718 523.188ZM495.73 310.771C514.468 294.83 524.834 268.527 523.638 239.833L522.442 215.522 504.501 208.747C472.209 196.791 453.869 192.408 445.896 194.799 435.53 197.987 412.805 218.312 412.805 224.29 412.805 227.08 411.211 229.072 409.616 229.072 403.237 229.072 396.858 249.397 396.858 270.121 396.858 290.446 397.656 291.642 415.995 305.59 432.739 318.742 437.524 320.336 459.451 320.336 479.783 320.734 485.763 319.14 495.73 310.771ZM243.368 286.062C253.733 275.7 249.746 243.021 234.995 218.711 219.447 193.603 194.729 180.85 162.436 180.85 142.901 180.85 138.515 182.046 130.94 191.212 124.163 199.183 122.568 204.364 124.561 213.928 127.352 228.276 127.352 227.877 148.083 252.187 172.403 280.085 192.337 292.04 216.257 292.439 230.61 292.837 238.982 290.845 243.368 286.062ZM548.356 184.437C555.931 180.053 569.486 172.481 578.655 167.699 610.55 151.359 632.078 126.252 632.078 105.528 632.078 93.5723 618.922 69.6606 605.367 56.9075 589.021 41.7633 561.114 33.7927 524.435 33.7927 494.933 33.7927 492.939 34.1913 491.743 42.9589 490.547 51.3281 489.351 51.7264 445.098 50.9295 420.38 50.5308 394.466 48.14 387.689 46.147 381.31 43.7558 359.781 41.7633 340.246 41.7633 321.109 41.7633 301.176 39.7707 295.993 36.9808 278.451 28.2133 274.464 26.619 250.942 21.4383 226.224 15.4603 109.013 14.2646 88.6807 19.4458 70.7401 23.8295 75.5243 32.5971 97.4512 34.5896 138.116 38.5751 209.48 82.0149 228.616 114.694 236.191 127.447 244.962 128.244 268.883 117.484 281.641 111.506 294.797 109.514 320.711 109.514 351.808 109.514 357.389 110.709 382.506 123.462 397.656 131.034 412.805 139.802 416.394 142.99 428.753 153.75 467.424 173.278 476.195 173.278 487.358 173.278 524.036 185.234 526.827 189.618 530.017 194.799 532.807 194.002 548.356 184.437ZM118.581 173.278C121.372 168.895 125.359 165.308 127.352 165.308 129.345 165.308 149.678 157.736 172.004 148.57 216.656 130.635 219.845 126.65 204.297 109.115 181.971 82.8118 132.136 56.9075 89.8767 48.9369 77.9163 46.9444 63.1652 44.1545 57.1851 42.9589 39.6432 39.7707 26.4868 44.9514 18.1146 58.9001 7.35023 76.0369 8.14759 95.9636 20.1079 119.875 29.2776 138.208 55.989 165.308 65.1586 165.308 67.152 165.308 71.9362 168.895 75.923 173.278 80.7071 178.459 88.282 181.249 98.2485 181.249 109.412 181.249 114.993 178.858 118.581 173.278Z" fill="#8F8073" fill-rule="evenodd" transform="matrix(1 0 0 -1 3110 2137)"/><path d="M282.149 211.007C240.665 210.21 193.994 196.656 165.673 177.919 155.302 170.743 143.335 163.567 139.745 162.371 136.155 160.776 131.767 155.594 129.773 150.81 126.981 143.634 128.177 139.648 135.756 132.472 142.537 125.695 144.532 120.512 143.335 111.742 142.139 104.965 140.543 94.2015 139.346 87.4241 131.369 37.9909 214.737-1.87479 265.396 27.6257 272.974 32.0108 288.132 36.396 298.902 37.9909 335.202 42.376 358.337 48.7543 376.686 59.1191 408.198 77.0589 428.542 93.0051 428.542 99.7825 428.542 110.546 353.152 184.297 328.021 198.649 308.874 209.014 300.897 211.406 282.149 211.007ZM565.76 211.007C551.101 210.409 533.051 206.821 512.708 200.243 485.982 191.872 478.802 187.885 475.212 179.912 472.818 173.932 465.638 162.77 459.256 154.398 448.087 140.046 448.087 138.851 454.47 131.675 461.251 124.1 474.414 118.121 492.364 114.134 497.949 112.938 507.921 106.958 515.101 100.579 543.422 74.2684 553.394 70.6802 589.295 73.8694 641.549 77.8562 679.444 94.2015 674.258 110.148 673.062 114.134 664.685 124.898 655.909 133.668 647.532 142.438 640.352 151.209 639.954 152.804 639.954 157.587 608.84 195.858 598.469 203.832 591.688 209.213 580.419 211.605 565.76 211.007ZM571.794 227.252C586.104 226.854 597.871 223.565 607.245 217.386 615.223 211.805 626.392 201.041 631.976 193.068 637.56 185.095 651.92 165.959 664.286 150.411 689.815 117.722 693.405 108.951 688.219 94.5997 683.034 81.0454 648.729 65.0992 614.026 59.9168 556.984 51.9439 539.832 55.5313 511.91 82.6404 498.746 95.3974 485.583 100.579 455.666 106.559 445.694 108.553 444.497 107.357 444.497 97.3903 444.497 87.8224 440.11 82.6404 419.766 67.8901 381.473 39.5851 356.343 29.619 304.886 22.443 294.914 20.8488 277.761 15.2674 266.193 10.0846 236.676-3.86838 209.95-3.46974 178.039 12.0778 164.477 18.8555 153.308 26.0308 153.308 28.024 153.308 30.4159 150.914 32.0108 147.723 32.0108 137.352 32.0108 121.396 65.4982 121.396 87.8224 121.396 104.965 120.2 108.951 113.419 110.546 107.036 112.141 105.44 116.127 105.44 131.276 105.44 152.405 107.834 156.391 133.762 176.723 156.1 194.662 181.23 206.224 223.114 217.784 265.396 229.744 303.689 230.143 326.027 218.98 348.365 207.818 373.495 187.486 402.215 157.986 414.98 144.432 426.548 135.661 427.345 138.452 428.143 140.844 434.126 149.215 440.508 156.391 447.29 163.567 452.475 173.533 452.475 178.318 452.475 195.061 470.425 205.825 521.084 219.778 540.63 225.16 557.483 227.651 571.794 227.252ZM440.285 393.54C441.668 392.861 442.491 391.242 442.491 388.55 442.491 385.361 414.17 324.766 400.209 298.056 398.214 294.069 396.619 287.691 396.619 283.306 396.619 270.15 392.231 262.974 383.854 262.974 377.073 262.974 376.275 264.968 378.269 276.13 381.86 295.265 407.389 357.854 419.754 377.787 426.934 389.149 436.134 395.577 440.285 393.54ZM393.719 393.93C397.958 395.424 400.65 393.531 400.65 387.75 400.65 384.162 397.06 377.385 393.071 373 381.104 359.845 352.384 302.438 349.193 284.897 347.598 274.532 344.406 268.552 339.62 267.755 320.074 263.769 345.603 338.317 377.514 379.777 383.697 387.551 389.481 392.435 393.719 393.93ZM245.081 395.528C238.3 396.724 219.951 391.542 205.591 384.765 200.406 381.974 190.035 372.008 182.855 362.44 172.483 348.886 169.292 340.912 169.292 328.155 169.292 315.398 166.899 309.817 158.921 302.641 150.145 295.067 148.949 291.479 151.342 279.121 154.932 257.195 165.702 250.418 194.821 250.418 227.131 250.418 251.863 263.175 262.633 284.702 266.621 293.473 272.605 305.831 275.796 312.209 291.751 344.899 284.571 387.555 261.835 391.94 255.851 393.535 248.273 394.731 245.081 395.528ZM512.637 421.043C505.357 420.544 498.776 416.059 490.399 407.488 477.236 393.933 474.842 387.157 476.039 367.224 476.438 362.839 475.241 357.656 472.848 356.46 470.454 354.866 470.454 349.284 472.848 340.912 474.842 334.135 476.438 322.973 476.438 316.595 476.438 303.439 494.388 274.337 502.366 274.337 505.158 274.337 509.546 271.546 512.338 268.357 515.928 263.972 525.501 262.378 546.642 262.378 574.964 262.378 576.559 262.776 592.515 277.128 608.47 291.479 608.869 292.277 607.274 314.202 606.077 332.541 602.886 340.116 589.324 358.055 565.789 389.947 557.812 398.319 539.064 410.677 527.895 418.053 519.917 421.541 512.637 421.043ZM192.428 624.755C178.068 621.965 153.736 600.836 153.337 590.87 153.337 588.478 149.747 583.295 145.359 579.309 134.988 570.139 135.387 557.382 145.758 539.842 160.916 514.328 193.226 511.936 211.176 535.855 219.154 546.22 221.148 553.396 221.148 572.133 221.148 603.627 217.957 612.397 204.794 619.174 198.81 622.364 193.226 625.154 192.428 624.755ZM598.897 648.824C593.512 648.974 587.728 647.08 582.543 643.093 578.155 639.904 571.773 637.911 568.182 639.107 559.008 641.898 544.249 624.755 542.255 608.809 541.457 601.235 539.462 586.883 538.266 576.917 535.075 552.599 543.452 535.058 560.205 531.47 566.587 529.876 575.363 529.876 578.953 531.071 582.942 531.869 593.712 535.058 602.487 537.051 615.65 540.639 620.437 544.626 625.622 554.991 637.988 580.904 632.404 619.972 612.858 642.296 609.268 646.482 604.282 648.675 598.897 648.824ZM263.48 669.056C261.635 670.402 260.439 669.604 259.441 667.013 252.66 648.675 260.239 625.154 273.004 625.154 278.588 625.154 280.981 627.945 280.981 634.323 280.981 639.107 276.594 649.871 271.408 658.242 267.818 664.222 265.325 667.711 263.48 669.056ZM217.39 678.966C214.342 678.898 210.378 678.275 205.193 677.378 192.029 674.986 191.231 674.189 191.231 659.04 191.231 644.688 192.428 642.695 206.788 635.918 226.333 626.749 229.923 630.337 228.328 657.046 227.431 674.388 226.533 679.172 217.39 678.966ZM527.595 999.292C525.102 998.794 522.31 996.303 517.922 991.519 513.934 986.735 505.956 980.755 500.371 978.363 490.399 973.181 476.438 973.978 476.438 979.559 476.438 983.546 458.089 991.917 448.914 991.917 444.526 991.917 440.138 989.127 438.942 985.539 435.751 976.769 435.352 977.167 447.718 973.978 468.859 968.796 476.438 961.221 476.438 944.477 476.438 935.308 473.246 925.342 468.46 918.964 458.886 906.605 458.488 897.835 466.864 871.922 474.443 848.8 472.848 829.266 460.881 804.549 447.318 776.245 450.51 752.724 472.848 720.433 479.23 711.662 479.629 706.48 476.039 682.96 471.651 651.864 474.044 641.1 484.016 641.1 495.584 641.1 501.169 651.465 501.967 673.79 503.163 700.899 501.169 705.683 491.994 702.892 486.011 700.899 484.416 702.494 484.416 709.669 484.416 720.831 488.006 726.413 497.579 730 506.354 733.19 506.754 759.501 498.377 798.569 495.186 814.117 492.393 836.442 492.393 848.402 492.393 867.537 493.989 871.922 504.36 881.49 519.119 895.443 519.119 901.422 506.354 918.565 500.77 925.74 496.382 936.903 496.382 943.68 496.382 953.647 498.377 955.64 508.349 958.032 514.731 959.626 524.704 966.005 530.288 972.782 541.457 986.336 542.255 988.329 535.474 995.107 532.282 998.296 530.089 999.791 527.595 999.292ZM172.384 1005.57C169.292 1005.67 164.905 1003.48 159.719 999.093 148.151 988.728 58.7994 813.718 55.2094 793.786 52.8159 780.231 48.0293 775.049 37.6584 774.65 34.4671 774.65 29.2818 769.468 25.6917 762.691 22.5008 756.312 18.5117 750.332 16.9164 749.534 5.74728 744.352 24.8943 714.453 43.6415 706.48 56.805 700.899 108.262 694.122 115.442 696.912 117.835 697.71 126.611 698.507 135.387 698.507L151.342 698.906 151.342 805.347C151.342 899.429 152.14 912.585 158.123 918.565 161.713 922.153 167.298 924.146 170.489 922.95 174.877 921.355 176.871 907.004 178.866 855.577 183.253 739.568 186.046 702.892 190.035 698.108 192.428 695.318 199.209 692.926 205.193 692.926L215.963 692.926 218.755 735.981C220.351 764.684 219.553 783.819 216.761 792.191 214.367 799.367 213.171 813.32 214.766 823.684 216.361 835.644 214.766 853.584 210.378 872.321 206.788 888.666 203.996 909.396 203.996 918.166 204.794 934.112 204.395 934.511 187.243 939.694 172.882 943.68 169.691 946.869 167.697 956.836 166.101 964.41 167.697 973.579 171.287 981.154 174.478 987.931 177.27 995.505 177.27 998.296 177.27 1003.08 175.475 1005.47 172.384 1005.57ZM573.767 1026.6C571.374 1027.4 566.986 1017.83 564.194 1003.88 561.402 990.721 555.817 975.971 551.828 971.187 547.44 966.802 544.249 961.221 544.249 959.228 544.249 957.633 537.867 952.849 530.288 949.262 522.709 945.673 516.327 941.288 516.327 939.295 516.327 937.701 519.917 929.329 524.704 920.558 533.479 903.017 532.282 881.49 522.31 877.503 510.344 873.118 507.95 851.591 514.332 806.542 517.524 782.623 520.316 753.92 520.316 742.359 520.316 720.034 523.108 716.845 544.249 716.845 552.626 716.845 556.615 719.237 558.609 725.615 559.806 730.399 560.604 777.441 559.806 830.462L558.21 926.139 574.166 926.139 590.122 926.139 591.318 830.462C591.717 777.839 594.11 733.19 596.105 731.196 601.69 725.615 693.434 739.967 707.794 748.738 712.581 751.528 711.783 755.116 703.805 772.258 698.619 783.421 691.838 792.59 689.046 792.59 683.462 792.59 667.506 825.279 649.556 872.321 643.971 886.274 636.791 901.024 633.201 905.01 620.836 918.565 616.049 928.93 593.712 985.539 584.936 1007.47 576.16 1025.8 573.767 1026.6ZM536.421 1092.38C533.679 1088.39 532.881 1075.83 533.878 1054.51 536.271 1010.65 550.632 1003.48 555.019 1044.54 556.615 1060.09 555.418 1069.66 550.632 1078.82 543.85 1091.78 539.163 1096.37 536.421 1092.38ZM369.778 1341.58C368.389 1340.77 367.042 1338.95 365.945 1335.96 364.35 1331.97 356.771 1319.21 349.192 1307.25 335.63 1286.92 334.832 1284.13 332.439 1237.49 330.843 1211.18 329.247 1158.95 329.247 1122.28 328.849 1060.49 328.449 1055.3 322.067 1056.5 315.685 1057.7 314.887 1065.27 314.089 1143.41 313.691 1190.45 312.893 1233.5 312.893 1238.29 312.893 1243.87 310.898 1247.06 308.106 1246.26 296.937 1242.67 292.549 1212.77 290.156 1127.86 288.959 1080.42 287.364 1040.95 286.566 1040.15 285.768 1039.36 282.178 1039.76 278.588 1041.35 272.206 1043.74 272.206 1050.52 274.599 1115.1 276.993 1185.27 275.397 1205.6 268.616 1194.43 266.621 1191.64 265.026 1164.93 264.627 1135.43 264.228 1061.68 261.037 1038.16 251.863 1036.57 245.081 1034.97 244.683 1038.96 245.48 1089.99 246.278 1148.19 243.087 1158.56 231.12 1135.43 225.935 1125.47 225.137 1114.3 226.333 1082.41 227.131 1060.09 228.727 1038.16 229.525 1033.78 230.721 1027.8 229.126 1025.8 223.143 1025.8 213.968 1025.8 209.979 1037.36 209.581 1066.86 209.181 1078.03 207.586 1087.6 205.193 1087.6 203.198 1087.6 201.204 1085.6 201.204 1083.21 201.204 1080.42 198.411 1076.43 194.423 1073.64 189.237 1069.66 188.04 1062.08 188.04 1038.56 188.04 1005.87 192.428 995.904 207.187 995.904 212.373 995.904 217.159 993.113 218.755 989.924 221.547 982.35 232.716 982.35 235.508 989.924 239.497 999.89 263.031 1005.07 275.796 999.093 285.768 994.309 286.965 991.519 286.965 973.181 286.566 956.039 284.571 950.856 273.403 938.099 264.228 927.335 261.037 920.558 262.633 914.578 264.228 910.193 267.02 897.436 269.015 887.071 271.009 876.307 276.594 862.753 280.981 856.375 294.943 836.841 302.522 750.73 290.954 746.345 287.763 744.751 284.971 739.967 284.971 735.183 284.971 724.021 278.987 715.25 273.403 718.44 267.02 722.426 267.818 739.568 275.397 750.332 284.571 764.684 278.987 823.286 266.621 846.807 261.436 856.773 254.256 879.497 250.267 897.835L243.486 931.322 258.245 947.667C267.02 957.633 273.004 967.998 273.004 973.978 273.004 987.532 261.835 991.519 253.458 981.154 241.89 967.201 232.317 964.011 218.755 969.991 208.384 974.377 205.591 973.978 198.013 967.998 186.046 958.032 186.843 952.052 200.406 952.052 218.356 951.653 225.935 943.282 223.143 925.74 221.946 916.97 222.744 898.632 225.137 884.28 233.115 837.239 233.912 830.462 229.923 820.495 227.53 813.718 228.328 804.948 233.115 790.596 239.098 773.853 239.497 766.278 235.907 743.953 232.317 721.23 232.716 716.048 238.3 707.277 247.873 692.926 265.824 690.135 280.981 701.696 292.151 709.669 299.729 711.264 344.006 713.257 375.918 714.852 399.851 718.041 409.026 722.027 422.188 728.007 423.784 728.007 429.767 720.831 433.756 716.048 438.942 714.054 444.128 715.649 454.498 718.44 454.498 717.642 444.526 737.575 433.358 761.096 435.352 792.988 449.712 815.313 456.493 826.076 457.291 854.78 450.908 869.929 442.133 891.058 442.931 912.983 452.903 925.74 464.87 940.89 461.679 952.849 444.128 957.235 425.778 961.62 417.801 975.971 424.98 992.316 432.958 1012.25 465.668 1015.44 480.028 998.296 488.803 987.931 493.989 990.721 507.551 1013.84L521.114 1036.17 519.518 1090.78C518.321 1143.81 517.922 1145.8 506.354 1163.34 499.972 1173.31 493.191 1184.07 491.994 1187.26 487.606 1196.83 484.814 1179.29 479.23 1109.52 475.241 1058.09 473.246 1045.74 468.46 1045.74 460.482 1045.74 460.482 1088.79 468.061 1163.74L473.646 1218.35 462.078 1241.48C448.116 1269.38 441.335 1278.15 438.942 1270.18 436.947 1264.2 433.756 1201.21 429.767 1098.76 428.571 1059.69 426.177 1027.8 424.98 1027.8 423.385 1027.8 420.194 1029.79 417.402 1032.58 411.419 1038.56 411.02 1135.43 416.604 1178.09 418.598 1194.04 420.593 1229.52 420.992 1256.62 421.391 1298.88 420.194 1308.85 413.812 1319.61 401.846 1339.94 397.856 1337.55 393.469 1308.05 387.485 1269.78 380.704 1179.29 380.704 1141.81 380.704 1124.67 378.71 1094.37 375.918 1074.84 372.328 1046.53 369.934 1039.76 365.147 1040.55 360.76 1041.75 358.765 1046.13 359.164 1055.7 359.962 1086.4 368.738 1223.93 372.726 1266.99 375.12 1292.11 377.513 1318.82 377.912 1326.39 378.51 1337.45 373.948 1344.03 369.778 1341.58ZM344.922 1419C350.588 1419.28 352.383 1404.93 348.793 1379.81 346.799 1365.06 346.001 1351.9 347.197 1349.91 349.99 1345.53 360.76 1345.92 360.76 1350.31 360.76 1352.7 365.147 1359.08 370.732 1365.06 376.316 1371.04 380.704 1379.81 380.704 1384.59 380.704 1394.16 389.48 1404.13 393.868 1399.74 395.463 1398.55 396.66 1391.37 396.66 1384.19 396.66 1372.24 417.402 1339.55 425.778 1339.15 427.374 1338.75 428.571 1346.72 428.571 1356.29 428.571 1373.43 436.947 1387.38 442.133 1379.01 443.728 1376.62 444.526 1359.08 443.728 1339.55 442.931 1310.44 444.128 1302.47 450.51 1292.5 454.898 1286.13 460.482 1277.36 462.875 1273.37 471.252 1257.82 475.241 1262.6 477.634 1291.31 480.028 1319.21 484.814 1331.57 491.197 1325.19 492.792 1323.6 494.388 1297.69 494.388 1267.79 494.388 1213.97 494.388 1212.77 505.956 1196.43 512.338 1186.86 519.119 1179.29 520.316 1179.29 521.911 1179.29 524.305 1198.42 525.501 1221.94 527.895 1263.8 531.884 1276.96 540.659 1268.19 543.452 1265.4 543.452 1246.66 540.26 1205.2 535.872 1152.97 536.271 1144.6 542.255 1129.45 549.435 1110.72 557.812 1100.75 561.8 1107.13 562.997 1109.12 565.39 1122.28 566.587 1136.23 570.576 1182.08 571.773 1187.26 580.548 1187.26 589.324 1187.26 589.324 1185.27 579.75 1108.32 574.565 1070.85 575.363 1066.07 593.712 1026.6 600.892 1011.05 613.656 982.748 621.634 964.011 630.409 944.079 641.179 926.139 647.96 920.159 664.315 906.605 691.041 856.375 722.154 781.826 741.7 734.784 742.099 735.582 701.013 728.007 681.467 724.021 650.753 718.44 632.005 714.852 613.257 711.264 596.903 707.277 595.706 705.683 594.11 704.088 592.116 696.912 590.92 690.135 588.127 675.784 590.92 672.196 612.06 661.831 632.404 651.864 647.96 619.573 647.96 586.883 647.96 543.43 631.606 523.896 590.122 518.315 572.57 515.922 558.609 515.922 552.227 518.315 538.266 523.497 524.305 537.45 524.305 545.822 524.305 549.808 522.31 554.193 519.917 555.788 516.726 557.382 515.928 568.545 517.124 587.681 519.119 618.377 527.895 635.519 551.03 655.053 559.008 661.831 560.604 666.216 559.407 680.966L558.21 698.906 538.266 698.906 518.321 698.906 514.731 670.999C507.152 613.195 513.136 463.3 523.906 442.171 525.501 438.982 531.884 433.8 538.665 430.212 562.997 417.056 596.504 381.576 615.251 348.886 627.617 327.757 627.617 290.682 615.251 274.337 600.493 254.006 578.155 245.235 545.446 245.634 515.928 246.033 505.956 249.621 488.006 265.567 482.421 270.749 472.449 275.134 466.465 275.533 456.094 276.33 446.521 286.297 456.094 286.297 461.679 286.297 462.078 332.541 456.493 336.129 451.706 338.92 434.155 300.648 430.166 279.121 427.374 264.371 421.79 257.195 415.806 260.783 411.419 263.573 411.818 284.702 416.604 294.27 418.997 298.655 422.587 305.831 424.582 310.216 426.975 314.602 428.571 320.581 428.571 323.372 428.571 330.149 441.335 354.467 451.706 368.021 456.493 374.001 460.482 383.17 460.482 387.954 460.482 397.522 473.246 416.258 485.612 425.428 491.596 429.813 492.792 433.8 490.798 447.354 488.404 462.104 483.219 519.112 477.634 587.282 476.438 605.222 473.646 612.796 467.662 617.58 460.482 623.161 458.886 629.938 456.892 661.432L454.498 698.906 428.571 698.507C414.21 698.108 380.305 696.912 352.782 694.919 286.566 690.932 268.616 681.365 288.561 661.432 296.538 653.459 298.134 647.08 297.336 628.742 296.937 617.181 282.976 607.613 265.824 607.215L255.053 607.215 253.059 511.537C251.863 458.915 252.261 414.266 253.857 412.272 255.453 410.279 260.638 408.285 265.824 407.887 271.009 407.488 276.195 406.691 277.79 406.292 278.987 406.292 284.971 397.522 291.353 387.157L302.123 368.42 309.303 378.386C323.264 396.326 325.259 397.92 329.247 395.927 335.63 391.542 333.236 381.974 321.269 366.825 309.303 352.075 300.926 326.163 301.325 304.236L301.325 292.277 306.511 306.23C323.264 349.683 338.422 380.778 345.602 387.157 362.355 401.11 361.159 387.157 342.411 347.69 332.04 326.163 321.269 301.047 318.876 292.277 313.691 275.134 300.926 267.56 300.926 281.911 300.926 294.668 293.746 295.466 287.364 283.506 280.184 269.155 262.633 253.209 245.48 244.438 225.935 234.471 178.866 232.08 160.118 239.654 124.218 254.803 126.611 309.817 166.101 368.42 178.467 387.157 184.849 392.738 204.395 403.9L218.755 411.873 219.553 445.759C220.351 464.496 221.946 485.226 223.143 491.604 223.94 498.382 223.143 506.355 221.148 509.544 217.957 514.727 215.963 514.727 205.591 508.348 168.096 486.422 121.425 519.909 121.425 569.342 121.824 598.046 139.775 631.134 153.736 628.343 160.916 626.749 162.511 641.1 157.326 660.635L152.938 676.979 132.195 676.979C103.475 676.979 45.2371 686.946 31.2765 694.122 16.5173 701.696 8.53948 711.264 2.55635 728.805-1.43276 740.764-1.03367 745.947 5.74728 763.886 14.523 787.009 18.113 793.786 36.0627 822.489 42.8437 833.651 54.4115 854.381 61.1928 869.132 67.9738 883.882 76.7495 897.835 81.1373 899.828 85.1264 902.22 101.481 929.329 117.437 960.822L146.157 1017.83 142.965 1055.7C138.578 1107.53 138.977 1122.68 144.561 1128.26 152.539 1136.23 155.331 1128.26 157.326 1092.78 159.719 1048.13 167.697 1043.34 170.489 1084.41 173.281 1127.46 180.86 1178.89 185.647 1188.45 190.035 1196.43 190.434 1196.43 195.619 1189.65 198.81 1184.87 199.608 1179.29 197.614 1173.7 192.029 1159.35 190.833 1114.3 195.619 1112.71 203.198 1110.32 205.99 1123.08 209.181 1179.68 212.373 1235.9 213.968 1243.07 223.143 1243.07 227.131 1243.07 227.929 1235.1 226.333 1203.21 224.738 1180.08 225.536 1163.34 227.53 1163.34 236.306 1163.34 245.081 1191.25 247.873 1227.12 250.267 1256.62 252.261 1265 257.048 1265 261.037 1265 263.829 1259.42 265.425 1248.25 270.61 1209.58 278.588 1227.92 282.577 1286.52 286.965 1353.9 294.544 1382.6 304.915 1372.24 307.707 1369.44 306.909 1353.9 302.522 1325.59 296.538 1284.13 296.937 1270.98 304.117 1270.98 314.488 1270.98 324.461 1310.84 331.242 1382.6 332.837 1396.95 335.63 1410.9 338.023 1413.7 340.716 1417.18 343.034 1418.9 344.922 1419Z" fill="#00B0E0" fill-rule="evenodd" transform="matrix(1 0 0 -1 1944 2266)"/><path d="M162.849 178.055C147.709 181.641 125.796 170.087 86.7501 136.22 45.3144 100.361 39.7366 87.2131 54.4785 58.924 65.6342 37.8072 75.5947 35.0179 119.819 40.1978L150.498 43.7839 164.443 28.2447C173.607 17.8854 180.778 13.5027 185.56 14.698 189.145 15.8932 201.497 18.6822 212.254 21.4712 254.487 31.8305 283.173 46.5725 306.282 69.2833 332.578 94.7831 337.757 103.548 337.757 122.673 337.757 132.634 334.968 138.611 327.398 144.587 312.656 156.142 264.448 156.54 242.136 144.985 217.832 132.634 208.668 134.626 187.95 156.54 177.591 167.298 166.435 176.86 162.849 178.055ZM155.678 196.383C167.631 196.782 184.763 186.024 199.106 168.892L212.254 152.556 235.761 160.923C286.36 178.055 342.538 167.298 350.507 139.009 357.28 115.501 351.304 93.5879 331.382 70.4786 301.501 35.4167 273.212 20.2759 206.676 3.9402 175.997-4.02862 155.678 0.354755 153.685 14.698 152.49 23.0652 150.897 23.4633 107.07 23.4633L62.0484 23.4633 48.9002 38.6041C32.9632 56.9319 28.1822 80.4392 36.1507 102.353 41.3303 118.29 72.4076 152.954 80.774 152.954 83.5629 152.954 92.7266 160.126 101.093 168.892 109.859 177.657 123.804 187.219 132.569 190.407 141.334 193.594 151.693 196.383 155.678 196.383ZM519.853 200.171C508.46 200.787 495.611 197.65 472.901 189.581 431.863 174.441 415.528 164.48 413.934 152.926 413.137 147.348 409.95 139.778 406.763 135.395 399.591 125.036 399.989 109.895 407.161 97.1452 410.349 91.5672 412.739 80.4114 413.137 72.0442 413.137 59.6927 415.13 55.7081 426.286 48.9349 437.84 41.7633 444.613 40.9661 496.806 42.1617 551.789 43.357 555.773 43.7554 580.475 55.7081 617.927 73.2394 638.645 93.9578 636.653 111.887 635.856 119.458 614.74 129.02 599.201 129.02 580.475 129.02 568.124 140.176 552.585 170.457 544.219 186.394 536.25 197.152 531.07 198.347 527.286 199.343 523.65 199.966 519.853 200.171ZM513.689 218.269C518.72 218.567 523.501 218.468 526.688 217.871 541.031 215.48 560.554 195.16 570.913 171.652 581.272 148.145 584.061 146.152 610.755 142.566 652.192 137.387 666.933 111.489 644.622 82.4035 636.653 72.8406 610.357 51.7242 593.623 42.5601 589.24 39.7708 574.499 34.9901 561.351 31.8024 529.477 23.4355 438.637 23.0371 423.098 31.0055 409.153 38.1775 397.2 56.1069 397.2 69.6536 397.2 75.2315 394.411 85.9893 390.826 93.1613 383.654 107.106 385.248 142.566 393.216 150.535 395.208 152.528 397.2 156.91 397.2 160.098 397.2 166.473 415.13 184.8 421.504 184.8 423.895 184.8 431.067 188.386 437.043 192.769 443.418 197.152 454.175 201.933 461.745 203.128 468.917 204.722 476.885 207.511 479.276 209.105 481.667 211.097 490.432 214.285 499.197 216.277 503.38 217.273 508.66 217.97 513.689 218.269ZM366.819 298.858C361.889 301.548 355.165 294.152 347.994 278.015 333.65 245.742 332.056 239.765 338.83 239.765 341.619 239.765 348.392 248.929 353.571 260.085 358.751 270.843 365.524 281.6 368.313 283.195 371.5 284.789 372.696 288.772 371.102 292.757 369.907 295.945 368.463 297.962 366.819 298.858ZM421.951 382.155C410.347 380.113 400.187 375.232 392.617 367.662 383.055 358.897 381.86 354.116 381.461 333.397 381.461 293.155 407.358 246.539 434.053 239.765 450.787 234.984 462.341 236.977 491.825 250.125 517.722 261.281 526.886 274.429 522.901 294.35 516.527 328.218 483.856 372.842 459.95 379.615 446.603 383.4 433.555 384.197 421.951 382.155ZM268.458 386.588C260.241 386.588 248.985 385.592 236.833 383.6 202.171 378.021 170.297 330.608 170.297 284.39 170.297 244.547 187.429 228.211 224.482 233.391 248.388 236.578 281.855 260.085 281.855 273.632 281.855 276.421 284.246 280.804 287.433 282.398 296.597 287.976 305.761 310.288 305.761 327.819 305.761 351.326 297.792 374.834 289.027 377.225 285.043 378.818 281.855 381.608 281.855 383.6 281.855 385.592 276.675 386.588 268.458 386.588ZM115.663 620.897C97.8831 623.381 77.862 611.802 73.0811 592.378 71.4873 586.003 67.5032 577.636 63.9174 573.652 56.3471 564.887 55.152 517.871 62.7219 508.708 75.4717 493.168 104.557 486.794 129.657 493.168 141.212 496.356 154.36 521.856 154.36 541.777 154.36 567.675 143.204 603.534 132.048 613.495 127.267 617.678 121.589 620.069 115.663 620.897ZM563.142 629.831C563.142 629.831 559.955 628.636 556.768 627.44 520.909 615.886 497.004 584.409 493.817 544.566 492.621 527.832 494.215 521.856 503.379 507.91 518.12 485.598 538.838 476.833 561.549 483.208 599 493.168 616.531 515.082 616.531 551.738 616.531 589.19 603.383 613.894 577.087 624.651 569.916 627.839 563.541 630.229 563.142 629.831ZM468.168 689.048C467.421 690.392 466.126 689.596 463.935 687.205 459.552 683.221 460.747 666.088 465.13 666.088 467.52 666.088 469.114 671.666 469.114 678.041 469.114 684.217 468.915 687.703 468.168 689.048ZM198.186 689.994C196.194 689.994 194.202 686.408 194.202 682.026 194.202 677.643 196.194 674.057 198.186 674.057 200.577 674.057 202.171 677.643 202.171 682.026 202.171 686.408 200.577 689.994 198.186 689.994ZM465.13 717.885C463.138 717.885 461.146 715.494 461.146 712.306 461.146 709.119 463.138 705.135 465.13 703.94 467.52 702.744 469.114 705.135 469.114 709.517 469.114 714.299 467.52 717.885 465.13 717.885ZM190.218 721.869C188.226 721.869 186.233 719.08 186.233 715.892 186.233 712.705 188.226 709.916 190.218 709.916 192.609 709.916 194.202 712.705 194.202 715.892 194.202 719.08 192.609 721.869 190.218 721.869ZM546.508 914.71C546.209 912.718 546.01 908.734 546.01 903.155 546.01 892.398 546.807 888.015 547.604 894.39 548.401 900.367 548.401 909.132 547.604 914.312 547.205 916.702 546.807 916.702 546.508 914.71ZM411.019 1084.26C406.761 1085.59 397.797 1082.15 394.211 1076.47 387.836 1066.11 389.828 1063.33 407.757 1054.56 420.506 1048.58 421.702 1046.59 419.311 1037.43 412.538 1009.94 412.936 995.99 421.702 968.1 428.076 946.983 430.865 928.655 431.264 900.765 431.662 869.687 433.256 860.125 440.029 848.969 452.779 828.25 453.974 819.883 449.193 794.782 443.216 763.704 449.99 739.798 465.13 739.798L475.091 739.798 476.286 794.782C477.083 845.781 476.684 850.562 468.716 861.719 459.154 875.265 459.95 897.179 471.106 909.132 474.294 912.718 477.083 918.694 477.083 922.28 477.083 925.866 479.075 929.85 481.067 931.046 487.84 935.03 485.449 965.709 477.083 988.818 462.341 1029.46 469.911 1047.79 503.379 1051.77 524.495 1053.76 540.831 1062.13 540.831 1070.5 540.831 1078.07 531.667 1078.86 496.207 1076.08 476.286 1074.08 463.138 1070.9 459.154 1066.91 449.99 1057.75 431.264 1058.94 421.303 1069.3 416.921 1074.08 413.335 1079.26 413.335 1081.25 413.335 1082.85 412.438 1083.82 411.019 1084.26ZM497.502 1319.47C489.334 1319.92 481.266 1319.12 479.872 1316.73 478.676 1314.74 476.684 1265.73 475.091 1207.56 472.7 1121.5 473.099 1100.78 477.481 1098.39 480.27 1096.39 497.004 1094.4 514.535 1094 548.799 1092.81 556.768 1088.03 556.768 1070.5 556.768 1060.93 539.237 1042.61 526.886 1039.42 522.503 1038.22 511.347 1035.04 502.183 1032.65 487.043 1029.06 485.051 1027.07 485.051 1017.11 485.051 1011.13 488.239 999.975 491.825 992.404 505.769 964.116 502.98 925.866 484.254 901.562 474.294 888.413 475.091 871.679 486.246 864.109 494.613 858.531 495.012 856.141 494.215 807.133 493.817 778.844 494.215 752.548 495.41 748.564 497.402 742.587 501.386 741.79 518.12 742.587L538.838 743.783 540.034 759.72C540.831 768.485 538.838 800.758 535.253 831.438 526.487 909.53 523.3 962.522 526.487 974.475 529.675 987.225 540.034 988.021 542.424 976.069 543.619 970.889 545.213 963.319 546.01 958.936 547.604 952.561 548.002 952.96 548.401 960.928 549.198 974.874 555.174 984.038 560.353 978.858 564.736 974.475 574.298 884.429 579.478 797.969 581.47 770.079 584.657 747.767 586.65 746.97 594.618 744.579 604.977 756.134 608.961 771.673 619.32 811.516 620.914 844.984 618.921 976.866 616.132 1125.88 610.156 1244.61 604.578 1258.96 595.415 1280.87 592.626 1265.73 592.626 1192.42 592.626 1132.65 591.431 1116.32 587.048 1112.73 582.665 1109.14 580.673 1109.14 577.884 1113.13 576.29 1115.92 574.697 1162.14 574.697 1215.53L574.697 1312.74 556.369 1313.54 538.042 1314.74 535.253 1294.02C534.057 1282.86 532.862 1239.83 532.862 1198.79 532.862 1129.46 532.464 1123.89 526.089 1125.08 519.316 1126.28 518.917 1133.85 518.917 1217.92 518.917 1268.52 517.324 1311.95 515.73 1314.74 513.937 1317.33 505.67 1319.02 497.502 1319.47ZM429.67 1319.92 428.475 1209.15C427.678 1148.19 428.475 1094.4 430.069 1090.02 431.264 1085.24 435.647 1080.46 439.631 1078.86 455.169 1072.89 456.365 1082.05 457.958 1201.98L459.154 1317.53 444.412 1318.72ZM111.33 1331.47 108.541 1304.78C107.345 1289.63 105.752 1241.42 105.353 1196.8 104.955 1137.04 103.361 1114.72 99.7756 1111.54 88.2212 1101.97 85.8306 1127.47 88.6195 1228.28 91.807 1333.46 91.807 1334.66 71.8859 1327.09 64.7143 1324.3 63.1205 1319.92 60.7298 1289.24 59.1361 1270.51 59.1361 1222.3 60.7298 1182.46 63.1205 1120.3 62.7219 1109.14 57.5426 1104.76 52.7613 1101.18 50.7693 1101.18 48.3786 1105.16 46.3866 1107.95 44.7928 1156.96 43.9963 1213.93 43.1994 1303.18 42.4025 1317.92 36.8246 1321.51 32.4416 1324.3 29.6526 1323.9 27.2623 1320.31 22.0831 1311.55 14.5132 1146.2 16.5052 1080.46 18.4973 1021.49 26.8637 952.163 40.0118 883.234 43.5976 865.703 49.1755 831.836 52.7613 807.532 63.1205 735.415 62.3236 737.806 72.6828 737.806L82.2447 737.806 82.2447 845.781C82.6434 905.148 84.2371 956.546 86.2292 959.733 88.2212 963.319 96.1898 966.905 104.158 967.702L118.502 969.296 116.51 910.327C115.314 878.054 113.322 841 112.525 827.852 111.33 815.102 111.728 789.602 113.322 771.274L115.713 737.806 134.439 737.806C150.375 737.806 153.563 739.001 157.547 747.767 165.117 764.102 163.523 788.806 153.961 800.758 145.993 811.118 145.993 814.704 148.383 867.297 150.375 907.14 149.579 926.663 146.391 935.03 136.431 960.131 130.454 993.201 134.439 1000.77 140.813 1012.33 139.22 1016.31 127.665 1019.1 110.931 1023.08 102.564 1032.25 102.564 1046.19 102.564 1065.32 120.494 1078.47 138.024 1071.69 144.797 1069.3 149.579 1070.1 153.961 1074.08 164.719 1083.65 178.664 1085.64 194.999 1080.06 207.35 1076.08 212.53 1076.08 218.505 1079.66 240.02 1093.21 261.934 1076.87 253.567 1052.97 248.786 1039.82 236.435 1029.86 232.451 1036.23 230.857 1038.22 231.654 1044.6 234.044 1050.58 239.622 1065.72 240.02 1065.72 217.709 1062.53 203.764 1060.54 194.202 1061.33 187.429 1064.92 179.46 1069.3 176.273 1069.3 169.101 1064.52 164.32 1061.33 151.571 1057.75 140.415 1056.55 124.079 1054.96 120.494 1053.36 120.494 1046.59 120.494 1041.01 125.673 1037.03 140.016 1031.85 164.719 1023.08 167.906 1018.3 157.547 1004.36 148.782 992.404 148.782 989.217 162.328 937.022 165.515 925.069 165.914 902.757 164.32 870.883 161.93 826.258 162.328 821.477 170.297 805.539 176.273 793.586 178.664 782.431 178.265 768.087 176.672 737.009 176.672 737.009 193.405 738.603L208.147 739.798 207.35 759.72C206.553 770.876 206.155 790.797 206.553 804.743 206.553 853.351 206.155 863.711 202.569 911.124 200.577 937.421 196.593 968.1 194.202 978.858 188.226 1002.37 191.015 1024.28 202.171 1037.43 208.147 1044.6 210.538 1045.4 214.521 1041.81 218.505 1037.83 218.505 1034.64 214.123 1026.67 207.35 1013.92 207.35 981.248 214.123 968.897 216.912 963.319 219.701 938.218 220.498 907.539 221.693 878.851 222.49 850.164 222.888 843.391 222.888 837.016 222.49 823.469 222.091 813.508 221.294 803.548 221.693 783.227 222.49 768.087L224.482 740.197 325.284 740.197C380.665 739.798 427.279 740.595 429.272 741.79 430.865 742.986 432.459 755.337 432.061 769.68 432.061 784.024 433.655 801.555 435.248 808.727 437.639 819.485 436.045 824.664 426.881 838.609 416.124 854.148 415.327 858.133 414.929 897.179 414.53 928.655 412.538 945.389 406.163 964.514 400.984 979.654 397.398 999.975 397.398 1014.32 397.398 1036.63 396.203 1039.82 385.446 1049.38 365.923 1066.51 371.102 1086.83 398.195 1098.39L412.538 1103.97 411.741 1210.75 411.343 1317.53 385.446 1317.53 359.548 1317.53 357.556 1213.93C355.962 1125.48 354.767 1110.34 349.587 1110.34 344.408 1110.34 343.611 1125.08 342.416 1214.33L341.619 1318.32 322.893 1320.71C290.62 1324.3 292.612 1332.67 294.206 1198.79 295.401 1112.33 294.605 1078.86 291.417 1077.67 282.254 1074.48 280.261 1092.41 278.269 1205.96L275.879 1321.51 252.77 1322.7C236.833 1323.5 229.263 1322.31 228.068 1318.72 227.271 1315.93 224.88 1266.13 223.287 1207.96 220.498 1118.31 219.302 1102.37 214.123 1102.37 204.561 1102.37 203.366 1125.88 207.749 1227.48 211.733 1332.27 213.327 1327.49 181.452 1327.49 163.523 1327.49 162.727 1327.09 160.336 1314.74 159.141 1307.56 157.547 1258.16 157.149 1204.77 156.352 1111.14 155.954 1107.95 148.383 1109.14 141.61 1110.34 140.415 1114.32 139.22 1150.18 138.423 1172.1 139.618 1218.32 142.407 1252.58 144.797 1286.85 145.993 1318.72 144.399 1323.1 142.407 1329.48 138.423 1331.47 126.47 1331.47ZM423.177 1390.59C428.051 1393.2 430.965 1383.27 430.069 1364.14 428.475 1340.63 428.873 1339.84 438.834 1337.05 453.576 1333.46 460.349 1337.45 463.138 1350.2 467.52 1369.72 473.099 1379.68 477.481 1376.89 480.27 1375.3 481.067 1368.13 479.872 1359.36 477.083 1339.04 481.067 1334.66 500.988 1334.66 520.909 1335.06 524.894 1339.44 524.894 1362.55 524.894 1374.9 526.487 1379.28 530.87 1379.28 538.44 1379.28 541.229 1372.51 542.823 1350.6 543.221 1341.03 544.018 1332.27 544.416 1330.67 544.815 1326.69 561.549 1326.69 570.314 1329.88 574.697 1331.47 576.689 1337.45 576.689 1347.01 576.689 1363.35 585.056 1378.09 591.431 1374.1 593.821 1372.51 595.813 1365.34 595.415 1358.17 595.016 1349.8 598.203 1341.83 603.781 1336.25 610.156 1329.88 611.75 1324.7 609.758 1313.94 608.562 1305.57 610.554 1290.83 615.734 1274.89 624.898 1246.6 626.89 1223.1 632.866 1056.55 637.647 915.109 638.843 806.336 635.257 803.149 633.663 801.555 632.468 797.172 632.468 793.188 632.468 780.836 619.32 743.783 612.148 737.009 608.562 733.423 600.594 729.837 594.219 729.041L582.665 727.845 581.47 685.611 580.274 642.979 591.829 635.807C619.32 618.276 632.468 589.589 632.468 548.949 632.468 499.942 598.203 466.872 547.604 466.872 506.566 466.872 477.083 497.153 477.083 539.785 477.083 574.449 497.402 608.315 536.049 638.995 545.612 646.565 546.409 654.534 542.026 699.158L539.635 726.252 511.347 725.056 483.059 723.861 482.66 697.963C482.66 659.315 478.676 647.362 465.927 644.971 447.998 640.987 440.029 654.534 443.216 682.424 446.005 707.525 443.615 721.869 436.045 721.869 432.459 721.869 431.264 688.799 432.459 581.62 433.256 504.325 435.248 432.209 436.443 421.052L439.232 401.131 458.755 397.146C475.489 393.56 481.864 389.178 500.988 368.459 518.519 349.334 525.292 337.78 532.862 315.866 541.229 289.968 541.627 286.382 536.846 271.242 528.48 246.539 505.769 231.398 463.536 223.43 432.459 217.453 402.976 230.203 391.422 254.109 387.836 261.679 383.055 267.656 380.266 267.656 377.477 267.656 371.5 260.085 366.321 250.922 361.54 241.359 353.97 229.406 349.986 224.227 342.814 215.063 342.814 214.664 335.244 222.234 327.674 229.805 327.674 229.805 320.901 221.836 315.721 215.461 313.331 215.063 309.346 218.649 305.362 222.633 309.346 232.992 327.276 269.648 340.025 294.749 352.376 315.468 355.564 315.468 362.735 315.468 365.524 324.632 365.524 351.326 365.524 376.826 365.126 376.428 400.984 393.162L414.53 399.537 411.741 442.169C408.952 481.216 404.968 555.723 398.992 672.065 397.398 696.369 395.406 717.087 393.812 719.08 392.219 720.673 363.532 723.064 330.463 724.259L269.504 726.252 264.325 713.103C259.942 703.143 258.348 666.487 257.153 556.519 256.754 477.63 257.551 410.693 259.145 408.303 261.137 405.513 266.317 403.123 271.098 403.123 293.409 403.123 313.729 380.811 319.307 350.928 320.901 342.561 324.487 334.194 327.674 331.405 336.838 323.835 334.845 313.476 321.299 294.749 314.526 285.187 303.37 267.656 296.597 256.101 286.636 238.57 281.058 233.391 270.301 230.601 262.731 228.61 252.77 224.625 248.388 221.438 236.435 213.469 194.601 213.868 182.249 222.633 158.344 239.367 154.758 247.335 154.36 282.796 154.36 313.077 155.555 317.858 168.703 342.561 187.03 376.428 188.624 378.021 210.139 391.967L227.67 403.123 226.474 546.16C225.677 657.323 226.474 692.385 230.458 703.94 234.841 716.291 234.841 718.681 230.06 721.869 218.904 728.642 213.327 718.283 216.513 695.173 219.302 670.471 211.733 654.135 196.991 654.135 183.445 654.135 178.265 661.706 178.265 680.431 178.265 705.533 163.523 721.869 140.415 721.869 131.251 721.869 121.689 719.478 119.697 717.087 115.713 711.908 118.502 640.19 122.486 637.401 123.681 636.604 130.056 633.018 136.431 629.432 143.204 625.846 151.172 617.878 154.36 611.503 161.93 598.355 170.297 558.113 170.297 536.996 170.297 521.458 157.547 492.77 146.391 484.004 125.275 466.474 78.2607 471.653 56.7458 493.168 41.207 508.309 36.8246 527.433 41.207 561.301 45.1914 594.37 54.7537 611.104 78.6589 625.846 98.1818 637.799 102.166 643.378 94.9946 647.76 93.0022 649.354 90.2133 664.096 88.6195 681.229 85.4323 715.095 82.2447 721.869 68.3001 721.869 62.7219 721.869 56.3471 725.853 52.7613 731.431 46.7852 740.197 36.0277 793.985 26.4654 861.32 24.473 875.663 20.091 902.359 16.9035 921.085 5.74777 984.436 3.3571 1011.53 0.568175 1082.85-1.82249 1150.18 3.75573 1307.17 9.33359 1326.69 11.3256 1333.06 14.9114 1335.45 23.6769 1335.45 32.4416 1335.45 39.6136 1339.44 49.1755 1349.4 64.3157 1365.34 68.6984 1366.53 74.6748 1355.38 80.651 1344.62 89.815 1345.42 95.3929 1357.37 100.971 1369.72 104.158 1369.72 111.728 1357.77 116.908 1349.8 120.095 1348.6 131.251 1350.99 142.008 1353.38 144.797 1356.17 146.391 1365.34 149.18 1382.07 159.938 1380.88 162.328 1363.35 164.32 1350.6 165.515 1349.4 178.265 1348.2 185.835 1347.41 194.202 1345.02 196.991 1342.63 204.959 1335.85 210.139 1343.02 210.139 1361.35 210.139 1390.84 224.482 1387.65 226.873 1357.37 228.068 1341.43 228.068 1341.43 245.599 1340.24 275.082 1338.24 281.855 1341.43 281.855 1357.77 281.855 1377.29 288.628 1389.24 295.8 1383.27 299.784 1379.68 300.98 1373.7 298.987 1360.95 296.597 1342.23 296.995 1341.83 319.705 1338.24 337.634 1335.06 342.416 1340.24 344.806 1362.95 346.4 1379.28 347.994 1383.27 353.173 1382.47 357.556 1381.67 359.548 1376.49 359.946 1364.94 360.345 1336.65 362.735 1334.66 386.641 1337.05 397.797 1338.24 408.554 1339.04 410.546 1339.44 412.14 1339.44 413.335 1347.81 413.335 1357.77 413.335 1367.73 415.327 1379.28 417.717 1383.67 419.71 1387.45 421.552 1389.72 423.177 1390.59Z" fill="#2A2E47" fill-rule="evenodd" transform="matrix(1 0 0 -1 924 2255)"/><path d="M1925.56 484.055C1946.4 484.504 1945.5 486.941 1944.47 491.817 1942.93 500.029 1934.21 501.569 1881.38 504.134 1847.52 506.188 1759.8 507.727 1686.44 508.24 1516.65 508.753 1094.98 529.796 1081.64 538.007 1079.08 540.06 967.762 542.626 834.387 544.165L592.775 547.245 572.769 561.101C552.25 575.985 541.477 573.932 547.12 555.97 554.814 532.362 578.924 529.282 777.447 526.203 879.529 524.663 1033.42 518.505 1119.6 512.859 1375.07 495.923 1393.02 494.896 1540.25 493.357 1617.7 492.844 1723.89 490.278 1776.22 488.225 1862.14 485.145 1904.72 483.606 1925.56 484.055ZM2010.34 406.24C2019.06 406.24 2021.12 424.203 2012.4 429.848 2004.7 434.467 1995.47 423.69 1999.06 414.452 2001.11 409.833 2005.73 406.24 2010.34 406.24ZM672.6 329.71C660.553 330.047 653.339 339.189 653.339 354.971 653.339 374.986 657.956 376.526 676.937 361.642 695.917 347.272 698.995 337.521 686.17 332.389 681.168 330.464 676.616 329.598 672.6 329.71ZM823.755 329.54C810.843 327.519 807.092 334.447 807.092 352.923 807.092 374.478 812.221 377.044 834.792 367.806 857.364 358.055 859.928 341.633 839.922 334.447 833.382 331.881 828.06 330.214 823.755 329.54ZM2007.78 324.224C2019.58 324.224 2021.63 335.515 2011.37 344.24 2003.16 350.912 1997.52 346.806 1997.52 333.462 1997.52 327.817 2001.11 324.224 2007.78 324.224ZM545.762 314.729C558.203 315.435 568.846 318.77 568.846 324.159 568.846 329.292 562.69 332.371 549.866 333.397 518.062 335.963 508.828 367.783 539.094 371.375 561.665 373.941 557.561 387.799 532.938 390.878 512.419 393.444 512.419 393.444 513.445 413.973 515.497 443.226 524.731 450.411 552.944 443.739 579.619 437.58 592.443 442.2 582.184 454.004 573.976 464.268 529.347 470.427 515.497 462.728 476.511 442.2 474.459 347.767 511.906 321.08 519.088 315.947 533.323 314.023 545.762 314.729ZM1724.91 314.445C1723.89 314.958 1718.76 316.498 1713.11 317.525 1696.19 321.63 1671.56 343.185 1664.89 359.608 1657.2 377.571 1665.92 402.205 1681.31 405.285 1720.3 412.983 1769.03 336.514 1736.71 319.064 1731.07 316.498 1725.94 314.445 1724.91 314.445ZM662.06 308.781C674.372 308.781 691.3 312.373 699.508 316.479 720.54 327.256 721.053 354.457 701.56 369.853 693.352 376.526 689.248 383.711 691.3 388.33 694.891 398.08 715.41 406.292 735.416 406.292 751.832 406.292 760.039 414.504 751.832 422.715 742.598 431.953 684.631 417.07 672.319 403.213 659.495 388.33 653.339 391.922 653.339 412.964 653.339 422.202 650.775 432.98 648.209 437.085 633.847 458.127 611.276 389.356 619.483 349.838 621.022 341.114 626.152 328.796 630.769 321.611 637.438 311.347 643.08 308.781 662.06 308.781ZM808.31 306.22C811.58 305.835 814.53 305.964 816.325 306.734 820.429 307.76 830.176 308.786 837.87 308.786 848.643 308.786 856.338 313.405 866.597 326.749 878.909 342.659 879.422 346.251 873.779 359.595 870.701 367.806 864.545 376.018 860.441 377.558 848.13 382.177 852.234 395.007 867.11 397.06 876.344 398.087 881.987 402.192 883.013 408.351 885.064 418.102 875.831 418.102 829.15 408.864 814.274 405.272 812.734 406.298 811.195 419.641 809.143 438.63 799.398 440.684 792.729 423.234 771.697 369.86 774.262 318.538 798.372 308.786 801.449 307.503 805.04 306.605 808.31 306.22ZM962.189 301.37C973.198 301.979 982.617 304.856 982.617 309.504 982.617 313.931 977.169 316.587 965.821 317.471 937.676 319.685 929.504 347.129 956.288 350.228 976.262 352.441 972.63 364.393 950.84 367.048 932.682 369.261 932.682 369.261 933.59 386.968 935.406 412.198 943.577 418.395 968.544 412.641 992.151 407.329 1003.5 411.313 994.42 421.494 987.157 430.347 947.662 435.659 935.406 429.019 900.905 411.313 899.089 329.866 932.228 306.848 938.583 302.421 951.18 300.761 962.189 301.37ZM1502.58 301.238C1510.1 299.338 1511.93 312.521 1506.54 337.54 1499.36 372.439 1504.49 385.783 1525.01 385.269 1548.09 384.756 1569.64 368.846 1570.15 351.91 1571.18 326.249 1572.2 324.196 1579.39 324.196 1590.16 324.196 1591.19 327.789 1595.29 374.491 1598.88 410.931 1597.85 416.576 1591.19 416.576 1586.57 416.576 1581.44 411.957 1579.9 405.798 1576.82 396.56 1574.26 395.533 1557.84 399.126 1529.11 405.285 1499.88 403.232 1490.64 393.994 1478.84 382.19 1480.9 322.143 1493.21 308.286 1496.93 304.181 1500.07 301.871 1502.58 301.238ZM1727.48 294.109C1737.22 294.558 1745.43 298.535 1753.64 306.234 1773.64 324.71 1772.62 356.529 1750.05 388.862 1735.17 409.904 1728.5 415.036 1706.96 421.194 1672.59 430.432 1654.12 422.221 1644.89 393.994 1633.6 359.095 1653.61 320.604 1692.08 303.154 1706.44 296.739 1717.73 293.659 1727.48 294.109ZM1227.74 293.404C1238.39 294.127 1249.16 297.936 1259.16 304.766 1283.27 321.053 1284.81 340.492 1263.78 355.728 1244.29 369.913 1247.88 374.642 1281.74 380.421 1300.72 383.574 1307.9 387.251 1308.92 394.606 1310.98 404.063 1308.41 404.063 1276.61 400.911 1257.63 398.81 1234.03 394.081 1224.28 389.878 1209.41 383.574 1206.84 379.896 1208.38 367.812 1209.41 355.728 1212.48 352.576 1226.33 351.525 1245.83 349.423 1255.57 338.916 1250.96 324.205 1246.34 309.494 1220.18 310.545 1199.66 326.307 1184.78 338.39 1183.24 342.593 1180.17 377.269 1177.09 411.944 1171.96 423.502 1159.65 424.028 1157.6 424.028 1152.98 418.249 1149.9 410.893 1145.28 400.386 1145.28 393.03 1149.9 379.896 1153.49 370.438 1156.06 349.423 1156.06 332.611 1156.06 302.139 1156.06 302.139 1170.42 305.292 1178.11 306.868 1189.91 304.766 1197.09 300.563 1206.58 295.046 1217.1 292.682 1227.74 293.404ZM1106.42 288.476C1107.59 288.297 1108.95 288.55 1110.55 289.336 1117.63 300.751 1120.96 354.342 1115.65 373.605 1101.49 427.827 1036.35 430.681 1017.94 378.599 1014.4 368.611 1013.07 348.813 1013.56 331.512 1014.05 314.21 1017.01 301.151 1020.07 299.407 1023.13 297.663 1029.1 309.336 1031.92 321.05 1034.74 332.764 1033.63 357.889 1040.15 369.691 1046.66 381.493 1043.18 390.567 1071.01 391.861 1109.08 379.991 1091.42 339.182 1096.87 320.527 1099.32 312.121 1098.21 289.729 1106.42 288.476ZM1804.54 276.033C1806.59 275.841 1808.64 276.482 1810.44 278.022 1815.06 281.615 1814.54 295.472 1810.44 332.936 1805.31 373.994 1805.31 384.771 1810.95 390.417 1819.16 399.655 1842.24 390.93 1859.68 372.454 1865.84 365.782 1874.56 360.137 1878.15 360.137 1887.39 360.137 1895.08 338.581 1895.08 313.434 1895.08 297.011 1896.62 293.418 1905.34 293.418 1914.06 293.418 1915.6 296.498 1915.09 314.974 1914.57 357.058 1903.29 408.893 1894.05 410.432 1889.44 411.459 1884.31 407.866 1882.26 401.707 1878.15 387.851 1873.02 388.364 1849.94 403.76 1826.34 419.67 1812.49 420.183 1794.54 404.787 1780.69 392.47 1780.69 391.956 1786.33 362.703 1789.92 346.28 1792.48 322.159 1792.48 308.816 1792.48 295.985 1795.05 282.641 1798.64 279.049 1800.44 277.252 1802.49 276.225 1804.54 276.033Z" fill="#2A2E47" fill-rule="evenodd"/></g></svg>