<svg width="235" height="265" xmlns="http://www.w3.org/2000/svg" xmlns:xlink="http://www.w3.org/1999/xlink" xml:space="preserve" overflow="hidden"><defs><clipPath id="clip0"><rect x="194" y="383" width="235" height="265"/></clipPath><clipPath id="clip1"><path d="M312.098 383 429 383 429 648 194 648 194 573.31 312.098 573.31Z" fill-rule="evenodd" clip-rule="evenodd"/></clipPath></defs><g clip-path="url(#clip0)" transform="translate(-194 -383)"><g clip-path="url(#clip1)"><path d="M178.698 39.1667C182.32 39.1667 185.941 40.1031 189.187 41.9763L284.485 96.9727C290.975 100.719 294.974 107.641 294.974 115.133L294.974 225.126C294.974 232.618 290.975 239.541 284.485 243.287L189.187 298.284C182.697 302.03 174.699 302.03 168.209 298.284L72.9112 243.287C66.4204 239.541 62.4219 232.618 62.4219 225.126L62.4219 115.133C62.4219 107.641 66.4204 100.719 72.9112 96.9727L168.209 41.9763C171.453 40.1031 175.075 39.1667 178.698 39.1667Z" fill="#FFFFFC" fill-rule="evenodd" transform="matrix(1 0 0 1.00236 132.802 344.968)"/><path d="M178.698 83.241C176.312 83.241 173.928 83.858 171.791 85.0919L109.041 121.323C104.767 123.791 102.134 128.352 102.134 133.287L102.134 205.75C102.134 210.685 104.767 215.245 109.041 217.713L171.791 253.944C176.065 256.413 181.331 256.413 185.605 253.944L248.355 217.713C252.629 215.245 255.261 210.685 255.261 205.75L255.261 133.287C255.261 128.352 252.629 123.791 248.355 121.323L185.605 85.0919C183.468 83.858 181.082 83.241 178.698 83.241ZM178.698 77.1094C181.252 77.1094 183.807 77.7702 186.096 79.0918L253.306 117.898C257.883 120.541 260.703 125.425 260.703 130.711L260.703 208.324C260.703 213.61 257.883 218.495 253.306 221.139L186.096 259.944C181.518 262.588 175.878 262.588 171.3 259.944L104.09 221.139C99.5128 218.495 96.6927 213.61 96.6927 208.324L96.6927 130.711C96.6927 125.425 99.5128 120.541 104.09 117.898L171.3 79.0918C173.589 77.7702 176.144 77.1094 178.698 77.1094Z" fill="#00B0E0" fill-rule="evenodd" transform="matrix(1 0 0 1.00236 132.802 344.968)"/><path d="M178.698 46.7138C175.281 46.7138 171.863 47.5964 168.801 49.3615L78.891 101.189C72.767 104.719 68.9944 111.243 68.9944 118.303L68.9944 221.958C68.9944 229.017 72.767 235.541 78.891 239.071L168.801 290.898C174.926 294.429 182.47 294.429 188.594 290.898L278.504 239.071C284.629 235.541 288.401 229.017 288.401 221.958L288.401 118.303C288.401 111.243 284.629 104.719 278.504 101.189L188.594 49.3615C185.533 47.5964 182.115 46.7138 178.698 46.7138ZM178.698 37.9427C182.358 37.9427 186.017 38.888 189.297 40.7785L285.598 96.289C292.158 100.07 296.198 107.057 296.198 114.619L296.198 225.64C296.198 233.202 292.158 240.19 285.598 243.97L189.297 299.481C182.738 303.264 174.658 303.264 168.097 299.481L71.7976 243.97C65.2386 240.19 61.1979 233.202 61.1979 225.64L61.1979 114.619C61.1979 107.057 65.2386 100.07 71.7976 96.289L168.097 40.7785C171.377 38.888 175.037 37.9427 178.698 37.9427Z" fill="#2A2E47" fill-rule="evenodd" transform="matrix(1 0 0 1.00236 132.802 344.968)"/></g></g></svg>