<svg width="1501" height="1772" xmlns="http://www.w3.org/2000/svg" xmlns:xlink="http://www.w3.org/1999/xlink" xml:space="preserve" overflow="hidden"><defs><clipPath id="clip0"><rect x="304" y="452" width="1501" height="1772"/></clipPath><clipPath id="clip1"><rect x="303" y="452" width="1015" height="1732"/></clipPath><clipPath id="clip2"><rect x="303" y="452" width="1015" height="1732"/></clipPath><clipPath id="clip3"><rect x="303" y="452" width="1015" height="1732"/></clipPath><clipPath id="clip4"><rect x="303" y="452" width="1015" height="1732"/></clipPath></defs><g clip-path="url(#clip0)" transform="translate(-304 -452)"><path d="M1054.5 542C1077.6 542 1100.69 547.975 1121.39 559.924L1729.11 910.782C1770.5 934.68 1796 978.844 1796 1026.64L1796 1728.36C1796 1776.15 1770.5 1820.32 1729.11 1844.22L1121.39 2195.07C1080 2218.98 1029 2218.98 987.606 2195.07L379.891 1844.22C338.5 1820.32 313 1776.15 313 1728.36L313 1026.64C313 978.844 338.5 934.68 379.891 910.782L987.606 559.924C1008.3 547.975 1031.4 542 1054.5 542Z" fill="#FFFFFC" fill-rule="evenodd"/><path d="M1054.5 589.102C1032.67 589.102 1010.84 594.747 991.287 606.037L417.009 937.535C377.895 960.115 353.798 1001.84 353.798 1047L353.798 1710C353.798 1755.15 377.895 1796.88 417.009 1819.46L991.287 2150.96C1030.4 2173.55 1078.59 2173.55 1117.71 2150.96L1691.99 1819.46C1731.11 1796.88 1755.2 1755.15 1755.2 1710L1755.2 1047C1755.2 1001.84 1731.11 960.115 1691.99 937.535L1117.71 606.037C1098.15 594.747 1076.32 589.102 1054.5 589.102ZM1054.5 533C1077.88 533 1101.25 539.046 1122.2 551.138L1737.3 906.196C1779.19 930.38 1805 975.072 1805 1023.44L1805 1733.56C1805 1781.92 1779.19 1826.62 1737.3 1850.8L1122.2 2205.86C1080.31 2230.05 1028.69 2230.05 986.794 2205.86L371.703 1850.8C329.809 1826.62 304 1781.92 304 1733.56L304 1023.44C304 975.072 329.809 930.38 371.703 906.196L986.794 551.138C1007.74 539.046 1031.12 533 1054.5 533Z" fill="#2A2E47" fill-rule="evenodd"/><path d="M1054.5 826.917C1039.36 826.917 1024.22 830.832 1010.66 838.664L612.376 1068.61C585.249 1084.28 568.537 1113.22 568.537 1144.55L568.537 1604.45C568.537 1635.77 585.249 1664.72 612.376 1680.38L1010.66 1910.33C1037.79 1926 1071.21 1926 1098.34 1910.33L1496.62 1680.38C1523.75 1664.72 1540.46 1635.77 1540.46 1604.45L1540.46 1144.55C1540.46 1113.22 1523.75 1084.28 1496.62 1068.61L1098.34 838.664C1084.77 830.832 1069.64 826.917 1054.5 826.917ZM1054.5 788C1070.71 788 1086.93 792.194 1101.45 800.582L1528.05 1046.88C1557.1 1063.65 1575 1094.65 1575 1128.2L1575 1620.79C1575 1654.34 1557.1 1685.35 1528.05 1702.12L1101.45 1948.41C1072.4 1965.2 1036.6 1965.2 1007.54 1948.41L580.955 1702.12C551.899 1685.35 534 1654.34 534 1620.79L534 1128.2C534 1094.65 551.899 1063.65 580.955 1046.88L1007.54 800.582C1022.07 792.194 1038.28 788 1054.5 788Z" fill="#00B0E0" fill-rule="evenodd"/><g clip-path="url(#clip1)"><g clip-path="url(#clip2)"><g clip-path="url(#clip3)"><g clip-path="url(#clip4)"><path d="M2159.28 294.735C2128.66 301.116 2123.01 300.784 2102.57 311.087 2082.13 321.391 2053.31 341.531 2036.67 356.551 2020.03 371.574 2012.9 382.077 2002.72 401.219 1992.53 420.365 1981.55 432.061 1975.56 471.413 1969.57 510.762 1984.81 571.385 2000.32 596.642 2015.83 621.903 2018.36 625.16 2037.47 637.324 2056.57 649.488 2080.73 660.389 2114.95 669.629 2132.66 696.216 2112.89 741.083 2122.54 751.785 2141.78 748.13 2221.99 674.878 2230.38 669.227 2246.75 670.756 2263.93 679.067 2295.08 672.418 2352.2 666.571 2380.82 650.351 2417.3 629.345 2462.83 599.103 2495.98 556.494 2491.59 478.991 2494.12 456.39 2489.19 436.648 2482 410.793 2471.22 386.531 2453.51 356.021 2430.08 334.617 2406.65 313.214 2382.15 296.53 2337.02 283.967 2285.5 272.202 2203.89 278.782 2159.28 294.735Z" fill="#FFFFFF" fill-rule="evenodd" transform="matrix(1.00004 0 0 1 -1212.26 180.347)"/><path d="M2246.28 423.274 2229.58 444.34 2206.53 484.914 2185.86 519.243 2216.47 521.195 2305.89 518.463 2294.37 500.518 2262.57 440.05 2246.28 423.274Z" fill="#FCC873" fill-rule="evenodd" transform="matrix(1.00004 0 0 1 -1212.26 180.347)"/><path d="M486.007 165.038C487.498 165.038 485.511 161.8 481.284 157.814 472.339 149.345 469.357 150.092 477.557 158.81 480.788 162.298 484.516 165.038 486.007 165.038ZM496.93 181.459C497.426 180.712 496.184 177.224 493.948 173.488 491.462 170.001 488.976 167.759 488.23 168.257 487.735 169.004 488.976 172.492 491.462 175.979 493.698 179.715 496.184 181.957 496.93 181.459ZM513.472 225.64C513.731 225.908 513.933 225.878 514.06 225.504 515.301 222.017 510.083 201.342 508.342 203.086 507.597 203.584 508.592 209.562 510.083 216.288 511.387 221.332 512.692 224.834 513.472 225.64ZM518.574 300.773C518.902 300.559 519.426 297.301 520.263 291.697 521.505 281.484 521.505 267.784 520.263 256.824 518.027 239.388 518.027 240.384 518.027 273.264 518.027 289.081 518.027 297.426 518.308 299.947 518.378 300.578 518.463 300.844 518.574 300.773ZM512.07 335.479C513.311 333.985 515.052 327.507 515.797 320.535 517.288 307.581 514.552 312.812 511.324 329.253 510.329 334.481 510.579 336.973 512.07 335.479ZM503.162 353.263C503.749 353.077 504.745 351.895 506.359 349.653 508.349 346.664 509.59 342.678 509.094 340.934 508.349 339.191 507.603 339.69 507.603 342.428 507.354 344.671 506.359 346.664 504.871 346.664 503.626 346.664 502.385 348.658 502.385 350.897 502.385 352.641 502.571 353.453 503.162 353.263ZM306.925 483.252C318.852 483.467 328.669 482.785 339.601 481.291 357.246 478.549 406.697 462.856 413.156 457.625 415.146 456.131 423.596 450.651 431.796 445.669 439.996 440.688 451.178 432.469 456.646 427.238 469.069 415.778 485.223 395.853 485.223 392.116 485.223 390.622 486.215 389.124 487.46 388.628 490.192 387.63 502.615 362.97 502.615 358.737 502.615 356.993 496.652 365.712 489.696 377.917 477.02 399.836 456.892 423.002 436.515 438.445 415.642 454.388 376.379 470.579 345.069 476.06 299.595 484.279 210.633 473.068 142.296 450.9 124.653 445.17 82.6565 418.52 66.2559 402.078 30.4724 367.455 6.61656 317.139 3.88316 271.555 1.89505 239.672 6.11953 215.012 18.5445 185.37 32.2118 152.241 38.9213 143.274 64.5164 122.35 74.9533 114.13 119.683 95.1993 144.035 88.7229 148.26 87.7266 150.497 63.3158 149.005 33.9235 148.26 15.4906 148.757 8.01778 150.745 8.01778 158.945 8.01778 212.372 48.8688 236.476 73.7776 246.416 84.2394 255.611 92.7086 256.604 92.7086 257.598 92.7086 263.314 90.965 269.278 88.7229 278.224 85.4849 286.176 85.236 311.274 86.4815 328.419 87.2285 350.287 89.7195 359.732 91.9613 376.132 95.4485 423.097 116.87 438.256 127.83 441.983 130.321 445.71 132.563 446.952 132.563 447.947 132.563 452.42 135.303 457.142 139.039 461.615 142.527 465.342 144.52 465.342 143.772 465.342 139.039 447.947 127.83 406.946 106.408 378.369 91.4631 360.228 86.7304 315.996 82.4961 287.915 79.7558 283.194 80.0051 271.514 83.7416 256.604 88.7229 258.841 89.9684 231.755 62.8176 224.3 55.3453 213.615 45.6305 208.148 41.6451 202.681 37.6597 197.711 33.425 196.965 32.678 195.226 30.685 154.969 4.53067 148.26 1.04331 143.29-1.69667 143.29-1.44763 144.284 32.9269 145.029 51.8577 144.781 71.2869 143.787 76.2686 142.296 83.9905 140.805 85.4849 131.611 87.7266 97.5665 96.694 61.5345 115.874 42.8972 135.054 35.4422 142.277 18.0474 170.425 18.0474 174.659 18.0474 176.403 16.5564 180.139 14.5685 183.128 12.8289 186.117 8.60468 199.07 5.6225 211.774-1.83242 242.661-1.83242 278.031 5.374 305.681 10.5926 325.359 31.9632 371.688 35.9391 371.688 36.9332 371.688 37.9272 373.185 37.9272 374.929 37.9272 378.416 63.2741 405.815 75.6987 415.778 86.8811 424.746 110.24 440.438 122.665 446.914 141.799 457.126 217.342 475.062 261.574 479.793 280.957 481.913 294.997 483.034 306.925 483.252Z" fill-rule="evenodd" transform="matrix(1.00004 0 0 -1 762.037 938.449)"/><path d="M60.9129 99.6933C59.6885 97.9658 50.8721 83.1553 41.321 66.8643 11.9328 16.2625 2.87134 1.69906 1.15716 1.45227-0.0674269 1.45227-0.80218 0.711646-0.80218-0.275517-0.80218-2.99072 122.383-1.01614 125.077 1.45227 126.301 2.68648 125.077 7.12948 122.138 11.8195 114.791 23.6675 97.4032 54.7691 89.3215 70.5667 82.9541 82.6619 67.7702 102.655 64.5865 102.655 64.0966 102.655 62.3823 101.174 60.9129 99.6933ZM71.1988 89.0795C74.1377 85.8706 79.0356 77.7251 82.4641 71.3071 85.8927 64.8894 89.8111 57.7311 91.2809 55.7562 92.9948 53.7817 99.6074 41.1931 106.22 28.1107L118.465 3.92068 96.1785 3.92068C83.9336 3.92068 59.1986 3.18005 41.5658 2.19264 23.6881 1.45227 8.99403 1.45227 8.99403 2.43969 8.99403 5.64846 18.79 23.4207 21.2389 24.9017 22.7084 25.8891 27.1167 33.2943 31.2801 41.6868 35.688 50.079 42.5453 62.6679 46.9537 69.3326 51.1169 76.2439 56.5045 84.6364 58.709 88.5858 63.8518 96.7313 64.5865 96.7313 71.1988 89.0795Z" fill-rule="evenodd" transform="matrix(1.00004 0 0 -1 970.523 701.542)"/><path d="M2027.92 1545.97 2081.68 1563.59 2151.48 1549.17 2392.98 1529.15 2416.25 1525.14 2427.48 1503.52 2429.09 1479.49 2373.73 1425.02 2324.78 1357.75 2272.63 1283.26 2269.42 1255.22 2273.43 1213.58 2251.77 1125.47 2188.39 1084.62 2145.87 1021.35C2127.41 1026.42 2072.05 1008.27 2067.24 1001.33 2057.88 1004.26 2058.95 1038.44 2062.42 1045.38 2062.69 1071.01 2062.96 1096.64 2063.23 1122.27L2059.21 1151.1 2064.83 1194.35 2067.24 1249.62 2076.06 1270.44 2077.67 1322.5 2071.25 1368.96 2048.78 1472.28 2056 1509.12 2075.26 1518.73 2027.92 1545.97Z" fill="#DD9524" fill-rule="evenodd" transform="matrix(1.00004 0 0 1 -1212.26 180.347)"/><path d="M1976 767.579 2002.1 771.303 2010.09 783.009 2020.74 811.747 2041.51 858.573 2090.51 944.779 2141.64 1023.54 2104.89 1023.01 2069.21 1002.25 2062.82 1024.07 2060.68 1061.32 2059.08 1071.43 2064.94 1094.31 2062.28 1147.52 2067.08 1214.04 2068.11 1256.05 2071.33 1256.08 2077.73 1295.46C2077.9 1314.62 2078.08 1333.77 2078.26 1352.93L2048.43 1510.44 2069.21 1510.97 2073.47 1518.96 2067.08 1531.19 2042.58 1534.39 2028.2 1548.22 1959.49 1555.67 1865.22 1557.27 1781.07 1539.71 1672.95 1546.63 1606.91 1552.48 1566.43 1550.88 1550.99 1536.52 1547.79 1516.83 1563.77 1496.07 1595.19 1448.18 1623.42 1389.11 1695.32 1455.1 1731.54 1461.49 1750.71 1451.37 1765.62 1430.62 1861.49 1333.24 1882.26 1291.73 1904.1 1273.64 1895.05 1254.48 1896.46 1254.49 1881.73 1227.88 1872.14 1227.88 1846.05 1219.36C1834.06 1223.89 1827.32 1265.22 1809.3 1280.02 1788.62 1293.77 1760.74 1310.8 1737.93 1308.23L1760.3 1168.28 1823.1 1123.06 1816.75 1123.58 1784.8 1095.38 1857.23 978.306 1883.33 932.008 1916.35 887.842 1936.59 859.637 1942.98 843.142 1960.56 786.736 1976 767.579Z" fill="#DE9D30" fill-rule="evenodd" transform="matrix(1.00004 0 0 1 -1212.26 180.347)"/><path d="M2049.04 1566.84 2100.36 1656.55 2055.46 1831.68 2023.38 1860.51 2008.95 1836.48C2010.2 1812.81 2015.19 1789.14 2016.44 1765.47L2014.83 1739.84 2028.73 1670.43 2019.11 1572.18 2049.04 1566.84ZM1818.12 1545.49 1864.09 1570.05 1898.3 1593.54 1881.19 1702.46 1884.4 1800.71 1810.63 1832.74 1814.91 1764.4 1814.91 1701.4 1813.84 1604.22 1818.12 1545.49ZM1775.35 1399.72 1765.73 1437.1 1734.72 1460.59 1702.65 1460.59 1676.46 1433.36 1736.86 1415.21 1775.35 1399.72ZM1648.18 1205.64 1648.23 1207.32C1648.34 1208.24 1648.51 1208.81 1648.68 1209.18L1649.07 1209.78 1648.18 1205.64ZM2189.9 1102.45 2206.6 1104.11 2242.28 1117.27 2271.15 1160.52 2271.15 1235.23 2189.56 1227.11 2189.36 1226.19 2186.95 1203.77 2196.58 1174.94 2202.99 1150.11 2188.56 1124.48 2189.9 1102.45ZM1727.91 1099.25 1766 1175.33 1683.81 1199.76 1649.33 1210.97C1649.3 1210.84 1649.27 1210.7 1649.24 1210.56L1647.75 1213.89C1646.54 1216.34 1644.54 1220.43 1641.31 1227.39 1628.42 1255.22 1615.59 1365.48 1598.01 1390.38 1580.44 1415.27 1548.97 1379.57 1535.87 1376.76 1522.77 1373.96 1518.77 1379.63 1519.43 1373.56 1520.1 1367.48 1532.06 1353.8 1539.88 1340.32 1547.7 1326.84 1561.06 1310.55 1566.34 1292.67 1571.62 1274.78 1565.47 1252.42 1571.55 1233 1577.63 1213.58 1593.53 1192.29 1602.82 1176.14 1612.11 1159.98 1620.4 1141.7 1627.28 1136.09 1630.72 1133.29 1634.06 1132.09 1636.98 1132.99 1639.89 1133.89 1642.38 1136.89 1644.12 1142.5L1646.17 1154.15 1681.4 1124.88 1727.91 1099.25Z" fill="#404040" fill-rule="evenodd" transform="matrix(1.00004 0 0 1 -1212.26 180.347)"/><path d="M2189.04 1228.98 2270.33 1237.04 2270.33 1239.2C2270.6 1255.64 2270.86 1272.07 2271.13 1288.51L2272.73 1359.28 2258.35 1407.8 2242.37 1455.51 2208.01 1527.08 2180.85 1552.53 2156.88 1539.01 2144.9 1523.11 2147.3 1497.66 2159.28 1485.73 2160.08 1464.26 2172.06 1445.17 2188.04 1441.99 2180.85 1410.98 2175.26 1364.06 2178.45 1340.2 2186.45 1303.62 2200.82 1266.24 2191.24 1239.2ZM1718.28 1199.97 1742.25 1218.53C1746.15 1223.47 1743.67 1231.6 1747.57 1236.55 1748.37 1250.95 1730.97 1301.59 1740.65 1308.12 1750.32 1314.66 1803.14 1293.28 1810.95 1281.09 1824.09 1277.02 1819.56 1232.05 1831.72 1229.66L1877 1227.54 1899.9 1259.88 1897.77 1281.62 1879.13 1290.1 1869.01 1321.91 1777.4 1401.43 1715.08 1423.7 1665.02 1439.07 1634.66 1374.4 1650.1 1219.58 1657.56 1209.51ZM2189.64 1100.83 2206.02 1106.85 2189.37 1105.2Z" stroke="#2F528F" stroke-width="4.21167" stroke-miterlimit="8" fill="#F2CBB2" fill-rule="evenodd" transform="matrix(1.00004 0 0 1 -1212.26 180.347)"/><path d="M1878.28 1852.83 1868.13 1878.26 1859.05 1897.19 1856.91 1923.16 1864.39 1928.57 1805.1 1942.64 1742.61 1933.98 1740.48 1904.77 1760.24 1879.88 1788.01 1869.06 1814.18 1855.53ZM2032.63 1844.72 2075.9 1848.5 2107.41 1851.75 2137.85 1866.9 2144.8 1886.37 2141.06 1908.01 2092.45 1912.88 2017.15 1913.42 2015.54 1880.96 2020.88 1856.62Z" fill="#FCC873" fill-rule="evenodd" transform="matrix(1.00004 0 0 1 -1212.26 180.347)"/><path d="M325.112 17.0914C323.615 17.0914 323.864 15.3514 325.611 13.3629 327.355 11.3742 329.847 9.63415 331.095 9.63415 332.589 9.63415 332.339 11.3742 330.596 13.3629 328.852 15.3514 326.357 17.0914 325.112 17.0914ZM343.496 36.8536C341.749 37.1022 340.565 36.3564 340.565 34.4921 340.565 33.2491 342.062 32.0064 344.055 32.0064 346.048 32.0064 348.045 30.5147 348.79 29.0232 349.289 27.2832 350.787 26.5374 351.782 27.5318 352.78 28.5262 351.782 31.012 349.788 33.2491 347.546 35.362 345.24 36.605 343.496 36.8536ZM319.129 56.8643C315.889 56.8643 316.388 55.8699 321.372 51.8924 324.863 49.1582 328.852 46.9212 330.346 46.9212 334.832 46.9212 333.587 51.3955 328.353 54.3784 325.611 55.6213 321.622 56.8643 319.129 56.8643ZM366.988 61.8359C362.003 61.5873 362.003 61.3384 367.986 58.107 376.211 53.384 379.449 53.384 375.463 58.107 373.719 60.0957 369.979 61.8359 366.988 61.8359ZM379.699 66.6208C378.577 66.4966 379.948 64.6945 384.437 61.3384 388.423 58.3555 393.161 54.8755 394.905 53.6329 396.898 52.1413 397.896 52.1413 397.896 54.1298 397.896 55.6213 394.156 59.1013 389.92 61.8359 384.437 65.1917 380.82 66.7452 379.699 66.6208ZM356.738 72.7424C355.645 72.8353 354.773 72.5248 354.274 71.779 353.528 70.536 355.022 68.2987 357.764 66.8071 360.506 65.5645 363.248 65.3159 363.996 66.3103 364.496 67.3046 362.998 69.5417 360.506 71.2818 359.135 72.1521 357.827 72.6489 356.738 72.7424ZM424.272 78.2421C423.337 78.009 422.822 77.4341 422.822 76.502 422.822 74.7618 423.571 74.2646 424.316 75.0104 425.314 76.0048 429.054 74.5132 432.791 71.779 436.781 69.0445 441.765 66.8071 444.507 66.8071 447.748 66.8071 447.249 68.0501 441.516 71.5304 433.666 76.5642 427.074 78.9412 424.272 78.2421ZM634.942 78.9879C633.571 79.4229 632.077 78.6152 630.706 76.502 628.96 73.5189 636.19 65.0673 638.682 67.3046 639.431 68.2987 639.431 71.2818 638.433 74.016 637.561 76.8747 636.313 78.5527 634.942 78.9879ZM338.322 81.4736 323.615 77.9936C298.441 71.779 252.078 69.0445 237.122 72.7734 233.633 73.7678 230.891 73.2703 230.891 72.0273 230.891 71.0332 237.372 68.7959 245.348 67.3046 263.046 64.0729 290.714 63.8243 285.479 67.056 282.737 68.7959 282.737 69.2931 286.476 69.2931 288.719 69.2931 290.714 68.2987 290.714 66.8071 290.714 63.8243 310.156 66.0617 327.105 71.0332 334.582 73.2703 339.819 76.0048 339.819 78.2421 339.819 80.2306 339.071 81.7218 338.322 81.4736ZM564.527 83.68C561.1 84.1456 557.3 83.7106 556.175 81.9708 555.43 80.4792 556.175 79.2365 557.922 79.2365 560.165 79.2365 560.165 78.4904 557.423 76.7506 554.681 75.0104 558.671 74.2646 570.633 74.2646 585.839 74.2646 591.323 76.502 584.841 80.4792 583.597 81.225 582.349 80.7278 582.349 79.4848 582.349 77.9936 579.607 76.7506 576.117 76.7506 572.38 76.7506 570.134 77.9936 570.633 79.982 571.009 81.8466 567.954 83.2137 564.527 83.68ZM350.038 83.9592C342.312 81.7218 340.315 76.7506 346.797 76.7506 348.79 76.7506 350.537 78.4904 350.537 80.4792 350.537 82.4679 350.287 84.2078 350.038 83.9592ZM624.225 88.9311C623.725 88.6825 618.741 87.4395 613.008 85.9479 607.025 84.705 602.29 82.4679 602.29 81.225 602.29 79.982 603.288 79.4848 604.283 80.2306 605.531 80.9764 610.516 81.7218 615.5 82.2193 620.984 82.4679 624.724 83.9592 624.724 85.9479 624.724 87.6881 624.474 88.9311 624.225 88.9311ZM773.906 97.0718C772.598 97.5071 771.789 97.5071 771.789 96.8855 771.789 94.6481 783.751 87.9367 785.249 89.428 785.994 89.9255 783.006 92.4108 779.016 94.6481 777.023 95.767 775.216 96.6369 773.906 97.0718ZM669.591 98.8739C666.35 99.1225 666.35 98.8739 669.591 96.6369 671.584 95.3939 676.072 94.3995 679.56 94.3995L685.792 94.6481 679.56 96.6369C676.072 97.6309 671.584 98.6256 669.591 98.8739ZM407.928 101.671C406.434 101.36 406.494 99.6197 409.113 96.6369 413.349 91.9139 420.33 89.9255 420.33 93.1569 420.33 94.1512 418.337 96.3883 416.091 98.1284 412.477 100.863 409.426 101.981 407.928 101.671ZM352.935 107.45C351.472 107.326 349.665 105.213 348.294 101.111 346.797 96.8855 346.048 92.9083 346.797 92.1625 349.04 89.9255 355.522 97.1341 355.522 101.857 355.522 105.71 354.4 107.574 352.935 107.45ZM634.693 107.823C633.448 108.568 632.2 107.077 632.2 104.343 632.2 101.36 633.448 99.1225 634.693 99.1225 636.19 99.1225 637.188 100.614 637.188 102.603 637.188 104.591 636.19 107.077 634.693 107.823ZM380.728 108.6C380.76 108.258 381.818 107.326 383.938 105.586 389.671 101.111 392.912 100.614 392.912 104.094 392.912 105.586 391.914 106.58 390.666 106.58 389.421 106.58 386.18 107.325 383.688 108.072 381.695 108.693 380.697 108.942 380.728 108.6ZM360.974 108.631C360.756 108.445 360.756 107.823 361.005 106.829 362.003 103.1 379.948 92.6597 381.945 94.6481 382.44 95.3939 378.704 97.8795 373.719 100.614 368.482 103.1 363.248 106.58 362.253 107.823 361.627 108.569 361.191 108.817 360.974 108.631ZM489.374 109.066C484.389 109.066 484.389 109.066 488.875 105.586 494.112 101.857 498.847 102.603 496.355 106.829 495.357 108.072 492.365 109.066 489.374 109.066ZM871.71 112.546C869.935 113.416 868.874 113.292 868.251 112.297 866.757 110.06 871.492 105.586 876.477 104.591 878.473 104.094 880.965 102.354 881.96 100.863 882.959 99.1225 883.954 98.8739 883.954 100.365 883.954 101.857 881.96 104.591 879.468 106.829 875.978 109.812 873.485 111.676 871.71 112.546ZM724.427 114.037C720.44 114.037 721.439 110.557 726.423 107.574L740.631 99.1225 750.6 93.1569 744.368 99.6197C740.881 103.1 735.643 106.58 732.655 107.574 729.414 108.568 726.922 110.557 726.922 111.8 726.922 113.043 725.924 114.037 724.427 114.037ZM453.481 116.523C447.997 116.523 447.498 116.026 450.24 112.795 451.987 110.806 455.474 109.066 457.966 109.066 460.958 109.066 461.956 110.309 461.207 112.795 460.212 114.783 456.971 116.523 453.481 116.523ZM400.357 118.854C397.46 119.071 395.404 117.89 395.404 115.28 395.404 113.292 397.148 111.552 399.141 111.552 401.137 111.552 405.124 110.309 407.865 108.568 415.096 104.094 417.089 108.32 410.358 114.037 406.993 117.02 403.257 118.636 400.357 118.854ZM423.571 119.009C413.349 119.009 413.349 118.014 423.321 113.043 434.538 107.325 438.774 107.823 434.787 114.037 432.545 117.269 428.805 119.009 423.571 119.009ZM879.98 122.625C879.25 122.893 878.533 122.675 877.974 121.743 876.976 120.252 877.475 119.009 878.719 119.009 880.217 119.009 881.461 117.02 881.711 114.783 881.711 112.297 882.459 111.552 882.959 113.292 884.453 116.647 882.162 121.821 879.98 122.625ZM462.205 124.882C461.27 124.789 461.207 124.105 461.706 122.738 463.45 118.263 470.431 115.777 473.173 118.512 474.667 120.003 472.424 121.992 467.939 123.483 464.947 124.478 463.14 124.975 462.205 124.882ZM483.145 126.466C479.405 126.218 479.405 125.969 483.641 122.738 488.875 118.761 491.617 119.506 488.875 123.732 488.129 125.224 485.388 126.466 483.145 126.466ZM406.621 128.703C402.382 128.952 402.382 128.455 405.373 126.466 407.369 125.224 411.855 124.229 415.345 124.229 421.078 124.229 421.078 124.478 416.59 126.466 413.848 127.709 409.363 128.703 406.621 128.703ZM860.377 130.362C859.527 130.428 859.028 130.381 859.028 130.195 859.028 127.709 874.234 122.241 875.479 124.229 876.227 125.472 875.232 126.963 873.485 127.461 868.627 128.952 862.922 130.164 860.377 130.362ZM429.054 131.438C422.573 131.189 422.073 130.941 426.063 128.703 429.553 126.715 431.547 126.715 433.54 128.703 435.533 130.692 434.288 131.438 429.054 131.438ZM451.488 133.923C445.006 133.675 444.507 133.427 448.496 131.189 451.987 129.201 453.98 129.201 455.973 131.189 457.966 133.178 456.722 133.923 451.488 133.923ZM778.915 135.167C777.598 135.369 776.774 135.167 776.774 134.421 776.774 132.432 794.719 121.495 797.71 121.495 798.708 121.495 797.46 123.732 794.968 126.218 791.231 130.319 782.864 134.561 778.915 135.167ZM730.659 135.912C726.423 135.664 726.423 135.664 731.408 134.67 734.399 134.172 736.891 132.432 736.891 131.189 736.891 129.946 738.884 128.952 741.127 128.952 744.867 128.952 744.617 129.449 740.382 132.681 737.889 134.67 733.401 136.161 730.659 135.912ZM351.036 136.409C346.797 136.409 329.348 126.218 327.355 122.738 326.357 120.749 323.119 119.009 320.377 119.009 315.889 119.009 315.391 118.014 316.887 108.072 318.131 101.111 317.635 96.6369 315.889 95.6425 314.394 94.6481 313.147 95.6425 313.147 97.8795 313.147 102.851 305.42 117.269 302.18 118.761 300.933 119.257 302.678 121.246 305.919 122.986 310.655 125.472 310.904 126.218 307.663 126.466 305.171 126.466 303.177 127.709 303.177 128.952 303.177 130.444 298.191 131.438 291.96 131.438 264.79 131.438 230.891 109.066 230.891 91.1681 230.891 82.4679 231.14 82.2193 243.603 79.2365 259.057 75.5076 290.963 77.4961 318.131 83.7106L336.828 87.9367 337.573 101.111C338.073 108.072 339.32 114.037 340.814 114.037 342.062 114.037 343.057 117.02 343.057 120.5 343.057 124.726 344.554 127.461 348.045 128.206 350.787 128.952 353.029 131.189 353.029 132.929 353.029 134.918 352.031 136.409 351.036 136.409ZM466.94 137.342C465.819 137.404 465.197 137.031 465.197 136.161 465.197 133.178 471.429 130.692 475.415 131.935 476.913 132.432 475.415 134.172 471.679 135.912 469.682 136.783 468.062 137.28 466.94 137.342ZM513.646 144.045C511.075 144.815 505.702 136.285 503.832 126.218 502.337 118.512 502.833 117.518 509.814 114.783 514.05 113.292 517.541 110.806 517.541 109.314 517.541 105.586 511.807 105.834 508.071 109.563 505.825 111.8 504.83 111.303 503.582 108.32 500.84 101.36 508.567 96.8855 526.515 95.3939 535.988 94.6481 552.189 92.9083 562.408 91.6653 576.616 89.9255 586.089 90.4223 602.54 93.4051L624.225 97.1341 624.225 106.829C624.474 112.297 623.476 116.523 621.982 116.523 620.734 116.523 619.739 119.257 619.739 122.241 619.739 131.686 611.264 137.404 596.058 138.15 588.332 138.398 582.349 137.652 582.349 136.409 582.349 134.918 580.356 133.923 577.614 133.923 575.122 133.923 570.383 130.444 567.146 126.218 563.905 121.992 559.666 117.02 558.172 115.28 556.425 113.292 554.931 109.066 554.931 105.586 554.931 98.6256 552.688 97.3827 547.95 102.106 543.465 106.58 544.213 113.54 549.946 122.986 555.929 132.432 553.683 134.918 541.471 132.432 534.99 131.438 531.499 131.935 528.508 134.918 526.265 137.404 522.525 138.398 519.783 137.652 516.546 136.658 515.048 137.155 515.048 139.89 515.048 142.5 514.502 143.789 513.646 144.045ZM568.921 145.327C567.831 144.985 567.392 144.116 567.392 142.624 567.392 140.635 566.397 138.895 564.9 138.895 563.655 138.895 562.408 137.652 562.408 136.161 562.408 134.918 564.9 135.415 567.891 137.404 570.883 139.641 575.621 141.381 578.363 141.381 581.104 141.381 582.598 141.878 582.099 142.375 581.6 142.873 578.113 143.867 574.373 144.861 571.754 145.483 570.011 145.669 568.921 145.327ZM646.074 147.452C645.148 146.943 644.665 145.918 644.665 144.364 644.665 137.404 652.89 131.189 661.116 131.935 665.105 132.184 669.84 131.686 671.584 130.444 678.066 126.466 674.076 131.438 665.352 138.398 655.632 145.856 648.857 148.978 646.074 147.452ZM613.602 151.138C612.385 151.076 612.758 149.957 615.5 147.844 619.989 144.364 619.989 144.364 615.5 143.37 612.259 142.624 613.507 141.381 620.238 138.895 625.223 137.155 629.958 133.675 630.457 131.189 631.701 126.715 642.173 125.472 642.173 129.698 642.173 131.935 629.209 143.618 621.233 148.093 617.62 150.206 614.815 151.2 613.602 151.138ZM503.832 157.29C501.589 158.036 500.092 157.29 500.092 155.053 500.092 153.064 501.838 151.324 503.832 151.324 505.825 151.324 507.572 152.319 507.572 153.562 507.572 154.804 505.825 156.296 503.832 157.29ZM512.556 208.497C511.308 208.497 510.064 207.255 510.064 205.763 510.064 204.52 508.816 204.023 507.073 205.017 505.329 206.012 505.079 205.763 506.074 204.023 508.567 199.797 515.048 200.294 515.048 204.769 515.048 206.757 514.05 208.497 512.556 208.497ZM331.84 212.226C325.611 212.226 320.624 211.481 320.624 210.735 320.624 209.74 318.131 208.497 315.141 207.503 310.655 206.509 310.156 205.514 312.649 203.029 314.892 200.792 316.388 200.543 317.635 202.531 318.63 204.023 324.613 206.012 331.344 207.006 337.823 208 343.057 209.492 343.057 210.486 343.057 211.481 338.073 212.226 331.84 212.226ZM533.495 223.412C531.499 223.412 530.005 222.169 530.005 220.678 530.005 218.938 525.766 218.192 518.788 218.938 512.556 219.435 507.572 218.938 507.572 217.944 507.572 216.701 511.308 215.955 515.797 215.955 520.033 215.955 526.265 215.209 529.007 214.463 532.996 213.469 534.74 214.463 535.738 218.192 536.484 221.672 535.738 223.412 533.495 223.412ZM345.707 305.381C344.118 305.07 341.686 303.703 339.57 301.466 337.327 299.477 335.58 296.992 335.58 296.494 335.58 294.755 345.053 300.223 346.797 302.958 348.045 304.946 347.296 305.692 345.707 305.381ZM530.943 307.805C528.524 309.389 526.142 302.585 527.263 293.263 527.762 291.523 526.764 290.777 525.267 291.771 523.523 292.766 522.525 290.777 522.525 287.048 522.525 283.568 521.281 280.585 519.783 280.585 518.539 280.585 517.79 281.58 518.788 282.823 519.537 284.066 519.038 285.806 517.79 286.551 514.05 288.788 512.057 279.84 515.547 276.857 519.537 273.874 519.783 257.716 516.047 252.993 514.3 251.004 512.307 245.536 511.308 240.813 509.814 233.604 510.064 232.609 512.806 235.344 514.549 236.836 517.042 238.327 518.04 238.327 521.78 238.327 519.038 224.655 515.048 222.915 512.307 221.424 512.556 221.175 516.296 221.672 519.287 221.921 521.53 224.406 522.029 227.886 522.525 231.367 525.267 233.852 529.007 234.847 532.996 235.841 534.74 237.83 533.991 239.818 533.246 241.807 533.742 243.298 534.99 243.298 536.484 243.298 537.482 247.773 537.482 253.49 537.482 262.19 538.231 263.433 541.97 261.942 545.208 260.699 545.458 260.947 543.215 263.433 540.972 265.422 540.972 267.908 542.716 271.139 546.456 278.099 546.955 295.5 543.465 295.5 541.721 295.5 539.725 296.992 539.225 298.732 538.231 301.217 537.731 301.217 537.731 298.732 537.482 296.992 534.99 295.749 531.998 295.749 528.009 295.997 527.513 296.494 530.255 297.24 532.996 297.986 533.991 299.974 533.246 303.206 532.561 305.816 531.749 307.277 530.943 307.805ZM320.377 307.929C311.652 307.929 311.153 307.432 309.657 297.489 308.162 288.291 307.663 269.648 308.661 255.727 308.91 253.739 308.661 248.519 308.661 244.044 308.162 237.581 307.414 236.338 303.924 237.581 300.435 239.073 300.186 237.581 301.432 227.141 303.177 215.706 306.168 210.983 311.901 210.983 313.396 210.983 312.649 212.226 310.655 213.469 307.414 215.458 307.663 215.955 311.402 215.955 313.895 215.955 315.391 216.949 314.394 218.192 312.399 221.424 341.313 220.429 343.556 217.198 344.804 215.706 345.552 215.706 345.552 217.695 345.552 221.672 342.561 223.164 333.338 223.909 329.098 224.158 325.611 225.649 325.611 227.39 325.611 229.129 328.852 229.875 335.081 229.129 343.307 228.135 345.053 228.881 347.546 234.35 350.038 239.818 349.788 240.813 346.547 240.813 343.806 240.813 342.811 242.304 343.806 245.784 345.303 251.75 342.561 251.999 334.336 246.779 328.353 242.801 328.103 242.801 328.103 249.513 328.103 255.23 329.098 255.976 333.338 254.982 339.32 253.242 343.057 259.953 337.823 263.433 334.832 265.422 335.081 266.416 338.572 268.902 342.561 272.134 342.312 272.631 337.327 276.857 333.837 279.84 333.088 281.828 335.081 282.574 336.828 283.071 338.073 285.557 338.073 287.794 338.073 291.771 336.329 292.02 325.611 291.026 313.396 290.031 313.147 290.031 313.147 296.494 313.147 300.969 314.394 302.958 317.635 302.958 319.878 302.958 323.615 304.201 325.611 305.443 328.353 307.183 327.105 307.929 320.377 307.929ZM318.381 318.618C315.64 319.363 312.15 318.368 310.405 316.381 308.162 313.646 308.411 312.901 312.15 312.901 314.892 312.901 318.381 313.895 320.128 315.138 322.869 316.631 322.37 317.376 318.381 318.618ZM523.305 338.006C523.024 337.387 522.775 335.647 522.525 332.788 522.029 324.585 522.029 324.335 519.783 330.302L517.79 336.515 518.289 330.302C518.788 325.58 520.033 324.335 523.773 324.831 530.255 326.076 531.749 327.566 528.258 329.803 526.764 330.798 525.021 333.783 524.272 336.515 523.896 338.133 523.586 338.628 523.305 338.006ZM308.816 351.804C308.349 351.368 308.162 350.063 308.162 347.7 308.162 342.978 308.91 342.482 311.153 344.719 313.396 346.955 313.396 348.446 311.153 350.685 310.031 351.804 309.284 352.24 308.816 351.804ZM361.691 359.508C360.32 359.508 357.515 359.135 353.528 358.39 348.79 357.398 348.294 356.649 350.787 353.667 352.53 351.431 352.78 350.186 351.036 350.186 349.539 350.186 347.546 351.431 346.797 352.672 346.048 354.166 342.811 355.158 339.819 355.158 335.331 355.158 334.832 354.662 338.073 352.426 341.064 350.186 340.814 349.94 336.329 350.932 333.088 351.68 330.596 351.181 330.596 349.94 330.596 348.695 333.587 347.454 337.573 347.454L344.305 347.204 336.828 345.464C330.097 343.973 329.348 343.228 330.097 335.274 330.596 330.548 332.339 325.58 334.086 324.086 335.83 322.844 337.823 319.862 338.821 317.872 339.819 315.138 340.565 315.386 341.812 319.862 342.811 322.844 344.804 325.33 346.048 325.33 347.795 325.33 348.045 329.307 347.047 335.274 345.552 344.223 346.048 345.464 351.782 348.2 355.272 349.69 358.014 352.426 358.014 354.166 358.014 355.904 359.511 357.894 361.255 358.39 362.998 359.135 363.061 359.508 361.691 359.508ZM529.07 361.312C527.949 361.327 527.014 361.125 526.515 360.629 523.274 357.644 525.267 355.158 531.25 355.158 534.74 355.158 537.482 356.153 537.482 357.398 537.482 359.262 532.434 361.264 529.07 361.312ZM520.813 394.248C520.346 394.062 519.783 392.82 519.038 390.457 518.04 387.226 517.541 383.995 518.289 383.495 520.033 381.758 527.513 385.236 527.513 387.971 527.513 389.216 526.515 389.712 525.267 388.717 524.022 387.971 522.525 389.462 522.029 391.699 521.653 393.566 521.281 394.434 520.813 394.248ZM520.409 409.723C519.224 409.66 517.79 409.1 516.795 408.105 515.797 407.36 515.048 404.874 515.048 403.134 515.048 400.152 515.797 400.152 518.788 403.383 520.781 405.373 522.525 407.609 522.525 408.355 522.525 409.35 521.593 409.786 520.409 409.723ZM327.551 423.842C326.341 423.83 325.362 423.58 324.863 423.021 321.871 420.039 323.119 417.8 328.603 416.558 333.837 415.067 333.837 414.818 329.847 410.345 327.604 407.859 325.611 402.887 325.611 399.157 325.611 394.185 324.613 392.943 321.372 394.185 317.882 395.679 317.635 394.434 319.129 384.74 320.128 378.773 322.37 370.819 324.114 367.092 327.105 361.125 327.105 360.13 323.365 359.135 321.123 358.39 323.864 358.39 329.348 359.135 343.806 361.125 362.502 369.824 358.263 372.31 355.522 374.051 355.771 375.295 360.007 377.781 366.988 382.005 364.745 393.439 355.272 403.633 351.286 407.859 348.045 412.581 348.045 414.322 348.045 416.062 345.799 417.304 343.307 417.304 340.565 417.304 338.073 418.299 337.573 419.54 336.828 421.78 331.171 423.877 327.551 423.842ZM304.018 444.523C303.8 443.714 303.675 442.037 303.675 439.677 303.675 434.952 304.174 432.965 304.922 435.451 305.42 437.687 305.42 441.664 304.922 444.15 304.548 445.268 304.236 445.331 304.018 444.523ZM483.454 446.604C479.468 446.699 471.679 445.518 456.472 443.155 444.257 441.168 429.304 439.924 423.321 440.173 410.857 441.168 412.104 443.155 406.621 406.119 404.378 391.203 400.389 372.31 397.896 364.357 395.154 356.403 392.413 345.963 391.415 341.238 390.419 336.266 388.423 331.793 386.68 331.297 381.196 329.057 379.699 320.358 378.953 285.557 377.955 249.016 376.957 234.101 374.714 228.384 373.966 226.395 372.721 214.712 371.972 202.283 371.224 190.103 369.979 177.425 368.981 174.69 368.232 171.708 368.731 165.244 370.229 160.025 372.471 152.07 371.972 149.584 367.986 143.618 361.754 135.166 361.255 117.766 366.988 115.529 372.97 113.292 373.22 113.54 369.979 119.009 368.232 121.495 367.487 124.478 368.232 125.224 370.728 127.461 388.673 127.709 394.905 125.472 400.139 123.732 400.638 123.981 399.141 128.703 397.647 133.427 398.645 133.923 408.364 133.923 415.096 133.923 417.838 134.67 415.841 136.161 409.363 140.138 420.33 141.63 427.807 137.652 431.796 135.664 437.03 133.923 439.522 134.172 442.264 134.172 442.763 134.918 440.77 135.664 439.273 136.161 438.275 137.901 439.023 138.895 439.772 140.138 442.015 140.635 444.008 139.641 446.254 138.895 449.245 139.641 450.989 140.884 456.472 145.359 480.4 144.116 489.624 138.647 494.112 136.161 498.348 133.923 499.097 133.923 502.088 133.923 499.346 139.392 492.615 146.85 487.88 152.07 485.388 156.793 486.383 159.279 487.131 161.764 488.379 165.99 489.124 168.725 490.123 171.708 489.624 173.696 487.88 173.696 483.391 173.696 484.888 185.131 491.617 202.035 498.098 218.192 498.098 218.441 495.357 253.739 492.615 288.788 493.613 298.483 500.84 309.918 504.83 316.132 505.329 334.775 501.838 343.228 496.604 355.408 487.63 419.044 487.63 442.41 487.63 445.145 487.444 446.513 483.454 446.604ZM636.939 471.991C635.691 471.991 634.693 470.996 634.693 469.505 634.693 468.264 635.94 467.019 637.434 467.019 638.682 467.019 639.181 466.024 638.433 464.533 637.434 463.043 641.923 462.048 650.148 462.048 659.622 462.048 662.363 462.793 659.622 464.533 657.625 465.778 652.89 467.019 649.15 467.019 645.414 467.019 641.674 468.264 640.925 469.505 640.176 470.996 638.433 471.991 636.939 471.991ZM658.374 474.228C654.634 474.228 655.133 473.482 660.866 470.996 668.842 467.515 673.081 468.264 667.098 471.991 665.105 473.482 661.116 474.477 658.374 474.228ZM634.134 480.258C632.513 480.381 631.329 480.195 630.956 479.699 629.958 477.709 644.914 473.981 646.658 475.719 647.157 475.968 643.916 477.459 639.93 478.95 637.81 479.699 635.754 480.131 634.134 480.258ZM895.42 484.421C893.427 484.421 890.934 483.426 890.186 481.935 889.44 480.691 890.435 479.449 892.432 479.449 894.425 479.449 896.917 480.691 897.666 481.935 898.411 483.426 897.416 484.421 895.42 484.421ZM638.682 489.143C635.192 489.143 634.693 488.647 637.188 487.652 639.181 486.907 643.168 485.166 645.909 483.676 650.398 481.436 650.648 481.436 647.407 485.166 645.66 487.652 641.674 489.393 638.682 489.143ZM649.368 516.271C647.53 515.554 644.788 513.254 640.925 509.277 635.441 503.56 634.693 501.819 637.934 501.819 640.176 501.819 642.173 503.56 642.173 505.55 642.173 507.537 643.916 509.277 645.909 509.277 647.906 509.277 649.649 507.537 649.649 505.55 649.649 503.56 651.892 501.819 654.634 501.819 657.376 501.819 659.622 503.064 659.622 504.305 659.622 505.8 657.875 506.791 655.882 506.791 653.888 506.791 652.391 507.537 652.391 508.781 652.641 509.776 652.641 512.013 652.391 513.753 652.142 516.113 651.207 516.985 649.368 516.271ZM894.175 529.165C889.44 529.165 891.184 522.203 897.167 517.481 902.151 513.753 902.9 511.018 902.65 500.578 902.151 492.375 902.65 489.889 904.144 493.12 909.129 505.55 904.643 524.193 896.668 524.193 894.924 524.193 894.425 525.434 895.17 526.679 895.919 528.17 895.42 529.165 894.175 529.165ZM235.378 570.023C233.757 569.745 231.514 566.95 229.395 561.729 226.654 555.016 223.413 551.039 218.428 549.299 205.965 545.072 187.021 553.029 183.033 564.214 182.285 566.201 180.789 566.95 179.792 565.955 176.552 562.724 184.528 549.299 192.505 545.072 198.986 541.595 201.977 541.345 212.446 543.831 226.903 547.312 237.122 555.266 237.621 563.219 237.995 568.068 236.998 570.305 235.378 570.023ZM190.386 571.268C189.14 571.236 188.516 570.428 188.516 568.937 188.516 565.705 195.496 562.724 197.989 564.96 198.737 565.955 197.989 567.695 195.994 568.937 193.502 570.554 191.632 571.3 190.386 571.268ZM246.283 591.152C245.037 590.938 243.354 589.819 241.609 587.829 239.864 585.839 237.372 583.852 235.627 583.353 233.882 582.857 233.134 580.867 233.633 579.13 234.381 576.891 236.624 577.636 241.609 581.367 245.348 584.348 248.339 587.829 248.339 589.071 248.339 590.688 247.529 591.37 246.283 591.152ZM736.206 597.432C735.457 597.71 734.026 594.914 732.406 588.824 731.158 583.353 730.909 578.881 732.156 578.881 733.151 578.881 734.898 582.857 735.893 587.58 737.014 593.796 736.954 597.151 736.206 597.432ZM743.405 610.171C742.937 610.512 741.753 609.208 739.883 606.223 738.385 603.737 737.889 601.005 739.134 600.259 740.382 599.514 741.876 601.251 742.624 604.236 743.622 607.84 743.872 609.83 743.405 610.171ZM72.1429 620.734C71.6757 620.766 71.1147 620.143 70.3667 618.902 69.1206 616.912 69.6191 614.676 71.6132 613.434 75.8507 610.699 81.3343 610.449 77.346 613.185 75.8507 614.18 74.1058 616.666 73.3581 618.652 72.9841 620.02 72.6101 620.703 72.1429 620.734ZM732.406 626.265C731.657 625.365 730.536 622.257 728.666 616.416 726.174 609.208 724.676 602.495 725.425 601.75 726.174 601.005 726.922 602.246 726.922 604.482 726.922 606.472 728.666 610.203 730.909 612.19 732.902 614.426 734.399 619.148 733.9 622.879 733.527 625.861 733.151 627.165 732.406 626.265ZM10.5441 633.568C6.55591 633.568 4.0634 631.082 4.0634 626.856 4.0634 621.634 10.7934 623.128 12.2891 628.596 13.0366 631.578 12.2891 633.568 10.5441 633.568ZM746.614 653.453C745.616 653.453 744.617 647.489 744.867 640.527 745.117 633.319 744.368 624.869 743.373 621.884 742.375 618.403 742.624 616.167 744.118 616.167 747.858 616.167 749.356 623.128 749.106 639.286 748.857 646.99 747.858 653.453 746.614 653.453ZM37.4645 660.819C37.0905 660.85 36.592 659.792 35.7196 657.679 32.9778 650.471 33.4762 646.99 36.7165 650.221 38.2121 651.715 38.9598 654.947 38.4614 657.433 38.0877 659.669 37.8385 660.787 37.4645 660.819ZM30.7188 663.548C29.3167 664.982 26.3723 660.228 25.2505 652.957 24.5027 646.99 23.2566 639.036 22.5087 634.81 21.5116 628.846 21.7609 628.1 24.0041 631.578 25.4998 634.064 26.7462 639.781 26.9955 644.753 27.2445 649.725 28.2416 654.201 29.488 654.947 30.4851 655.692 31.482 657.929 31.482 659.919 31.482 661.905 31.186 663.071 30.7188 663.548ZM747.609 682.415C747.407 682.352 747.236 681.667 747.11 680.302 747.11 677.816 746.115 675.826 744.867 675.826 743.869 675.826 743.123 671.35 743.123 666.132 743.123 660.664 743.869 657.433 744.617 658.924 745.616 660.414 747.359 660.91 748.607 660.165 749.852 659.419 750.351 662.9 749.852 667.872 749.106 677.194 748.219 682.602 747.609 682.415ZM768.548 690.742C764.808 690.742 763.314 682.289 762.815 660.165 762.566 645.252 761.068 632.324 758.826 626.606 753.592 614.18 750.101 601.75 747.858 590.811 747.11 585.593 745.366 581.367 744.368 581.367 743.373 581.367 741.876 576.644 740.881 570.927 739.883 565.209 737.889 559.492 736.143 558.497 732.902 556.507 732.156 536.373 735.148 525.933 736.642 520.466 736.392 518.972 733.9 519.717 729.91 521.211 724.427 509.277 726.922 504.305 731.158 495.606 732.156 486.408 728.915 487.403 727.169 488.148 724.926 491.879 724.18 495.856 722.683 502.568 722.434 502.568 722.184 493.866 722.184 488.647 720.939 484.421 719.442 484.421 718.198 484.421 716.95 482.681 716.95 480.444 716.95 478.205 714.707 473.233 711.965 469.505L706.981 462.547 722.434 463.788C731.158 464.284 746.115 466.024 755.585 467.269 765.307 468.51 794.469 470.251 820.393 471.246 847.066 472.241 864.511 473.732 860.276 474.727 856.286 475.719 854.792 476.464 857.035 476.714 859.277 476.714 861.52 478.205 862.019 479.945 862.518 481.436 866.508 482.681 870.993 482.681 877.724 482.681 878.969 483.676 878.969 488.398 878.969 492.375 877.225 494.365 873.485 494.861 866.009 495.856 865.51 503.56 872.986 505.3 881.215 507.537 882.959 506.046 884.952 496.352 886.695 488.647 886.945 488.398 890.186 492.871 892.182 495.606 893.926 496.352 893.926 494.611 893.926 492.871 895.17 492.375 896.668 493.12 898.411 494.365 897.416 496.601 894.175 499.583 891.433 502.319 889.69 506.046 890.435 508.036 891.683 510.768 890.186 511.763 885.451 511.763 878.969 511.763 878.969 512.013 882.959 517.98 886.695 523.697 886.695 524.193 882.959 524.193 880.716 524.193 878.969 525.434 878.969 526.928 878.969 528.419 881.215 529.165 883.954 528.419 889.936 526.928 890.186 527.674 884.952 532.892 881.461 536.124 880.217 536.373 878.719 533.638 876.976 531.152 875.978 531.152 873.485 533.638 870.993 536.124 871.492 537.119 875.978 538.114 878.969 539.109 880.716 540.6 880.217 541.841 879.468 542.836 875.978 542.836 872.737 541.595 868.75 540.1 866.508 540.1 866.508 541.595 866.508 543.085 868.002 544.081 869.749 544.081 871.742 544.081 871.492 545.072 869 546.566 866.009 548.553 866.009 549.049 868.75 549.049 871.492 549.049 871.492 549.798 869 552.78 867.253 554.77 862.269 556.507 857.783 556.507 844.324 556.507 841.582 558.497 844.324 565.705 847.565 574.158 845.319 580.122 836.345 586.338 832.358 589.32 829.117 593.297 829.117 595.287 829.117 600.505 817.651 611.444 813.665 609.953 811.918 609.208 808.677 609.704 806.684 611.195 803.693 612.935 803.693 614.18 806.185 616.666 811.419 621.884 809.675 629.838 801.699 634.314 797.71 636.8 794.223 640.527 794.223 642.517 794.223 644.504 793.224 645.998 791.727 645.998 790.483 645.998 789.235 647.985 789.235 650.471 789.235 652.957 786.493 656.684 783.006 658.424 779.516 660.165 776.774 663.15 776.774 665.137 776.774 666.877 775.276 668.368 773.283 668.368 769.543 668.368 766.056 681.047 768.299 687.011 769.294 689.001 769.294 690.742 768.548 690.742ZM376.707 728.028C374.714 728.028 372.97 726.287 372.97 724.3 372.97 722.31 371.972 720.57 370.478 720.57 369.231 720.57 367.986 719.328 367.986 718.084 367.986 716.593 370.728 717.338 374.215 719.575 377.705 721.814 380.447 724.547 380.447 725.791 380.447 727.033 378.704 728.028 376.707 728.028ZM746.86 740.457C745.616 740.457 744.368 736.481 744.368 731.755 744.368 726.786 743.123 723.056 741.377 723.056 739.883 723.056 739.383 722.31 740.382 721.315 743.123 718.583 749.356 728.028 749.356 734.74 749.356 737.971 748.357 740.457 746.86 740.457ZM64.3534 765.626C63.637 765.127 62.7645 764.072 61.8918 762.581 57.9038 756.365 59.3995 753.633 63.8859 758.851 65.3816 761.09 66.3788 763.823 65.88 765.314 65.6308 766.059 65.0701 766.122 64.3534 765.626ZM747.11 767.8C743.869 767.8 743.869 767.304 746.614 765.563 748.857 764.072 749.106 763.077 747.11 761.586 745.366 760.591 742.874 761.09 741.127 762.332 739.383 763.573 724.676 765.314 707.976 765.813L677.816 767.054 679.809 760.591C688.035 733.496 688.035 733.995 682.302 716.343 679.313 707.148 674.575 694.469 671.584 688.752 667.348 679.803 666.849 675.081 668.093 663.15 669.341 651.216 668.842 647.985 665.851 646.99 663.857 645.998 662.114 642.517 662.114 638.786 662.363 632.077 668.842 603.49 675.823 578.881 680.558 562.224 680.059 547.312 674.575 548.553 663.358 551.289 659.622 551.289 659.622 549.299 659.622 547.808 661.615 545.571 664.107 544.081 666.849 542.34 667.098 541.595 664.606 542.34 660.617 543.332 654.634 538.61 654.634 534.383 654.634 532.892 652.89 531.651 650.897 531.651 645.66 531.651 646.159 529.414 652.89 524.193 655.882 521.707 660.617 515.494 663.358 510.522 667.597 502.568 667.597 500.828 664.606 498.342 662.613 496.851 660.617 492.375 660.367 488.148 660.117 482.431 660.617 481.686 662.363 485.166 663.857 487.403 664.107 490.634 663.358 491.879 662.613 493.37 663.358 494.365 665.352 494.365 667.348 494.365 670.838 496.601 673.331 499.333 675.823 502.069 679.064 504.059 680.558 503.56 683.549 502.568 689.532 512.758 689.532 518.725 689.532 521.457 691.026 520.712 695.265 516.239L700.998 510.023 703.99 522.452C705.484 529.414 708.475 536.869 710.718 538.859 712.714 541.345 713.709 545.322 712.714 548.553 711.965 551.785 712.464 554.021 714.208 554.021 715.952 554.021 716.451 556.757 715.702 560.983 714.707 566.451 715.456 565.705 719.442 557.752L724.676 547.808 722.933 558.993C722.184 565.209 720.44 571.173 719.193 572.418 716.201 575.649 716.451 581.367 719.442 581.367 720.939 581.367 721.934 579.377 721.934 577.14 721.934 570.428 726.174 576.644 727.917 585.839 728.915 591.806 728.416 594.292 725.674 595.287 723.182 596.282 721.934 600.505 721.934 607.963 721.934 613.93 722.933 618.403 724.18 617.657 726.174 616.416 727.418 624.619 730.909 667.872 731.657 676.322 733.401 683.284 734.648 683.284 735.893 683.284 736.891 685.024 736.891 687.261 736.891 689.251 735.893 690.243 734.399 689.497 730.909 687.261 731.408 689.996 735.643 696.459 738.884 701.431 738.884 702.922 735.643 708.886 733.65 712.616 732.655 717.338 733.65 719.328 734.399 721.315 733.65 723.056 732.156 723.056 729.165 723.056 723.931 714.357 725.924 712.367 726.673 711.621 726.174 708.886 724.676 706.403 723.182 703.917 721.934 703.418 721.934 705.158 721.934 708.639 711.965 709.385 711.965 705.654 711.965 703.917 709.972 704.163 706.482 705.904 703.241 707.644 700.499 708.639 700 708.39 699.501 707.894 698.755 708.14 698.256 708.639 698.007 709.135 699.75 711.621 702.243 714.107 704.985 716.843 706.981 717.588 706.981 716.097 706.981 714.357 708.225 713.112 709.473 713.112 710.967 713.112 711.965 714.852 711.965 716.843 711.965 718.829 713.46 720.57 715.206 720.57 717.199 720.57 721.189 723.305 724.18 726.537 728.915 731.509 729.414 733.995 727.917 745.18 726.673 755.124 726.922 757.856 729.664 758.105 731.657 758.355 730.409 759.35 726.922 760.342L720.69 762.332 727.418 762.581 734.149 762.828 733.151 746.175C732.156 730.763 732.406 730.018 734.898 737.971 737.39 745.18 737.889 745.676 738.635 741.203 739.633 736.231 739.883 735.981 744.118 739.958 746.614 742.198 748.108 745.676 747.359 747.416 746.86 748.907 747.359 750.401 748.607 750.401 749.852 750.401 751.099 754.378 751.099 759.1 751.099 765.314 749.852 767.8 747.11 767.8ZM69.8683 780.135C69.4943 780.106 68.9958 778.988 68.1234 776.748 66.1293 772.026 67.6249 768.299 70.3667 771.031 71.1144 771.776 71.3636 774.512 70.8655 776.998 70.4915 779.111 70.2423 780.166 69.8683 780.135ZM124.176 790.047C122.837 789.8 121.091 788.433 120.219 786.196 119.222 783.71 119.97 782.715 121.715 783.211 123.21 783.71 125.204 785.697 125.703 787.188 126.451 789.428 125.516 790.296 124.176 790.047ZM169.238 794.027C165.538 794.15 162.282 793.964 159.852 793.405 157.11 792.905 151.127 791.168 146.641 789.674 138.166 787.188 138.166 786.942 139.911 776.003 140.908 769.291 140.658 764.072 139.163 763.077 134.177 760.095 128.943 723.305 127.448 681.047 125.703 638.041 125.952 637.296 132.682 616.416 136.67 604.732 140.658 594.788 141.656 594.292 142.902 593.796 143.65 590.565 143.65 587.333 143.65 584.099 144.896 581.367 146.391 581.367 147.638 581.367 148.386 580.371 147.638 579.13 145.644 575.899 159.104 573.413 169.074 574.904 195.496 579.377 213.941 583.852 216.933 586.089 219.924 588.575 242.108 594.788 244.85 593.796 245.847 593.547 247.342 594.292 248.09 595.537 248.838 596.778 253.325 600.259 257.811 603.49 262.048 606.472 265.787 610.203 265.787 611.444 265.787 617.657 290.215 645.998 298.939 649.975 303.924 652.461 308.162 655.692 308.162 657.183 308.162 658.674 310.904 662.651 314.394 665.882L320.873 671.849 315.141 676.571C311.153 679.803 310.655 680.798 313.895 679.803 316.887 678.808 318.131 679.803 318.131 682.788 318.381 688.256 325.611 698.446 325.611 692.978 325.611 690.988 324.364 688.006 322.62 686.266 318.63 682.289 322.121 679.307 326.357 682.788 328.353 684.525 330.596 685.024 331.344 684.279 332.09 683.284 334.832 683.533 337.327 684.279 341.064 685.77 341.064 686.266 338.073 688.256 335.58 689.747 337.823 689.996 344.055 689.001 351.782 687.757 353.528 688.256 352.53 690.988 351.782 692.978 350.038 694.219 348.544 693.973 345.053 693.228 342.561 700.186 345.552 701.927 349.788 704.413 348.544 713.857 344.305 712.117 342.312 711.372 340.565 711.871 340.565 712.866 340.565 714.107 342.312 715.848 344.554 716.593 346.547 717.338 347.795 719.079 346.797 720.57 345.799 722.061 348.045 722.31 352.78 721.565 358.263 720.32 361.504 721.315 365.74 725.292 371.972 731.01 369.231 732.005 357.016 728.028 352.78 726.786 346.048 725.046 341.812 724.051 335.331 722.806 335.081 722.31 339.32 720.57 343.556 719.079 343.556 718.829 337.327 717.089 333.338 716.097 330.596 713.611 330.346 711.125 330.346 708.14 329.847 707.894 328.852 710.13 328.103 712.117 329.098 716.343 330.845 719.824 333.587 724.796 333.587 726.287 330.596 728.028 324.114 732.005 331.095 735.981 339.071 733 350.287 728.773 355.022 730.264 345.552 735.236 327.105 744.684 324.364 746.671 324.613 750.401 324.863 752.388 325.112 756.119 325.362 758.604 325.362 760.841 326.856 762.828 328.353 762.828 329.598 762.828 330.346 761.836 329.598 760.591 328.103 758.355 343.057 762.332 355.522 767.304 361.005 769.79 361.255 770.036 356.52 770.036 353.778 770.286 350.537 769.54 349.539 768.545 347.546 766.558 339.57 765.314 328.103 765.314 319.129 765.314 315.141 762.082 314.892 754.378 314.643 750.897 313.646 747.915 312.898 747.915 309.657 747.915 298.191 723.305 299.687 719.575 300.684 717.089 299.936 715.598 297.444 715.598 295.2 715.598 292.458 714.107 291.461 712.616 289.467 709.135 272.518 700.685 268.031 700.685 266.535 700.685 257.064 697.451 247.093 693.474 237.122 689.251 226.654 685.77 224.161 685.271 221.668 684.775 219.176 683.78 218.428 683.034 217.68 682.039 211.449 677.816 204.22 673.59 197.241 669.363 190.76 663.895 190.012 661.905 189.264 659.669 187.021 658.424 185.027 659.17 183.033 659.919 179.045 658.178 176.053 655.443 172.315 651.962 169.822 651.216 168.077 652.957 166.083 654.947 167.329 657.433 172.315 661.409 176.053 664.641 183.282 670.605 188.267 674.585 198.737 683.533 210.701 689.497 218.926 690.492 220.921 690.742 221.17 691.487 219.176 693.474 217.431 695.215 217.431 699.69 218.926 707.644 220.173 714.107 220.671 730.264 219.924 743.689 218.926 757.856 219.425 770.036 220.921 772.522 222.665 776.003 222.416 777.993 219.674 780.229 217.68 781.97 215.935 782.715 215.935 781.97 215.935 780.975 210.701 782.965 204.22 786.196 195.434 790.483 180.338 793.654 169.238 794.027ZM730.005 798.531C729.225 798.623 728.043 798.004 726.174 796.636 722.184 793.405 722.184 793.155 725.924 791.664 728.167 790.669 730.659 790.669 731.158 791.168 731.907 791.664 731.907 793.9 731.408 796.14 731.158 797.631 730.785 798.436 730.005 798.531ZM258.06 798.872C254.571 802.353 243.354 775.507 243.354 763.823 243.354 760.591 242.357 757.36 240.861 756.615 239.615 755.869 238.12 749.902 238.12 743.439 237.87 736.976 237.372 733.745 236.624 736.231 234.381 745.18 231.39 739.712 229.894 723.056 228.897 713.611 227.152 705.654 225.656 705.654 224.41 705.654 223.413 702.672 223.413 699.191 223.413 693.973 224.41 692.978 227.9 694.469 230.143 695.464 233.882 696.459 235.876 696.955 243.105 698.695 272.019 709.135 280.245 712.866 292.209 718.583 300.435 730.514 292.209 730.514 290.215 730.514 287.972 734.49 286.975 739.958 285.23 750.152 278.001 769.044 270.523 782.965 268.031 787.937 265.787 793.9 265.787 796.14 265.787 798.623 264.541 799.618 263.295 798.872 261.799 797.877 261.301 796.14 262.298 794.895 263.046 793.654 262.298 790.919 260.802 788.929 259.057 786.942 258.559 783.461 259.307 781.224 260.304 778.738 259.556 777.743 257.811 778.239 253.823 779.733 253.075 793.405 256.814 795.641 258.31 796.636 258.808 798.127 258.06 798.872ZM682.583 807.543C681.243 807.635 679.187 806.58 677.317 804.34 673.827 800.117 676.322 797.631 683.799 797.631 687.539 797.631 689.282 796.636 688.284 794.895 687.289 793.405 685.046 792.905 683.05 793.654 681.307 794.4 679.064 793.9 678.315 792.409 677.317 791.168 678.565 789.428 680.558 788.682 682.801 787.937 684.547 785.201 684.547 782.965 684.547 776.253 687.788 773.517 698.007 771.776 706.981 770.036 707.477 770.286 704.735 773.767 702.742 776.003 699.75 777.743 698.007 777.743 693.272 777.743 693.518 781.72 698.256 783.71 702.492 785.201 709.473 778.988 709.473 773.767 709.473 769.79 713.46 769.044 715.702 772.772 718.447 776.998 709.224 787.687 702.991 787.687 698.506 787.687 697.009 789.178 697.009 792.905 697.009 797.381 698.007 797.877 702.742 796.386 715.206 792.659 719.442 792.16 719.442 794.895 719.442 796.386 721.189 797.631 723.182 797.631 725.175 797.631 726.922 798.623 726.922 799.618 726.922 804.094 723.681 804.59 717.948 800.862 712.215 797.381 711.965 797.381 711.965 802.353 711.965 808.32 705.733 809.562 703.49 803.844 701.744 798.872 697.009 799.122 697.009 804.094 697.009 807.821 696.51 807.821 690.776 804.094 683.3 799.122 681.806 799.122 683.549 803.844 684.547 806.207 683.922 807.448 682.583 807.543ZM692.274 817.515C689.282 817.515 686.041 812.543 687.788 810.806 689.532 809.066 694.516 812.297 694.516 815.279 694.516 816.523 693.518 817.515 692.274 817.515ZM162.656 824.136C161.97 824.91 160.724 824.104 159.602 820.996 158.605 818.51 157.359 815.528 156.861 814.533 156.362 813.289 156.861 812.543 158.356 812.543 159.602 812.543 161.596 814.783 162.344 817.765 163.466 820.996 163.341 823.359 162.656 824.136ZM96.0408 828.704C94.5451 830.195 83.8268 810.806 83.8268 806.826 83.8268 804.839 82.0819 802.603 80.0881 801.608 78.094 800.862 76.3491 798.623 76.3491 796.386 76.3491 794.4 74.6042 792.659 72.6101 792.659 69.3698 792.659 69.3698 791.914 71.6132 789.428 74.355 786.692 75.6011 786.942 79.0909 790.419 82.5804 793.9 86.5686 801.854 87.5659 807.572 87.5659 808.32 89.8092 813.043 92.3018 818.261 94.7944 823.482 96.5393 828.205 96.0408 828.704ZM115.732 832.181C104.515 831.935 103.519 831.686 109.999 829.945 120.967 827.21 128.694 827.21 128.694 829.945 128.694 831.436 122.961 832.181 115.732 832.181ZM116.48 862.259C112.99 862.259 110.747 857.786 113.24 856.295 115.732 854.805 118.723 857.041 118.723 860.272 118.723 861.267 117.727 862.259 116.48 862.259ZM708.011 862.995C705.92 864.685 704.985 860.396 705.733 851.074L706.482 841.13 702.991 849.333C700 856.046 698.755 856.791 696.014 854.305 694.017 852.565 693.518 850.824 694.766 850.328 696.014 849.833 697.009 846.102 697.009 842.125 697.009 837.403 696.014 835.167 694.516 836.158 691.525 837.899 684.547 833.176 684.547 829.449 684.547 828.205 686.291 828.205 689.033 829.449 695.764 832.927 708.974 835.662 704.489 832.431 701.993 830.94 701.744 829.945 703.74 829.945 706.981 829.945 706.981 821.492 703.74 818.51 702.742 817.515 701.993 815.029 701.993 813.289 701.993 810.307 702.742 810.557 705.983 813.538 710.222 818.014 714.458 816.77 714.458 811.053 714.458 809.066 716.95 807.572 720.191 807.572 725.175 807.572 725.924 808.816 725.425 815.029 725.175 819.256 725.924 822.737 727.169 822.737 728.416 822.986 730.659 823.233 732.406 823.482 737.141 823.978 737.39 829.2 732.902 833.672 729.664 836.907 729.165 838.894 731.158 842.125 734.399 847.347 730.16 851.573 720.44 852.815 715.952 853.31 712.215 855.796 710.468 859.277 709.536 861.204 708.709 862.433 708.011 862.995ZM680.495 876.18C680.185 876.366 680.059 875.434 680.059 873.447 680.059 870.712 680.807 866.239 682.052 863.504 683.3 860.522 684.048 860.023 684.048 862.259 684.048 864.249 683.05 868.722 682.052 872.203 681.307 874.689 680.807 875.993 680.495 876.18ZM205.945 884.175C205.077 884.213 203.846 884.197 202.226 884.137 194 884.137 178.546 880.157 178.546 878.419 178.546 877.671 181.537 877.671 185.525 878.419 190.012 879.165 189.264 878.419 183.282 876.429 178.297 874.938 172.315 871.957 170.071 869.967 166.831 867.231 166.083 867.231 166.083 869.967 166.083 874.193 151.875 857.786 149.881 851.074 148.884 848.339 146.641 842.375 144.647 838.148 140.658 829.2 136.172 799.122 138.415 795.391 140.908 791.664 153.371 795.145 151.875 799.122 151.127 801.109 152.124 802.603 154.617 802.603 156.861 802.603 158.605 803.844 158.605 805.086 158.605 808.32 154.617 808.32 148.386 805.086 145.644 803.595 143.65 803.348 143.65 804.839 143.65 806.081 145.394 807.572 147.389 808.567 149.382 809.312 151.127 812.297 151.127 815.279 151.127 818.014 153.869 823.732 157.359 827.955 160.849 831.935 163.591 837.153 163.591 839.39 163.591 843.12 164.089 843.12 166.083 839.889 167.578 837.899 168.326 832.927 168.077 828.704 167.828 824.724 169.074 818.51 170.819 815.279 173.81 809.811 173.81 809.312 168.825 810.806 165.335 811.552 163.591 810.806 163.591 808.567 163.591 802.849 177.798 804.094 181.039 810.057 182.534 812.793 186.024 815.029 188.516 815.029 191.258 815.029 193.502 816.274 193.502 817.515 193.502 819.006 196.244 820.001 199.733 820.001 206.962 820.001 206.713 820.001 203.472 828.95 201.478 833.672 201.478 836.158 203.472 837.403 205.217 838.398 203.721 843.12 199.733 850.824 192.255 864.995 192.255 865.244 198.986 869.471 203.721 872.452 204.719 872.203 207.46 868.722 209.454 865.99 210.95 865.491 212.196 866.985 214.938 871.457 210.95 874.689 202.724 874.938 195.994 874.938 195.496 875.434 199.733 877.175 202.475 878.419 203.721 879.411 202.226 879.661 200.98 879.91 201.977 880.905 204.719 882.147 207.897 883.451 208.551 884.058 205.945 884.175ZM545.802 926.767C545.584 925.959 545.458 924.281 545.458 921.919 545.458 917.196 545.957 915.206 546.705 917.692 547.204 919.932 547.204 923.909 546.705 926.395 546.33 927.513 546.02 927.576 545.802 926.767ZM556.365 986.24C553.996 986.364 551.94 985.059 549.697 982.324 546.456 978.596 546.705 978.347 551.94 979.591 555.18 980.583 557.423 980.087 557.423 978.097 557.423 976.606 554.931 974.12 551.94 972.879 548.449 971.388 545.957 967.907 545.707 964.177 545.458 958.709 545.458 958.709 546.705 963.681 548.449 971.634 550.692 970.393 554.182 959.953 556.425 952.742 556.425 950.256 554.182 948.765 551.94 947.274 551.94 945.534 554.681 941.307 556.425 938.325 557.174 935.59 555.68 935.094 554.432 934.598 553.933 926.891 554.432 917.942 555.18 907.752 554.432 900.54 552.688 898.803 549.697 895.818 548.948 886.373 551.69 883.887 552.439 882.892 552.938 875.434 552.688 867.231 552.439 857.786 553.187 852.319 554.681 852.319 556.175 852.319 557.423 851.324 557.423 849.833 557.423 848.588 555.68 847.347 553.683 847.347 551.44 847.347 549.946 845.107 549.946 841.876 549.946 837.153 550.442 836.907 552.439 839.889 554.432 842.871 554.931 842.621 554.931 838.148 554.931 835.167 555.929 832.181 557.174 831.436 558.421 830.691 558.917 825.469 558.172 820.001 557.174 813.538 557.673 810.057 559.666 810.057 561.163 810.057 562.408 806.826 562.408 802.603 562.408 794.895 557.922 791.914 557.423 799.618 557.423 801.854 556.674 809.562 555.68 816.274 553.933 828.454 553.933 828.454 552.688 820.001 550.941 810.307 554.681 787.687 557.922 787.687 558.917 787.687 559.915 785.947 559.915 783.957 559.915 781.97 560.914 780.229 562.158 780.229 565.648 780.229 564.154 747.17 560.664 744.185 558.172 742.198 558.172 740.208 560.914 734.986 564.9 727.282 565.149 726.786 564.9 700.685 564.65 690.492 565.648 677.317 566.896 671.6 568.64 664.391 568.39 660.91 566.647 660.165 564.9 659.669 563.406 649.229 562.408 635.059 561.659 621.884 559.915 610.203 558.421 609.208 553.933 606.223 551.69 586.338 555.43 581.862 557.423 579.626 557.423 578.631 555.929 579.626 552.938 581.367 550.941 572.168 548.449 548.057 547.95 542.586 546.456 537.618 544.959 537.119 541.721 535.877 541.721 529.165 544.959 529.165 546.456 529.165 546.456 526.928 544.959 523.198 543.714 519.966 542.466 511.763 541.97 505.051 541.222 493.37 541.222 493.12 549.198 492.375 555.43 491.879 557.673 489.889 559.666 484.172 561.909 477.958 561.413 475.968 557.174 471.742 551.191 465.778 541.97 462.048 533.495 462.048 530.255 462.048 527.513 461.053 527.513 460.061 527.513 458.816 532.497 458.567 538.73 459.562 546.955 460.806 549.447 460.557 547.454 458.567 545.957 457.076 543.465 455.834 541.721 455.585 527.513 454.343 528.258 454.839 533.495 450.862 538.73 446.885 543.465 445.89 541.471 449.122 540.972 450.117 550.196 451.112 561.909 451.358 580.855 451.608 595.559 453.348 626.717 458.816 630.956 459.562 634.693 461.053 634.693 462.048 634.693 465.033 624.973 466.77 623.226 464.284 621.233 460.806 617.247 461.552 618.491 465.279 620.238 469.505 617.247 472.986 608.522 477.958 601.042 482.185 601.042 482.185 607.774 480.94 611.264 480.195 615.999 478.95 617.743 478.205 619.989 477.213 621.483 478.205 621.483 480.444 621.483 482.431 620.485 483.676 619.49 483.176 618.491 482.431 617.743 485.912 617.743 490.634 617.743 499.087 624.973 511.763 629.958 511.763 632.2 511.763 642.173 520.712 642.173 522.702 642.173 523.448 639.431 526.928 636.19 530.406 627.216 540.1 626.467 546.317 633.698 549.299 637.188 550.543 640.925 551.535 642.422 551.535 643.667 551.535 648.901 553.525 654.384 555.762 662.859 559.492 664.107 560.983 663.857 567.942 663.608 572.418 663.109 575.649 662.363 575.15 660.367 574.158 660.117 580.867 658.623 635.555 657.875 664.142 658.124 680.302 659.622 679.553 661.116 678.562 662.114 679.803 662.114 682.039 662.114 684.029 663.109 687.757 664.606 690.243 669.341 698.446 679.56 725.542 679.56 729.269 679.56 731.509 677.816 736.481 675.823 740.457 672.332 746.92 670.838 755.124 669.84 768.545 669.591 771.281 667.597 772.772 663.608 772.772 658.124 772.772 657.875 773.271 659.868 782.219 665.105 806.33 667.348 825.223 665.851 831.935 664.107 840.385 666.599 852.319 670.09 852.319 671.584 852.319 672.083 848.339 671.584 843.616 670.589 833.922 673.331 834.917 675.823 845.357 677.067 850.578 676.322 852.565 672.332 854.805 669.092 856.542 667.098 860.023 667.098 864 667.098 867.73 665.352 872.702 663.109 874.938 659.622 878.915 659.372 880.656 662.114 886.869 665.105 894.327 663.608 904.52 659.372 904.52 654.384 904.52 657.625 909.492 662.859 909.739 666.35 909.739 667.098 910.238 664.606 911.229 657.625 913.965 652.142 920.178 652.142 926.145 652.142 929.127 651.147 931.862 649.899 931.862 648.651 931.862 646.409 935.59 644.415 940.066 642.672 944.292 640.675 948.519 639.68 949.264 638.932 950.01 636.19 954.732 633.448 959.953 630.706 964.922 626.966 969.148 624.724 969.148 622.231 969.148 621.982 969.894 623.975 971.138 625.472 972.133 616.997 972.879 605.281 972.879 580.356 972.879 573.125 974.37 564.9 981.578 561.413 984.56 558.731 986.114 556.365 986.24ZM466.441 1229.66C457.47 1229.66 455.724 1229.16 460.212 1227.92 464.448 1226.68 465.446 1225.68 463.204 1224.19 461.706 1223.2 459.214 1222.95 457.966 1223.69 454.479 1225.93 450.989 1219.97 445.006 1200.33 442.015 1190.14 435.782 1173.48 431.047 1163.54 426.562 1153.84 422.822 1143.65 422.822 1141.16 422.822 1138.93 420.579 1135.45 417.588 1133.71 414.846 1131.97 410.358 1125.51 407.865 1119.54 405.124 1113.33 401.636 1108.35 399.889 1108.35 397.896 1108.35 396.573 1106.22 392.163 1100.15 389.958 1097.12 386.149 1091.06 382.453 1085.27L382.264 1084.98 380.921 1082.3C379.692 1080.1 378.103 1077.7 376.834 1076.65 376.831 1076.65 376.827 1076.65 376.824 1076.65L373.435 1071.96 372.936 1071.38 372.958 1071.41 375.463 1074.8 376.445 1076.5 375.87 1076.26 375.516 1075.53 372.958 1071.41 372.901 1071.34 372.228 1070.54C372.178 1070.48 372.427 1070.76 372.816 1071.22L372.901 1071.34 372.936 1071.38 368.962 1064.97C363.949 1057.11 358.251 1048.42 355.522 1043.72 350.063 1034.32 345.552 1026.32 345.552 1024.83 345.552 1023.34 343.057 1019.86 340.069 1016.88 336.828 1013.89 329.847 1002.96 324.364 992.267 318.88 981.578 313.895 972.38 313.147 971.634 311.901 970.393 290.714 929.376 290.714 928.135 290.714 927.636 294.203 926.145 298.191 924.654 302.429 923.41 306.417 920.178 307.165 917.692 307.913 915.206 312.649 905.016 317.386 895.322 325.112 879.165 331.344 855.55 341.064 807.076 342.811 799.122 344.804 792.659 345.799 792.659 347.047 792.659 348.544 788.682 349.539 783.957 351.036 775.257 353.778 773.021 356.769 777.743 361.005 784.456 373.22 776.998 384.686 761.09 389.172 754.874 389.92 750.648 389.421 736.727 388.922 721.069 388.673 719.824 381.695 716.343 372.222 711.372 365.491 704.413 365.491 699.441 365.491 697.205 363.747 692.729 361.504 689.497 359.262 686.019 358.263 683.284 359.012 683.284 360.756 683.284 353.279 667.872 350.537 665.882 349.539 665.137 345.799 659.419 342.062 652.707 338.073 646.244 333.837 640.281 332.09 639.036 330.346 638.041 323.864 629.342 317.386 619.648 304.423 600.259 284.981 583.107 262.796 571.423 254.82 567.196 248.339 561.978 248.339 559.988 248.339 558.001 247.342 556.507 245.847 556.507 244.6 556.507 243.354 555.016 243.354 553.276 243.354 551.785 236.624 547.062 228.149 543.085 214.938 536.869 211.199 536.124 198.238 537.618 190.262 538.363 183.532 538.114 183.532 536.869 183.532 535.628 179.045 529.91 173.561 523.943 168.077 517.98 163.591 511.763 163.591 510.272 163.591 508.781 161.347 505.051 158.605 501.819 155.863 498.588 152.872 493.12 152.124 489.639 150.38 479.945 141.905 465.778 138.664 466.523 136.919 466.77 134.177 466.024 132.184 464.284 126.949 460.061 124.456 463.292 122.961 477.213 121.715 486.907 122.462 492.624 126.201 500.329 128.694 506.046 131.685 514 132.682 517.73 133.679 521.707 136.919 529.661 140.16 535.132 147.389 547.808 147.887 554.021 141.157 554.021 138.415 554.021 136.172 554.77 136.172 556.011 136.172 557.006 131.685 562.724 126.201 568.441 120.718 574.405 116.231 581.367 116.231 583.852 116.231 588.575 108.753 592.801 106.51 589.32 105.762 588.325 101.275 582.112 97.0377 575.899 92.551 569.433 88.8123 563.715 88.8123 562.724 88.8123 560.983 68.8711 531.152 66.3788 529.165 61.8918 525.434 34.2239 481.935 36.4672 481.935 37.7137 481.935 38.9598 480.94 38.9598 479.449 38.9598 478.205 36.966 477.958 34.7223 478.704 31.482 479.945 30.9834 479.2 32.2298 475.968 33.227 473.482 33.9747 470.5 33.9747 469.009 33.9747 467.515 35.7196 467.019 37.7137 468.014 40.4555 469.009 41.4527 467.765 41.4527 463.292 41.4527 460.061 42.4496 456.58 43.9453 455.834 45.1914 455.089 46.4376 455.335 46.4376 456.829 46.4376 458.32 48.432 458.567 50.675 457.821 53.4168 456.829 53.6664 455.834 51.9215 455.089 50.1766 454.59 48.9304 453.099 48.9304 451.857 48.9304 450.366 64.1351 449.618 86.3194 449.867 107.008 449.867 123.21 450.862 122.711 451.608 122.213 452.603 133.181 453.598 147.389 454.094 161.347 454.59 183.282 456.081 196.244 457.575 209.205 459.066 236.624 460.557 257.064 461.053 277.752 461.552 297.194 462.547 300.435 463.538 304.672 464.783 305.919 464.533 304.672 462.297 303.426 460.307 308.162 459.562 323.615 460.061 344.804 460.557 372.471 458.32 374.964 455.834 376.957 453.844 353.279 454.59 341.563 456.829 330.097 459.066 318.88 456.829 326.606 453.844 333.587 451.112 377.456 451.857 379.203 454.59 381.695 458.567 398.894 457.575 408.115 452.849 416.34 448.872 422.822 448.376 460.958 450.613 466.192 450.862 471.18 452.104 472.175 453.598 475.415 458.32 482.646 459.811 482.646 455.585 482.646 452.849 484.14 452.104 486.632 453.099 488.875 453.844 495.357 454.59 501.339 454.59 507.572 454.59 513.804 456.081 515.797 458.32 518.788 461.053 520.033 461.302 520.781 458.816 521.53 457.325 522.279 460.061 522.279 465.279 522.525 473.981 525.516 477.213 528.757 471.991 530.754 468.76 538.231 468.76 546.206 472.487 552.688 475.472 555.18 482.93 548.699 480.444 545.957 479.449 545.458 479.945 546.456 482.681 547.454 485.662 546.456 486.161 541.97 485.166 538.73 484.667 533.742 482.681 530.754 481.19 527.513 479.945 524.521 479.2 523.523 479.945 522.775 480.691 524.022 487.899 526.265 495.856 528.508 504.059 532.497 521.211 534.99 534.137 537.482 547.062 540.723 561.729 542.217 566.451 544.959 574.904 551.191 613.185 553.434 635.309 554.182 641.272 555.18 646.99 556.175 648.484 557.174 649.975 558.421 656.933 558.917 664.391 559.915 674.831 559.167 678.562 554.931 684.029 552.189 687.51 550.941 690.988 552.189 691.737 553.434 692.729 554.931 691.737 555.68 690.243 556.175 688.502 557.673 688.006 558.917 689.001 560.165 690.243 559.167 692.233 556.674 693.724 552.439 695.96 552.189 698.2 553.683 713.112 555.18 727.282 554.432 731.755 550.196 741.452 545.957 750.648 545.208 755.619 546.456 765.563 547.7 774.262 547.204 778.738 545.208 779.98 542.965 781.471 542.965 784.702 544.712 792.16 545.957 798.127 545.957 803.099 544.712 803.844 543.465 804.59 542.716 811.053 542.965 818.261 543.215 825.469 542.466 837.899 541.471 846.102 540.473 854.305 540.473 859.773 541.721 858.036 544.213 854.555 544.463 879.661 541.721 883.887 540.723 885.378 539.725 904.52 539.725 926.145 539.475 976.606 545.707 1011.41 555.18 1011.41 556.425 1011.41 557.423 1008.67 557.423 1005.19 557.423 1001.47 559.416 997.985 562.907 996.244 566.148 994.504 570.134 991.522 572.13 989.781 574.373 987.545 577.863 986.8 581.85 987.791 586.588 989.036 587.583 988.54 586.588 985.555 584.841 981.082 589.826 979.092 603.039 979.092 610.765 979.092 612.509 979.838 609.767 981.578 607.774 982.823 606.03 984.81 605.781 985.805 605.531 989.036 602.041 997.489 599.548 1001.47 598.301 1003.45 596.307 1007.43 595.063 1010.16 593.566 1012.9 590.325 1018.62 587.583 1022.59 584.592 1026.82 582.349 1031.54 582.349 1033.53 582.349 1035.27 579.108 1040.99 574.872 1046.21 570.883 1051.43 567.392 1056.9 567.392 1058.39 567.392 1059.88 561.909 1070.32 554.931 1081.26 548.2 1092.19 542.466 1101.89 542.466 1102.64 542.466 1103.63 539.475 1108.11 535.738 1112.83 525.516 1126.25 510.313 1160.31 494.858 1205.05 488.628 1222.7 486.383 1225.18 475.415 1225.43 467.19 1225.68 466.94 1225.93 472.674 1227.67 477.658 1229.16 476.164 1229.66 466.441 1229.66ZM463.387 1235.05C476.132 1235.55 489.687 1229.16 495.107 1218.72 497.1 1214.75 500.341 1209.77 502.587 1207.79 504.83 1205.8 508.071 1197.34 509.315 1188.89 510.812 1180.69 514.3 1169.01 517.042 1162.79 519.783 1156.83 523.274 1148.13 525.021 1143.65 526.764 1139.18 531.499 1130.97 535.239 1125.75 539.225 1120.29 542.466 1115.31 542.466 1114.57 542.466 1113.82 543.714 1111.83 544.959 1110.1 549.697 1104.62 574.872 1065.6 574.872 1063.61 574.872 1062.62 577.115 1059.88 579.857 1057.39 582.598 1054.91 584.841 1050.93 584.841 1048.2 584.841 1045.71 585.839 1043.72 586.834 1043.72 588.581 1043.72 592.817 1036.02 611.015 1001.22 612.259 998.73 615.001 996.494 616.748 996.494 618.491 996.494 620.734 994.504 621.483 992.267 622.481 989.781 623.725 987.296 624.474 986.55 627.715 983.815 639.181 966.912 650.897 948.019 657.625 937.084 664.107 927.14 665.105 925.649 666.35 924.405 668.842 920.924 670.838 918.191 674.076 913.715 674.326 913.715 674.575 917.692 674.575 922.664 684.547 923.41 699.75 919.433 705.234 918.191 714.208 915.705 720.191 914.214 725.924 912.72 733.65 908.247 737.39 904.271 745.366 895.571 755.335 867.481 759.075 843.12 761.817 825.469 766.056 807.325 771.789 790.173 778.018 771.53 778.767 767.8 776.524 766.309 775.027 765.563 772.535 766.309 770.541 767.8 767.8 770.036 766.801 770.036 766.801 768.049 766.801 766.558 765.058 765.314 762.815 765.314 760.819 765.314 759.824 764.072 760.572 762.828 761.817 760.841 763.314 761.09 765.557 762.828 767.55 764.568 770.292 764.818 772.036 763.823 775.276 761.836 765.557 753.134 760.073 752.887 755.585 752.887 755.834 728.277 760.572 717.338 762.566 712.367 766.056 707.395 768.299 706.153 770.292 704.909 772.285 702.423 772.784 700.436 773.283 695.96 776.524 690.742 784.75 680.548 788.736 675.826 796.216 666.628 801.699 659.669 807.433 652.957 814.66 642.267 818.4 636.054 821.89 629.838 826.376 623.128 828.369 621.138 830.116 619.148 836.345 611.195 842.078 603.737 852.799 589.57 896.418 539.109 905.392 530.406 914.865 521.211 918.852 513.254 918.852 503.809 918.852 498.588 917.853 494.365 916.359 494.365 915.112 494.365 913.867 492.624 913.867 490.385 913.867 488.148 911.624 483.676 908.883 480.195 906.141 476.714 903.895 472.487 903.895 470.996 903.895 465.528 889.936 459.562 881.711 461.053 872.737 463.043 871.492 460.557 879.718 457.076 883.954 455.089 883.208 454.839 875.232 455.834 857.783 458.32 795.467 461.302 794.223 459.811 793.474 458.816 789.734 458.071 785.498 457.821 760.073 456.58 694.766 451.857 690.031 450.613 686.79 450.117 685.046 448.376 685.792 447.381 686.541 446.14 673.827 445.145 657.625 445.395 641.674 445.641 622.231 445.145 614.755 444.649L600.796 443.405 600.796 402.388C600.796 379.768 599.548 350.186 597.805 336.515 596.307 322.844 593.566 295.5 592.072 275.614 590.574 255.727 588.332 234.847 587.333 228.881 586.338 223.164 586.338 217.695 587.583 217.198 588.581 216.452 588.831 211.977 588.082 207.255 587.084 201.288 587.832 198.306 590.075 197.311 592.817 196.317 593.316 190.848 592.817 172.453L591.822 148.839 599.548 148.839C605.281 148.839 606.776 149.833 605.781 152.567 603.538 158.284 616.748 157.29 625.971 151.324 634.942 145.359 637.188 145.11 637.188 150.081 637.188 153.562 641.923 155.053 648.155 154.059 649.4 153.81 654.883 153.313 660.117 153.064 665.352 152.816 669.591 151.821 669.591 150.827 669.591 149.833 670.838 148.839 672.083 148.839 673.58 148.839 674.575 150.579 674.575 152.567 674.575 157.539 676.568 157.29 688.534 150.33 702.742 142.375 711.965 140.138 711.965 145.11 711.965 147.098 710.468 149.087 708.974 149.336 702.742 149.833 700.749 150.579 691.026 154.804 679.064 160.025 680.807 162.262 695.016 159.776 700.998 158.782 706.482 158.036 707.726 158.284 708.724 158.533 709.473 157.539 709.473 156.296 709.473 154.804 710.967 153.81 712.964 153.81 714.957 153.81 718.198 152.319 719.941 150.579 721.685 148.839 723.931 147.098 725.175 146.85L736.143 144.116C741.127 142.624 745.865 141.878 746.364 142.375 747.359 143.37 735.148 149.336 726.423 152.319 723.931 153.064 721.934 154.804 721.934 156.296 721.934 160.273 731.907 159.279 742.874 154.059 763.314 144.612 786.244 139.641 770.791 147.844 765.806 150.579 764.559 152.567 766.552 154.556 768.548 156.544 770.791 156.296 774.777 154.307 787.99 147.596 794.223 146.353 794.223 150.081 794.223 154.556 794.223 154.556 808.428 151.076 817.651 148.59 820.143 148.839 821.89 151.573 823.883 154.556 824.632 154.556 826.625 151.324 828.618 148.341 829.117 148.59 829.117 153.313 829.117 159.527 831.61 160.025 845.319 155.053 856.535 150.827 865.51 150.33 867.503 153.562 868.251 154.556 871.742 155.053 875.232 154.307 878.719 153.81 883.208 154.556 885.201 156.296 887.693 158.533 888.941 158.533 888.941 156.544 888.941 153.313 901.153 152.816 909.878 156.047 913.867 157.787 921.843 157.539 932.561 155.799 945.77 153.562 949.51 153.562 951.257 156.296 952.252 158.036 955.493 158.782 958.484 158.036 962.224 157.29 963.719 158.036 963.719 160.522 963.719 163.505 965.712 164.002 972.693 162.51 989.642 159.527 1016.81 143.867 1005.34 143.867 999.112 143.867 1000.11 137.155 1006.59 135.415 1012.08 134.172 1012.08 133.923 1007.34 130.444 1002.85 127.212 1001.85 127.461 996.87 132.929 989.892 140.635 988.145 140.387 990.142 132.432 991.137 128.206 990.637 125.224 988.644 123.981 984.408 121.246 978.675 123.483 978.675 127.709 978.675 129.698 977.427 131.935 975.933 132.929 974.187 133.923 973.691 132.432 974.187 128.703 974.686 123.981 973.937 122.738 969.452 122.986 966.46 122.986 964.218 121.992 964.467 120.5 964.717 119.009 962.474 117.518 959.233 117.02 954.744 116.275 953.999 115.032 955.244 110.06 956.491 105.337 955.743 104.094 951.753 104.094 949.011 104.094 945.524 105.834 943.528 108.072 940.536 111.552 940.04 111.552 938.294 106.829 936.051 100.365 932.81 100.117 927.077 106.331 924.585 108.817 919.85 111.8 916.359 112.546 910.377 114.286 910.377 114.037 914.865 110.557 917.607 108.32 920.099 104.343 920.595 101.608 921.593 94.3995 913.617 95.1453 906.886 102.851 903.895 106.331 899.659 109.066 897.666 109.066 895.669 109.066 893.926 110.06 893.926 111.303 893.926 112.546 892.182 114.037 890.186 115.032 882.709 117.766 886.695 111.552 896.169 106.083 904.643 101.111 905.392 99.6197 902.65 95.8911 898.411 89.9255 892.432 90.6709 890.186 97.1341 888.941 101.36 888.193 101.857 887.194 99.1225 883.954 91.4167 879.468 88.9311 875.728 92.9083 873.735 94.6481 868.75 97.1341 865.01 97.8795 858.033 99.3714 858.033 99.3714 862.768 95.3939 867.007 91.9139 867.253 91.1681 864.015 89.1794 858.778 85.6993 858.033 85.9479 851.551 92.9083 848.31 96.3883 844.324 99.1225 842.577 99.1225 841.083 99.1225 838.341 100.863 836.594 102.851 832.109 108.32 828.618 107.325 832.109 101.608 833.852 98.8739 836.594 96.6369 838.341 96.6369 840.085 96.6369 841.582 94.8967 841.582 92.9083 841.582 90.9195 842.826 89.1794 844.324 89.1794 845.818 89.1794 845.319 87.4395 843.076 85.4508 837.842 80.2306 834.352 80.7278 831.61 87.4395 830.116 91.1681 829.367 91.6653 829.367 88.9311 829.117 86.6937 827.374 83.2137 825.128 81.4736 821.641 78.739 820.643 78.739 817.901 82.4679 816.157 84.705 812.667 86.6937 810.174 86.4451 807.433 86.4451 806.934 85.6993 808.677 84.9536 811.918 83.7106 812.916 71.779 809.675 71.779 808.428 71.779 804.94 74.5132 801.699 77.9936 798.459 81.4736 794.223 84.2078 791.977 84.2078 788.985 84.2078 788.985 83.4623 791.231 81.225 800.701 71.779 788.24 72.2759 776.774 81.7218 767.051 90.1737 764.309 90.9195 764.309 85.4508 764.309 79.4848 756.583 77.745 752.843 82.9648 750.85 85.4508 749.356 86.6937 749.356 85.6993 749.356 84.705 745.616 86.6937 741.377 90.1737 736.891 93.4051 729.91 96.8855 725.674 97.8795 717.199 99.6197 716.95 100.117 737.64 85.2022 746.614 78.4904 749.106 73.5189 744.867 70.7846 743.622 70.0389 738.385 73.5189 733.151 78.2421 721.934 88.185 717.699 89.1794 723.182 80.7278 726.673 75.5076 726.673 74.7618 723.182 73.2703 719.442 72.0273 708.974 77.745 700 85.9479 698.256 87.6881 694.766 89.1794 692.523 88.9311 689.781 88.9311 689.532 88.4336 691.525 87.4395 693.022 86.942 693.768 84.9536 693.022 83.7106 692.024 82.2193 692.523 81.7218 694.017 82.7162 695.515 83.4623 698.506 81.7218 700.499 78.739 702.742 75.7562 704.489 74.2646 704.735 75.5076 704.735 76.9992 705.733 75.259 707.23 72.2759 710.468 63.8243 707.726 61.3384 700.499 66.0617 695.764 69.0445 693.518 69.2931 692.274 67.056 691.026 65.0673 687.788 66.0617 681.057 70.536 676.072 74.016 670.838 76.7506 669.591 76.7506 668.343 76.7506 661.864 81.9708 655.383 88.185 646.908 96.1397 643.168 98.377 642.672 95.8911 641.674 91.1681 657.875 74.2646 663.109 74.2646 665.352 74.2646 667.098 73.2703 667.098 72.0273 667.098 70.7846 669.341 68.7959 672.083 68.0501 675.573 67.056 677.067 64.3218 677.067 59.1013 677.067 51.8924 673.827 49.4068 670.838 54.3784 670.09 55.8699 666.599 56.8643 663.109 56.8643 659.622 56.8643 657.625 57.8587 658.374 59.3499 659.122 60.5929 658.374 61.8359 656.381 61.8359 654.384 61.8359 651.892 58.8527 650.897 55.1241L649.15 48.1641 644.665 54.1298 640.176 60.0957 638.682 54.8755C636.689 48.9096 633.448 47.9152 630.956 51.8924 629.708 53.8812 627.964 53.6329 625.472 51.3955 622.481 48.9096 620.984 49.4068 617.496 54.1298 613.756 59.1013 612.259 59.5985 607.774 57.1126 604.782 55.3727 602.29 55.1241 602.29 56.1182 602.29 57.1126 600.796 55.8699 599.049 53.384 595.808 48.9096 595.309 49.1582 587.583 56.6157 583.347 60.8415 579.108 64.3218 578.363 64.3218 575.621 64.3218 580.605 53.1354 585.091 48.661 590.824 43.1922 591.073 40.458 586.089 38.4693 584.093 37.7235 582.349 38.2207 582.349 39.7122 582.349 41.2035 580.855 41.9496 579.357 41.2035 577.614 40.7066 574.872 41.701 573.624 43.6894 571.382 46.4237 570.134 46.1754 565.648 41.9496 559.666 36.4808 553.683 35.4865 551.191 39.4636 550.442 40.7066 547.95 41.9496 545.957 41.9496 543.964 41.9496 542.965 40.9552 543.714 39.4636 545.957 35.9836 526.764 36.2322 523.024 39.9608 521.031 41.9496 519.287 41.9496 516.047 39.215 512.556 36.4808 511.558 36.4808 508.567 40.458 504.58 46.1754 487.63 47.9152 487.63 42.6951 487.63 38.7179 486.383 38.7179 479.904 41.9496 476.164 44.1866 474.667 43.6894 473.672 40.7066 471.925 36.2322 465.197 35.4865 465.197 39.9608 465.197 41.4524 464.448 42.1979 463.7 41.4524 462.954 40.7066 459.464 42.6951 455.973 45.9268 452.483 49.1582 448.247 51.8924 446.75 51.8924 445.256 51.8924 448.247 47.9152 453.481 43.1922 459.214 38.2207 462.705 32.7519 462.205 30.2662 461.457 26.7862 460.462 27.0347 453.98 33.0005 446.75 39.7122 446.75 39.7122 444.756 34.2435 443.013 29.7691 442.015 29.5206 439.023 32.0064 435.782 34.7407 435.533 34.4921 436.531 31.2605 438.524 26.5374 433.29 23.0574 429.8 26.5374 428.056 28.2776 425.813 28.2776 422.822 26.5374 419.581 24.5489 417.089 24.7974 412.603 27.7803 405.373 33.0005 402.881 33.0005 402.881 28.2776 402.881 24.0518 398.894 23.306 396.649 27.0347 394.156 31.012 389.671 29.7691 391.415 25.5433 393.657 19.826 390.666 16.3458 386.43 19.826 383.688 22.0631 382.94 21.8145 382.94 18.5831 382.94 13.86 377.206 13.3629 370.478 17.5887 364.995 21.0687 360.756 18.3343 364.995 14.1085 368.981 10.1312 368.731 7.14834 364.246 7.14834 362.253 7.14834 359.511 9.38562 358.014 12.12 356.52 14.8544 353.778 17.0914 351.782 17.0914 346.797 17.0914 347.047 14.6058 352.53 10.6285 356.27 7.6454 356.27 6.8998 353.029 4.91105 350.537 3.17105 348.79 3.41958 347.296 6.15396 344.804 10.6285 336.079 8.39124 331.344 2.42546 328.353-1.05475 327.604-1.05475 323.615 4.16542 320.377 8.39124 316.637 9.88268 308.661 10.1312 302.928 10.1312 296.945 11.8715 295.449 13.6114 293.954 15.5999 290.465 17.0914 287.723 17.0914 285.23 17.0914 276.506 23.5545 268.28 31.2605 245.099 53.6329 241.36 56.8643 237.87 56.8643 236.125 57.1126 231.39 59.5985 227.401 62.8299 220.422 68.5476 220.173 69.2931 221.917 84.2078 224.909 109.563 239.117 126.218 262.547 131.686 282.239 136.409 286.227 139.144 284.981 146.353 284.233 149.833 285.978 157.787 288.719 164.25 292.957 174.442 293.456 177.425 290.963 188.611 289.467 195.571 288.221 215.209 288.221 232.361 288.221 252.496 287.224 262.936 285.728 261.942 284.482 261.196 283.236 262.19 283.236 264.179 283.236 266.168 284.482 268.653 285.728 269.399 287.224 270.145 288.221 274.62 288.221 279.094 288.221 283.817 289.966 292.269 292.209 298.235 295.449 307.183 295.699 315.138 294.203 342.729 291.96 386.231 291.96 381.259 294.203 419.54 295.699 442.909 295.449 452.104 293.456 451.112 291.96 450.117 288.47 450.613 285.479 452.104 277.752 456.33 230.143 456.829 200.73 452.849 186.523 450.862 167.08 449.122 157.359 448.626 129.193 447.132 71.1144 442.41 58.9007 440.669 48.6812 439.428 46.9363 439.924 40.4555 446.14 31.7313 454.839 24.0041 469.755 24.0041 477.709 24.0041 480.94 26.2476 485.662 28.9895 488.148 31.482 490.385 37.9629 498.838 43.1973 506.545 48.432 514.249 55.6605 524.193 59.3995 528.666 63.3875 533.142 66.3788 537.864 66.3788 539.109 66.3788 540.6 68.6218 543.831 71.6132 546.813 74.355 549.548 76.0999 552.78 75.1027 553.525 74.1058 554.52 71.3636 552.78 68.8711 549.798 61.6426 540.849 52.1707 542.836 38.7106 556.757 30.4851 565.209 28.9895 565.705 30.7344 558.993 31.7313 555.515 30.7344 554.021 27.9924 554.021 25.2505 554.021 24.0041 556.261 24.0041 562.224 24.0041 566.451 21.7609 576.145 19.0191 583.603 15.7787 592.056 14.2831 599.76 15.2802 604.732 16.5263 612.439 16.5263 612.439 12.5383 606.968 6.8052 599.014 4.81123 599.76 3.31556 610.699 2.56772 615.671 1.32158 622.133 0.324465 624.869-0.672648 628.596 0.573744 631.828 4.81123 636.054 11.0427 642.267 16.7756 652.211 26.4969 674.335 31.482 685.271 31.482 687.011 28.2416 693.973 24.0041 702.423 25.0013 706.899 32.2298 715.102L37.4645 720.57 31.9805 730.264 26.4969 739.712 32.7282 748.162C35.9688 752.887 40.7047 760.095 42.9481 764.072 45.1914 768.299 49.9273 774.762 53.1676 778.738 56.4082 782.715 61.1441 789.924 63.8859 794.895 66.3788 799.867 71.8624 807.325 75.8507 811.798 80.0881 816.274 85.0733 822.986 87.0674 826.714 98.2842 848.339 110.747 867.231 113.489 867.231 123.958 867.231 155.116 873.198 156.611 875.434 157.608 877.175 159.353 878.419 160.35 878.419 170.819 879.165 192.255 890.6 189.763 894.576 187.769 897.808 196.493 907.253 199.983 906.011 201.977 905.266 205.965 907.502 209.205 910.983 214.689 917.446 231.639 926.891 237.621 926.891 239.615 926.891 243.852 928.631 247.093 930.867 250.582 933.104 257.064 934.348 262.547 934.099 267.782 933.603 273.514 934.348 275.26 935.343 277.004 936.338 279.995 936.089 281.74 934.348 284.482 932.112 288.47 937.829 301.432 963.431 316.637 993.509 349.04 1048.45 353.029 1051.18 354.027 1051.93 357.265 1056.4 360.257 1061.13 361.255 1062.8 362.881 1065.13 364.761 1067.62L370.425 1074.65 386.43 1101.64C391.664 1110.84 397.148 1118.3 398.645 1118.3 401.636 1118.55 412.853 1134.21 412.853 1138.43 412.853 1139.67 414.347 1140.67 416.091 1140.67 418.087 1140.67 420.579 1147.38 422.573 1158.82 424.316 1168.51 426.812 1177.96 427.807 1179.2 428.805 1180.69 430.548 1186.66 431.547 1192.87 434.288 1209.77 437.529 1217.23 440.271 1212.76 442.015 1210.02 443.013 1212.01 444.257 1219.47 445.256 1226.43 447.498 1230.41 451.238 1232.15 454.975 1233.95 459.135 1234.88 463.387 1235.05Z" fill-rule="evenodd" transform="matrix(1.00004 0 0 -1 304 2179.84)"/></g></g></g></g></g></svg>