<svg width="1501" height="1691" xmlns="http://www.w3.org/2000/svg" xmlns:xlink="http://www.w3.org/1999/xlink" xml:space="preserve" overflow="hidden"><defs><clipPath id="clip0"><rect x="304" y="533" width="1501" height="1691"/></clipPath></defs><g clip-path="url(#clip0)" transform="translate(-304 -533)"><path d="M1054.5 542C1077.6 542 1100.69 547.975 1121.39 559.924L1729.11 910.782C1770.5 934.68 1796 978.844 1796 1026.64L1796 1728.36C1796 1776.15 1770.5 1820.32 1729.11 1844.22L1121.39 2195.07C1080 2218.98 1029 2218.98 987.606 2195.07L379.891 1844.22C338.5 1820.32 313 1776.15 313 1728.36L313 1026.64C313 978.844 338.5 934.68 379.891 910.782L987.606 559.924C1008.3 547.975 1031.4 542 1054.5 542Z" fill="#FFFFFC" fill-rule="evenodd"/><path d="M1054.5 589.102C1032.67 589.102 1010.84 594.747 991.287 606.037L417.009 937.535C377.895 960.115 353.798 1001.84 353.798 1047L353.798 1710C353.798 1755.15 377.895 1796.88 417.009 1819.46L991.287 2150.96C1030.4 2173.55 1078.59 2173.55 1117.71 2150.96L1691.99 1819.46C1731.11 1796.88 1755.2 1755.15 1755.2 1710L1755.2 1047C1755.2 1001.84 1731.11 960.115 1691.99 937.535L1117.71 606.037C1098.15 594.747 1076.32 589.102 1054.5 589.102ZM1054.5 533C1077.88 533 1101.25 539.046 1122.2 551.138L1737.3 906.196C1779.19 930.38 1805 975.072 1805 1023.44L1805 1733.56C1805 1781.92 1779.19 1826.62 1737.3 1850.8L1122.2 2205.86C1080.31 2230.05 1028.69 2230.05 986.794 2205.86L371.703 1850.8C329.809 1826.62 304 1781.92 304 1733.56L304 1023.44C304 975.072 329.809 930.38 371.703 906.196L986.794 551.138C1007.74 539.046 1031.12 533 1054.5 533Z" fill="#2A2E47" fill-rule="evenodd"/><path d="M1054.5 826.917C1039.36 826.917 1024.22 830.832 1010.66 838.664L612.376 1068.61C585.249 1084.28 568.537 1113.22 568.537 1144.55L568.537 1604.45C568.537 1635.77 585.249 1664.72 612.376 1680.38L1010.66 1910.33C1037.79 1926 1071.21 1926 1098.34 1910.33L1496.62 1680.38C1523.75 1664.72 1540.46 1635.77 1540.46 1604.45L1540.46 1144.55C1540.46 1113.22 1523.75 1084.28 1496.62 1068.61L1098.34 838.664C1084.77 830.832 1069.64 826.917 1054.5 826.917ZM1054.5 788C1070.71 788 1086.93 792.194 1101.45 800.582L1528.05 1046.88C1557.1 1063.65 1575 1094.65 1575 1128.2L1575 1620.79C1575 1654.34 1557.1 1685.35 1528.05 1702.12L1101.45 1948.41C1072.4 1965.2 1036.6 1965.2 1007.54 1948.41L580.955 1702.12C551.899 1685.35 534 1654.34 534 1620.79L534 1128.2C534 1094.65 551.899 1063.65 580.955 1046.88L1007.54 800.582C1022.07 792.194 1038.28 788 1054.5 788Z" fill="#00B0E0" fill-rule="evenodd"/></g></svg>