<svg width="236" height="265" xmlns="http://www.w3.org/2000/svg" xmlns:xlink="http://www.w3.org/1999/xlink" xml:space="preserve" overflow="hidden"><defs><clipPath id="clip0"><rect x="196" y="71" width="236" height="265"/></clipPath><clipPath id="clip1"><path d="M196 71 313.887 71 313.887 260.41 432 260.41 432 336 196 336Z" fill-rule="evenodd" clip-rule="evenodd"/></clipPath></defs><g clip-path="url(#clip0)" transform="translate(-196 -71)"><g clip-path="url(#clip1)"><path d="M179.12 39.2593C182.751 39.2593 186.381 40.1979 189.634 42.0755L285.157 97.202C291.663 100.957 295.671 107.896 295.671 115.406L295.671 225.659C295.671 233.168 291.663 240.107 285.157 243.863L189.634 298.989C183.128 302.744 175.112 302.744 168.606 298.989L73.0836 243.863C66.5774 240.107 62.5694 233.168 62.5694 225.659L62.5694 115.406C62.5694 107.896 66.5774 100.957 73.0836 97.202L168.606 42.0755C171.859 40.1979 175.489 39.2593 179.12 39.2593Z" fill="#FFFFFC" fill-rule="evenodd" transform="matrix(1.00189 0 0 1 134.542 32.9676)"/><path d="M179.12 83.4378C176.729 83.4378 174.339 84.0563 172.197 85.2931L109.299 121.61C105.015 124.084 102.376 128.655 102.376 133.602L102.376 206.236C102.376 211.183 105.015 215.754 109.299 218.228L172.197 254.545C176.481 257.019 181.759 257.019 186.044 254.545L248.942 218.228C253.226 215.754 255.865 211.183 255.865 206.236L255.865 133.602C255.865 128.655 253.226 124.084 248.942 121.61L186.044 85.2931C183.901 84.0563 181.51 83.4378 179.12 83.4378ZM179.12 77.2917C181.681 77.2917 184.241 77.954 186.535 79.2788L253.904 118.176C258.493 120.826 261.319 125.722 261.319 131.02L261.319 208.816C261.319 214.115 258.493 219.011 253.904 221.661L186.535 260.559C181.947 263.209 176.294 263.209 171.705 260.559L104.337 221.661C99.7481 219.011 96.9213 214.115 96.9213 208.816L96.9213 131.02C96.9213 125.722 99.7481 120.826 104.337 118.176L171.705 79.2788C173.999 77.954 176.56 77.2917 179.12 77.2917Z" fill="#00B0E0" fill-rule="evenodd" transform="matrix(1.00189 0 0 1 134.542 32.9676)"/><path d="M179.12 46.8243C175.695 46.8243 172.27 47.709 169.2 49.4782L79.0775 101.428C72.939 104.966 69.1575 111.505 69.1575 118.582L69.1575 222.482C69.1575 229.559 72.939 236.098 79.0775 239.636L169.2 291.586C175.339 295.125 182.902 295.125 189.039 291.586L279.163 239.636C285.302 236.098 289.083 229.559 289.083 222.482L289.083 118.582C289.083 111.505 285.302 104.966 279.163 101.428L189.039 49.4782C185.971 47.709 182.546 46.8243 179.12 46.8243ZM179.12 38.0324C182.789 38.0324 186.457 38.9799 189.745 40.8749L286.274 96.5167C292.848 100.307 296.898 107.31 296.898 114.89L296.898 226.174C296.898 233.753 292.848 240.757 286.274 244.547L189.745 300.189C183.17 303.981 175.071 303.981 168.495 300.189L71.9674 244.547C65.3928 240.757 61.3426 233.753 61.3426 226.174L61.3426 114.89C61.3426 107.31 65.3928 100.307 71.9674 96.5167L168.495 40.8749C171.783 38.9799 175.451 38.0324 179.12 38.0324Z" fill="#2A2E47" fill-rule="evenodd" transform="matrix(1.00189 0 0 1 134.542 32.9676)"/></g></g></svg>