<svg width="559" height="629" xmlns="http://www.w3.org/2000/svg" xmlns:xlink="http://www.w3.org/1999/xlink" xml:space="preserve" overflow="hidden"><defs><clipPath id="clip0"><rect x="3813" y="1341" width="559" height="629"/></clipPath></defs><g clip-path="url(#clip0)" transform="translate(-3813 -1341)"><path d="M4092.5 1361.87C4084.37 1361.87 4076.24 1363.97 4068.96 1368.17L3855.09 1491.47C3840.52 1499.87 3831.55 1515.39 3831.55 1532.19L3831.55 1778.81C3831.55 1795.6 3840.52 1811.13 3855.09 1819.52L4068.96 1942.83C4083.53 1951.23 4101.47 1951.23 4116.04 1942.83L4329.91 1819.52C4344.48 1811.13 4353.45 1795.6 4353.45 1778.81L4353.45 1532.19C4353.45 1515.39 4344.48 1499.87 4329.91 1491.47L4116.04 1368.17C4108.76 1363.97 4100.63 1361.87 4092.5 1361.87ZM4092.5 1341C4101.21 1341 4109.91 1343.25 4117.71 1347.75L4346.79 1479.82C4362.39 1488.81 4372 1505.44 4372 1523.43L4372 1787.57C4372 1805.56 4362.39 1822.19 4346.79 1831.18L4117.71 1963.25C4102.11 1972.25 4082.89 1972.25 4067.28 1963.25L3838.21 1831.18C3822.61 1822.19 3813 1805.56 3813 1787.57L3813 1523.43C3813 1505.44 3822.61 1488.81 3838.21 1479.82L4067.28 1347.75C4075.09 1343.25 4083.79 1341 4092.5 1341Z" fill="#00B0E0" fill-rule="evenodd"/></g></svg>