<svg width="805" height="907" xmlns="http://www.w3.org/2000/svg" xmlns:xlink="http://www.w3.org/1999/xlink" xml:space="preserve" overflow="hidden"><defs><clipPath id="clip0"><rect x="3690" y="1204" width="805" height="907"/></clipPath></defs><g clip-path="url(#clip0)" transform="translate(-3690 -1204)"><path d="M4092.5 1234.09C4080.79 1234.09 4069.09 1237.12 4058.6 1243.17L3750.61 1420.98C3729.63 1433.09 3716.71 1455.47 3716.71 1479.69L3716.71 1835.31C3716.71 1859.53 3729.63 1881.91 3750.61 1894.02L4058.6 2071.82C4079.58 2083.94 4105.42 2083.94 4126.4 2071.82L4434.39 1894.02C4455.37 1881.91 4468.29 1859.53 4468.29 1835.31L4468.29 1479.69C4468.29 1455.47 4455.37 1433.09 4434.39 1420.98L4126.4 1243.17C4115.91 1237.12 4104.21 1234.09 4092.5 1234.09ZM4092.5 1204C4105.04 1204 4117.57 1207.24 4128.81 1213.73L4458.69 1404.17C4481.16 1417.14 4495 1441.11 4495 1467.06L4495 1847.94C4495 1873.88 4481.16 1897.86 4458.69 1910.83L4128.81 2101.27C4106.34 2114.24 4078.66 2114.24 4056.19 2101.27L3726.31 1910.83C3703.84 1897.86 3690 1873.88 3690 1847.94L3690 1467.06C3690 1441.11 3703.84 1417.14 3726.31 1404.17L4056.19 1213.73C4067.42 1207.24 4079.96 1204 4092.5 1204Z" fill="#2A2E47" fill-rule="evenodd"/></g></svg>