<svg width="441" height="496" xmlns="http://www.w3.org/2000/svg" xmlns:xlink="http://www.w3.org/1999/xlink" xml:space="preserve" overflow="hidden"><defs><clipPath id="clip0"><rect x="116" y="636" width="441" height="496"/></clipPath><clipPath id="clip1"><rect x="167" y="694" width="341" height="421"/></clipPath><clipPath id="clip2"><rect x="167" y="694" width="341" height="421"/></clipPath><clipPath id="clip3"><rect x="132" y="694" width="421" height="421"/></clipPath></defs><g clip-path="url(#clip0)" transform="translate(-116 -636)"><path d="M336.999 638C343.79 638 350.581 639.755 356.665 643.267L535.334 746.361C547.503 753.384 555 766.36 555 780.405L555 986.595C555 1000.64 547.503 1013.62 535.334 1020.64L356.665 1123.73C344.496 1130.76 329.503 1130.76 317.333 1123.73L138.666 1020.64C126.497 1013.62 119 1000.64 119 986.595L119 780.405C119 766.36 126.497 753.384 138.666 746.361L317.333 643.267C323.418 639.755 330.209 638 336.999 638Z" fill="#FFFFFC" fill-rule="evenodd"/><g clip-path="url(#clip1)"><g clip-path="url(#clip2)"><g clip-path="url(#clip3)"><path d="M126.359 132.563C129.133 132.598 132.3 132.593 135.691 132.563 136.427 171.191 168.34 201.909 206.968 201.172 244.759 200.451 275.144 169.842 275.586 132.046 276.859 127.733 284.961 98.2669 275.227 79.6338 268.96 66.4904 255.463 58.3454 240.914 58.9269 233.761 53.2656 203.77 33.0444 161.599 52.955 127.037 69.2606 126.035 105.018 126.079 110.386L122.141 127.208C121.59 129.56 123.05 131.914 125.403 132.465 125.713 132.538 126.031 132.577 126.35 132.58ZM205.625 192.5C172.23 192.453 145.019 165.681 144.428 132.291 160.786 131.613 180.084 129.491 192.224 123.756 208.11 116.257 228.187 99.365 234.504 93.8788 240.569 96.6744 245.938 100.78 250.224 105.901 253.806 110.28 256.907 115.031 259.473 120.072 261.52 123.725 263.848 127.855 266.814 132.436 266.147 165.767 238.963 192.452 205.625 192.5ZM134.724 111.816C134.812 111.439 134.85 111.052 134.838 110.666 134.794 109.239 134.041 75.6131 165.336 60.8388 175.508 55.8114 186.676 53.1208 198.021 52.9638 212.071 52.7787 225.724 57.6179 236.521 66.6094 237.517 67.55 238.893 67.9735 240.244 67.7556 251.771 66.7209 262.69 73.0953 267.457 83.6413 272.917 94.0931 271.342 109.747 269.426 119.906 268.603 118.471 267.833 117.097 267.094 115.78 264.243 110.205 260.796 104.957 256.813 100.126 251.046 92.9364 243.33 87.5608 234.588 84.6431 233.191 84.308 231.72 84.6795 230.65 85.6363 230.405 85.855 206.067 107.555 188.51 115.824 174.261 122.548 147.228 123.699 131.937 123.795Z" fill="#00B0E0" transform="matrix(1.00149 0 0 1 132.118 694)"/><path d="M334.832 260.422C314.75 244.962 291.745 233.732 267.203 227.408 261.551 225.715 255.859 224.254 250.289 223.064L248.071 222.587 246.404 224.131C228.576 240.625 216.493 240.625 210 240.625 203.508 240.625 191.323 240.625 173.583 224.35L171.924 222.828 169.737 223.291C164.378 224.42 158.716 225.798 152.863 227.395 128.616 234.501 105.746 245.657 85.2206 260.391 75.8096 267.764 70.2192 278.984 70 290.938L70 358.75 78.75 358.75 78.75 290.938C78.9429 281.711 83.2576 273.055 90.51 267.348 110.153 253.287 132.025 242.638 155.208 235.848 160.064 234.535 164.833 233.345 169.361 232.348 186.375 247.306 199.43 249.375 210 249.375 220.57 249.375 233.555 247.279 250.644 232.098 255.286 233.148 260.006 234.386 264.744 235.808 288.172 241.815 310.141 252.502 329.328 267.225 336.665 272.935 341.043 281.643 341.25 290.938L341.25 358.75 350 358.75 350 290.938C349.788 279.003 344.218 267.796 334.832 260.422Z" fill="#00B0E0" transform="matrix(1.00149 0 0 1 132.118 694)"/></g></g></g><path d="M336.499 652.456C330.087 652.456 323.674 654.112 317.928 657.423L149.202 754.657C137.71 761.28 130.631 773.519 130.631 786.765L130.631 981.234C130.631 994.479 137.71 1006.72 149.202 1013.34L317.928 1110.58C329.42 1117.2 343.579 1117.2 355.071 1110.58L523.797 1013.34C535.289 1006.72 542.369 994.479 542.369 981.234L542.369 786.765C542.369 773.519 535.289 761.28 523.797 754.657L355.071 657.423C349.325 654.112 342.912 652.456 336.499 652.456ZM336.499 636C343.368 636 350.236 637.773 356.39 641.32L537.108 745.465C549.417 752.558 557 765.667 557 779.855L557 988.144C557 1002.33 549.417 1015.44 537.108 1022.53L356.39 1126.68C344.082 1133.77 328.917 1133.77 316.608 1126.68L135.891 1022.53C123.583 1015.44 116 1002.33 116 988.144L116 779.855C116 765.667 123.583 752.558 135.891 745.465L316.608 641.32C322.762 637.773 329.631 636 336.499 636Z" fill="#2A2E47" fill-rule="evenodd"/></g></svg>