<svg width="805" height="907" xmlns="http://www.w3.org/2000/svg" xmlns:xlink="http://www.w3.org/1999/xlink" xml:space="preserve" overflow="hidden"><defs><clipPath id="clip0"><rect x="1434" y="1208" width="805" height="907"/></clipPath></defs><g clip-path="url(#clip0)" transform="translate(-1434 -1208)"><path d="M1836.5 1238.09C1824.79 1238.09 1813.09 1241.12 1802.6 1247.17L1494.61 1424.98C1473.63 1437.09 1460.71 1459.47 1460.71 1483.69L1460.71 1839.31C1460.71 1863.53 1473.63 1885.91 1494.61 1898.02L1802.6 2075.82C1823.58 2087.94 1849.42 2087.94 1870.4 2075.82L2178.39 1898.02C2199.37 1885.91 2212.29 1863.53 2212.29 1839.31L2212.29 1483.69C2212.29 1459.47 2199.37 1437.09 2178.39 1424.98L1870.4 1247.17C1859.91 1241.12 1848.2 1238.09 1836.5 1238.09ZM1836.5 1208C1849.04 1208 1861.57 1211.24 1872.81 1217.73L2202.69 1408.17C2225.16 1421.14 2239 1445.11 2239 1471.06L2239 1851.94C2239 1877.88 2225.16 1901.86 2202.69 1914.83L1872.81 2105.27C1850.34 2118.24 1822.66 2118.24 1800.19 2105.27L1470.31 1914.83C1447.84 1901.86 1434 1877.88 1434 1851.94L1434 1471.06C1434 1445.11 1447.84 1421.14 1470.31 1408.17L1800.19 1217.73C1811.42 1211.24 1823.96 1208 1836.5 1208Z" fill="#0057AE" fill-rule="evenodd"/></g></svg>