<svg width="438" height="494" xmlns="http://www.w3.org/2000/svg" xmlns:xlink="http://www.w3.org/1999/xlink" overflow="hidden"><defs><clipPath id="clip0"><rect x="88" y="154" width="438" height="494"/></clipPath></defs><g clip-path="url(#clip0)" transform="translate(-88 -154)"><path d="M306.999 171.323C300.659 171.323 294.319 172.966 288.638 176.25L121.826 272.7C110.464 279.27 103.465 291.41 103.465 304.549L103.465 497.45C103.465 510.588 110.464 522.729 121.826 529.299L288.638 625.748C300 632.32 313.999 632.32 325.36 625.748L492.174 529.299C503.536 522.729 510.535 510.588 510.535 497.45L510.535 304.549C510.535 291.41 503.536 279.27 492.174 272.7L325.36 176.25C319.679 172.966 313.339 171.323 306.999 171.323ZM306.999 155C313.79 155 320.581 156.759 326.665 160.277L505.334 263.582C517.503 270.619 525 283.622 525 297.695L525 504.305C525 518.377 517.503 531.381 505.334 538.417L326.665 641.721C314.496 648.76 299.503 648.76 287.333 641.721L108.666 538.417C96.4968 531.381 89 518.377 89 504.305L89 297.695C89 283.622 96.4968 270.619 108.666 263.582L287.333 160.277C293.418 156.759 300.209 155 306.999 155Z" fill="#1D3557" fill-rule="evenodd"/><path d="M306.5 240.313C302.094 240.313 297.688 241.452 293.739 243.728L177.813 310.577C169.917 315.13 165.053 323.545 165.053 332.651L165.053 466.348C165.053 475.455 169.917 483.869 177.813 488.423L293.739 555.271C301.635 559.825 311.364 559.825 319.259 555.271L435.187 488.423C443.083 483.869 447.947 475.455 447.947 466.348L447.947 332.651C447.947 323.545 443.083 315.13 435.187 310.577L319.259 243.728C315.312 241.452 310.906 240.313 306.5 240.313ZM306.5 229C311.219 229 315.938 230.219 320.166 232.658L444.333 304.257C452.79 309.134 458 318.146 458 327.9L458 471.099C458 480.853 452.79 489.865 444.333 494.742L320.166 566.341C311.709 571.22 301.29 571.22 292.833 566.341L168.667 494.742C160.21 489.865 155 480.853 155 471.099L155 327.9C155 318.146 160.21 309.134 168.667 304.257L292.833 232.658C297.061 230.219 301.78 229 306.5 229Z" fill="#EF6F6C" fill-rule="evenodd"/></g></svg>