<svg xmlns="http://www.w3.org/2000/svg" xmlns:xlink="http://www.w3.org/1999/xlink" width="236" height="265" overflow="hidden"><defs><clipPath id="clip0"><rect x="106" y="271" width="236" height="265"/></clipPath><clipPath id="clip1"><path d="M107 271 224 271 224 460.304 341 460.304 341 535 107 535Z" fill-rule="evenodd" clip-rule="evenodd"/></clipPath><clipPath id="clip2"><rect x="107" y="271" width="234" height="264"/></clipPath><clipPath id="clip3"><rect x="107" y="271" width="234" height="264"/></clipPath><clipPath id="clip4"><rect x="107" y="271" width="234" height="264"/></clipPath></defs><g clip-path="url(#clip0)" transform="translate(-106 -271)"><g clip-path="url(#clip1)"><g clip-path="url(#clip2)"><g clip-path="url(#clip3)"><g clip-path="url(#clip4)"><path d="M223.999 273C227.603 273 231.205 273.932 234.434 275.796L329.232 330.528C335.689 334.256 339.667 341.145 339.667 348.601L339.667 458.065C339.667 465.521 335.689 472.411 329.232 476.139L234.434 530.87C227.977 534.599 220.022 534.599 213.565 530.87L118.768 476.139C112.311 472.411 108.333 465.521 108.333 458.065L108.333 348.601C108.333 341.145 112.311 334.256 118.768 330.528L213.565 275.796C216.794 273.932 220.397 273 223.999 273Z" fill="#FFE4E0" fill-rule="evenodd"/><path d="M224 317.083C221.644 317.083 219.289 317.695 217.177 318.919L155.197 354.859C150.975 357.307 148.375 361.831 148.375 366.727L148.375 438.607C148.375 443.503 150.975 448.027 155.197 450.475L217.177 486.414C221.399 488.863 226.601 488.863 230.822 486.414L292.803 450.475C297.025 448.027 299.625 443.503 299.625 438.607L299.625 366.727C299.625 361.831 297.025 357.307 292.803 354.859L230.822 318.919C228.711 317.695 226.355 317.083 224 317.083ZM224 311C226.523 311 229.046 311.655 231.307 312.967L297.693 351.461C302.215 354.083 305 358.928 305 364.172L305 441.161C305 446.405 302.215 451.25 297.693 453.872L231.307 492.366C226.785 494.989 221.215 494.989 216.693 492.366L150.307 453.872C145.785 451.25 143 446.405 143 441.161L143 364.172C143 358.928 145.785 354.083 150.307 351.461L216.693 312.967C218.953 311.655 221.477 311 224 311Z" fill="#EF6F6C" fill-rule="evenodd"/><path d="M224 279.759C220.597 279.759 217.194 280.64 214.145 282.403L124.618 334.156C118.52 337.681 114.763 344.196 114.763 351.246L114.763 454.753C114.763 461.803 118.52 468.318 124.618 471.843L214.145 523.597C220.243 527.123 227.756 527.123 233.854 523.597L323.382 471.843C329.48 468.318 333.237 461.803 333.237 454.753L333.237 351.246C333.237 344.196 329.48 337.681 323.382 334.156L233.854 282.403C230.805 280.64 227.403 279.759 224 279.759ZM224 271C227.644 271 231.289 271.944 234.554 273.832L330.445 329.263C336.977 333.039 341 340.017 341 347.568L341 458.432C341 465.983 336.977 472.961 330.445 476.736L234.554 532.167C228.023 535.944 219.976 535.944 213.445 532.167L117.555 476.736C111.023 472.961 107 465.983 107 458.432L107 347.568C107 340.017 111.023 333.039 117.555 329.263L213.445 273.832C216.711 271.944 220.355 271 224 271Z" fill="#0057AE" fill-rule="evenodd"/></g></g></g></g></g></svg>