<svg width="177" height="176" xmlns="http://www.w3.org/2000/svg" xmlns:xlink="http://www.w3.org/1999/xlink" xml:space="preserve" overflow="hidden"><defs><clipPath id="clip0"><rect x="1042" y="134" width="177" height="176"/></clipPath></defs><g clip-path="url(#clip0)" transform="translate(-1042 -134)"><path d="M1130.5 134C1131.3 134 1131.98 134.238 1132.54 134.715 1133.1 135.191 1133.54 135.827 1133.86 136.621L1153.56 201.433 1215.28 201.433C1217.04 201.433 1218.2 202.267 1218.76 203.935 1219.32 205.603 1218.88 206.914 1217.44 207.867L1167.49 243.371 1186.46 305.085C1186.94 306.832 1186.5 308.222 1185.14 309.254 1183.78 310.288 1182.38 310.247 1180.94 309.136L1130.5 271.011 1080.06 309.136C1078.62 310.247 1077.22 310.288 1075.86 309.254 1074.5 308.222 1074.06 306.832 1074.54 305.085L1093.51 243.371 1043.56 207.867C1042.12 206.914 1041.68 205.603 1042.24 203.935 1042.8 202.267 1043.96 201.433 1045.72 201.433L1107.44 201.433 1127.14 136.621C1127.46 135.827 1127.9 135.191 1128.46 134.715 1129.02 134.238 1129.7 134 1130.5 134ZM1130.5 174.984 1116.81 216.207 1080.54 216.207 1110.81 235.746 1097.6 276.968 1130.5 252.187 1163.4 276.968 1150.19 235.746 1180.46 216.207 1144.19 216.207 1130.5 174.984Z" fill="#224C87" fill-rule="evenodd"/></g></svg>