<svg width="177" height="176" xmlns="http://www.w3.org/2000/svg" xmlns:xlink="http://www.w3.org/1999/xlink" xml:space="preserve" overflow="hidden"><defs><clipPath id="clip0"><rect x="1267" y="134" width="177" height="176"/></clipPath></defs><g clip-path="url(#clip0)" transform="translate(-1267 -134)"><path d="M1355.5 134C1356.3 134 1356.98 134.238 1357.54 134.715 1358.1 135.191 1358.54 135.827 1358.86 136.621L1378.56 201.433 1440.28 201.433C1442.04 201.433 1443.2 202.267 1443.77 203.935 1444.33 205.603 1443.89 206.914 1442.44 207.867L1392.49 243.371 1411.46 305.085C1411.94 306.832 1411.5 308.222 1410.14 309.254 1408.78 310.288 1407.38 310.247 1405.94 309.136L1355.5 271.011 1305.06 309.136C1303.62 310.247 1302.22 310.288 1300.86 309.254 1299.5 308.222 1299.06 306.832 1299.54 305.085L1318.51 243.371 1268.56 207.867C1267.12 206.914 1266.68 205.603 1267.24 203.935 1267.8 202.267 1268.96 201.433 1270.72 201.433L1332.44 201.433 1352.14 136.621C1352.46 135.827 1352.9 135.191 1353.46 134.715 1354.02 134.238 1354.7 134 1355.5 134ZM1355.5 174.984 1341.81 216.207 1305.54 216.207 1335.81 235.746 1322.6 276.968 1355.5 252.187 1388.4 276.968 1375.19 235.746 1405.46 216.207 1369.19 216.207 1355.5 174.984Z" fill="#224C87" fill-rule="evenodd"/></g></svg>