<svg width="176" height="176" xmlns="http://www.w3.org/2000/svg" xmlns:xlink="http://www.w3.org/1999/xlink" xml:space="preserve" overflow="hidden"><defs><clipPath id="clip0"><rect x="1492" y="134" width="176" height="176"/></clipPath></defs><g clip-path="url(#clip0)" transform="translate(-1492 -134)"><path d="M1579.88 174.984 1566.25 216.206 1544.64 216.206 1544.64 225.605 1560.28 235.746 1547.12 276.968 1579.88 252.186 1612.65 276.968 1599.49 235.746 1629.62 216.206 1593.51 216.206 1579.88 174.984ZM1579.88 134C1580.68 134 1581.36 134.238 1581.92 134.715 1582.47 135.191 1582.91 135.827 1583.23 136.621L1602.84 201.433 1664.3 201.433C1666.05 201.433 1667.21 202.267 1667.77 203.935 1668.32 205.603 1667.88 206.914 1666.45 207.867L1616.71 243.37 1635.6 305.085C1636.08 306.832 1635.64 308.222 1634.29 309.254 1632.93 310.287 1631.54 310.247 1630.1 309.136L1579.88 271.011 1544.64 297.769 1544.64 297.823 1529.73 309.139C1528.3 310.246 1526.91 310.286 1525.57 309.258 1524.22 308.23 1523.78 306.846 1524.26 305.106L1543.06 243.662 1493.54 208.314C1492.11 207.365 1491.68 206.06 1492.23 204.399 1492.79 202.739 1493.94 201.908 1495.69 201.908L1544.64 201.908 1556.93 201.433 1576.54 136.621C1576.86 135.827 1577.29 135.191 1577.85 134.715 1578.41 134.238 1579.09 134 1579.88 134Z" fill="#224C87" fill-rule="evenodd"/></g></svg>