<svg width="176" height="176" xmlns="http://www.w3.org/2000/svg" xmlns:xlink="http://www.w3.org/1999/xlink" xml:space="preserve" overflow="hidden"><defs><clipPath id="clip0"><rect x="1717" y="134" width="176" height="176"/></clipPath></defs><g clip-path="url(#clip0)" transform="translate(-1717 -134)"><path d="M1805.36 174.861 1791.8 215.96 1788.36 215.96 1788.36 264.72 1805.36 251.833 1837.94 276.54 1824.86 235.44 1854.83 215.96 1818.91 215.96 1805.36 174.861ZM1805.36 134C1806.15 134 1806.82 134.238 1807.38 134.713 1807.93 135.188 1808.37 135.821 1808.69 136.613L1828.19 201.231 1889.32 201.231C1891.06 201.231 1892.21 202.062 1892.77 203.726 1893.32 205.388 1892.89 206.695 1891.46 207.645L1841.99 243.043 1860.78 304.573C1861.25 306.315 1860.82 307.7 1859.47 308.73 1858.12 309.759 1856.73 309.72 1855.31 308.611L1805.36 270.601 1788.36 283.535 1755.24 309.122C1753.79 310.251 1752.38 310.291 1751 309.243 1749.63 308.196 1749.19 306.786 1749.67 305.012L1768.8 242.389 1718.44 206.362C1717.72 205.879 1717.24 205.305 1717.02 204.64 1717.02 204.583 1717.01 204.526 1717 204.47L1717 202.955 1717.11 202.373C1717.68 200.68 1718.85 199.834 1720.62 199.834L1782.84 199.834 1788.36 181.536 1788.36 181.894 1802.03 136.613C1802.34 135.821 1802.78 135.188 1803.34 134.713 1803.89 134.238 1804.56 134 1805.36 134Z" fill="#224C87" fill-rule="evenodd"/></g></svg>