<svg width="176" height="177" xmlns="http://www.w3.org/2000/svg" xmlns:xlink="http://www.w3.org/1999/xlink" xml:space="preserve" overflow="hidden"><defs><clipPath id="clip0"><rect x="1942" y="133" width="176" height="177"/></clipPath></defs><g clip-path="url(#clip0)" transform="translate(-1942 -133)"><path d="M2030.44 174.745 2030.44 251.544 2062.96 276.194 2049.89 235.127 2079.84 215.662 2043.94 215.662 2030.44 174.745ZM2030.44 133C2031.03 133.202 2031.1 132.895 2032.19 133.606 2034.13 137.135 2033.4 135.586 2033.72 136.377L2053.22 200.944 2114.32 200.944C2116.06 200.944 2117.21 201.775 2117.77 203.437 2118.32 205.098 2117.89 206.404 2116.46 207.353L2067.01 242.723 2085.79 304.204C2086.26 305.945 2085.83 307.33 2084.48 308.358 2083.13 309.387 2081.75 309.347 2080.32 308.239L2030.44 270.297 1980.04 309.13C1978.6 310.248 1977.2 310.289 1975.84 309.25 1974.48 308.212 1974.04 306.814 1974.52 305.057L1993.48 242.992 1943.55 207.286C1942.11 206.328 1941.67 205.01 1942.24 203.332 1942.79 201.655 1943.96 200.816 1945.72 200.816L2007.4 200.816 2027.08 135.636C2027.4 134.837 2027.84 134.198 2028.4 133.719 2028.96 133.24 2029.64 133 2030.44 133Z" fill="#224C87" fill-rule="evenodd"/></g></svg>