<svg width="176" height="176" xmlns="http://www.w3.org/2000/svg" xmlns:xlink="http://www.w3.org/1999/xlink" xml:space="preserve" overflow="hidden"><defs><clipPath id="clip0"><rect x="2166" y="134" width="176" height="176"/></clipPath></defs><g clip-path="url(#clip0)" transform="translate(-2166 -134)"><path d="M2271.83 216.454 2271.83 265.787 2286.74 277.055 2273.61 235.942 2303.69 216.454 2271.83 216.454ZM2254.19 134C2254.99 134 2255.67 134.238 2256.23 134.715 2256.79 135.192 2257.23 135.827 2257.55 136.621L2276.96 201.72 2338.31 201.72C2340.06 201.72 2341.21 202.553 2341.77 204.216 2342.32 205.879 2341.89 207.187 2340.45 208.137L2290.8 243.547 2309.66 305.098C2310.14 306.84 2309.7 308.227 2308.35 309.256 2306.99 310.286 2305.6 310.247 2304.17 309.138L2254.19 271.011 2203.93 309.135C2202.5 310.247 2201.1 310.287 2199.74 309.254 2198.39 308.222 2197.95 306.832 2198.43 305.085L2217.33 243.37 2167.55 207.867C2166.11 206.913 2165.68 205.603 2166.23 203.935 2166.79 202.267 2167.95 201.433 2169.71 201.433L2231.22 201.433 2250.84 136.621C2251.16 135.827 2251.6 135.192 2252.16 134.715 2252.72 134.238 2253.4 134 2254.19 134Z" fill="#224C87" fill-rule="evenodd"/></g></svg>