<svg width="176" height="177" xmlns="http://www.w3.org/2000/svg" xmlns:xlink="http://www.w3.org/1999/xlink" xml:space="preserve" overflow="hidden"><defs><clipPath id="clip0"><rect x="2391" y="132" width="176" height="177"/></clipPath></defs><g clip-path="url(#clip0)" transform="translate(-2391 -132)"><path d="M2514.14 214.519 2514.14 223.987 2528.63 214.519 2514.14 214.519ZM2478.96 132C2479.75 132 2480.43 132.239 2480.99 132.719 2481.54 133.198 2481.98 133.837 2482.3 134.636L2501.87 199.816 2563.3 199.638C2565.05 199.638 2566.21 200.478 2566.77 202.158 2567.32 203.838 2566.89 205.159 2565.45 206.119L2515.72 241.883 2534.61 304.048C2535.09 305.808 2534.65 307.209 2533.29 308.249 2531.94 309.289 2530.54 309.249 2529.11 308.129L2514.14 296.68 2514.14 296.699 2478.96 269.789 2428.83 308.13C2427.4 309.248 2426 309.289 2424.65 308.25 2423.3 307.211 2422.86 305.814 2423.34 304.057L2442.2 241.992 2392.55 206.286C2391.11 205.328 2390.68 204.01 2391.23 202.332 2391.79 200.655 2392.94 199.816 2394.7 199.816L2456.04 199.816 2475.62 134.636C2475.93 133.837 2476.37 133.198 2476.93 132.719 2477.49 132.239 2478.16 132 2478.96 132Z" fill="#224C87" fill-rule="evenodd"/></g></svg>