<svg width="176" height="176" xmlns="http://www.w3.org/2000/svg" xmlns:xlink="http://www.w3.org/1999/xlink" xml:space="preserve" overflow="hidden"><defs><clipPath id="clip0"><rect x="2615" y="132" width="176" height="176"/></clipPath></defs><g clip-path="url(#clip0)" transform="translate(-2615 -132)"><path d="M2703 132C2703.8 132 2704.47 132.238 2705.03 132.715 2705.59 133.191 2706.02 133.827 2706.34 134.621L2725.93 199.433 2787.3 199.433C2789.05 199.433 2790.21 200.267 2790.77 201.935 2791.32 203.603 2790.89 204.913 2789.45 205.867L2739.78 241.37 2758.64 303.084C2759.12 304.832 2758.68 306.222 2757.33 307.254 2755.98 308.287 2754.58 308.247 2753.15 307.135L2703 269.01 2652.85 307.135C2651.42 308.247 2650.02 308.287 2648.67 307.254 2647.32 306.222 2646.88 304.832 2647.36 303.084L2666.22 241.37 2616.55 205.867C2615.11 204.913 2614.68 203.603 2615.23 201.935 2615.79 200.267 2616.95 199.433 2618.7 199.433L2680.07 199.433 2699.66 134.621C2699.98 133.827 2700.41 133.191 2700.97 132.715 2701.53 132.238 2702.2 132 2703 132Z" fill="#224C87" fill-rule="evenodd"/></g></svg>