<svg width="177" height="176" xmlns="http://www.w3.org/2000/svg" xmlns:xlink="http://www.w3.org/1999/xlink" xml:space="preserve" overflow="hidden"><defs><clipPath id="clip0"><rect x="816" y="134" width="177" height="176"/></clipPath></defs><g clip-path="url(#clip0)" transform="translate(-816 -134)"><path d="M904.5 134C905.301 134 905.981 134.238 906.542 134.715 907.102 135.191 907.542 135.827 907.863 136.621L927.557 201.433 989.282 201.433C991.043 201.433 992.204 202.267 992.765 203.935 993.325 205.603 992.885 206.914 991.444 207.867L941.487 243.371 960.461 305.085C960.941 306.832 960.501 308.222 959.14 309.254 957.779 310.288 956.378 310.247 954.937 309.136L904.5 271.011 854.064 309.136C852.623 310.247 851.221 310.288 849.861 309.254 848.5 308.222 848.059 306.832 848.539 305.085L867.513 243.371 817.557 207.867C816.116 206.914 815.675 205.603 816.236 203.935 816.796 202.267 817.957 201.433 819.718 201.433L881.444 201.433 901.138 136.621C901.458 135.827 901.898 135.191 902.459 134.715 903.019 134.238 903.7 134 904.5 134ZM904.5 174.984 890.81 216.207 854.544 216.207 884.806 235.746 871.596 276.968 904.5 252.187 937.404 276.968 924.194 235.746 954.457 216.207 918.19 216.207 904.5 174.984Z" fill="#224C87" fill-rule="evenodd"/></g></svg>