<svg width="173" height="173" xmlns="http://www.w3.org/2000/svg" xmlns:xlink="http://www.w3.org/1999/xlink" xml:space="preserve" overflow="hidden"><defs><clipPath id="clip0"><rect x="3064" y="135" width="173" height="173"/></clipPath></defs><g clip-path="url(#clip0)" transform="translate(-3064 -135)"><path d="M3150.5 135C3151.28 135 3151.95 135.234 3152.5 135.703 3153.04 136.171 3153.47 136.796 3153.79 137.577L3173.04 201.284 3233.37 201.284C3235.09 201.284 3236.22 202.103 3236.77 203.743 3237.32 205.382 3236.89 206.671 3235.48 207.608L3186.65 242.506 3205.2 303.168C3205.67 304.886 3205.24 306.252 3203.91 307.267 3202.58 308.282 3201.21 308.243 3199.8 307.15L3150.5 269.675 3101.2 307.15C3099.79 308.243 3098.42 308.282 3097.09 307.267 3095.76 306.252 3095.33 304.886 3095.8 303.168L3114.35 242.506 3065.52 207.608C3064.11 206.671 3063.68 205.382 3064.23 203.743 3064.78 202.103 3065.91 201.284 3067.63 201.284L3127.96 201.284 3147.21 137.577C3147.53 136.796 3147.96 136.171 3148.5 135.703 3149.05 135.234 3149.72 135 3150.5 135Z" fill="#224C87" fill-rule="evenodd"/></g></svg>