<svg width="235" height="265" xmlns="http://www.w3.org/2000/svg" xmlns:xlink="http://www.w3.org/1999/xlink" overflow="hidden"><defs><clipPath id="clip0"><rect x="922" y="703" width="235" height="265"/></clipPath><clipPath id="clip1"><path d="M1157 704 1040 704 1040 893.304 923 893.304 923 968 1157 968Z" fill-rule="evenodd" clip-rule="evenodd"/></clipPath><clipPath id="clip2"><rect x="923" y="704" width="234" height="264"/></clipPath><clipPath id="clip3"><rect x="923" y="704" width="234" height="264"/></clipPath><clipPath id="clip4"><rect x="923" y="704" width="234" height="264"/></clipPath></defs><g clip-path="url(#clip0)" transform="translate(-922 -703)"><g clip-path="url(#clip1)"><g clip-path="url(#clip2)"><g clip-path="url(#clip3)"><g clip-path="url(#clip4)"><path d="M197.666 327.333C201.269 327.333 204.872 328.265 208.101 330.129L302.899 384.861C309.356 388.589 313.333 395.479 313.333 402.935L313.333 512.399C313.333 519.854 309.356 526.744 302.899 530.472L208.101 585.203C201.644 588.933 193.689 588.933 187.232 585.203L92.4347 530.472C85.9773 526.744 82 519.854 82 512.399L82 402.935C82 395.479 85.9773 388.589 92.4347 384.861L187.232 330.129C190.461 328.265 194.063 327.333 197.666 327.333Z" fill="#F7F5FB" fill-rule="evenodd" transform="matrix(-1 0 0 1 1237.67 378.667)"/><path d="M197.667 371.416C195.311 371.416 192.955 372.028 190.844 373.252L128.863 409.192C124.642 411.64 122.041 416.164 122.041 421.06L122.041 492.94C122.041 497.836 124.642 502.36 128.863 504.808L190.844 540.747C195.066 543.197 200.267 543.197 204.489 540.747L266.47 504.808C270.691 502.36 273.292 497.836 273.292 492.94L273.292 421.06C273.292 416.164 270.691 411.64 266.47 409.192L204.489 373.252C202.378 372.028 200.022 371.416 197.667 371.416ZM197.667 365.333C200.189 365.333 202.713 365.989 204.973 367.3L271.359 405.794C275.881 408.416 278.667 413.261 278.667 418.505L278.667 495.494C278.667 500.738 275.881 505.583 271.359 508.205L204.973 546.699C200.452 549.323 194.881 549.323 190.359 546.699L123.974 508.205C119.452 505.583 116.667 500.738 116.667 495.494L116.667 418.505C116.667 413.261 119.452 408.416 123.974 405.794L190.359 367.3C192.62 365.989 195.143 365.333 197.667 365.333Z" fill="#EF6F6C" fill-rule="evenodd" transform="matrix(-1 0 0 1 1237.67 378.667)"/><path d="M197.667 334.092C194.264 334.092 190.861 334.973 187.812 336.736L98.2847 388.489C92.1867 392.015 88.43 398.529 88.43 405.579L88.43 509.087C88.43 516.137 92.1867 522.651 98.2847 526.177L187.812 577.93C193.91 581.456 201.423 581.456 207.521 577.93L297.049 526.177C303.147 522.651 306.903 516.137 306.903 509.087L306.903 405.579C306.903 398.529 303.147 392.015 297.049 388.489L207.521 336.736C204.472 334.973 201.069 334.092 197.667 334.092ZM197.667 325.333C201.311 325.333 204.955 326.277 208.221 328.165L304.112 383.597C310.643 387.373 314.667 394.35 314.667 401.901L314.667 512.765C314.667 520.316 310.643 527.294 304.112 531.069L208.221 586.501C201.69 590.277 193.643 590.277 187.111 586.501L91.2213 531.069C84.69 527.294 80.6667 520.316 80.6667 512.765L80.6667 401.901C80.6667 394.35 84.69 387.373 91.2213 383.597L187.111 328.165C190.377 326.277 194.022 325.333 197.667 325.333Z" fill="#1D3557" fill-rule="evenodd" transform="matrix(-1 0 0 1 1237.67 378.667)"/></g></g></g></g></g></svg>