<svg width="177" height="177" xmlns="http://www.w3.org/2000/svg" xmlns:xlink="http://www.w3.org/1999/xlink" xml:space="preserve" overflow="hidden"><defs><clipPath id="clip0"><rect x="1267" y="510" width="177" height="177"/></clipPath></defs><g clip-path="url(#clip0)" transform="translate(-1267 -510)"><path d="M1355.5 510C1356.3 510 1356.98 510.239 1357.54 510.719 1358.1 511.198 1358.54 511.837 1358.86 512.636L1378.56 577.817 1440.28 577.817C1442.04 577.817 1443.2 578.655 1443.77 580.332 1444.33 582.01 1443.89 583.328 1442.44 584.287L1392.49 619.992 1411.46 682.057C1411.94 683.814 1411.5 685.212 1410.14 686.25 1408.78 687.289 1407.38 687.249 1405.94 686.131L1355.5 647.789 1305.06 686.131C1303.62 687.249 1302.22 687.289 1300.86 686.25 1299.5 685.212 1299.06 683.814 1299.54 682.057L1318.51 619.992 1268.56 584.287C1267.12 583.328 1266.68 582.01 1267.24 580.332 1267.8 578.655 1268.96 577.817 1270.72 577.817L1332.44 577.817 1352.14 512.636C1352.46 511.837 1352.9 511.198 1353.46 510.719 1354.02 510.239 1354.7 510 1355.5 510ZM1355.5 551.217 1341.81 592.674 1305.54 592.674 1335.81 612.324 1322.6 653.78 1355.5 628.858 1388.4 653.78 1375.19 612.324 1405.46 592.674 1369.19 592.674 1355.5 551.217Z" fill="#0057AE" fill-rule="evenodd"/></g></svg>