<svg width="176" height="177" xmlns="http://www.w3.org/2000/svg" xmlns:xlink="http://www.w3.org/1999/xlink" xml:space="preserve" overflow="hidden"><defs><clipPath id="clip0"><rect x="2391" y="508" width="176" height="177"/></clipPath></defs><g clip-path="url(#clip0)" transform="translate(-2391 -508)"><path d="M2514.14 590.519 2514.14 599.987 2528.63 590.519 2514.14 590.519ZM2478.96 508C2479.75 508 2480.43 508.24 2480.99 508.719 2481.54 509.198 2481.98 509.837 2482.3 510.636L2501.87 575.816 2563.3 575.638C2565.05 575.638 2566.21 576.478 2566.77 578.158 2567.32 579.838 2566.89 581.159 2565.45 582.119L2515.72 617.883 2534.61 680.049C2535.09 681.808 2534.65 683.209 2533.29 684.249 2531.94 685.289 2530.54 685.249 2529.11 684.129L2514.14 672.68 2514.14 672.7 2478.96 645.789 2428.83 684.13C2427.4 685.248 2426 685.289 2424.65 684.25 2423.3 683.211 2422.86 681.814 2423.34 680.057L2442.2 617.992 2392.55 582.286C2391.11 581.328 2390.68 580.01 2391.23 578.332 2391.79 576.655 2392.94 575.816 2394.7 575.816L2456.04 575.816 2475.62 510.636C2475.93 509.837 2476.37 509.198 2476.93 508.719 2477.49 508.24 2478.16 508 2478.96 508Z" fill="#0057AE" fill-rule="evenodd"/></g></svg>