<svg width="173" height="174" xmlns="http://www.w3.org/2000/svg" xmlns:xlink="http://www.w3.org/1999/xlink" xml:space="preserve" overflow="hidden"><defs><clipPath id="clip0"><rect x="3064" y="511" width="173" height="174"/></clipPath></defs><g clip-path="url(#clip0)" transform="translate(-3064 -511)"><path d="M3150.5 511C3151.28 511 3151.95 511.236 3152.5 511.707 3153.04 512.178 3153.47 512.806 3153.79 513.591L3173.04 577.667 3233.37 577.667C3235.09 577.667 3236.22 578.491 3236.77 580.14 3237.32 581.789 3236.89 583.085 3235.48 584.027L3186.65 619.127 3205.2 680.14C3205.67 681.868 3205.24 683.242 3203.91 684.263 3202.58 685.284 3201.21 685.244 3199.8 684.145L3150.5 646.454 3101.2 684.145C3099.79 685.244 3098.42 685.284 3097.09 684.263 3095.76 683.242 3095.33 681.868 3095.8 680.14L3114.35 619.127 3065.52 584.027C3064.11 583.085 3063.68 581.789 3064.23 580.14 3064.78 578.491 3065.91 577.667 3067.63 577.667L3127.96 577.667 3147.21 513.591C3147.53 512.806 3147.96 512.178 3148.5 511.707 3149.05 511.236 3149.72 511 3150.5 511Z" fill="#0057AE" fill-rule="evenodd"/></g></svg>